<svg width="32" height="32" viewBox="0 0 32 32" fill="none" xmlns="http://www.w3.org/2000/svg">
<path opacity="0.12" d="M28.1997 21.0268C26.0667 20.0538 23.3127 19.1268 22.0997 20.3598C21.1727 21.2998 21.7267 22.9068 21.5397 25.3198C21.4727 26.1528 21.3197 27.1398 20.9727 28.2468C20.9727 28.2468 26.3997 26.2738 28.2527 21.2538L28.1997 21.0268Z" fill="#fff"/>
<path opacity="0.12" d="M9.84736 3.91992C11.2744 5.39292 15.0874 10.4399 11.9944 12.7599C10.6414 13.7729 6.67436 13.2129 6.36736 14.3529C6.02036 15.6329 8.20036 16.5399 8.94736 18.6399C9.42036 19.9669 8.88736 21.6469 6.40736 25.2669C6.40736 25.2669 2.12036 20.9399 2.66736 13.8939C3.21436 6.84792 9.84736 3.91992 9.84736 3.91992Z" fill="#fff"/>
<path opacity="0.12" d="M28.5922 8.0002L27.2522 8.9202C26.1192 9.7002 24.6592 9.8472 23.3922 9.3002L20.0652 7.8602C19.1652 7.4732 18.1322 7.5732 17.3252 8.1272L21.5452 12.8602L18.5382 14.9332C17.9782 15.3202 17.2852 15.4402 16.6312 15.2662C16.0112 15.1062 15.3512 15.2192 14.8242 15.5792L15.7172 16.8722L15.9902 17.2652C16.8232 18.4782 18.4832 18.7852 19.6972 17.9452L30.4502 10.5322C31.2102 10.0122 31.3632 8.9392 30.7572 8.2192C30.2442 7.6262 29.2372 7.5522 28.5902 7.9992L28.5922 8.0002Z" fill="#fff"/>
<path d="M31.2531 7.8C30.5461 6.967 29.1601 6.813 28.2201 7.46L27.4731 7.973C24.8461 4.226 20.6131 2 16.0001 2C8.2801 2 2.0001 8.28 2.0001 16C2.0001 18.273 2.5531 20.413 3.5201 22.313C-0.0468957 27.653 1.0871 28.813 1.4671 29.2C1.7801 29.513 2.2141 29.653 2.7271 29.653C4.0601 29.653 5.9741 28.7 7.9341 27.426C10.2211 29.039 13.0011 29.999 16.0011 29.999C23.7211 29.999 30.0011 23.719 30.0011 15.999C30.0011 14.652 29.8011 13.326 29.4211 12.046L30.8211 11.079C31.3411 10.719 31.6811 10.159 31.7681 9.539C31.8551 8.912 31.6611 8.279 31.2551 7.799L31.2531 7.8ZM9.9201 4.893C11.1731 6.373 12.7071 8.82 12.5601 10.6C12.5071 11.3 12.2001 11.847 11.6331 12.273C11.1261 12.646 9.9661 12.773 8.9461 12.88C7.3931 13.047 6.0531 13.187 5.7861 14.193C5.5191 15.193 6.2331 15.973 6.9191 16.72C7.4591 17.307 8.0721 17.973 8.3791 18.84C8.7061 19.753 8.4721 21.04 6.3791 24.22C4.4861 22.007 3.3321 19.133 3.3321 16C3.3321 11.22 5.9991 7.053 9.9191 4.893H9.9201ZM2.4131 28.253C2.2201 28.06 2.2201 26.8 4.2661 23.606C4.9791 24.699 5.8391 25.686 6.8191 26.546C4.2461 28.159 2.7321 28.573 2.4121 28.253H2.4131ZM21.9401 27.18C22.0671 26.58 22.1601 25.973 22.2071 25.373C22.2741 24.506 22.2541 23.753 22.2271 23.086C22.1871 21.873 22.1871 21.219 22.5741 20.826C22.9671 20.426 24.1271 19.999 27.4271 21.419C26.2601 23.872 24.3341 25.9 21.9401 27.18ZM28.6671 16C28.6671 17.473 28.4001 18.88 27.9401 20.193C24.8271 18.86 22.7531 18.753 21.6271 19.893C20.8201 20.713 20.8541 21.833 20.8941 23.126C20.9141 23.759 20.9341 24.473 20.8741 25.266C20.8071 26.146 20.6411 26.999 20.3871 27.866C19.0201 28.373 17.5471 28.666 16.0001 28.666C13.4671 28.666 11.1071 27.913 9.1201 26.619C11.1731 25.172 13.1671 23.512 14.5271 22.332L14.5341 24.599H15.8671L15.8541 19.926L11.1871 19.939V21.272L13.7201 21.265C11.4931 23.218 9.5671 24.705 7.9671 25.792C7.7071 25.579 7.4671 25.352 7.2271 25.125C9.4671 21.772 10.0671 19.992 9.5141 18.432C9.1211 17.332 8.3871 16.539 7.8011 15.905C7.2081 15.265 6.8541 14.852 6.9341 14.532C7.1141 14.292 8.3341 14.165 9.0671 14.085C10.3001 13.952 11.5801 13.818 12.3541 13.245C13.2071 12.612 13.6811 11.752 13.7611 10.705C13.9341 8.525 12.3281 5.945 11.0341 4.358C12.5611 3.691 14.2411 3.331 16.0011 3.331C20.1481 3.331 23.9611 5.318 26.3411 8.678C25.4941 9.058 24.5281 9.071 23.6611 8.698L20.3281 7.258C19.2151 6.778 17.9551 6.898 16.9551 7.585L16.3421 8.005L20.5621 12.738L18.1691 14.391C17.7691 14.664 17.2691 14.751 16.8021 14.631C15.9951 14.418 15.1421 14.571 14.4621 15.038L13.9221 15.411L15.4551 17.638C15.9621 18.371 16.7151 18.858 17.5881 19.018C17.7881 19.058 17.9951 19.071 18.1951 19.071C18.8621 19.071 19.5151 18.871 20.0751 18.484L28.2681 12.837C28.5281 13.87 28.6681 14.924 28.6681 15.997L28.6671 16ZM30.4671 9.367C30.4341 9.627 30.2941 9.854 30.0801 10L19.3271 17.413C18.8871 17.72 18.3471 17.833 17.8201 17.733C17.2931 17.633 16.8331 17.34 16.5271 16.893L15.8201 15.866C16.0331 15.833 16.2531 15.839 16.4601 15.899C17.3001 16.119 18.1931 15.966 18.9071 15.472L22.5271 12.979L18.4001 8.346C18.8601 8.226 19.3531 8.266 19.8071 8.459L23.1401 9.899C24.6201 10.539 26.3001 10.379 27.6331 9.459L28.9731 8.539C29.3601 8.272 29.9861 8.319 30.2661 8.646C30.4261 8.853 30.4991 9.106 30.4661 9.366L30.4671 9.367Z" fill="#fff"/>
</svg>
