<svg width="32" height="32" viewBox="0 0 32 32" fill="none" xmlns="http://www.w3.org/2000/svg">
<path opacity="0.12" d="M15.5 22.667C15.5 26.533 12.366 29.667 8.5 29.667C4.634 29.667 1.5 26.533 1.5 22.667C1.5 18.801 4.634 15.667 8.5 15.667C12.366 15.667 15.5 18.801 15.5 22.667Z" fill="#fff"/>
<path opacity="0.12" d="M25.832 18.3331V21.4731L28.499 19.9061V16.7661L25.832 18.3331Z" fill="#fff"/>
<path opacity="0.12" d="M15.4724 3.29297L26.8324 9.97297L26.8524 14.9L22.8524 17.253L22.8324 12.266L11.5254 5.61297L15.4724 3.29297Z" fill="#fff"/>
<path d="M29.5266 6.44012L20.8596 1.34012C19.8196 0.727121 18.5196 0.727121 17.4796 1.34012L8.81258 6.44012C7.79958 7.03312 7.17258 8.14012 7.17258 9.31312V15.1861C3.60558 15.8131 0.892578 18.9261 0.892578 22.6661C0.892578 26.8591 4.30558 30.2731 8.49958 30.2731C11.4066 30.2731 13.9326 28.6331 15.2126 26.2331L17.4726 27.5661C17.9926 27.8731 18.5796 28.0261 19.1656 28.0261C19.7516 28.0261 20.3326 27.8731 20.8586 27.5661L29.5256 22.4661C30.5386 21.8731 31.1656 20.7661 31.1656 19.5931V9.31312C31.1656 8.13312 30.5386 7.03312 29.5256 6.44012H29.5266ZM18.1526 2.48712C18.7796 2.12012 19.5526 2.12012 20.1796 2.48712L28.8466 7.58712C28.9536 7.64712 29.0466 7.73412 29.1396 7.81412L26.8066 9.18712L16.7866 3.29412L18.1526 2.48712ZM12.8396 5.61312L15.4666 4.06612L26.1596 10.3591L26.1726 14.1391C26.1726 14.3721 26.0456 14.5991 25.8456 14.7191L23.5056 16.0921L23.4926 11.8851L12.8396 5.61312ZM11.5266 6.38712L21.5466 12.2801L19.1666 13.6801L9.19358 7.81312C9.28658 7.73312 9.37358 7.64612 9.48658 7.58612L11.5266 6.38712ZM8.49958 29.0601C4.97258 29.0601 2.10658 26.1931 2.10658 22.6671C2.10658 19.1411 4.97358 16.2741 8.49958 16.2741C12.0256 16.2741 14.8926 19.1411 14.8926 22.6671C14.8926 26.1931 12.0256 29.0601 8.49958 29.0601ZM15.7396 25.0001C15.9796 24.2671 16.1066 23.4801 16.1066 22.6671C16.1066 18.4741 12.6936 15.0601 8.49958 15.0601V9.31312C8.49958 9.20012 8.52658 9.09312 8.54658 8.98012L18.4996 14.8331V26.5601C18.3796 26.5201 18.2596 26.4801 18.1526 26.4131L15.7396 25.0001ZM29.8326 19.5931C29.8326 20.3001 29.4526 20.9601 28.8456 21.3131L20.1786 26.4131C20.0656 26.4801 19.9516 26.5201 19.8316 26.5601V14.8331L22.1716 13.4601L22.1786 16.0931C22.1786 16.5801 22.4316 17.0061 22.8516 17.2461C23.0586 17.3661 23.2846 17.4261 23.5116 17.4261C23.7446 17.4261 23.9786 17.3661 24.1846 17.2391L26.5246 15.8661C27.1376 15.5061 27.5116 14.8461 27.5116 14.1331L27.4986 10.3261L29.7856 8.97912C29.8056 9.09212 29.8326 9.19912 29.8326 9.31212V19.5921V19.5931Z" fill="#fff"/>
<path d="M28.7064 16.4002C28.4934 16.2802 28.2264 16.2802 28.0134 16.4072L25.8734 17.6672C25.5004 17.8872 25.2734 18.2872 25.2734 18.7202V21.2402C25.2734 21.4872 25.4064 21.7132 25.6204 21.8402C25.7274 21.9002 25.8474 21.9332 25.9604 21.9332C26.0804 21.9332 26.2004 21.9002 26.3134 21.8402L28.4534 20.5802C28.8264 20.3602 29.0534 19.9602 29.0534 19.5272V17.0002C29.0534 16.7532 28.9204 16.5272 28.7064 16.4002ZM27.9464 19.5272C27.9464 19.5672 27.9264 19.6002 27.8934 19.6202L26.3934 20.5002V18.7132C26.3934 18.6732 26.4134 18.6402 26.4464 18.6202L27.9464 17.7402V19.5272Z" fill="#fff"/>
<path d="M8.83389 21.4468H6.84689L8.55989 19.7338L7.77289 18.9468L4.71289 21.9998L7.77289 25.0598L8.55989 24.2728L6.83989 22.5528H8.83289C9.99989 22.5528 10.9459 23.4998 10.9459 24.6658V25.2188H12.0589V24.6658C12.0519 22.8858 10.6119 21.4458 8.83189 21.4458L8.83389 21.4468Z" fill="#fff"/>
</svg>
