<svg width="32" height="32" viewBox="0 0 32 32" fill="none" xmlns="http://www.w3.org/2000/svg">
<g clip-path="url(#clip0_1577_1066)">
<path opacity="0.12" d="M17.332 30.667H14.665C13.932 30.667 13.332 30.067 13.332 29.334C13.332 28.601 13.932 28.001 14.665 28.001H17.332C18.065 28.001 18.665 28.601 18.665 29.334C18.665 30.067 18.065 30.667 17.332 30.667Z" fill="#fff"/>
<path opacity="0.12" d="M28 17.667V13.667C28 12.934 28.6 12.334 29.333 12.334C30.44 12.334 31.333 13.227 31.333 14.334V17.001C31.333 18.108 30.44 19.001 29.333 19.001C28.6 19.001 28 18.4 28 17.667Z" fill="#fff"/>
<path opacity="0.12" d="M4.00097 18V14C4.00097 13.267 3.40097 12.667 2.66797 12.667C1.56097 12.667 0.667969 13.56 0.667969 14.667V17.334C0.667969 18.441 1.56097 19.334 2.66797 19.334C3.40097 19.334 4.00097 18.733 4.00097 18Z" fill="#fff"/>
<path opacity="0.12" d="M14.2329 6.33984C13.9129 5.71984 13.6659 5.04684 13.5129 4.33984C10.8929 5.06684 8.73994 6.89984 7.58594 9.30684C7.72594 9.31984 7.85894 9.33384 7.99894 9.33384C10.5189 9.33384 12.7659 8.16684 14.2319 6.34084L14.2329 6.33984Z" fill="#fff"/>
<path opacity="0.12" d="M15.9997 4C15.8397 4 15.6867 4.013 15.5267 4.027C14.9267 4.06 14.3397 4.14 13.7737 4.28C13.6867 4.3 13.6007 4.327 13.5137 4.347C13.5407 4.48 13.5737 4.614 13.6067 4.747C13.7597 5.307 13.9667 5.84 14.2337 6.347C15.5667 8.907 18.2407 10.667 21.3337 10.667C22.5337 10.667 23.6607 10.394 24.6807 9.927C23.3207 6.46 19.9527 4 15.9997 4Z" fill="#fff"/>
<path d="M14 13.667C14 14.403 13.403 15 12.667 15C11.931 15 11.334 14.403 11.334 13.667C11.334 12.931 11.931 12.334 12.667 12.334C13.403 12.334 14 12.931 14 13.667Z" fill="#fff"/>
<path d="M20.668 13.667C20.668 14.403 20.071 15 19.335 15C18.599 15 18.002 14.403 18.002 13.667C18.002 12.931 18.599 12.334 19.335 12.334C20.071 12.334 20.668 12.931 20.668 13.667Z" fill="#fff"/>
<path d="M19.8062 20.1129L18.8662 19.1729C17.2862 20.7529 14.7192 20.7529 13.1392 19.1729L12.1992 20.1129C13.2462 21.1599 14.6262 21.6859 16.0062 21.6859C17.3792 21.6859 18.7532 21.1659 19.8062 20.1129Z" fill="#fff"/>
<path d="M29.332 11.667C29.072 11.667 28.832 11.72 28.605 11.807C27.972 5.37398 22.558 0.333984 15.998 0.333984C9.32505 0.333984 3.85105 5.55398 3.37805 12.141C3.15805 12.054 2.91805 12.001 2.66505 12.001C1.19205 12.001 -0.00195312 13.194 -0.00195312 14.668V17.335C-0.00195312 18.808 1.19105 20.002 2.66505 20.002C3.76505 20.002 4.66505 19.102 4.66505 18.002V13.069C4.66505 6.78198 9.75205 1.66898 15.998 1.66898C22.244 1.66898 27.331 6.78198 27.331 13.069V20.002C27.331 24.602 23.731 28.362 19.198 28.642C18.918 27.882 18.191 27.335 17.331 27.335H14.664C13.564 27.335 12.664 28.235 12.664 29.335C12.664 30.435 13.564 31.335 14.664 31.335H17.331C18.211 31.335 18.951 30.762 19.218 29.975C24.471 29.682 28.665 25.328 28.665 20.002V19.549C28.872 19.622 29.098 19.669 29.332 19.669C30.805 19.669 31.999 18.476 31.999 17.002V14.335C31.999 12.862 30.806 11.668 29.332 11.668V11.667ZM3.33205 18C3.33205 18.367 3.03205 18.667 2.66505 18.667C1.93205 18.667 1.33205 18.067 1.33205 17.334V14.667C1.33205 13.934 1.93205 13.334 2.66505 13.334C3.03205 13.334 3.33205 13.634 3.33205 14.001V18ZM17.332 30H14.665C14.298 30 13.998 29.7 13.998 29.333C13.998 28.966 14.298 28.666 14.665 28.666H17.332C17.699 28.666 17.999 28.966 17.999 29.333C17.999 29.7 17.699 30 17.332 30ZM30.666 17C30.666 17.733 30.066 18.333 29.333 18.333C28.966 18.333 28.666 18.033 28.666 17.666V13.666C28.666 13.299 28.966 12.999 29.333 12.999C30.066 12.999 30.666 13.599 30.666 14.332V17Z" fill="#fff"/>
<path d="M17.333 26C22.113 26 26 22.113 26 17.333V13.333C26 7.82001 21.513 3.33301 16 3.33301C10.487 3.33301 6 7.82001 6 13.333V17.333C6 22.113 9.887 26 14.667 26H17.333ZM23.687 9.34001C22.72 9.77301 21.707 10 20.667 10C17.92 10 15.427 8.48001 14.16 6.03301C13.98 5.69301 13.847 5.34001 13.727 4.98001C14.447 4.78001 15.214 4.66701 16 4.66701C19.34 4.66701 22.24 6.56701 23.687 9.34001ZM12.467 5.42701C12.607 5.84001 12.767 6.25401 12.974 6.64701C13.054 6.80701 13.147 6.96001 13.241 7.11401C11.941 8.44701 10.201 9.22701 8.328 9.30701C9.235 7.60001 10.695 6.22701 12.468 5.42701H12.467ZM7.333 17.333V13.333C7.333 12.4 7.486 11.5 7.76 10.653C7.84 10.66 7.92 10.666 8 10.666C10.273 10.666 12.413 9.78601 14.02 8.21901C15.647 10.172 18.06 11.332 20.667 11.332C21.887 11.332 23.08 11.072 24.207 10.565C24.5 11.432 24.667 12.365 24.667 13.332V17.332C24.667 21.379 21.38 24.665 17.334 24.665H14.667C10.62 24.665 7.334 21.378 7.334 17.332L7.333 17.333Z" fill="#fff"/>
</g>
<defs>
<clipPath id="clip0_1577_1066">
<rect width="32" height="32" fill="white"/>
</clipPath>
</defs>
</svg>
