<svg width="32" height="32" viewBox="0 0 32 32" fill="none" xmlns="http://www.w3.org/2000/svg">
<path opacity="0.12" d="M11.668 19.333C11.668 20.438 10.773 21.333 9.66797 21.333C8.56297 21.333 7.66797 20.438 7.66797 19.333C7.66797 18.228 8.56297 17.333 9.66797 17.333C10.773 17.333 11.668 18.228 11.668 19.333Z" fill="#fff"/>
<path opacity="0.12" d="M21.333 30.667C18.2 29.88 16 27.067 16 23.834V20.001L21.333 18.001L26.666 20.001V23.834C26.666 27.067 24.466 29.881 21.333 30.667Z" fill="#fff"/>
<path opacity="0.12" d="M1.33203 8H30.665V12H1.33203V8Z" fill="#fff"/>
<path d="M6.3323 21.8868C6.9523 21.8868 7.5323 21.6538 7.9993 21.2538C8.4463 21.6408 9.0263 21.8868 9.6663 21.8868C11.0733 21.8868 12.2193 20.7398 12.2193 19.3338C12.2193 17.9278 11.0723 16.7808 9.6663 16.7808C9.0263 16.7808 8.4463 17.0278 7.9993 17.4138C7.0193 16.5738 5.4463 16.6068 4.5263 17.5268C4.0463 18.0068 3.7793 18.6538 3.7793 19.3338C3.7793 20.0138 4.0463 20.6608 4.5263 21.1408C5.0063 21.6208 5.6533 21.8878 6.3333 21.8878L6.3323 21.8868ZM9.6663 17.8868C10.4593 17.8868 11.1133 18.5338 11.1133 19.3338C11.1133 20.1338 10.4663 20.7808 9.6663 20.7808C8.8663 20.7808 8.2193 20.1338 8.2193 19.3338C8.2193 18.5338 8.8723 17.8868 9.6663 17.8868ZM5.3123 18.3128C5.8523 17.7728 6.7853 17.7658 7.3323 18.2998C7.1923 18.6198 7.1053 18.9668 7.1053 19.3398C7.1053 19.7128 7.1853 20.0598 7.3323 20.3798C6.7853 20.9068 5.8453 20.9068 5.3123 20.3668C5.0393 20.0798 4.8853 19.7198 4.8853 19.3338C4.8853 18.9478 5.0383 18.5858 5.3123 18.3128Z" fill="#fff"/>
<path d="M28.001 2H4.00097C2.16097 2 0.667969 3.493 0.667969 5.333V21.333C0.667969 23.173 2.16097 24.666 4.00097 24.666H15.381C15.721 27.853 18.008 30.519 21.168 31.313L21.335 31.353L21.495 31.313C24.662 30.52 26.942 27.853 27.282 24.666H28.002C29.842 24.666 31.335 23.173 31.335 21.333V5.333C31.335 3.493 29.841 2 28.001 2ZM2.00097 8.667H30.001V11.334H2.00097V8.667ZM26.001 23.833C26.001 26.706 24.088 29.206 21.334 29.973C18.581 29.206 16.667 26.706 16.667 23.833V20.46L21.334 18.713L26.001 20.46V23.833ZM30.001 21.333C30.001 22.433 29.101 23.333 28.001 23.333H27.334V19.54L21.334 17.287L15.334 19.54V23.333H4.00097C2.90097 23.333 2.00097 22.433 2.00097 21.333V12.666H30.001V21.333ZM2.00097 7.333V5.333C2.00097 4.233 2.90097 3.333 4.00097 3.333H28.001C29.101 3.333 30.001 4.233 30.001 5.333V7.333H2.00097Z" fill="#fff"/>
<path d="M19.0408 23.9529L18.3008 24.6929L20.4478 26.8459L24.3748 22.9189L23.6348 22.1719L20.4478 25.3589L19.0408 23.9529Z" fill="#fff"/>
</svg>
