<svg width="116" height="28" viewBox="0 0 116 28" fill="none" xmlns="http://www.w3.org/2000/svg">
<path d="M18.125 18.4592H8.49286L6.83572 22.4C6.42144 23.3333 6.21429 24.0593 6.21429 24.4741C6.21429 24.8889 6.42144 25.2 6.73215 25.5111C7.04286 25.8222 7.87144 26.0296 9.01072 26.0296V26.7555H1.34644V26.0296C2.38215 25.8222 3.00358 25.6148 3.31429 25.3037C3.93572 24.6815 4.66072 23.5407 5.38572 21.7778L14.0857 1.45184H14.7071L23.3036 21.9852C24.0286 23.6444 24.65 24.6815 25.1679 25.2C25.6857 25.7185 26.5143 25.9259 27.55 26.0296V26.7555H17.8143V26.0296C18.7464 26.0296 19.4714 25.8222 19.7822 25.5111C20.0929 25.2 20.3 24.8889 20.3 24.4741C20.3 23.9555 20.0929 23.1259 19.575 21.9852L18.125 18.4592ZM17.6071 17.1111L13.4643 7.15555L9.21786 17.1111H17.6071Z" fill="black"/>
<path d="M52.7179 19.9111L53.3393 20.0148L51.2679 26.7556H32.1071V26.0296H33.0393C34.075 26.0296 34.8 25.7185 35.3179 24.9926C35.525 24.5778 35.7321 23.7481 35.7321 22.2963V6.42963C35.7321 4.87407 35.525 3.94074 35.2143 3.52592C34.6964 3.0074 34.075 2.69629 33.1429 2.69629H32.1071V1.97037H43.2929V2.69629C41.9464 2.69629 41.0143 2.8 40.4964 3.11111C39.9786 3.42222 39.5643 3.73333 39.4607 4.04444C39.3571 4.35555 39.15 5.39259 39.15 6.84444V22.4C39.15 23.437 39.2536 24.0593 39.4607 24.4741C39.5643 24.6815 39.875 24.8889 40.1857 24.9926C40.4964 25.0963 41.4286 25.2 42.9821 25.2H44.7429C46.6071 25.2 47.9536 25.0963 48.6786 24.7852C49.4036 24.4741 50.1286 24.0593 50.75 23.3333C51.3714 22.6074 52.0964 21.4667 52.7179 19.9111Z" fill="black"/>
<path d="M74.675 18.4592H65.1464L63.4893 22.4C63.075 23.3333 62.8679 24.0592 62.8679 24.5778C62.8679 24.9926 63.075 25.3037 63.3857 25.6148C63.6964 25.9259 64.525 26.1333 65.6643 26.1333V26.8592H57.8964V26.1333C58.9321 25.9259 59.5536 25.7185 59.8643 25.4074C60.4857 24.7852 61.2107 23.6444 61.9357 21.8815L70.6357 1.55554H71.2571L79.8536 22.0889C80.5786 23.7481 81.2 24.7852 81.7179 25.3037C82.2357 25.8222 83.0643 26.0296 84.1 26.1333V26.8592H74.3643V26.1333C75.2964 26.1333 76.0214 25.9259 76.3321 25.6148C76.6428 25.3037 76.85 24.9926 76.85 24.5778C76.85 24.0592 76.6429 23.2296 76.125 22.0889L74.675 18.4592ZM74.1571 17.1111L70.0143 7.15554L65.7679 17.1111H74.1571Z" fill="black"/>
<path d="M87.4143 1.97037H94.1464L109.268 20.5333V6.32592C109.268 4.77037 109.061 3.83703 108.75 3.52592C108.336 3.0074 107.611 2.8 106.575 2.8H105.746V1.97037H114.343V2.69629H113.514C112.479 2.69629 111.754 3.0074 111.339 3.62963C111.029 4.04444 110.925 4.87407 110.925 6.32592V27.1704H110.304L93.9393 7.25926V22.5037C93.9393 24.0593 94.1464 24.9926 94.4572 25.3037C94.8714 25.8222 95.5965 26.0296 96.6322 26.0296H97.4607V26.7556H88.8643V26.0296H89.6929C90.7286 26.0296 91.4536 25.7185 91.9715 25.0963C92.2822 24.6815 92.3857 23.8518 92.3857 22.4V5.28889C91.6607 4.45926 91.1429 3.94074 90.7286 3.62963C90.3143 3.31852 89.7964 3.11111 89.0714 2.8C88.7607 2.69629 88.1393 2.59259 87.5179 2.59259V1.97037H87.4143Z" fill="black"/>
</svg>
