<svg id="eoQiaK0gmB81" xmlns="http://www.w3.org/2000/svg" xmlns:xlink="http://www.w3.org/1999/xlink" viewBox="0 0 302 391" shape-rendering="geometricPrecision" text-rendering="geometricPrecision">
<style><![CDATA[
#eoQiaK0gmB83_to {animation: eoQiaK0gmB83_to__to 1600ms linear infinite normal forwards}@keyframes eoQiaK0gmB83_to__to { 0% {transform: translate(251.636002px,13.84705px)} 50% {transform: translate(251.636002px,8.848269px)} 100% {transform: translate(251.636002px,13.84705px)}} #eoQiaK0gmB89_to {animation: eoQiaK0gmB89_to__to 1600ms linear infinite normal forwards}@keyframes eoQiaK0gmB89_to__to { 0% {transform: translate(48px,70.000099px)} 50% {transform: translate(48px,60.001903px);animation-timing-function: cubic-bezier(0.42,0,0.58,1)} 100% {transform: translate(48px,70.000099px)}} #eoQiaK0gmB810_to {animation: eoQiaK0gmB810_to__to 1600ms linear infinite normal forwards}@keyframes eoQiaK0gmB810_to__to { 0% {transform: translate(30px,211px)} 50% {transform: translate(30px,193.995952px)} 100% {transform: translate(30px,211px)}} #eoQiaK0gmB811_to {animation: eoQiaK0gmB811_to__to 1600ms linear infinite normal forwards}@keyframes eoQiaK0gmB811_to__to { 0% {transform: translate(166px,15.0001px)} 50% {transform: translate(166px,8.995952px)} 100% {transform: translate(166px,15.0001px)}} #eoQiaK0gmB833_tr {animation: eoQiaK0gmB833_tr__tr 1600ms linear infinite normal forwards}@keyframes eoQiaK0gmB833_tr__tr { 0% {transform: translate(148.677065px,129.989624px) rotate(-0.319788deg)} 50% {transform: translate(148.677065px,129.989624px) rotate(4.20902deg)} 100% {transform: translate(148.677065px,129.989624px) rotate(-0.319788deg)}} #eoQiaK0gmB838 {animation: eoQiaK0gmB838_c_o 1600ms linear infinite normal forwards}@keyframes eoQiaK0gmB838_c_o { 0% {opacity: 1} 50% {opacity: 0} 100% {opacity: 1}}
]]></style>
<path d="M70.7184,217.843c-23.2034-21.805-42.2692-58.917-16.091-114.102C80.8056,48.5559,208.585,5.973,258.578,31.68c49.992,25.707,65.297,108.906,0,137.432-65.298,28.525-39.715,45.04-56.969,75.943-17.253,30.902-107.6872-5.408-130.8906-27.212Z" transform="translate(.009155 0)" clip-rule="evenodd" fill="#b7f4b4" fill-rule="evenodd"/><g id="eoQiaK0gmB83_to" transform="translate(251.636002,13.84705)"><path d="M257.694,7.272l-2.66,13.1501-9.456-7.3879L257.694,7.272Z" transform="scale(1,0.963988) translate(-251.636002,-13.84705)" clip-rule="evenodd" fill="#fff" fill-rule="evenodd" stroke="#333" stroke-linecap="round" stroke-linejoin="round"/></g><path d="M249,268h-8v8h8v-8Z" fill="#fff" stroke="#333" stroke-linecap="round"/><path d="M265,280h-13v13h13v-13Z" fill="#b7f4b4"/><path d="M154,0.000061h-13v13.000039h13v-13.000039Z" fill="#b7f4b4"/><path d="M276,201c4.418,0,8-3.582,8-8s-3.582-8-8-8-8,3.582-8,8s3.582,8,8,8Z" fill="#b7f4b4"/><path d="M38,240c4.4183,0,8-3.582,8-8s-3.5817-8-8-8-8,3.582-8,8s3.5817,8,8,8Z" fill="#b7f4b4"/><g id="eoQiaK0gmB89_to" transform="translate(48,70.000099)"><path d="M48,78.0001c4.4183,0,8-3.5818,8-8c0-4.4183-3.5817-8-8-8s-8,3.5817-8,8c0,4.4182,3.5817,8,8,8Z" transform="scale(1,0.963988) translate(-48,-70.000099)" fill="#fff" stroke="#333" stroke-linecap="round" stroke-linejoin="round"/></g><g id="eoQiaK0gmB810_to" transform="translate(30,211)"><path d="M30,215c2.2091,0,4-1.791,4-4s-1.7909-4-4-4-4,1.791-4,4s1.7909,4,4,4Z" transform="scale(1,0.963988) translate(-30,-211)" fill="#fff" stroke="#333" stroke-linecap="round" stroke-linejoin="round"/></g><g id="eoQiaK0gmB811_to" transform="translate(166,15.0001)"><path d="M166,19.0001c2.209,0,4-1.7909,4-4s-1.791-4-4-4-4,1.7908-4,4s1.791,4,4,4Z" transform="scale(1,0.963988) translate(-166,-15.0001)" fill="#fff" stroke="#333" stroke-linecap="round" stroke-linejoin="round"/></g><path d="M59.4772,255h199.9248" fill="none" stroke="#333" stroke-linecap="round"/><path d="M70.5,263.082h54.874" fill="none" stroke="#333" stroke-linecap="round"/><path d="M93,317.371L79.2955,333L48,293.324c3.3843-2.905,7.1809-3.906,11.3897-3.003s11.1186,5.143,20.7294,12.721h6.0793L93,317.371Z" clip-rule="evenodd" fill="#333" fill-rule="evenodd" stroke="#333" stroke-linecap="round" stroke-linejoin="round"/><path d="M61.0451,290.317c2.8074.583,6.7924,2.575,11.9549,5.975-.6313,5.383-2.6341,9.518-6.0078,12.404l-.3667.304L52,291.533c2.7731-1.487,5.7882-1.892,9.0451-1.216Z" clip-rule="evenodd" fill="#fff" fill-rule="evenodd" stroke="#333" stroke-linecap="round" stroke-linejoin="round"/><path d="M104,306.19L93.6082,317L81,302.654L87.7123,292L104,306.19Z" clip-rule="evenodd" fill="#fff" fill-rule="evenodd" stroke="#333" stroke-linecap="round" stroke-linejoin="round"/><path d="M88,294l3.5042,1.59L105,307.16L99.2937,313L88,294Z" clip-rule="evenodd" fill="#333" fill-rule="evenodd" stroke="#333" stroke-linecap="round" stroke-linejoin="round"/><path d="M132,352.187L133.042,366h20.42L154,348l-22,4.187Z" clip-rule="evenodd" fill="#fff" fill-rule="evenodd" stroke="#333" stroke-linecap="round" stroke-linejoin="round"/><path d="M154,348l-.359,12-21.635-5.912-.006-.08l14.579-4.596L154,348Z" clip-rule="evenodd" fill="#333" fill-rule="evenodd" stroke="#333" stroke-linecap="round" stroke-linejoin="round"/><path d="M149,214c-7.213,2.721-11.741,4.366-13.585,4.935-2.765.854-1.734,3.255,5.381,1.345c4.744-1.273,7.478-3.366,8.204-6.28Z" clip-rule="evenodd" fill="#fff" fill-rule="evenodd" stroke="#333" stroke-linecap="round" stroke-linejoin="round"/><path d="M227,253.518c-8.299,8.023-17.599,12.035-27.899,12.035s-22.862,1.149-37.686,3.446c-2.43,3.876-3.645,7.094-3.645,9.653c0,2.56-1.241,25.676-3.722,69.348h-22.952l-8.423-63.889-16.14,20.305L88,289.39c20.257-35.306,31.815-54.484,34.673-57.533c2.858-3.05,9.061-6.235,18.61-9.554h38.715L211.702,221L227,253.518Z" clip-rule="evenodd" fill="#fff" fill-rule="evenodd" stroke="#333" stroke-linecap="round" stroke-linejoin="round"/><g id="eoQiaK0gmB833_tr" transform="translate(148.677065,129.989624) rotate(-0.319788)"><path d="M168.27,152.974c-10.195-18.417-15.716-29.414-16.562-32.991-1.27-5.365-6.48-21.9854-8.398-23.0609-1.278-.717-4.947-2.1746-11.005-4.373-5.119-7.6994-8.261-11.549-9.426-11.549-1.747,0,1.294,7.176,4.029,11.549c2.734,4.373,6.526,10.2599,5.397,13.0089s-9.426-3.732-11.575-3.358c-2.148.373.713,4.42,5.071,7.716c4.357,3.295,6.604,6.19,10.793,7.377c4.19,1.187,6.927,12.63,10.219,29.131c3.293,16.501,7.818,30.181,12.642,31.778c3.217,1.064,9.065,1.064,17.545,0l-8.73-25.228Z" transform="translate(-148.676445,-129.981945)" clip-rule="evenodd" fill="#fff" fill-rule="evenodd" stroke="#333" stroke-linecap="round" stroke-linejoin="round"/></g><path d="M186.608,94.4801c-1.307,3.7722-1.068,6.5589,0,12.7229c1.067,6.163-1.608,9.836-1.608,10.75c0,.913,3.83.481,4.835,2.738c1.004,2.256,2.472,10.516,5.385,11.458c1.942.627,4.181-.13,6.717-2.272c1.184,2.696,1.462,6.953.833,12.773-.629,5.819,6.114,4.057,20.23-5.286-5.081-5.169-7.621-11.639-7.621-19.411c0-11.658,3.754-16.079.717-25.9155s-13.758-9.8205-19.576-8.2925-8.606,6.963-9.912,10.7351Z" clip-rule="evenodd" fill="#fff" fill-rule="evenodd" stroke="#333" stroke-linecap="round" stroke-linejoin="round"/><path d="M205.402,122c2.623,3.394,2.113,11.118-2.246,15c.013-2.951-.327-5.295-1.022-7.036l-.134-.319c2.268-2.135,3.402-4.683,3.402-7.645Z" clip-rule="evenodd" fill="#333" fill-rule="evenodd" stroke="#333" stroke-linecap="round" stroke-linejoin="round"/><path d="M180.289,74.0001c7.553,6.2975,16.647,4.1125,18.097,3.827c5.014-.9871,10.1-2.0193,13.357-1.6438c3.523.4063,5.459,4.2882,5.808,11.6458c2.967,1.5794,4.754,3.9084,5.361,6.9868s-1.94,10.7681-7.642,23.0701l-.971.209c-3.936.827-6.545,1.087-7.829.781-1.386-.33-2.74-3.185-4.063-8.564c3.332-.627,5.237-2.167,5.715-4.62.716-3.68-2.323-5.191-4.264-4.061s-1.727,3.655-2.998,3.153c-.848-.335-1.744-2.583-2.688-6.7427-5.975.4223-10.997-.9031-15.067-3.9762s-6.772-8.2044-8.105-15.3939c3.903.5988,7.624.8588,11.164.7797-3.222-1.992-5.212-4.419-5.875-5.4508Z" clip-rule="evenodd" fill="#333" fill-rule="evenodd"/><path id="eoQiaK0gmB838" d="M194.02,108.945c.81-.172,1.234-1.406.947-2.757-.287-1.35-1.176-2.306-1.987-2.133-.81.172-1.234,1.406-.947,2.757.287,1.35,1.176,2.306,1.987,2.133Z" fill="#333" stroke="#333" stroke-linecap="round"/><path d="M190,100c2.362.261,4.029.928,5,2l-5-2Z" clip-rule="evenodd" fill="#fff" fill-rule="evenodd"/><path d="M190,100c2.362.261,4.029.928,5,2" fill="none" stroke="#333" stroke-linecap="round"/><path d="M193,120.192L199.733,119c.662,3.613.093,5.596-1.707,5.951-1.801.355-3.476-1.231-5.026-4.759Z" clip-rule="evenodd" fill="#333" fill-rule="evenodd" stroke="#333" stroke-linecap="round" stroke-linejoin="round"/><path d="M193.5,114c2.485,0,4.5-2.015,4.5-4.5s-2.015-4.5-4.5-4.5-4.5,2.015-4.5,4.5s2.015,4.5,4.5,4.5Z" fill="none" stroke="#333" stroke-linecap="round"/><path d="M197,107l5-3" fill="none" stroke="#333" stroke-linecap="round"/><path d="M189,109.819l-4-.638" fill="none" stroke="#333" stroke-linecap="round"/><path d="M168.588,154.161c-1.652,10.264.177,20.543,5.486,30.839c12.907-1.968,23.883-4.01,32.926-6.127L202.34,145l-33.752,9.161Z" clip-rule="evenodd" fill="#333" fill-rule="evenodd" stroke="#333" stroke-linecap="round" stroke-linejoin="round"/><path d="M183,221.664c5.803-12.058,8.705-19.06,8.705-21.004c0-2.917-1.498-29.54,3.296-43.743s11.737-21.846,18.175-21.846s9.726-.802,14.591,2.986c3.243,2.526,10.987,22.641,23.233,60.344-3.273,3.595-7.025,6.352-11.255,8.271c0,8.732-2.152,25.874-2.152,31.854s-7.25,19.913-9.826,21.389c-1.718.983-8.729-6.528-21.033-22.534L183,221.664Z" clip-rule="evenodd" fill="#333" fill-rule="evenodd" stroke="#333" stroke-linecap="round" stroke-linejoin="round"/><path d="M236,209c-7.224,2.006-13.991,2.006-20.302,0c0,.94,0,2.002,0,3.184-9.102-.359-17.456.246-25.061,1.818-11.407,2.356-16.243,3.486-25.241.852s-11.899-3.485-14.068-2.169c-2.17,1.317-18.255,12.557-19.176,14.084-.615,1.019.64,1.019,3.764,0c.029.836.676,1.253,1.939,1.253c1.894,0,15.737-.047,18.675-.523c2.939-.476,7.583-2.353,9.584-2.353s43.851,6.874,51.296,7.666s14.156-.763,16.373-7.666C235.261,220.544,236,215.162,236,209Z" clip-rule="evenodd" fill="#fff" fill-rule="evenodd" stroke="#333" stroke-linecap="round" stroke-linejoin="round"/><path d="M211,206c0-19.727,0-32.818,0-39.273s1-13.031,3-19.727" fill="none" stroke="#fff" stroke-linecap="round"/><path d="M135,227l18-10" fill="none" stroke="#333" stroke-linecap="round"/><path d="M144,226l12-5" fill="none" stroke="#333" stroke-linecap="round"/><path d="M122,280c1.211-10.712,5.545-19.712,13-27" fill="none" stroke="#333" stroke-linecap="round"/><path d="M141,255c13.471,4.767,25.138,8.1,35,10" fill="none" stroke="#333" stroke-linecap="round"/><path d="M130.935,355.104l-1.525-5.769c-.539-2.04.677-4.13,2.717-4.669.444-.118.906-.154,1.363-.108l22.908,2.33c1.399.143,2.418,1.393,2.276,2.792-.002.022-.005.045-.008.067l-.647,5.031c-.163,1.271-1.245,2.222-2.526,2.222h-22.096c-1.156,0-2.167-.778-2.462-1.896Z" clip-rule="evenodd" fill="#fff" fill-rule="evenodd" stroke="#333" stroke-linecap="round" stroke-linejoin="round"/><path d="M84.764,292.392l2.3502-5.485c.831-1.939,3.0767-2.837,5.016-2.006.4222.181.8083.436,1.1398.754l16.617,15.94c1.015.974,1.049,2.586.075,3.601-.015.016-.031.032-.047.048l-3.608,3.566c-.911.901-2.349.985-3.358.196L85.5369,295.402c-.9109-.712-1.2282-1.947-.7729-3.01Z" clip-rule="evenodd" fill="#fff" fill-rule="evenodd" stroke="#333" stroke-linecap="round" stroke-linejoin="round"/><path d="M134.019,367c-3.787,3.815-8.681,7.003-14.681,9.565C110.336,380.407,106,383.192,106,390c4.296,0,20.963,0,50,0l-1.42-23h-20.561Z" clip-rule="evenodd" fill="#333" fill-rule="evenodd" stroke="#333" stroke-linecap="round" stroke-linejoin="round"/><path d="M123.461,374c4.065,2.898,6.238,7.06,6.518,12.488L130,387h-24c1.213-4.459,5.021-6.972,11.575-10.022l1.03-.474c1.529-.696,2.985-1.437,4.368-2.222l.488-.282Z" clip-rule="evenodd" fill="#fff" fill-rule="evenodd" stroke="#333" stroke-linecap="round" stroke-linejoin="round"/><path d="M128,374.41c1.923,1.047,3.497,2.575,4.721,4.584c1.837,3.013,5.107,1.656,3.28-2.292-1.827-3.949-3.982-6.544-.748-7.361c3.235-.817,9.05-.356,10.453,3.502c1.403,3.859-2.523,3.948-5.252,1.974s-2.702-4.248-3.952-3.564c-.832.456.791,3.705,4.871,9.747" fill="none" stroke="#fff" stroke-linecap="round"/><path d="M74,301c.2797,2.858.4195,5.743.4195,8.658c0,4.371,2.2449.962,3.0171-2.228.7722-3.189,2.6311-1.009,5.1786,2.767c2.5474,3.777,3.1555,5.068,1.3305,7.28s-3.1864-3.068-3.8161-6.925c-.6296-3.858-2.693,2.469-2.693,5.974" fill="none" stroke="#fff" stroke-linecap="round"/><path d="M191,178c.821-12.957,3.154-22.624,7-29" fill="none" stroke="#fff" stroke-linecap="round"/><path d="M262.213,345.368c-4.395,17.336-12.778,31.338-25.15,42.005" fill="none" stroke="#333" stroke-linecap="round" stroke-linejoin="round"/><path d="M263.015,348.743c-3.851-.337-6.7-3.732-6.363-7.583.337-3.852,3.732-6.701,7.584-6.364c3.851.337,6.7,3.732,6.363,7.584-.337,3.851-3.732,6.7-7.584,6.363Z" fill="#b7f4b4"/><path d="M264.796,339.864c-2.201-.192-3.829-2.132-3.636-4.333.192-2.201,2.133-3.829,4.333-3.636c2.201.192,3.829,2.132,3.636,4.333-.192,2.201-2.132,3.829-4.333,3.636Z" fill="#333" stroke="#333" stroke-linecap="round" stroke-linejoin="round"/><path d="M254.615,364.974c.893-4.261-.429-7.653-3.965-10.177-.829,5.376.493,8.768,3.965,10.177Z" clip-rule="evenodd" fill="#333" fill-rule="evenodd" stroke="#333" stroke-linecap="round" stroke-linejoin="round"/><path d="M269.177,351.377c-4.323-.518-7.587,1.094-9.793,4.837c5.428.357,8.692-1.255,9.793-4.837Z" clip-rule="evenodd" fill="#333" fill-rule="evenodd" stroke="#333" stroke-linecap="round" stroke-linejoin="round"/><path d="M214.407,389.502h23.073c7.61-6.008,10.541-12.48,8.793-19.417-2.621-10.404-5.164-12.984,2.343-18.008c7.507-5.025,6.451-14.897-2.343-20-8.793-5.104,9.308-8.909,7.614-21-1.041-7.433-10.887-8.971-18.026-4.802-4.474,2.612-7.655,8.703-7.655,13.145c0,11.531-.859,11.498-8.063,15.531-7.204,4.034-5.206,11.759-1.032,17.126c4.173,5.367-3.795,10.557-8.434,19.362-3.093,5.87-1.849,11.891,3.73,18.063Z" clip-rule="evenodd" fill="#fff" fill-rule="evenodd" stroke="#333" stroke-linecap="round" stroke-linejoin="round"/><path d="M243.209,311.804c-12.305,23.298-18.457,49.197-18.457,77.698" fill="none" stroke="#333" stroke-linecap="round" stroke-linejoin="round"/><path d="M230.277,345.079l-8.39-10.989" fill="none" stroke="#333" stroke-linecap="round" stroke-linejoin="round"/><path d="M229.395,348.617l-7.508-9.032" fill="none" stroke="#333" stroke-linecap="round" stroke-linejoin="round"/><path d="M243.709,358.662l-18.068,12.415" fill="none" stroke="#333" stroke-linecap="round" stroke-linejoin="round"/><path d="M244.298,362.689l-18.947,12.772" fill="none" stroke="#333" stroke-linecap="round" stroke-linejoin="round"/><path d="M175.351,389.502h41c7.709-17.881,10.218-29.519,7.525-34.915-2.693-5.397-8.659-.066-17.897,15.992-7.373-30-13.755-44.666-19.144-43.999-5.388.667-6.883,15.333-4.484,43.999-8.667-11.535-14.834-16.866-18.5-15.992-3.667.873.166,12.512,11.5,34.915Z" clip-rule="evenodd" fill="#333" fill-rule="evenodd" stroke="#333" stroke-linecap="round" stroke-linejoin="round"/><path d="M189.323,344.492c3.439,18.622,5.843,32.958,7.214,43.01" fill="none" stroke="#fff" stroke-linecap="round" stroke-linejoin="round"/><path d="M207.622,387.502l10.919-24.2" fill="none" stroke="#fff" stroke-linecap="round" stroke-linejoin="round"/><path d="M184.058,387.502l-14.707-24.2" fill="none" stroke="#fff" stroke-linecap="round" stroke-linejoin="round"/><path d="M193.714,369.079l5.516-11.5" fill="none" stroke="#fff" stroke-linecap="round" stroke-linejoin="round"/></svg>
