<svg width="388" height="310" viewBox="0 0 388 310" fill="none" xmlns="http://www.w3.org/2000/svg">
<path fill-rule="evenodd" clip-rule="evenodd" d="M131.801 231.087C90.3092 206.936 63.9673 179.439 52.7747 148.596C35.9859 102.333 52.0566 55.8638 82.7759 42.2862C113.495 28.7086 157.06 36.3396 179.449 72.8883C201.838 109.437 197.975 122.796 245.371 122.796C292.768 122.796 329.293 193.361 266.866 239.778C225.247 270.723 180.226 267.826 131.801 231.087Z" fill="#B4F4DB"/>
<path fill-rule="evenodd" clip-rule="evenodd" d="M72.3456 16.2843L70.1132 27.7305L61.1955 19.7009L72.3456 16.2843Z" fill="white" stroke="#333333" stroke-linecap="round"/>
<path d="M25 111H9V127H25V111Z" fill="#B4F4DB"/>
<path d="M260 0H251V9H260V0Z" fill="#B4F4DB"/>
<path d="M139 5H130V14H139V5Z" fill="#B4F4DB"/>
<path d="M9 101H1V109H9V101Z" fill="white" stroke="#333333" stroke-linecap="round"/>
<path d="M308 21H292V37H308V21Z" fill="white" stroke="#333333" stroke-linecap="round"/>
<path d="M34 169C36.2091 169 38 167.209 38 165C38 162.791 36.2091 161 34 161C31.7909 161 30 162.791 30 165C30 167.209 31.7909 169 34 169Z" fill="white" stroke="#333333" stroke-linecap="round"/>
<path d="M339 176C341.209 176 343 174.209 343 172C343 169.791 341.209 168 339 168C336.791 168 335 169.791 335 172C335 174.209 336.791 176 339 176Z" fill="#B4F4DB"/>
<path d="M148 30C151.866 30 155 26.866 155 23C155 19.134 151.866 16 148 16C144.134 16 141 19.134 141 23C141 26.866 144.134 30 148 30Z" fill="white" stroke="#333333" stroke-linecap="round"/>
<path fill-rule="evenodd" clip-rule="evenodd" d="M100.962 200.885C97.3705 193.967 97.2333 187.639 100.551 181.899C105.527 173.29 105.001 174.898 103.575 166.955C102.148 159.013 109.718 152.486 114.926 160.331C120.135 168.175 113.723 176.577 120.885 183.138C128.046 189.699 128.508 205.296 119.52 209.251C113.527 211.888 107.342 209.1 100.962 200.885Z" fill="white" stroke="#333333" stroke-linecap="round" stroke-linejoin="round"/>
<path d="M109.477 162.673C112.952 181.589 114.304 196.428 113.534 207.19" stroke="#333333" stroke-linecap="round" stroke-linejoin="round"/>
<path d="M113.565 193.433L121.519 183.999" stroke="#333333" stroke-linecap="round" stroke-linejoin="round"/>
<path d="M113.916 197.087L120.97 189.897" stroke="#333333" stroke-linecap="round" stroke-linejoin="round"/>
<path d="M104.696 179.457L113.068 188.584" stroke="#333333" stroke-linecap="round" stroke-linejoin="round"/>
<path fill-rule="evenodd" clip-rule="evenodd" d="M101.817 233.95C85.0669 233.864 76.4099 228.293 75.8459 217.237C75 200.653 74.3569 199.102 62.63 194.583C50.9031 190.065 54.9844 179.567 54.9844 173.549C54.9844 167.531 47.2573 159.914 49.5748 150.077C51.8923 140.239 62.5962 149.834 66.7334 158.559C70.8707 167.284 75.7697 164.973 82.4443 169.261C89.1189 173.549 85.8483 181.79 89.1189 186.672C92.3895 191.555 108.531 191.346 114.3 203.318C118.146 211.298 113.985 221.509 101.817 233.95Z" fill="white" stroke="#333333" stroke-linecap="round" stroke-linejoin="round"/>
<path d="M60 163C76.3712 191.066 92.4318 212.106 108.182 226.119" stroke="#333333" stroke-linecap="round" stroke-linejoin="round"/>
<path d="M74.7491 186.439L77.3096 166.919" stroke="#333333" stroke-linecap="round" stroke-linejoin="round"/>
<path d="M78.3097 191.424L80.4977 174.137" stroke="#333333" stroke-linecap="round" stroke-linejoin="round"/>
<path d="M75.3969 209.419H91.9364" stroke="#333333" stroke-linecap="round" stroke-linejoin="round"/>
<path d="M61.9459 227.92C78.6864 236.703 96.7574 239.679 116.159 236.85" stroke="#333333" stroke-linecap="round" stroke-linejoin="round"/>
<path d="M65.1609 233.554C62.2351 235.11 58.6021 233.999 57.0464 231.073C55.4907 228.148 56.6014 224.515 59.5273 222.959C62.4531 221.403 66.0861 222.514 67.6418 225.44C69.1975 228.366 68.0868 231.999 65.1609 233.554Z" fill="#B4F4DB"/>
<path d="M59.6952 229.665C58.2323 230.443 56.4158 229.888 55.638 228.425C54.8601 226.962 55.4155 225.145 56.8784 224.367C58.3413 223.59 60.1578 224.145 60.9356 225.608C61.7135 227.071 61.1581 228.887 59.6952 229.665Z" fill="#333333" stroke="#333333" stroke-linecap="round"/>
<path fill-rule="evenodd" clip-rule="evenodd" d="M91.2057 237.806C84.8025 236.708 80.4677 239.013 78.201 244.721C83.7972 246.087 88.1321 243.782 91.2057 237.806Z" fill="#333333" stroke="#333333" stroke-linecap="round"/>
<path d="M337.194 199.516C326.536 215.129 311.977 226.241 293.519 232.852" stroke="#333333" stroke-linecap="round" stroke-linejoin="round"/>
<path d="M337 206C340.314 206 343 203.314 343 200C343 196.686 340.314 194 337 194C333.686 194 331 196.686 331 200C331 203.314 333.686 206 337 206Z" fill="#B4F4DB"/>
<path d="M340 200C341.657 200 343 198.657 343 197C343 195.343 341.657 194 340 194C338.343 194 337 195.343 337 197C337 198.657 338.343 200 340 200Z" fill="#333333" stroke="#333333" stroke-linecap="round"/>
<path fill-rule="evenodd" clip-rule="evenodd" d="M316 221.982C321.138 218.006 326.048 218.006 330.729 221.982C326.429 225.815 321.519 225.815 316 221.982Z" fill="#333333" stroke="#333333" stroke-linecap="round"/>
<path fill-rule="evenodd" clip-rule="evenodd" d="M269.075 240.89C264.749 212.819 264.749 196.014 269.075 190.475C275.563 182.168 283.42 201.743 283.42 210.234C290.836 200.653 312.851 172.13 320.189 179.475C325.081 184.371 318.352 203.07 300 235.57C314.667 229.42 322 228.508 322 232.835C322 237.161 307.829 245.643 279.487 258.28L269.075 240.89Z" fill="white" stroke="#333333" stroke-linecap="round" stroke-linejoin="round"/>
<path d="M312.999 188.051C298.926 212.806 285.939 231.152 274.038 243.091" stroke="#333333" stroke-linecap="round" stroke-linejoin="round"/>
<path d="M294.879 196.317C294.879 205.313 294.879 212.175 294.879 216.905" stroke="#333333" stroke-linecap="round" stroke-linejoin="round"/>
<path d="M298.955 191.442V211.1" stroke="#333333" stroke-linecap="round" stroke-linejoin="round"/>
<path d="M277.752 249.965C289.547 245.285 301.643 240.487 314.04 235.57" stroke="#333333" stroke-linecap="round" stroke-linejoin="round"/>
<path d="M271.515 194.657C275.673 212.317 277.752 225.955 277.752 235.57" stroke="#333333" stroke-linecap="round" stroke-linejoin="round"/>
<path d="M145 53H50C48.8954 53 48 53.8954 48 55V69C48 70.1046 48.8954 71 50 71H145C146.105 71 147 70.1046 147 69V55C147 53.8954 146.105 53 145 53Z" fill="#333333" stroke="#333333" stroke-linecap="round" stroke-linejoin="round"/>
<path d="M108 81H62C60.8954 81 60 81.8954 60 83V97C60 98.1046 60.8954 99 62 99H108C109.105 99 110 98.1046 110 97V83C110 81.8954 109.105 81 108 81Z" fill="white" stroke="#333333" stroke-linecap="round" stroke-linejoin="round"/>
<path fill-rule="evenodd" clip-rule="evenodd" d="M202.23 47.1236C206.325 70.6638 220.571 86.1455 244.967 93.5687C281.562 104.704 298.429 63.4175 266.681 38.1367C234.933 12.8558 214.669 21.7483 207.759 26.2776C203.152 29.2971 201.309 36.2458 202.23 47.1236Z" fill="#B4F4DB"/>
<path d="M379 50H241C236.582 50 233 53.5817 233 58V150C233 154.418 236.582 158 241 158H379C383.418 158 387 154.418 387 150V58C387 53.5817 383.418 50 379 50Z" fill="white" stroke="#333333" stroke-linecap="round" stroke-linejoin="round"/>
<path d="M241 123H292" stroke="#333333" stroke-linecap="round" stroke-linejoin="round"/>
<path d="M241 133H292" stroke="#333333" stroke-linecap="round" stroke-linejoin="round"/>
<path d="M241 143H292" stroke="#333333" stroke-linecap="round" stroke-linejoin="round"/>
<path d="M292 81H241V92H292V81Z" fill="#333333" stroke="#333333" stroke-linecap="round" stroke-linejoin="round"/>
<path d="M292 98H241V109H292V98Z" fill="white" stroke="#333333" stroke-linecap="round" stroke-linejoin="round"/>
<path fill-rule="evenodd" clip-rule="evenodd" d="M307.882 94H376C378.761 94 381 96.2386 381 99V146C381 148.761 378.761 151 376 151H307.882C305.121 151 302.882 148.761 302.882 146V99C302.882 96.2386 305.121 94 307.882 94Z" fill="white" stroke="#333333" stroke-linecap="round" stroke-linejoin="round" stroke-dasharray="4 4"/>
<path fill-rule="evenodd" clip-rule="evenodd" d="M379 50C383.418 50 387 53.5817 387 58V74H233V58C233 53.5817 236.582 50 241 50H379Z" fill="#333333" stroke="#333333" stroke-linecap="round" stroke-linejoin="round"/>
<path d="M347 66C349.209 66 351 64.2091 351 62C351 59.7909 349.209 58 347 58C344.791 58 343 59.7909 343 62C343 64.2091 344.791 66 347 66Z" fill="white" stroke="#333333" stroke-linecap="round" stroke-linejoin="round"/>
<path d="M360 66C362.209 66 364 64.2091 364 62C364 59.7909 362.209 58 360 58C357.791 58 356 59.7909 356 62C356 64.2091 357.791 66 360 66Z" fill="white" stroke="#333333" stroke-linecap="round" stroke-linejoin="round"/>
<path d="M373 66C375.209 66 377 64.2091 377 62C377 59.7909 375.209 58 373 58C370.791 58 369 59.7909 369 62C369 64.2091 370.791 66 373 66Z" fill="white" stroke="#333333" stroke-linecap="round" stroke-linejoin="round"/>
<path d="M304.745 149.256L379.009 95.4345" stroke="#333333" stroke-linecap="round" stroke-linejoin="round" stroke-dasharray="5 5"/>
<path d="M304.745 95.4345L379.009 149.256" stroke="#333333" stroke-linecap="round" stroke-linejoin="round" stroke-dasharray="5 5"/>
<path fill-rule="evenodd" clip-rule="evenodd" d="M229.701 161.191C231.947 167.011 233.07 171.977 233.07 176.088C233.07 180.2 235.573 193.73 240.578 216.68L253.19 220.444C251.44 184.749 249.673 163.673 247.889 157.214C246.105 150.755 240.042 152.081 229.701 161.191Z" fill="white" stroke="#333333" stroke-linecap="round" stroke-linejoin="round"/>
<path fill-rule="evenodd" clip-rule="evenodd" d="M238.861 214.766L231.863 219.198L239.669 221.051L238.861 214.766Z" fill="#333333" stroke="#333333" stroke-width="1.1" stroke-linecap="round"/>
<path fill-rule="evenodd" clip-rule="evenodd" d="M225.549 205.179V229.722L149.899 211.543L156.306 197.702L210.366 197.618L225.549 205.179Z" fill="white" stroke="#333333" stroke-linecap="round" stroke-linejoin="round"/>
<path fill-rule="evenodd" clip-rule="evenodd" d="M185.894 54.4001C186.301 63.9076 185.35 70.4348 183.041 73.9818C179.577 79.3024 163.348 81.0968 152.962 92.2682C146.038 99.7157 135.834 112.752 122.35 131.377C126.325 141.277 134.898 148.215 148.068 152.19C151.45 148.612 157.959 140.32 158.97 140.32C159.981 140.32 163.091 158.285 159.764 172.21C156.438 186.135 154.168 196.417 154.168 198.365C154.168 200.313 158.472 204.161 167.818 204.161C177.164 204.161 186.177 201.263 188.088 201.263C189.999 201.263 212.657 206.429 219.227 208.05C225.797 209.67 226.947 208.975 228.71 206.568C229.886 204.963 229.701 191.428 228.156 165.962C240.843 165.973 249.788 163.005 254.991 157.06C246.08 133.678 237.645 106.487 226.177 93.3056C214.708 80.1244 204.53 84.4786 203.637 75.332C203.041 69.2343 197.127 62.257 185.894 54.4001Z" fill="#333333" stroke="#333333" stroke-linecap="round" stroke-linejoin="round"/>
<path fill-rule="evenodd" clip-rule="evenodd" d="M185.894 54.4001C196.943 62.1282 202.846 69.0053 203.603 75.0314L203.637 75.332C203.909 78.1197 205.044 79.6533 206.815 80.8115C205.151 85.365 202.165 87.3524 197.856 86.7745C192.542 86.062 187.064 82.3558 181.421 75.6561C182.105 75.1298 182.653 74.5779 183.041 73.9818C185.35 70.4348 186.301 63.9076 185.894 54.4001Z" fill="white" stroke="#333333" stroke-linecap="round" stroke-linejoin="round"/>
<path fill-rule="evenodd" clip-rule="evenodd" d="M190.289 65.8712L199.577 66.5349C201.926 69.5333 203.268 72.3656 203.603 75.0314L203.637 75.332C203.898 78.0036 204.951 79.5234 206.597 80.6647L206.815 80.8115C197.076 82.9693 191.567 77.9892 190.289 65.8712Z" fill="#333333" stroke="#333333" stroke-linecap="round"/>
<path fill-rule="evenodd" clip-rule="evenodd" d="M185.894 54.4001C187.809 63.8288 189.98 70.2129 192.408 73.5526C196.048 78.5622 204.958 79.1499 207.845 70.6943C209.769 65.0572 211.164 53.7345 212.03 36.7262C212.245 35.5322 212.448 34.7738 212.64 34.4512C215.717 29.2845 216.975 27.2177 215.793 26.7275C215.201 26.482 205.02 22.3945 204.485 22.1283C203.587 21.6813 209.787 31.5153 200.775 31.8115C196.041 29.1574 192.739 29.5044 190.87 32.8526C191.738 34.6268 191.872 35.9082 191.274 36.6969C190.675 37.4855 189.454 37.7174 187.612 37.3923C188.687 42.5096 188.5 45.4792 187.052 46.3013C184.88 47.5344 184.684 44.1297 181.502 43.0598C178.321 41.9899 175.394 45.7991 177.579 50.4218C179.035 53.5036 181.807 54.8297 185.894 54.4001Z" fill="white" stroke="#333333" stroke-linecap="round" stroke-linejoin="round"/>
<path fill-rule="evenodd" clip-rule="evenodd" d="M197.897 18.5891C205.734 18.3614 211.278 25.6263 218.958 22.6182C220.653 25.6105 220.957 28.7403 220.059 31.2905C221.463 30.0979 222.725 28.761 223.844 27.2813L223.656 27.7971C221.51 35.4237 214.677 36.544 212.392 36.706L212.03 36.7262C210.621 36.4047 209.305 36.0497 208.083 35.6611C210.083 34.8143 211.708 33.1589 212.961 30.6956L213.159 30.2854L212.853 30.6074C210.058 33.4586 207.333 34.418 204.68 33.4854C206.746 31.7277 207.867 29.7889 208.044 27.6692L207.796 28.1731L207.59 28.5694L207.376 28.9532C206.371 30.6779 204.776 32.3328 200.969 32.4891L200.775 32.3809C196.041 29.7268 192.74 29.884 190.87 32.8526C191.738 34.6268 191.872 35.9082 191.274 36.6969C190.675 37.4855 189.454 37.7174 187.612 37.3923C188.687 42.5096 188.5 45.4792 187.052 46.3013C184.88 47.5344 184.684 44.1297 181.502 43.0598C181.074 42.9156 180.65 42.86 180.242 42.8831C179.477 39.1555 179.23 35.5612 179.501 32.1016C179.843 27.7407 181.712 25.7654 185.109 26.1759C188.41 21.2699 192.673 18.7409 197.897 18.5891Z" fill="#333333"/>
<path d="M194.973 46.7906C195.779 46.7059 196.329 45.6573 196.202 44.4485C196.075 43.2398 195.319 42.3285 194.513 42.4132C193.707 42.4979 193.157 43.5465 193.284 44.7553C193.411 45.9641 194.167 46.8753 194.973 46.7906Z" fill="#333333" stroke="#333333" stroke-linecap="round"/>
<path d="M207.913 46.8786C208.722 46.921 209.43 45.9714 209.494 44.7576C209.557 43.5438 208.953 42.5255 208.144 42.4831C207.334 42.4406 206.627 43.3902 206.563 44.604C206.5 45.8178 207.104 46.8362 207.913 46.8786Z" fill="#333333" stroke="#333333" stroke-linecap="round"/>
<path d="M195.586 52.6272C198.004 52.3731 199.758 50.2073 199.504 47.7897C199.249 45.3721 197.084 43.6182 194.666 43.8723C192.248 44.1264 190.495 46.2923 190.749 48.7099C191.003 51.1274 193.169 52.8813 195.586 52.6272Z" stroke="#333333" stroke-linecap="round"/>
<path d="M210.331 52.5527C212.749 52.2986 214.502 50.1328 214.248 47.7152C213.994 45.2976 211.828 43.5438 209.411 43.7979C206.993 44.052 205.239 46.2178 205.494 48.6354C205.748 51.053 207.913 52.8068 210.331 52.5527Z" stroke="#333333" stroke-linecap="round"/>
<path d="M203.681 59.5009L207.114 58.0256L203.394 50.512" stroke="#333333" stroke-linecap="round" stroke-linejoin="round"/>
<path d="M186.007 45.5224L190.657 47.8356" stroke="#333333" stroke-linecap="round"/>
<path d="M199.504 47.7897C201.921 46.6357 203.891 46.6694 205.415 47.8911" stroke="#333333" stroke-linecap="round"/>
<path d="M191.408 40.5364C192.631 38.8403 194.648 37.8445 197.461 37.5489" stroke="#333333" stroke-linecap="round"/>
<path d="M205.51 37.8786C207.618 37.9425 209.211 38.9014 210.289 40.7551" stroke="#333333" stroke-linecap="round"/>
<path fill-rule="evenodd" clip-rule="evenodd" d="M204.237 64.7555C200.489 64.6138 197.284 63.1796 194.622 60.453C193.506 64.4861 195.228 68.4251 198.745 68.6476C201.09 68.7959 202.921 67.4985 204.237 64.7555Z" fill="#333333" stroke="#333333" stroke-linecap="round" stroke-linejoin="round"/>
<path d="M285.808 226.783L104.37 198.046C103.17 197.856 102.043 198.675 101.853 199.875L89.4631 278.1C89.2731 279.3 90.0918 280.427 91.2919 280.617L272.73 309.354C273.93 309.544 275.057 308.725 275.247 307.525L287.637 229.3C287.827 228.1 287.008 226.973 285.808 226.783Z" fill="#333333" stroke="#333333" stroke-linecap="round"/>
<path d="M116.5 224L261.687 247.14" stroke="white" stroke-width="4.4" stroke-linecap="round"/>
<path d="M111 263.6L256.187 286.74" stroke="white" stroke-width="4.4" stroke-linecap="round"/>
<path d="M114.3 243.8L177.627 253.893" stroke="white" stroke-width="4.4" stroke-linecap="round"/>
<path fill-rule="evenodd" clip-rule="evenodd" d="M123.873 134.618C127.495 141.286 133.516 146.409 141.936 149.985L150.537 184.551C150.969 186.259 151.271 187.426 151.387 187.822C152.083 190.197 153.986 193.519 154.903 194.583C155.82 195.648 160.919 218.91 158.37 219.498C155.82 220.085 154.06 210.043 151.387 204.421C151.083 206.191 151.3 209.365 152.039 213.945C153.146 220.815 153.146 223.733 152.039 224.193C150.86 224.682 149.776 223.873 148.786 221.765C148.153 223.23 147.37 223.795 146.439 223.459C145.507 223.123 143.774 220.4 141.24 215.289C140.862 218.762 140.167 220.165 139.153 219.498C137.634 218.496 134.661 205.647 134.661 203.019C134.661 200.391 141.364 195.284 139.94 192.75L139.603 192.121C136.717 186.619 120.069 153.171 120.069 147.232C120.069 143.991 121.284 139.893 123.713 134.939L123.873 134.618Z" fill="white" stroke="#333333" stroke-linecap="round" stroke-linejoin="round"/>
<path d="M139.721 200.653C145.157 196.826 150.218 194.803 154.903 194.583" stroke="#333333" stroke-linecap="round" stroke-linejoin="round"/>
<path d="M148.786 221.765C146.995 217.292 145.636 212.078 144.711 206.125" stroke="#333333" stroke-linecap="round" stroke-linejoin="round"/>
<path d="M141.24 215.289C139.612 210.885 138.645 207.515 138.339 205.179" stroke="#333333" stroke-linecap="round" stroke-linejoin="round"/>
<path d="M130.218 127.434C136.108 135.739 143.569 141.486 152.602 144.677" stroke="white" stroke-linecap="round"/>
<path d="M160.565 136.055C167.147 121.841 170.806 110.09 171.543 100.803" stroke="white" stroke-linecap="round"/>
<path d="M176.522 82.4984C183.622 91.4017 191.211 96.103 199.29 96.6025C207.369 97.1019 212.221 93.8585 213.845 86.8722" stroke="white" stroke-linecap="round"/>
<path d="M221.424 107.787C224.37 128.579 226.275 146.38 227.138 161.191" stroke="white" stroke-linecap="round"/>
<path d="M187.148 173.549C196.331 160.843 206.32 150.849 217.114 143.568" stroke="white" stroke-linecap="round"/>
<path d="M231.389 155.101C238.423 155.092 244.55 153.82 249.768 151.284" stroke="white" stroke-linecap="round"/>
<path fill-rule="evenodd" clip-rule="evenodd" d="M238.919 213.752C235.97 222.004 234.185 227.157 233.563 229.211C232.562 232.517 234.537 232.333 235.766 231.163C236.585 230.382 238.987 226.994 242.972 220.997C242.972 231.149 242.972 237.051 242.972 238.703C242.972 241.182 245.422 241.6 246.338 239.721C247.254 237.841 247.089 238.032 248.779 238.032C250.469 238.032 250.95 234.975 251.767 233.069C252.311 231.798 253.199 228.836 254.43 224.183C253.534 232.852 253.534 237.468 254.43 238.032C255.775 238.877 257.58 238.142 257.58 231.163C257.58 224.183 259.571 219.603 257.58 218.069C255.59 216.536 251.457 216.938 248.07 214.419C246.3 213.103 244.179 212.302 241.707 212.018L241.707 212.018C240.488 211.877 239.332 212.596 238.919 213.752Z" fill="white" stroke="#333333" stroke-linecap="round" stroke-linejoin="round"/>
<path d="M247.423 235.044L250.131 220.029" stroke="#333333" stroke-linecap="round" stroke-linejoin="round"/>
</svg>
