<svg width="379" height="287" viewBox="0 0 379 287" fill="none" xmlns="http://www.w3.org/2000/svg">
<path fill-rule="evenodd" clip-rule="evenodd" d="M266.667 267.772C222.466 277.614 180.695 267.772 144.281 234.077C107.868 200.381 79.3747 138.388 102.141 90.1316C124.908 41.8755 187.945 40.0401 215.165 79.7873C242.384 119.535 272.996 122.962 296.654 117.503C320.311 112.043 352.862 136.012 346.357 189.084C339.852 242.156 310.869 257.931 266.667 267.772Z" fill="#F4D1B4"/>
<path fill-rule="evenodd" clip-rule="evenodd" d="M331.694 99.883L343.624 116.921L334.834 135.773L314.113 137.585L302.182 120.547L310.973 101.696L331.694 99.883Z" fill="white" stroke="#333333" stroke-linecap="round" stroke-linejoin="round"/>
<path fill-rule="evenodd" clip-rule="evenodd" d="M322.903 118.734L314.113 137.585L302.182 120.547L310.973 101.696L322.903 118.734Z" fill="#333333" stroke="#333333" stroke-linecap="round" stroke-linejoin="round"/>
<path fill-rule="evenodd" clip-rule="evenodd" d="M314.113 137.585L322.903 118.734L343.624 116.921L334.834 135.773L314.113 137.585Z" fill="white" stroke="#333333" stroke-linecap="round" stroke-linejoin="round"/>
<path fill-rule="evenodd" clip-rule="evenodd" d="M332.721 64.0891L345.087 52.9548L360.912 58.0968L364.372 74.3732L352.006 85.5075L336.18 80.3655L332.721 64.0891Z" fill="white" stroke="#333333" stroke-linecap="round" stroke-linejoin="round"/>
<path fill-rule="evenodd" clip-rule="evenodd" d="M348.546 69.2311L364.372 74.3732L352.006 85.5075L336.18 80.3655L348.546 69.2311Z" fill="#333333" stroke="#333333" stroke-linecap="round" stroke-linejoin="round"/>
<path fill-rule="evenodd" clip-rule="evenodd" d="M364.372 74.3732L348.546 69.2311L345.087 52.9548L360.912 58.0968L364.372 74.3732Z" fill="white" stroke="#333333" stroke-linecap="round" stroke-linejoin="round"/>
<path d="M158 30H20C16.134 30 13 33.134 13 37V118C13 121.866 16.134 125 20 125H158C161.866 125 165 121.866 165 118V37C165 33.134 161.866 30 158 30Z" fill="white" stroke="#333333" stroke-linecap="round" stroke-linejoin="round"/>
<path d="M27.2224 94H112.561" stroke="#333333" stroke-linecap="round" stroke-linejoin="round"/>
<path d="M27.2224 104H137.231" stroke="#333333" stroke-linecap="round" stroke-linejoin="round"/>
<path d="M70 47H27V79H70V47Z" fill="#333333" stroke="#333333" stroke-linecap="round" stroke-linejoin="round"/>
<path fill-rule="evenodd" clip-rule="evenodd" d="M27 71.4303V79H70V68.7842L55.4459 58.6184L45 67.8599L36.2528 61.4034L27 71.4303Z" fill="white" stroke="#333333" stroke-linecap="round" stroke-linejoin="round"/>
<path d="M45 61C47.2091 61 49 59.2091 49 57C49 54.7909 47.2091 53 45 53C42.7909 53 41 54.7909 41 57C41 59.2091 42.7909 61 45 61Z" fill="white" stroke="#333333" stroke-linecap="round" stroke-linejoin="round"/>
<path d="M64.0563 283.273C49.2838 264.669 41.5457 245.679 40.842 226.302" stroke="#333333" stroke-linecap="round"/>
<path fill-rule="evenodd" clip-rule="evenodd" d="M55.6742 232.564C48.1839 234.682 44.515 239.432 44.6675 246.814C51.3153 246.921 54.9842 242.171 55.6742 232.564Z" fill="#333333" stroke="#333333" stroke-linecap="round" stroke-linejoin="round"/>
<path d="M40.3362 231.114C34.6352 230.414 30.5812 225.225 31.2811 219.524C31.9811 213.823 37.1701 209.769 42.8711 210.469C48.572 211.169 52.6261 216.358 51.9261 222.058C51.2261 227.759 46.0371 231.814 40.3362 231.114Z" fill="#F4D1B4"/>
<path d="M42.0789 216.92C39.9411 216.658 38.4208 214.712 38.6833 212.574C38.9458 210.436 40.8916 208.916 43.0295 209.178C45.1673 209.441 46.6876 211.387 46.4251 213.524C46.1626 215.662 44.2168 217.183 42.0789 216.92Z" fill="#333333" stroke="#333333" stroke-linecap="round" stroke-linejoin="round"/>
<path fill-rule="evenodd" clip-rule="evenodd" d="M79.5863 282.38H153.466C163.93 233.519 165.853 207.841 159.235 205.347C152.616 202.852 143.705 220.822 132.5 259.257C120.893 217.449 110.606 192.838 101.64 185.426C92.6737 178.013 91.1066 201.687 96.9385 256.449C79.7128 235.487 68.6549 227.661 63.7646 232.973C58.8744 238.285 64.1483 254.754 79.5863 282.38Z" fill="white" stroke="#333333" stroke-linecap="round"/>
<path d="M96.9003 282.165C87.1113 266.052 78.5179 253.826 71.1202 245.485" stroke="#333333" stroke-linecap="round"/>
<path d="M103.131 206.218C110.766 240.001 114.584 265.316 114.584 282.165" stroke="#333333" stroke-linecap="round"/>
<path d="M111.768 251.074C115.064 242.143 117.312 234.673 118.511 228.663" stroke="#333333" stroke-linecap="round"/>
<path d="M153.833 224.39C149.285 253.507 144.771 272.765 140.29 282.164" stroke="#333333" stroke-linecap="round"/>
<path d="M147.028 261.295C152.196 256.994 155.446 253.586 156.778 251.074" stroke="#333333" stroke-linecap="round"/>
<path d="M104.836 233.6C109.457 253.664 111.768 269.853 111.768 282.165" stroke="#333333" stroke-linecap="round"/>
<path fill-rule="evenodd" clip-rule="evenodd" d="M322.713 284.48C312.607 270.801 312.607 259.206 322.713 249.694C337.871 235.427 333.614 237.176 330.78 220.695C327.946 204.215 350.34 207.059 350.34 192.614C350.34 178.17 359.351 163.684 366.201 170.927C373.051 178.17 368.873 201.358 366.201 208.142C363.529 214.927 370.16 222.96 367.869 235.007C365.578 247.054 353.728 245.821 359.653 260.397C363.603 270.115 360.499 278.142 350.34 284.48H322.713Z" fill="white" stroke="#333333" stroke-linecap="round" stroke-linejoin="round"/>
<path d="M359.653 183.221C354.438 206.933 349.208 224.671 343.963 236.437C336.097 254.087 335.027 278.66 335.562 284.48" stroke="#333333" stroke-linecap="round" stroke-linejoin="round"/>
<path d="M348.043 225.839C355.831 222.34 361.884 219.253 366.201 216.58" stroke="#333333" stroke-linecap="round" stroke-linejoin="round"/>
<path d="M346.269 231.042C352.605 228.227 357.657 225.804 361.427 223.773" stroke="#333333" stroke-linecap="round" stroke-linejoin="round"/>
<path d="M326.005 246.44C331.673 256.066 335.252 261.694 336.744 263.323" stroke="#333333" stroke-linecap="round" stroke-linejoin="round"/>
<path fill-rule="evenodd" clip-rule="evenodd" d="M286.351 284.502H327.351C335.06 266.621 337.569 254.983 334.876 249.586C332.183 244.19 326.217 249.521 316.979 265.579C309.606 235.579 303.224 220.912 297.836 221.58C292.447 222.247 290.952 236.913 293.351 265.579C284.684 254.044 278.517 248.713 274.851 249.586C271.184 250.46 275.017 262.098 286.351 284.502Z" fill="#333333" stroke="#333333" stroke-linecap="round" stroke-linejoin="round"/>
<path d="M300.323 239.492C303.762 258.114 306.166 272.45 307.537 282.502" stroke="white" stroke-linecap="round" stroke-linejoin="round"/>
<path d="M318.622 282.502L329.541 258.302" stroke="white" stroke-linecap="round" stroke-linejoin="round"/>
<path d="M295.058 282.502L280.351 258.302" stroke="white" stroke-linecap="round" stroke-linejoin="round"/>
<path d="M304.714 264.079L310.23 252.579" stroke="white" stroke-linecap="round" stroke-linejoin="round"/>
<path d="M141.2 19H98V62.2H141.2V19Z" fill="white" stroke="#333333" stroke-linecap="round" stroke-linejoin="round"/>
<path d="M98 62.2L141.2 19" stroke="#333333" stroke-linecap="round" stroke-linejoin="round"/>
<path d="M98 19L141.2 62.2" stroke="#333333" stroke-linecap="round" stroke-linejoin="round"/>
<path d="M276.4 96.2C291.643 96.2 304 83.8431 304 68.6C304 53.3569 291.643 41 276.4 41C261.157 41 248.8 53.3569 248.8 68.6C248.8 83.8431 261.157 96.2 276.4 96.2Z" fill="#F4D1B4"/>
<path fill-rule="evenodd" clip-rule="evenodd" d="M14.3456 197.284L12.1132 208.73L3.19547 200.701L14.3456 197.284Z" fill="#F4D1B4"/>
<path d="M237 35H221V51H237V35Z" fill="#F4D1B4"/>
<path d="M11 136H1V146H11V136Z" fill="white" stroke="#333333" stroke-linecap="round"/>
<path d="M211 20H203V28H211V20Z" fill="white" stroke="#333333" stroke-linecap="round"/>
<path d="M366 127C369.866 127 373 123.866 373 120C373 116.134 369.866 113 366 113C362.134 113 359 116.134 359 120C359 123.866 362.134 127 366 127Z" fill="white" stroke="#333333" stroke-linecap="round"/>
<path d="M375 139C377.209 139 379 137.209 379 135C379 132.791 377.209 131 375 131C372.791 131 371 132.791 371 135C371 137.209 372.791 139 375 139Z" fill="#F4D1B4"/>
<path d="M75.5 9C77.9853 9 80 6.98528 80 4.5C80 2.01472 77.9853 0 75.5 0C73.0147 0 71 2.01472 71 4.5C71 6.98528 73.0147 9 75.5 9Z" fill="#F4D1B4"/>
<path fill-rule="evenodd" clip-rule="evenodd" d="M323.519 162.976C328.106 154.412 331.109 149.764 332.526 149.033C334.652 147.937 333.591 153.969 329.811 160.554C327.29 164.944 325.193 165.751 323.519 162.976Z" fill="white" stroke="#333333" stroke-linecap="round" stroke-linejoin="round"/>
<path fill-rule="evenodd" clip-rule="evenodd" d="M259.242 224.31C264.257 236.984 271.03 243.322 279.561 243.322C292.357 243.322 301.094 226.276 307.506 211.845C313.918 197.414 322.185 179.929 325.149 178.235C328.114 176.541 338.743 171.355 341.805 168.54C343.846 166.663 347.622 161.418 353.132 152.805C359.076 146.813 362.047 142.991 362.047 141.338C362.047 139.685 355.692 144.152 342.983 154.738C346.438 148.876 348.166 144.797 348.166 142.502C348.166 139.06 344.009 145.84 337.665 153.545C331.321 161.251 322.212 160.407 317.715 165.971C313.217 171.535 314.069 174.066 307.506 181.466C303.13 186.399 295.584 195.255 284.867 208.035L259.242 224.31Z" fill="white" stroke="#333333" stroke-linecap="round" stroke-linejoin="round"/>
<path fill-rule="evenodd" clip-rule="evenodd" d="M154.645 210.995C136.552 207.28 125.556 205.423 121.659 205.423C117.762 205.423 102.097 205.423 74.6635 205.423C75.5627 207.28 78.0032 208.209 81.985 208.209C87.9578 208.209 100.125 212.435 103.896 213.873C107.667 215.312 116.18 212.318 121.659 213.873C127.139 215.429 153.531 233.01 163.125 237.103C169.52 239.832 174.882 238.248 179.208 232.352L180.975 218.028L154.645 210.995Z" fill="white" stroke="#333333" stroke-linecap="round" stroke-linejoin="round"/>
<path fill-rule="evenodd" clip-rule="evenodd" d="M203.12 123.831C206.076 136.566 205.343 144.157 200.921 146.605C194.288 150.277 187.496 139.295 176.889 141.079C166.282 142.863 160.767 158.435 155.563 174.094C152.093 184.534 148.583 194.744 145.035 204.726C152.456 214.118 163.074 219.556 176.889 221.041C176.889 234.249 175.08 249.763 172.854 262.008C170.628 274.253 170.917 276.678 181.656 281.454C192.394 286.231 205.937 284.916 215.271 282.535C221.493 280.947 227.632 280.09 233.686 279.964C244.961 283.064 252.49 284.943 256.274 285.6C261.95 286.586 266.34 280.029 266.34 275.876C266.34 273.107 263.974 256.826 259.242 227.031C267.66 225.33 272.99 223.696 275.233 222.13C277.476 220.563 280.687 215.865 284.867 208.035C280.353 198.713 276.137 188.362 272.218 176.982C266.34 159.913 260.554 150.748 251.674 147.715C242.794 144.682 221.864 151.867 224.012 125.477C225.444 107.883 218.48 107.334 203.12 123.831Z" fill="#333333" stroke="#333333" stroke-linecap="round" stroke-linejoin="round"/>
<path fill-rule="evenodd" clip-rule="evenodd" d="M203.12 123.831L204.032 122.862C218.455 107.679 225.14 108.206 224.088 124.441L224.012 125.477C222.925 138.826 227.744 143.584 233.921 145.42C231.716 156.072 227.03 161.397 219.863 161.397C211.926 161.397 205.004 156.686 199.095 147.264C199.708 147.154 200.315 146.941 200.921 146.605C205.343 144.157 206.076 136.566 203.12 123.831Z" fill="white" stroke="#333333" stroke-linecap="round" stroke-linejoin="round"/>
<path fill-rule="evenodd" clip-rule="evenodd" d="M224.088 124.441L224.012 125.477C223.506 131.688 224.279 136.039 225.872 139.101C218.391 140.341 211.795 137.761 206.083 131.363L203.867 127.341C203.652 126.219 203.403 125.048 203.12 123.831L204.032 122.862C218.455 107.679 225.14 108.206 224.088 124.441Z" fill="#333333" stroke="#333333" stroke-linecap="round" stroke-linejoin="round"/>
<path fill-rule="evenodd" clip-rule="evenodd" d="M188.941 94.8713C185.97 94.2857 184.615 97.3619 185.97 101.551C186.735 103.912 189.103 106.625 191.849 107.77C193.974 108.656 196.546 108.546 197.387 106.965C198.671 104.549 197.76 100.323 194.654 94.2857C192.188 93.5524 190.284 93.7476 188.941 94.8713Z" fill="white" stroke="#333333" stroke-linecap="round" stroke-linejoin="round"/>
<path fill-rule="evenodd" clip-rule="evenodd" d="M235.53 93.1665C237.72 93.41 238.616 95.1953 238.219 98.5226C237.624 103.513 232.731 107.153 229.143 106.53C226.751 106.114 225.798 104.744 226.283 102.421L230.388 91.5719L235.53 93.1665Z" fill="white" stroke="#333333" stroke-linecap="round" stroke-linejoin="round"/>
<path fill-rule="evenodd" clip-rule="evenodd" d="M194.496 101.325C197.848 114.815 200.21 123.336 201.582 126.886C203.64 132.211 208.077 135.749 214.949 134.855C221.822 133.961 223.856 129.042 224.76 126.886C225.363 125.448 227.68 112.536 231.712 88.1497L231.047 78.9944L212.029 71.6897L191.849 73.7026L194.496 101.325Z" fill="white" stroke="#333333" stroke-linecap="round" stroke-linejoin="round"/>
<path fill-rule="evenodd" clip-rule="evenodd" d="M230.997 73.2601C234.555 73.4158 236.809 75.0148 237.758 78.0571C239.183 82.6205 236.983 90.5855 235.53 93.1665L234.622 93.511L234.307 93.6401C233.012 94.1939 231.913 94.9964 230.151 97.8621C227.79 96.0886 227.199 91.969 228.155 87.6278C225.125 88.4148 223.825 86.7677 224.256 82.6864C216.544 81.8151 209.975 89.2297 202.279 77.9924C203.392 81.1361 205.07 83.4093 207.313 84.8122C203.957 83.9327 200.249 81.8911 196.191 78.6873L196.629 79.4244L196.943 79.9272C198.397 82.206 200.496 84.6776 204.899 86.3586C201.971 86.6878 198.835 86.7172 195.496 86.4472C196.162 88.6801 196.495 91.2471 196.495 94.1481C196.495 97.0492 195.829 99.4414 194.496 101.325C193.573 97.6585 191.721 95.5074 188.941 94.8713C187.716 92.4401 186.614 88.0881 185.634 81.8151L185.198 81.6249C179.335 78.978 177.619 74.3917 176.889 72.2074C179.241 75.2248 181.422 77.3917 183.431 78.7081C180.792 74.3171 179.808 69.4862 180.478 64.2131C194.021 68.6309 200.881 65.393 213.216 64.2131C221.439 63.4266 227.366 66.4422 230.997 73.2601Z" fill="#333333"/>
<path d="M210.447 106.599L208.4 115.593L211.781 116.569" stroke="#333333" stroke-linecap="round" stroke-linejoin="round"/>
<path fill-rule="evenodd" clip-rule="evenodd" d="M206.083 120.488C208.173 121.026 210.432 121.205 212.86 121.026C215.289 120.847 217.623 120.171 219.863 118.998C219.863 125.097 217.96 128.31 214.155 128.638C210.35 128.965 207.659 126.249 206.083 120.488Z" fill="#333333" stroke="#333333" stroke-linecap="round" stroke-linejoin="round"/>
<path fill-rule="evenodd" clip-rule="evenodd" d="M202.901 101.88C203.995 101.88 204.881 100.403 204.881 98.58C204.881 96.7575 203.995 95.28 202.901 95.28C201.808 95.28 200.921 96.7575 200.921 98.58C200.921 100.403 201.808 101.88 202.901 101.88Z" fill="#333333" stroke="#333333" stroke-linecap="round"/>
<path fill-rule="evenodd" clip-rule="evenodd" d="M220.94 101.88C222.034 101.88 222.92 100.403 222.92 98.58C222.92 96.7575 222.034 95.28 220.94 95.28C219.846 95.28 218.96 96.7575 218.96 98.58C218.96 100.403 219.846 101.88 220.94 101.88Z" fill="#333333" stroke="#333333" stroke-linecap="round"/>
<path d="M199.007 93.8514C200.582 91.5787 202.94 90.4424 206.083 90.4424" stroke="#333333" stroke-linecap="round"/>
<path d="M217.511 90.4424C221.117 90.1219 223.563 91.2582 224.849 93.8514" stroke="#333333" stroke-linecap="round"/>
<path d="M203.12 108.48C206.036 108.48 208.4 106.116 208.4 103.2C208.4 100.284 206.036 97.92 203.12 97.92C200.204 97.92 197.84 100.284 197.84 103.2C197.84 106.116 200.204 108.48 203.12 108.48Z" stroke="#333333" stroke-linecap="round"/>
<path d="M220.28 108.48C223.196 108.48 225.56 106.116 225.56 103.2C225.56 100.284 223.196 97.92 220.28 97.92C217.364 97.92 215 100.284 215 103.2C215 106.116 217.364 108.48 220.28 108.48Z" stroke="#333333" stroke-linecap="round"/>
<path d="M194.288 99.7086L197.84 103.2" stroke="#333333" stroke-linecap="round"/>
<path d="M208.4 103.2C210.533 101.739 212.733 101.739 215 103.2" stroke="#333333" stroke-linecap="round"/>
<path d="M225.56 103.2L229.991 97.92" stroke="#333333" stroke-linecap="round"/>
<path d="M176.774 217C174.724 193.328 173.699 176.451 173.699 166.369" stroke="white" stroke-linecap="round"/>
<path d="M150.55 198.778C158.28 203.726 166.664 206.322 175.7 206.567" stroke="white" stroke-linecap="round"/>
<path d="M259.242 227.031L250.925 167.798" stroke="white" stroke-linecap="round"/>
<path d="M262.861 215.572C270.892 214.298 277.368 209.998 282.286 202.672" stroke="white" stroke-linecap="round"/>
<path d="M140.42 201.463H119.3C118.206 201.463 117.32 202.349 117.32 203.443C117.32 204.536 118.206 205.423 119.3 205.423H140.42C141.514 205.423 142.4 204.536 142.4 203.443C142.4 202.349 141.514 201.463 140.42 201.463Z" fill="white" stroke="#333333" stroke-linecap="round" stroke-linejoin="round"/>
<path fill-rule="evenodd" clip-rule="evenodd" d="M24.5332 144.703H105.867C108.721 144.703 111.252 146.537 112.14 149.25L130.52 205.423H45.5447C42.6905 205.423 40.1596 203.588 39.272 200.875L22.0241 148.164C21.5707 146.778 22.3265 145.287 23.7122 144.834C23.9773 144.747 24.2544 144.703 24.5332 144.703Z" fill="white" stroke="#333333" stroke-linecap="round" stroke-linejoin="round"/>
<path fill-rule="evenodd" clip-rule="evenodd" d="M20.6416 144.703H101.975C104.83 144.703 107.36 146.537 108.248 149.25L126.628 205.423H41.6531C38.7988 205.423 36.268 203.588 35.3803 200.875L18.1325 148.164C17.679 146.778 18.4348 145.287 19.8206 144.834C20.0856 144.747 20.3627 144.703 20.6416 144.703Z" fill="#333333" stroke="#333333" stroke-linecap="round" stroke-linejoin="round"/>
<path d="M353.132 152.805L341.03 162.976" stroke="#333333" stroke-linecap="round" stroke-linejoin="round"/>
<path d="M338.476 161.367L342.983 154.738" stroke="#333333" stroke-linecap="round" stroke-linejoin="round"/>
<path d="M240.321 278.009C250.522 276.645 256.829 275.963 259.242 275.963" stroke="white" stroke-width="1.2" stroke-linecap="round"/>
<path d="M190.296 151.234C200.021 164.207 210.53 170.693 221.822 170.693C233.114 170.693 238.76 164.207 238.76 151.234" stroke="white" stroke-linecap="round"/>
</svg>
