<svg width="314" height="292" viewBox="0 0 314 292" fill="none" xmlns="http://www.w3.org/2000/svg">
<path fill-rule="evenodd" clip-rule="evenodd" d="M129.873 279.436C75.7142 285.649 42.1353 270.821 29.1361 234.952C9.63736 181.15 64.3535 127.871 108.601 123.464C152.848 119.056 151.03 85.4072 116.867 56.8548C82.7037 28.3025 105.299 -19.6273 175.815 9.24258C246.33 38.1125 285.651 127.607 260.639 204.02C243.965 254.962 200.377 280.101 129.873 279.436Z" fill="#A196F7"/>
<path fill-rule="evenodd" clip-rule="evenodd" d="M34.3456 142.284L32.1132 153.73L23.1955 145.701L34.3456 142.284Z" fill="#A196F7"/>
<path d="M85 11.9999H74V22.9999H85V11.9999Z" fill="white" stroke="#333333" stroke-linecap="round"/>
<path d="M289 171H281V179H289V171Z" fill="#A196F7"/>
<path d="M69 123.73C71.2091 123.73 73 121.94 73 119.73C73 117.521 71.2091 115.73 69 115.73C66.7909 115.73 65 117.521 65 119.73C65 121.94 66.7909 123.73 69 123.73Z" fill="white" stroke="#333333" stroke-linecap="round"/>
<path d="M292 167C293.105 167 294 166.105 294 165C294 163.895 293.105 163 292 163C290.895 163 290 163.895 290 165C290 166.105 290.895 167 292 167Z" fill="white" stroke="#333333" stroke-linecap="round"/>
<path d="M274.5 92.9999C277.538 92.9999 280 90.5375 280 87.4999C280 84.4624 277.538 81.9999 274.5 81.9999C271.462 81.9999 269 84.4624 269 87.4999C269 90.5375 271.462 92.9999 274.5 92.9999Z" fill="white" stroke="#333333" stroke-linecap="round"/>
<path d="M234 25.9999C236.209 25.9999 238 24.2091 238 21.9999C238 19.7908 236.209 17.9999 234 17.9999C231.791 17.9999 230 19.7908 230 21.9999C230 24.2091 231.791 25.9999 234 25.9999Z" fill="#A196F7"/>
<path d="M303.214 223.976C297.62 240.964 288.281 254.347 275.194 264.125" stroke="#333333" stroke-linecap="round" stroke-linejoin="round"/>
<path d="M303.779 227.399C299.96 226.794 297.355 223.209 297.96 219.39C298.565 215.572 302.15 212.967 305.969 213.572C309.787 214.176 312.392 217.762 311.788 221.58C311.183 225.399 307.597 228.004 303.779 227.399Z" fill="#A196F7"/>
<path d="M306.174 218.666C303.992 218.321 302.504 216.272 302.849 214.09C303.195 211.908 305.244 210.419 307.426 210.765C309.608 211.11 311.096 213.159 310.751 215.341C310.405 217.523 308.356 219.012 306.174 218.666Z" fill="#333333" stroke="#333333" stroke-linecap="round" stroke-linejoin="round"/>
<path fill-rule="evenodd" clip-rule="evenodd" d="M294.266 243.005C295.455 238.816 294.373 235.34 291.021 232.576C289.819 237.881 290.901 241.357 294.266 243.005Z" fill="#333333" stroke="#333333" stroke-linecap="round" stroke-linejoin="round"/>
<path fill-rule="evenodd" clip-rule="evenodd" d="M309.741 230.457C305.465 229.638 302.096 231.019 299.635 234.599C305.025 235.334 308.393 233.953 309.741 230.457Z" fill="#333333" stroke="#333333" stroke-linecap="round" stroke-linejoin="round"/>
<path fill-rule="evenodd" clip-rule="evenodd" d="M311.768 290.774C297.344 290.774 259.819 290.774 199.195 290.774C198.795 277.248 203.213 268.035 212.449 263.134C226.304 255.783 238.122 277.708 247.109 270.421C256.096 263.134 266.216 250.809 287.344 253.811C308.472 256.813 314.992 275.19 311.768 290.774Z" fill="white" stroke="#333333" stroke-linecap="round" stroke-linejoin="round"/>
<path d="M291.759 254.648C287.159 272.692 282.24 284.734 277 290.774" stroke="#333333" stroke-linecap="round" stroke-linejoin="round"/>
<path d="M284.379 277.395C278.733 273.249 273.093 266.114 267.458 255.989" stroke="#333333" stroke-linecap="round" stroke-linejoin="round"/>
<path d="M282.64 281.516C276.021 276.395 271.52 271.86 269.138 267.911" stroke="#333333" stroke-linecap="round" stroke-linejoin="round"/>
<path d="M226.877 290.774C225.584 283.48 221.523 275.859 214.693 267.911" stroke="#333333" stroke-linecap="round" stroke-linejoin="round"/>
<path d="M223.721 281.516C216.7 281.336 210.491 280.339 205.095 278.525" stroke="#333333" stroke-linecap="round" stroke-linejoin="round"/>
<path fill-rule="evenodd" clip-rule="evenodd" d="M57.4013 290.583C70.3831 290.583 104.155 290.583 158.717 290.583C159.077 278.409 155.101 270.117 146.788 265.707C134.319 259.091 123.683 278.824 115.595 272.265C107.506 265.707 98.3979 254.614 79.3828 257.316C60.3677 260.018 54.4999 276.557 57.4013 290.583Z" fill="white" stroke="#333333" stroke-linecap="round" stroke-linejoin="round"/>
<path d="M75.4095 258.069C79.549 274.309 83.9766 285.146 88.6924 290.583" stroke="#333333" stroke-linecap="round" stroke-linejoin="round"/>
<path d="M82.0509 278.541C87.1323 274.81 92.2089 268.389 97.2806 259.276" stroke="#333333" stroke-linecap="round" stroke-linejoin="round"/>
<path d="M83.6164 282.25C89.5734 277.642 93.624 273.561 95.7682 270.006" stroke="#333333" stroke-linecap="round" stroke-linejoin="round"/>
<path d="M133.803 290.583C134.967 284.018 138.622 277.16 144.769 270.006" stroke="#333333" stroke-linecap="round" stroke-linejoin="round"/>
<path d="M136.643 282.25C142.963 282.089 148.55 281.191 153.407 279.558" stroke="#333333" stroke-linecap="round" stroke-linejoin="round"/>
<path fill-rule="evenodd" clip-rule="evenodd" d="M58.3127 290.583H18.4659C11.7587 283.581 10.0819 276.841 13.4355 270.364C18.4659 260.649 15.6515 254.178 4.69505 242.54C-6.26145 230.903 7.71828 220.209 7.71828 209.316C7.71828 198.423 2.00105 184.158 7.71828 176.706C13.4355 169.255 24.7714 187.724 28.8675 202.748C32.9637 217.772 53.6734 221.567 46.915 232.976C40.1566 244.385 44.4232 249.664 55.7195 260.287C63.2504 267.369 64.1148 277.467 58.3127 290.583Z" fill="white" stroke="#333333" stroke-linecap="round"/>
<path d="M16.0493 197.21C28.0486 230.345 35.2845 261.47 37.7567 290.583" stroke="#333333" stroke-linecap="round" stroke-linejoin="round"/>
<path d="M29.1361 240.42C21.1326 231.929 13.2279 224.63 5.42204 218.523" stroke="#333333" stroke-linecap="round" stroke-linejoin="round"/>
<path d="M49.3699 254.097C42.0165 264.37 37.5407 271.22 35.9425 274.645" stroke="#333333" stroke-linecap="round" stroke-linejoin="round"/>
<path d="M42.6562 255.742C38.8806 261.485 36.3222 265.916 34.9808 269.034" stroke="#333333" stroke-linecap="round" stroke-linejoin="round"/>
<path d="M85.6981 107.077C100.816 111.989 115.985 107.004 119.579 95.9421C123.174 84.8802 113.832 71.9308 98.7139 67.0187C83.596 62.1066 68.4269 67.092 64.8327 78.1538C61.2385 89.2157 70.5802 102.165 85.6981 107.077Z" fill="#A196F7"/>
<path fill-rule="evenodd" clip-rule="evenodd" d="M233.795 225.75C234.181 236.551 234.912 243.939 235.988 247.913C237.064 251.887 237.603 266.141 237.603 290.674H222.43L205.929 232.096L233.795 225.75Z" fill="white" stroke="#333333" stroke-linecap="round" stroke-linejoin="round"/>
<path fill-rule="evenodd" clip-rule="evenodd" d="M152.767 112.895C154.865 123.458 154.865 131.453 152.767 136.88C149.619 145.019 137.157 139.333 130.672 138.107C124.187 136.88 114.147 139.247 103.388 148.113C92.6283 156.979 65.1594 175.246 63.3921 183.659C61.6248 192.073 73.7511 203.027 84.6263 201.789C91.8765 200.965 102.123 198.575 115.365 194.621L111.688 290.674H222.43L214.305 237.349L240.369 231.693C233.827 200.752 227.847 179.087 222.43 166.698C214.305 148.113 192.898 142.011 186.077 138.107C179.256 134.202 176.522 128.964 176.522 114.782C176.522 105.327 168.604 104.698 152.767 112.895Z" fill="#D8D8D8" stroke="#979797"/>
<path fill-rule="evenodd" clip-rule="evenodd" d="M152.767 112.895C154.865 123.458 154.865 131.453 152.767 136.88C149.619 145.019 137.157 139.333 130.672 138.107C124.187 136.88 114.147 139.247 103.388 148.113C92.6283 156.979 65.1594 175.246 63.3921 183.659C61.6248 192.073 73.7511 203.027 84.6263 201.789C91.8765 200.965 102.123 198.575 115.365 194.621L111.688 290.674H222.43L214.305 237.349L240.369 231.693C233.827 200.752 227.847 179.087 222.43 166.698C214.305 148.113 192.898 142.011 186.077 138.107C179.256 134.202 176.522 128.964 176.522 114.782C176.522 105.327 168.604 104.698 152.767 112.895Z" fill="#333333" stroke="#333333" stroke-linecap="round" stroke-linejoin="round"/>
<path d="M204.738 178.857L208.733 214.425" stroke="white" stroke-linecap="round"/>
<path d="M211.585 225.75L234.396 220.284" stroke="white" stroke-linecap="round"/>
<path d="M145.086 144.557C148.812 153.95 156.491 158.646 168.124 158.646C179.757 158.646 187.358 153.668 190.929 143.713" stroke="white" stroke-linecap="round"/>
<path fill-rule="evenodd" clip-rule="evenodd" d="M152.767 112.895L153.708 112.414C168.762 104.805 176.366 105.5 176.52 114.501L176.527 115.791C176.653 128.872 179.28 134.03 185.573 137.811C181.909 145.09 176.848 149.011 170.388 149.573C161.85 150.316 155.279 147.041 150.675 139.747C151.559 139.081 152.276 138.148 152.767 136.88C154.865 131.453 154.865 123.458 152.767 112.895Z" fill="white" stroke="#333333" stroke-linecap="round" stroke-linejoin="round"/>
<path fill-rule="evenodd" clip-rule="evenodd" d="M176.52 114.501L176.527 115.791C176.59 122.328 177.278 126.886 178.735 130.283C169.421 132.222 161.24 129.786 154.193 122.974C153.972 119.925 153.496 116.565 152.767 112.895L153.708 112.414L154.602 111.967C169.064 104.836 176.37 105.68 176.52 114.501Z" fill="#333333" stroke="#333333" stroke-linecap="round" stroke-linejoin="round"/>
<path fill-rule="evenodd" clip-rule="evenodd" d="M148.611 82.3752C144.231 78.4374 140.662 77.9276 137.903 80.846C134.039 79.8052 131.346 86.3736 135.545 91.4957C139.743 96.6177 145.32 95.647 146.422 94.381C147.156 93.5369 147.886 89.535 148.611 82.3752Z" fill="white" stroke="#333333" stroke-linecap="round" stroke-linejoin="round"/>
<path fill-rule="evenodd" clip-rule="evenodd" d="M183.08 83.693C183.798 82.1495 184.859 81.1639 186.264 80.7362C188.371 80.0946 190.768 81.4897 190.147 86.7869C189.525 92.0842 184.531 95.3977 179.856 95.3977C176.74 95.3977 177.814 91.4961 183.08 83.693Z" fill="white" stroke="#333333" stroke-linecap="round" stroke-linejoin="round"/>
<path fill-rule="evenodd" clip-rule="evenodd" d="M143.344 86.4748C146.649 100.873 149.199 110.415 150.994 115.103C153.686 122.135 157.879 125.923 164.491 125.923C171.103 125.923 175.486 121.874 177.302 115.882C179.118 109.889 181.484 96.143 183.08 83.693C180.653 82.266 180.122 78.29 181.484 71.7649C178.377 72.3075 176.823 71.9036 176.823 70.5532C176.823 69.2029 177.166 67.3902 177.851 65.1153C160.165 54.3225 148.88 50.2175 143.995 52.8003C139.11 55.3831 139.11 61.3008 143.995 70.5532C145.333 76.681 146.002 80.7494 146.002 82.7585C146.002 84.7675 145.116 86.0063 143.344 86.4748Z" fill="white" stroke="#333333" stroke-linecap="round" stroke-linejoin="round"/>
<path fill-rule="evenodd" clip-rule="evenodd" d="M184.182 54.9328C187.898 54.3305 190.604 58.0436 191.381 61.9809C191.823 64.2193 190.691 70.46 187.987 80.703C187.436 80.5376 186.839 80.5611 186.264 80.7361C184.942 81.1387 183.924 82.0355 183.21 83.4264L183.08 83.693C180.653 82.266 180.122 78.29 181.485 71.7649C178.377 72.3075 176.823 71.9036 176.823 70.5532C176.823 69.2029 177.166 67.3902 177.851 65.1153C166.312 63.2514 164.058 70.5532 157.621 66.6417C154.747 64.895 152.488 62.5202 151.591 60.6984C152.285 63.4811 153.909 66.0642 156.463 68.4475C152.574 68.2038 148.651 65.9645 144.695 61.7298C146.468 65.3216 149.367 68.2939 153.392 70.6467C150.542 70.9351 147.409 70.9039 143.995 70.5532L144.405 72.4684L144.691 73.8507L144.948 75.1465C145.651 78.7653 146.002 81.3026 146.002 82.7585C146.002 84.7675 145.116 86.0063 143.344 86.4748L143.232 86.1626C142.167 83.2881 140.39 81.5159 137.903 80.846C137.811 80.8212 137.72 80.8008 137.629 80.7845C136.704 76.6706 136.242 72.0388 136.242 66.8905C129.528 63.2556 126.632 58.9417 124.187 54.5762C126.637 58.3528 129.711 61.2445 133.408 63.2514C130.072 57.9977 128.404 51.9465 128.404 45.0979L128.999 45.3063L129.616 45.5151C136.062 47.6552 144.714 49.2025 157.722 46.0671L158.345 45.9142C172.543 42.3665 181.46 49.0926 184.182 54.9328Z" fill="#333333"/>
<path d="M152.767 88.888C153.828 88.888 154.688 87.1682 154.688 85.0467C154.688 82.9252 153.828 81.2053 152.767 81.2053C151.706 81.2053 150.846 82.9252 150.846 85.0467C150.846 87.1682 151.706 88.888 152.767 88.888Z" fill="#333333" stroke="#333333" stroke-linecap="round" stroke-linejoin="round"/>
<path d="M173.894 88.888C174.955 88.888 175.815 87.1682 175.815 85.0467C175.815 82.9252 174.955 81.2053 173.894 81.2053C172.834 81.2053 171.974 82.9252 171.974 85.0467C171.974 87.1682 172.834 88.888 173.894 88.888Z" fill="#333333" stroke="#333333" stroke-linecap="round" stroke-linejoin="round"/>
<path d="M153.247 96.5707C156.695 96.5707 159.489 93.776 159.489 90.3285C159.489 86.881 156.695 84.0863 153.247 84.0863C149.8 84.0863 147.005 86.881 147.005 90.3285C147.005 93.776 149.8 96.5707 153.247 96.5707Z" stroke="#333333" stroke-linecap="round" stroke-linejoin="round"/>
<path d="M172.454 96.5707C175.901 96.5707 178.696 93.776 178.696 90.3285C178.696 86.881 175.901 84.0863 172.454 84.0863C169.006 84.0863 166.212 86.881 166.212 90.3285C166.212 93.776 169.006 96.5707 172.454 96.5707Z" stroke="#333333" stroke-linecap="round" stroke-linejoin="round"/>
<path d="M159.489 90.3285C161.768 88.5612 164.009 88.5612 166.212 90.3285" stroke="#333333" stroke-linecap="round" stroke-linejoin="round"/>
<path d="M147.005 90.3285L142.995 85.5929" stroke="#333333" stroke-linecap="round" stroke-linejoin="round"/>
<path d="M178.696 90.3285L183.08 83.693" stroke="#333333" stroke-linecap="round" stroke-linejoin="round"/>
<path d="M161.705 92.7241L159.489 103.519L163.42 104.669" stroke="#333333" stroke-linecap="round" stroke-linejoin="round"/>
<path fill-rule="evenodd" clip-rule="evenodd" d="M156.608 110.503C161.786 111.595 166.38 111.112 170.388 109.055C170.388 114.078 167.048 117.163 162.739 116.687C159.867 116.369 157.823 114.308 156.608 110.503Z" fill="#333333" stroke="#333333" stroke-linecap="round" stroke-linejoin="round"/>
<path d="M148.132 78.9827C149.817 76.3548 152.288 75.0409 155.546 75.0409" stroke="#333333" stroke-linecap="round" stroke-linejoin="round"/>
<path d="M169.459 75.0409C173.386 74.8572 176.272 76.1712 178.118 78.9827" stroke="#333333" stroke-linecap="round" stroke-linejoin="round"/>
<path d="M142.744 205.154L160.329 158.646L192.822 179.391" stroke="white"/>
<path fill-rule="evenodd" clip-rule="evenodd" d="M139.603 176.663C111.688 191.547 95.0225 200.092 89.6066 202.299C81.1718 205.737 68.0941 203.561 63.2193 199.835C58.3445 196.109 60.5681 183.378 67.7845 178.528C75.001 173.679 125.652 164.988 132.019 163.172C138.387 161.357 152.918 152.984 156.451 151.978C159.984 150.972 167.214 153.416 169.499 154.696C171.784 155.977 174.988 161.305 177.322 162.239C179.657 163.172 177.007 164.516 174.668 164.516C173.11 164.516 170.928 163.497 168.124 161.459L181.88 173.986C178.933 177.545 175.562 180.01 171.769 181.381C170.363 184.065 169.074 183.9 163.792 182.337C159.453 184.961 158.14 185.534 155.351 183.936C153.789 183.04 150.599 180.777 145.782 177.146C143.992 175.797 141.581 175.608 139.603 176.663Z" fill="white" stroke="#333333" stroke-linecap="round" stroke-linejoin="round"/>
<path d="M171.769 181.381C168.699 179.702 164.886 176.1 160.329 170.574" stroke="#333333" stroke-linecap="round" stroke-linejoin="round"/>
<path d="M164.002 167.255L176.339 175.978" stroke="#333333" stroke-linecap="round" stroke-linejoin="round"/>
<path d="M163.792 182.337L152.848 177.881" stroke="#333333" stroke-linecap="round" stroke-linejoin="round"/>
<path fill-rule="evenodd" clip-rule="evenodd" d="M174.947 220.723L216.747 216.751L211.525 230.179L205.929 223.465L165.11 232.096L174.947 220.723Z" fill="white" stroke="#333333" stroke-linecap="round" stroke-linejoin="round"/>
<path fill-rule="evenodd" clip-rule="evenodd" d="M136.738 204.02L162.316 238.254L205.929 191.41L192.643 174.634L136.738 204.02Z" fill="white" stroke="#333333" stroke-linecap="round" stroke-linejoin="round"/>
<path fill-rule="evenodd" clip-rule="evenodd" d="M224.833 262.493C226.76 248.519 233.168 237.249 244.059 228.681C245.952 231.81 248.401 233.356 251.407 233.319C242.644 241.063 237.252 250.83 235.231 262.619C233.211 274.409 229.745 274.366 224.833 262.493Z" fill="white" stroke="#333333" stroke-linecap="round" stroke-linejoin="round"/>
<path fill-rule="evenodd" clip-rule="evenodd" d="M244.059 228.681C243.36 238.498 246.554 245.623 253.641 250.055C251.261 246.208 250.516 240.629 251.407 233.319L244.059 228.681Z" fill="white" stroke="#333333" stroke-linecap="round" stroke-linejoin="round"/>
<path fill-rule="evenodd" clip-rule="evenodd" d="M205.594 252.557C207.99 253.119 210.556 252.362 213.295 250.284C217.402 247.169 216.911 241.973 213.295 240.931C209.678 239.888 206.295 242.158 205.147 245.633C204.381 247.949 204.53 250.257 205.594 252.557Z" fill="white" stroke="#333333" stroke-linecap="round" stroke-linejoin="round"/>
<path d="M205.594 252.644C207.822 245.878 211.004 242.495 215.14 242.495C219.275 242.495 222.047 249.203 223.456 262.619" stroke="#333333" stroke-linecap="round" stroke-linejoin="round"/>
<path fill-rule="evenodd" clip-rule="evenodd" d="M258.454 208.216C258.617 212.006 257.373 214.904 254.72 216.909C250.742 219.917 245.283 217.675 245.283 213.3C245.283 208.925 248.899 206.507 252.056 206.507C254.16 206.507 256.293 207.077 258.454 208.216Z" fill="white" stroke="#333333" stroke-linecap="round" stroke-linejoin="round"/>
<path d="M228.229 262.619C228.137 236.37 238.212 218.235 258.454 208.216" stroke="#333333" stroke-linecap="round" stroke-linejoin="round"/>
<path fill-rule="evenodd" clip-rule="evenodd" d="M272.611 216.228C272.611 217.651 273.859 222.331 270.194 225.766C266.529 229.2 260.639 227.414 260.639 222.744C260.639 218.074 266.35 214.626 272.611 216.228Z" fill="white" stroke="#333333" stroke-linecap="round" stroke-linejoin="round"/>
<path d="M272.611 216.228C258.795 225.997 250.035 241.419 246.33 262.493" stroke="#333333" stroke-linecap="round" stroke-linejoin="round"/>
<path fill-rule="evenodd" clip-rule="evenodd" d="M228.228 197.521C224.35 200.362 222.411 203.927 222.411 208.216C222.411 214.65 230.41 217.117 233.081 210.885C234.861 206.731 233.243 202.276 228.228 197.521Z" fill="white" stroke="#333333" stroke-linecap="round" stroke-linejoin="round"/>
<path d="M228.228 197.521C226.861 221.761 230.854 243.46 240.208 262.619" stroke="#333333" stroke-linecap="round" stroke-linejoin="round"/>
<path fill-rule="evenodd" clip-rule="evenodd" d="M209.752 223.812C218.915 236.971 223.83 249.747 224.497 262.141C225.164 274.536 228.874 274.536 235.628 262.141C233.451 245.257 228.594 231.753 221.057 221.63C217.907 223.939 214.139 224.666 209.752 223.812Z" fill="white" stroke="#333333" stroke-linecap="round" stroke-linejoin="round"/>
<path fill-rule="evenodd" clip-rule="evenodd" d="M221.057 221.63L209.752 223.812C210.04 229.439 208.345 235.626 204.666 242.374C213.296 237.695 218.76 230.78 221.057 221.63Z" fill="white" stroke="#333333" stroke-linecap="round" stroke-linejoin="round"/>
<path d="M252.683 259.083H214.27V290.774H252.683V259.083Z" fill="white" stroke="#333333" stroke-linecap="round" stroke-linejoin="round"/>
<path fill-rule="evenodd" clip-rule="evenodd" d="M195.84 245.333C190.623 252.06 185.182 258.435 179.518 264.456C171.021 273.488 173.903 280.156 180.094 278.929C186.286 277.702 191.7 272.676 194.216 264.456C195.893 258.976 196.434 252.602 195.84 245.333Z" fill="white" stroke="#333333" stroke-linecap="round" stroke-linejoin="round"/>
<path d="M192.362 254.644C189.067 263.851 184.978 270.831 180.094 275.585" stroke="#333333" stroke-linecap="round" stroke-linejoin="round"/>
<path fill-rule="evenodd" clip-rule="evenodd" d="M152.448 242.436C152.448 250.966 153.678 270.615 158.307 276.155C161.392 279.847 163.846 279.407 165.668 274.834C163.002 259.336 158.596 248.536 152.448 242.436Z" fill="white" stroke="#333333" stroke-linecap="round" stroke-linejoin="round"/>
<path d="M156.504 254.644C159.396 263.528 161.415 270.508 162.563 275.585" stroke="#333333" stroke-linecap="round" stroke-linejoin="round"/>
<path fill-rule="evenodd" clip-rule="evenodd" d="M173.886 237.58C166.487 248.47 162.456 258.686 161.792 268.227C160.795 282.538 166.918 283.47 169.718 281.171C172.517 278.871 173.886 267.956 173.886 260.682C173.886 255.833 173.886 248.132 173.886 237.58Z" fill="white" stroke="#333333" stroke-linecap="round" stroke-linejoin="round"/>
<path d="M170.294 250.283C168.045 260.76 166.578 270.208 165.893 278.629" stroke="#333333" stroke-linecap="round" stroke-linejoin="round"/>
<path fill-rule="evenodd" clip-rule="evenodd" d="M186.848 237.58C179.377 245.475 174.164 253.782 171.207 262.503C166.772 275.585 170.244 280.303 174.222 280.303C178.2 280.303 182.222 271.389 183.977 261.413C185.148 254.762 186.105 246.817 186.848 237.58Z" fill="white" stroke="#333333" stroke-linecap="round" stroke-linejoin="round"/>
<path d="M182.01 247.916C178.118 256.299 175.094 266.017 172.936 277.07" stroke="#333333" stroke-linecap="round" stroke-linejoin="round"/>
<path fill-rule="evenodd" clip-rule="evenodd" d="M145.126 273.488H204.666L201.785 290.774H148.007L145.126 273.488Z" fill="white" stroke="#333333" stroke-linecap="round" stroke-linejoin="round"/>
<path fill-rule="evenodd" clip-rule="evenodd" d="M138.415 245.325C138.071 248.653 136.507 251.147 133.723 252.808C129.547 255.3 123.015 251.902 123.801 246.901C124.588 241.9 129.213 241.033 132.549 241.643C134.773 242.049 136.729 243.276 138.415 245.325Z" fill="white" stroke="#333333" stroke-linecap="round" stroke-linejoin="round"/>
<path d="M112.908 263.278C117.276 252.732 125.778 246.748 138.415 245.325" stroke="#333333" stroke-linecap="round" stroke-linejoin="round"/>
<path fill-rule="evenodd" clip-rule="evenodd" d="M129.873 228.555C123.965 229.07 119.958 231.168 117.852 234.848C114.692 240.369 119.629 245.93 125.661 241.05C129.683 237.797 131.087 233.632 129.873 228.555Z" fill="white" stroke="#333333" stroke-linecap="round" stroke-linejoin="round"/>
<path d="M129.873 228.555C119.587 239.118 113.374 250.858 111.234 263.776" stroke="#333333" stroke-linecap="round" stroke-linejoin="round"/>
<path fill-rule="evenodd" clip-rule="evenodd" d="M99.2451 212.818C95.3952 218.76 94.2117 224.222 95.6945 229.205C97.9187 236.678 107.39 236.264 108.494 227.49C109.23 221.641 106.147 216.75 99.2451 212.818Z" fill="white" stroke="#333333" stroke-linecap="round" stroke-linejoin="round"/>
<path d="M99.2451 212.818C104.982 235.114 107.85 253.053 107.85 266.636" stroke="#333333" stroke-linecap="round" stroke-linejoin="round"/>
<path fill-rule="evenodd" clip-rule="evenodd" d="M83.0248 233.433C81.9413 240.352 83.6 244.894 88.0009 247.062C94.6023 250.312 99.8172 245.325 96.8197 239.727C94.8214 235.995 90.2231 233.897 83.0248 233.433Z" fill="white" stroke="#333333" stroke-linecap="round" stroke-linejoin="round"/>
<path d="M83.0248 233.433C95.9516 243.686 103.67 254.063 106.18 264.565" stroke="#333333" stroke-linecap="round" stroke-linejoin="round"/>
<path fill-rule="evenodd" clip-rule="evenodd" d="M125.661 197.452C118.472 199.494 113.992 203.063 112.22 208.16C109.563 215.804 117.841 222.811 124.458 216.694C128.87 212.617 129.271 206.203 125.661 197.452Z" fill="white" stroke="#333333" stroke-linecap="round" stroke-linejoin="round"/>
<path d="M125.661 197.452C118.052 210.621 113.494 224.39 111.985 238.759C110.476 253.128 109.846 264.348 110.093 272.419" stroke="#333333" stroke-linecap="round" stroke-linejoin="round"/>
<path fill-rule="evenodd" clip-rule="evenodd" d="M82.7037 261.003H137.443L132.641 290.774H87.5054L82.7037 261.003Z" fill="white" stroke="#333333" stroke-linecap="round" stroke-linejoin="round"/>
</svg>
