<svg width="80" height="80" viewBox="0 0 80 80" fill="none" xmlns="http://www.w3.org/2000/svg">
<rect width="80" height="80" rx="4" fill="#C16559"/>
<path d="M39.55 49C37.15 48.875 35.125 47.95 33.475 46.225C31.825 44.5 31 42.4251 31 40C31 37.4999 31.875 35.375 33.625 33.625C35.375 31.875 37.4999 31 40 31C42.4251 31 44.5 31.825 46.225 33.475C47.95 35.125 48.875 37.1625 49 39.5875L46.6375 38.8375C46.3625 37.2375 45.6126 35.9062 44.3875 34.8438C43.1625 33.7813 41.6999 33.25 40 33.25C38.125 33.25 36.5312 33.9062 35.2188 35.2188C33.9062 36.5312 33.25 38.125 33.25 40C33.25 41.6751 33.7813 43.1313 34.8438 44.3688C35.9062 45.6063 37.2375 46.3625 38.8375 46.6375L39.55 49ZM41.35 54.925C41.125 54.9501 40.9 54.9688 40.675 54.9812C40.45 54.9937 40.225 55 40 55C37.9251 55 35.975 54.6062 34.15 53.8187C32.325 53.0312 30.7375 51.9625 29.3875 50.6125C28.0375 49.2625 26.9687 47.675 26.1812 45.85C25.3937 44.0249 25 42.0749 25 40C25 37.9251 25.3937 35.975 26.1812 34.15C26.9687 32.325 28.0375 30.7375 29.3875 29.3875C30.7375 28.0375 32.325 26.9687 34.15 26.1812C35.975 25.3937 37.9251 25 40 25C42.0749 25 44.0249 25.3937 45.85 26.1812C47.675 26.9687 49.2625 28.0375 50.6125 29.3875C51.9625 30.7375 53.0312 32.325 53.8187 34.15C54.6062 35.975 55 37.9251 55 40C55 40.225 54.9937 40.45 54.9812 40.675C54.9688 40.9 54.9501 41.125 54.925 41.35L52.75 40.675V40C52.75 36.45 51.5125 33.4375 49.0375 30.9625C46.5625 28.4875 43.55 27.25 40 27.25C36.45 27.25 33.4375 28.4875 30.9625 30.9625C28.4875 33.4375 27.25 36.45 27.25 40C27.25 43.55 28.4875 46.5625 30.9625 49.0375C33.4375 51.5125 36.45 52.75 40 52.75H40.675L41.35 54.925ZM52.7875 55.75L46.375 49.3375L44.5 55L40 40L55 44.5L49.3375 46.375L55.75 52.7875L52.7875 55.75Z" fill="white"/>
</svg>
