<svg width="80" height="80" viewBox="0 0 80 80" fill="none" xmlns="http://www.w3.org/2000/svg">
<rect width="80" height="80" rx="4" fill="#6D5ED4"/>
<path d="M31.75 56.4999C31.15 56.4999 30.625 56.2749 30.175 55.8249C29.725 55.3749 29.5 54.85 29.5 54.2499V25.75C29.5 25.15 29.725 24.625 30.175 24.175C30.625 23.725 31.15 23.5 31.75 23.5H43.7501V25.75H31.75V26.875H43.7501V29.125H31.75V50.8749H48.2501V46H50.5001V54.2499C50.5001 54.85 50.2751 55.3749 49.8251 55.8249C49.3751 56.2749 48.85 56.4999 48.2501 56.4999H31.75ZM31.75 53.1249V54.2499H48.2501V53.1249H31.75ZM49.525 42.475L42.55 35.5L44.125 33.925L48.4 38.1625V26.875H50.65V38.1625L54.925 33.925L56.5 35.5L49.525 42.475Z" fill="white"/>
</svg>
