<svg width="80" height="80" viewBox="0 0 80 80" fill="none" xmlns="http://www.w3.org/2000/svg">
<rect width="80" height="80" rx="4" fill="#3A86FF"/>
<path d="M39.9997 61.6667C37.6163 61.6667 35.3232 61.3056 33.1205 60.5834C30.9178 59.8611 28.8955 58.814 27.0538 57.4417L29.4372 55.0584C31.0261 56.1417 32.7232 56.9723 34.5288 57.55C36.3344 58.1278 38.158 58.4167 39.9997 58.4167C45.1636 58.4167 49.524 56.6382 53.0809 53.0813C56.6378 49.5244 58.4163 45.164 58.4163 40C58.4163 34.8361 56.6378 30.4757 53.0809 26.9188C49.524 23.3618 45.1636 21.5834 39.9997 21.5834C34.8357 21.5834 30.4753 23.3618 26.9184 26.9188C23.3615 30.4757 21.583 34.8361 21.583 40H18.333C18.333 37.0028 18.9018 34.1952 20.0393 31.5771C21.1768 28.959 22.7295 26.666 24.6976 24.698C26.6657 22.7299 28.9678 21.1771 31.6038 20.0396C34.2399 18.9021 37.0386 18.3334 39.9997 18.3334C42.9969 18.3334 45.8045 18.9021 48.4226 20.0396C51.0407 21.1771 53.3337 22.7299 55.3018 24.698C57.2698 26.666 58.8226 28.959 59.9601 31.5771C61.0976 34.1952 61.6663 37.0028 61.6663 40C61.6663 42.9611 61.0976 45.7598 59.9601 48.3959C58.8226 51.0319 57.2698 53.334 55.3018 55.3021C53.3337 57.2702 51.0407 58.823 48.4226 59.9605C45.8045 61.098 42.9969 61.6667 39.9997 61.6667ZM21.9622 51.9167L30.8455 43.0334L37.7247 49.0459L49.6955 37.075V44.225H52.9455V31.7667H40.4872V35.0167H47.6372L37.6163 45.0375L30.7372 39.025L20.4455 49.3167C20.6983 49.8223 20.942 50.2827 21.1768 50.698C21.4115 51.1132 21.6733 51.5194 21.9622 51.9167Z" fill="white"/>
</svg>
