<svg width="41" height="40" viewBox="0 0 41 40" fill="none" xmlns="http://www.w3.org/2000/svg">
<rect x="0.833008" y="0.5" width="39" height="39" rx="19.5" fill="white"/>
<rect x="0.833008" y="0.5" width="39" height="39" rx="19.5" stroke="#3A86FF"/>
<path d="M27.7923 17.0212V14.042H24.8132V12.667H27.7923C28.159 12.667 28.4798 12.8045 28.7548 13.0795C29.0298 13.3545 29.1673 13.6753 29.1673 14.042V17.0212H27.7923ZM10.834 17.0212V14.042C10.834 13.6753 10.9715 13.3545 11.2465 13.0795C11.5215 12.8045 11.8423 12.667 12.209 12.667H15.1881V14.042H12.209V17.0212H10.834ZM24.8132 27.3337V25.9587H27.7923V22.9795H29.1673V25.9587C29.1673 26.3253 29.0298 26.6462 28.7548 26.9212C28.4798 27.1962 28.159 27.3337 27.7923 27.3337H24.8132ZM12.209 27.3337C11.8423 27.3337 11.5215 27.1962 11.2465 26.9212C10.9715 26.6462 10.834 26.3253 10.834 25.9587V22.9795H12.209V25.9587H15.1881V27.3337H12.209ZM13.584 24.5837V15.417H26.4173V24.5837H13.584ZM14.959 23.2087H25.0423V16.792H14.959V23.2087Z" fill="black"/>
<path d="M27.7923 17.0212V14.042H24.8132V12.667H27.7923C28.159 12.667 28.4798 12.8045 28.7548 13.0795C29.0298 13.3545 29.1673 13.6753 29.1673 14.042V17.0212H27.7923ZM10.834 17.0212V14.042C10.834 13.6753 10.9715 13.3545 11.2465 13.0795C11.5215 12.8045 11.8423 12.667 12.209 12.667H15.1881V14.042H12.209V17.0212H10.834ZM24.8132 27.3337V25.9587H27.7923V22.9795H29.1673V25.9587C29.1673 26.3253 29.0298 26.6462 28.7548 26.9212C28.4798 27.1962 28.159 27.3337 27.7923 27.3337H24.8132ZM12.209 27.3337C11.8423 27.3337 11.5215 27.1962 11.2465 26.9212C10.9715 26.6462 10.834 26.3253 10.834 25.9587V22.9795H12.209V25.9587H15.1881V27.3337H12.209ZM13.584 24.5837V15.417H26.4173V24.5837H13.584ZM14.959 23.2087H25.0423V16.792H14.959V23.2087Z" fill="url(#paint0_linear_2867_243)"/>
<defs>
<linearGradient id="paint0_linear_2867_243" x1="1.93542" y1="30.2671" x2="25.7807" y2="9.0138" gradientUnits="userSpaceOnUse">
<stop stop-color="#76F5BC"/>
<stop offset="1" stop-color="#221DF3"/>
</linearGradient>
</defs>
</svg>
