<svg width="40" height="40" viewBox="0 0 40 40" fill="none" xmlns="http://www.w3.org/2000/svg">
<rect x="0.5" y="0.5" width="39" height="39" rx="19.5" fill="white"/>
<rect x="0.5" y="0.5" width="39" height="39" rx="19.5" stroke="#3A86FF"/>
<path d="M15.65 22.15C15.3667 22.15 15.1292 22.0542 14.9375 21.8625C14.7458 21.6708 14.65 21.4333 14.65 21.15C14.65 20.8667 14.7458 20.6291 14.9375 20.4375C15.1292 20.2458 15.3667 20.15 15.65 20.15C15.9333 20.15 16.1708 20.2458 16.3625 20.4375C16.5542 20.6291 16.65 20.8667 16.65 21.15C16.65 21.4333 16.5542 21.6708 16.3625 21.8625C16.1708 22.0542 15.9333 22.15 15.65 22.15ZM20.075 22.15C19.7917 22.15 19.5542 22.0542 19.3625 21.8625C19.1708 21.6708 19.075 21.4333 19.075 21.15C19.075 20.8667 19.1708 20.6291 19.3625 20.4375C19.5542 20.2458 19.7917 20.15 20.075 20.15C20.3583 20.15 20.5958 20.2458 20.7875 20.4375C20.9792 20.6291 21.075 20.8667 21.075 21.15C21.075 21.4333 20.9792 21.6708 20.7875 21.8625C20.5958 22.0542 20.3583 22.15 20.075 22.15ZM24.325 22.15C24.0417 22.15 23.8042 22.0542 23.6125 21.8625C23.4208 21.6708 23.325 21.4333 23.325 21.15C23.325 20.8667 23.4208 20.6291 23.6125 20.4375C23.8042 20.2458 24.0417 20.15 24.325 20.15C24.6084 20.15 24.8459 20.2458 25.0375 20.4375C25.2291 20.6291 25.325 20.8667 25.325 21.15C25.325 21.4333 25.2291 21.6708 25.0375 21.8625C24.8459 22.0542 24.6084 22.15 24.325 22.15ZM12.5 30C12.1 30 11.75 29.85 11.45 29.55C11.15 29.25 11 28.9 11 28.5V13C11 12.6 11.15 12.25 11.45 11.95C11.75 11.65 12.1 11.5 12.5 11.5H14.125V10H15.75V11.5H24.25V10H25.875V11.5H27.5C27.9 11.5 28.25 11.65 28.55 11.95C28.85 12.25 29 12.6 29 13V28.5C29 28.9 28.85 29.25 28.55 29.55C28.25 29.85 27.9 30 27.5 30H12.5ZM12.5 28.5H27.5V17.75H12.5V28.5ZM12.5 16.25H27.5V13H12.5V16.25Z" fill="black"/>
<path d="M15.65 22.15C15.3667 22.15 15.1292 22.0542 14.9375 21.8625C14.7458 21.6708 14.65 21.4333 14.65 21.15C14.65 20.8667 14.7458 20.6291 14.9375 20.4375C15.1292 20.2458 15.3667 20.15 15.65 20.15C15.9333 20.15 16.1708 20.2458 16.3625 20.4375C16.5542 20.6291 16.65 20.8667 16.65 21.15C16.65 21.4333 16.5542 21.6708 16.3625 21.8625C16.1708 22.0542 15.9333 22.15 15.65 22.15ZM20.075 22.15C19.7917 22.15 19.5542 22.0542 19.3625 21.8625C19.1708 21.6708 19.075 21.4333 19.075 21.15C19.075 20.8667 19.1708 20.6291 19.3625 20.4375C19.5542 20.2458 19.7917 20.15 20.075 20.15C20.3583 20.15 20.5958 20.2458 20.7875 20.4375C20.9792 20.6291 21.075 20.8667 21.075 21.15C21.075 21.4333 20.9792 21.6708 20.7875 21.8625C20.5958 22.0542 20.3583 22.15 20.075 22.15ZM24.325 22.15C24.0417 22.15 23.8042 22.0542 23.6125 21.8625C23.4208 21.6708 23.325 21.4333 23.325 21.15C23.325 20.8667 23.4208 20.6291 23.6125 20.4375C23.8042 20.2458 24.0417 20.15 24.325 20.15C24.6084 20.15 24.8459 20.2458 25.0375 20.4375C25.2291 20.6291 25.325 20.8667 25.325 21.15C25.325 21.4333 25.2291 21.6708 25.0375 21.8625C24.8459 22.0542 24.6084 22.15 24.325 22.15ZM12.5 30C12.1 30 11.75 29.85 11.45 29.55C11.15 29.25 11 28.9 11 28.5V13C11 12.6 11.15 12.25 11.45 11.95C11.75 11.65 12.1 11.5 12.5 11.5H14.125V10H15.75V11.5H24.25V10H25.875V11.5H27.5C27.9 11.5 28.25 11.65 28.55 11.95C28.85 12.25 29 12.6 29 13V28.5C29 28.9 28.85 29.25 28.55 29.55C28.25 29.85 27.9 30 27.5 30H12.5ZM12.5 28.5H27.5V17.75H12.5V28.5ZM12.5 16.25H27.5V13H12.5V16.25Z" fill="url(#paint0_linear_2867_250)"/>
<defs>
<linearGradient id="paint0_linear_2867_250" x1="2.26322" y1="34.0001" x2="32.0193" y2="14.9045" gradientUnits="userSpaceOnUse">
<stop stop-color="#76F5BC"/>
<stop offset="1" stop-color="#221DF3"/>
</linearGradient>
</defs>
</svg>
