<svg width="41" height="40" viewBox="0 0 41 40" fill="none" xmlns="http://www.w3.org/2000/svg">
<rect x="0.833008" y="0.5" width="39" height="39" rx="19.5" fill="white"/>
<rect x="0.833008" y="0.5" width="39" height="39" rx="19.5" stroke="#3A86FF"/>
<path d="M20 30C18.6334 30 17.3417 29.7375 16.125 29.2125C14.9083 28.6875 13.8458 27.9708 12.9375 27.0625C12.0292 26.1542 11.3125 25.0917 10.7875 23.875C10.2625 22.6583 10 21.3666 10 20C10 18.5834 10.2667 17.2666 10.8 16.05C11.3333 14.8333 12.0625 13.775 12.9875 12.875C13.9125 11.975 14.9958 11.2708 16.2375 10.7625C17.4792 10.2542 18.8083 10 20.225 10C21.5417 10 22.7917 10.2208 23.975 10.6625C25.1583 11.1042 26.1958 11.7167 27.0875 12.5C27.9792 13.2833 28.6875 14.2125 29.2125 15.2875C29.7375 16.3625 30 17.5417 30 18.825C30 20.625 29.475 22.0458 28.425 23.0875C27.375 24.1292 25.9834 24.65 24.25 24.65H22.375C22.075 24.65 21.8166 24.7666 21.6 25C21.3834 25.2334 21.275 25.4917 21.275 25.775C21.275 26.225 21.3958 26.6083 21.6375 26.925C21.8792 27.2417 22 27.6083 22 28.025C22 28.6583 21.825 29.1458 21.475 29.4875C21.125 29.8292 20.6334 30 20 30ZM14.175 20.65C14.5083 20.65 14.8 20.525 15.05 20.275C15.3 20.025 15.425 19.7334 15.425 19.4C15.425 19.0666 15.3 18.775 15.05 18.525C14.8 18.275 14.5083 18.15 14.175 18.15C13.8417 18.15 13.55 18.275 13.3 18.525C13.05 18.775 12.925 19.0666 12.925 19.4C12.925 19.7334 13.05 20.025 13.3 20.275C13.55 20.525 13.8417 20.65 14.175 20.65ZM17.325 16.4C17.6583 16.4 17.95 16.275 18.2 16.025C18.45 15.775 18.575 15.4833 18.575 15.15C18.575 14.8167 18.45 14.525 18.2 14.275C17.95 14.025 17.6583 13.9 17.325 13.9C16.9917 13.9 16.7 14.025 16.45 14.275C16.2 14.525 16.075 14.8167 16.075 15.15C16.075 15.4833 16.2 15.775 16.45 16.025C16.7 16.275 16.9917 16.4 17.325 16.4ZM22.675 16.4C23.0083 16.4 23.3 16.275 23.55 16.025C23.8 15.775 23.925 15.4833 23.925 15.15C23.925 14.8167 23.8 14.525 23.55 14.275C23.3 14.025 23.0083 13.9 22.675 13.9C22.3417 13.9 22.05 14.025 21.8 14.275C21.55 14.525 21.425 14.8167 21.425 15.15C21.425 15.4833 21.55 15.775 21.8 16.025C22.05 16.275 22.3417 16.4 22.675 16.4ZM25.95 20.65C26.2834 20.65 26.575 20.525 26.825 20.275C27.075 20.025 27.2 19.7334 27.2 19.4C27.2 19.0666 27.075 18.775 26.825 18.525C26.575 18.275 26.2834 18.15 25.95 18.15C25.6166 18.15 25.325 18.275 25.075 18.525C24.825 18.775 24.7 19.0666 24.7 19.4C24.7 19.7334 24.825 20.025 25.075 20.275C25.325 20.525 25.6166 20.65 25.95 20.65ZM20 28.5C20.1834 28.5 20.3125 28.4625 20.3875 28.3875C20.4625 28.3125 20.5 28.1917 20.5 28.025C20.5 27.7917 20.3792 27.575 20.1375 27.375C19.8958 27.175 19.775 26.7334 19.775 26.05C19.775 25.2834 20.025 24.6083 20.525 24.025C21.025 23.4417 21.6583 23.15 22.425 23.15H24.25C25.5166 23.15 26.5417 22.7792 27.325 22.0375C28.1083 21.2958 28.5 20.225 28.5 18.825C28.5 16.625 27.6666 14.8542 26 13.5125C24.3334 12.1708 22.4083 11.5 20.225 11.5C17.7917 11.5 15.7292 12.3208 14.0375 13.9625C12.3458 15.6042 11.5 17.6166 11.5 20C11.5 22.35 12.3292 24.3542 13.9875 26.0125C15.6458 27.6708 17.65 28.5 20 28.5Z" fill="black"/>
<path d="M20 30C18.6334 30 17.3417 29.7375 16.125 29.2125C14.9083 28.6875 13.8458 27.9708 12.9375 27.0625C12.0292 26.1542 11.3125 25.0917 10.7875 23.875C10.2625 22.6583 10 21.3666 10 20C10 18.5834 10.2667 17.2666 10.8 16.05C11.3333 14.8333 12.0625 13.775 12.9875 12.875C13.9125 11.975 14.9958 11.2708 16.2375 10.7625C17.4792 10.2542 18.8083 10 20.225 10C21.5417 10 22.7917 10.2208 23.975 10.6625C25.1583 11.1042 26.1958 11.7167 27.0875 12.5C27.9792 13.2833 28.6875 14.2125 29.2125 15.2875C29.7375 16.3625 30 17.5417 30 18.825C30 20.625 29.475 22.0458 28.425 23.0875C27.375 24.1292 25.9834 24.65 24.25 24.65H22.375C22.075 24.65 21.8166 24.7666 21.6 25C21.3834 25.2334 21.275 25.4917 21.275 25.775C21.275 26.225 21.3958 26.6083 21.6375 26.925C21.8792 27.2417 22 27.6083 22 28.025C22 28.6583 21.825 29.1458 21.475 29.4875C21.125 29.8292 20.6334 30 20 30ZM14.175 20.65C14.5083 20.65 14.8 20.525 15.05 20.275C15.3 20.025 15.425 19.7334 15.425 19.4C15.425 19.0666 15.3 18.775 15.05 18.525C14.8 18.275 14.5083 18.15 14.175 18.15C13.8417 18.15 13.55 18.275 13.3 18.525C13.05 18.775 12.925 19.0666 12.925 19.4C12.925 19.7334 13.05 20.025 13.3 20.275C13.55 20.525 13.8417 20.65 14.175 20.65ZM17.325 16.4C17.6583 16.4 17.95 16.275 18.2 16.025C18.45 15.775 18.575 15.4833 18.575 15.15C18.575 14.8167 18.45 14.525 18.2 14.275C17.95 14.025 17.6583 13.9 17.325 13.9C16.9917 13.9 16.7 14.025 16.45 14.275C16.2 14.525 16.075 14.8167 16.075 15.15C16.075 15.4833 16.2 15.775 16.45 16.025C16.7 16.275 16.9917 16.4 17.325 16.4ZM22.675 16.4C23.0083 16.4 23.3 16.275 23.55 16.025C23.8 15.775 23.925 15.4833 23.925 15.15C23.925 14.8167 23.8 14.525 23.55 14.275C23.3 14.025 23.0083 13.9 22.675 13.9C22.3417 13.9 22.05 14.025 21.8 14.275C21.55 14.525 21.425 14.8167 21.425 15.15C21.425 15.4833 21.55 15.775 21.8 16.025C22.05 16.275 22.3417 16.4 22.675 16.4ZM25.95 20.65C26.2834 20.65 26.575 20.525 26.825 20.275C27.075 20.025 27.2 19.7334 27.2 19.4C27.2 19.0666 27.075 18.775 26.825 18.525C26.575 18.275 26.2834 18.15 25.95 18.15C25.6166 18.15 25.325 18.275 25.075 18.525C24.825 18.775 24.7 19.0666 24.7 19.4C24.7 19.7334 24.825 20.025 25.075 20.275C25.325 20.525 25.6166 20.65 25.95 20.65ZM20 28.5C20.1834 28.5 20.3125 28.4625 20.3875 28.3875C20.4625 28.3125 20.5 28.1917 20.5 28.025C20.5 27.7917 20.3792 27.575 20.1375 27.375C19.8958 27.175 19.775 26.7334 19.775 26.05C19.775 25.2834 20.025 24.6083 20.525 24.025C21.025 23.4417 21.6583 23.15 22.425 23.15H24.25C25.5166 23.15 26.5417 22.7792 27.325 22.0375C28.1083 21.2958 28.5 20.225 28.5 18.825C28.5 16.625 27.6666 14.8542 26 13.5125C24.3334 12.1708 22.4083 11.5 20.225 11.5C17.7917 11.5 15.7292 12.3208 14.0375 13.9625C12.3458 15.6042 11.5 17.6166 11.5 20C11.5 22.35 12.3292 24.3542 13.9875 26.0125C15.6458 27.6708 17.65 28.5 20 28.5Z" fill="url(#paint0_linear_2867_262)"/>
<defs>
<linearGradient id="paint0_linear_2867_262" x1="0.292462" y1="34" x2="31.2374" y2="11.935" gradientUnits="userSpaceOnUse">
<stop stop-color="#76F5BC"/>
<stop offset="1" stop-color="#221DF3"/>
</linearGradient>
</defs>
</svg>
