<svg width="80" height="80" viewBox="0 0 80 80" fill="none" xmlns="http://www.w3.org/2000/svg">
<rect width="80" height="80" rx="4" fill="#3A86FF"/>
<path d="M38.268 56.9542L26.3513 49.9667C25.8457 49.6778 25.4576 49.2806 25.1867 48.775C24.9159 48.2695 24.7805 47.7278 24.7805 47.15V33.2292C24.7805 32.6514 24.9159 32.1097 25.1867 31.6042C25.4576 31.0986 25.8457 30.7014 26.3513 30.4125L38.3221 23.3167C38.8277 23.0278 39.3874 22.8834 40.0013 22.8834C40.6152 22.8834 41.1749 23.0278 41.6805 23.3167L53.6513 30.4125C54.1569 30.7014 54.545 31.0986 54.8158 31.6042C55.0867 32.1097 55.2221 32.6514 55.2221 33.2292V47.15C55.2221 47.7278 55.0777 48.2695 54.7888 48.775C54.4999 49.2806 54.1027 49.6778 53.5971 49.9667L41.518 56.9542C41.0124 57.2431 40.4707 57.3875 39.893 57.3875C39.3152 57.3875 38.7735 57.2431 38.268 56.9542ZM38.3763 53.2167V41.0834L28.0846 35.1792V47.0417L38.3763 53.2167ZM41.6263 53.2167L51.9721 47.0417V35.1792L41.6263 41.0834V53.2167ZM16.168 26.4042V22.2334C16.168 20.5361 16.7548 19.1007 17.9284 17.9271C19.102 16.7535 20.5374 16.1667 22.2346 16.1667H26.4055V19.4167H22.2346C21.4402 19.4167 20.7721 19.6875 20.2305 20.2292C19.6888 20.7709 19.418 21.4389 19.418 22.2334V26.4042H16.168ZM22.2346 63.8334C20.5374 63.8334 19.102 63.2466 17.9284 62.0729C16.7548 60.8994 16.168 59.4639 16.168 57.7667V53.5959H19.418V57.7667C19.418 58.5611 19.6888 59.2292 20.2305 59.7709C20.7721 60.3125 21.4402 60.5834 22.2346 60.5834H26.4055V63.8334H22.2346ZM53.5971 63.6167V60.3667H57.768C58.5624 60.3667 59.2305 60.0959 59.7721 59.5542C60.3138 59.0125 60.5846 58.3445 60.5846 57.55V53.3792H63.8346V57.55C63.8346 59.2472 63.2479 60.6826 62.0742 61.8562C60.9007 63.0298 59.4652 63.6167 57.768 63.6167H53.5971ZM60.5846 26.4042V22.2334C60.5846 21.4389 60.3138 20.7709 59.7721 20.2292C59.2305 19.6875 58.5624 19.4167 57.768 19.4167H53.5971V16.1667H57.768C59.4652 16.1667 60.9007 16.7535 62.0742 17.9271C63.2479 19.1007 63.8346 20.5361 63.8346 22.2334V26.4042H60.5846ZM40.0013 38.1584L50.293 32.2L40.0013 26.2959L29.7096 32.2L40.0013 38.1584Z" fill="white"/>
</svg>
