<svg width="80" height="80" viewBox="0 0 80 80" fill="none" xmlns="http://www.w3.org/2000/svg">
<rect width="80" height="80" rx="4" fill="#3A86FF"/>
<path d="M34.5292 47.4208L36.9125 45.0375L31.875 40L36.8583 35.0167L34.475 32.6333L27.1083 40L34.5292 47.4208ZM45.4708 47.4208L52.8917 40L45.4708 32.5792L43.0875 34.9625L48.125 40L43.0875 45.0375L45.4708 47.4208ZM23.75 59.5C22.8833 59.5 22.125 59.175 21.475 58.525C20.825 57.875 20.5 57.1167 20.5 56.25V23.75C20.5 22.8833 20.825 22.125 21.475 21.475C22.125 20.825 22.8833 20.5 23.75 20.5H56.25C57.1167 20.5 57.875 20.825 58.525 21.475C59.175 22.125 59.5 22.8833 59.5 23.75V56.25C59.5 57.1167 59.175 57.875 58.525 58.525C57.875 59.175 57.1167 59.5 56.25 59.5H23.75ZM23.75 56.25H56.25V23.75H23.75V56.25Z" fill="white"/>
</svg>
