<svg width="40" height="40" viewBox="0 0 40 40" fill="none" xmlns="http://www.w3.org/2000/svg">
<rect x="0.5" y="0.5" width="39" height="39" rx="19.5" fill="white"/>
<rect x="0.5" y="0.5" width="39" height="39" rx="19.5" stroke="#3A86FF"/>
<path d="M12.916 28.3333C12.5827 28.3333 12.291 28.2083 12.041 27.9583C11.791 27.7083 11.666 27.4167 11.666 27.0833V16.6667C11.666 16.3333 11.791 16.0417 12.041 15.7917C12.291 15.5417 12.5827 15.4167 12.916 15.4167H15.8744L17.7285 13.3333H19.3744C19.3327 13.5417 19.298 13.7639 19.2702 14C19.2424 14.2361 19.2285 14.4653 19.2285 14.6875C19.2285 14.9792 19.2598 15.3021 19.3223 15.6562C19.3848 16.0104 19.4924 16.3472 19.6452 16.6667H12.916V27.0833H27.0827V21.1458C27.2771 20.9514 27.4854 20.7361 27.7077 20.5C27.9299 20.2639 28.1382 20.0278 28.3327 19.7917V27.0833C28.3327 27.4167 28.2077 27.7083 27.9577 27.9583C27.7077 28.2083 27.416 28.3333 27.0827 28.3333H12.916ZM19.791 25.7292C20.7077 25.7292 21.5931 25.4062 22.4473 24.7604C23.3014 24.1146 23.6868 23.1181 23.6035 21.7708C23.3535 21.5347 23.0757 21.2812 22.7702 21.0104C22.4646 20.7396 22.1729 20.4653 21.8952 20.1875C22.0757 20.4236 22.2042 20.6806 22.2806 20.9583C22.357 21.2361 22.3952 21.5417 22.3952 21.875C22.3952 22.5972 22.1417 23.2118 21.6348 23.7188C21.1278 24.2257 20.5132 24.4792 19.791 24.4792C19.0688 24.4792 18.4542 24.2257 17.9473 23.7188C17.4403 23.2118 17.1869 22.5972 17.1869 21.875C17.1869 21.1528 17.4403 20.5382 17.9473 20.0313C18.4542 19.5243 19.0688 19.2708 19.791 19.2708C20.1938 19.2708 20.5688 19.3472 20.916 19.5C21.2632 19.6528 21.5896 19.8819 21.8952 20.1875C21.6174 19.8403 21.35 19.4896 21.0931 19.1354C20.8361 18.7812 20.5896 18.4236 20.3535 18.0625C19.0063 18.0069 17.9334 18.3368 17.1348 19.0521C16.3362 19.7674 15.9369 20.7083 15.9369 21.875C15.9369 22.9722 16.3049 23.8889 17.041 24.625C17.7771 25.3611 18.6938 25.7292 19.791 25.7292ZM24.9993 21.2917C26.5132 20 27.6452 18.8056 28.3952 17.7083C29.1452 16.6111 29.5202 15.5903 29.5202 14.6458C29.5202 13.2153 29.0653 12.0833 28.1556 11.25C27.2459 10.4167 26.1938 10 24.9993 10C23.8049 10 22.7528 10.4167 21.8431 11.25C20.9334 12.0833 20.4785 13.2153 20.4785 14.6458C20.4785 15.5903 20.8535 16.6111 21.6035 17.7083C22.3535 18.8056 23.4854 20 24.9993 21.2917ZM24.9993 19.6667C23.5827 18.3333 22.6834 17.2604 22.3014 16.4479C21.9195 15.6354 21.7285 15.0347 21.7285 14.6458C21.7285 13.5347 22.0757 12.691 22.7702 12.1146C23.4646 11.5382 24.2077 11.25 24.9993 11.25C25.791 11.25 26.5341 11.5382 27.2285 12.1146C27.9229 12.691 28.2702 13.5347 28.2702 14.6458C28.2702 15.0347 28.0792 15.6354 27.6973 16.4479C27.3153 17.2604 26.416 18.3333 24.9993 19.6667ZM23.7702 16.4792L24.2285 14.9583L22.9785 13.9375H24.4993L24.9993 12.4375L25.4993 13.9375H27.0202L25.7702 14.9583L26.2493 16.4792L24.9993 15.5417L23.7702 16.4792Z" fill="black"/>
<path d="M12.916 28.3333C12.5827 28.3333 12.291 28.2083 12.041 27.9583C11.791 27.7083 11.666 27.4167 11.666 27.0833V16.6667C11.666 16.3333 11.791 16.0417 12.041 15.7917C12.291 15.5417 12.5827 15.4167 12.916 15.4167H15.8744L17.7285 13.3333H19.3744C19.3327 13.5417 19.298 13.7639 19.2702 14C19.2424 14.2361 19.2285 14.4653 19.2285 14.6875C19.2285 14.9792 19.2598 15.3021 19.3223 15.6562C19.3848 16.0104 19.4924 16.3472 19.6452 16.6667H12.916V27.0833H27.0827V21.1458C27.2771 20.9514 27.4854 20.7361 27.7077 20.5C27.9299 20.2639 28.1382 20.0278 28.3327 19.7917V27.0833C28.3327 27.4167 28.2077 27.7083 27.9577 27.9583C27.7077 28.2083 27.416 28.3333 27.0827 28.3333H12.916ZM19.791 25.7292C20.7077 25.7292 21.5931 25.4062 22.4473 24.7604C23.3014 24.1146 23.6868 23.1181 23.6035 21.7708C23.3535 21.5347 23.0757 21.2812 22.7702 21.0104C22.4646 20.7396 22.1729 20.4653 21.8952 20.1875C22.0757 20.4236 22.2042 20.6806 22.2806 20.9583C22.357 21.2361 22.3952 21.5417 22.3952 21.875C22.3952 22.5972 22.1417 23.2118 21.6348 23.7188C21.1278 24.2257 20.5132 24.4792 19.791 24.4792C19.0688 24.4792 18.4542 24.2257 17.9473 23.7188C17.4403 23.2118 17.1869 22.5972 17.1869 21.875C17.1869 21.1528 17.4403 20.5382 17.9473 20.0313C18.4542 19.5243 19.0688 19.2708 19.791 19.2708C20.1938 19.2708 20.5688 19.3472 20.916 19.5C21.2632 19.6528 21.5896 19.8819 21.8952 20.1875C21.6174 19.8403 21.35 19.4896 21.0931 19.1354C20.8361 18.7812 20.5896 18.4236 20.3535 18.0625C19.0063 18.0069 17.9334 18.3368 17.1348 19.0521C16.3362 19.7674 15.9369 20.7083 15.9369 21.875C15.9369 22.9722 16.3049 23.8889 17.041 24.625C17.7771 25.3611 18.6938 25.7292 19.791 25.7292ZM24.9993 21.2917C26.5132 20 27.6452 18.8056 28.3952 17.7083C29.1452 16.6111 29.5202 15.5903 29.5202 14.6458C29.5202 13.2153 29.0653 12.0833 28.1556 11.25C27.2459 10.4167 26.1938 10 24.9993 10C23.8049 10 22.7528 10.4167 21.8431 11.25C20.9334 12.0833 20.4785 13.2153 20.4785 14.6458C20.4785 15.5903 20.8535 16.6111 21.6035 17.7083C22.3535 18.8056 23.4854 20 24.9993 21.2917ZM24.9993 19.6667C23.5827 18.3333 22.6834 17.2604 22.3014 16.4479C21.9195 15.6354 21.7285 15.0347 21.7285 14.6458C21.7285 13.5347 22.0757 12.691 22.7702 12.1146C23.4646 11.5382 24.2077 11.25 24.9993 11.25C25.791 11.25 26.5341 11.5382 27.2285 12.1146C27.9229 12.691 28.2702 13.5347 28.2702 14.6458C28.2702 15.0347 28.0792 15.6354 27.6973 16.4479C27.3153 17.2604 26.416 18.3333 24.9993 19.6667ZM23.7702 16.4792L24.2285 14.9583L22.9785 13.9375H24.4993L24.9993 12.4375L25.4993 13.9375H27.0202L25.7702 14.9583L26.2493 16.4792L24.9993 15.5417L23.7702 16.4792Z" fill="url(#paint0_linear_2867_112)"/>
<defs>
<linearGradient id="paint0_linear_2867_112" x1="3" y1="32" x2="31.1136" y2="12.4776" gradientUnits="userSpaceOnUse">
<stop stop-color="#76F5BC"/>
<stop offset="1" stop-color="#221DF3"/>
</linearGradient>
</defs>
</svg>
