<svg width="80" height="80" viewBox="0 0 80 80" fill="none" xmlns="http://www.w3.org/2000/svg">
<rect width="80" height="80" rx="4" fill="#3A86FF"/>
<path d="M46.5013 57.3334C41.6624 57.3334 37.5638 55.6542 34.2055 52.2959C30.8471 48.9376 29.168 44.839 29.168 40.0001C29.168 35.1612 30.8471 31.0626 34.2055 27.7042C37.5638 24.3459 41.6624 22.6667 46.5013 22.6667C51.3402 22.6667 55.4388 24.3459 58.7971 27.7042C62.1555 31.0626 63.8346 35.1612 63.8346 40.0001C63.8346 44.839 62.1555 48.9376 58.7971 52.2959C55.4388 55.6542 51.3402 57.3334 46.5013 57.3334ZM46.5013 54.0834C50.4013 54.0834 53.7236 52.7112 56.468 49.9667C59.2124 47.2223 60.5846 43.9001 60.5846 40.0001C60.5846 36.1001 59.2124 32.7778 56.468 30.0334C53.7236 27.289 50.4013 25.9167 46.5013 25.9167C42.6013 25.9167 39.279 27.289 36.5346 30.0334C33.7902 32.7778 32.418 36.1001 32.418 40.0001C32.418 43.9001 33.7902 47.2223 36.5346 49.9667C39.279 52.7112 42.6013 54.0834 46.5013 54.0834ZM52.0263 47.7459L54.3013 45.4709L48.1805 39.2959L48.1263 31.3334H44.8763V40.6501L52.0263 47.7459ZM18.3346 32.9584V29.7084H27.0013V32.9584H18.3346ZM16.168 41.6251V38.3751H27.0013V41.6251H16.168ZM18.3346 50.2917V47.0417H27.0013V50.2917H18.3346Z" fill="white"/>
</svg>
