<svg width="40" height="40" viewBox="0 0 40 40" fill="none" xmlns="http://www.w3.org/2000/svg">
<rect x="0.5" y="0.5" width="39" height="39" rx="19.5" fill="white"/>
<rect x="0.5" y="0.5" width="39" height="39" rx="19.5" stroke="#3A86FF"/>
<path d="M20 24.3748L18.65 21.3498L15.625 19.9998L18.65 18.6248L20 15.5998L21.375 18.6248L24.4 19.9998L21.375 21.3498L20 24.3748ZM20.175 30.9998C18.1583 30.9998 16.3167 30.529 14.65 29.5873C12.9833 28.6456 11.6 27.3082 10.5 25.5748V28.9748H9V22.9998H14.95V24.4998H11.6C12.55 26.0832 13.775 27.3123 15.275 28.1873C16.775 29.0623 18.4084 29.4998 20.175 29.4998C22.1917 29.4998 24.0083 28.9123 25.625 27.7373C27.2417 26.5623 28.3667 25.0164 29 23.0998L30.475 23.4248C29.7583 25.6915 28.4541 27.5207 26.5625 28.9123C24.6708 30.3039 22.5416 30.9998 20.175 30.9998ZM9.04999 18.9998C9.16666 17.8665 9.43333 16.7956 9.85 15.7873C10.2667 14.779 10.8333 13.8415 11.55 12.9748L12.625 14.0498C12.0417 14.7998 11.575 15.5915 11.225 16.4248C10.875 17.2582 10.65 18.1164 10.55 18.9998H9.04999ZM14.025 12.6498L12.975 11.5498C13.875 10.8165 14.8333 10.2415 15.85 9.8248C16.8667 9.40813 17.9334 9.1498 19.05 9.0498V10.5498C18.1833 10.6331 17.3417 10.8456 16.525 11.1873C15.7083 11.529 14.875 12.0165 14.025 12.6498ZM25.975 12.6498C25.225 12.0498 24.4333 11.5706 23.6 11.2123C22.7667 10.854 21.9 10.6331 21 10.5498V9.0498C22.1334 9.1498 23.2041 9.40813 24.2125 9.8248C25.2209 10.2415 26.1583 10.8165 27.025 11.5498L25.975 12.6498ZM29.45 18.9998C29.3667 18.1498 29.1333 17.2915 28.75 16.4248C28.3667 15.5581 27.875 14.7498 27.275 13.9998L28.325 12.8998C29.0917 13.7998 29.7 14.7706 30.15 15.8123C30.6 16.854 30.8667 17.9165 30.95 18.9998H29.45Z" fill="black"/>
<path d="M20 24.3748L18.65 21.3498L15.625 19.9998L18.65 18.6248L20 15.5998L21.375 18.6248L24.4 19.9998L21.375 21.3498L20 24.3748ZM20.175 30.9998C18.1583 30.9998 16.3167 30.529 14.65 29.5873C12.9833 28.6456 11.6 27.3082 10.5 25.5748V28.9748H9V22.9998H14.95V24.4998H11.6C12.55 26.0832 13.775 27.3123 15.275 28.1873C16.775 29.0623 18.4084 29.4998 20.175 29.4998C22.1917 29.4998 24.0083 28.9123 25.625 27.7373C27.2417 26.5623 28.3667 25.0164 29 23.0998L30.475 23.4248C29.7583 25.6915 28.4541 27.5207 26.5625 28.9123C24.6708 30.3039 22.5416 30.9998 20.175 30.9998ZM9.04999 18.9998C9.16666 17.8665 9.43333 16.7956 9.85 15.7873C10.2667 14.779 10.8333 13.8415 11.55 12.9748L12.625 14.0498C12.0417 14.7998 11.575 15.5915 11.225 16.4248C10.875 17.2582 10.65 18.1164 10.55 18.9998H9.04999ZM14.025 12.6498L12.975 11.5498C13.875 10.8165 14.8333 10.2415 15.85 9.8248C16.8667 9.40813 17.9334 9.1498 19.05 9.0498V10.5498C18.1833 10.6331 17.3417 10.8456 16.525 11.1873C15.7083 11.529 14.875 12.0165 14.025 12.6498ZM25.975 12.6498C25.225 12.0498 24.4333 11.5706 23.6 11.2123C22.7667 10.854 21.9 10.6331 21 10.5498V9.0498C22.1334 9.1498 23.2041 9.40813 24.2125 9.8248C25.2209 10.2415 26.1583 10.8165 27.025 11.5498L25.975 12.6498ZM29.45 18.9998C29.3667 18.1498 29.1333 17.2915 28.75 16.4248C28.3667 15.5581 27.875 14.7498 27.275 13.9998L28.325 12.8998C29.0917 13.7998 29.7 14.7706 30.15 15.8123C30.6 16.854 30.8667 17.9165 30.95 18.9998H29.45Z" fill="url(#paint0_linear_2867_231)"/>
<defs>
<linearGradient id="paint0_linear_2867_231" x1="-1.65404" y1="35.3899" x2="32.3081" y2="11.1735" gradientUnits="userSpaceOnUse">
<stop stop-color="#76F5BC"/>
<stop offset="1" stop-color="#221DF3"/>
</linearGradient>
</defs>
</svg>
