<svg width="40" height="40" viewBox="0 0 40 40" fill="none" xmlns="http://www.w3.org/2000/svg">
<rect x="0.5" y="0.5" width="39" height="39" rx="19.5" fill="white"/>
<rect x="0.5" y="0.5" width="39" height="39" rx="19.5" stroke="#3A86FF"/>
<path d="M19.25 25H15C13.6167 25 12.4375 24.5125 11.4625 23.5375C10.4875 22.5625 10 21.3834 10 20C10 18.6166 10.4875 17.4375 11.4625 16.4625C12.4375 15.4875 13.6167 15 15 15H19.25V16.5H15C14.0333 16.5 13.2083 16.8417 12.525 17.525C11.8417 18.2083 11.5 19.0334 11.5 20C11.5 20.9666 11.8417 21.7917 12.525 22.475C13.2083 23.1583 14.0333 23.5 15 23.5H19.25V25ZM16.125 20.75V19.25H23.875V20.75H16.125ZM20.75 25V23.5H25C25.9666 23.5 26.7917 23.1583 27.475 22.475C28.1583 21.7917 28.5 20.9666 28.5 20C28.5 19.0334 28.1583 18.2083 27.475 17.525C26.7917 16.8417 25.9666 16.5 25 16.5H20.75V15H25C26.3834 15 27.5625 15.4875 28.5375 16.4625C29.5125 17.4375 30 18.6166 30 20C30 21.3834 29.5125 22.5625 28.5375 23.5375C27.5625 24.5125 26.3834 25 25 25H20.75Z" fill="black"/>
<path d="M19.25 25H15C13.6167 25 12.4375 24.5125 11.4625 23.5375C10.4875 22.5625 10 21.3834 10 20C10 18.6166 10.4875 17.4375 11.4625 16.4625C12.4375 15.4875 13.6167 15 15 15H19.25V16.5H15C14.0333 16.5 13.2083 16.8417 12.525 17.525C11.8417 18.2083 11.5 19.0334 11.5 20C11.5 20.9666 11.8417 21.7917 12.525 22.475C13.2083 23.1583 14.0333 23.5 15 23.5H19.25V25ZM16.125 20.75V19.25H23.875V20.75H16.125ZM20.75 25V23.5H25C25.9666 23.5 26.7917 23.1583 27.475 22.475C28.1583 21.7917 28.5 20.9666 28.5 20C28.5 19.0334 28.1583 18.2083 27.475 17.525C26.7917 16.8417 25.9666 16.5 25 16.5H20.75V15H25C26.3834 15 27.5625 15.4875 28.5375 16.4625C29.5125 17.4375 30 18.6166 30 20C30 21.3834 29.5125 22.5625 28.5375 23.5375C27.5625 24.5125 26.3834 25 25 25H20.75Z" fill="url(#paint0_linear_2867_131)"/>
<defs>
<linearGradient id="paint0_linear_2867_131" x1="0.292462" y1="27" x2="15.679" y2="5.05759" gradientUnits="userSpaceOnUse">
<stop stop-color="#76F5BC"/>
<stop offset="1" stop-color="#221DF3"/>
</linearGradient>
</defs>
</svg>
