<svg width="80" height="80" viewBox="0 0 80 80" fill="none" xmlns="http://www.w3.org/2000/svg">
<rect width="80" height="80" rx="4" fill="#858C97"/>
<path d="M31.975 55.0001L26.5 49.525L31.975 44.05L33.55 45.625L30.775 48.4H53.5V50.65H30.775L33.55 53.4251L31.975 55.0001ZM36.625 44.5V36.25C34.975 36.25 33.5625 35.7125 32.3875 34.6375C31.2125 33.5625 30.625 32.225 30.625 30.625C30.625 29.05 31.1688 27.7187 32.2562 26.6312C33.3438 25.5438 34.675 25 36.25 25H46.75V27.25H43.375V44.5H41.125V27.25H38.875V44.5H36.625ZM36.625 34V27.25C35.575 27.25 34.6875 27.55 33.9625 28.15C33.2375 28.75 32.875 29.575 32.875 30.625C32.875 31.675 33.2375 32.5 33.9625 33.1C34.6875 33.7 35.575 34 36.625 34Z" fill="white"/>
</svg>
