<svg width="41" height="40" viewBox="0 0 41 40" fill="none" xmlns="http://www.w3.org/2000/svg">
<rect x="0.833008" y="0.5" width="39" height="39" rx="19.5" fill="white"/>
<rect x="0.833008" y="0.5" width="39" height="39" rx="19.5" stroke="#3A86FF"/>
<path d="M10 28V25.75H12.15V13.5C12.15 13.0833 12.2958 12.7292 12.5875 12.4375C12.8792 12.1458 13.2333 12 13.65 12H29.15V13.5H13.65V25.75H19.5V28H10ZM21.975 28C21.6917 28 21.4584 27.8875 21.275 27.6625C21.0917 27.4375 21 27.1833 21 26.9V15.975C21 15.6917 21.0917 15.4583 21.275 15.275C21.4584 15.0917 21.6917 15 21.975 15H28.775C29.0917 15 29.375 15.0875 29.625 15.2625C29.875 15.4375 30 15.675 30 15.975V26.9C30 27.2167 29.8792 27.4791 29.6375 27.6875C29.3959 27.8958 29.1084 28 28.775 28H21.975ZM22.5 25.75H28.5V16.5H22.5V25.75Z" fill="black"/>
<path d="M10 28V25.75H12.15V13.5C12.15 13.0833 12.2958 12.7292 12.5875 12.4375C12.8792 12.1458 13.2333 12 13.65 12H29.15V13.5H13.65V25.75H19.5V28H10ZM21.975 28C21.6917 28 21.4584 27.8875 21.275 27.6625C21.0917 27.4375 21 27.1833 21 26.9V15.975C21 15.6917 21.0917 15.4583 21.275 15.275C21.4584 15.0917 21.6917 15 21.975 15H28.775C29.0917 15 29.375 15.0875 29.625 15.2625C29.875 15.4375 30 15.675 30 15.975V26.9C30 27.2167 29.8792 27.4791 29.6375 27.6875C29.3959 27.8958 29.1084 28 28.775 28H21.975ZM22.5 25.75H28.5V16.5H22.5V25.75Z" fill="url(#paint0_linear_2867_124)"/>
<defs>
<linearGradient id="paint0_linear_2867_124" x1="0.292476" y1="31.2001" x2="26.3055" y2="8.01466" gradientUnits="userSpaceOnUse">
<stop stop-color="#76F5BC"/>
<stop offset="1" stop-color="#221DF3"/>
</linearGradient>
</defs>
</svg>
