<svg width="23" height="20" viewBox="0 0 23 20" fill="none" xmlns="http://www.w3.org/2000/svg">
<path d="M1.76025 19.1667C1.30192 19.1667 0.900879 18.9948 0.557129 18.6511C0.213379 18.3073 0.0415039 17.9063 0.0415039 17.4479V2.55209C0.0415039 2.09376 0.213379 1.69272 0.557129 1.34897C0.900879 1.00522 1.30192 0.833344 1.76025 0.833344H21.2394C21.6978 0.833344 22.0988 1.00522 22.4425 1.34897C22.7863 1.69272 22.9582 2.09376 22.9582 2.55209V17.4479C22.9582 17.9063 22.7863 18.3073 22.4425 18.6511C22.0988 18.9948 21.6978 19.1667 21.2394 19.1667H1.76025ZM11.4998 10.5156L1.76025 4.12761V17.4479H21.2394V4.12761L11.4998 10.5156ZM11.4998 8.79689L21.1248 2.55209H1.90348L11.4998 8.79689ZM1.76025 4.12761V2.55209V17.4479V4.12761Z" fill="white"/>
</svg>
