<svg width="41" height="40" viewBox="0 0 41 40" fill="none" xmlns="http://www.w3.org/2000/svg">
<rect x="1.16699" y="0.5" width="39" height="39" rx="19.5" fill="white"/>
<rect x="1.16699" y="0.5" width="39" height="39" rx="19.5" stroke="#3A86FF"/>
<path d="M20.6248 16.6754V13.6004H17.5248V12.1004H20.6248V9.02539H22.1248V12.1004H25.1998V13.6004H22.1248V16.6754H20.6248ZM16.2498 30.0004C15.7498 30.0004 15.3248 29.8254 14.9748 29.4754C14.6248 29.1254 14.4498 28.7004 14.4498 28.2004C14.4498 27.7004 14.6248 27.2754 14.9748 26.9254C15.3248 26.5754 15.7498 26.4004 16.2498 26.4004C16.7498 26.4004 17.1748 26.5754 17.5248 26.9254C17.8748 27.2754 18.0498 27.7004 18.0498 28.2004C18.0498 28.7004 17.8748 29.1254 17.5248 29.4754C17.1748 29.8254 16.7498 30.0004 16.2498 30.0004ZM26.3498 30.0004C25.8498 30.0004 25.4248 29.8254 25.0748 29.4754C24.7248 29.1254 24.5498 28.7004 24.5498 28.2004C24.5498 27.7004 24.7248 27.2754 25.0748 26.9254C25.4248 26.5754 25.8498 26.4004 26.3498 26.4004C26.8498 26.4004 27.2748 26.5754 27.6248 26.9254C27.9748 27.2754 28.1498 27.7004 28.1498 28.2004C28.1498 28.7004 27.9748 29.1254 27.6248 29.4754C27.2748 29.8254 26.8498 30.0004 26.3498 30.0004ZM16.2498 24.8254C15.5498 24.8254 15.0373 24.5421 14.7123 23.9754C14.3873 23.4087 14.3915 22.8337 14.7248 22.2504L16.2498 19.4754L12.4998 11.5004H10.5498V10.0004H13.4498L17.6998 19.1004H24.9998L28.8998 12.1004L30.1998 12.8004L26.3748 19.7254C26.2248 20.0087 26.0206 20.2254 25.7623 20.3754C25.504 20.5254 25.1998 20.6004 24.8498 20.6004H17.3498L15.7998 23.3254H28.1498V24.8254H16.2498Z" fill="black"/>
<path d="M20.6248 16.6754V13.6004H17.5248V12.1004H20.6248V9.02539H22.1248V12.1004H25.1998V13.6004H22.1248V16.6754H20.6248ZM16.2498 30.0004C15.7498 30.0004 15.3248 29.8254 14.9748 29.4754C14.6248 29.1254 14.4498 28.7004 14.4498 28.2004C14.4498 27.7004 14.6248 27.2754 14.9748 26.9254C15.3248 26.5754 15.7498 26.4004 16.2498 26.4004C16.7498 26.4004 17.1748 26.5754 17.5248 26.9254C17.8748 27.2754 18.0498 27.7004 18.0498 28.2004C18.0498 28.7004 17.8748 29.1254 17.5248 29.4754C17.1748 29.8254 16.7498 30.0004 16.2498 30.0004ZM26.3498 30.0004C25.8498 30.0004 25.4248 29.8254 25.0748 29.4754C24.7248 29.1254 24.5498 28.7004 24.5498 28.2004C24.5498 27.7004 24.7248 27.2754 25.0748 26.9254C25.4248 26.5754 25.8498 26.4004 26.3498 26.4004C26.8498 26.4004 27.2748 26.5754 27.6248 26.9254C27.9748 27.2754 28.1498 27.7004 28.1498 28.2004C28.1498 28.7004 27.9748 29.1254 27.6248 29.4754C27.2748 29.8254 26.8498 30.0004 26.3498 30.0004ZM16.2498 24.8254C15.5498 24.8254 15.0373 24.5421 14.7123 23.9754C14.3873 23.4087 14.3915 22.8337 14.7248 22.2504L16.2498 19.4754L12.4998 11.5004H10.5498V10.0004H13.4498L17.6998 19.1004H24.9998L28.8998 12.1004L30.1998 12.8004L26.3748 19.7254C26.2248 20.0087 26.0206 20.2254 25.7623 20.3754C25.504 20.5254 25.1998 20.6004 24.8498 20.6004H17.3498L15.7998 23.3254H28.1498V24.8254H16.2498Z" fill="url(#paint0_linear_2867_237)"/>
<defs>
<linearGradient id="paint0_linear_2867_237" x1="1.01215" y1="34.1954" x2="32.7233" y2="13.0124" gradientUnits="userSpaceOnUse">
<stop stop-color="#76F5BC"/>
<stop offset="1" stop-color="#221DF3"/>
</linearGradient>
</defs>
</svg>
