<svg width="80" height="81" viewBox="0 0 80 81" fill="none" xmlns="http://www.w3.org/2000/svg">
<rect y="0.868164" width="80" height="80" rx="4" fill="#B35CFF"/>
<path d="M21.44 30.8682V25.7082H31.08V54.8682H25.32V30.8682H21.44ZM36.6122 39.9082C36.6122 35.2948 37.4389 31.6815 39.0922 29.0682C40.7722 26.4548 43.5455 25.1482 47.4122 25.1482C51.2789 25.1482 54.0389 26.4548 55.6922 29.0682C57.3722 31.6815 58.2122 35.2948 58.2122 39.9082C58.2122 44.5482 57.3722 48.1882 55.6922 50.8282C54.0389 53.4682 51.2789 54.7882 47.4122 54.7882C43.5455 54.7882 40.7722 53.4682 39.0922 50.8282C37.4389 48.1882 36.6122 44.5482 36.6122 39.9082ZM52.6922 39.9082C52.6922 37.9348 52.5589 36.2815 52.2922 34.9482C52.0522 33.5882 51.5455 32.4815 50.7722 31.6282C50.0255 30.7748 48.9055 30.3482 47.4122 30.3482C45.9189 30.3482 44.7855 30.7748 44.0122 31.6282C43.2655 32.4815 42.7589 33.5882 42.4922 34.9482C42.2522 36.2815 42.1322 37.9348 42.1322 39.9082C42.1322 41.9348 42.2522 43.6415 42.4922 45.0282C42.7322 46.3882 43.2389 47.4948 44.0122 48.3482C44.7855 49.1748 45.9189 49.5882 47.4122 49.5882C48.9055 49.5882 50.0389 49.1748 50.8122 48.3482C51.5855 47.4948 52.0922 46.3882 52.3322 45.0282C52.5722 43.6415 52.6922 41.9348 52.6922 39.9082Z" fill="white"/>
</svg>
