<svg width="80" height="81" viewBox="0 0 80 81" fill="none" xmlns="http://www.w3.org/2000/svg">
<rect y="0.868164" width="80" height="80" rx="4" fill="#F36D30"/>
<path d="M32.88 48.5482C35.44 46.4148 37.48 44.6415 39 43.2282C40.52 41.7882 41.7867 40.2948 42.8 38.7482C43.8133 37.2015 44.32 35.6815 44.32 34.1882C44.32 32.8282 44 31.7615 43.36 30.9882C42.72 30.2148 41.7333 29.8282 40.4 29.8282C39.0667 29.8282 38.04 30.2815 37.32 31.1882C36.6 32.0682 36.2267 33.2815 36.2 34.8282H30.76C30.8667 31.6282 31.8133 29.2015 33.6 27.5482C35.4133 25.8948 37.7067 25.0682 40.48 25.0682C43.52 25.0682 45.8533 25.8815 47.48 27.5082C49.1067 29.1082 49.92 31.2282 49.92 33.8682C49.92 35.9482 49.36 37.9348 48.24 39.8282C47.12 41.7215 45.84 43.3748 44.4 44.7882C42.96 46.1748 41.08 47.8548 38.76 49.8282H50.56V54.4682H30.8V50.3082L32.88 48.5482Z" fill="white"/>
</svg>
