<svg width="80" height="81" viewBox="0 0 80 81" fill="none" xmlns="http://www.w3.org/2000/svg">
<rect y="0.868164" width="80" height="80" rx="4" fill="#E11FAB"/>
<path d="M48.72 30.5482H35.76V37.3882C36.32 36.6948 37.12 36.1348 38.16 35.7082C39.2 35.2548 40.3067 35.0282 41.48 35.0282C43.6133 35.0282 45.36 35.4948 46.72 36.4282C48.08 37.3615 49.0667 38.5615 49.68 40.0282C50.2933 41.4682 50.6 43.0148 50.6 44.6682C50.6 47.7348 49.72 50.2015 47.96 52.0682C46.2267 53.9348 43.7467 54.8682 40.52 54.8682C37.48 54.8682 35.0533 54.1082 33.24 52.5882C31.4267 51.0682 30.4 49.0815 30.16 46.6282H35.6C35.84 47.6948 36.3733 48.5482 37.2 49.1882C38.0533 49.8282 39.1333 50.1482 40.44 50.1482C42.0133 50.1482 43.2 49.6548 44 48.6682C44.8 47.6815 45.2 46.3748 45.2 44.7482C45.2 43.0948 44.7867 41.8415 43.96 40.9882C43.16 40.1082 41.9733 39.6682 40.4 39.6682C39.28 39.6682 38.3467 39.9482 37.6 40.5082C36.8533 41.0682 36.32 41.8148 36 42.7482H30.64V25.6282H48.72V30.5482Z" fill="white"/>
</svg>
