<svg width="80" height="81" viewBox="0 0 80 81" fill="none" xmlns="http://www.w3.org/2000/svg">
<rect y="0.868164" width="80" height="80" rx="4" fill="#AF1FE1"/>
<path d="M30.2 33.3882C30.3333 30.7215 31.2667 28.6682 33 27.2282C34.76 25.7615 37.0667 25.0282 39.92 25.0282C41.8667 25.0282 43.5333 25.3748 44.92 26.0682C46.3067 26.7348 47.3467 27.6548 48.04 28.8282C48.76 29.9748 49.12 31.2815 49.12 32.7482C49.12 34.4282 48.68 35.8548 47.8 37.0282C46.9467 38.1748 45.92 38.9482 44.72 39.3482V39.5082C46.2667 39.9882 47.4667 40.8415 48.32 42.0682C49.2 43.2948 49.64 44.8682 49.64 46.7882C49.64 48.3882 49.2667 49.8148 48.52 51.0682C47.8 52.3215 46.72 53.3082 45.28 54.0282C43.8667 54.7215 42.16 55.0682 40.16 55.0682C37.1467 55.0682 34.6933 54.3082 32.8 52.7882C30.9067 51.2682 29.9067 49.0282 29.8 46.0682H35.24C35.2933 47.3748 35.7333 48.4282 36.56 49.2282C37.4133 50.0015 38.5733 50.3882 40.04 50.3882C41.4 50.3882 42.44 50.0148 43.16 49.2682C43.9067 48.4948 44.28 47.5082 44.28 46.3082C44.28 44.7082 43.7733 43.5615 42.76 42.8682C41.7467 42.1748 40.1733 41.8282 38.04 41.8282H36.88V37.2282H38.04C41.8267 37.2282 43.72 35.9615 43.72 33.4282C43.72 32.2815 43.3733 31.3882 42.68 30.7482C42.0133 30.1082 41.04 29.7882 39.76 29.7882C38.5067 29.7882 37.5333 30.1348 36.84 30.8282C36.1733 31.4948 35.7867 32.3482 35.68 33.3882H30.2Z" fill="white"/>
</svg>
