<svg width="80" height="81" viewBox="0 0 80 81" fill="none" xmlns="http://www.w3.org/2000/svg">
<rect y="0.868164" width="80" height="80" rx="4" fill="#D6293E"/>
<path d="M35.6 46.6682C35.8133 47.8415 36.2933 48.7482 37.04 49.3882C37.8133 50.0015 38.84 50.3082 40.12 50.3082C41.7733 50.3082 42.9733 49.6282 43.72 48.2682C44.4667 46.8815 44.84 44.5615 44.84 41.3082C44.2267 42.1615 43.36 42.8282 42.24 43.3082C41.1467 43.7882 39.96 44.0282 38.68 44.0282C36.9733 44.0282 35.4267 43.6815 34.04 42.9882C32.68 42.2682 31.6 41.2148 30.8 39.8282C30 38.4148 29.6 36.7082 29.6 34.7082C29.6 31.7482 30.48 29.4015 32.24 27.6682C34 25.9082 36.4 25.0282 39.44 25.0282C43.2267 25.0282 45.8933 26.2415 47.44 28.6682C49.0133 31.0948 49.8 34.7482 49.8 39.6282C49.8 43.0948 49.4933 45.9348 48.88 48.1482C48.2933 50.3615 47.2667 52.0415 45.8 53.1882C44.36 54.3348 42.3867 54.9082 39.88 54.9082C37.9067 54.9082 36.2267 54.5348 34.84 53.7882C33.4533 53.0148 32.3867 52.0148 31.64 50.7882C30.92 49.5348 30.5067 48.1615 30.4 46.6682H35.6ZM39.84 39.4682C41.2267 39.4682 42.32 39.0415 43.12 38.1882C43.92 37.3348 44.32 36.1882 44.32 34.7482C44.32 33.1748 43.8933 31.9615 43.04 31.1082C42.2133 30.2282 41.08 29.7882 39.64 29.7882C38.2 29.7882 37.0533 30.2415 36.2 31.1482C35.3733 32.0282 34.96 33.2015 34.96 34.6682C34.96 36.0815 35.36 37.2415 36.16 38.1482C36.9867 39.0282 38.2133 39.4682 39.84 39.4682Z" fill="white"/>
</svg>
