<svg width="80" height="81" viewBox="0 0 80 81" fill="none" xmlns="http://www.w3.org/2000/svg">
<rect y="0.868164" width="80" height="80" rx="4" fill="#1FE1D6"/>
<path d="M22.44 30.8682V25.7082H32.08V54.8682H26.32V30.8682H22.44ZM37.6922 33.3882C37.8255 30.7215 38.7589 28.6682 40.4922 27.2282C42.2522 25.7615 44.5589 25.0282 47.4122 25.0282C49.3589 25.0282 51.0255 25.3748 52.4122 26.0682C53.7989 26.7348 54.8389 27.6548 55.5322 28.8282C56.2522 29.9748 56.6122 31.2815 56.6122 32.7482C56.6122 34.4282 56.1722 35.8548 55.2922 37.0282C54.4389 38.1748 53.4122 38.9482 52.2122 39.3482V39.5082C53.7589 39.9882 54.9589 40.8415 55.8122 42.0682C56.6922 43.2948 57.1322 44.8682 57.1322 46.7882C57.1322 48.3882 56.7589 49.8148 56.0122 51.0682C55.2922 52.3215 54.2122 53.3082 52.7722 54.0282C51.3589 54.7215 49.6522 55.0682 47.6522 55.0682C44.6389 55.0682 42.1855 54.3082 40.2922 52.7882C38.3989 51.2682 37.3989 49.0282 37.2922 46.0682H42.7322C42.7855 47.3748 43.2255 48.4282 44.0522 49.2282C44.9055 50.0015 46.0655 50.3882 47.5322 50.3882C48.8922 50.3882 49.9322 50.0148 50.6522 49.2682C51.3989 48.4948 51.7722 47.5082 51.7722 46.3082C51.7722 44.7082 51.2655 43.5615 50.2522 42.8682C49.2389 42.1748 47.6655 41.8282 45.5322 41.8282H44.3722V37.2282H45.5322C49.3189 37.2282 51.2122 35.9615 51.2122 33.4282C51.2122 32.2815 50.8655 31.3882 50.1722 30.7482C49.5055 30.1082 48.5322 29.7882 47.2522 29.7882C45.9989 29.7882 45.0255 30.1348 44.3322 30.8282C43.6655 31.4948 43.2789 32.3482 43.1722 33.3882H37.6922Z" fill="white"/>
</svg>
