<svg width="80" height="81" viewBox="0 0 80 81" fill="none" xmlns="http://www.w3.org/2000/svg">
<rect y="0.868164" width="80" height="80" rx="4" fill="#FBB82A"/>
<path d="M44.24 32.9882C43.9733 31.8682 43.5067 31.0282 42.84 30.4682C42.2 29.9082 41.2667 29.6282 40.04 29.6282C38.2 29.6282 36.84 30.3748 35.96 31.8682C35.1067 33.3348 34.6667 35.7348 34.64 39.0682C35.28 38.0015 36.2133 37.1748 37.44 36.5882C38.6667 35.9748 40 35.6682 41.44 35.6682C43.1733 35.6682 44.7067 36.0415 46.04 36.7882C47.3733 37.5348 48.4133 38.6282 49.16 40.0682C49.9067 41.4815 50.28 43.1882 50.28 45.1882C50.28 47.0815 49.8933 48.7748 49.12 50.2682C48.3733 51.7348 47.2667 52.8815 45.8 53.7082C44.3333 54.5348 42.5867 54.9482 40.56 54.9482C37.7867 54.9482 35.6 54.3348 34 53.1082C32.4267 51.8815 31.32 50.1748 30.68 47.9882C30.0667 45.7748 29.76 43.0548 29.76 39.8282C29.76 34.9482 30.6 31.2682 32.28 28.7882C33.96 26.2815 36.6133 25.0282 40.24 25.0282C43.04 25.0282 45.2133 25.7882 46.76 27.3082C48.3067 28.8282 49.2 30.7215 49.44 32.9882H44.24ZM40.16 40.2682C38.7467 40.2682 37.56 40.6815 36.6 41.5082C35.64 42.3348 35.16 43.5348 35.16 45.1082C35.16 46.6815 35.6 47.9215 36.48 48.8282C37.3867 49.7348 38.6533 50.1882 40.28 50.1882C41.72 50.1882 42.8533 49.7482 43.68 48.8682C44.5333 47.9882 44.96 46.8015 44.96 45.3082C44.96 43.7615 44.5467 42.5348 43.72 41.6282C42.92 40.7215 41.7333 40.2682 40.16 40.2682Z" fill="white"/>
</svg>
