<svg width="80" height="81" viewBox="0 0 80 81" fill="none" xmlns="http://www.w3.org/2000/svg">
<rect y="0.868164" width="80" height="80" rx="4" fill="#58A8B1"/>
<path d="M22.44 30.8682V25.7082H32.08V54.8682H26.32V30.8682H22.44ZM39.3722 48.5482C41.9322 46.4148 43.9722 44.6415 45.4922 43.2282C47.0122 41.7882 48.2789 40.2948 49.2922 38.7482C50.3055 37.2015 50.8122 35.6815 50.8122 34.1882C50.8122 32.8282 50.4922 31.7615 49.8522 30.9882C49.2122 30.2148 48.2255 29.8282 46.8922 29.8282C45.5589 29.8282 44.5322 30.2815 43.8122 31.1882C43.0922 32.0682 42.7189 33.2815 42.6922 34.8282H37.2522C37.3589 31.6282 38.3055 29.2015 40.0922 27.5482C41.9055 25.8948 44.1989 25.0682 46.9722 25.0682C50.0122 25.0682 52.3455 25.8815 53.9722 27.5082C55.5989 29.1082 56.4122 31.2282 56.4122 33.8682C56.4122 35.9482 55.8522 37.9348 54.7322 39.8282C53.6122 41.7215 52.3322 43.3748 50.8922 44.7882C49.4522 46.1748 47.5722 47.8548 45.2522 49.8282H57.0522V54.4682H37.2922V50.3082L39.3722 48.5482Z" fill="white"/>
</svg>
