<svg width="80" height="81" viewBox="0 0 80 81" fill="none" xmlns="http://www.w3.org/2000/svg">
<rect y="0.868164" width="80" height="80" rx="4" fill="#041F41"/>
<path d="M34 39.4282C31.3333 38.0415 30 35.8948 30 32.9882C30 31.5482 30.36 30.2415 31.08 29.0682C31.8267 27.8682 32.9333 26.9215 34.4 26.2282C35.8933 25.5082 37.7067 25.1482 39.84 25.1482C41.9733 25.1482 43.7733 25.5082 45.24 26.2282C46.7333 26.9215 47.84 27.8682 48.56 29.0682C49.3067 30.2415 49.68 31.5482 49.68 32.9882C49.68 34.4548 49.32 35.7482 48.6 36.8682C47.88 37.9615 46.92 38.8148 45.72 39.4282C47.1867 40.0682 48.3333 41.0015 49.16 42.2282C49.9867 43.4548 50.4 44.9082 50.4 46.5882C50.4 48.4015 49.9333 49.9882 49 51.3482C48.0933 52.6815 46.84 53.7082 45.24 54.4282C43.64 55.1482 41.84 55.5082 39.84 55.5082C37.84 55.5082 36.04 55.1482 34.44 54.4282C32.8667 53.7082 31.6133 52.6815 30.68 51.3482C29.7733 49.9882 29.32 48.4015 29.32 46.5882C29.32 44.9082 29.7333 43.4548 30.56 42.2282C31.3867 40.9748 32.5333 40.0415 34 39.4282ZM44.24 33.7882C44.24 32.4815 43.84 31.4682 43.04 30.7482C42.2667 30.0282 41.2 29.6682 39.84 29.6682C38.5067 29.6682 37.44 30.0282 36.64 30.7482C35.8667 31.4682 35.48 32.4948 35.48 33.8282C35.48 35.0282 35.88 35.9882 36.68 36.7082C37.5067 37.4282 38.56 37.7882 39.84 37.7882C41.12 37.7882 42.1733 37.4282 43 36.7082C43.8267 35.9615 44.24 34.9882 44.24 33.7882ZM39.84 41.8682C38.32 41.8682 37.08 42.2548 36.12 43.0282C35.1867 43.8015 34.72 44.9082 34.72 46.3482C34.72 47.6815 35.1733 48.7748 36.08 49.6282C37.0133 50.4548 38.2667 50.8682 39.84 50.8682C41.4133 50.8682 42.6533 50.4415 43.56 49.5882C44.4667 48.7348 44.92 47.6548 44.92 46.3482C44.92 44.9348 44.4533 43.8415 43.52 43.0682C42.5867 42.2682 41.36 41.8682 39.84 41.8682Z" fill="white"/>
</svg>
