<svg width="80" height="80" viewBox="0 0 80 80" fill="none" xmlns="http://www.w3.org/2000/svg">
<rect width="80" height="80" rx="4" fill="#3A86FF"/>
<path d="M18.332 57.3333V52.4583H22.9904V25.9166C22.9904 25.0139 23.3063 24.2465 23.9383 23.6145C24.5702 22.9826 25.3376 22.6666 26.2404 22.6666H59.8237V25.9166H26.2404V52.4583H38.9154V57.3333H18.332ZM44.2779 57.3333C43.6639 57.3333 43.1585 57.0895 42.7612 56.602C42.3639 56.1145 42.1654 55.5639 42.1654 54.95V31.2791C42.1654 30.6652 42.3639 30.1597 42.7612 29.7625C43.1585 29.3652 43.6639 29.1666 44.2779 29.1666H59.0112C59.6973 29.1666 60.3112 29.3562 60.8529 29.7354C61.3945 30.1145 61.6654 30.6291 61.6654 31.2791V54.95C61.6654 55.636 61.4035 56.2048 60.8799 56.6562C60.3564 57.1076 59.7335 57.3333 59.0112 57.3333H44.2779ZM45.4154 52.4583H58.4154V32.4166H45.4154V52.4583Z" fill="white"/>
</svg>
