<svg width="41" height="40" viewBox="0 0 41 40" fill="none" xmlns="http://www.w3.org/2000/svg">
<rect x="1.16699" y="0.5" width="39" height="39" rx="19.5" fill="white"/>
<rect x="1.16699" y="0.5" width="39" height="39" rx="19.5" stroke="#3A86FF"/>
<path d="M13.5 29C13.1 29 12.75 28.85 12.45 28.55C12.15 28.25 12 27.9 12 27.5V12.5C12 12.1 12.15 11.75 12.45 11.45C12.75 11.15 13.1 11 13.5 11H28.5C28.9 11 29.25 11.15 29.55 11.45C29.85 11.75 30 12.1 30 12.5V27.5C30 27.9 29.85 28.25 29.55 28.55C29.25 28.85 28.9 29 28.5 29H13.5ZM13.5 27.5H28.5V12.5H13.5V27.5ZM14.9 25.075H27.125L23.45 20.175L20.15 24.45L17.825 21.275L14.9 25.075Z" fill="black"/>
<path d="M13.5 29C13.1 29 12.75 28.85 12.45 28.55C12.15 28.25 12 27.9 12 27.5V12.5C12 12.1 12.15 11.75 12.45 11.45C12.75 11.15 13.1 11 13.5 11H28.5C28.9 11 29.25 11.15 29.55 11.45C29.85 11.75 30 12.1 30 12.5V27.5C30 27.9 29.85 28.25 29.55 28.55C29.25 28.85 28.9 29 28.5 29H13.5ZM13.5 27.5H28.5V12.5H13.5V27.5ZM14.9 25.075H27.125L23.45 20.175L20.15 24.45L17.825 21.275L14.9 25.075Z" fill="url(#paint0_linear_2867_256)"/>
<defs>
<linearGradient id="paint0_linear_2867_256" x1="3.26322" y1="32.6" x2="31.1137" y2="12.7415" gradientUnits="userSpaceOnUse">
<stop stop-color="#76F5BC"/>
<stop offset="1" stop-color="#221DF3"/>
</linearGradient>
</defs>
</svg>
