<svg width="41" height="40" viewBox="0 0 41 40" fill="none" xmlns="http://www.w3.org/2000/svg">
<rect x="1.16699" y="0.5" width="39" height="39" rx="19.5" fill="white"/>
<rect x="1.16699" y="0.5" width="39" height="39" rx="19.5" stroke="#3A86FF"/>
<path d="M14.75 24.1042C14.4167 24.1042 14.125 23.9792 13.875 23.7292C13.625 23.4792 13.5 23.1875 13.5 22.8542V17.1458C13.5 16.8125 13.625 16.5208 13.875 16.2708C14.125 16.0208 14.4167 15.8958 14.75 15.8958H27.25C27.5833 15.8958 27.875 16.0208 28.125 16.2708C28.375 16.5208 28.5 16.8125 28.5 17.1458V22.8542C28.5 23.1875 28.375 23.4792 28.125 23.7292C27.875 23.9792 27.5833 24.1042 27.25 24.1042H14.75ZM14.75 22.8542H27.25V17.1458H14.75V22.8542ZM13.5 13.75V12.5H28.5V13.75H13.5ZM13.5 27.5V26.25H28.5V27.5H13.5Z" fill="black"/>
<path d="M14.75 24.1042C14.4167 24.1042 14.125 23.9792 13.875 23.7292C13.625 23.4792 13.5 23.1875 13.5 22.8542V17.1458C13.5 16.8125 13.625 16.5208 13.875 16.2708C14.125 16.0208 14.4167 15.8958 14.75 15.8958H27.25C27.5833 15.8958 27.875 16.0208 28.125 16.2708C28.375 16.5208 28.5 16.8125 28.5 17.1458V22.8542C28.5 23.1875 28.375 23.4792 28.125 23.7292C27.875 23.9792 27.5833 24.1042 27.25 24.1042H14.75ZM14.75 22.8542H27.25V17.1458H14.75V22.8542ZM13.5 13.75V12.5H28.5V13.75H13.5ZM13.5 27.5V26.25H28.5V27.5H13.5Z" fill="url(#paint0_linear_2867_137)"/>
<defs>
<linearGradient id="paint0_linear_2867_137" x1="6.21935" y1="30.5" x2="29.4281" y2="13.9513" gradientUnits="userSpaceOnUse">
<stop stop-color="#76F5BC"/>
<stop offset="1" stop-color="#221DF3"/>
</linearGradient>
</defs>
</svg>
