<svg width="41" height="40" viewBox="0 0 41 40" fill="none" xmlns="http://www.w3.org/2000/svg">
<rect x="1.16699" y="0.5" width="39" height="39" rx="19.5" fill="white"/>
<rect x="1.16699" y="0.5" width="39" height="39" rx="19.5" stroke="#3A86FF"/>
<path d="M15.959 25.0413H28.7923V12.208H27.4173V18.5788L25.2861 17.2726L23.1548 18.5788V12.208H15.959V25.0413ZM15.959 26.4163C15.5923 26.4163 15.2715 26.2788 14.9965 26.0038C14.7215 25.7288 14.584 25.408 14.584 25.0413V12.208C14.584 11.8413 14.7215 11.5205 14.9965 11.2455C15.2715 10.9705 15.5923 10.833 15.959 10.833H28.7923C29.159 10.833 29.4798 10.9705 29.7548 11.2455C30.0298 11.5205 30.1673 11.8413 30.1673 12.208V25.0413C30.1673 25.408 30.0298 25.7288 29.7548 26.0038C29.4798 26.2788 29.159 26.4163 28.7923 26.4163H15.959ZM13.209 29.1663C12.8423 29.1663 12.5215 29.0288 12.2465 28.7538C11.9715 28.4788 11.834 28.158 11.834 27.7913V13.583H13.209V27.7913H27.4173V29.1663H13.209Z" fill="black"/>
<path d="M15.959 25.0413H28.7923V12.208H27.4173V18.5788L25.2861 17.2726L23.1548 18.5788V12.208H15.959V25.0413ZM15.959 26.4163C15.5923 26.4163 15.2715 26.2788 14.9965 26.0038C14.7215 25.7288 14.584 25.408 14.584 25.0413V12.208C14.584 11.8413 14.7215 11.5205 14.9965 11.2455C15.2715 10.9705 15.5923 10.833 15.959 10.833H28.7923C29.159 10.833 29.4798 10.9705 29.7548 11.2455C30.0298 11.5205 30.1673 11.8413 30.1673 12.208V25.0413C30.1673 25.408 30.0298 25.7288 29.7548 26.0038C29.4798 26.2788 29.159 26.4163 28.7923 26.4163H15.959ZM13.209 29.1663C12.8423 29.1663 12.5215 29.0288 12.2465 28.7538C11.9715 28.4788 11.834 28.158 11.834 27.7913V13.583H13.209V27.7913H27.4173V29.1663H13.209Z" fill="url(#paint0_linear_2867_218)"/>
<defs>
<linearGradient id="paint0_linear_2867_218" x1="2.93542" y1="32.833" x2="31.3016" y2="12.6067" gradientUnits="userSpaceOnUse">
<stop stop-color="#76F5BC"/>
<stop offset="1" stop-color="#221DF3"/>
</linearGradient>
</defs>
</svg>
