<svg width="41" height="40" viewBox="0 0 41 40" fill="none" xmlns="http://www.w3.org/2000/svg">
<rect x="0.833008" y="0.5" width="39" height="39" rx="19.5" fill="white"/>
<rect x="0.833008" y="0.5" width="39" height="39" rx="19.5" stroke="#3A86FF"/>
<path d="M20 23.75C21.1833 23.75 22.1875 23.3375 23.0125 22.5125C23.8375 21.6875 24.25 20.6834 24.25 19.5C24.25 18.3167 23.8375 17.3125 23.0125 16.4875C22.1875 15.6625 21.1833 15.25 20 15.25C18.8166 15.25 17.8125 15.6625 16.9875 16.4875C16.1625 17.3125 15.75 18.3167 15.75 19.5C15.75 20.6834 16.1625 21.6875 16.9875 22.5125C17.8125 23.3375 18.8166 23.75 20 23.75ZM20 22.3C19.2167 22.3 18.5541 22.0291 18.0125 21.4875C17.4708 20.9458 17.2 20.2833 17.2 19.5C17.2 18.7167 17.4708 18.0542 18.0125 17.5125C18.5541 16.9708 19.2167 16.7 20 16.7C20.7834 16.7 21.4458 16.9708 21.9875 17.5125C22.5292 18.0542 22.8 18.7167 22.8 19.5C22.8 20.2833 22.5292 20.9458 21.9875 21.4875C21.4458 22.0291 20.7834 22.3 20 22.3ZM20 27C17.5667 27 15.3667 26.3083 13.4 24.925C11.4333 23.5417 9.96666 21.7334 9 19.5C9.96666 17.2667 11.4333 15.4583 13.4 14.075C15.3667 12.6917 17.5667 12 20 12C22.4334 12 24.6333 12.6917 26.6 14.075C28.5666 15.4583 30.0333 17.2667 31 19.5C30.0333 21.7334 28.5666 23.5417 26.6 24.925C24.6333 26.3083 22.4334 27 20 27ZM20 25.5C22.0167 25.5 23.8709 24.9542 25.5625 23.8625C27.2541 22.7708 28.5416 21.3167 29.425 19.5C28.5416 17.6834 27.2541 16.2292 25.5625 15.1375C23.8709 14.0458 22.0167 13.5 20 13.5C17.9833 13.5 16.1292 14.0458 14.4375 15.1375C12.7458 16.2292 11.45 17.6834 10.55 19.5C11.45 21.3167 12.7458 22.7708 14.4375 23.8625C16.1292 24.9542 17.9833 25.5 20 25.5Z" fill="black"/>
<path d="M20 23.75C21.1833 23.75 22.1875 23.3375 23.0125 22.5125C23.8375 21.6875 24.25 20.6834 24.25 19.5C24.25 18.3167 23.8375 17.3125 23.0125 16.4875C22.1875 15.6625 21.1833 15.25 20 15.25C18.8166 15.25 17.8125 15.6625 16.9875 16.4875C16.1625 17.3125 15.75 18.3167 15.75 19.5C15.75 20.6834 16.1625 21.6875 16.9875 22.5125C17.8125 23.3375 18.8166 23.75 20 23.75ZM20 22.3C19.2167 22.3 18.5541 22.0291 18.0125 21.4875C17.4708 20.9458 17.2 20.2833 17.2 19.5C17.2 18.7167 17.4708 18.0542 18.0125 17.5125C18.5541 16.9708 19.2167 16.7 20 16.7C20.7834 16.7 21.4458 16.9708 21.9875 17.5125C22.5292 18.0542 22.8 18.7167 22.8 19.5C22.8 20.2833 22.5292 20.9458 21.9875 21.4875C21.4458 22.0291 20.7834 22.3 20 22.3ZM20 27C17.5667 27 15.3667 26.3083 13.4 24.925C11.4333 23.5417 9.96666 21.7334 9 19.5C9.96666 17.2667 11.4333 15.4583 13.4 14.075C15.3667 12.6917 17.5667 12 20 12C22.4334 12 24.6333 12.6917 26.6 14.075C28.5666 15.4583 30.0333 17.2667 31 19.5C30.0333 21.7334 28.5666 23.5417 26.6 24.925C24.6333 26.3083 22.4334 27 20 27ZM20 25.5C22.0167 25.5 23.8709 24.9542 25.5625 23.8625C27.2541 22.7708 28.5416 21.3167 29.425 19.5C28.5416 17.6834 27.2541 16.2292 25.5625 15.1375C23.8709 14.0458 22.0167 13.5 20 13.5C17.9833 13.5 16.1292 14.0458 14.4375 15.1375C12.7458 16.2292 11.45 17.6834 10.55 19.5C11.45 21.3167 12.7458 22.7708 14.4375 23.8625C16.1292 24.9542 17.9833 25.5 20 25.5Z" fill="url(#paint0_linear_2867_224)"/>
<defs>
<linearGradient id="paint0_linear_2867_224" x1="-1.67828" y1="30" x2="22.8459" y2="4.35274" gradientUnits="userSpaceOnUse">
<stop stop-color="#76F5BC"/>
<stop offset="1" stop-color="#221DF3"/>
</linearGradient>
</defs>
</svg>
