<svg width="18" height="18" viewBox="0 0 18 18" fill="none" xmlns="http://www.w3.org/2000/svg">
<path d="M16.5898 10.7109C16.7031 10.1641 16.7734 9.58203 16.7734 9C16.7734 4.56641 13.1836 0.980469 8.75391 0.980469C8.17188 0.980469 7.59375 1.04688 7.04297 1.16406C6.30078 0.589844 5.37891 0.25 4.375 0.25C1.96094 0.25 0 2.21094 0 4.625C0 5.62891 0.339844 6.55078 0.910156 7.28906C0.796875 7.83594 0.726562 8.41797 0.726562 9C0.726562 13.4336 4.31641 17.0195 8.74609 17.0195C9.32812 17.0195 9.90625 16.9531 10.457 16.8359C11.1992 17.4062 12.1211 17.7461 13.1211 17.7461C15.5352 17.7461 17.4961 15.7852 17.4961 13.3711C17.5 12.3711 17.1602 11.4492 16.5898 10.7109ZM8.98828 14.2852C6.42578 14.2852 4.28125 13.1445 4.28125 11.7461C4.28125 11.1211 4.63281 10.5508 5.43359 10.5508C6.65234 10.5508 6.76562 12.3047 8.875 12.3047C9.87891 12.3047 10.5273 11.8594 10.5273 11.2773C10.5273 10.5469 9.90234 10.4336 8.88672 10.1836C6.44531 9.58203 4.28516 9.32422 4.28516 6.77734C4.28516 4.46484 6.57422 3.60938 8.54688 3.60938C10.6992 3.60938 12.875 4.46484 12.875 5.77344C12.875 6.43359 12.4297 7.01562 11.6914 7.01562C10.5859 7.01562 10.5508 5.70703 8.76172 5.70703C7.75781 5.70703 7.12109 5.98047 7.12109 6.58594C7.12109 7.35938 7.93359 7.4375 9.82031 7.875C11.4375 8.23828 13.3633 8.92188 13.3633 10.9062C13.3633 13.2148 11.1328 14.2852 8.98828 14.2852Z" fill="white"/>
</svg>
