<svg width="80" height="80" viewBox="0 0 80 80" fill="none" xmlns="http://www.w3.org/2000/svg">
<rect width="80" height="80" rx="4" fill="#3A86FF"/>
<path d="M54.7878 33.2833L52.4044 28.1916L47.3128 25.8083L52.4044 23.425L54.7878 18.3333L57.1711 23.425L62.2628 25.8083L57.1711 28.1916L54.7878 33.2833ZM59.3378 48.9375L57.7128 45.525L54.3003 43.9L57.7128 42.275L59.3378 38.8625L60.9628 42.275L64.3753 43.9L60.9628 45.525L59.3378 48.9375ZM31.0086 61.6666L30.4669 56.6833C29.9613 56.6111 29.4378 56.4486 28.8961 56.1958C28.3544 55.9431 27.885 55.6361 27.4878 55.275L23.2628 57.0625L18.4961 49.2625L22.6128 46.5541C22.4322 45.9402 22.3419 45.3986 22.3419 44.9291C22.3419 44.4597 22.4322 43.9181 22.6128 43.3041L18.4961 40.5958L23.2628 32.7958L27.4878 34.5833C27.885 34.2222 28.3544 33.9152 28.8961 33.6625C29.4378 33.4097 29.9613 33.2472 30.4669 33.175L31.0086 28.1916H40.1086L40.6503 33.175C41.1559 33.2472 41.6794 33.4097 42.2211 33.6625C42.7628 33.9152 43.2322 34.2222 43.6294 34.5833L47.8544 32.7958L52.6211 40.5958L48.5044 43.3041C48.685 43.9181 48.7753 44.4597 48.7753 44.9291C48.7753 45.3986 48.685 45.9402 48.5044 46.5541L52.6211 49.2625L47.8544 57.0625L43.6294 55.275C43.2322 55.6361 42.7628 55.9431 42.2211 56.1958C41.6794 56.4486 41.1559 56.6111 40.6503 56.6833L40.1086 61.6666H31.0086ZM35.5586 51.1583C37.3642 51.1583 38.8538 50.5715 40.0273 49.3979C41.2009 48.2243 41.7878 46.7347 41.7878 44.9291C41.7878 43.1236 41.2009 41.634 40.0273 40.4604C38.8538 39.2868 37.3642 38.7 35.5586 38.7C33.753 38.7 32.2634 39.2868 31.0898 40.4604C29.9163 41.634 29.3294 43.1236 29.3294 44.9291C29.3294 46.7347 29.9163 48.2243 31.0898 49.3979C32.2634 50.5715 33.753 51.1583 35.5586 51.1583ZM35.5586 47.9083C34.6919 47.9083 33.9788 47.6285 33.419 47.0687C32.8593 46.509 32.5794 45.7958 32.5794 44.9291C32.5794 44.0625 32.8593 43.3493 33.419 42.7896C33.9788 42.2298 34.6919 41.95 35.5586 41.95C36.4253 41.95 37.1384 42.2298 37.6982 42.7896C38.2579 43.3493 38.5378 44.0625 38.5378 44.9291C38.5378 45.7958 38.2579 46.509 37.6982 47.0687C37.1384 47.6285 36.4253 47.9083 35.5586 47.9083ZM33.7169 58.4166H37.4003L37.8336 54.3C38.8809 54.0472 39.8378 53.6861 40.7044 53.2166C41.5711 52.7472 42.3655 52.1333 43.0878 51.375L46.6086 52.9458L48.3961 50.1291L45.0378 47.7458C45.435 46.8431 45.6336 45.9041 45.6336 44.9291C45.6336 43.9541 45.435 43.0152 45.0378 42.1125L48.3961 39.7291L46.6086 36.9125L43.0878 38.4833C42.3655 37.725 41.5711 37.1111 40.7044 36.6416C39.8378 36.1722 38.8809 35.8111 37.8336 35.5583L37.4003 31.4416H33.7169L33.2836 35.5583C32.2363 35.8111 31.2794 36.1722 30.4128 36.6416C29.5461 37.1111 28.7517 37.725 28.0294 38.4833L24.5086 36.9125L22.7211 39.7291L26.0794 42.1125C25.6822 43.0152 25.4836 43.9541 25.4836 44.9291C25.4836 45.9041 25.6822 46.8431 26.0794 47.7458L22.7211 50.1291L24.5086 52.9458L28.0294 51.375C28.7517 52.1333 29.5461 52.7472 30.4128 53.2166C31.2794 53.6861 32.2363 54.0472 33.2836 54.3L33.7169 58.4166Z" fill="white"/>
</svg>
