<svg width="80" height="80" viewBox="0 0 80 80" fill="none" xmlns="http://www.w3.org/2000/svg">
<rect width="80" height="80" rx="4" fill="#3A86FF"/>
<path d="M25.917 56.9L31.6587 54.5708C31.1892 53.1986 30.783 51.8083 30.4399 50.4C30.0968 48.9917 29.7989 47.5652 29.5462 46.1208L25.917 48.5583V56.9ZM34.9087 54.0833H45.092C45.8864 51.9527 46.5003 49.8313 46.9337 47.7188C47.367 45.6063 47.5837 43.7556 47.5837 42.1667C47.5837 38.0139 46.9878 34.3667 45.7962 31.225C44.6045 28.0833 42.6726 25.1042 40.0003 22.2875C37.3281 25.1042 35.3962 28.0833 34.2045 31.225C33.0128 34.3667 32.417 38.0139 32.417 42.1667C32.417 43.7556 32.6337 45.6063 33.067 47.7188C33.5003 49.8313 34.1143 51.9527 34.9087 54.0833ZM40.0003 41.625C38.9531 41.625 38.0593 41.2548 37.3191 40.5146C36.5788 39.7743 36.2087 38.8806 36.2087 37.8333C36.2087 36.7861 36.5788 35.8923 37.3191 35.1521C38.0593 34.4118 38.9531 34.0417 40.0003 34.0417C41.0476 34.0417 41.9413 34.4118 42.6816 35.1521C43.4218 35.8923 43.792 36.7861 43.792 37.8333C43.792 38.8806 43.4218 39.7743 42.6816 40.5146C41.9413 41.2548 41.0476 41.625 40.0003 41.625ZM54.0837 56.9V48.5583L50.4545 46.1208C50.2018 47.5652 49.9038 48.9917 49.5607 50.4C49.2177 51.8083 48.8114 53.1986 48.342 54.5708L54.0837 56.9ZM40.0003 17.8458C43.6837 21.0958 46.4101 24.6979 48.1795 28.6521C49.9489 32.6063 50.8337 37.1111 50.8337 42.1667V42.4375L55.8712 45.85C56.3406 46.1389 56.7018 46.5181 56.9545 46.9875C57.2072 47.4569 57.3337 47.9625 57.3337 48.5042V61.6667L46.5003 57.3333H33.5003L22.667 61.6667V48.5042C22.667 47.9625 22.7934 47.4569 23.0462 46.9875C23.2989 46.5181 23.6601 46.1389 24.1295 45.85L29.167 42.4375V42.1667C29.167 37.1111 30.0518 32.6063 31.8212 28.6521C33.5906 24.6979 36.317 21.0958 40.0003 17.8458Z" fill="white"/>
</svg>
