<svg width="41" height="40" viewBox="0 0 41 40" fill="none" xmlns="http://www.w3.org/2000/svg">
<rect x="1.16699" y="0.5" width="39" height="39" rx="19.5" fill="white"/>
<rect x="1.16699" y="0.5" width="39" height="39" rx="19.5" stroke="#3A86FF"/>
<path d="M14.75 27.5C14.4167 27.5 14.125 27.375 13.875 27.125C13.625 26.875 13.5 26.5833 13.5 26.25V13.75C13.5 13.4167 13.625 13.125 13.875 12.875C14.125 12.625 14.4167 12.5 14.75 12.5H20.5625V13.75H14.75V26.25H27.25V20.4375H28.5V26.25C28.5 26.5833 28.375 26.875 28.125 27.125C27.875 27.375 27.5833 27.5 27.25 27.5H14.75ZM18.9583 22.9375L18.0833 22.0417L26.375 13.75H21.8125V12.5H28.5V19.1875H27.25V14.6458L18.9583 22.9375Z" fill="black"/>
<path d="M14.75 27.5C14.4167 27.5 14.125 27.375 13.875 27.125C13.625 26.875 13.5 26.5833 13.5 26.25V13.75C13.5 13.4167 13.625 13.125 13.875 12.875C14.125 12.625 14.4167 12.5 14.75 12.5H20.5625V13.75H14.75V26.25H27.25V20.4375H28.5V26.25C28.5 26.5833 28.375 26.875 28.125 27.125C27.875 27.375 27.5833 27.5 27.25 27.5H14.75ZM18.9583 22.9375L18.0833 22.0417L26.375 13.75H21.8125V12.5H28.5V19.1875H27.25V14.6458L18.9583 22.9375Z" fill="url(#paint0_linear_2867_118)"/>
<defs>
<linearGradient id="paint0_linear_2867_118" x1="6.21935" y1="30.5" x2="29.4281" y2="13.9513" gradientUnits="userSpaceOnUse">
<stop stop-color="#76F5BC"/>
<stop offset="1" stop-color="#221DF3"/>
</linearGradient>
</defs>
</svg>
