<svg width="41" height="40" viewBox="0 0 41 40" fill="none" xmlns="http://www.w3.org/2000/svg">
<rect x="0.833008" y="0.5" width="39" height="39" rx="19.5" fill="white"/>
<rect x="0.833008" y="0.5" width="39" height="39" rx="19.5" stroke="#3A86FF"/>
<path d="M10 15.125H13.5V24.875H10V15.125ZM15 13H25V27H15V13ZM26.5 15.125H30V24.875H26.5V15.125ZM16.5 14.5V25.5H23.5V14.5H16.5Z" fill="black"/>
<path d="M10 15.125H13.5V24.875H10V15.125ZM15 13H25V27H15V13ZM26.5 15.125H30V24.875H26.5V15.125ZM16.5 14.5V25.5H23.5V14.5H16.5Z" fill="url(#paint0_linear_2867_143)"/>
<defs>
<linearGradient id="paint0_linear_2867_143" x1="0.292476" y1="29.8" x2="23.2008" y2="6.46489" gradientUnits="userSpaceOnUse">
<stop stop-color="#76F5BC"/>
<stop offset="1" stop-color="#221DF3"/>
</linearGradient>
</defs>
</svg>
