<svg width="80" height="80" viewBox="0 0 80 80" fill="none" xmlns="http://www.w3.org/2000/svg">
<rect width="80" height="80" rx="4" fill="#3A86FF"/>
<path d="M44.3333 59.5C43.9 59.5 43.5208 59.3375 43.1958 59.0125C42.8708 58.6875 42.7083 58.3083 42.7083 57.875C42.7083 57.4056 42.8708 57.0173 43.1958 56.7104C43.5208 56.4035 43.9 56.25 44.3333 56.25C46.4639 56.25 48.2604 55.8167 49.7229 54.95C51.1854 54.0833 51.9167 53.0723 51.9167 51.9167C51.9167 51.0861 51.384 50.2736 50.3188 49.4792C49.2535 48.6848 47.8181 48.0708 46.0125 47.6375L48.5583 45.0917C50.8333 45.7777 52.5035 46.7257 53.5688 47.9354C54.634 49.1452 55.1667 50.4723 55.1667 51.9167C55.1667 54.3361 54.0652 56.2048 51.8625 57.5229C49.6598 58.841 47.15 59.5 44.3333 59.5ZM27 43.575C24.6889 43.0694 23.0278 42.275 22.0167 41.1917C21.0056 40.1083 20.5 38.9889 20.5 37.8333C20.5 36.5694 20.9694 35.4319 21.9083 34.4208C22.8472 33.4098 25.0139 32.2902 28.4083 31.0625C30.7917 30.1958 32.3264 29.4917 33.0125 28.95C33.6986 28.4083 34.0417 27.7764 34.0417 27.0542C34.0417 26.1514 33.6444 25.375 32.85 24.725C32.0556 24.075 30.8277 23.75 29.1667 23.75C28.1917 23.75 27.3611 23.8764 26.675 24.1292C25.9889 24.3819 25.375 24.7792 24.8333 25.3208C24.5444 25.6098 24.1743 25.7813 23.7229 25.8354C23.2715 25.8896 22.8653 25.7723 22.5042 25.4833C22.1069 25.1944 21.8993 24.8333 21.8813 24.4C21.8632 23.9667 21.9986 23.5875 22.2875 23.2625C22.9014 22.4681 23.8222 21.809 25.05 21.2854C26.2777 20.7618 27.65 20.5 29.1667 20.5C31.6223 20.5 33.5902 21.0868 35.0708 22.2604C36.5514 23.434 37.2917 25.0319 37.2917 27.0542C37.2917 28.5348 36.7771 29.7896 35.7479 30.8188C34.7188 31.8479 32.7056 32.9223 29.7083 34.0417C27.2889 34.9444 25.691 35.6577 24.9146 36.1813C24.1382 36.7048 23.75 37.2556 23.75 37.8333C23.75 38.4111 24.2375 38.9618 25.2125 39.4854C26.1875 40.009 27.65 40.5056 29.6 40.975L27 43.575ZM53.8667 35.2333L46.9333 28.3L49.3708 25.8625C50.0208 25.2125 50.7431 24.8875 51.5375 24.8875C52.3319 24.8875 53.0542 25.2125 53.7042 25.8625L56.3042 28.4625C56.9542 29.1125 57.2792 29.8348 57.2792 30.6292C57.2792 31.4236 56.9542 32.1458 56.3042 32.7958L53.8667 35.2333ZM25.9167 56.25H28.1917L46.8792 37.5625L44.6042 35.2875L25.9167 53.975V56.25ZM22.6667 59.5V52.5667L44.6042 30.6292L51.5375 37.5625L29.6 59.5H22.6667Z" fill="white"/>
</svg>
