<svg width="40" height="40" viewBox="0 0 40 40" fill="none" xmlns="http://www.w3.org/2000/svg">
<rect x="0.5" y="0.5" width="39" height="39" rx="19.5" fill="white"/>
<rect x="0.5" y="0.5" width="39" height="39" rx="19.5" stroke="#3A86FF"/>
<path d="M13.125 29.1439C12.7583 29.1439 12.4375 29.0064 12.1625 28.7314C11.8875 28.4564 11.75 28.1355 11.75 27.7689V13.9501H13.125V27.7689H23.9875V29.1439H13.125ZM15.875 26.3939C15.5083 26.3939 15.1875 26.2564 14.9125 25.9814C14.6375 25.7064 14.5 25.3855 14.5 25.0189V12.1855C14.5 11.8189 14.6375 11.498 14.9125 11.223C15.1875 10.948 15.5083 10.8105 15.875 10.8105H25.9583C26.325 10.8105 26.6458 10.948 26.9208 11.223C27.1958 11.498 27.3333 11.8189 27.3333 12.1855V25.0189C27.3333 25.3855 27.1958 25.7064 26.9208 25.9814C26.6458 26.2564 26.325 26.3939 25.9583 26.3939H15.875ZM15.875 25.0189H25.9583V12.1855H15.875V25.0189Z" fill="black"/>
<path d="M13.125 29.1439C12.7583 29.1439 12.4375 29.0064 12.1625 28.7314C11.8875 28.4564 11.75 28.1355 11.75 27.7689V13.9501H13.125V27.7689H23.9875V29.1439H13.125ZM15.875 26.3939C15.5083 26.3939 15.1875 26.2564 14.9125 25.9814C14.6375 25.7064 14.5 25.3855 14.5 25.0189V12.1855C14.5 11.8189 14.6375 11.498 14.9125 11.223C15.1875 10.948 15.5083 10.8105 15.875 10.8105H25.9583C26.325 10.8105 26.6458 10.948 26.9208 11.223C27.1958 11.498 27.3333 11.8189 27.3333 12.1855V25.0189C27.3333 25.3855 27.1958 25.7064 26.9208 25.9814C26.6458 26.2564 26.325 26.3939 25.9583 26.3939H15.875ZM15.875 25.0189H25.9583V12.1855H15.875V25.0189Z" fill="url(#paint0_linear_2867_212)"/>
<defs>
<linearGradient id="paint0_linear_2867_212" x1="4.18623" y1="32.8106" x2="30.7854" y2="16.6893" gradientUnits="userSpaceOnUse">
<stop stop-color="#76F5BC"/>
<stop offset="1" stop-color="#221DF3"/>
</linearGradient>
</defs>
</svg>
