<svg width="234" height="51" viewBox="0 0 234 51" fill="none" xmlns="http://www.w3.org/2000/svg">
<g clip-path="url(#clip0_952_2573)">
<path d="M233.756 0.501099H-0.0144043V50.4521H233.756V0.501099Z" fill="white"/>
<path d="M233.756 0.501099H-0.0144043V11.4903H233.756V0.501099Z" fill="#9181FF"/>
<path d="M134.687 41.2402C134.687 42.4656 133.693 43.4589 132.468 43.4589H121.92C120.695 43.4589 119.701 42.4658 119.701 41.2402V40.6823C119.701 39.457 120.695 38.4637 121.92 38.4637H132.468C133.693 38.4637 134.687 39.4567 134.687 40.6823V41.2402Z" fill="#6D5ED4"/>
<path d="M116.371 41.2402C116.371 42.4656 115.378 43.4589 114.152 43.4589H103.605C102.38 43.4589 101.386 42.4658 101.386 41.2402V40.6823C101.386 39.457 102.379 38.4637 103.605 38.4637H114.152C115.377 38.4637 116.371 39.4567 116.371 40.6823V41.2402Z" fill="#6D5ED4"/>
<path d="M153.002 41.2402C153.002 42.4656 152.009 43.4589 150.783 43.4589H140.236C139.01 43.4589 138.017 42.4658 138.017 41.2402V40.6823C138.017 39.457 139.01 38.4637 140.236 38.4637H150.783C152.008 38.4637 153.002 39.4567 153.002 40.6823V41.2402Z" fill="#6D5ED4"/>
<path d="M171.317 41.2402C171.317 42.4656 170.323 43.4589 169.098 43.4589H158.551C157.326 43.4589 156.332 42.4658 156.332 41.2402V40.6823C156.332 39.457 157.325 38.4637 158.551 38.4637H169.098C170.323 38.4637 171.317 39.4567 171.317 40.6823V41.2402Z" fill="#6D5ED4"/>
<path d="M36.9685 0.501099H-0.0761719V50.4521H36.9685V0.501099Z" fill="#6D5ED4"/>
<path d="M11.3326 23.7675C12.1279 22.52 13.4488 21.8963 15.295 21.8963C17.1406 21.8963 18.4618 22.5203 19.2574 23.7675C20.0527 25.0153 20.4508 26.7403 20.4508 28.9426C20.4508 31.1578 20.0527 32.8955 19.2574 34.1559C18.4615 35.4161 17.1406 36.0464 15.295 36.0464C13.4488 36.0464 12.1279 35.4163 11.3326 34.1559C10.5367 32.8957 10.1392 31.1578 10.1392 28.9426C10.1392 26.7403 10.5367 25.0153 11.3326 23.7675ZM17.6342 26.5653C17.5131 25.9225 17.2713 25.3972 16.9086 24.9899C16.5456 24.5826 16.0077 24.3788 15.295 24.3788C14.5817 24.3788 14.0443 24.5826 13.6813 24.9899C13.3186 25.3975 13.0766 25.9228 12.9557 26.5653C12.8345 27.2083 12.7743 28.0007 12.7743 28.9426C12.7743 29.9103 12.8316 30.7217 12.9462 31.3774C13.0607 32.0331 13.3025 32.5613 13.6718 32.9623C14.0409 33.3632 14.5817 33.5638 15.295 33.5638C16.0077 33.5638 16.5488 33.3632 16.9181 32.9623C17.2871 32.5613 17.5292 32.0331 17.6437 31.3774C17.7583 30.722 17.8156 29.9103 17.8156 28.9426C17.8156 28.0007 17.7551 27.2081 17.6342 26.5653Z" fill="white"/>
<path d="M22.1504 24.627V22.1637H26.7526V36.0847H24.0026V24.627H22.1504Z" fill="white"/>
<path d="M10.8135 10.1958V14.9172H9.86658V12.9082H7.84419V14.9172H6.89722V10.1958H7.84419V12.137H9.86658V10.1958H10.8135V10.1958Z" fill="white"/>
<path d="M15.2035 13.3275H12.464C12.4865 13.598 12.5813 13.8101 12.7482 13.9632C12.915 14.1165 13.1202 14.1933 13.3637 14.1933C13.7154 14.1933 13.9658 14.0421 14.1145 13.7401H15.1358C15.0276 14.1009 14.8201 14.3975 14.5135 14.6296C14.2068 14.8619 13.8303 14.9779 13.3839 14.9779C13.0232 14.9779 12.6995 14.8977 12.4133 14.7378C12.1269 14.5776 11.9037 14.3512 11.7435 14.058C11.5834 13.765 11.5034 13.4267 11.5034 13.0432C11.5034 12.6554 11.5821 12.3152 11.7401 12.0219C11.8978 11.7289 12.1189 11.5035 12.4029 11.3455C12.6871 11.1878 13.0139 11.1088 13.3837 11.1088C13.7398 11.1088 14.0591 11.1856 14.3409 11.3387C14.6227 11.492 14.8416 11.7097 14.9971 11.9915C15.1526 12.2732 15.2306 12.5967 15.2306 12.9621C15.2306 13.0976 15.2216 13.2192 15.2035 13.3275ZM14.25 12.6918C14.2454 12.4482 14.1576 12.2532 13.986 12.1068C13.8144 11.9603 13.605 11.8869 13.3569 11.8869C13.1224 11.8869 12.925 11.9578 12.7651 12.0999C12.6049 12.242 12.5067 12.4392 12.4709 12.6918H14.25Z" fill="white"/>
<path d="M15.9034 12.0219C16.0546 11.7289 16.2596 11.5035 16.5189 11.3455C16.7783 11.1878 17.0678 11.1088 17.3881 11.1088C17.6677 11.1088 17.9124 11.1651 18.1221 11.278C18.3317 11.3909 18.4996 11.5327 18.6259 11.7041V11.1698H19.5797V14.9172H18.6259V14.3692C18.504 14.5452 18.3361 14.6905 18.1221 14.8056C17.9078 14.9206 17.6609 14.9781 17.3813 14.9781C17.0656 14.9781 16.778 14.897 16.5187 14.7344C16.2593 14.5718 16.0541 14.3434 15.9032 14.048C15.7521 13.7528 15.6768 13.4133 15.6768 13.0298C15.677 12.651 15.7526 12.3152 15.9034 12.0219ZM18.4909 12.4514C18.4007 12.2869 18.2788 12.1606 18.1255 12.0726C17.9722 11.9846 17.8076 11.9405 17.6316 11.9405C17.4559 11.9405 17.2936 11.9834 17.1446 12.069C16.9959 12.1548 16.8753 12.2798 16.7829 12.4443C16.6905 12.6091 16.6442 12.8041 16.6442 13.0293C16.6442 13.2551 16.6903 13.4523 16.7829 13.6212C16.8753 13.7903 16.9969 13.92 17.1483 14.0102C17.2994 14.1006 17.4605 14.1455 17.6319 14.1455C17.8079 14.1455 17.9724 14.1016 18.1257 14.0136C18.279 13.9256 18.4007 13.7996 18.4911 13.6348C18.5813 13.4703 18.6264 13.2729 18.6264 13.043C18.6264 12.8131 18.581 12.6162 18.4909 12.4514Z" fill="white"/>
<path d="M20.4896 12.0219C20.6408 11.7289 20.847 11.5035 21.1088 11.3455C21.3703 11.1878 21.6611 11.1088 21.9814 11.1088C22.2249 11.1088 22.4572 11.162 22.678 11.2678C22.8989 11.3738 23.0748 11.5147 23.2057 11.6904V9.91154H24.1661V14.9172H23.2057V14.3627C23.0885 14.5477 22.924 14.6964 22.7119 14.8092C22.4998 14.9218 22.2541 14.9784 21.9746 14.9784C21.6589 14.9784 21.3703 14.8972 21.1088 14.7346C20.8472 14.5723 20.6408 14.3437 20.4896 14.0482C20.3385 13.753 20.2632 13.4135 20.2632 13.0301C20.2629 12.6511 20.3385 12.3152 20.4896 12.0219ZM23.0768 12.4514C22.9866 12.2869 22.8647 12.1606 22.7114 12.0726C22.5581 11.9846 22.3936 11.9405 22.2176 11.9405C22.0418 11.9405 21.8795 11.9834 21.7306 12.069C21.5819 12.1548 21.4612 12.2798 21.3688 12.4444C21.2765 12.6091 21.2301 12.8041 21.2301 13.0294C21.2301 13.2551 21.2762 13.4523 21.3688 13.6212C21.4612 13.7903 21.5828 13.92 21.7342 14.0102C21.8853 14.1006 22.0465 14.1455 22.2178 14.1455C22.3938 14.1455 22.5583 14.1016 22.7117 14.0136C22.865 13.9256 22.9866 13.7996 23.077 13.6348C23.1672 13.4703 23.2123 13.2729 23.2123 13.043C23.2123 12.8131 23.1672 12.6162 23.0768 12.4514Z" fill="white"/>
<path d="M28.5492 13.3275H25.8097C25.8322 13.598 25.927 13.8101 26.094 13.9632C26.2607 14.1165 26.4659 14.1933 26.7094 14.1933C27.0612 14.1933 27.3115 14.0421 27.4602 13.7401H28.4815C28.3733 14.1009 28.1658 14.3975 27.8592 14.6296C27.5526 14.8619 27.176 14.9779 26.7297 14.9779C26.3689 14.9779 26.0452 14.8977 25.759 14.7378C25.4726 14.5776 25.2494 14.3512 25.0892 14.058C24.9291 13.765 24.8491 13.4267 24.8491 13.0432C24.8491 12.6554 24.9279 12.3152 25.0858 12.0219C25.2435 11.7289 25.4646 11.5035 25.7486 11.3455C26.0328 11.1878 26.3596 11.1088 26.7294 11.1088C27.0855 11.1088 27.4048 11.1856 27.6866 11.3387C27.9684 11.492 28.1873 11.7097 28.3428 11.9915C28.4983 12.2732 28.5763 12.5967 28.5763 12.9621C28.5763 13.0976 28.567 13.2192 28.5492 13.3275ZM27.5955 12.6918C27.5908 12.4482 27.5031 12.2532 27.3315 12.1068C27.1599 11.9603 26.9505 11.8869 26.7024 11.8869C26.4679 11.8869 26.2704 11.9578 26.1105 12.0999C25.9504 12.242 25.8522 12.4392 25.8163 12.6918H27.5955Z" fill="white"/>
<path d="M30.6901 11.2846C30.8863 11.172 31.1106 11.1157 31.3631 11.1157V12.1099H31.1128C30.8151 12.1099 30.5906 12.1799 30.4398 12.3196C30.2886 12.4595 30.2131 12.703 30.2131 13.0501V14.917H29.2661V11.1698H30.2131V11.7516C30.335 11.553 30.4939 11.3975 30.6901 11.2846Z" fill="white"/>
<path d="M49.5852 26.3259V27.4009H45.4849V20.3999H46.7875V26.3257H49.5852V26.3259Z" fill="#6D5ED4"/>
<path d="M56.9447 23.9004C56.9447 24.4147 56.8594 24.8888 56.6902 25.3268C56.5208 25.7629 56.281 26.1414 55.9716 26.4614C55.6613 26.7815 55.2887 27.0301 54.8531 27.2098C54.417 27.3882 53.9332 27.4781 53.4003 27.4781C52.8711 27.4781 52.3885 27.3884 51.9529 27.2098C51.5169 27.0301 51.1432 26.7815 50.8319 26.4614C50.5202 26.1414 50.2793 25.7629 50.108 25.3268C49.9369 24.8888 49.8513 24.4147 49.8513 23.9004C49.8513 23.3863 49.9366 22.9122 50.108 22.4742C50.2791 22.0381 50.5202 21.6596 50.8319 21.3395C51.1432 21.0195 51.5169 20.7709 51.9529 20.5912C52.3885 20.4128 52.8709 20.3231 53.4003 20.3231C53.7555 20.3231 54.0896 20.364 54.4021 20.4459C54.7153 20.5278 55.0027 20.6448 55.2645 20.7943C55.5256 20.9456 55.7606 21.127 55.9685 21.3427C56.1769 21.5572 56.3533 21.7963 56.4986 22.0618C56.6441 22.3262 56.7543 22.6131 56.8304 22.9232C56.9062 23.2322 56.9447 23.5589 56.9447 23.9004ZM55.6131 23.9004C55.6131 23.516 55.5614 23.1725 55.4581 22.8664C55.3549 22.5629 55.2077 22.3023 55.0176 22.0898C54.827 21.877 54.5957 21.7142 54.3229 21.6011C54.0497 21.488 53.7425 21.4312 53.4006 21.4312C53.0581 21.4312 52.7507 21.4877 52.478 21.6011C52.2055 21.7142 51.9732 21.877 51.7808 22.0898C51.5885 22.3026 51.4413 22.5629 51.3379 22.8664C51.2346 23.1728 51.1829 23.5162 51.1829 23.9004C51.1829 24.2848 51.2346 24.6282 51.3379 24.9346C51.4413 25.239 51.5888 25.4964 51.7808 25.7083C51.9732 25.9211 52.2052 26.0829 52.478 26.195C52.7507 26.3081 53.0581 26.3657 53.4006 26.3657C53.7425 26.3657 54.0499 26.3081 54.3229 26.195C54.5957 26.0829 54.8267 25.9208 55.0176 25.7083C55.208 25.4967 55.3552 25.239 55.4581 24.9346C55.5614 24.6282 55.6131 24.2848 55.6131 23.9004Z" fill="#6D5ED4"/>
<path d="M63.8634 23.8906V26.7227C63.5082 26.9843 63.1297 27.1754 62.7277 27.2963C62.3258 27.4182 61.8961 27.4779 61.4376 27.4779C60.8662 27.4779 60.3487 27.3901 59.8859 27.2115C59.4225 27.0347 59.0274 26.7881 58.7 26.471C58.3722 26.1558 58.1194 25.7772 57.942 25.3373C57.7648 24.8993 57.676 24.4203 57.676 23.9001C57.676 23.3734 57.7613 22.8915 57.9327 22.4532C58.1033 22.0133 58.3463 21.6357 58.661 21.3205C58.9757 21.0034 59.3577 20.7575 59.8059 20.5839C60.2547 20.4094 60.7585 20.3224 61.3167 20.3224C61.6006 20.3224 61.8663 20.3448 62.1133 20.3896C62.3599 20.4355 62.5893 20.4969 62.8006 20.5759C63.0122 20.6548 63.205 20.7504 63.379 20.8645C63.5531 20.9776 63.7132 21.1007 63.8585 21.2362L63.4858 21.8275C63.4278 21.9221 63.3517 21.9789 63.2581 21.9994C63.1645 22.0208 63.0631 21.9974 62.9532 21.9301C62.8464 21.8687 62.7399 21.8073 62.6337 21.7459C62.5267 21.6844 62.4082 21.6306 62.2775 21.5869C62.1474 21.5411 61.9999 21.5031 61.8371 21.4748C61.6743 21.4465 61.4858 21.4309 61.2733 21.4309C60.9279 21.4309 60.6152 21.4885 60.3363 21.6055C60.0572 21.7225 59.8193 21.8875 59.6221 22.103C59.4254 22.3206 59.2738 22.579 59.167 22.8834C59.0608 23.1859 59.0074 23.5265 59.0074 23.9001C59.0074 24.3001 59.0644 24.6582 59.1792 24.9734C59.2938 25.2875 59.4552 25.554 59.6636 25.7714C59.8715 25.9898 60.1225 26.1558 60.4163 26.2708C60.71 26.3859 61.0378 26.4424 61.3993 26.4424C61.6574 26.4424 61.888 26.4142 62.0916 26.3605C62.2948 26.305 62.4935 26.2309 62.6873 26.136V24.8678H61.8059C61.722 24.8678 61.6567 24.8454 61.6104 24.7986C61.5636 24.7508 61.5397 24.6943 61.5397 24.627V23.8904H63.8634V23.8906Z" fill="#6D5ED4"/>
<path d="M71.7989 23.9004C71.7989 24.4147 71.7136 24.8888 71.5442 25.3268C71.3746 25.7629 71.135 26.1414 70.8252 26.4614C70.5153 26.7815 70.1427 27.0301 69.7066 27.2098C69.271 27.3882 68.7867 27.4781 68.2543 27.4781C67.7251 27.4781 67.2425 27.3884 66.8069 27.2098C66.3709 27.0301 65.9972 26.7815 65.6859 26.4614C65.3742 26.1414 65.1329 25.7629 64.962 25.3268C64.7909 24.8888 64.7056 24.4147 64.7056 23.9004C64.7056 23.3863 64.7909 22.9122 64.962 22.4742C65.1326 22.0381 65.3742 21.6596 65.6859 21.3395C65.9972 21.0195 66.3709 20.7709 66.8069 20.5912C67.2425 20.4128 67.7251 20.3231 68.2543 20.3231C68.6095 20.3231 68.9436 20.364 69.2564 20.4459C69.5693 20.5278 69.8567 20.6448 70.1183 20.7943C70.3798 20.9456 70.6143 21.127 70.8225 21.3427C71.0309 21.5572 71.2074 21.7963 71.3529 22.0618C71.4981 22.3262 71.6086 22.6131 71.6846 22.9232C71.7604 23.2322 71.7989 23.5589 71.7989 23.9004ZM70.4668 23.9004C70.4668 23.516 70.4157 23.1725 70.3123 22.8664C70.209 22.5629 70.062 22.3023 69.8718 22.0898C69.6812 21.877 69.4499 21.7142 69.1772 21.6011C68.9039 21.488 68.5965 21.4312 68.2546 21.4312C67.9121 21.4312 67.6047 21.4877 67.3322 21.6011C67.0595 21.7142 66.8274 21.877 66.6351 22.0898C66.443 22.3026 66.2951 22.5629 66.1922 22.8664C66.0888 23.1728 66.0369 23.5162 66.0369 23.9004C66.0369 24.2848 66.0886 24.6282 66.1922 24.9346C66.2951 25.239 66.443 25.4964 66.6351 25.7083C66.8274 25.9211 67.0595 26.0829 67.3322 26.195C67.6047 26.3081 67.9123 26.3657 68.2546 26.3657C68.5965 26.3657 68.9039 26.3081 69.1772 26.195C69.4497 26.0829 69.681 25.9208 69.8718 25.7083C70.062 25.4967 70.209 25.239 70.3123 24.9346C70.4154 24.6282 70.4668 24.2848 70.4668 23.9004Z" fill="#6D5ED4"/>
<path d="M167.004 20.4813H105.065V27.4745H167.004V20.4813Z" fill="#9181FF"/>
<path d="M167.004 20.4813H160.011V27.4745H167.004V20.4813Z" fill="#6D5ED4"/>
<path d="M36.9492 33.4685H233.756" stroke="#9FC1A0" stroke-width="0.2" stroke-miterlimit="10"/>
<path d="M205.404 27.4745H198.172C197.962 27.4745 197.792 27.3043 197.792 27.0945V19.8624C197.792 19.6525 197.962 19.4824 198.172 19.4824H205.404C205.614 19.4824 205.784 19.6525 205.784 19.8624V27.0947C205.784 27.3043 205.614 27.4745 205.404 27.4745Z" fill="#6D5ED4"/>
<path d="M216.357 27.4745H209.197C208.967 27.4745 208.781 27.2882 208.781 27.0586V19.8982C208.781 19.6686 208.967 19.4824 209.197 19.4824H216.357C216.587 19.4824 216.773 19.6686 216.773 19.8982V27.0589C216.773 27.2882 216.587 27.4745 216.357 27.4745Z" fill="#6D5ED4"/>
<path d="M228.367 27.4745H221.163C220.946 27.4745 220.769 27.298 220.769 27.0801V19.8765C220.769 19.6589 220.946 19.4821 221.163 19.4821H228.367C228.585 19.4821 228.761 19.6586 228.761 19.8765V27.0801C228.761 27.298 228.585 27.4745 228.367 27.4745Z" fill="#6D5ED4"/>
</g>
<defs>
<clipPath id="clip0_952_2573">
<rect width="234" height="50.2125" fill="white" transform="translate(0 0.212494)"/>
</clipPath>
</defs>
</svg>
