<svg width="234" height="51" viewBox="0 0 234 51" fill="none" xmlns="http://www.w3.org/2000/svg">
<g clip-path="url(#clip0_952_2612)">
<path d="M233.756 0.713593H-0.0144043V50.6645H233.756V0.713593Z" fill="white"/>
<path d="M233.756 0.442299H-0.0144043V11.4315H233.756V0.442299Z" fill="#9181FF"/>
<path d="M55.7118 35.6257C55.7118 36.851 54.7183 37.8443 53.4927 37.8443H42.9454C41.7201 37.8443 40.7263 36.8512 40.7263 35.6257V35.0677C40.7263 33.8424 41.7198 32.8491 42.9454 32.8491H53.4927C54.7181 32.8491 55.7118 33.8421 55.7118 35.0677V35.6257V35.6257Z" fill="#6D5ED4"/>
<path d="M74.0273 35.6257C74.0273 36.851 73.0337 37.8443 71.8082 37.8443H61.2608C60.0355 37.8443 59.0417 36.8512 59.0417 35.6257V35.0677C59.0417 33.8424 60.0353 32.8491 61.2608 32.8491H71.8082C73.0335 32.8491 74.0273 33.8421 74.0273 35.0677V35.6257Z" fill="#6D5ED4"/>
<path d="M92.3427 35.6257C92.3427 36.851 91.3487 37.8443 90.1231 37.8443H79.5768C78.3509 37.8443 77.3572 36.8512 77.3572 35.6257V35.0677C77.3572 33.8424 78.3507 32.8491 79.5768 32.8491H90.1231C91.3484 32.8491 92.3427 33.8421 92.3427 35.0677V35.6257Z" fill="#6D5ED4"/>
<path d="M36.9685 0.713593H-0.0761719V50.6645H36.9685V0.713593Z" fill="#6D5ED4"/>
<path d="M10.8135 10.4083V15.1297H9.86658V13.1207H7.84419V15.1297H6.89722V10.4083H7.84419V12.3495H9.86658V10.4083H10.8135V10.4083Z" fill="white"/>
<path d="M15.2035 13.54H12.464C12.4865 13.8105 12.5813 14.0226 12.7482 14.1757C12.915 14.329 13.1202 14.4058 13.3637 14.4058C13.7154 14.4058 13.9658 14.2546 14.1145 13.9526H15.1358C15.0276 14.3134 14.8201 14.61 14.5135 14.8421C14.2068 15.0744 13.8303 15.1904 13.3839 15.1904C13.0232 15.1904 12.6995 15.1102 12.4133 14.9503C12.1269 14.7902 11.9037 14.5637 11.7435 14.2705C11.5834 13.9775 11.5034 13.6392 11.5034 13.2558C11.5034 12.8679 11.5821 12.5277 11.7401 12.2344C11.8978 11.9415 12.1189 11.716 12.4029 11.558C12.6871 11.4003 13.0139 11.3214 13.3837 11.3214C13.7398 11.3214 14.0591 11.3981 14.3409 11.5512C14.6227 11.7045 14.8416 11.9222 14.9971 12.204C15.1526 12.4857 15.2306 12.8092 15.2306 13.1746C15.2306 13.3101 15.2216 13.4317 15.2035 13.54ZM14.25 12.9043C14.2454 12.6608 14.1576 12.4658 13.986 12.3193C13.8144 12.1728 13.605 12.0994 13.3569 12.0994C13.1224 12.0994 12.925 12.1703 12.7651 12.3124C12.6049 12.4545 12.5067 12.6517 12.4709 12.9043H14.25Z" fill="white"/>
<path d="M15.9034 12.2344C16.0546 11.9415 16.2596 11.716 16.5189 11.558C16.7783 11.4003 17.0678 11.3214 17.3881 11.3214C17.6677 11.3214 17.9124 11.3777 18.1221 11.4905C18.3317 11.6034 18.4996 11.7452 18.6259 11.9166V11.3823H19.5797V15.1297H18.6259V14.5818C18.504 14.7577 18.3361 14.903 18.1221 15.0181C17.9078 15.1331 17.6609 15.1906 17.3813 15.1906C17.0656 15.1906 16.778 15.1095 16.5187 14.9469C16.2593 14.7843 16.0541 14.5559 15.9032 14.2605C15.7521 13.9653 15.6768 13.6258 15.6768 13.2423C15.677 12.8636 15.7526 12.5277 15.9034 12.2344ZM18.4909 12.6639C18.4007 12.4994 18.2788 12.3731 18.1255 12.2851C17.9722 12.1971 17.8076 12.153 17.6316 12.153C17.4559 12.153 17.2936 12.1959 17.1446 12.2815C16.9959 12.3673 16.8753 12.4923 16.7829 12.6569C16.6905 12.8216 16.6442 13.0166 16.6442 13.2419C16.6442 13.4676 16.6903 13.6648 16.7829 13.8337C16.8753 14.0028 16.9969 14.1325 17.1483 14.2227C17.2994 14.3131 17.4605 14.358 17.6319 14.358C17.8079 14.358 17.9724 14.3141 18.1257 14.2261C18.279 14.1381 18.4007 14.0121 18.4911 13.8473C18.5813 13.6828 18.6264 13.4854 18.6264 13.2555C18.6264 13.0257 18.581 12.8287 18.4909 12.6639Z" fill="white"/>
<path d="M20.4896 12.2344C20.6408 11.9415 20.847 11.716 21.1088 11.558C21.3703 11.4003 21.6611 11.3214 21.9814 11.3214C22.2249 11.3214 22.4572 11.3745 22.678 11.4803C22.8989 11.5863 23.0748 11.7272 23.2057 11.9029V10.1241H24.1661V15.1297H23.2057V14.5752C23.0885 14.7602 22.924 14.9089 22.7119 15.0217C22.4998 15.1343 22.2541 15.1909 21.9746 15.1909C21.6589 15.1909 21.3703 15.1097 21.1088 14.9471C20.8472 14.7848 20.6408 14.5562 20.4896 14.2607C20.3385 13.9656 20.2632 13.626 20.2632 13.2426C20.2629 12.8636 20.3385 12.5277 20.4896 12.2344ZM23.0768 12.6639C22.9866 12.4994 22.8647 12.3731 22.7114 12.2851C22.5581 12.1971 22.3936 12.153 22.2176 12.153C22.0418 12.153 21.8795 12.1959 21.7306 12.2815C21.5819 12.3673 21.4612 12.4923 21.3688 12.6569C21.2765 12.8216 21.2301 13.0166 21.2301 13.2419C21.2301 13.4676 21.2762 13.6648 21.3688 13.8337C21.4612 14.0028 21.5828 14.1325 21.7342 14.2227C21.8853 14.3131 22.0465 14.358 22.2178 14.358C22.3938 14.358 22.5583 14.3141 22.7117 14.2261C22.865 14.1381 22.9866 14.0121 23.077 13.8473C23.1672 13.6828 23.2123 13.4854 23.2123 13.2555C23.2123 13.0257 23.1672 12.8287 23.0768 12.6639Z" fill="white"/>
<path d="M28.5492 13.54H25.8097C25.8322 13.8105 25.927 14.0226 26.094 14.1757C26.2607 14.329 26.4659 14.4058 26.7094 14.4058C27.0612 14.4058 27.3115 14.2546 27.4602 13.9526H28.4815C28.3733 14.3134 28.1658 14.61 27.8592 14.8421C27.5526 15.0744 27.176 15.1904 26.7297 15.1904C26.3689 15.1904 26.0452 15.1102 25.759 14.9503C25.4726 14.7902 25.2494 14.5637 25.0892 14.2705C24.9291 13.9775 24.8491 13.6392 24.8491 13.2558C24.8491 12.8679 24.9279 12.5277 25.0858 12.2344C25.2435 11.9415 25.4646 11.716 25.7486 11.558C26.0328 11.4003 26.3596 11.3214 26.7294 11.3214C27.0855 11.3214 27.4048 11.3981 27.6866 11.5512C27.9684 11.7045 28.1873 11.9222 28.3428 12.204C28.4983 12.4857 28.5763 12.8092 28.5763 13.1746C28.5763 13.3101 28.567 13.4317 28.5492 13.54ZM27.5955 12.9043C27.5908 12.6608 27.5031 12.4658 27.3315 12.3193C27.1599 12.1728 26.9505 12.0994 26.7024 12.0994C26.4679 12.0994 26.2704 12.1703 26.1105 12.3124C25.9504 12.4545 25.8522 12.6517 25.8163 12.9043H27.5955Z" fill="white"/>
<path d="M30.6901 11.4971C30.8863 11.3845 31.1106 11.3282 31.3631 11.3282V12.3224H31.1128C30.8151 12.3224 30.5906 12.3924 30.4398 12.5321C30.2886 12.672 30.2131 12.9155 30.2131 13.2626V15.1295H29.2661V11.3823H30.2131V11.9641C30.335 11.7655 30.4939 11.61 30.6901 11.4971Z" fill="white"/>
<path d="M128.821 37.7721V38.8471H124.72V31.8461H126.023V37.7719H128.821V37.7721Z" fill="#6D5ED4"/>
<path d="M136.18 35.3466C136.18 35.8609 136.095 36.335 135.926 36.773C135.756 37.2091 135.516 37.5876 135.207 37.9077C134.897 38.2277 134.524 38.4763 134.088 38.656C133.652 38.8344 133.169 38.9243 132.636 38.9243C132.106 38.9243 131.624 38.8346 131.188 38.656C130.752 38.4766 130.379 38.2277 130.067 37.9077C129.756 37.5876 129.515 37.2091 129.343 36.773C129.172 36.335 129.087 35.8609 129.087 35.3466C129.087 34.8325 129.172 34.3584 129.343 33.9204C129.514 33.4843 129.756 33.1058 130.067 32.7857C130.379 32.4657 130.752 32.2171 131.188 32.0374C131.624 31.859 132.106 31.7693 132.636 31.7693C132.991 31.7693 133.325 31.8102 133.637 31.8921C133.951 31.974 134.238 32.091 134.5 32.2405C134.761 32.3918 134.996 32.5732 135.204 32.7889C135.412 33.0034 135.589 33.2425 135.734 33.508C135.879 33.7724 135.99 34.0593 136.066 34.3694C136.142 34.6785 136.18 35.0051 136.18 35.3466ZM134.848 35.3466C134.848 34.9622 134.797 34.6187 134.693 34.3126C134.59 34.0091 134.443 33.7485 134.253 33.536C134.062 33.3232 133.831 33.1604 133.558 33.0473C133.285 32.9342 132.978 32.8774 132.636 32.8774C132.293 32.8774 131.986 32.9339 131.713 33.0473C131.441 33.1604 131.209 33.3232 131.016 33.536C130.824 33.7488 130.677 34.0091 130.573 34.3126C130.47 34.619 130.418 34.9624 130.418 35.3466C130.418 35.731 130.47 36.0744 130.573 36.3808C130.677 36.6852 130.824 36.9426 131.016 37.1545C131.209 37.3673 131.441 37.5291 131.713 37.6412C131.986 37.7543 132.293 37.8119 132.636 37.8119C132.978 37.8119 133.285 37.7543 133.558 37.6412C133.831 37.5291 134.062 37.367 134.253 37.1545C134.443 36.9429 134.591 36.6852 134.693 36.3808C134.797 36.0744 134.848 35.731 134.848 35.3466Z" fill="#6D5ED4"/>
<path d="M143.099 35.3371V38.1692C142.744 38.4307 142.365 38.6218 141.963 38.7427C141.561 38.8646 141.131 38.9243 140.673 38.9243C140.102 38.9243 139.584 38.8366 139.121 38.6579C138.658 38.4812 138.263 38.2345 137.935 37.9174C137.608 37.6022 137.355 37.2237 137.177 36.7837C137 36.3457 136.911 35.8667 136.911 35.3466C136.911 34.8198 136.997 34.3379 137.168 33.8997C137.339 33.4597 137.582 33.0821 137.896 32.767C138.211 32.4498 138.593 32.2039 139.041 32.0303C139.49 31.8558 139.994 31.7688 140.552 31.7688C140.836 31.7688 141.102 31.7912 141.349 31.8361C141.595 31.8819 141.825 31.9433 142.036 32.0223C142.248 32.1013 142.44 32.1968 142.614 32.3109C142.788 32.424 142.949 32.5471 143.094 32.6826L142.721 33.274C142.663 33.3685 142.587 33.4253 142.493 33.4458C142.4 33.4673 142.299 33.4439 142.189 33.3766C142.082 33.3152 141.975 33.2537 141.869 33.1923C141.762 33.1309 141.644 33.077 141.513 33.0334C141.383 32.9876 141.235 32.9495 141.072 32.9213C140.91 32.893 140.721 32.8774 140.509 32.8774C140.163 32.8774 139.851 32.9349 139.572 33.0519C139.293 33.1689 139.055 33.3339 138.857 33.5494C138.661 33.7671 138.509 34.0254 138.402 34.3299C138.296 34.6324 138.243 34.9729 138.243 35.3466C138.243 35.7466 138.3 36.1046 138.415 36.4198C138.529 36.734 138.691 37.0004 138.899 37.2178C139.107 37.4362 139.358 37.6022 139.652 37.7173C139.945 37.8323 140.273 37.8889 140.635 37.8889C140.893 37.8889 141.123 37.8606 141.327 37.807C141.53 37.7514 141.729 37.6773 141.923 37.5825V36.3143H141.041C140.957 36.3143 140.892 36.2918 140.846 36.245C140.799 36.1973 140.775 36.1407 140.775 36.0734V35.3368H143.099V35.3371Z" fill="#6D5ED4"/>
<path d="M151.034 35.3466C151.034 35.8609 150.949 36.335 150.78 36.773C150.61 37.2091 150.37 37.5876 150.061 37.9077C149.751 38.2277 149.378 38.4763 148.942 38.656C148.506 38.8344 148.022 38.9243 147.49 38.9243C146.96 38.9243 146.478 38.8346 146.042 38.656C145.606 38.4766 145.233 38.2277 144.921 37.9077C144.61 37.5876 144.368 37.2091 144.197 36.773C144.026 36.335 143.941 35.8609 143.941 35.3466C143.941 34.8325 144.026 34.3584 144.197 33.9204C144.368 33.4843 144.61 33.1058 144.921 32.7857C145.233 32.4657 145.606 32.2171 146.042 32.0374C146.478 31.859 146.96 31.7693 147.49 31.7693C147.845 31.7693 148.179 31.8102 148.492 31.8921C148.805 31.974 149.092 32.091 149.354 32.2405C149.615 32.3918 149.85 32.5732 150.058 32.7889C150.266 33.0034 150.443 33.2425 150.588 33.508C150.733 33.7724 150.844 34.0593 150.92 34.3694C150.996 34.6785 151.034 35.0051 151.034 35.3466ZM149.702 35.3466C149.702 34.9622 149.651 34.6187 149.548 34.3126C149.444 34.0091 149.297 33.7485 149.107 33.536C148.917 33.3232 148.685 33.1604 148.413 33.0473C148.139 32.9342 147.832 32.8774 147.49 32.8774C147.147 32.8774 146.84 32.9339 146.568 33.0473C146.295 33.1604 146.063 33.3232 145.87 33.536C145.678 33.7488 145.53 34.0091 145.428 34.3126C145.324 34.619 145.273 34.9624 145.273 35.3466C145.273 35.731 145.324 36.0744 145.428 36.3808C145.53 36.6852 145.678 36.9426 145.87 37.1545C146.063 37.3673 146.295 37.5291 146.568 37.6412C146.84 37.7543 147.148 37.8119 147.49 37.8119C147.832 37.8119 148.139 37.7543 148.413 37.6412C148.685 37.5291 148.916 37.367 149.107 37.1545C149.297 36.9429 149.444 36.6852 149.548 36.3808C149.651 36.0744 149.702 35.731 149.702 35.3466Z" fill="#6D5ED4"/>
<path d="M36.9492 25.6373H233.756" stroke="#9FC1A0" stroke-width="0.2" stroke-miterlimit="10"/>
<path d="M205.404 39.3428H198.172C197.962 39.3428 197.792 39.1727 197.792 38.9628V31.7305C197.792 31.5207 197.962 31.3505 198.172 31.3505H205.404C205.614 31.3505 205.784 31.5207 205.784 31.7305V38.9628C205.784 39.1727 205.614 39.3428 205.404 39.3428Z" fill="#6D5ED4"/>
<path d="M216.357 39.3428H209.197C208.967 39.3428 208.781 39.1566 208.781 38.927V31.7664C208.781 31.5368 208.967 31.3505 209.197 31.3505H216.357C216.587 31.3505 216.773 31.5368 216.773 31.7664V38.927C216.773 39.1566 216.587 39.3428 216.357 39.3428Z" fill="#6D5ED4"/>
<path d="M228.367 39.3428H221.163C220.946 39.3428 220.769 39.1664 220.769 38.9485V31.7449C220.769 31.5273 220.946 31.3505 221.163 31.3505H228.367C228.585 31.3505 228.761 31.527 228.761 31.7449V38.9485C228.761 39.1664 228.585 39.3428 228.367 39.3428Z" fill="#6D5ED4"/>
<path d="M8.79667 23.9747C9.59203 22.7272 10.9129 22.1034 12.7591 22.1034C14.6047 22.1034 15.9259 22.7274 16.7215 23.9747C17.5168 25.2224 17.9149 26.9474 17.9149 29.1497C17.9149 31.3649 17.5168 33.1026 16.7215 34.363C15.9256 35.6232 14.6047 36.2536 12.7591 36.2536C10.9129 36.2536 9.59203 35.6235 8.79667 34.363C8.00083 33.1029 7.60327 31.3649 7.60327 29.1497C7.60327 26.9474 8.00083 25.2224 8.79667 23.9747ZM15.0983 26.7722C14.9772 26.1294 14.7354 25.6041 14.3727 25.1968C14.0098 24.7895 13.4718 24.5857 12.7591 24.5857C12.0459 24.5857 11.5084 24.7895 11.1454 25.1968C10.7827 25.6044 10.5407 26.1297 10.4198 26.7722C10.2987 27.4152 10.2385 28.2076 10.2385 29.1495C10.2385 30.1172 10.2957 30.9286 10.4103 31.5843C10.5249 32.24 10.7667 32.7682 11.1359 33.1692C11.505 33.5701 12.0459 33.7707 12.7591 33.7707C13.4718 33.7707 14.0129 33.5701 14.3822 33.1692C14.7512 32.7682 14.9933 32.24 15.1078 31.5843C15.2224 30.9289 15.2797 30.1172 15.2797 29.1495C15.2799 28.2076 15.2192 27.4152 15.0983 26.7722Z" fill="white"/>
<path d="M20.7794 33.2745C22.0015 32.2561 22.9756 31.4061 23.7012 30.7251C24.4269 30.0443 25.0314 29.3342 25.5152 28.5959C25.9988 27.8578 26.2408 27.1322 26.2408 26.419C26.2408 25.7696 26.088 25.2607 25.7826 24.8914C25.4772 24.5224 25.0058 24.3376 24.3696 24.3376C23.7329 24.3376 23.243 24.5509 22.8993 24.9774C22.5556 25.404 22.3772 25.9866 22.3645 26.7247H19.7673C19.818 25.1968 20.2734 24.0385 21.1328 23.249C21.992 22.4598 23.0836 22.0651 24.4078 22.0651C25.8591 22.0651 26.9728 22.4502 27.7497 23.2205C28.526 23.991 28.9145 25.006 28.9145 26.2664C28.9145 27.2594 28.6471 28.2079 28.1126 29.1117C27.5778 30.0158 26.9667 30.8019 26.2794 31.47C25.592 32.1383 24.6945 32.9437 23.5869 33.8858H29.2202V36.101H19.7863V34.1149L20.7794 33.2745Z" fill="white"/>
<path d="M66.5438 16.7562H40.7063V21.3875H66.5438V16.7562Z" fill="#9181FF"/>
<path d="M228.881 16.7562H203.044V21.3875H228.881V16.7562Z" fill="#9181FF"/>
</g>
<defs>
<clipPath id="clip0_952_2612">
<rect width="234" height="50.2125" fill="white" transform="translate(0 0.424995)"/>
</clipPath>
</defs>
</svg>
