<svg width="234" height="51" viewBox="0 0 234 51" fill="none" xmlns="http://www.w3.org/2000/svg">
<g clip-path="url(#clip0_952_2747)">
<path d="M233.756 0.563629H-0.0144043V50.5146H233.756V0.563629Z" fill="white"/>
<path d="M233.756 0.400299H-0.0144043V11.3895H233.756V0.400299Z" fill="#9181FF"/>
<path d="M132.155 36.855C132.155 38.0804 131.161 39.0737 129.936 39.0737H119.388C118.163 39.0737 117.169 38.0806 117.169 36.855V36.2971C117.169 35.0718 118.163 34.0785 119.388 34.0785H129.936C131.161 34.0785 132.155 35.0715 132.155 36.2971V36.855Z" fill="#6D5ED4"/>
<path d="M113.839 36.855C113.839 38.0804 112.846 39.0737 111.62 39.0737H101.073C99.8475 39.0737 98.8538 38.0806 98.8538 36.855V36.2971C98.8538 35.0718 99.8473 34.0785 101.073 34.0785H111.62C112.845 34.0785 113.839 35.0715 113.839 36.2971V36.855Z" fill="#6D5ED4"/>
<path d="M150.47 36.855C150.47 38.0804 149.477 39.0737 148.251 39.0737H137.704C136.478 39.0737 135.485 38.0806 135.485 36.855V36.2971C135.485 35.0718 136.478 34.0785 137.704 34.0785H148.251C149.476 34.0785 150.47 35.0715 150.47 36.2971V36.855Z" fill="#6D5ED4"/>
<path d="M168.785 36.855C168.785 38.0804 167.791 39.0737 166.566 39.0737H156.019C154.794 39.0737 153.8 38.0806 153.8 36.855V36.2971C153.8 35.0718 154.793 34.0785 156.019 34.0785H166.566C167.791 34.0785 168.785 35.0715 168.785 36.2971V36.855Z" fill="#6D5ED4"/>
<path d="M36.9685 0.563629H-0.0761719V50.5146H36.9685V0.563629Z" fill="#6D5ED4"/>
<path d="M10.8135 10.2583V14.9797H9.86658V12.9708H7.84419V14.9797H6.89722V10.2583H7.84419V12.1995H9.86658V10.2583H10.8135V10.2583Z" fill="white"/>
<path d="M15.2035 13.39H12.464C12.4865 13.6606 12.5813 13.8726 12.7482 14.0257C12.915 14.179 13.1202 14.2558 13.3637 14.2558C13.7154 14.2558 13.9658 14.1047 14.1145 13.8027H15.1358C15.0276 14.1634 14.8201 14.4601 14.5135 14.6921C14.2068 14.9244 13.8303 15.0404 13.3839 15.0404C13.0232 15.0404 12.6995 14.9602 12.4133 14.8003C12.1269 14.6402 11.9037 14.4137 11.7435 14.1205C11.5834 13.8275 11.5034 13.4892 11.5034 13.1058C11.5034 12.718 11.5821 12.3777 11.7401 12.0845C11.8978 11.7915 12.1189 11.566 12.4029 11.4081C12.6871 11.2504 13.0139 11.1714 13.3837 11.1714C13.7398 11.1714 14.0591 11.2482 14.3409 11.4012C14.6227 11.5546 14.8416 11.7722 14.9971 12.054C15.1526 12.3358 15.2306 12.6592 15.2306 13.0246C15.2306 13.1601 15.2216 13.2818 15.2035 13.39ZM14.25 12.7543C14.2454 12.5108 14.1576 12.3158 13.986 12.1693C13.8144 12.0228 13.605 11.9494 13.3569 11.9494C13.1224 11.9494 12.925 12.0204 12.7651 12.1625C12.6049 12.3046 12.5067 12.5018 12.4709 12.7543H14.25Z" fill="white"/>
<path d="M15.9034 12.0845C16.0546 11.7915 16.2596 11.566 16.5189 11.4081C16.7783 11.2504 17.0678 11.1714 17.3881 11.1714C17.6677 11.1714 17.9124 11.2277 18.1221 11.3405C18.3317 11.4534 18.4996 11.5953 18.6259 11.7666V11.2323H19.5797V14.9797H18.6259V14.4318C18.504 14.6078 18.3361 14.753 18.1221 14.8681C17.9078 14.9831 17.6609 15.0407 17.3813 15.0407C17.0656 15.0407 16.778 14.9595 16.5187 14.7969C16.2593 14.6343 16.0541 14.4059 15.9032 14.1105C15.7521 13.8153 15.6768 13.4758 15.6768 13.0924C15.677 12.7136 15.7526 12.3777 15.9034 12.0845ZM18.4909 12.514C18.4007 12.3494 18.2788 12.2232 18.1255 12.1352C17.9722 12.0472 17.8076 12.0031 17.6316 12.0031C17.4559 12.0031 17.2936 12.046 17.1446 12.1315C16.9959 12.2173 16.8753 12.3424 16.7829 12.5069C16.6905 12.6717 16.6442 12.8667 16.6442 13.0919C16.6442 13.3176 16.6903 13.5148 16.7829 13.6837C16.8753 13.8529 16.9969 13.9826 17.1483 14.0727C17.2994 14.1632 17.4605 14.208 17.6319 14.208C17.8079 14.208 17.9724 14.1641 18.1257 14.0762C18.279 13.9882 18.4007 13.8621 18.4911 13.6974C18.5813 13.5328 18.6264 13.3354 18.6264 13.1055C18.6264 12.8757 18.581 12.6787 18.4909 12.514Z" fill="white"/>
<path d="M20.4896 12.0845C20.6408 11.7915 20.847 11.566 21.1088 11.4081C21.3703 11.2504 21.6611 11.1714 21.9814 11.1714C22.2249 11.1714 22.4572 11.2245 22.678 11.3303C22.8989 11.4363 23.0748 11.5772 23.2057 11.753V9.97409H24.1661V14.9797H23.2057V14.4252C23.0885 14.6102 22.924 14.7589 22.7119 14.8718C22.4998 14.9844 22.2541 15.0409 21.9746 15.0409C21.6589 15.0409 21.3703 14.9598 21.1088 14.7972C20.8472 14.6348 20.6408 14.4062 20.4896 14.1108C20.3385 13.8156 20.2632 13.476 20.2632 13.0926C20.2629 12.7136 20.3385 12.3777 20.4896 12.0845ZM23.0768 12.514C22.9866 12.3494 22.8647 12.2232 22.7114 12.1352C22.5581 12.0472 22.3936 12.0031 22.2176 12.0031C22.0418 12.0031 21.8795 12.046 21.7306 12.1315C21.5819 12.2173 21.4612 12.3424 21.3688 12.5069C21.2765 12.6717 21.2301 12.8667 21.2301 13.0919C21.2301 13.3176 21.2762 13.5148 21.3688 13.6837C21.4612 13.8529 21.5828 13.9826 21.7342 14.0727C21.8853 14.1632 22.0465 14.208 22.2178 14.208C22.3938 14.208 22.5583 14.1642 22.7117 14.0762C22.865 13.9882 22.9866 13.8621 23.077 13.6974C23.1672 13.5328 23.2123 13.3354 23.2123 13.1055C23.2123 12.8757 23.1672 12.6787 23.0768 12.514Z" fill="white"/>
<path d="M28.5492 13.39H25.8097C25.8322 13.6606 25.927 13.8726 26.094 14.0257C26.2607 14.179 26.4659 14.2558 26.7094 14.2558C27.0612 14.2558 27.3115 14.1047 27.4602 13.8027H28.4815C28.3733 14.1634 28.1658 14.4601 27.8592 14.6921C27.5526 14.9244 27.176 15.0404 26.7297 15.0404C26.3689 15.0404 26.0452 14.9602 25.759 14.8003C25.4726 14.6402 25.2494 14.4137 25.0892 14.1205C24.9291 13.8275 24.8491 13.4892 24.8491 13.1058C24.8491 12.718 24.9279 12.3777 25.0858 12.0845C25.2435 11.7915 25.4646 11.566 25.7486 11.4081C26.0328 11.2504 26.3596 11.1714 26.7294 11.1714C27.0855 11.1714 27.4048 11.2482 27.6866 11.4012C27.9684 11.5546 28.1873 11.7722 28.3428 12.054C28.4983 12.3358 28.5763 12.6592 28.5763 13.0246C28.5763 13.1601 28.567 13.2818 28.5492 13.39ZM27.5955 12.7543C27.5908 12.5108 27.5031 12.3158 27.3315 12.1693C27.1599 12.0228 26.9505 11.9494 26.7024 11.9494C26.4679 11.9494 26.2704 12.0204 26.1105 12.1625C25.9504 12.3046 25.8522 12.5018 25.8163 12.7543H27.5955Z" fill="white"/>
<path d="M30.6901 11.3471C30.8863 11.2345 31.1106 11.1782 31.3631 11.1782V12.1725H31.1128C30.8151 12.1725 30.5906 12.2424 30.4398 12.3821C30.2886 12.522 30.2131 12.7655 30.2131 13.1126V14.9795H29.2661V11.2323H30.2131V11.8142C30.335 11.6155 30.4939 11.46 30.6901 11.3471Z" fill="white"/>
<path d="M44.971 39.0013V40.0762H40.8706V33.0753H42.1732V39.0011H44.971V39.0013Z" fill="#6D5ED4"/>
<path d="M52.3302 36.576C52.3302 37.0903 52.2449 37.5644 52.0757 38.0024C51.9063 38.4385 51.6665 38.817 51.3571 39.1371C51.0468 39.4571 50.6741 39.7057 50.2386 39.8854C49.8025 40.0638 49.3187 40.1538 48.7858 40.1538C48.2566 40.1538 47.774 40.0641 47.3384 39.8854C46.9024 39.7057 46.5287 39.4571 46.2174 39.1371C45.9057 38.817 45.6648 38.4385 45.4935 38.0024C45.3224 37.5644 45.2368 37.0903 45.2368 36.576C45.2368 36.0619 45.3221 35.5878 45.4935 35.1498C45.6646 34.7137 45.9057 34.3352 46.2174 34.0152C46.5287 33.6951 46.9024 33.4465 47.3384 33.2668C47.774 33.0884 48.2564 32.9987 48.7858 32.9987C49.141 32.9987 49.4751 33.0397 49.7876 33.1216C50.1008 33.2035 50.3882 33.3205 50.65 33.4699C50.9111 33.6213 51.146 33.8026 51.354 34.0183C51.5624 34.2328 51.7388 34.4719 51.8841 34.7374C52.0296 35.0019 52.1398 35.2887 52.2159 35.5988C52.2919 35.9076 52.3302 36.2345 52.3302 36.576ZM50.9986 36.576C50.9986 36.1916 50.9469 35.8482 50.8436 35.542C50.7404 35.2385 50.5932 34.978 50.4031 34.7654C50.2125 34.5526 49.9812 34.3898 49.7084 34.2767C49.4352 34.1636 49.128 34.1068 48.7861 34.1068C48.4436 34.1068 48.1362 34.1634 47.8635 34.2767C47.591 34.3898 47.3587 34.5526 47.1663 34.7654C46.974 34.9782 46.8268 35.2385 46.7234 35.542C46.6201 35.8484 46.5684 36.1918 46.5684 36.576C46.5684 36.9604 46.6201 37.3038 46.7234 37.6102C46.8268 37.9147 46.9743 38.1721 47.1663 38.3839C47.3587 38.5967 47.5907 38.7585 47.8635 38.8707C48.1362 38.9838 48.4436 39.0413 48.7861 39.0413C49.128 39.0413 49.4354 38.9838 49.7084 38.8707C49.9812 38.7585 50.2122 38.5964 50.4031 38.3839C50.5935 38.1723 50.7407 37.9147 50.8436 37.6102C50.9469 37.3038 50.9986 36.9604 50.9986 36.576Z" fill="#6D5ED4"/>
<path d="M59.2489 36.5662V39.3984C58.8937 39.6599 58.5152 39.851 58.1132 39.9719C57.7113 40.0938 57.2816 40.1535 56.8231 40.1535C56.2517 40.1535 55.7342 40.0658 55.2714 39.8871C54.808 39.7104 54.4129 39.4637 54.0855 39.1466C53.7577 38.8314 53.5049 38.4529 53.3275 38.0129C53.1502 37.5749 53.0615 37.0959 53.0615 36.5757C53.0615 36.049 53.1468 35.5671 53.3182 35.1288C53.4888 34.6889 53.7318 34.3113 54.0465 33.9961C54.3612 33.679 54.7432 33.4331 55.1914 33.2595C55.6402 33.085 56.144 32.998 56.7022 32.998C56.9861 32.998 57.2518 33.0204 57.4987 33.0653C57.7454 33.1111 57.9748 33.1725 58.1861 33.2515C58.3977 33.3305 58.5905 33.426 58.7645 33.5401C58.9386 33.6532 59.0987 33.7763 59.244 33.9118L58.8713 34.5031C58.8133 34.5977 58.7372 34.6545 58.6436 34.675C58.55 34.6964 58.4486 34.673 58.3387 34.6058C58.2319 34.5443 58.1254 34.4829 58.0192 34.4215C57.9121 34.3601 57.7937 34.3062 57.663 34.2626C57.5329 34.2167 57.3854 34.1787 57.2226 34.1504C57.0598 34.1222 56.8713 34.1066 56.6588 34.1066C56.3134 34.1066 56.0007 34.1641 55.7218 34.2811C55.4427 34.3981 55.2048 34.5631 55.0076 34.7786C54.8109 34.9962 54.6593 35.2546 54.5525 35.5591C54.4463 35.8616 54.3929 36.2021 54.3929 36.5757C54.3929 36.9757 54.4499 37.3338 54.5647 37.649C54.6793 37.9632 54.8407 38.2296 55.0491 38.447C55.257 38.6654 55.508 38.8314 55.8018 38.9465C56.0955 39.0615 56.4233 39.1181 56.7848 39.1181C57.0429 39.1181 57.2735 39.0898 57.4771 39.0362C57.6803 38.9806 57.879 38.9065 58.0728 38.8117V37.5434H57.1914C57.1075 37.5434 57.0422 37.521 56.9959 37.4742C56.9491 37.4264 56.9252 37.3699 56.9252 37.3026V36.566H59.2489V36.5662Z" fill="#6D5ED4"/>
<path d="M67.1844 36.576C67.1844 37.0903 67.0991 37.5644 66.9297 38.0024C66.7601 38.4385 66.5205 38.817 66.2107 39.1371C65.9008 39.4571 65.5282 39.7057 65.0921 39.8854C64.6565 40.0638 64.1722 40.1538 63.6398 40.1538C63.1106 40.1538 62.628 40.0641 62.1924 39.8854C61.7564 39.7057 61.3827 39.4571 61.0714 39.1371C60.7597 38.817 60.5184 38.4385 60.3475 38.0024C60.1764 37.5644 60.0908 37.0903 60.0908 36.576C60.0908 36.0619 60.1761 35.5878 60.3475 35.1498C60.5181 34.7137 60.7597 34.3352 61.0714 34.0152C61.3827 33.6951 61.7564 33.4465 62.1924 33.2668C62.628 33.0884 63.1106 32.9987 63.6398 32.9987C63.995 32.9987 64.3291 33.0397 64.6419 33.1216C64.9548 33.2035 65.2422 33.3205 65.5038 33.4699C65.7653 33.6213 65.9998 33.8026 66.208 34.0183C66.4164 34.2328 66.5929 34.4719 66.7384 34.7374C66.8836 35.0019 66.9941 35.2887 67.0701 35.5988C67.1459 35.9076 67.1844 36.2345 67.1844 36.576ZM65.8523 36.576C65.8523 36.1916 65.8011 35.8482 65.6978 35.542C65.5944 35.2385 65.4475 34.978 65.2573 34.7654C65.0667 34.5526 64.8354 34.3898 64.5627 34.2767C64.2894 34.1636 63.982 34.1068 63.6401 34.1068C63.2976 34.1068 62.9902 34.1634 62.7177 34.2767C62.445 34.3898 62.2129 34.5526 62.0206 34.7654C61.8285 34.9782 61.6806 35.2385 61.5777 35.542C61.4743 35.8484 61.4224 36.1918 61.4224 36.576C61.4224 36.9604 61.4741 37.3038 61.5777 37.6102C61.6806 37.9147 61.8285 38.1721 62.0206 38.3839C62.2129 38.5967 62.445 38.7585 62.7177 38.8707C62.9902 38.9838 63.2978 39.0413 63.6401 39.0413C63.982 39.0413 64.2894 38.9838 64.5627 38.8707C64.8352 38.7585 65.0665 38.5964 65.2573 38.3839C65.4475 38.1723 65.5944 37.9147 65.6978 37.6102C65.8011 37.3038 65.8523 36.9604 65.8523 36.576Z" fill="#6D5ED4"/>
<path d="M36.9492 27.1935H233.756" stroke="#9FC1A0" stroke-width="0.2" stroke-miterlimit="10"/>
<path d="M206.075 40.572H198.843C198.633 40.572 198.463 40.4019 198.463 40.192V32.9597C198.463 32.7499 198.633 32.5797 198.843 32.5797H206.075C206.285 32.5797 206.455 32.7499 206.455 32.9597V40.192C206.455 40.4019 206.285 40.572 206.075 40.572Z" fill="#6D5ED4"/>
<path d="M217.192 40.572H210.032C209.802 40.572 209.616 40.3858 209.616 40.1562V32.9956C209.616 32.7659 209.802 32.5797 210.032 32.5797H217.192C217.422 32.5797 217.608 32.7659 217.608 32.9956V40.1562C217.608 40.3861 217.422 40.572 217.192 40.572Z" fill="#6D5ED4"/>
<path d="M228.367 40.572H221.163C220.946 40.572 220.769 40.3956 220.769 40.1776V32.9741C220.769 32.7564 220.946 32.5797 221.163 32.5797H228.367C228.585 32.5797 228.761 32.7562 228.761 32.9741V40.1776C228.761 40.3956 228.585 40.572 228.367 40.572Z" fill="#6D5ED4"/>
<path d="M65.5687 17.5813H39.7312V22.2125H65.5687V17.5813Z" fill="#9181FF"/>
<path d="M229.369 17.5813H203.531V22.2125H229.369V17.5813Z" fill="#9181FF"/>
<path d="M7.89335 23.5951C8.68871 22.3476 10.0096 21.7238 11.8558 21.7238C13.7014 21.7238 15.0226 22.3478 15.8182 23.5951C16.6135 24.8428 17.0116 26.5679 17.0116 28.7701C17.0116 30.9853 16.6135 32.723 15.8182 33.9835C15.0223 35.2437 13.7014 35.874 11.8558 35.874C10.0096 35.874 8.68871 35.2439 7.89335 33.9835C7.09751 32.7233 6.69995 30.9853 6.69995 28.7701C6.69995 26.5679 7.09751 24.8431 7.89335 23.5951ZM14.195 26.3928C14.0739 25.7501 13.8321 25.2248 13.4694 24.8175C13.1064 24.4102 12.5685 24.2064 11.8558 24.2064C11.1425 24.2064 10.6051 24.4102 10.2421 24.8175C9.87943 25.225 9.63738 25.7503 9.51648 26.3928C9.39534 27.0359 9.33513 27.8283 9.33513 28.7701C9.33513 29.7378 9.39241 30.5493 9.50698 31.205C9.62154 31.8606 9.86334 32.3889 10.2326 32.7898C10.6017 33.1908 11.1425 33.3914 11.8558 33.3914C12.5685 33.3914 13.1096 33.1908 13.4789 32.7898C13.8479 32.3889 14.09 31.8606 14.2045 31.205C14.3191 30.5495 14.3764 29.7378 14.3764 28.7701C14.3764 27.8283 14.3159 27.0359 14.195 26.3928Z" fill="white"/>
<path d="M25.5954 24.2637C25.2834 23.9963 24.8345 23.8627 24.2492 23.8627C23.3707 23.8627 22.7246 24.2159 22.3109 24.9225C21.897 25.6291 21.6837 26.7782 21.6711 28.3694C21.9765 27.8604 22.4221 27.4624 23.0078 27.176C23.5933 26.8896 24.23 26.7463 24.9173 26.7463C25.7449 26.7463 26.4766 26.9247 27.1133 27.2808C27.7497 27.6374 28.2462 28.1563 28.6028 28.8371C28.959 29.5182 29.1376 30.3362 29.1376 31.291C29.1376 32.195 28.956 33.0001 28.5933 33.7065C28.2304 34.4132 27.6988 34.964 26.9987 35.3584C26.2984 35.7533 25.4646 35.9505 24.4971 35.9505C23.1728 35.9505 22.1322 35.6578 21.3749 35.072C20.6173 34.4868 20.0889 33.6685 19.7901 32.6182C19.4907 31.5679 19.3413 30.2726 19.3413 28.7321C19.3413 26.4023 19.7423 24.6427 20.5445 23.452C21.3466 22.2617 22.6132 21.6665 24.3445 21.6665C25.6812 21.6665 26.7186 22.0294 27.4572 22.7551C28.1955 23.4807 28.6221 24.3848 28.7367 25.4668H26.2541C26.1268 24.932 25.9072 24.5308 25.5954 24.2637ZM22.6068 29.534C22.1486 29.9289 21.9195 30.5017 21.9195 31.2527C21.9195 32.0042 22.1325 32.596 22.5593 33.0287C22.9856 33.4616 23.5872 33.678 24.3638 33.678C25.0512 33.678 25.5954 33.4679 25.9964 33.0479C26.3976 32.6277 26.598 32.0615 26.598 31.3483C26.598 30.6102 26.4037 30.0244 26.0157 29.5913C25.6271 29.1586 25.0575 28.942 24.3065 28.942C23.6316 28.942 23.0651 29.1396 22.6068 29.534Z" fill="white"/>
</g>
<defs>
<clipPath id="clip0_952_2747">
<rect width="234" height="50.2125" fill="white" transform="translate(0 0.275024)"/>
</clipPath>
</defs>
</svg>
