<svg width="234" height="51" viewBox="0 0 234 51" fill="none" xmlns="http://www.w3.org/2000/svg">
<g clip-path="url(#clip0_952_2832)">
<path d="M233.756 0.92609H-0.0144043V50.877H233.756V0.92609Z" fill="white"/>
<path d="M233.756 0.654797H-0.0144043V11.644H233.756V0.654797Z" fill="#9181FF"/>
<path d="M107.538 37.3007C107.538 38.526 106.544 39.5193 105.319 39.5193H94.7716C93.5463 39.5193 92.5525 38.5262 92.5525 37.3007V36.7427C92.5525 35.5174 93.546 34.5241 94.7716 34.5241H105.319C106.544 34.5241 107.538 35.5171 107.538 36.7427V37.3007Z" fill="#6D5ED4"/>
<path d="M89.2226 37.3007C89.2226 38.526 88.229 39.5193 87.0035 39.5193H76.4562C75.2308 39.5193 74.2371 38.5262 74.2371 37.3007V36.7427C74.2371 35.5174 75.2306 34.5241 76.4562 34.5241H87.0035C88.2288 34.5241 89.2226 35.5171 89.2226 36.7427V37.3007Z" fill="#6D5ED4"/>
<path d="M125.853 37.3007C125.853 38.526 124.86 39.5193 123.634 39.5193H113.087C111.862 39.5193 110.868 38.5262 110.868 37.3007V36.7427C110.868 35.5174 111.861 34.5241 113.087 34.5241H123.634C124.86 34.5241 125.853 35.5171 125.853 36.7427V37.3007Z" fill="#6D5ED4"/>
<path d="M144.169 37.3007C144.169 38.526 143.175 39.5193 141.949 39.5193H131.403C130.177 39.5193 129.183 38.5262 129.183 37.3007V36.7427C129.183 35.5174 130.177 34.5241 131.403 34.5241H141.949C143.174 34.5241 144.169 35.5171 144.169 36.7427V37.3007Z" fill="#6D5ED4"/>
<path d="M36.9685 0.92609H-0.0761719V50.877H36.9685V0.92609Z" fill="#6D5ED4"/>
<path d="M10.8135 10.6208V15.3422H9.86658V13.3332H7.84419V15.3422H6.89722V10.6208H7.84419V12.562H9.86658V10.6208H10.8135V10.6208Z" fill="white"/>
<path d="M15.2035 13.7525H12.464C12.4865 14.023 12.5813 14.2351 12.7482 14.3882C12.915 14.5415 13.1202 14.6183 13.3637 14.6183C13.7154 14.6183 13.9658 14.4671 14.1145 14.1651H15.1358C15.0276 14.5259 14.8201 14.8225 14.5135 15.0546C14.2068 15.2869 13.8303 15.4029 13.3839 15.4029C13.0232 15.4029 12.6995 15.3227 12.4133 15.1628C12.1269 15.0027 11.9037 14.7762 11.7435 14.483C11.5834 14.19 11.5034 13.8517 11.5034 13.4682C11.5034 13.0804 11.5821 12.7402 11.7401 12.4469C11.8978 12.1539 12.1189 11.9285 12.4029 11.7705C12.6871 11.6128 13.0139 11.5338 13.3837 11.5338C13.7398 11.5338 14.0591 11.6106 14.3409 11.7637C14.6227 11.917 14.8416 12.1347 14.9971 12.4165C15.1526 12.6982 15.2306 13.0217 15.2306 13.3871C15.2306 13.5226 15.2216 13.6442 15.2035 13.7525ZM14.25 13.1168C14.2454 12.8733 14.1576 12.6783 13.986 12.5318C13.8144 12.3853 13.605 12.3119 13.3569 12.3119C13.1224 12.3119 12.925 12.3828 12.7651 12.5249C12.6049 12.667 12.5067 12.8642 12.4709 13.1168H14.25Z" fill="white"/>
<path d="M15.9034 12.4469C16.0546 12.1539 16.2596 11.9285 16.5189 11.7705C16.7783 11.6128 17.0678 11.5338 17.3881 11.5338C17.6677 11.5338 17.9124 11.5902 18.1221 11.703C18.3317 11.8159 18.4996 11.9577 18.6259 12.1291V11.5948H19.5797V15.3422H18.6259V14.7942C18.504 14.9702 18.3361 15.1155 18.1221 15.2306C17.9078 15.3456 17.6609 15.4031 17.3813 15.4031C17.0656 15.4031 16.778 15.322 16.5187 15.1594C16.2593 14.9968 16.0541 14.7684 15.9032 14.473C15.7521 14.1778 15.6768 13.8383 15.6768 13.4548C15.677 13.0761 15.7526 12.7402 15.9034 12.4469ZM18.4909 12.8764C18.4007 12.7119 18.2788 12.5856 18.1255 12.4976C17.9722 12.4096 17.8076 12.3655 17.6316 12.3655C17.4559 12.3655 17.2936 12.4084 17.1446 12.494C16.9959 12.5798 16.8753 12.7048 16.7829 12.8694C16.6905 13.0341 16.6442 13.2291 16.6442 13.4544C16.6442 13.6801 16.6903 13.8773 16.7829 14.0462C16.8753 14.2153 16.9969 14.345 17.1483 14.4352C17.2994 14.5256 17.4605 14.5705 17.6319 14.5705C17.8079 14.5705 17.9724 14.5266 18.1257 14.4386C18.279 14.3506 18.4007 14.2246 18.4911 14.0598C18.5813 13.8953 18.6264 13.6979 18.6264 13.468C18.6264 13.2381 18.581 13.0412 18.4909 12.8764Z" fill="white"/>
<path d="M20.4896 12.4469C20.6408 12.1539 20.847 11.9285 21.1088 11.7705C21.3703 11.6128 21.6611 11.5338 21.9814 11.5338C22.2249 11.5338 22.4572 11.587 22.678 11.6928C22.8989 11.7988 23.0748 11.9397 23.2057 12.1154V10.3365H24.1661V15.3422H23.2057V14.7877C23.0885 14.9727 22.924 15.1214 22.7119 15.2342C22.4998 15.3468 22.2541 15.4034 21.9746 15.4034C21.6589 15.4034 21.3703 15.3222 21.1088 15.1596C20.8472 14.9973 20.6408 14.7687 20.4896 14.4732C20.3385 14.178 20.2632 13.8385 20.2632 13.4551C20.2629 13.0761 20.3385 12.7402 20.4896 12.4469ZM23.0768 12.8764C22.9866 12.7119 22.8647 12.5856 22.7114 12.4976C22.5581 12.4096 22.3936 12.3655 22.2176 12.3655C22.0418 12.3655 21.8795 12.4084 21.7306 12.494C21.5819 12.5798 21.4612 12.7048 21.3688 12.8694C21.2765 13.0341 21.2301 13.2291 21.2301 13.4544C21.2301 13.6801 21.2762 13.8773 21.3688 14.0462C21.4612 14.2153 21.5828 14.345 21.7342 14.4352C21.8853 14.5256 22.0465 14.5705 22.2178 14.5705C22.3938 14.5705 22.5583 14.5266 22.7117 14.4386C22.865 14.3506 22.9866 14.2246 23.077 14.0598C23.1672 13.8953 23.2123 13.6979 23.2123 13.468C23.2123 13.2381 23.1672 13.0412 23.0768 12.8764Z" fill="white"/>
<path d="M28.5492 13.7525H25.8097C25.8322 14.023 25.927 14.2351 26.094 14.3882C26.2607 14.5415 26.4659 14.6183 26.7094 14.6183C27.0612 14.6183 27.3115 14.4671 27.4602 14.1651H28.4815C28.3733 14.5259 28.1658 14.8225 27.8592 15.0546C27.5526 15.2869 27.176 15.4029 26.7297 15.4029C26.3689 15.4029 26.0452 15.3227 25.759 15.1628C25.4726 15.0027 25.2494 14.7762 25.0892 14.483C24.9291 14.19 24.8491 13.8517 24.8491 13.4682C24.8491 13.0804 24.9279 12.7402 25.0858 12.4469C25.2435 12.1539 25.4646 11.9285 25.7486 11.7705C26.0328 11.6128 26.3596 11.5338 26.7294 11.5338C27.0855 11.5338 27.4048 11.6106 27.6866 11.7637C27.9684 11.917 28.1873 12.1347 28.3428 12.4165C28.4983 12.6982 28.5763 13.0217 28.5763 13.3871C28.5763 13.5226 28.567 13.6442 28.5492 13.7525ZM27.5955 13.1168C27.5908 12.8733 27.5031 12.6783 27.3315 12.5318C27.1599 12.3853 26.9505 12.3119 26.7024 12.3119C26.4679 12.3119 26.2704 12.3828 26.1105 12.5249C25.9504 12.667 25.8522 12.8642 25.8163 13.1168H27.5955Z" fill="white"/>
<path d="M30.6901 11.7096C30.8863 11.597 31.1106 11.5407 31.3631 11.5407V12.5349H31.1128C30.8151 12.5349 30.5906 12.6049 30.4398 12.7446C30.2886 12.8845 30.2131 13.128 30.2131 13.4751V15.342H29.2661V11.5948H30.2131V12.1766C30.335 11.978 30.4939 11.8224 30.6901 11.7096Z" fill="white"/>
<path d="M44.971 39.2034V40.2783H40.8706V33.2773H42.1732V39.2031H44.971V39.2034Z" fill="#6D5ED4"/>
<path d="M52.3302 36.7778C52.3302 37.2921 52.2449 37.7662 52.0757 38.2042C51.9063 38.6403 51.6665 39.0189 51.3571 39.3389C51.0468 39.6589 50.6741 39.9076 50.2386 40.0872C49.8025 40.2656 49.3187 40.3556 48.7858 40.3556C48.2566 40.3556 47.774 40.2659 47.3384 40.0872C46.9024 39.9078 46.5287 39.6589 46.2174 39.3389C45.9057 39.0189 45.6648 38.6403 45.4935 38.2042C45.3224 37.7662 45.2368 37.2921 45.2368 36.7778C45.2368 36.2637 45.3221 35.7897 45.4935 35.3516C45.6646 34.9156 45.9057 34.537 46.2174 34.217C46.5287 33.8969 46.9024 33.6483 47.3384 33.4687C47.774 33.2902 48.2564 33.2005 48.7858 33.2005C49.141 33.2005 49.4751 33.2415 49.7876 33.3234C50.1008 33.4053 50.3882 33.5223 50.65 33.6717C50.9111 33.8231 51.146 34.0044 51.354 34.2201C51.5624 34.4346 51.7388 34.6738 51.8841 34.9392C52.0296 35.2037 52.1398 35.4906 52.2159 35.8006C52.2919 36.1097 52.3302 36.4363 52.3302 36.7778ZM50.9986 36.7778C50.9986 36.3934 50.9469 36.05 50.8436 35.7438C50.7404 35.4404 50.5932 35.1798 50.4031 34.9672C50.2125 34.7544 49.9812 34.5916 49.7084 34.4785C49.4352 34.3654 49.128 34.3086 48.7861 34.3086C48.4436 34.3086 48.1362 34.3652 47.8635 34.4785C47.591 34.5916 47.3587 34.7544 47.1663 34.9672C46.974 35.18 46.8268 35.4404 46.7234 35.7438C46.6201 36.0502 46.5684 36.3937 46.5684 36.7778C46.5684 37.1622 46.6201 37.5057 46.7234 37.812C46.8268 38.1165 46.9743 38.3739 47.1663 38.5857C47.3587 38.7985 47.5907 38.9604 47.8635 39.0725C48.1362 39.1856 48.4436 39.2431 48.7861 39.2431C49.128 39.2431 49.4354 39.1856 49.7084 39.0725C49.9812 38.9604 50.2122 38.7983 50.4031 38.5857C50.5935 38.3741 50.7407 38.1165 50.8436 37.812C50.9469 37.5057 50.9986 37.1622 50.9986 36.7778Z" fill="#6D5ED4"/>
<path d="M59.2489 36.7683V39.6004C58.8937 39.862 58.5152 40.0531 58.1132 40.174C57.7113 40.2959 57.2816 40.3556 56.8231 40.3556C56.2517 40.3556 55.7342 40.2678 55.2714 40.0892C54.808 39.9124 54.4129 39.6658 54.0855 39.3486C53.7577 39.0335 53.5049 38.6549 53.3275 38.215C53.1502 37.7769 53.0615 37.298 53.0615 36.7778C53.0615 36.2511 53.1468 35.7692 53.3182 35.3309C53.4888 34.8909 53.7318 34.5134 54.0465 34.1982C54.3612 33.8811 54.7432 33.6351 55.1914 33.4616C55.6402 33.2871 56.144 33.2001 56.7022 33.2001C56.9861 33.2001 57.2518 33.2225 57.4987 33.2673C57.7454 33.3132 57.9748 33.3746 58.1861 33.4536C58.3977 33.5325 58.5905 33.6281 58.7645 33.7422C58.9386 33.8553 59.0987 33.9783 59.244 34.1139L58.8713 34.7052C58.8133 34.7998 58.7372 34.8566 58.6436 34.8771C58.55 34.8985 58.4486 34.8751 58.3387 34.8078C58.2319 34.7464 58.1254 34.685 58.0192 34.6235C57.9121 34.5621 57.7937 34.5083 57.663 34.4646C57.5329 34.4188 57.3854 34.3808 57.2226 34.3525C57.0598 34.3242 56.8713 34.3086 56.6588 34.3086C56.3134 34.3086 56.0007 34.3662 55.7218 34.4832C55.4427 34.6002 55.2048 34.7652 55.0076 34.9806C54.8109 35.1983 54.6593 35.4567 54.5525 35.7611C54.4463 36.0636 54.3929 36.4041 54.3929 36.7778C54.3929 37.1778 54.4499 37.5359 54.5647 37.851C54.6793 38.1652 54.8407 38.4317 55.0491 38.6491C55.257 38.8675 55.508 39.0335 55.8018 39.1485C56.0955 39.2636 56.4233 39.3201 56.7848 39.3201C57.0429 39.3201 57.2735 39.2919 57.4771 39.2382C57.6803 39.1827 57.879 39.1085 58.0728 39.0137V37.7455H57.1914C57.1075 37.7455 57.0422 37.7231 56.9959 37.6763C56.9491 37.6285 56.9252 37.572 56.9252 37.5047V36.7681H59.2489V36.7683Z" fill="#6D5ED4"/>
<path d="M67.1844 36.7778C67.1844 37.2921 67.0991 37.7662 66.9297 38.2042C66.7601 38.6403 66.5205 39.0189 66.2107 39.3389C65.9008 39.6589 65.5282 39.9076 65.0921 40.0872C64.6565 40.2656 64.1722 40.3556 63.6398 40.3556C63.1106 40.3556 62.628 40.2659 62.1924 40.0872C61.7564 39.9078 61.3827 39.6589 61.0714 39.3389C60.7597 39.0189 60.5184 38.6403 60.3475 38.2042C60.1764 37.7662 60.0908 37.2921 60.0908 36.7778C60.0908 36.2637 60.1761 35.7897 60.3475 35.3516C60.5181 34.9156 60.7597 34.537 61.0714 34.217C61.3827 33.8969 61.7564 33.6483 62.1924 33.4687C62.628 33.2902 63.1106 33.2005 63.6398 33.2005C63.995 33.2005 64.3291 33.2415 64.6419 33.3234C64.9548 33.4053 65.2422 33.5223 65.5038 33.6717C65.7653 33.8231 65.9998 34.0044 66.208 34.2201C66.4164 34.4346 66.5929 34.6738 66.7384 34.9392C66.8836 35.2037 66.9941 35.4906 67.0701 35.8006C67.1459 36.1097 67.1844 36.4363 67.1844 36.7778ZM65.8523 36.7778C65.8523 36.3934 65.8011 36.05 65.6978 35.7438C65.5944 35.4404 65.4475 35.1798 65.2573 34.9672C65.0667 34.7544 64.8354 34.5916 64.5627 34.4785C64.2894 34.3654 63.982 34.3086 63.6401 34.3086C63.2976 34.3086 62.9902 34.3652 62.7177 34.4785C62.445 34.5916 62.2129 34.7544 62.0206 34.9672C61.8285 35.18 61.6806 35.4404 61.5777 35.7438C61.4743 36.0502 61.4224 36.3937 61.4224 36.7778C61.4224 37.1622 61.4741 37.5057 61.5777 37.812C61.6806 38.1165 61.8285 38.3739 62.0206 38.5857C62.2129 38.7985 62.445 38.9604 62.7177 39.0725C62.9902 39.1856 63.2978 39.2431 63.6401 39.2431C63.982 39.2431 64.2894 39.1856 64.5627 39.0725C64.8352 38.9604 65.0665 38.7983 65.2573 38.5857C65.4475 38.3741 65.5944 38.1165 65.6978 37.812C65.8011 37.5057 65.8523 37.1622 65.8523 36.7778Z" fill="#6D5ED4"/>
<path d="M36.9492 25.8498H233.756" stroke="#9FC1A0" stroke-width="0.2" stroke-miterlimit="10"/>
<path d="M205.404 39.5553H198.172C197.962 39.5553 197.792 39.3852 197.792 39.1753V31.943C197.792 31.7332 197.962 31.563 198.172 31.563H205.404C205.614 31.563 205.784 31.7332 205.784 31.943V39.1753C205.784 39.3852 205.614 39.5553 205.404 39.5553Z" fill="#6D5ED4"/>
<path d="M200.958 21.6093H197.255C197.045 21.6093 196.875 21.4391 196.875 21.2292V17.5269C196.875 17.3171 197.045 17.1469 197.255 17.1469H200.958C201.167 17.1469 201.338 17.3171 201.338 17.5269V21.2292C201.338 21.4391 201.167 21.6093 200.958 21.6093Z" fill="#6D5ED4"/>
<path d="M216.357 39.5553H209.197C208.967 39.5553 208.781 39.3691 208.781 39.1395V31.9789C208.781 31.7493 208.967 31.563 209.197 31.563H216.357C216.587 31.563 216.773 31.7493 216.773 31.9789V39.1395C216.773 39.3691 216.587 39.5553 216.357 39.5553Z" fill="#6D5ED4"/>
<path d="M228.367 39.5553H221.163C220.946 39.5553 220.769 39.3789 220.769 39.161V31.9574C220.769 31.7397 220.946 31.563 221.163 31.563H228.367C228.585 31.563 228.761 31.7395 228.761 31.9574V39.161C228.761 39.3789 228.585 39.5553 228.367 39.5553Z" fill="#6D5ED4"/>
<path d="M66.5438 16.9687H40.7063V21.6H66.5438V16.9687Z" fill="#9181FF"/>
<path d="M228.881 17.0623H203.044V21.6936H228.881V17.0623Z" fill="#9181FF"/>
<path d="M8.79667 24.0007C9.59203 22.7532 10.9129 22.1294 12.7591 22.1294C14.6047 22.1294 15.9259 22.7534 16.7215 24.0007C17.5168 25.2484 17.9149 26.9735 17.9149 29.1757C17.9149 31.3909 17.5168 33.1286 16.7215 34.3891C15.9256 35.6492 14.6047 36.2796 12.7591 36.2796C10.9129 36.2796 9.59203 35.6495 8.79667 34.3891C8.00083 33.1289 7.60327 31.3909 7.60327 29.1757C7.60327 26.9735 8.00083 25.2484 8.79667 24.0007ZM15.0983 26.7984C14.9772 26.1557 14.7354 25.6304 14.3727 25.2231C14.0098 24.8158 13.4718 24.612 12.7591 24.612C12.0459 24.612 11.5084 24.8158 11.1454 25.2231C10.7827 25.6306 10.5407 26.1559 10.4198 26.7984C10.2987 27.4415 10.2385 28.2339 10.2385 29.1757C10.2385 30.1434 10.2957 30.9549 10.4103 31.6106C10.5249 32.2662 10.7667 32.7944 11.1359 33.1954C11.505 33.5964 12.0459 33.797 12.7591 33.797C13.4718 33.797 14.0129 33.5964 14.3822 33.1954C14.7512 32.7944 14.9933 32.2662 15.1078 31.6106C15.2224 30.9551 15.2797 30.1434 15.2797 29.1757C15.2799 28.2339 15.2192 27.4412 15.0983 26.7984Z" fill="white"/>
<path d="M21.3237 23.1129C22.1573 22.4192 23.2554 22.0721 24.6177 22.0721C25.5469 22.0721 26.3428 22.2345 27.0048 22.5591C27.6666 22.8838 28.1663 23.3228 28.5039 23.8766C28.841 24.4304 29.0099 25.0576 29.0099 25.7576C29.0099 26.5598 28.8027 27.2377 28.3893 27.7915C27.9754 28.3453 27.4823 28.7175 26.9092 28.9086V28.9849C27.6476 29.214 28.2238 29.6216 28.6374 30.207C29.0508 30.7928 29.258 31.5438 29.258 32.4605C29.258 33.2244 29.083 33.9055 28.733 34.5039C28.3827 35.1025 27.8672 35.5703 27.1861 35.9074C26.5051 36.245 25.6871 36.4134 24.7323 36.4134C23.2935 36.4134 22.1222 36.0507 21.2187 35.3251C20.3146 34.5994 19.8371 33.5301 19.7864 32.1168H22.3835C22.4089 32.7408 22.6222 33.2405 23.0234 33.6159C23.4243 33.9915 23.9747 34.1792 24.675 34.1792C25.3244 34.1792 25.8238 33.9978 26.1741 33.6349C26.5241 33.2722 26.6994 32.8042 26.6994 32.2314C26.6994 31.4675 26.4573 30.9203 25.9737 30.589C25.4896 30.2582 24.7386 30.0925 23.7203 30.0925H23.1665V27.8963H23.7203C25.5279 27.8963 26.432 27.2918 26.432 26.0823C26.432 25.5351 26.2696 25.1083 25.945 24.8029C25.6203 24.4974 25.1525 24.3446 24.5415 24.3446C23.9428 24.3446 23.4816 24.5069 23.157 24.8316C22.8323 25.1563 22.6443 25.5668 22.5936 26.0633H19.9775C20.0411 24.7902 20.4898 23.8069 21.3237 23.1129Z" fill="white"/>
</g>
<defs>
<clipPath id="clip0_952_2832">
<rect width="234" height="50.2125" fill="white" transform="translate(0 0.637489)"/>
</clipPath>
</defs>
</svg>
