<svg width="234" height="52" viewBox="0 0 234 52" fill="none" xmlns="http://www.w3.org/2000/svg">
<g clip-path="url(#clip0_952_2790)">
<path d="M233.756 1.13858H-0.0144043V51.0895H233.756V1.13858Z" fill="white"/>
<path d="M233.756 0.867279H-0.0144043V11.8565H233.756V0.867279Z" fill="#9181FF"/>
<path d="M74.8754 42.4164C74.8754 43.6418 73.8819 44.635 72.6563 44.635H62.109C60.8837 44.635 59.8899 43.642 59.8899 42.4164V41.8585C59.8899 40.6331 60.8834 39.6399 62.109 39.6399H72.6563C73.8816 39.6399 74.8754 40.6329 74.8754 41.8585V42.4164Z" fill="#6D5ED4"/>
<path d="M56.56 42.4164C56.56 43.6418 55.5664 44.635 54.3409 44.635H43.7936C42.5682 44.635 41.5745 43.642 41.5745 42.4164V41.8585C41.5745 40.6331 42.568 39.6399 43.7936 39.6399H54.3409C55.5662 39.6399 56.56 40.6329 56.56 41.8585V42.4164Z" fill="#6D5ED4"/>
<path d="M93.1908 42.4164C93.1908 43.6418 92.1973 44.635 90.9717 44.635H80.4244C79.1991 44.635 78.2053 43.642 78.2053 42.4164V41.8585C78.2053 40.6331 79.1988 39.6399 80.4244 39.6399H90.9717C92.1971 39.6399 93.1908 40.6329 93.1908 41.8585V42.4164Z" fill="#6D5ED4"/>
<path d="M111.506 42.4164C111.506 43.6418 110.512 44.635 109.286 44.635H98.7401C97.5143 44.635 96.5205 43.642 96.5205 42.4164V41.8585C96.5205 40.6331 97.514 39.6399 98.7401 39.6399H109.286C110.512 39.6399 111.506 40.6329 111.506 41.8585V42.4164Z" fill="#6D5ED4"/>
<path d="M130.519 42.4164C130.519 43.6418 129.525 44.635 128.299 44.635H117.753C116.527 44.635 115.533 43.642 115.533 42.4164V41.8585C115.533 40.6331 116.527 39.6399 117.753 39.6399H128.299C129.524 39.6399 130.519 40.6329 130.519 41.8585V42.4164Z" fill="#6D5ED4"/>
<path d="M149.531 42.4164C149.531 43.6418 148.537 44.635 147.312 44.635H136.765C135.539 44.635 134.546 43.642 134.546 42.4164V41.8585C134.546 40.6331 135.539 39.6399 136.765 39.6399H147.312C148.537 39.6399 149.531 40.6329 149.531 41.8585V42.4164Z" fill="#6D5ED4"/>
<path d="M36.9685 1.13858H-0.0761719V51.0895H36.9685V1.13858Z" fill="#6D5ED4"/>
<path d="M10.8135 10.8332V15.5547H9.86658V13.5457H7.84419V15.5547H6.89722V10.8332H7.84419V12.7745H9.86658V10.8332H10.8135V10.8332Z" fill="white"/>
<path d="M15.2035 13.9649H12.464C12.4865 14.2355 12.5813 14.4476 12.7482 14.6006C12.915 14.754 13.1202 14.8307 13.3637 14.8307C13.7154 14.8307 13.9658 14.6796 14.1145 14.3776H15.1358C15.0276 14.7384 14.8201 15.035 14.5135 15.267C14.2068 15.4993 13.8303 15.6154 13.3839 15.6154C13.0232 15.6154 12.6995 15.5352 12.4133 15.3753C12.1269 15.2151 11.9037 14.9887 11.7435 14.6955C11.5834 14.4025 11.5034 14.0641 11.5034 13.6807C11.5034 13.2929 11.5821 12.9526 11.7401 12.6594C11.8978 12.3664 12.1189 12.141 12.4029 11.983C12.6871 11.8253 13.0139 11.7463 13.3837 11.7463C13.7398 11.7463 14.0591 11.8231 14.3409 11.9762C14.6227 12.1295 14.8416 12.3472 14.9971 12.6289C15.1526 12.9107 15.2306 13.2342 15.2306 13.5996C15.2306 13.7351 15.2216 13.8567 15.2035 13.9649ZM14.25 13.3292C14.2454 13.0857 14.1576 12.8907 13.986 12.7442C13.8144 12.5977 13.605 12.5244 13.3569 12.5244C13.1224 12.5244 12.925 12.5953 12.7651 12.7374C12.6049 12.8795 12.5067 13.0767 12.4709 13.3292H14.25Z" fill="white"/>
<path d="M15.9034 12.6594C16.0546 12.3664 16.2596 12.141 16.5189 11.983C16.7783 11.8253 17.0678 11.7463 17.3881 11.7463C17.6677 11.7463 17.9124 11.8026 18.1221 11.9155C18.3317 12.0283 18.4996 12.1702 18.6259 12.3416V11.8073H19.5797V15.5547H18.6259V15.0067C18.504 15.1827 18.3361 15.328 18.1221 15.443C17.9078 15.5581 17.6609 15.6156 17.3813 15.6156C17.0656 15.6156 16.778 15.5344 16.5187 15.3719C16.2593 15.2093 16.0541 14.9809 15.9032 14.6855C15.7521 14.3903 15.6768 14.0507 15.6768 13.6673C15.677 13.2885 15.7526 12.9526 15.9034 12.6594ZM18.4909 13.0889C18.4007 12.9244 18.2788 12.7981 18.1255 12.7101C17.9722 12.6221 17.8076 12.578 17.6316 12.578C17.4559 12.578 17.2936 12.6209 17.1446 12.7065C16.9959 12.7923 16.8753 12.9173 16.7829 13.0818C16.6905 13.2466 16.6442 13.4416 16.6442 13.6668C16.6442 13.8925 16.6903 14.0897 16.7829 14.2587C16.8753 14.4278 16.9969 14.5575 17.1483 14.6477C17.2994 14.7381 17.4605 14.783 17.6319 14.783C17.8079 14.783 17.9724 14.7391 18.1257 14.6511C18.279 14.5631 18.4007 14.4371 18.4911 14.2723C18.5813 14.1078 18.6264 13.9103 18.6264 13.6805C18.6264 13.4506 18.581 13.2537 18.4909 13.0889Z" fill="white"/>
<path d="M20.4896 12.6594C20.6408 12.3664 20.847 12.141 21.1088 11.983C21.3703 11.8253 21.6611 11.7463 21.9814 11.7463C22.2249 11.7463 22.4572 11.7995 22.678 11.9053C22.8989 12.0113 23.0748 12.1522 23.2057 12.3279V10.549H24.1661V15.5547H23.2057V15.0001C23.0885 15.1852 22.924 15.3338 22.7119 15.4467C22.4998 15.5593 22.2541 15.6159 21.9746 15.6159C21.6589 15.6159 21.3703 15.5347 21.1088 15.3721C20.8472 15.2098 20.6408 14.9811 20.4896 14.6857C20.3385 14.3905 20.2632 14.051 20.2632 13.6676C20.2629 13.2885 20.3385 12.9526 20.4896 12.6594ZM23.0768 13.0889C22.9866 12.9244 22.8647 12.7981 22.7114 12.7101C22.5581 12.6221 22.3936 12.578 22.2176 12.578C22.0418 12.578 21.8795 12.6209 21.7306 12.7065C21.5819 12.7923 21.4612 12.9173 21.3688 13.0818C21.2765 13.2466 21.2301 13.4416 21.2301 13.6668C21.2301 13.8925 21.2762 14.0897 21.3688 14.2587C21.4612 14.4278 21.5828 14.5575 21.7342 14.6477C21.8853 14.7381 22.0465 14.783 22.2178 14.783C22.3938 14.783 22.5583 14.7391 22.7117 14.6511C22.865 14.5631 22.9866 14.4371 23.077 14.2723C23.1672 14.1078 23.2123 13.9103 23.2123 13.6805C23.2123 13.4506 23.1672 13.2537 23.0768 13.0889Z" fill="white"/>
<path d="M28.5492 13.9649H25.8097C25.8322 14.2355 25.927 14.4476 26.094 14.6006C26.2607 14.754 26.4659 14.8307 26.7094 14.8307C27.0612 14.8307 27.3115 14.6796 27.4602 14.3776H28.4815C28.3733 14.7384 28.1658 15.035 27.8592 15.267C27.5526 15.4993 27.176 15.6154 26.7297 15.6154C26.3689 15.6154 26.0452 15.5352 25.759 15.3753C25.4726 15.2151 25.2494 14.9887 25.0892 14.6955C24.9291 14.4025 24.8491 14.0641 24.8491 13.6807C24.8491 13.2929 24.9279 12.9526 25.0858 12.6594C25.2435 12.3664 25.4646 12.141 25.7486 11.983C26.0328 11.8253 26.3596 11.7463 26.7294 11.7463C27.0855 11.7463 27.4048 11.8231 27.6866 11.9762C27.9684 12.1295 28.1873 12.3472 28.3428 12.6289C28.4983 12.9107 28.5763 13.2342 28.5763 13.5996C28.5763 13.7351 28.567 13.8567 28.5492 13.9649ZM27.5955 13.3292C27.5908 13.0857 27.5031 12.8907 27.3315 12.7442C27.1599 12.5977 26.9505 12.5244 26.7024 12.5244C26.4679 12.5244 26.2704 12.5953 26.1105 12.7374C25.9504 12.8795 25.8522 13.0767 25.8163 13.3292H27.5955Z" fill="white"/>
<path d="M30.6901 11.9221C30.8863 11.8095 31.1106 11.7532 31.3631 11.7532V12.7474H31.1128C30.8151 12.7474 30.5906 12.8174 30.4398 12.957C30.2886 13.097 30.2131 13.3405 30.2131 13.6876V15.5544H29.2661V11.8073H30.2131V12.3891C30.335 12.1904 30.4939 12.0349 30.6901 11.9221Z" fill="white"/>
<path d="M44.971 26.0096V27.0845H40.8706V20.0836H42.1732V26.0094H44.971V26.0096Z" fill="#6D5ED4"/>
<path d="M52.3302 23.584C52.3302 24.0984 52.2449 24.5725 52.0757 25.0105C51.9063 25.4465 51.6665 25.8251 51.3571 26.1451C51.0468 26.4652 50.6741 26.7138 50.2386 26.8934C49.8025 27.0719 49.3187 27.1618 48.7858 27.1618C48.2566 27.1618 47.774 27.0721 47.3384 26.8934C46.9024 26.7138 46.5287 26.4652 46.2174 26.1451C45.9057 25.8251 45.6648 25.4465 45.4935 25.0105C45.3224 24.5725 45.2368 24.0984 45.2368 23.584C45.2368 23.07 45.3221 22.5959 45.4935 22.1579C45.6646 21.7218 45.9057 21.3433 46.2174 21.0232C46.5287 20.7032 46.9024 20.4545 47.3384 20.2749C47.774 20.0965 48.2564 20.0068 48.7858 20.0068C49.141 20.0068 49.4751 20.0477 49.7876 20.1296C50.1008 20.2115 50.3882 20.3285 50.65 20.4779C50.9111 20.6293 51.146 20.8107 51.354 21.0264C51.5624 21.2409 51.7388 21.48 51.8841 21.7454C52.0296 22.0099 52.1398 22.2968 52.2159 22.6069C52.2919 22.9159 52.3302 23.2426 52.3302 23.584ZM50.9986 23.584C50.9986 23.1997 50.9469 22.8562 50.8436 22.5501C50.7404 22.2466 50.5932 21.986 50.4031 21.7735C50.2125 21.5607 49.9812 21.3979 49.7084 21.2848C49.4352 21.1717 49.128 21.1149 48.7861 21.1149C48.4436 21.1149 48.1362 21.1714 47.8635 21.2848C47.591 21.3979 47.3587 21.5607 47.1663 21.7735C46.974 21.9863 46.8268 22.2466 46.7234 22.5501C46.6201 22.8565 46.5684 23.1999 46.5684 23.584C46.5684 23.9684 46.6201 24.3119 46.7234 24.6183C46.8268 24.9227 46.9743 25.1801 47.1663 25.3919C47.3587 25.6047 47.5907 25.7666 47.8635 25.8787C48.1362 25.9918 48.4436 26.0493 48.7861 26.0493C49.128 26.0493 49.4354 25.9918 49.7084 25.8787C49.9812 25.7666 50.2122 25.6045 50.4031 25.3919C50.5935 25.1804 50.7407 24.9227 50.8436 24.6183C50.9469 24.3119 50.9986 23.9684 50.9986 23.584Z" fill="#6D5ED4"/>
<path d="M59.2489 23.5745V26.4067C58.8937 26.6682 58.5152 26.8593 58.1132 26.9802C57.7113 27.1021 57.2816 27.1618 56.8231 27.1618C56.2517 27.1618 55.7342 27.0741 55.2714 26.8954C54.808 26.7187 54.4129 26.472 54.0855 26.1549C53.7577 25.8397 53.5049 25.4612 53.3275 25.0212C53.1502 24.5832 53.0615 24.1042 53.0615 23.584C53.0615 23.0573 53.1468 22.5754 53.3182 22.1372C53.4888 21.6972 53.7318 21.3196 54.0465 21.0044C54.3612 20.6873 54.7432 20.4414 55.1914 20.2678C55.6402 20.0933 56.144 20.0063 56.7022 20.0063C56.9861 20.0063 57.2518 20.0287 57.4987 20.0736C57.7454 20.1194 57.9748 20.1808 58.1861 20.2598C58.3977 20.3388 58.5905 20.4343 58.7645 20.5484C58.9386 20.6615 59.0987 20.7846 59.244 20.9201L58.8713 21.5114C58.8133 21.606 58.7372 21.6628 58.6436 21.6833C58.55 21.7047 58.4486 21.6813 58.3387 21.6141C58.2319 21.5526 58.1254 21.4912 58.0192 21.4298C57.9121 21.3684 57.7937 21.3145 57.663 21.2709C57.5329 21.225 57.3854 21.187 57.2226 21.1587C57.0598 21.1305 56.8713 21.1149 56.6588 21.1149C56.3134 21.1149 56.0007 21.1724 55.7218 21.2894C55.4427 21.4064 55.2048 21.5714 55.0076 21.7869C54.8109 22.0045 54.6593 22.2629 54.5525 22.5674C54.4463 22.8699 54.3929 23.2104 54.3929 23.584C54.3929 23.984 54.4499 24.3421 54.5647 24.6573C54.6793 24.9715 54.8407 25.2379 55.0491 25.4553C55.257 25.6737 55.508 25.8397 55.8018 25.9548C56.0955 26.0698 56.4233 26.1264 56.7848 26.1264C57.0429 26.1264 57.2735 26.0981 57.4771 26.0445C57.6803 25.9889 57.879 25.9148 58.0728 25.82V24.5517H57.1914C57.1075 24.5517 57.0422 24.5293 56.9959 24.4825C56.9491 24.4347 56.9252 24.3782 56.9252 24.3109V23.5743H59.2489V23.5745Z" fill="#6D5ED4"/>
<path d="M67.1844 23.584C67.1844 24.0984 67.0991 24.5725 66.9297 25.0105C66.7601 25.4465 66.5205 25.8251 66.2107 26.1451C65.9008 26.4652 65.5282 26.7138 65.0921 26.8934C64.6565 27.0719 64.1722 27.1618 63.6398 27.1618C63.1106 27.1618 62.628 27.0721 62.1924 26.8934C61.7564 26.7138 61.3827 26.4652 61.0714 26.1451C60.7597 25.8251 60.5184 25.4465 60.3475 25.0105C60.1764 24.5725 60.0908 24.0984 60.0908 23.584C60.0908 23.07 60.1761 22.5959 60.3475 22.1579C60.5181 21.7218 60.7597 21.3433 61.0714 21.0232C61.3827 20.7032 61.7564 20.4545 62.1924 20.2749C62.628 20.0965 63.1106 20.0068 63.6398 20.0068C63.995 20.0068 64.3291 20.0477 64.6419 20.1296C64.9548 20.2115 65.2422 20.3285 65.5038 20.4779C65.7653 20.6293 65.9998 20.8107 66.208 21.0264C66.4164 21.2409 66.5929 21.48 66.7384 21.7454C66.8836 22.0099 66.9941 22.2968 67.0701 22.6069C67.1459 22.9159 67.1844 23.2426 67.1844 23.584ZM65.8523 23.584C65.8523 23.1997 65.8011 22.8562 65.6978 22.5501C65.5944 22.2466 65.4475 21.986 65.2573 21.7735C65.0667 21.5607 64.8354 21.3979 64.5627 21.2848C64.2894 21.1717 63.982 21.1149 63.6401 21.1149C63.2976 21.1149 62.9902 21.1714 62.7177 21.2848C62.445 21.3979 62.2129 21.5607 62.0206 21.7735C61.8285 21.9863 61.6806 22.2466 61.5777 22.5501C61.4743 22.8565 61.4224 23.1999 61.4224 23.584C61.4224 23.9684 61.4741 24.3119 61.5777 24.6183C61.6806 24.9227 61.8285 25.1801 62.0206 25.3919C62.2129 25.6047 62.445 25.7666 62.7177 25.8787C62.9902 25.9918 63.2978 26.0493 63.6401 26.0493C63.982 26.0493 64.2894 25.9918 64.5627 25.8787C64.8352 25.7666 65.0665 25.6045 65.2573 25.3919C65.4475 25.1804 65.5944 24.9227 65.6978 24.6183C65.8011 24.3119 65.8523 23.9684 65.8523 23.584Z" fill="#6D5ED4"/>
<path d="M36.9492 33.8623H233.756" stroke="#9FC1A0" stroke-width="0.2" stroke-miterlimit="10"/>
<path d="M206.075 26.6053H198.843C198.633 26.6053 198.463 26.4352 198.463 26.2253V18.993C198.463 18.7831 198.633 18.613 198.843 18.613H206.075C206.285 18.613 206.455 18.7831 206.455 18.993V26.2253C206.455 26.4352 206.285 26.6053 206.075 26.6053Z" fill="#6D5ED4"/>
<path d="M194.922 26.6053H187.69C187.48 26.6053 187.31 26.4352 187.31 26.2253V18.993C187.31 18.7831 187.48 18.613 187.69 18.613H194.922C195.132 18.613 195.302 18.7831 195.302 18.993V26.2253C195.302 26.4352 195.132 26.6053 194.922 26.6053Z" fill="#6D5ED4"/>
<path d="M217.192 26.6053H210.032C209.802 26.6053 209.616 26.4191 209.616 26.1895V19.0288C209.616 18.7992 209.802 18.613 210.032 18.613H217.192C217.422 18.613 217.608 18.7992 217.608 19.0288V26.1895C217.608 26.4191 217.422 26.6053 217.192 26.6053Z" fill="#6D5ED4"/>
<path d="M228.367 26.6053H221.163C220.946 26.6053 220.769 26.4289 220.769 26.2109V19.0074C220.769 18.7897 220.946 18.613 221.163 18.613H228.367C228.585 18.613 228.761 18.7895 228.761 19.0074V26.2109C228.761 26.4286 228.585 26.6053 228.367 26.6053Z" fill="#6D5ED4"/>
<path d="M228.881 39.8217H203.044V44.453H228.881V39.8217Z" fill="#9181FF"/>
<path d="M7.96513 24.3136C8.76048 23.0661 10.0814 22.4423 11.9275 22.4423C13.7732 22.4423 15.0943 23.0663 15.8899 24.3136C16.6853 25.5613 17.0833 27.2864 17.0833 29.4886C17.0833 31.7038 16.6853 33.4415 15.8899 34.702C15.0941 35.9622 13.7732 36.5925 11.9275 36.5925C10.0814 36.5925 8.76048 35.9624 7.96513 34.702C7.16928 33.4418 6.77173 31.7038 6.77173 29.4886C6.77173 27.2864 7.16928 25.5613 7.96513 24.3136ZM14.2668 27.1111C14.1457 26.4683 13.9039 25.9431 13.5412 25.5358C13.1782 25.1284 12.6403 24.9247 11.9275 24.9247C11.2143 24.9247 10.6768 25.1284 10.3139 25.5358C9.9512 25.9433 9.70916 26.4686 9.58826 27.1111C9.46712 27.7541 9.40691 28.5466 9.40691 29.4884C9.40691 30.4561 9.46419 31.2675 9.57875 31.9232C9.69332 32.5789 9.93512 33.1071 10.3044 33.5081C10.6734 33.9091 11.2143 34.1097 11.9275 34.1097C12.6403 34.1097 13.1814 33.9091 13.5507 33.5081C13.9197 33.1071 14.1617 32.5789 14.2763 31.9232C14.3909 31.2678 14.4481 30.4561 14.4481 29.4884C14.4481 28.5466 14.3877 27.7541 14.2668 27.1111Z" fill="white"/>
<path d="M18.9932 33.9188V31.8182L25.2376 22.8811H28.3502V31.5888H30.0307V33.9186H28.3502V36.6303H25.6768V33.9186H18.9932V33.9188ZM25.8486 25.7459L21.934 31.5893H25.8486V25.7459Z" fill="white"/>
</g>
<defs>
<clipPath id="clip0_952_2790">
<rect width="234" height="50.2125" fill="white" transform="translate(0 0.849976)"/>
</clipPath>
</defs>
</svg>
