<svg width="234" height="51" viewBox="0 0 234 51" fill="none" xmlns="http://www.w3.org/2000/svg">
<g clip-path="url(#clip0_952_2703)">
<path d="M233.756 0.351105H-0.0144043V50.3021H233.756V0.351105Z" fill="white"/>
<path d="M233.756 0.187775H-0.0144043V11.177H233.756V0.187775Z" fill="#9181FF"/>
<path d="M129.353 41.6289C129.353 42.8543 128.359 43.8476 127.134 43.8476H116.586C115.361 43.8476 114.367 42.8545 114.367 41.6289V41.071C114.367 39.8457 115.361 38.8524 116.586 38.8524H127.134C128.359 38.8524 129.353 39.8454 129.353 41.071V41.6289Z" fill="#6D5ED4"/>
<path d="M111.037 41.6289C111.037 42.8543 110.044 43.8476 108.818 43.8476H98.2709C97.0455 43.8476 96.0518 42.8545 96.0518 41.6289V41.071C96.0518 39.8457 97.0453 38.8524 98.2709 38.8524H108.818C110.043 38.8524 111.037 39.8454 111.037 41.071V41.6289Z" fill="#6D5ED4"/>
<path d="M147.668 41.6289C147.668 42.8543 146.675 43.8476 145.449 43.8476H134.902C133.676 43.8476 132.683 42.8545 132.683 41.6289V41.071C132.683 39.8457 133.676 38.8524 134.902 38.8524H145.449C146.674 38.8524 147.668 39.8454 147.668 41.071V41.6289Z" fill="#6D5ED4"/>
<path d="M165.983 41.6289C165.983 42.8543 164.989 43.8476 163.764 43.8476H153.217C151.992 43.8476 150.998 42.8545 150.998 41.6289V41.071C150.998 39.8457 151.991 38.8524 153.217 38.8524H163.764C164.989 38.8524 165.983 39.8454 165.983 41.071V41.6289Z" fill="#6D5ED4"/>
<path d="M36.9685 0.351105H-0.0761719V50.3021H36.9685V0.351105Z" fill="#6D5ED4"/>
<path d="M10.8135 10.0458V14.7672H9.86658V12.7582H7.84419V14.7672H6.89722V10.0458H7.84419V11.987H9.86658V10.0458H10.8135V10.0458Z" fill="white"/>
<path d="M15.2035 13.1775H12.464C12.4865 13.448 12.5813 13.6601 12.7482 13.8132C12.915 13.9665 13.1202 14.0433 13.3637 14.0433C13.7154 14.0433 13.9658 13.8922 14.1145 13.5901H15.1358C15.0276 13.9509 14.8201 14.2475 14.5135 14.4796C14.2068 14.7119 13.8303 14.8279 13.3839 14.8279C13.0232 14.8279 12.6995 14.7477 12.4133 14.5878C12.1269 14.4277 11.9037 14.2012 11.7435 13.908C11.5834 13.615 11.5034 13.2767 11.5034 12.8933C11.5034 12.5055 11.5821 12.1652 11.7401 11.872C11.8978 11.579 12.1189 11.3535 12.4029 11.1955C12.6871 11.0378 13.0139 10.9589 13.3837 10.9589C13.7398 10.9589 14.0591 11.0356 14.3409 11.1887C14.6227 11.342 14.8416 11.5597 14.9971 11.8415C15.1526 12.1233 15.2306 12.4467 15.2306 12.8121C15.2306 12.9476 15.2216 13.0693 15.2035 13.1775ZM14.25 12.5418C14.2454 12.2983 14.1576 12.1033 13.986 11.9568C13.8144 11.8103 13.605 11.7369 13.3569 11.7369C13.1224 11.7369 12.925 11.8078 12.7651 11.95C12.6049 12.0921 12.5067 12.2892 12.4709 12.5418H14.25Z" fill="white"/>
<path d="M15.9034 11.872C16.0546 11.579 16.2596 11.3535 16.5189 11.1955C16.7783 11.0378 17.0678 10.9589 17.3881 10.9589C17.6677 10.9589 17.9124 11.0152 18.1221 11.128C18.3317 11.2409 18.4996 11.3827 18.6259 11.5541V11.0198H19.5797V14.7672H18.6259V14.2193C18.504 14.3952 18.3361 14.5405 18.1221 14.6556C17.9078 14.7706 17.6609 14.8282 17.3813 14.8282C17.0656 14.8282 16.778 14.747 16.5187 14.5844C16.2593 14.4218 16.0541 14.1934 15.9032 13.898C15.7521 13.6028 15.6768 13.2633 15.6768 12.8799C15.677 12.5011 15.7526 12.1652 15.9034 11.872ZM18.4909 12.3014C18.4007 12.1369 18.2788 12.0106 18.1255 11.9227C17.9722 11.8347 17.8076 11.7905 17.6316 11.7905C17.4559 11.7905 17.2936 11.8334 17.1446 11.919C16.9959 12.0048 16.8753 12.1298 16.7829 12.2944C16.6905 12.4591 16.6442 12.6541 16.6442 12.8794C16.6442 13.1051 16.6903 13.3023 16.7829 13.4712C16.8753 13.6404 16.9969 13.77 17.1483 13.8602C17.2994 13.9506 17.4605 13.9955 17.6319 13.9955C17.8079 13.9955 17.9724 13.9516 18.1257 13.8636C18.279 13.7756 18.4007 13.6496 18.4911 13.4848C18.5813 13.3203 18.6264 13.1229 18.6264 12.893C18.6264 12.6632 18.581 12.4662 18.4909 12.3014Z" fill="white"/>
<path d="M20.4896 11.872C20.6408 11.579 20.847 11.3535 21.1088 11.1955C21.3703 11.0378 21.6611 10.9589 21.9814 10.9589C22.2249 10.9589 22.4572 11.012 22.678 11.1178C22.8989 11.2238 23.0748 11.3647 23.2057 11.5405V9.76157H24.1661V14.7672H23.2057V14.2127C23.0885 14.3977 22.924 14.5464 22.7119 14.6592C22.4998 14.7718 22.2541 14.8284 21.9746 14.8284C21.6589 14.8284 21.3703 14.7472 21.1088 14.5846C20.8472 14.4223 20.6408 14.1937 20.4896 13.8982C20.3385 13.6031 20.2632 13.2635 20.2632 12.8801C20.2629 12.5011 20.3385 12.1652 20.4896 11.872ZM23.0768 12.3014C22.9866 12.1369 22.8647 12.0106 22.7114 11.9227C22.5581 11.8347 22.3936 11.7905 22.2176 11.7905C22.0418 11.7905 21.8795 11.8334 21.7306 11.919C21.5819 12.0048 21.4612 12.1298 21.3688 12.2944C21.2765 12.4591 21.2301 12.6541 21.2301 12.8794C21.2301 13.1051 21.2762 13.3023 21.3688 13.4712C21.4612 13.6404 21.5828 13.77 21.7342 13.8602C21.8853 13.9507 22.0465 13.9955 22.2178 13.9955C22.3938 13.9955 22.5583 13.9516 22.7117 13.8636C22.865 13.7756 22.9866 13.6496 23.077 13.4848C23.1672 13.3203 23.2123 13.1229 23.2123 12.893C23.2123 12.6632 23.1672 12.4662 23.0768 12.3014Z" fill="white"/>
<path d="M28.5492 13.1775H25.8097C25.8322 13.448 25.927 13.6601 26.094 13.8132C26.2607 13.9665 26.4659 14.0433 26.7094 14.0433C27.0612 14.0433 27.3115 13.8922 27.4602 13.5901H28.4815C28.3733 13.9509 28.1658 14.2475 27.8592 14.4796C27.5526 14.7119 27.176 14.8279 26.7297 14.8279C26.3689 14.8279 26.0452 14.7477 25.759 14.5878C25.4726 14.4277 25.2494 14.2012 25.0892 13.908C24.9291 13.615 24.8491 13.2767 24.8491 12.8933C24.8491 12.5055 24.9279 12.1652 25.0858 11.872C25.2435 11.579 25.4646 11.3535 25.7486 11.1955C26.0328 11.0378 26.3596 10.9589 26.7294 10.9589C27.0855 10.9589 27.4048 11.0356 27.6866 11.1887C27.9684 11.342 28.1873 11.5597 28.3428 11.8415C28.4983 12.1233 28.5763 12.4467 28.5763 12.8121C28.5763 12.9476 28.567 13.0693 28.5492 13.1775ZM27.5955 12.5418C27.5908 12.2983 27.5031 12.1033 27.3315 11.9568C27.1599 11.8103 26.9505 11.7369 26.7024 11.7369C26.4679 11.7369 26.2704 11.8078 26.1105 11.95C25.9504 12.0921 25.8522 12.2892 25.8163 12.5418H27.5955Z" fill="white"/>
<path d="M30.6901 11.1346C30.8863 11.022 31.1106 10.9657 31.3631 10.9657V11.96H31.1128C30.8151 11.96 30.5906 12.0299 30.4398 12.1696C30.2886 12.3095 30.2131 12.553 30.2131 12.9001V14.767H29.2661V11.0198H30.2131V11.6016C30.335 11.403 30.4939 11.2475 30.6901 11.1346Z" fill="white"/>
<path d="M44.971 24.7176V25.7925H40.8706V18.7918H42.1732V24.7176H44.971Z" fill="#6D5ED4"/>
<path d="M52.3302 22.292C52.3302 22.8063 52.2449 23.2804 52.0757 23.7185C51.9063 24.1545 51.6665 24.5331 51.3571 24.8531C51.0468 25.1732 50.6741 25.4218 50.2386 25.6014C49.8025 25.7798 49.3187 25.8698 48.7858 25.8698C48.2566 25.8698 47.774 25.7801 47.3384 25.6014C46.9024 25.4218 46.5287 25.1732 46.2174 24.8531C45.9057 24.5331 45.6648 24.1545 45.4935 23.7185C45.3224 23.2804 45.2368 22.8063 45.2368 22.292C45.2368 21.778 45.3221 21.3039 45.4935 20.8658C45.6646 20.4298 45.9057 20.0512 46.2174 19.7312C46.5287 19.4111 46.9024 19.1625 47.3384 18.9829C47.774 18.8045 48.2564 18.7148 48.7858 18.7148C49.141 18.7148 49.4751 18.7557 49.7876 18.8376C50.1008 18.9195 50.3882 19.0365 50.65 19.1859C50.9111 19.3373 51.146 19.5186 51.354 19.7344C51.5624 19.9489 51.7388 20.188 51.8841 20.4534C52.0296 20.7179 52.1398 21.0048 52.2159 21.3148C52.2919 21.6239 52.3302 21.9508 52.3302 22.292ZM50.9986 22.292C50.9986 21.9076 50.9469 21.5642 50.8436 21.258C50.7404 20.9546 50.5932 20.694 50.4031 20.4815C50.2125 20.2687 49.9812 20.1058 49.7084 19.9927C49.4352 19.8796 49.128 19.8228 48.7861 19.8228C48.4436 19.8228 48.1362 19.8794 47.8635 19.9927C47.591 20.1058 47.3587 20.2687 47.1663 20.4815C46.974 20.6942 46.8268 20.9546 46.7234 21.258C46.6201 21.5644 46.5684 21.9079 46.5684 22.292C46.5684 22.6764 46.6201 23.0199 46.7234 23.3263C46.8268 23.6307 46.9743 23.8881 47.1663 24.0999C47.3587 24.3127 47.5907 24.4746 47.8635 24.5867C48.1362 24.6998 48.4436 24.7573 48.7861 24.7573C49.128 24.7573 49.4354 24.6998 49.7084 24.5867C49.9812 24.4746 50.2122 24.3125 50.4031 24.0999C50.5935 23.8883 50.7407 23.6307 50.8436 23.3263C50.9469 23.0199 50.9986 22.6767 50.9986 22.292Z" fill="#6D5ED4"/>
<path d="M59.2489 22.2825V25.1147C58.8937 25.3762 58.5152 25.5673 58.1132 25.6882C57.7113 25.8101 57.2816 25.8698 56.8231 25.8698C56.2517 25.8698 55.7342 25.782 55.2714 25.6034C54.808 25.4267 54.4129 25.18 54.0855 24.8629C53.7577 24.5477 53.5049 24.1691 53.3275 23.7292C53.1502 23.2912 53.0615 22.8122 53.0615 22.292C53.0615 21.7653 53.1468 21.2834 53.3182 20.8451C53.4888 20.4052 53.7318 20.0276 54.0465 19.7124C54.3612 19.3953 54.7432 19.1494 55.1914 18.9758C55.6402 18.8013 56.144 18.7143 56.7022 18.7143C56.9861 18.7143 57.2518 18.7367 57.4987 18.7815C57.7454 18.8274 57.9748 18.8888 58.1861 18.9678C58.3977 19.0467 58.5905 19.1423 58.7645 19.2564C58.9386 19.3695 59.0987 19.4926 59.244 19.6281L58.8713 20.2194C58.8133 20.314 58.7372 20.3708 58.6436 20.3913C58.55 20.4127 58.4486 20.3893 58.3387 20.322C58.2319 20.2606 58.1254 20.1992 58.0192 20.1378C57.9121 20.0763 57.7937 20.0225 57.663 19.9788C57.5329 19.933 57.3854 19.895 57.2226 19.8667C57.0598 19.8384 56.8713 19.8228 56.6588 19.8228C56.3134 19.8228 56.0007 19.8804 55.7218 19.9974C55.4427 20.1144 55.2048 20.2794 55.0076 20.4949C54.8109 20.7125 54.6593 20.9709 54.5525 21.2753C54.4463 21.5778 54.3929 21.9184 54.3929 22.292C54.3929 22.692 54.4499 23.0501 54.5647 23.3653C54.6793 23.6795 54.8407 23.9459 55.0491 24.1633C55.257 24.3817 55.508 24.5477 55.8018 24.6627C56.0955 24.7778 56.4233 24.8343 56.7848 24.8343C57.0429 24.8343 57.2735 24.8061 57.4771 24.7524C57.6803 24.6969 57.879 24.6228 58.0728 24.5279V23.2597H57.1914C57.1075 23.2597 57.0422 23.2373 56.9959 23.1905C56.9491 23.1427 56.9252 23.0862 56.9252 23.0189V22.2823H59.2489V22.2825Z" fill="#6D5ED4"/>
<path d="M67.1844 22.292C67.1844 22.8063 67.0991 23.2804 66.9297 23.7185C66.7601 24.1545 66.5205 24.5331 66.2107 24.8531C65.9008 25.1732 65.5282 25.4218 65.0921 25.6014C64.6565 25.7798 64.1722 25.8698 63.6398 25.8698C63.1106 25.8698 62.628 25.7801 62.1924 25.6014C61.7564 25.4218 61.3827 25.1732 61.0714 24.8531C60.7597 24.5331 60.5184 24.1545 60.3475 23.7185C60.1764 23.2804 60.0908 22.8063 60.0908 22.292C60.0908 21.778 60.1761 21.3039 60.3475 20.8658C60.5181 20.4298 60.7597 20.0512 61.0714 19.7312C61.3827 19.4111 61.7564 19.1625 62.1924 18.9829C62.628 18.8045 63.1106 18.7148 63.6398 18.7148C63.995 18.7148 64.3291 18.7557 64.6419 18.8376C64.9548 18.9195 65.2422 19.0365 65.5038 19.1859C65.7653 19.3373 65.9998 19.5186 66.208 19.7344C66.4164 19.9489 66.5929 20.188 66.7384 20.4534C66.8836 20.7179 66.9941 21.0048 67.0701 21.3148C67.1459 21.6239 67.1844 21.9508 67.1844 22.292ZM65.8523 22.292C65.8523 21.9076 65.8011 21.5642 65.6978 21.258C65.5944 20.9546 65.4475 20.694 65.2573 20.4815C65.0667 20.2687 64.8354 20.1058 64.5627 19.9927C64.2894 19.8796 63.982 19.8228 63.6401 19.8228C63.2976 19.8228 62.9902 19.8794 62.7177 19.9927C62.445 20.1058 62.2129 20.2687 62.0206 20.4815C61.8285 20.6942 61.6806 20.9546 61.5777 21.258C61.4743 21.5644 61.4224 21.9079 61.4224 22.292C61.4224 22.6764 61.4741 23.0199 61.5777 23.3263C61.6806 23.6307 61.8285 23.8881 62.0206 24.0999C62.2129 24.3127 62.445 24.4746 62.7177 24.5867C62.9902 24.6998 63.2978 24.7573 63.6401 24.7573C63.982 24.7573 64.2894 24.6998 64.5627 24.5867C64.8352 24.4746 65.0665 24.3125 65.2573 24.0999C65.4475 23.8883 65.5944 23.6307 65.6978 23.3263C65.8011 23.0199 65.8523 22.6767 65.8523 22.292Z" fill="#6D5ED4"/>
<path d="M36.9492 33.0748H233.756" stroke="#9FC1A0" stroke-width="0.2" stroke-miterlimit="10"/>
<path d="M206.075 26.2883H198.843C198.633 26.2883 198.463 26.1182 198.463 25.9083V18.676C198.463 18.4661 198.633 18.296 198.843 18.296H206.075C206.285 18.296 206.455 18.4661 206.455 18.676V25.9083C206.455 26.1182 206.285 26.2883 206.075 26.2883Z" fill="#6D5ED4"/>
<path d="M217.192 26.2883H210.032C209.802 26.2883 209.616 26.1021 209.616 25.8725V18.7118C209.616 18.4822 209.802 18.296 210.032 18.296H217.192C217.422 18.296 217.608 18.4822 217.608 18.7118V25.8725C217.608 26.1021 217.422 26.2883 217.192 26.2883Z" fill="#6D5ED4"/>
<path d="M228.367 26.2883H221.163C220.946 26.2883 220.769 26.1118 220.769 25.8939V18.6904C220.769 18.4727 220.946 18.296 221.163 18.296H228.367C228.585 18.296 228.761 18.4725 228.761 18.6904V25.8939C228.761 26.1118 228.585 26.2883 228.367 26.2883Z" fill="#6D5ED4"/>
<path d="M8.07987 23.4686C8.87523 22.2211 10.1961 21.5973 12.0423 21.5973C13.8879 21.5973 15.2091 22.2213 16.0047 23.4686C16.8 24.7163 17.1981 26.4414 17.1981 28.6436C17.1981 30.8588 16.8 32.5965 16.0047 33.857C15.2088 35.1172 13.8879 35.7475 12.0423 35.7475C10.1961 35.7475 8.87523 35.1174 8.07987 33.857C7.28403 32.5968 6.88647 30.8588 6.88647 28.6436C6.88623 26.4414 7.28403 24.7166 8.07987 23.4686ZM14.3815 26.2664C14.2604 25.6236 14.0186 25.0983 13.6559 24.691C13.293 24.2837 12.755 24.0799 12.0423 24.0799C11.3291 24.0799 10.7916 24.2837 10.4286 24.691C10.0659 25.0985 9.82391 25.6238 9.70301 26.2664C9.58186 26.9094 9.52166 27.7018 9.52166 28.6436C9.52166 29.6113 9.57894 30.4228 9.6935 31.0785C9.80806 31.7342 10.0499 32.2624 10.4191 32.6633C10.7882 33.0643 11.3291 33.2649 12.0423 33.2649C12.755 33.2649 13.2961 33.0643 13.6654 32.6633C14.0344 32.2624 14.2765 31.7342 14.391 31.0785C14.5056 30.423 14.5629 29.6113 14.5629 28.6436C14.5629 27.7018 14.5024 26.9094 14.3815 26.2664Z" fill="white"/>
<path d="M28.5795 24.1752H22.3924V27.4405C22.6598 27.1097 23.0418 26.8389 23.5381 26.6288C24.0346 26.4187 24.5628 26.3139 25.1229 26.3139C26.1413 26.3139 26.9754 26.5367 27.6245 26.9822C28.2739 27.4281 28.7446 27.9977 29.0376 28.6914C29.3303 29.3856 29.4768 30.1269 29.4768 30.9161C29.4768 32.3803 29.0597 33.5579 28.2261 34.449C27.3922 35.3402 26.2049 35.7858 24.6647 35.7858C23.2134 35.7858 22.0546 35.4231 21.1893 34.6974C20.3232 33.9718 19.8336 33.0233 19.7188 31.8521H22.3159C22.4305 32.3616 22.6884 32.7689 23.0893 33.0743C23.4903 33.3797 24.0027 33.5325 24.6267 33.5325C25.3776 33.5325 25.9444 33.2971 26.3263 32.8262C26.708 32.3552 26.8991 31.7315 26.8991 30.9546C26.8991 30.1654 26.7049 29.5638 26.3166 29.1502C25.928 28.7365 25.3584 28.5296 24.6074 28.5296C24.0729 28.5296 23.627 28.6631 23.2707 28.9305C22.9141 29.1979 22.6596 29.5545 22.5068 29.9999H19.9481V21.8264H28.5795V24.1752Z" fill="white"/>
<path d="M186.786 18.7957H80.7546V25.7888H186.786V18.7957Z" fill="#9181FF"/>
<path d="M186.885 18.7957H179.892V25.7888H186.885V18.7957Z" fill="#6D5ED4"/>
<path d="M65.5687 3.47501H39.7312V8.10626H65.5687V3.47501Z" fill="white" fill-opacity="0.58"/>
<path d="M229.369 3.47501H203.531V8.10626H229.369V3.47501Z" fill="white" fill-opacity="0.58"/>
</g>
<defs>
<clipPath id="clip0_952_2703">
<rect width="234" height="50.2125" fill="white" transform="translate(0 0.0625)"/>
</clipPath>
</defs>
</svg>
