<svg width="234" height="51" viewBox="0 0 234 51" fill="none" xmlns="http://www.w3.org/2000/svg">
<g clip-path="url(#clip0_952_2873)">
<path d="M233.871 0.728638H0.100342V50.6796H233.871V0.728638Z" fill="white"/>
<path d="M233.871 0.809082H0.100342V11.7983H233.871V0.809082Z" fill="#9181FF"/>
<path d="M74.8673 42.2502C74.8673 43.4755 73.8738 44.4688 72.6482 44.4688H62.1009C60.8756 44.4688 59.8818 43.4758 59.8818 42.2502V41.6922C59.8818 40.4669 60.8754 39.4736 62.1009 39.4736H72.6482C73.8736 39.4736 74.8673 40.4667 74.8673 41.6922V42.2502Z" fill="#6D5ED4"/>
<path d="M56.5519 42.2502C56.5519 43.4755 55.5584 44.4688 54.3328 44.4688H43.7855C42.5602 44.4688 41.5664 43.4758 41.5664 42.2502V41.6922C41.5664 40.4669 42.5599 39.4736 43.7855 39.4736H54.3328C55.5581 39.4736 56.5519 40.4667 56.5519 41.6922V42.2502V42.2502Z" fill="#6D5ED4"/>
<path d="M93.1828 42.2502C93.1828 43.4755 92.1892 44.4688 90.9637 44.4688H80.4164C79.191 44.4688 78.1973 43.4758 78.1973 42.2502V41.6922C78.1973 40.4669 79.1908 39.4736 80.4164 39.4736H90.9637C92.189 39.4736 93.1828 40.4667 93.1828 41.6922V42.2502Z" fill="#6D5ED4"/>
<path d="M111.498 42.2502C111.498 43.4755 110.504 44.4688 109.278 44.4688H98.732C97.5062 44.4688 96.5125 43.4758 96.5125 42.2502V41.6922C96.5125 40.4669 97.506 39.4736 98.732 39.4736H109.278C110.504 39.4736 111.498 40.4667 111.498 41.6922V42.2502Z" fill="#6D5ED4"/>
<path d="M45.0857 25.3388V26.4138H40.9854V19.413H42.288V25.3388H45.0857V25.3388Z" fill="#6D5ED4"/>
<path d="M52.4449 22.9133C52.4449 23.4276 52.3596 23.9017 52.1905 24.3397C52.0211 24.7758 51.7812 25.1543 51.4719 25.4744C51.1616 25.7944 50.7889 26.043 50.3533 26.2227C49.9172 26.4011 49.4334 26.491 48.9006 26.491C48.3714 26.491 47.8888 26.4013 47.4532 26.2227C47.0171 26.043 46.6434 25.7944 46.3322 25.4744C46.0204 25.1543 45.7796 24.7758 45.6082 24.3397C45.4371 23.9017 45.3516 23.4276 45.3516 22.9133C45.3516 22.3992 45.4369 21.9251 45.6082 21.4871C45.7793 21.051 46.0204 20.6725 46.3322 20.3524C46.6434 20.0324 47.0171 19.7838 47.4532 19.6041C47.8888 19.4257 48.3711 19.336 48.9006 19.336C49.2557 19.336 49.5899 19.3769 49.9024 19.4588C50.2156 19.5407 50.503 19.6577 50.7648 19.8072C51.0258 19.9585 51.2608 20.1399 51.4687 20.3556C51.6771 20.5701 51.8536 20.8092 51.9989 21.0747C52.1444 21.3391 52.2546 21.626 52.3306 21.9361C52.4067 22.2452 52.4449 22.572 52.4449 22.9133ZM51.1133 22.9133C51.1133 22.5289 51.0616 22.1854 50.9583 21.8793C50.8552 21.5758 50.708 21.3152 50.5178 21.1027C50.3272 20.8899 50.0959 20.7271 49.8232 20.614C49.5499 20.5009 49.2428 20.4441 48.9008 20.4441C48.5583 20.4441 48.251 20.5006 47.9782 20.614C47.7057 20.7271 47.4734 20.8899 47.2811 21.1027C47.0888 21.3155 46.9415 21.5758 46.8382 21.8793C46.7348 22.1857 46.6832 22.5291 46.6832 22.9133C46.6832 23.2977 46.7348 23.6411 46.8382 23.9475C46.9415 24.2519 47.089 24.5093 47.2811 24.7212C47.4734 24.934 47.7055 25.0958 47.9782 25.2079C48.251 25.321 48.5583 25.3786 48.9008 25.3786C49.2428 25.3786 49.5502 25.321 49.8232 25.2079C50.0959 25.0958 50.327 24.9337 50.5178 24.7212C50.7082 24.5096 50.8554 24.2519 50.9583 23.9475C51.0616 23.6411 51.1133 23.2979 51.1133 22.9133Z" fill="#6D5ED4"/>
<path d="M59.3636 22.9038V25.7359C59.0085 25.9974 58.6299 26.1885 58.228 26.3094C57.826 26.4313 57.3963 26.491 56.9378 26.491C56.3665 26.491 55.849 26.4033 55.3861 26.2246C54.9227 26.0479 54.5276 25.8012 54.2003 25.4841C53.8724 25.1689 53.6197 24.7904 53.4422 24.3504C53.265 23.9124 53.1763 23.4334 53.1763 22.9133C53.1763 22.3865 53.2616 21.9046 53.4329 21.4664C53.6036 21.0264 53.8466 20.6488 54.1613 20.3337C54.4759 20.0165 54.8579 19.7706 55.3062 19.5971C55.7549 19.4225 56.2587 19.3355 56.8169 19.3355C57.1009 19.3355 57.3666 19.3579 57.6135 19.4028C57.8602 19.4486 58.0895 19.51 58.3009 19.589C58.5124 19.668 58.7053 19.7635 58.8793 19.8776C59.0533 19.9907 59.2135 20.1138 59.3587 20.2493L58.9861 20.8407C58.928 20.9352 58.852 20.992 58.7584 21.0125C58.6648 21.034 58.5634 21.0106 58.4535 20.9433C58.3467 20.8819 58.2402 20.8204 58.1339 20.759C58.0269 20.6976 57.9084 20.6437 57.7778 20.6001C57.6476 20.5543 57.5002 20.5162 57.3373 20.488C57.1745 20.4597 56.9861 20.4441 56.7735 20.4441C56.4281 20.4441 56.1154 20.5016 55.8366 20.6186C55.5575 20.7356 55.3196 20.9006 55.1224 21.1161C54.9257 21.3338 54.7741 21.5921 54.6673 21.8966C54.561 22.1991 54.5076 22.5396 54.5076 22.9133C54.5076 23.3133 54.5647 23.6713 54.6795 23.9865C54.794 24.3007 54.9554 24.5671 55.1638 24.7845C55.3717 25.0029 55.6228 25.1689 55.9165 25.284C56.2102 25.399 56.5381 25.4556 56.8996 25.4556C57.1577 25.4556 57.3883 25.4273 57.5918 25.3737C57.7951 25.3181 57.9937 25.244 58.1875 25.1492V23.881H57.3061C57.2223 23.881 57.157 23.8585 57.1106 23.8117C57.0638 23.764 57.04 23.7074 57.04 23.6401V22.9035L59.3636 22.9038Z" fill="#6D5ED4"/>
<path d="M67.2992 22.9133C67.2992 23.4276 67.2139 23.9017 67.0445 24.3397C66.8748 24.7758 66.6352 25.1543 66.3254 25.4744C66.0156 25.7944 65.6429 26.043 65.2068 26.2227C64.7713 26.4011 64.2869 26.491 63.7546 26.491C63.2254 26.491 62.7428 26.4013 62.3072 26.2227C61.8711 26.043 61.4974 25.7944 61.1862 25.4744C60.8744 25.1543 60.6331 24.7758 60.4622 24.3397C60.2911 23.9017 60.2056 23.4276 60.2056 22.9133C60.2056 22.3992 60.2909 21.9251 60.4622 21.4871C60.6329 21.051 60.8744 20.6725 61.1862 20.3524C61.4974 20.0324 61.8711 19.7838 62.3072 19.6041C62.7428 19.4257 63.2254 19.336 63.7546 19.336C64.1097 19.336 64.4439 19.3769 64.7566 19.4588C65.0696 19.5407 65.357 19.6577 65.6185 19.8072C65.8801 19.9585 66.1146 20.1399 66.3227 20.3556C66.5311 20.5701 66.7076 20.8092 66.8531 21.0747C66.9984 21.3391 67.1088 21.626 67.1849 21.9361C67.2607 22.2452 67.2992 22.572 67.2992 22.9133ZM65.9671 22.9133C65.9671 22.5289 65.9159 22.1854 65.8125 21.8793C65.7092 21.5758 65.5622 21.3152 65.3721 21.1027C65.1815 20.8899 64.9502 20.7271 64.6774 20.614C64.4042 20.5009 64.0968 20.4441 63.7548 20.4441C63.4123 20.4441 63.105 20.5006 62.8325 20.614C62.5597 20.7271 62.3277 20.8899 62.1353 21.1027C61.9433 21.3155 61.7953 21.5758 61.6924 21.8793C61.5891 22.1857 61.5372 22.5291 61.5372 22.9133C61.5372 23.2977 61.5888 23.6411 61.6924 23.9475C61.7953 24.2519 61.9433 24.5093 62.1353 24.7212C62.3277 24.934 62.5597 25.0958 62.8325 25.2079C63.105 25.321 63.4126 25.3786 63.7548 25.3786C64.0968 25.3786 64.4042 25.321 64.6774 25.2079C64.9499 25.0958 65.1812 24.9337 65.3721 24.7212C65.5622 24.5096 65.7092 24.2519 65.8125 23.9475C65.9159 23.6411 65.9671 23.2979 65.9671 22.9133Z" fill="#6D5ED4"/>
<path d="M37.0642 33.696H233.871" stroke="#9FC1A0" stroke-width="0.2" stroke-miterlimit="10"/>
<path d="M206.19 26.9096H198.958C198.748 26.9096 198.578 26.7394 198.578 26.5295V19.2972C198.578 19.0874 198.748 18.9172 198.958 18.9172H206.19C206.4 18.9172 206.57 19.0874 206.57 19.2972V26.5295C206.57 26.7394 206.4 26.9096 206.19 26.9096Z" fill="#6D5ED4"/>
<path d="M217.307 26.9096H210.147C209.917 26.9096 209.731 26.7233 209.731 26.4937V19.3331C209.731 19.1035 209.917 18.9172 210.147 18.9172H217.307C217.537 18.9172 217.723 19.1035 217.723 19.3331V26.4937C217.723 26.7233 217.537 26.9096 217.307 26.9096Z" fill="#6D5ED4"/>
<path d="M228.482 26.9096H221.278C221.061 26.9096 220.884 26.7331 220.884 26.5152V19.3116C220.884 19.094 221.061 18.9172 221.278 18.9172H228.482C228.7 18.9172 228.876 19.0937 228.876 19.3116V26.5152C228.876 26.7331 228.7 26.9096 228.482 26.9096Z" fill="#6D5ED4"/>
<path d="M186.901 19.4169H80.8694V26.4101H186.901V19.4169Z" fill="#9181FF"/>
<path d="M187 19.4169H180.007V26.4101H187V19.4169Z" fill="#6D5ED4"/>
<path d="M65.6835 4.09625H39.8459V8.7275H65.6835V4.09625Z" fill="white" fill-opacity="0.58"/>
<path d="M229.483 4.09625H203.646V8.7275H229.483V4.09625Z" fill="white" fill-opacity="0.58"/>
<path d="M36.9685 0.776123H-0.0761719V50.7271H36.9685V0.776123Z" fill="#6D5ED4"/>
<path d="M10.8135 10.4708V15.1923H9.86658V13.1833H7.84419V15.1923H6.89722V10.4708H7.84419V12.4121H9.86658V10.4708H10.8135V10.4708Z" fill="white"/>
<path d="M15.2035 13.6025H12.464C12.4865 13.8731 12.5813 14.0851 12.7482 14.2382C12.915 14.3915 13.1202 14.4683 13.3637 14.4683C13.7154 14.4683 13.9658 14.3172 14.1145 14.0152H15.1358C15.0276 14.3759 14.8201 14.6726 14.5135 14.9046C14.2068 15.1369 13.8303 15.253 13.3839 15.253C13.0232 15.253 12.6995 15.1728 12.4133 15.0129C12.1269 14.8527 11.9037 14.6263 11.7435 14.333C11.5834 14.0401 11.5034 13.7017 11.5034 13.3183C11.5034 12.9305 11.5821 12.5902 11.7401 12.297C11.8978 12.004 12.1189 11.7785 12.4029 11.6206C12.6871 11.4629 13.0139 11.3839 13.3837 11.3839C13.7398 11.3839 14.0591 11.4607 14.3409 11.6138C14.6227 11.7671 14.8416 11.9848 14.9971 12.2665C15.1526 12.5483 15.2306 12.8718 15.2306 13.2371C15.2306 13.3727 15.2216 13.4943 15.2035 13.6025ZM14.25 12.9668C14.2454 12.7233 14.1576 12.5283 13.986 12.3818C13.8144 12.2353 13.605 12.162 13.3569 12.162C13.1224 12.162 12.925 12.2329 12.7651 12.375C12.6049 12.5171 12.5067 12.7143 12.4709 12.9668H14.25Z" fill="white"/>
<path d="M15.9034 12.297C16.0546 12.004 16.2596 11.7785 16.5189 11.6206C16.7783 11.4629 17.0678 11.3839 17.3881 11.3839C17.6677 11.3839 17.9124 11.4402 18.1221 11.5531C18.3317 11.6659 18.4996 11.8078 18.6259 11.9791V11.4448H19.5797V15.1923H18.6259V14.6443C18.504 14.8203 18.3361 14.9656 18.1221 15.0806C17.9078 15.1957 17.6609 15.2532 17.3813 15.2532C17.0656 15.2532 16.778 15.172 16.5187 15.0094C16.2593 14.8469 16.0541 14.6185 15.9032 14.323C15.7521 14.0279 15.6768 13.6883 15.6768 13.3049C15.677 12.9261 15.7526 12.5902 15.9034 12.297ZM18.4909 12.7265C18.4007 12.562 18.2788 12.4357 18.1255 12.3477C17.9722 12.2597 17.8076 12.2156 17.6316 12.2156C17.4559 12.2156 17.2936 12.2585 17.1446 12.344C16.9959 12.4298 16.8753 12.5549 16.7829 12.7194C16.6905 12.8842 16.6442 13.0792 16.6442 13.3044C16.6442 13.5301 16.6903 13.7273 16.7829 13.8962C16.8753 14.0654 16.9969 14.1951 17.1483 14.2853C17.2994 14.3757 17.4605 14.4205 17.6319 14.4205C17.8079 14.4205 17.9724 14.3767 18.1257 14.2887C18.279 14.2007 18.4007 14.0747 18.4911 13.9099C18.5813 13.7454 18.6264 13.5479 18.6264 13.3181C18.6264 13.0882 18.581 12.8913 18.4909 12.7265Z" fill="white"/>
<path d="M20.4896 12.297C20.6408 12.004 20.847 11.7785 21.1088 11.6206C21.3703 11.4629 21.6611 11.3839 21.9814 11.3839C22.2249 11.3839 22.4572 11.437 22.678 11.5428C22.8989 11.6488 23.0748 11.7897 23.2057 11.9655V10.1866H24.1661V15.1922H23.2057V14.6377C23.0885 14.8227 22.924 14.9714 22.7119 15.0843C22.4998 15.1969 22.2541 15.2534 21.9746 15.2534C21.6589 15.2534 21.3703 15.1722 21.1088 15.0097C20.8472 14.8473 20.6408 14.6187 20.4896 14.3233C20.3385 14.0281 20.2632 13.6885 20.2632 13.3051C20.2629 12.9261 20.3385 12.5902 20.4896 12.297ZM23.0768 12.7265C22.9866 12.5619 22.8647 12.4357 22.7114 12.3477C22.5581 12.2597 22.3936 12.2156 22.2176 12.2156C22.0418 12.2156 21.8795 12.2585 21.7306 12.344C21.5819 12.4298 21.4612 12.5549 21.3688 12.7194C21.2765 12.8842 21.2301 13.0792 21.2301 13.3044C21.2301 13.5301 21.2762 13.7273 21.3688 13.8962C21.4612 14.0654 21.5828 14.1951 21.7342 14.2852C21.8853 14.3757 22.0465 14.4205 22.2178 14.4205C22.3938 14.4205 22.5583 14.3766 22.7117 14.2887C22.865 14.2007 22.9866 14.0746 23.077 13.9099C23.1672 13.7453 23.2123 13.5479 23.2123 13.318C23.2123 13.0882 23.1672 12.8912 23.0768 12.7265Z" fill="white"/>
<path d="M28.5492 13.6025H25.8097C25.8322 13.8731 25.927 14.0851 26.094 14.2382C26.2607 14.3915 26.4659 14.4683 26.7094 14.4683C27.0612 14.4683 27.3115 14.3172 27.4602 14.0152H28.4815C28.3733 14.3759 28.1658 14.6726 27.8592 14.9046C27.5526 15.1369 27.176 15.253 26.7297 15.253C26.3689 15.253 26.0452 15.1728 25.759 15.0129C25.4726 14.8527 25.2494 14.6263 25.0892 14.333C24.9291 14.0401 24.8491 13.7017 24.8491 13.3183C24.8491 12.9305 24.9279 12.5902 25.0858 12.297C25.2435 12.004 25.4646 11.7785 25.7486 11.6206C26.0328 11.4629 26.3596 11.3839 26.7294 11.3839C27.0855 11.3839 27.4048 11.4607 27.6866 11.6138C27.9684 11.7671 28.1873 11.9848 28.3428 12.2665C28.4983 12.5483 28.5763 12.8718 28.5763 13.2371C28.5763 13.3727 28.567 13.4943 28.5492 13.6025ZM27.5955 12.9668C27.5908 12.7233 27.5031 12.5283 27.3315 12.3818C27.1599 12.2353 26.9505 12.162 26.7024 12.162C26.4679 12.162 26.2704 12.2329 26.1105 12.375C25.9504 12.5171 25.8522 12.7143 25.8163 12.9668H27.5955Z" fill="white"/>
<path d="M30.6901 11.5596C30.8863 11.447 31.1106 11.3907 31.3631 11.3907V12.3849H31.1128C30.8151 12.3849 30.5906 12.4549 30.4398 12.5946C30.2886 12.7345 30.2131 12.978 30.2131 13.3251V15.192H29.2661V11.4448H30.2131V12.0266C30.335 11.828 30.4939 11.6725 30.6901 11.5596Z" fill="white"/>
<path d="M8.36747 23.7527C9.16283 22.5052 10.4837 21.8815 12.3299 21.8815C14.1755 21.8815 15.4967 22.5055 16.2923 23.7527C17.0876 25.0005 17.4857 26.7255 17.4857 28.9278C17.4857 31.143 17.0876 32.8807 16.2923 34.1411C15.4964 35.4013 14.1755 36.0316 12.3299 36.0316C10.4837 36.0316 9.16283 35.4016 8.36747 34.1411C7.57163 32.8809 7.17407 31.143 7.17407 28.9278C7.17383 26.7255 7.57138 25.0005 8.36747 23.7527ZM14.6691 26.5503C14.548 25.9075 14.3062 25.3822 13.9435 24.9749C13.5806 24.5676 13.0426 24.3638 12.3299 24.3638C11.6167 24.3638 11.0792 24.5676 10.7162 24.9749C10.3535 25.3825 10.1115 25.9077 9.9906 26.5503C9.86946 27.1933 9.80925 27.9857 9.80925 28.9276C9.80925 29.8952 9.86654 30.7067 9.9811 31.3624C10.0957 32.0181 10.3375 32.5463 10.7067 32.9472C11.0758 33.3482 11.6167 33.5488 12.3299 33.5488C13.0426 33.5488 13.5837 33.3482 13.953 32.9472C14.322 32.5463 14.5641 32.0181 14.6786 31.3624C14.7932 30.7069 14.8505 29.8952 14.8505 28.9276C14.8505 27.9857 14.7898 27.1933 14.6691 26.5503Z" fill="white"/>
<path d="M28.3705 24.1727L23.291 36.0697H20.5793L25.6971 24.4784H19.166V22.1869H28.3703V24.1727H28.3705Z" fill="white"/>
</g>
<defs>
<clipPath id="clip0_952_2873">
<rect width="234" height="50.2125" fill="white" transform="translate(0 0.487549)"/>
</clipPath>
</defs>
</svg>
