<svg width="234" height="51" viewBox="0 0 234 51" fill="none" xmlns="http://www.w3.org/2000/svg">
<g clip-path="url(#clip0_952_2964)">
<path d="M233.871 1.10321H0.100342V51.0542H233.871V1.10321Z" fill="white"/>
<path d="M233.871 1.10321H0.100342V12.0924H233.871V1.10321Z" fill="#9181FF"/>
<path d="M134.802 41.8427C134.802 43.068 133.808 44.0613 132.583 44.0613H122.035C120.81 44.0613 119.816 43.0682 119.816 41.8427V41.2845C119.816 40.0591 120.81 39.0659 122.035 39.0659H132.583C133.808 39.0659 134.802 40.0589 134.802 41.2845V41.8427Z" fill="#6D5ED4"/>
<path d="M116.486 41.8427C116.486 43.068 115.493 44.0613 114.267 44.0613H103.72C102.495 44.0613 101.501 43.0682 101.501 41.8427V41.2845C101.501 40.0591 102.494 39.0659 103.72 39.0659H114.267C115.492 39.0659 116.486 40.0589 116.486 41.2845V41.8427Z" fill="#6D5ED4"/>
<path d="M153.117 41.8427C153.117 43.068 152.124 44.0613 150.898 44.0613H140.351C139.125 44.0613 138.132 43.0682 138.132 41.8427V41.2845C138.132 40.0591 139.125 39.0659 140.351 39.0659H150.898C152.123 39.0659 153.117 40.0589 153.117 41.2845V41.8427Z" fill="#6D5ED4"/>
<path d="M171.432 41.8427C171.432 43.068 170.438 44.0613 169.213 44.0613H158.666C157.441 44.0613 156.447 43.0682 156.447 41.8427V41.2845C156.447 40.0591 157.44 39.0659 158.666 39.0659H169.213C170.438 39.0659 171.432 40.0589 171.432 41.2845V41.8427Z" fill="#6D5ED4"/>
<path d="M124.954 26.9281V28.003H120.853V21.0023H122.156V26.9281H124.954Z" fill="#6D5ED4"/>
<path d="M132.313 24.5028C132.313 25.0171 132.228 25.4912 132.059 25.9292C131.889 26.3652 131.649 26.7438 131.34 27.0638C131.03 27.3839 130.657 27.6325 130.221 27.8121C129.785 27.9906 129.302 28.0805 128.769 28.0805C128.24 28.0805 127.757 27.9908 127.321 27.8121C126.885 27.6325 126.512 27.3839 126.2 27.0638C125.889 26.7438 125.648 26.3652 125.476 25.9292C125.305 25.4912 125.22 25.0171 125.22 24.5028C125.22 23.9887 125.305 23.5146 125.476 23.0766C125.648 22.6405 125.889 22.262 126.2 21.9419C126.512 21.6219 126.885 21.3732 127.321 21.1936C127.757 21.0152 128.239 20.9255 128.769 20.9255C129.124 20.9255 129.458 20.9664 129.771 21.0483C130.084 21.1302 130.371 21.2472 130.633 21.3966C130.894 21.548 131.129 21.7294 131.337 21.9451C131.545 22.1596 131.722 22.3987 131.867 22.6641C132.013 22.9286 132.123 23.2155 132.199 23.5256C132.275 23.8344 132.313 24.1613 132.313 24.5028ZM130.981 24.5028C130.981 24.1184 130.93 23.7749 130.826 23.4688C130.723 23.1653 130.576 22.9047 130.386 22.6922C130.195 22.4794 129.964 22.3166 129.691 22.2035C129.418 22.0904 129.111 22.0336 128.769 22.0336C128.426 22.0336 128.119 22.0901 127.846 22.2035C127.573 22.3166 127.341 22.4794 127.149 22.6922C126.957 22.905 126.809 23.1653 126.706 23.4688C126.603 23.7752 126.551 24.1186 126.551 24.5028C126.551 24.8871 126.603 25.2306 126.706 25.537C126.809 25.8414 126.957 26.0988 127.149 26.3106C127.341 26.5234 127.573 26.6853 127.846 26.7974C128.119 26.9105 128.426 26.968 128.769 26.968C129.111 26.968 129.418 26.9105 129.691 26.7974C129.964 26.6853 130.195 26.5232 130.386 26.3106C130.576 26.0991 130.723 25.8414 130.826 25.537C130.93 25.2303 130.981 24.8871 130.981 24.5028Z" fill="#6D5ED4"/>
<path d="M139.232 24.493V27.3251C138.876 27.5867 138.498 27.7778 138.096 27.8987C137.694 28.0206 137.264 28.0803 136.806 28.0803C136.234 28.0803 135.717 27.9925 135.254 27.8139C134.791 27.6371 134.396 27.3905 134.068 27.0733C133.74 26.7582 133.488 26.3796 133.31 25.9397C133.133 25.5016 133.044 25.0227 133.044 24.5025C133.044 23.9758 133.129 23.4939 133.301 23.0556C133.471 22.6156 133.714 22.2381 134.029 21.9229C134.344 21.6058 134.726 21.3598 135.174 21.1863C135.623 21.0118 136.127 20.9247 136.685 20.9247C136.969 20.9247 137.234 20.9472 137.481 20.992C137.728 21.0378 137.957 21.0993 138.169 21.1782C138.38 21.2572 138.573 21.3528 138.747 21.4668C138.921 21.5799 139.081 21.703 139.227 21.8386L138.854 22.4299C138.796 22.5245 138.72 22.5813 138.626 22.6017C138.533 22.6232 138.431 22.5998 138.321 22.5325C138.215 22.4711 138.108 22.4097 138.002 22.3482C137.895 22.2868 137.776 22.233 137.646 22.1893C137.516 22.1435 137.368 22.1055 137.205 22.0772C137.042 22.0489 136.854 22.0333 136.641 22.0333C136.296 22.0333 135.983 22.0908 135.704 22.2078C135.425 22.3248 135.187 22.4899 134.99 22.7053C134.794 22.923 134.642 23.1814 134.535 23.4858C134.429 23.7883 134.376 24.1288 134.376 24.5025C134.376 24.9025 134.433 25.2606 134.547 25.5757C134.662 25.8899 134.823 26.1564 135.032 26.3738C135.239 26.5922 135.491 26.7582 135.784 26.8732C136.078 26.9883 136.406 27.0448 136.767 27.0448C137.026 27.0448 137.256 27.0165 137.46 26.9629C137.663 26.9073 137.862 26.8332 138.055 26.7384V25.4702H137.174C137.09 25.4702 137.025 25.4478 136.979 25.401C136.932 25.3532 136.908 25.2966 136.908 25.2294V24.4928H139.232V24.493Z" fill="#6D5ED4"/>
<path d="M147.167 24.5028C147.167 25.0171 147.082 25.4912 146.913 25.9292C146.743 26.3652 146.503 26.7438 146.194 27.0638C145.884 27.3839 145.511 27.6325 145.075 27.8121C144.639 27.9906 144.155 28.0805 143.623 28.0805C143.094 28.0805 142.611 27.9908 142.175 27.8121C141.739 27.6325 141.366 27.3839 141.054 27.0638C140.743 26.7438 140.501 26.3652 140.33 25.9292C140.159 25.4912 140.074 25.0171 140.074 24.5028C140.074 23.9887 140.159 23.5146 140.33 23.0766C140.501 22.6405 140.743 22.262 141.054 21.9419C141.366 21.6219 141.739 21.3732 142.175 21.1936C142.611 21.0152 143.094 20.9255 143.623 20.9255C143.978 20.9255 144.312 20.9664 144.625 21.0483C144.938 21.1302 145.225 21.2472 145.487 21.3966C145.748 21.548 145.983 21.7294 146.191 21.9451C146.399 22.1596 146.576 22.3987 146.721 22.6641C146.867 22.9286 146.977 23.2155 147.053 23.5256C147.129 23.8344 147.167 24.1613 147.167 24.5028ZM145.835 24.5028C145.835 24.1184 145.784 23.7749 145.68 23.4688C145.577 23.1653 145.43 22.9047 145.24 22.6922C145.049 22.4794 144.818 22.3166 144.545 22.2035C144.272 22.0904 143.965 22.0336 143.623 22.0336C143.28 22.0336 142.973 22.0901 142.7 22.2035C142.428 22.3166 142.196 22.4794 142.003 22.6922C141.811 22.905 141.663 23.1653 141.56 23.4688C141.457 23.7752 141.405 24.1186 141.405 24.5028C141.405 24.8871 141.457 25.2306 141.56 25.537C141.663 25.8414 141.811 26.0988 142.003 26.3106C142.196 26.5234 142.428 26.6853 142.7 26.7974C142.973 26.9105 143.281 26.968 143.623 26.968C143.965 26.968 144.272 26.9105 144.545 26.7974C144.818 26.6853 145.049 26.5232 145.24 26.3106C145.43 26.0991 145.577 25.8414 145.68 25.537C145.784 25.2303 145.835 24.8871 145.835 24.5028Z" fill="#6D5ED4"/>
<path d="M87.0187 21.0837H45.217V28.0769H87.0187V21.0837Z" fill="#9181FF"/>
<path d="M86.9251 21.0837H79.9319V28.0769H86.9251V21.0837Z" fill="#6D5ED4"/>
<path d="M37.0642 34.0709H233.871" stroke="#9FC1A0" stroke-width="0.2" stroke-miterlimit="10"/>
<path d="M205.519 28.0769H198.286C198.076 28.0769 197.906 27.9067 197.906 27.6968V20.4645C197.906 20.2547 198.076 20.0845 198.286 20.0845H205.519C205.728 20.0845 205.899 20.2547 205.899 20.4645V27.6968C205.898 27.9067 205.728 28.0769 205.519 28.0769Z" fill="#6D5ED4"/>
<path d="M216.472 28.0769H209.311C209.081 28.0769 208.895 27.8906 208.895 27.661V20.5004C208.895 20.2708 209.081 20.0845 209.311 20.0845H216.472C216.701 20.0845 216.888 20.2708 216.888 20.5004V27.661C216.888 27.8906 216.702 28.0769 216.472 28.0769Z" fill="#6D5ED4"/>
<path d="M228.481 28.0769H221.278C221.06 28.0769 220.884 27.9004 220.884 27.6825V20.4789C220.884 20.2613 221.06 20.0845 221.278 20.0845H228.481C228.699 20.0845 228.876 20.261 228.876 20.4789V27.6825C228.876 27.9001 228.699 28.0769 228.481 28.0769Z" fill="#6D5ED4"/>
<path d="M36.9685 0.988647H-0.0761719V50.9396H36.9685V0.988647Z" fill="#6D5ED4"/>
<path d="M10.8135 10.6833V15.4048H9.86658V13.3958H7.84419V15.4048H6.89722V10.6833H7.84419V12.6246H9.86658V10.6833H10.8135V10.6833Z" fill="white"/>
<path d="M15.2035 13.815H12.464C12.4865 14.0856 12.5813 14.2977 12.7482 14.4507C12.915 14.6041 13.1202 14.6808 13.3637 14.6808C13.7154 14.6808 13.9658 14.5297 14.1145 14.2277H15.1358C15.0276 14.5885 14.8201 14.8851 14.5135 15.1172C14.2068 15.3495 13.8303 15.4655 13.3839 15.4655C13.0232 15.4655 12.6995 15.3853 12.4133 15.2254C12.1269 15.0652 11.9037 14.8388 11.7435 14.5456C11.5834 14.2526 11.5034 13.9143 11.5034 13.5308C11.5034 13.143 11.5821 12.8028 11.7401 12.5095C11.8978 12.2165 12.1189 11.9911 12.4029 11.8331C12.6871 11.6754 13.0139 11.5964 13.3837 11.5964C13.7398 11.5964 14.0591 11.6732 14.3409 11.8263C14.6227 11.9796 14.8416 12.1973 14.9971 12.4791C15.1526 12.7608 15.2306 13.0843 15.2306 13.4497C15.2306 13.5852 15.2216 13.7068 15.2035 13.815ZM14.25 13.1793C14.2454 12.9358 14.1576 12.7408 13.986 12.5943C13.8144 12.4479 13.605 12.3745 13.3569 12.3745C13.1224 12.3745 12.925 12.4454 12.7651 12.5875C12.6049 12.7296 12.5067 12.9268 12.4709 13.1793H14.25Z" fill="white"/>
<path d="M15.9034 12.5095C16.0546 12.2165 16.2596 11.9911 16.5189 11.8331C16.7783 11.6754 17.0678 11.5964 17.3881 11.5964C17.6677 11.5964 17.9124 11.6527 18.1221 11.7656C18.3317 11.8785 18.4996 12.0203 18.6259 12.1917V11.6574H19.5797V15.4048H18.6259V14.8568C18.504 15.0328 18.3361 15.1781 18.1221 15.2931C17.9078 15.4082 17.6609 15.4657 17.3813 15.4657C17.0656 15.4657 16.778 15.3846 16.5187 15.222C16.2593 15.0594 16.0541 14.831 15.9032 14.5356C15.7521 14.2404 15.6768 13.9008 15.6768 13.5174C15.677 13.1386 15.7526 12.8028 15.9034 12.5095ZM18.4909 12.939C18.4007 12.7745 18.2788 12.6482 18.1255 12.5602C17.9722 12.4722 17.8076 12.4281 17.6316 12.4281C17.4559 12.4281 17.2936 12.471 17.1446 12.5566C16.9959 12.6424 16.8753 12.7674 16.7829 12.9319C16.6905 13.0967 16.6442 13.2917 16.6442 13.5169C16.6442 13.7427 16.6903 13.9398 16.7829 14.1088C16.8753 14.2779 16.9969 14.4076 17.1483 14.4978C17.2994 14.5882 17.4605 14.6331 17.6319 14.6331C17.8079 14.6331 17.9724 14.5892 18.1257 14.5012C18.279 14.4132 18.4007 14.2872 18.4911 14.1224C18.5813 13.9579 18.6264 13.7604 18.6264 13.5306C18.6264 13.3007 18.581 13.1038 18.4909 12.939Z" fill="white"/>
<path d="M20.4896 12.5095C20.6408 12.2165 20.847 11.991 21.1088 11.8331C21.3703 11.6754 21.6611 11.5964 21.9814 11.5964C22.2249 11.5964 22.4572 11.6495 22.678 11.7553C22.8989 11.8614 23.0748 12.0023 23.2057 12.178V10.3991H24.1661V15.4048H23.2057V14.8502C23.0885 15.0352 22.924 15.1839 22.7119 15.2968C22.4998 15.4094 22.2541 15.4659 21.9746 15.4659C21.6589 15.4659 21.3703 15.3848 21.1088 15.2222C20.8472 15.0599 20.6408 14.8312 20.4896 14.5358C20.3385 14.2406 20.2632 13.9011 20.2632 13.5176C20.2629 13.1386 20.3385 12.8027 20.4896 12.5095ZM23.0768 12.939C22.9866 12.7745 22.8647 12.6482 22.7114 12.5602C22.5581 12.4722 22.3936 12.4281 22.2176 12.4281C22.0418 12.4281 21.8795 12.471 21.7306 12.5565C21.5819 12.6423 21.4612 12.7674 21.3688 12.9319C21.2765 13.0967 21.2301 13.2917 21.2301 13.5169C21.2301 13.7426 21.2762 13.9398 21.3688 14.1087C21.4612 14.2779 21.5828 14.4076 21.7342 14.4978C21.8853 14.5882 22.0465 14.633 22.2178 14.633C22.3938 14.633 22.5583 14.5892 22.7117 14.5012C22.865 14.4132 22.9866 14.2872 23.077 14.1224C23.1672 13.9579 23.2123 13.7604 23.2123 13.5306C23.2123 13.3007 23.1672 13.1038 23.0768 12.939Z" fill="white"/>
<path d="M28.5492 13.815H25.8097C25.8322 14.0856 25.927 14.2977 26.094 14.4507C26.2607 14.6041 26.4659 14.6808 26.7094 14.6808C27.0612 14.6808 27.3115 14.5297 27.4602 14.2277H28.4815C28.3733 14.5885 28.1658 14.8851 27.8592 15.1172C27.5526 15.3495 27.176 15.4655 26.7297 15.4655C26.3689 15.4655 26.0452 15.3853 25.759 15.2254C25.4726 15.0652 25.2494 14.8388 25.0892 14.5456C24.9291 14.2526 24.8491 13.9143 24.8491 13.5308C24.8491 13.143 24.9279 12.8028 25.0858 12.5095C25.2435 12.2165 25.4646 11.9911 25.7486 11.8331C26.0328 11.6754 26.3596 11.5964 26.7294 11.5964C27.0855 11.5964 27.4048 11.6732 27.6866 11.8263C27.9684 11.9796 28.1873 12.1973 28.3428 12.4791C28.4983 12.7608 28.5763 13.0843 28.5763 13.4497C28.5763 13.5852 28.567 13.7068 28.5492 13.815ZM27.5955 13.1793C27.5908 12.9358 27.5031 12.7408 27.3315 12.5943C27.1599 12.4479 26.9505 12.3745 26.7024 12.3745C26.4679 12.3745 26.2704 12.4454 26.1105 12.5875C25.9504 12.7296 25.8522 12.9268 25.8163 13.1793H27.5955Z" fill="white"/>
<path d="M30.6901 11.7721C30.8863 11.6595 31.1106 11.6032 31.3631 11.6032V12.5975H31.1128C30.8151 12.5975 30.5906 12.6674 30.4398 12.8071C30.2886 12.947 30.2131 13.1905 30.2131 13.5376V15.4045H29.2661V11.6573H30.2131V12.2392C30.335 12.0405 30.4939 11.885 30.6901 11.7721Z" fill="white"/>
<path d="M8.3809 23.7764C9.17626 22.5288 10.4971 21.9051 12.3433 21.9051C14.189 21.9051 15.5101 22.5291 16.3057 23.7764C17.1011 25.0241 17.4991 26.7491 17.4991 28.9514C17.4991 31.1666 17.1011 32.9043 16.3057 34.1647C15.5099 35.4249 14.189 36.0553 12.3433 36.0553C10.4971 36.0553 9.17626 35.4252 8.3809 34.1647C7.58506 32.9046 7.1875 31.1666 7.1875 28.9514C7.1875 26.7491 7.58506 25.0244 8.3809 23.7764ZM14.6826 26.5741C14.5614 25.9314 14.3196 25.4061 13.9569 24.9988C13.594 24.5915 13.056 24.3877 12.3433 24.3877C11.6301 24.3877 11.0926 24.5915 10.7297 24.9988C10.367 25.4063 10.1249 25.9316 10.004 26.5741C9.88289 27.2171 9.82268 28.0096 9.82268 28.9514C9.82268 29.9191 9.87996 30.7305 9.99452 31.3862C10.1091 32.0419 10.3509 32.5701 10.7202 32.9711C11.0892 33.3721 11.6301 33.5727 12.3433 33.5727C13.056 33.5727 13.5971 33.3721 13.9664 32.9711C14.3355 32.5701 14.5775 32.0419 14.6921 31.3862C14.8066 30.7308 14.8639 29.9191 14.8639 28.9514C14.8639 28.0096 14.8035 27.2171 14.6826 26.5741Z" fill="white"/>
<path d="M19.9433 25.6479C19.9433 24.9605 20.1183 24.3336 20.4686 23.7669C20.8186 23.2006 21.3471 22.7485 22.0535 22.4111C22.7599 22.074 23.6222 21.9051 24.6409 21.9051C25.6593 21.9051 26.5219 22.074 27.2285 22.4111C27.9349 22.7487 28.4631 23.2006 28.8134 23.7669C29.1634 24.3336 29.3384 24.9603 29.3384 25.6479C29.3384 26.3482 29.1666 26.9627 28.8229 27.4906C28.4792 28.0191 28.0207 28.4295 27.4479 28.7223C28.148 29.0277 28.6954 29.4735 29.09 30.059C29.4844 30.6447 29.6821 31.3385 29.6821 32.1406C29.6821 33.0064 29.4625 33.7608 29.0233 34.4036C28.584 35.0466 27.9824 35.5397 27.2185 35.8834C26.4549 36.2271 25.5954 36.399 24.6406 36.399C23.6859 36.399 22.8296 36.2271 22.0722 35.8834C21.3147 35.5397 20.7165 35.0464 20.2773 34.4036C19.838 33.7608 19.6184 33.0067 19.6184 32.1406C19.6184 31.3385 19.8156 30.6416 20.2105 30.0495C20.6049 29.4574 21.1523 29.0153 21.8526 28.7223C20.58 28.0605 19.9433 27.0355 19.9433 25.6479ZM22.8747 30.441C22.4228 30.8105 22.1968 31.3385 22.1968 32.0258C22.1968 32.6625 22.4164 33.1812 22.8557 33.5822C23.2949 33.9834 23.8899 34.1838 24.6411 34.1838C25.3921 34.1838 25.9842 33.9805 26.4171 33.5727C26.8497 33.1654 27.0664 32.6498 27.0664 32.0258C27.0664 31.3511 26.8434 30.8261 26.3981 30.4505C25.9523 30.0751 25.367 29.8872 24.6411 29.8872C23.9152 29.8872 23.3263 30.0719 22.8747 30.441ZM26.1782 24.5785C25.8026 24.2349 25.2902 24.063 24.6409 24.063C24.0042 24.063 23.4982 24.2349 23.1228 24.5785C22.7469 24.9222 22.5595 25.4124 22.5595 26.0488C22.5595 26.6219 22.7533 27.0799 23.1418 27.4238C23.5301 27.7678 24.0298 27.9396 24.6409 27.9396C25.252 27.9396 25.7548 27.7646 26.1494 27.4143C26.5441 27.0643 26.7415 26.6026 26.7415 26.0298C26.7415 25.4061 26.5536 24.9222 26.1782 24.5785Z" fill="white"/>
</g>
<defs>
<clipPath id="clip0_952_2964">
<rect width="234" height="50.2125" fill="white" transform="translate(0 0.700073)"/>
</clipPath>
</defs>
</svg>
