<svg width="234" height="52" viewBox="0 0 234 52" fill="none" xmlns="http://www.w3.org/2000/svg">
<g clip-path="url(#clip0_952_2919)">
<path d="M233.756 1.20117H-0.0144043V51.1521H233.756V1.20117Z" fill="white"/>
<path d="M233.756 1.0379H-0.0144043V12.0271H233.756V1.0379Z" fill="#9181FF"/>
<path d="M106.561 37.6011C106.561 38.8265 105.567 39.8198 104.342 39.8198H93.7945C92.5692 39.8198 91.5754 38.8267 91.5754 37.6011V37.0432C91.5754 35.8179 92.569 34.8246 93.7945 34.8246H104.342C105.567 34.8246 106.561 35.8176 106.561 37.0432V37.6011Z" fill="#6D5ED4"/>
<path d="M88.2455 37.6011C88.2455 38.8265 87.252 39.8198 86.0264 39.8198H75.4791C74.2538 39.8198 73.26 38.8267 73.26 37.6011V37.0432C73.26 35.8179 74.2535 34.8246 75.4791 34.8246H86.0264C87.2517 34.8246 88.2455 35.8176 88.2455 37.0432V37.6011Z" fill="#6D5ED4"/>
<path d="M124.876 37.6011C124.876 38.8265 123.883 39.8198 122.657 39.8198H112.11C110.885 39.8198 109.891 38.8267 109.891 37.6011V37.0432C109.891 35.8179 110.884 34.8246 112.11 34.8246H122.657C123.883 34.8246 124.876 35.8176 124.876 37.0432V37.6011Z" fill="#6D5ED4"/>
<path d="M143.192 37.6011C143.192 38.8265 142.198 39.8198 140.972 39.8198H130.426C129.2 39.8198 128.206 38.8267 128.206 37.6011V37.0432C128.206 35.8179 129.2 34.8246 130.426 34.8246H140.972C142.197 34.8246 143.192 35.8176 143.192 37.0432V37.6011Z" fill="#6D5ED4"/>
<path d="M36.9685 1.20117H-0.0761719V51.1521H36.9685V1.20117Z" fill="#6D5ED4"/>
<path d="M10.8135 10.8959V15.6173H9.86658V13.6083H7.84419V15.6173H6.89722V10.8959H7.84419V12.8371H9.86658V10.8959H10.8135V10.8959Z" fill="white"/>
<path d="M15.2035 14.0276H12.464C12.4865 14.2981 12.5813 14.5102 12.7482 14.6633C12.915 14.8166 13.1202 14.8934 13.3637 14.8934C13.7154 14.8934 13.9658 14.7422 14.1145 14.4402H15.1358C15.0276 14.801 14.8201 15.0976 14.5135 15.3297C14.2068 15.562 13.8303 15.678 13.3839 15.678C13.0232 15.678 12.6995 15.5978 12.4133 15.4379C12.1269 15.2778 11.9037 15.0513 11.7435 14.7581C11.5834 14.4651 11.5034 14.1268 11.5034 13.7434C11.5034 13.3556 11.5821 13.0153 11.7401 12.722C11.8978 12.4291 12.1189 12.2036 12.4029 12.0456C12.6871 11.8879 13.0139 11.809 13.3837 11.809C13.7398 11.809 14.0591 11.8857 14.3409 12.0388C14.6227 12.1921 14.8416 12.4098 14.9971 12.6916C15.1526 12.9734 15.2306 13.2968 15.2306 13.6622C15.2306 13.7977 15.2216 13.9193 15.2035 14.0276ZM14.25 13.3919C14.2454 13.1484 14.1576 12.9534 13.986 12.8069C13.8144 12.6604 13.605 12.587 13.3569 12.587C13.1224 12.587 12.925 12.6579 12.7651 12.8C12.6049 12.9422 12.5067 13.1393 12.4709 13.3919H14.25Z" fill="white"/>
<path d="M15.9034 12.722C16.0546 12.4291 16.2596 12.2036 16.5189 12.0456C16.7783 11.8879 17.0678 11.809 17.3881 11.809C17.6677 11.809 17.9124 11.8653 18.1221 11.9781C18.3317 12.091 18.4996 12.2328 18.6259 12.4042V11.8699H19.5797V15.6173H18.6259V15.0694C18.504 15.2453 18.3361 15.3906 18.1221 15.5057C17.9078 15.6207 17.6609 15.6782 17.3813 15.6782C17.0656 15.6782 16.778 15.5971 16.5187 15.4345C16.2593 15.2719 16.0541 15.0435 15.9032 14.7481C15.7521 14.4529 15.6768 14.1134 15.6768 13.73C15.677 13.3512 15.7526 13.0153 15.9034 12.722ZM18.4909 13.1515C18.4007 12.987 18.2788 12.8607 18.1255 12.7727C17.9722 12.6848 17.8076 12.6406 17.6316 12.6406C17.4559 12.6406 17.2936 12.6835 17.1446 12.7691C16.9959 12.8549 16.8753 12.9799 16.7829 13.1445C16.6905 13.3092 16.6442 13.5042 16.6442 13.7295C16.6442 13.9552 16.6903 14.1524 16.7829 14.3213C16.8753 14.4905 16.9969 14.6201 17.1483 14.7103C17.2994 14.8007 17.4605 14.8456 17.6319 14.8456C17.8079 14.8456 17.9724 14.8017 18.1257 14.7137C18.279 14.6257 18.4007 14.4997 18.4911 14.3349C18.5813 14.1704 18.6264 13.973 18.6264 13.7431C18.6264 13.5133 18.581 13.3163 18.4909 13.1515Z" fill="white"/>
<path d="M20.4896 12.722C20.6408 12.429 20.847 12.2036 21.1088 12.0456C21.3703 11.8879 21.6611 11.8089 21.9814 11.8089C22.2249 11.8089 22.4572 11.8621 22.678 11.9679C22.8989 12.0739 23.0748 12.2148 23.2057 12.3905V10.6116H24.1661V15.6173H23.2057V15.0628C23.0885 15.2478 22.924 15.3964 22.7119 15.5093C22.4998 15.6219 22.2541 15.6785 21.9746 15.6785C21.6589 15.6785 21.3703 15.5973 21.1088 15.4347C20.8472 15.2724 20.6408 15.0437 20.4896 14.7483C20.3385 14.4531 20.2632 14.1136 20.2632 13.7302C20.2629 13.3511 20.3385 13.0153 20.4896 12.722ZM23.0768 13.1515C22.9866 12.987 22.8647 12.8607 22.7114 12.7727C22.5581 12.6847 22.3936 12.6406 22.2176 12.6406C22.0418 12.6406 21.8795 12.6835 21.7306 12.7691C21.5819 12.8549 21.4612 12.9799 21.3688 13.1444C21.2765 13.3092 21.2301 13.5042 21.2301 13.7294C21.2301 13.9552 21.2762 14.1523 21.3688 14.3213C21.4612 14.4904 21.5828 14.6201 21.7342 14.7103C21.8853 14.8007 22.0465 14.8456 22.2178 14.8456C22.3938 14.8456 22.5583 14.8017 22.7117 14.7137C22.865 14.6257 22.9866 14.4997 23.077 14.3349C23.1672 14.1704 23.2123 13.9729 23.2123 13.7431C23.2123 13.5132 23.1672 13.3163 23.0768 13.1515Z" fill="white"/>
<path d="M28.5492 14.0276H25.8097C25.8322 14.2981 25.927 14.5102 26.094 14.6633C26.2607 14.8166 26.4659 14.8934 26.7094 14.8934C27.0612 14.8934 27.3115 14.7422 27.4602 14.4402H28.4815C28.3733 14.801 28.1658 15.0976 27.8592 15.3297C27.5526 15.562 27.176 15.678 26.7297 15.678C26.3689 15.678 26.0452 15.5978 25.759 15.4379C25.4726 15.2778 25.2494 15.0513 25.0892 14.7581C24.9291 14.4651 24.8491 14.1268 24.8491 13.7434C24.8491 13.3556 24.9279 13.0153 25.0858 12.722C25.2435 12.4291 25.4646 12.2036 25.7486 12.0456C26.0328 11.8879 26.3596 11.809 26.7294 11.809C27.0855 11.809 27.4048 11.8857 27.6866 12.0388C27.9684 12.1921 28.1873 12.4098 28.3428 12.6916C28.4983 12.9734 28.5763 13.2968 28.5763 13.6622C28.5763 13.7977 28.567 13.9193 28.5492 14.0276ZM27.5955 13.3919C27.5908 13.1484 27.5031 12.9534 27.3315 12.8069C27.1599 12.6604 26.9505 12.587 26.7024 12.587C26.4679 12.587 26.2704 12.6579 26.1105 12.8C25.9504 12.9422 25.8522 13.1393 25.8163 13.3919H27.5955Z" fill="white"/>
<path d="M30.6901 11.9847C30.8863 11.872 31.1106 11.8157 31.3631 11.8157V12.81H31.1128C30.8151 12.81 30.5906 12.8799 30.4398 13.0196C30.2886 13.1595 30.2131 13.403 30.2131 13.7501V15.617H29.2661V11.8698H30.2131V12.4517C30.335 12.253 30.4939 12.0975 30.6901 11.9847Z" fill="white"/>
<path d="M44.971 39.7473V40.8223H40.8706V33.8213H42.1732V39.7471H44.971V39.7473Z" fill="#6D5ED4"/>
<path d="M52.3302 37.322C52.3302 37.8363 52.2449 38.3104 52.0757 38.7484C51.9063 39.1845 51.6665 39.5631 51.3571 39.8831C51.0468 40.2031 50.6741 40.4518 50.2386 40.6314C49.8025 40.8098 49.3187 40.8998 48.7858 40.8998C48.2566 40.8998 47.774 40.8101 47.3384 40.6314C46.9024 40.4518 46.5287 40.2031 46.2174 39.8831C45.9057 39.5631 45.6648 39.1845 45.4935 38.7484C45.3224 38.3104 45.2368 37.8363 45.2368 37.322C45.2368 36.808 45.3221 36.3339 45.4935 35.8956C45.6646 35.4595 45.9057 35.081 46.2174 34.7609C46.5287 34.4409 46.9024 34.1923 47.3384 34.0126C47.774 33.8342 48.2564 33.7445 48.7858 33.7445C49.141 33.7445 49.4751 33.7855 49.7876 33.8674C50.1008 33.9493 50.3882 34.0663 50.65 34.2157C50.9111 34.367 51.146 34.5484 51.354 34.7641C51.5624 34.9786 51.7388 35.2177 51.8841 35.4832C52.0296 35.7476 52.1398 36.0345 52.2159 36.3446C52.2919 36.6537 52.3302 36.9805 52.3302 37.322ZM50.9986 37.322C50.9986 36.9376 50.9469 36.5942 50.8436 36.288C50.7404 35.9846 50.5932 35.724 50.4031 35.5114C50.2125 35.2987 49.9812 35.1358 49.7084 35.0227C49.4352 34.9096 49.128 34.8528 48.7861 34.8528C48.4436 34.8528 48.1362 34.9094 47.8635 35.0227C47.591 35.1358 47.3587 35.2987 47.1663 35.5114C46.974 35.7242 46.8268 35.9846 46.7234 36.288C46.6201 36.5944 46.5684 36.9379 46.5684 37.322C46.5684 37.7064 46.6201 38.0499 46.7234 38.3563C46.8268 38.6607 46.9743 38.9181 47.1663 39.1299C47.3587 39.3427 47.5907 39.5046 47.8635 39.6167C48.1362 39.7298 48.4436 39.7873 48.7861 39.7873C49.128 39.7873 49.4354 39.7298 49.7084 39.6167C49.9812 39.5046 50.2122 39.3425 50.4031 39.1299C50.5935 38.9183 50.7407 38.6607 50.8436 38.3563C50.9469 38.0496 50.9986 37.7064 50.9986 37.322Z" fill="#6D5ED4"/>
<path d="M59.2489 37.3123V40.1444C58.8937 40.406 58.5152 40.5971 58.1132 40.718C57.7113 40.8398 57.2816 40.8995 56.8231 40.8995C56.2517 40.8995 55.7342 40.8118 55.2714 40.6331C54.808 40.4564 54.4129 40.2097 54.0855 39.8926C53.7577 39.5774 53.5049 39.1989 53.3275 38.7589C53.1502 38.3209 53.0615 37.8419 53.0615 37.3218C53.0615 36.795 53.1468 36.3131 53.3182 35.8749C53.4888 35.4349 53.7318 35.0573 54.0465 34.7422C54.3612 34.4251 54.7432 34.1791 55.1914 34.0056C55.6402 33.831 56.144 33.744 56.7022 33.744C56.9861 33.744 57.2518 33.7664 57.4987 33.8113C57.7454 33.8571 57.9748 33.9185 58.1861 33.9975C58.3977 34.0765 58.5905 34.172 58.7645 34.2861C58.9386 34.3992 59.0987 34.5223 59.244 34.6578L58.8713 35.2492C58.8133 35.3438 58.7372 35.4005 58.6436 35.421C58.55 35.4425 58.4486 35.4191 58.3387 35.3518C58.2319 35.2904 58.1254 35.2289 58.0192 35.1675C57.9121 35.1061 57.7937 35.0522 57.663 35.0086C57.5329 34.9628 57.3854 34.9247 57.2226 34.8965C57.0598 34.8682 56.8713 34.8526 56.6588 34.8526C56.3134 34.8526 56.0007 34.9101 55.7218 35.0271C55.4427 35.1441 55.2048 35.3091 55.0076 35.5246C54.8109 35.7423 54.6593 36.0007 54.5525 36.3051C54.4463 36.6076 54.3929 36.9481 54.3929 37.3218C54.3929 37.7218 54.4499 38.0798 54.5647 38.395C54.6793 38.7092 54.8407 38.9756 55.0491 39.1931C55.257 39.4115 55.508 39.5774 55.8018 39.6925C56.0955 39.8075 56.4233 39.8641 56.7848 39.8641C57.0429 39.8641 57.2735 39.8358 57.4771 39.7822C57.6803 39.7266 57.879 39.6525 58.0728 39.5577V38.2895H57.1914C57.1075 38.2895 57.0422 38.267 56.9959 38.2202C56.9491 38.1725 56.9252 38.1159 56.9252 38.0486V37.312H59.2489V37.3123Z" fill="#6D5ED4"/>
<path d="M67.1844 37.322C67.1844 37.8363 67.0991 38.3104 66.9297 38.7484C66.7601 39.1845 66.5205 39.5631 66.2107 39.8831C65.9008 40.2031 65.5282 40.4518 65.0921 40.6314C64.6565 40.8098 64.1722 40.8998 63.6398 40.8998C63.1106 40.8998 62.628 40.8101 62.1924 40.6314C61.7564 40.4518 61.3827 40.2031 61.0714 39.8831C60.7597 39.5631 60.5184 39.1845 60.3475 38.7484C60.1764 38.3104 60.0908 37.8363 60.0908 37.322C60.0908 36.808 60.1761 36.3339 60.3475 35.8956C60.5181 35.4595 60.7597 35.081 61.0714 34.7609C61.3827 34.4409 61.7564 34.1923 62.1924 34.0126C62.628 33.8342 63.1106 33.7445 63.6398 33.7445C63.995 33.7445 64.3291 33.7855 64.6419 33.8674C64.9548 33.9493 65.2422 34.0663 65.5038 34.2157C65.7653 34.367 65.9998 34.5484 66.208 34.7641C66.4164 34.9786 66.5929 35.2177 66.7384 35.4832C66.8836 35.7476 66.9941 36.0345 67.0701 36.3446C67.1459 36.6537 67.1844 36.9805 67.1844 37.322ZM65.8523 37.322C65.8523 36.9376 65.8011 36.5942 65.6978 36.288C65.5944 35.9846 65.4475 35.724 65.2573 35.5114C65.0667 35.2987 64.8354 35.1358 64.5627 35.0227C64.2894 34.9096 63.982 34.8528 63.6401 34.8528C63.2976 34.8528 62.9902 34.9094 62.7177 35.0227C62.445 35.1358 62.2129 35.2987 62.0206 35.5114C61.8285 35.7242 61.6806 35.9846 61.5777 36.288C61.4743 36.5944 61.4224 36.9379 61.4224 37.322C61.4224 37.7064 61.4741 38.0499 61.5777 38.3563C61.6806 38.6607 61.8285 38.9181 62.0206 39.1299C62.2129 39.3427 62.445 39.5046 62.7177 39.6167C62.9902 39.7298 63.2978 39.7873 63.6401 39.7873C63.982 39.7873 64.2894 39.7298 64.5627 39.6167C64.8352 39.5046 65.0665 39.3425 65.2573 39.1299C65.4475 38.9183 65.5944 38.6607 65.6978 38.3563C65.8011 38.0496 65.8523 37.7064 65.8523 37.322Z" fill="#6D5ED4"/>
<path d="M36.9492 27.8311H233.756" stroke="#9FC1A0" stroke-width="0.2" stroke-miterlimit="10"/>
<path d="M217.192 41.3181H210.032C209.802 41.3181 209.616 41.1318 209.616 40.9022V33.7416C209.616 33.512 209.802 33.3257 210.032 33.3257H217.192C217.422 33.3257 217.608 33.512 217.608 33.7416V40.9022C217.608 41.1318 217.422 41.3181 217.192 41.3181Z" fill="#6D5ED4"/>
<path d="M228.367 41.3181H221.163C220.946 41.3181 220.769 41.1416 220.769 40.9237V33.7201C220.769 33.5025 220.946 33.3257 221.163 33.3257H228.367C228.585 33.3257 228.761 33.5022 228.761 33.7201V40.9237C228.761 41.1416 228.585 41.3181 228.367 41.3181Z" fill="#6D5ED4"/>
<path d="M65.5687 18.2189H39.7312V22.8501H65.5687V18.2189Z" fill="#9181FF"/>
<path d="M229.369 18.2189H203.531V22.8501H229.369V18.2189Z" fill="#9181FF"/>
<path d="M8.62455 23.9889C9.41991 22.7414 10.7408 22.1177 12.587 22.1177C14.4326 22.1177 15.7538 22.7417 16.5494 23.9889C17.3447 25.2367 17.7428 26.9617 17.7428 29.164C17.7428 31.3792 17.3447 33.1169 16.5494 34.3773C15.7535 35.6375 14.4326 36.2678 12.587 36.2678C10.7408 36.2678 9.41991 35.6378 8.62455 34.3773C7.82871 33.1171 7.43115 31.3792 7.43115 29.164C7.43115 26.9617 7.82871 25.2369 8.62455 23.9889ZM14.9262 26.7867C14.8051 26.1439 14.5633 25.6187 14.2006 25.2113C13.8376 24.804 13.2997 24.6003 12.587 24.6003C11.8737 24.6003 11.3363 24.804 10.9733 25.2113C10.6106 25.6189 10.3686 26.1442 10.2477 26.7867C10.1265 27.4297 10.0663 28.2222 10.0663 29.164C10.0663 30.1317 10.1236 30.9431 10.2382 31.5988C10.3527 32.2545 10.5945 32.7827 10.9638 33.1837C11.3329 33.5846 11.8737 33.7853 12.587 33.7853C13.2997 33.7853 13.8408 33.5846 14.2101 33.1837C14.5791 32.7827 14.8212 32.2545 14.9357 31.5988C15.0503 30.9434 15.1076 30.1317 15.1076 29.164C15.1076 28.2222 15.0471 27.4297 14.9262 26.7867Z" fill="white"/>
<path d="M23.5578 33.6804C23.9207 33.9797 24.4075 34.1292 25.0186 34.1292C25.8078 34.1292 26.3806 33.8016 26.7372 33.1456C27.0936 32.4902 27.272 31.3858 27.272 29.8326C26.979 30.2401 26.5686 30.5582 26.0404 30.7873C25.5119 31.0165 24.9425 31.131 24.3312 31.131C23.5163 31.131 22.7812 30.9626 22.1257 30.625C21.4698 30.2879 20.9514 29.7848 20.5694 29.1164C20.1874 28.4481 19.9966 27.6364 19.9966 26.6816C19.9966 25.2686 20.4168 24.1452 21.2568 23.311C22.097 22.4774 23.2428 22.0604 24.6941 22.0604C26.5018 22.0604 27.7781 22.6398 28.523 23.7981C29.2679 24.9566 29.6401 26.7006 29.6401 29.0304C29.6401 30.6855 29.497 32.0414 29.2103 33.0979C28.9239 34.1548 28.4337 34.9567 27.74 35.5039C27.0461 36.0516 26.1008 36.3251 24.9042 36.3251C23.9619 36.3251 23.16 36.1438 22.4979 35.7811C21.8359 35.4181 21.3299 34.9408 20.9799 34.3488C20.6296 33.7567 20.429 33.1047 20.3783 32.3915H22.8609C22.9625 32.9516 23.1951 33.3813 23.5578 33.6804ZM26.4508 28.343C26.8328 27.9357 27.0236 27.3883 27.0236 26.7009C27.0236 25.9499 26.823 25.3673 26.4221 24.9537C26.0211 24.54 25.4768 24.3331 24.7894 24.3331C24.1021 24.3331 23.5578 24.5464 23.1568 24.9729C22.7556 25.3995 22.5552 25.963 22.5552 26.6631C22.5552 27.338 22.749 27.8884 23.1375 28.3147C23.5258 28.7413 24.1082 28.9546 24.8847 28.9546C25.5468 28.9541 26.0689 28.7506 26.4508 28.343Z" fill="white"/>
<path d="M205.693 33.422H166.656V41.222H205.693V33.422Z" fill="#9181FF"/>
<path d="M205.693 33.422H197.893V41.222H205.693V33.422Z" fill="#6D5ED4"/>
</g>
<defs>
<clipPath id="clip0_952_2919">
<rect width="234" height="50.2125" fill="white" transform="translate(0 0.912598)"/>
</clipPath>
</defs>
</svg>
