<svg width="234" height="51" viewBox="0 0 234 51" fill="none" xmlns="http://www.w3.org/2000/svg">
<g clip-path="url(#clip0_952_3007)">
<path d="M233.756 0.413696H-0.0144043V50.3647H233.756V0.413696Z" fill="white"/>
<path d="M233.756 0.250366H-0.0144043V11.2396H233.756V0.250366Z" fill="#9181FF"/>
<path d="M106.561 36.8137C106.561 38.039 105.567 39.0323 104.342 39.0323H93.7945C92.5692 39.0323 91.5754 38.0392 91.5754 36.8137V36.2557C91.5754 35.0304 92.569 34.0371 93.7945 34.0371H104.342C105.567 34.0371 106.561 35.0301 106.561 36.2557V36.8137Z" fill="#6D5ED4"/>
<path d="M88.2455 36.8137C88.2455 38.039 87.252 39.0323 86.0264 39.0323H75.4791C74.2538 39.0323 73.26 38.0392 73.26 36.8137V36.2557C73.26 35.0304 74.2535 34.0371 75.4791 34.0371H86.0264C87.2517 34.0371 88.2455 35.0301 88.2455 36.2557V36.8137Z" fill="#6D5ED4"/>
<path d="M124.876 36.8137C124.876 38.039 123.883 39.0323 122.657 39.0323H112.11C110.885 39.0323 109.891 38.0392 109.891 36.8137V36.2557C109.891 35.0304 110.884 34.0371 112.11 34.0371H122.657C123.883 34.0371 124.876 35.0301 124.876 36.2557V36.8137Z" fill="#6D5ED4"/>
<path d="M143.192 36.8137C143.192 38.039 142.198 39.0323 140.972 39.0323H130.426C129.2 39.0323 128.206 38.0392 128.206 36.8137V36.2557C128.206 35.0304 129.2 34.0371 130.426 34.0371H140.972C142.197 34.0371 143.192 35.0301 143.192 36.2557V36.8137Z" fill="#6D5ED4"/>
<path d="M36.9685 0.413696H-0.0761719V50.3647H36.9685V0.413696Z" fill="#6D5ED4"/>
<path d="M10.8135 10.1084V14.8298H9.86658V12.8208H7.84419V14.8298H6.89722V10.1084H7.84419V12.0496H9.86658V10.1084H10.8135V10.1084Z" fill="white"/>
<path d="M15.2035 13.2401H12.464C12.4865 13.5107 12.5813 13.7227 12.7482 13.8758C12.915 14.0291 13.1202 14.1059 13.3637 14.1059C13.7154 14.1059 13.9658 13.9548 14.1145 13.6528H15.1358C15.0276 14.0135 14.8201 14.3102 14.5135 14.5422C14.2068 14.7745 13.8303 14.8905 13.3839 14.8905C13.0232 14.8905 12.6995 14.8103 12.4133 14.6504C12.1269 14.4903 11.9037 14.2638 11.7435 13.9706C11.5834 13.6776 11.5034 13.3393 11.5034 12.9559C11.5034 12.5681 11.5821 12.2278 11.7401 11.9346C11.8978 11.6416 12.1189 11.4161 12.4029 11.2582C12.6871 11.1005 13.0139 11.0215 13.3837 11.0215C13.7398 11.0215 14.0591 11.0983 14.3409 11.2513C14.6227 11.4047 14.8416 11.6223 14.9971 11.9041C15.1526 12.1859 15.2306 12.5093 15.2306 12.8747C15.2306 13.0102 15.2216 13.1319 15.2035 13.2401ZM14.25 12.6044C14.2454 12.3609 14.1576 12.1659 13.986 12.0194C13.8144 11.8729 13.605 11.7995 13.3569 11.7995C13.1224 11.7995 12.925 11.8705 12.7651 12.0126C12.6049 12.1547 12.5067 12.3519 12.4709 12.6044H14.25Z" fill="white"/>
<path d="M15.9034 11.9346C16.0546 11.6416 16.2596 11.4161 16.5189 11.2582C16.7783 11.1005 17.0678 11.0215 17.3881 11.0215C17.6677 11.0215 17.9124 11.0778 18.1221 11.1906C18.3317 11.3035 18.4996 11.4454 18.6259 11.6167V11.0824H19.5797V14.8298H18.6259V14.2819C18.504 14.4579 18.3361 14.6031 18.1221 14.7182C17.9078 14.8332 17.6609 14.8908 17.3813 14.8908C17.0656 14.8908 16.778 14.8096 16.5187 14.647C16.2593 14.4844 16.0541 14.256 15.9032 13.9606C15.7521 13.6654 15.6768 13.3259 15.6768 12.9425C15.677 12.5637 15.7526 12.2278 15.9034 11.9346ZM18.4909 12.3641C18.4007 12.1995 18.2788 12.0733 18.1255 11.9853C17.9722 11.8973 17.8076 11.8532 17.6316 11.8532C17.4559 11.8532 17.2936 11.8961 17.1446 11.9816C16.9959 12.0674 16.8753 12.1925 16.7829 12.357C16.6905 12.5218 16.6442 12.7168 16.6442 12.942C16.6442 13.1677 16.6903 13.3649 16.7829 13.5338C16.8753 13.703 16.9969 13.8327 17.1483 13.9228C17.2994 14.0133 17.4605 14.0581 17.6319 14.0581C17.8079 14.0581 17.9724 14.0142 18.1257 13.9263C18.279 13.8383 18.4007 13.7122 18.4911 13.5475C18.5813 13.3829 18.6264 13.1855 18.6264 12.9556C18.6264 12.7258 18.581 12.5288 18.4909 12.3641Z" fill="white"/>
<path d="M20.4896 11.9346C20.6408 11.6416 20.847 11.4161 21.1088 11.2582C21.3703 11.1005 21.6611 11.0215 21.9814 11.0215C22.2249 11.0215 22.4572 11.0747 22.678 11.1804C22.8989 11.2865 23.0748 11.4274 23.2057 11.6031V9.82422H24.1661V14.8299H23.2057V14.2753C23.0885 14.4603 22.924 14.609 22.7119 14.7219C22.4998 14.8345 22.2541 14.891 21.9746 14.891C21.6589 14.891 21.3703 14.8099 21.1088 14.6473C20.8472 14.485 20.6408 14.2563 20.4896 13.9609C20.3385 13.6657 20.2632 13.3262 20.2632 12.9428C20.2629 12.5637 20.3385 12.2278 20.4896 11.9346ZM23.0768 12.3641C22.9866 12.1996 22.8647 12.0733 22.7114 11.9853C22.5581 11.8973 22.3936 11.8532 22.2176 11.8532C22.0418 11.8532 21.8795 11.8961 21.7306 11.9816C21.5819 12.0674 21.4612 12.1925 21.3688 12.357C21.2765 12.5218 21.2301 12.7168 21.2301 12.942C21.2301 13.1677 21.2762 13.3649 21.3688 13.5338C21.4612 13.703 21.5828 13.8327 21.7342 13.9229C21.8853 14.0133 22.0465 14.0582 22.2178 14.0582C22.3938 14.0582 22.5583 14.0143 22.7117 13.9263C22.865 13.8383 22.9866 13.7123 23.077 13.5475C23.1672 13.383 23.2123 13.1855 23.2123 12.9557C23.2123 12.7258 23.1672 12.5289 23.0768 12.3641Z" fill="white"/>
<path d="M28.5492 13.2401H25.8097C25.8322 13.5107 25.927 13.7227 26.094 13.8758C26.2607 14.0291 26.4659 14.1059 26.7094 14.1059C27.0612 14.1059 27.3115 13.9548 27.4602 13.6528H28.4815C28.3733 14.0135 28.1658 14.3102 27.8592 14.5422C27.5526 14.7745 27.176 14.8905 26.7297 14.8905C26.3689 14.8905 26.0452 14.8103 25.759 14.6504C25.4726 14.4903 25.2494 14.2638 25.0892 13.9706C24.9291 13.6776 24.8491 13.3393 24.8491 12.9559C24.8491 12.5681 24.9279 12.2278 25.0858 11.9346C25.2435 11.6416 25.4646 11.4161 25.7486 11.2582C26.0328 11.1005 26.3596 11.0215 26.7294 11.0215C27.0855 11.0215 27.4048 11.0983 27.6866 11.2513C27.9684 11.4047 28.1873 11.6223 28.3428 11.9041C28.4983 12.1859 28.5763 12.5093 28.5763 12.8747C28.5763 13.0102 28.567 13.1319 28.5492 13.2401ZM27.5955 12.6044C27.5908 12.3609 27.5031 12.1659 27.3315 12.0194C27.1599 11.8729 26.9505 11.7995 26.7024 11.7995C26.4679 11.7995 26.2704 11.8705 26.1105 12.0126C25.9504 12.1547 25.8522 12.3519 25.8163 12.6044H27.5955Z" fill="white"/>
<path d="M30.6901 11.1972C30.8863 11.0846 31.1106 11.0283 31.3631 11.0283V12.0226H31.1128C30.8151 12.0226 30.5906 12.0925 30.4398 12.2322C30.2886 12.3721 30.2131 12.6156 30.2131 12.9627V14.8296H29.2661V11.0824H30.2131V11.6643C30.335 11.4656 30.4939 11.3101 30.6901 11.1972Z" fill="white"/>
<path d="M44.971 38.9599V40.0348H40.8706V33.0338H42.1732V38.9596H44.971V38.9599Z" fill="#6D5ED4"/>
<path d="M52.3302 36.5345C52.3302 37.0489 52.2449 37.523 52.0757 37.961C51.9063 38.397 51.6665 38.7756 51.3571 39.0956C51.0468 39.4157 50.6741 39.6643 50.2386 39.8439C49.8025 40.0224 49.3187 40.1123 48.7858 40.1123C48.2566 40.1123 47.774 40.0226 47.3384 39.8439C46.9024 39.6643 46.5287 39.4157 46.2174 39.0956C45.9057 38.7756 45.6648 38.397 45.4935 37.961C45.3224 37.523 45.2368 37.0489 45.2368 36.5345C45.2368 36.0205 45.3221 35.5464 45.4935 35.1081C45.6646 34.6721 45.9057 34.2935 46.2174 33.9735C46.5287 33.6534 46.9024 33.4048 47.3384 33.2252C47.774 33.0467 48.2564 32.957 48.7858 32.957C49.141 32.957 49.4751 32.998 49.7876 33.0799C50.1008 33.1618 50.3882 33.2788 50.65 33.4282C50.9111 33.5796 51.146 33.7609 51.354 33.9766C51.5624 34.1911 51.7388 34.4303 51.8841 34.6957C52.0296 34.9602 52.1398 35.2471 52.2159 35.5571C52.2919 35.8662 52.3302 36.1931 52.3302 36.5345ZM50.9986 36.5345C50.9986 36.1502 50.9469 35.8067 50.8436 35.5006C50.7404 35.1971 50.5932 34.9365 50.4031 34.724C50.2125 34.5112 49.9812 34.3484 49.7084 34.2353C49.4352 34.1222 49.128 34.0654 48.7861 34.0654C48.4436 34.0654 48.1362 34.1219 47.8635 34.2353C47.591 34.3484 47.3587 34.5112 47.1663 34.724C46.974 34.9368 46.8268 35.1971 46.7234 35.5006C46.6201 35.807 46.5684 36.1504 46.5684 36.5345C46.5684 36.9189 46.6201 37.2624 46.7234 37.5688C46.8268 37.8732 46.9743 38.1306 47.1663 38.3424C47.3587 38.5552 47.5907 38.7171 47.8635 38.8292C48.1362 38.9423 48.4436 38.9998 48.7861 38.9998C49.128 38.9998 49.4354 38.9423 49.7084 38.8292C49.9812 38.7171 50.2122 38.555 50.4031 38.3424C50.5935 38.1309 50.7407 37.8732 50.8436 37.5688C50.9469 37.2621 50.9986 36.9189 50.9986 36.5345Z" fill="#6D5ED4"/>
<path d="M59.2489 36.5248V39.3569C58.8937 39.6185 58.5152 39.8096 58.1132 39.9305C57.7113 40.0524 57.2816 40.1121 56.8231 40.1121C56.2517 40.1121 55.7342 40.0243 55.2714 39.8456C54.808 39.6689 54.4129 39.4223 54.0855 39.1051C53.7577 38.79 53.5049 38.4114 53.3275 37.9715C53.1502 37.5334 53.0615 37.0545 53.0615 36.5343C53.0615 36.0076 53.1468 35.5257 53.3182 35.0874C53.4888 34.6474 53.7318 34.2699 54.0465 33.9547C54.3612 33.6376 54.7432 33.3916 55.1914 33.2181C55.6402 33.0436 56.144 32.9565 56.7022 32.9565C56.9861 32.9565 57.2518 32.979 57.4987 33.0238C57.7454 33.0696 57.9748 33.1311 58.1861 33.21C58.3977 33.289 58.5905 33.3846 58.7645 33.4986C58.9386 33.6117 59.0987 33.7348 59.244 33.8704L58.8713 34.4617C58.8133 34.5563 58.7372 34.6131 58.6436 34.6335C58.55 34.655 58.4486 34.6316 58.3387 34.5643C58.2319 34.5029 58.1254 34.4415 58.0192 34.38C57.9121 34.3186 57.7937 34.2648 57.663 34.2211C57.5329 34.1753 57.3854 34.1373 57.2226 34.109C57.0598 34.0807 56.8713 34.0651 56.6588 34.0651C56.3134 34.0651 56.0007 34.1226 55.7218 34.2396C55.4427 34.3566 55.2048 34.5217 55.0076 34.7371C54.8109 34.9548 54.6593 35.2132 54.5525 35.5176C54.4463 35.8201 54.3929 36.1606 54.3929 36.5343C54.3929 36.9343 54.4499 37.2924 54.5647 37.6075C54.6793 37.9217 54.8407 38.1882 55.0491 38.4056C55.257 38.624 55.508 38.79 55.8018 38.905C56.0955 39.0201 56.4233 39.0766 56.7848 39.0766C57.0429 39.0766 57.2735 39.0483 57.4771 38.9947C57.6803 38.9391 57.879 38.865 58.0728 38.7702V37.502H57.1914C57.1075 37.502 57.0422 37.4796 56.9959 37.4328C56.9491 37.385 56.9252 37.3284 56.9252 37.2612V36.5246H59.2489V36.5248Z" fill="#6D5ED4"/>
<path d="M67.1844 36.5345C67.1844 37.0489 67.0991 37.523 66.9297 37.961C66.7601 38.397 66.5205 38.7756 66.2107 39.0956C65.9008 39.4157 65.5282 39.6643 65.0921 39.8439C64.6565 40.0224 64.1722 40.1123 63.6398 40.1123C63.1106 40.1123 62.628 40.0226 62.1924 39.8439C61.7564 39.6643 61.3827 39.4157 61.0714 39.0956C60.7597 38.7756 60.5184 38.397 60.3475 37.961C60.1764 37.523 60.0908 37.0489 60.0908 36.5345C60.0908 36.0205 60.1761 35.5464 60.3475 35.1081C60.5181 34.6721 60.7597 34.2935 61.0714 33.9735C61.3827 33.6534 61.7564 33.4048 62.1924 33.2252C62.628 33.0467 63.1106 32.957 63.6398 32.957C63.995 32.957 64.3291 32.998 64.6419 33.0799C64.9548 33.1618 65.2422 33.2788 65.5038 33.4282C65.7653 33.5796 65.9998 33.7609 66.208 33.9766C66.4164 34.1911 66.5929 34.4303 66.7384 34.6957C66.8836 34.9602 66.9941 35.2471 67.0701 35.5571C67.1459 35.8662 67.1844 36.1931 67.1844 36.5345ZM65.8523 36.5345C65.8523 36.1502 65.8011 35.8067 65.6978 35.5006C65.5944 35.1971 65.4475 34.9365 65.2573 34.724C65.0667 34.5112 64.8354 34.3484 64.5627 34.2353C64.2894 34.1222 63.982 34.0654 63.6401 34.0654C63.2976 34.0654 62.9902 34.1219 62.7177 34.2353C62.445 34.3484 62.2129 34.5112 62.0206 34.724C61.8285 34.9368 61.6806 35.1971 61.5777 35.5006C61.4743 35.807 61.4224 36.1504 61.4224 36.5345C61.4224 36.9189 61.4741 37.2624 61.5777 37.5688C61.6806 37.8732 61.8285 38.1306 62.0206 38.3424C62.2129 38.5552 62.445 38.7171 62.7177 38.8292C62.9902 38.9423 63.2978 38.9998 63.6401 38.9998C63.982 38.9998 64.2894 38.9423 64.5627 38.8292C64.8352 38.7171 65.0665 38.555 65.2573 38.3424C65.4475 38.1309 65.5944 37.8732 65.6978 37.5688C65.8011 37.2621 65.8523 36.9189 65.8523 36.5345Z" fill="#6D5ED4"/>
<path d="M36.9492 27.0437H233.756" stroke="#9FC1A0" stroke-width="0.2" stroke-miterlimit="10"/>
<path d="M217.192 40.5306H210.032C209.802 40.5306 209.616 40.3444 209.616 40.1148V32.9542C209.616 32.7246 209.802 32.5383 210.032 32.5383H217.192C217.422 32.5383 217.608 32.7246 217.608 32.9542V40.1148C217.608 40.3444 217.422 40.5306 217.192 40.5306Z" fill="#6D5ED4"/>
<path d="M228.367 40.5306H221.163C220.946 40.5306 220.769 40.3542 220.769 40.1363V32.9327C220.769 32.715 220.946 32.5383 221.163 32.5383H228.367C228.585 32.5383 228.761 32.7148 228.761 32.9327V40.1363C228.761 40.3542 228.585 40.5306 228.367 40.5306Z" fill="#6D5ED4"/>
<path d="M205.98 40.5306H198.819C198.59 40.5306 198.404 40.3444 198.404 40.1148V32.9542C198.404 32.7246 198.59 32.5383 198.819 32.5383H205.98C206.21 32.5383 206.396 32.7246 206.396 32.9542V40.1148C206.396 40.3444 206.21 40.5306 205.98 40.5306Z" fill="#6D5ED4"/>
<path d="M217.155 40.5306H209.951C209.733 40.5306 209.557 40.3542 209.557 40.1363V32.9327C209.557 32.715 209.733 32.5383 209.951 32.5383H217.155C217.372 32.5383 217.549 32.7148 217.549 32.9327V40.1363C217.549 40.3542 217.372 40.5306 217.155 40.5306Z" fill="#6D5ED4"/>
<path d="M65.5687 17.4314H39.7312V22.0626H65.5687V17.4314Z" fill="#9181FF"/>
<path d="M229.369 17.4314H203.531V22.0626H229.369V17.4314Z" fill="#9181FF"/>
<path d="M11.0781 24.2042V21.7408H15.6804V35.6619H12.9304V24.2042H11.0781Z" fill="white"/>
<path d="M19.5088 23.345C20.3042 22.0975 21.6251 21.4738 23.4712 21.4738C25.3169 21.4738 26.638 22.0978 27.4336 23.345C28.229 24.5928 28.627 26.3178 28.627 28.5201C28.627 30.7353 28.229 32.473 27.4336 33.7334C26.6378 34.9936 25.3169 35.6239 23.4712 35.6239C21.6251 35.6239 20.3042 34.9938 19.5088 33.7334C18.713 32.4732 18.3154 30.7353 18.3154 28.5201C18.3154 26.3178 18.713 24.5928 19.5088 23.345ZM25.8105 26.1425C25.6894 25.4998 25.4476 24.9745 25.0849 24.5672C24.7219 24.1599 24.184 23.9561 23.4712 23.9561C22.758 23.9561 22.2205 24.1599 21.8576 24.5672C21.4949 24.9747 21.2529 25.5 21.132 26.1425C21.0108 26.7856 20.9506 27.578 20.9506 28.5198C20.9506 29.4875 21.0079 30.299 21.1225 30.9547C21.237 31.6103 21.4788 32.1385 21.8481 32.5395C22.2171 32.9405 22.758 33.1411 23.4712 33.1411C24.184 33.1411 24.7251 32.9405 25.0944 32.5395C25.4634 32.1385 25.7054 31.6103 25.82 30.9547C25.9346 30.2992 25.9918 29.4875 25.9918 28.5198C25.9918 27.578 25.9314 26.7856 25.8105 26.1425Z" fill="white"/>
</g>
<defs>
<clipPath id="clip0_952_3007">
<rect width="234" height="50.2125" fill="white" transform="translate(0 0.125122)"/>
</clipPath>
</defs>
</svg>
