<svg width="234" height="51" viewBox="0 0 234 51" fill="none" xmlns="http://www.w3.org/2000/svg">
<g clip-path="url(#clip0_952_3099)">
<path d="M233.756 0.626099H-0.0144043V50.5771H233.756V0.626099Z" fill="white"/>
<path d="M233.756 0.462769H-0.0144043V11.452H233.756V0.462769Z" fill="#9181FF"/>
<path d="M106.561 31.1761C106.561 32.4014 105.567 33.3947 104.342 33.3947H93.7945C92.5692 33.3947 91.5754 32.4017 91.5754 31.1761V30.6181C91.5754 29.3928 92.569 28.3995 93.7945 28.3995H104.342C105.567 28.3995 106.561 29.3926 106.561 30.6181V31.1761Z" fill="#6D5ED4"/>
<path d="M88.2455 31.1761C88.2455 32.4014 87.252 33.3947 86.0264 33.3947H75.4791C74.2538 33.3947 73.26 32.4017 73.26 31.1761V30.6181C73.26 29.3928 74.2535 28.3995 75.4791 28.3995H86.0264C87.2517 28.3995 88.2455 29.3926 88.2455 30.6181V31.1761Z" fill="#6D5ED4"/>
<path d="M124.876 31.1761C124.876 32.4014 123.883 33.3947 122.657 33.3947H112.11C110.885 33.3947 109.891 32.4017 109.891 31.1761V30.6181C109.891 29.3928 110.884 28.3995 112.11 28.3995H122.657C123.883 28.3995 124.876 29.3926 124.876 30.6181V31.1761Z" fill="#6D5ED4"/>
<path d="M143.192 31.1761C143.192 32.4014 142.198 33.3947 140.972 33.3947H130.426C129.2 33.3947 128.206 32.4017 128.206 31.1761V30.6181C128.206 29.3928 129.2 28.3995 130.426 28.3995H140.972C142.197 28.3995 143.192 29.3926 143.192 30.6181V31.1761Z" fill="#6D5ED4"/>
<path d="M36.9685 0.626099H-0.0761719V50.5771H36.9685V0.626099Z" fill="#6D5ED4"/>
<path d="M10.8135 10.3208V15.0422H9.86658V13.0333H7.84419V15.0422H6.89722V10.3208H7.84419V12.262H9.86658V10.3208H10.8135V10.3208Z" fill="white"/>
<path d="M15.2035 13.4525H12.464C12.4865 13.7231 12.5813 13.9351 12.7482 14.0882C12.915 14.2415 13.1202 14.3183 13.3637 14.3183C13.7154 14.3183 13.9658 14.1672 14.1145 13.8652H15.1358C15.0276 14.2259 14.8201 14.5226 14.5135 14.7546C14.2068 14.9869 13.8303 15.1029 13.3839 15.1029C13.0232 15.1029 12.6995 15.0227 12.4133 14.8628C12.1269 14.7027 11.9037 14.4762 11.7435 14.183C11.5834 13.89 11.5034 13.5517 11.5034 13.1683C11.5034 12.7805 11.5821 12.4402 11.7401 12.147C11.8978 11.854 12.1189 11.6285 12.4029 11.4706C12.6871 11.3129 13.0139 11.2339 13.3837 11.2339C13.7398 11.2339 14.0591 11.3107 14.3409 11.4637C14.6227 11.6171 14.8416 11.8347 14.9971 12.1165C15.1526 12.3983 15.2306 12.7217 15.2306 13.0871C15.2306 13.2226 15.2216 13.3443 15.2035 13.4525ZM14.25 12.8168C14.2454 12.5733 14.1576 12.3783 13.986 12.2318C13.8144 12.0853 13.605 12.0119 13.3569 12.0119C13.1224 12.0119 12.925 12.0829 12.7651 12.225C12.6049 12.3671 12.5067 12.5643 12.4709 12.8168H14.25Z" fill="white"/>
<path d="M15.9034 12.147C16.0546 11.854 16.2596 11.6285 16.5189 11.4706C16.7783 11.3129 17.0678 11.2339 17.3881 11.2339C17.6677 11.2339 17.9124 11.2902 18.1221 11.403C18.3317 11.5159 18.4996 11.6578 18.6259 11.8291V11.2948H19.5797V15.0422H18.6259V14.4943C18.504 14.6703 18.3361 14.8155 18.1221 14.9306C17.9078 15.0456 17.6609 15.1032 17.3813 15.1032C17.0656 15.1032 16.778 15.022 16.5187 14.8594C16.2593 14.6968 16.0541 14.4684 15.9032 14.173C15.7521 13.8778 15.6768 13.5383 15.6768 13.1549C15.677 12.7761 15.7526 12.4402 15.9034 12.147ZM18.4909 12.5765C18.4007 12.4119 18.2788 12.2857 18.1255 12.1977C17.9722 12.1097 17.8076 12.0656 17.6316 12.0656C17.4559 12.0656 17.2936 12.1085 17.1446 12.194C16.9959 12.2798 16.8753 12.4049 16.7829 12.5694C16.6905 12.7342 16.6442 12.9292 16.6442 13.1544C16.6442 13.3801 16.6903 13.5773 16.7829 13.7462C16.8753 13.9154 16.9969 14.0451 17.1483 14.1352C17.2994 14.2257 17.4605 14.2705 17.6319 14.2705C17.8079 14.2705 17.9724 14.2266 18.1257 14.1387C18.279 14.0507 18.4007 13.9246 18.4911 13.7599C18.5813 13.5953 18.6264 13.3979 18.6264 13.168C18.6264 12.9382 18.581 12.7412 18.4909 12.5765Z" fill="white"/>
<path d="M20.4896 12.147C20.6408 11.854 20.847 11.6286 21.1088 11.4706C21.3703 11.3129 21.6611 11.2339 21.9814 11.2339C22.2249 11.2339 22.4572 11.2871 22.678 11.3928C22.8989 11.4989 23.0748 11.6398 23.2057 11.8155V10.0366H24.1661V15.0423H23.2057V14.4877C23.0885 14.6727 22.924 14.8214 22.7119 14.9343C22.4998 15.0469 22.2541 15.1035 21.9746 15.1035C21.6589 15.1035 21.3703 15.0223 21.1088 14.8597C20.8472 14.6974 20.6408 14.4687 20.4896 14.1733C20.3385 13.8781 20.2632 13.5386 20.2632 13.1552C20.2629 12.7761 20.3385 12.4402 20.4896 12.147ZM23.0768 12.5765C22.9866 12.412 22.8647 12.2857 22.7114 12.1977C22.5581 12.1097 22.3936 12.0656 22.2176 12.0656C22.0418 12.0656 21.8795 12.1085 21.7306 12.1941C21.5819 12.2799 21.4612 12.4049 21.3688 12.5694C21.2765 12.7342 21.2301 12.9292 21.2301 13.1544C21.2301 13.3801 21.2762 13.5773 21.3688 13.7463C21.4612 13.9154 21.5828 14.0451 21.7342 14.1353C21.8853 14.2257 22.0465 14.2706 22.2178 14.2706C22.3938 14.2706 22.5583 14.2267 22.7117 14.1387C22.865 14.0507 22.9866 13.9247 23.077 13.7599C23.1672 13.5954 23.2123 13.3979 23.2123 13.1681C23.2123 12.9382 23.1672 12.7413 23.0768 12.5765Z" fill="white"/>
<path d="M28.5492 13.4525H25.8097C25.8322 13.7231 25.927 13.9351 26.094 14.0882C26.2607 14.2415 26.4659 14.3183 26.7094 14.3183C27.0612 14.3183 27.3115 14.1672 27.4602 13.8652H28.4815C28.3733 14.2259 28.1658 14.5226 27.8592 14.7546C27.5526 14.9869 27.176 15.1029 26.7297 15.1029C26.3689 15.1029 26.0452 15.0227 25.759 14.8628C25.4726 14.7027 25.2494 14.4762 25.0892 14.183C24.9291 13.89 24.8491 13.5517 24.8491 13.1683C24.8491 12.7805 24.9279 12.4402 25.0858 12.147C25.2435 11.854 25.4646 11.6285 25.7486 11.4706C26.0328 11.3129 26.3596 11.2339 26.7294 11.2339C27.0855 11.2339 27.4048 11.3107 27.6866 11.4637C27.9684 11.6171 28.1873 11.8347 28.3428 12.1165C28.4983 12.3983 28.5763 12.7217 28.5763 13.0871C28.5763 13.2226 28.567 13.3443 28.5492 13.4525ZM27.5955 12.8168C27.5908 12.5733 27.5031 12.3783 27.3315 12.2318C27.1599 12.0853 26.9505 12.0119 26.7024 12.0119C26.4679 12.0119 26.2704 12.0829 26.1105 12.225C25.9504 12.3671 25.8522 12.5643 25.8163 12.8168H27.5955Z" fill="white"/>
<path d="M30.6901 11.4096C30.8863 11.297 31.1106 11.2407 31.3631 11.2407V12.235H31.1128C30.8151 12.235 30.5906 12.3049 30.4398 12.4446C30.2886 12.5845 30.2131 12.828 30.2131 13.1751V15.042H29.2661V11.2948H30.2131V11.8767C30.335 11.678 30.4939 11.5225 30.6901 11.4096Z" fill="white"/>
<path d="M44.971 33.3223V34.3972H40.8706V27.3962H42.1732V33.322H44.971V33.3223Z" fill="#6D5ED4"/>
<path d="M52.3302 30.897C52.3302 31.4113 52.2449 31.8854 52.0757 32.3234C51.9063 32.7595 51.6665 33.138 51.3571 33.4581C51.0468 33.7781 50.6741 34.0267 50.2386 34.2064C49.8025 34.3848 49.3187 34.4747 48.7858 34.4747C48.2566 34.4747 47.774 34.385 47.3384 34.2064C46.9024 34.0267 46.5287 33.7781 46.2174 33.4581C45.9057 33.138 45.6648 32.7595 45.4935 32.3234C45.3224 31.8854 45.2368 31.4113 45.2368 30.897C45.2368 30.3829 45.3221 29.9088 45.4935 29.4708C45.6646 29.0347 45.9057 28.6562 46.2174 28.3361C46.5287 28.0161 46.9024 27.7675 47.3384 27.5878C47.774 27.4094 48.2564 27.3197 48.7858 27.3197C49.141 27.3197 49.4751 27.3607 49.7876 27.4426C50.1008 27.5245 50.3882 27.6415 50.65 27.7909C50.9111 27.9422 51.146 28.1236 51.354 28.3393C51.5624 28.5538 51.7388 28.7929 51.8841 29.0584C52.0296 29.3228 52.1398 29.6097 52.2159 29.9198C52.2919 30.2286 52.3302 30.5555 52.3302 30.897ZM50.9986 30.897C50.9986 30.5126 50.9469 30.1691 50.8436 29.863C50.7404 29.5595 50.5932 29.299 50.4031 29.0864C50.2125 28.8736 49.9812 28.7108 49.7084 28.5977C49.4352 28.4846 49.128 28.4278 48.7861 28.4278C48.4436 28.4278 48.1362 28.4843 47.8635 28.5977C47.591 28.7108 47.3587 28.8736 47.1663 29.0864C46.974 29.2992 46.8268 29.5595 46.7234 29.863C46.6201 30.1694 46.5684 30.5128 46.5684 30.897C46.5684 31.2814 46.6201 31.6248 46.7234 31.9312C46.8268 32.2357 46.9743 32.4931 47.1663 32.7049C47.3587 32.9177 47.5907 33.0795 47.8635 33.1916C48.1362 33.3047 48.4436 33.3623 48.7861 33.3623C49.128 33.3623 49.4354 33.3047 49.7084 33.1916C49.9812 33.0795 50.2122 32.9174 50.4031 32.7049C50.5935 32.4933 50.7407 32.2357 50.8436 31.9312C50.9469 31.6246 50.9986 31.2814 50.9986 30.897Z" fill="#6D5ED4"/>
<path d="M59.2489 30.8872V33.7194C58.8937 33.9809 58.5152 34.172 58.1132 34.2929C57.7113 34.4148 57.2816 34.4745 56.8231 34.4745C56.2517 34.4745 55.7342 34.3867 55.2714 34.2081C54.808 34.0314 54.4129 33.7847 54.0855 33.4676C53.7577 33.1524 53.5049 32.7739 53.3275 32.3339C53.1502 31.8959 53.0615 31.4169 53.0615 30.8967C53.0615 30.37 53.1468 29.8881 53.3182 29.4498C53.4888 29.0099 53.7318 28.6323 54.0465 28.3171C54.3612 28 54.7432 27.7541 55.1914 27.5805C55.6402 27.406 56.144 27.319 56.7022 27.319C56.9861 27.319 57.2518 27.3414 57.4987 27.3862C57.7454 27.4321 57.9748 27.4935 58.1861 27.5725C58.3977 27.6514 58.5905 27.747 58.7645 27.8611C58.9386 27.9742 59.0987 28.0973 59.244 28.2328L58.8713 28.8241C58.8133 28.9187 58.7372 28.9755 58.6436 28.996C58.55 29.0174 58.4486 28.994 58.3387 28.9267C58.2319 28.8653 58.1254 28.8039 58.0192 28.7425C57.9121 28.681 57.7937 28.6272 57.663 28.5835C57.5329 28.5377 57.3854 28.4997 57.2226 28.4714C57.0598 28.4431 56.8713 28.4275 56.6588 28.4275C56.3134 28.4275 56.0007 28.4851 55.7218 28.6021C55.4427 28.7191 55.2048 28.8841 55.0076 29.0996C54.8109 29.3172 54.6593 29.5756 54.5525 29.8801C54.4463 30.1825 54.3929 30.5231 54.3929 30.8967C54.3929 31.2967 54.4499 31.6548 54.5647 31.97C54.6793 32.2842 54.8407 32.5506 55.0491 32.768C55.257 32.9864 55.508 33.1524 55.8018 33.2674C56.0955 33.3825 56.4233 33.439 56.7848 33.439C57.0429 33.439 57.2735 33.4108 57.4771 33.3571C57.6803 33.3016 57.879 33.2275 58.0728 33.1327V31.8644H57.1914C57.1075 31.8644 57.0422 31.842 56.9959 31.7952C56.9491 31.7474 56.9252 31.6909 56.9252 31.6236V30.887H59.2489V30.8872Z" fill="#6D5ED4"/>
<path d="M67.1844 30.897C67.1844 31.4113 67.0991 31.8854 66.9297 32.3234C66.7601 32.7595 66.5205 33.138 66.2107 33.4581C65.9008 33.7781 65.5282 34.0267 65.0921 34.2064C64.6565 34.3848 64.1722 34.4747 63.6398 34.4747C63.1106 34.4747 62.628 34.385 62.1924 34.2064C61.7564 34.0267 61.3827 33.7781 61.0714 33.4581C60.7597 33.138 60.5184 32.7595 60.3475 32.3234C60.1764 31.8854 60.0908 31.4113 60.0908 30.897C60.0908 30.3829 60.1761 29.9088 60.3475 29.4708C60.5181 29.0347 60.7597 28.6562 61.0714 28.3361C61.3827 28.0161 61.7564 27.7675 62.1924 27.5878C62.628 27.4094 63.1106 27.3197 63.6398 27.3197C63.995 27.3197 64.3291 27.3607 64.6419 27.4426C64.9548 27.5245 65.2422 27.6415 65.5038 27.7909C65.7653 27.9422 65.9998 28.1236 66.208 28.3393C66.4164 28.5538 66.5929 28.7929 66.7384 29.0584C66.8836 29.3228 66.9941 29.6097 67.0701 29.9198C67.1459 30.2286 67.1844 30.5555 67.1844 30.897ZM65.8523 30.897C65.8523 30.5126 65.8011 30.1691 65.6978 29.863C65.5944 29.5595 65.4475 29.299 65.2573 29.0864C65.0667 28.8736 64.8354 28.7108 64.5627 28.5977C64.2894 28.4846 63.982 28.4278 63.6401 28.4278C63.2976 28.4278 62.9902 28.4843 62.7177 28.5977C62.445 28.7108 62.2129 28.8736 62.0206 29.0864C61.8285 29.2992 61.6806 29.5595 61.5777 29.863C61.4743 30.1694 61.4224 30.5128 61.4224 30.897C61.4224 31.2814 61.4741 31.6248 61.5777 31.9312C61.6806 32.2357 61.8285 32.4931 62.0206 32.7049C62.2129 32.9177 62.445 33.0795 62.7177 33.1916C62.9902 33.3047 63.2978 33.3623 63.6401 33.3623C63.982 33.3623 64.2894 33.3047 64.5627 33.1916C64.8352 33.0795 65.0665 32.9174 65.2573 32.7049C65.4475 32.4933 65.5944 32.2357 65.6978 31.9312C65.8011 31.6246 65.8523 31.2814 65.8523 30.897Z" fill="#6D5ED4"/>
<path d="M217.192 34.893H210.032C209.802 34.893 209.616 34.7067 209.616 34.4771V27.3165C209.616 27.0869 209.802 26.9006 210.032 26.9006H217.192C217.422 26.9006 217.608 27.0869 217.608 27.3165V34.4771C217.608 34.7067 217.422 34.893 217.192 34.893Z" fill="#6D5ED4"/>
<path d="M228.367 34.893H221.163C220.946 34.893 220.769 34.7165 220.769 34.4986V27.295C220.769 27.0774 220.946 26.9006 221.163 26.9006H228.367C228.585 26.9006 228.761 27.0771 228.761 27.295V34.4986C228.761 34.7165 228.585 34.893 228.367 34.893Z" fill="#6D5ED4"/>
<path d="M205.98 34.893H198.819C198.59 34.893 198.404 34.7067 198.404 34.4771V27.3165C198.404 27.0869 198.59 26.9006 198.819 26.9006H205.98C206.21 26.9006 206.396 27.0869 206.396 27.3165V34.4771C206.396 34.7067 206.21 34.893 205.98 34.893Z" fill="#6D5ED4"/>
<path d="M217.155 34.893H209.951C209.733 34.893 209.557 34.7165 209.557 34.4986V27.295C209.557 27.0774 209.733 26.9006 209.951 26.9006H217.155C217.372 26.9006 217.549 27.0771 217.549 27.295V34.4986C217.549 34.7165 217.372 34.893 217.155 34.893Z" fill="#6D5ED4"/>
<path d="M12.9419 24.4261V21.9628H17.5441V35.8838H14.7942V24.4261H12.9419Z" fill="white"/>
<path d="M19.8547 24.4261V21.9628H24.457V35.8838H21.707V24.4261H19.8547Z" fill="white"/>
</g>
<defs>
<clipPath id="clip0_952_3099">
<rect width="234" height="50.2125" fill="white" transform="translate(0 0.337524)"/>
</clipPath>
</defs>
</svg>
