<svg width="234" height="51" viewBox="0 0 234 51" fill="none" xmlns="http://www.w3.org/2000/svg">
<g clip-path="url(#clip0_952_3139)">
<path d="M233.756 0.838501H-0.0144043V50.7895H233.756V0.838501Z" fill="white"/>
<path d="M233.756 0.675171H-0.0144043V11.6644H233.756V0.675171Z" fill="#9181FF"/>
<path d="M106.561 31.3885C106.561 32.6138 105.567 33.6071 104.342 33.6071H93.7945C92.5692 33.6071 91.5754 32.6141 91.5754 31.3885V30.8306C91.5754 29.6052 92.569 28.6119 93.7945 28.6119H104.342C105.567 28.6119 106.561 29.605 106.561 30.8306V31.3885Z" fill="#6D5ED4"/>
<path d="M88.2455 31.3885C88.2455 32.6138 87.252 33.6071 86.0264 33.6071H75.4791C74.2538 33.6071 73.26 32.6141 73.26 31.3885V30.8306C73.26 29.6052 74.2535 28.6119 75.4791 28.6119H86.0264C87.2517 28.6119 88.2455 29.605 88.2455 30.8306V31.3885Z" fill="#6D5ED4"/>
<path d="M124.876 31.3885C124.876 32.6138 123.883 33.6071 122.657 33.6071H112.11C110.885 33.6071 109.891 32.6141 109.891 31.3885V30.8306C109.891 29.6052 110.884 28.6119 112.11 28.6119H122.657C123.883 28.6119 124.876 29.605 124.876 30.8306V31.3885Z" fill="#6D5ED4"/>
<path d="M143.192 31.3885C143.192 32.6138 142.198 33.6071 140.972 33.6071H130.426C129.2 33.6071 128.206 32.6141 128.206 31.3885V30.8306C128.206 29.6052 129.2 28.6119 130.426 28.6119H140.972C142.197 28.6119 143.192 29.605 143.192 30.8306V31.3885Z" fill="#6D5ED4"/>
<path d="M36.9685 0.838501H-0.0761719V50.7895H36.9685V0.838501Z" fill="#6D5ED4"/>
<path d="M10.8135 10.5332V15.2546H9.86658V13.2457H7.84419V15.2546H6.89722V10.5332H7.84419V12.4744H9.86658V10.5332H10.8135V10.5332Z" fill="white"/>
<path d="M15.2035 13.6649H12.464C12.4865 13.9355 12.5813 14.1475 12.7482 14.3006C12.915 14.4539 13.1202 14.5307 13.3637 14.5307C13.7154 14.5307 13.9658 14.3796 14.1145 14.0776H15.1358C15.0276 14.4383 14.8201 14.735 14.5135 14.967C14.2068 15.1993 13.8303 15.3153 13.3839 15.3153C13.0232 15.3153 12.6995 15.2351 12.4133 15.0752C12.1269 14.9151 11.9037 14.6887 11.7435 14.3954C11.5834 14.1024 11.5034 13.7641 11.5034 13.3807C11.5034 12.9929 11.5821 12.6526 11.7401 12.3594C11.8978 12.0664 12.1189 11.8409 12.4029 11.683C12.6871 11.5253 13.0139 11.4463 13.3837 11.4463C13.7398 11.4463 14.0591 11.5231 14.3409 11.6761C14.6227 11.8295 14.8416 12.0471 14.9971 12.3289C15.1526 12.6107 15.2306 12.9341 15.2306 13.2995C15.2306 13.435 15.2216 13.5567 15.2035 13.6649ZM14.25 13.0292C14.2454 12.7857 14.1576 12.5907 13.986 12.4442C13.8144 12.2977 13.605 12.2243 13.3569 12.2243C13.1224 12.2243 12.925 12.2953 12.7651 12.4374C12.6049 12.5795 12.5067 12.7767 12.4709 13.0292H14.25Z" fill="white"/>
<path d="M15.9034 12.3594C16.0546 12.0664 16.2596 11.8409 16.5189 11.683C16.7783 11.5253 17.0678 11.4463 17.3881 11.4463C17.6677 11.4463 17.9124 11.5026 18.1221 11.6155C18.3317 11.7283 18.4996 11.8702 18.6259 12.0415V11.5072H19.5797V15.2546H18.6259V14.7067C18.504 14.8827 18.3361 15.028 18.1221 15.143C17.9078 15.2581 17.6609 15.3156 17.3813 15.3156C17.0656 15.3156 16.778 15.2344 16.5187 15.0718C16.2593 14.9092 16.0541 14.6809 15.9032 14.3854C15.7521 14.0902 15.6768 13.7507 15.6768 13.3673C15.677 12.9885 15.7526 12.6526 15.9034 12.3594ZM18.4909 12.7889C18.4007 12.6243 18.2788 12.4981 18.1255 12.4101C17.9722 12.3221 17.8076 12.278 17.6316 12.278C17.4559 12.278 17.2936 12.3209 17.1446 12.4064C16.9959 12.4922 16.8753 12.6173 16.7829 12.7818C16.6905 12.9466 16.6442 13.1416 16.6442 13.3668C16.6442 13.5925 16.6903 13.7897 16.7829 13.9586C16.8753 14.1278 16.9969 14.2575 17.1483 14.3476C17.2994 14.4381 17.4605 14.4829 17.6319 14.4829C17.8079 14.4829 17.9724 14.4391 18.1257 14.3511C18.279 14.2631 18.4007 14.137 18.4911 13.9723C18.5813 13.8077 18.6264 13.6103 18.6264 13.3804C18.6264 13.1506 18.581 12.9536 18.4909 12.7889Z" fill="white"/>
<path d="M20.4896 12.3594C20.6408 12.0664 20.847 11.841 21.1088 11.683C21.3703 11.5253 21.6611 11.4463 21.9814 11.4463C22.2249 11.4463 22.4572 11.4995 22.678 11.6052C22.8989 11.7113 23.0748 11.8522 23.2057 12.0279V10.249H24.1661V15.2547H23.2057V14.7001C23.0885 14.8851 22.924 15.0338 22.7119 15.1467C22.4998 15.2593 22.2541 15.3159 21.9746 15.3159C21.6589 15.3159 21.3703 15.2347 21.1088 15.0721C20.8472 14.9098 20.6408 14.6811 20.4896 14.3857C20.3385 14.0905 20.2632 13.751 20.2632 13.3676C20.2629 12.9885 20.3385 12.6526 20.4896 12.3594ZM23.0768 12.7889C22.9866 12.6244 22.8647 12.4981 22.7114 12.4101C22.5581 12.3221 22.3936 12.278 22.2176 12.278C22.0418 12.278 21.8795 12.3209 21.7306 12.4065C21.5819 12.4923 21.4612 12.6173 21.3688 12.7818C21.2765 12.9466 21.2301 13.1416 21.2301 13.3668C21.2301 13.5925 21.2762 13.7897 21.3688 13.9587C21.4612 14.1278 21.5828 14.2575 21.7342 14.3477C21.8853 14.4381 22.0465 14.483 22.2178 14.483C22.3938 14.483 22.5583 14.4391 22.7117 14.3511C22.865 14.2631 22.9866 14.1371 23.077 13.9723C23.1672 13.8078 23.2123 13.6103 23.2123 13.3805C23.2123 13.1506 23.1672 12.9537 23.0768 12.7889Z" fill="white"/>
<path d="M28.5492 13.6649H25.8097C25.8322 13.9355 25.927 14.1475 26.094 14.3006C26.2607 14.4539 26.4659 14.5307 26.7094 14.5307C27.0612 14.5307 27.3115 14.3796 27.4602 14.0776H28.4815C28.3733 14.4383 28.1658 14.735 27.8592 14.967C27.5526 15.1993 27.176 15.3153 26.7297 15.3153C26.3689 15.3153 26.0452 15.2351 25.759 15.0752C25.4726 14.9151 25.2494 14.6887 25.0892 14.3954C24.9291 14.1024 24.8491 13.7641 24.8491 13.3807C24.8491 12.9929 24.9279 12.6526 25.0858 12.3594C25.2435 12.0664 25.4646 11.8409 25.7486 11.683C26.0328 11.5253 26.3596 11.4463 26.7294 11.4463C27.0855 11.4463 27.4048 11.5231 27.6866 11.6761C27.9684 11.8295 28.1873 12.0471 28.3428 12.3289C28.4983 12.6107 28.5763 12.9341 28.5763 13.2995C28.5763 13.435 28.567 13.5567 28.5492 13.6649ZM27.5955 13.0292C27.5908 12.7857 27.5031 12.5907 27.3315 12.4442C27.1599 12.2977 26.9505 12.2243 26.7024 12.2243C26.4679 12.2243 26.2704 12.2953 26.1105 12.4374C25.9504 12.5795 25.8522 12.7767 25.8163 13.0292H27.5955Z" fill="white"/>
<path d="M30.6901 11.622C30.8863 11.5094 31.1106 11.4531 31.3631 11.4531V12.4474H31.1128C30.8151 12.4474 30.5906 12.5173 30.4398 12.657C30.2886 12.7969 30.2131 13.0404 30.2131 13.3875V15.2544H29.2661V11.5072H30.2131V12.0891C30.335 11.8904 30.4939 11.7349 30.6901 11.622Z" fill="white"/>
<path d="M44.971 33.5347V34.6096H40.8706V27.6086H42.1732V33.5344H44.971V33.5347Z" fill="#6D5ED4"/>
<path d="M52.3302 31.1094C52.3302 31.6237 52.2449 32.0978 52.0757 32.5358C51.9063 32.9719 51.6665 33.3504 51.3571 33.6705C51.0468 33.9905 50.6741 34.2391 50.2386 34.4188C49.8025 34.5972 49.3187 34.6871 48.7858 34.6871C48.2566 34.6871 47.774 34.5974 47.3384 34.4188C46.9024 34.2391 46.5287 33.9905 46.2174 33.6705C45.9057 33.3504 45.6648 32.9719 45.4935 32.5358C45.3224 32.0978 45.2368 31.6237 45.2368 31.1094C45.2368 30.5953 45.3221 30.1212 45.4935 29.6832C45.6646 29.2471 45.9057 28.8686 46.2174 28.5485C46.5287 28.2285 46.9024 27.9799 47.3384 27.8002C47.774 27.6218 48.2564 27.5321 48.7858 27.5321C49.141 27.5321 49.4751 27.5731 49.7876 27.655C50.1008 27.7369 50.3882 27.8539 50.65 28.0033C50.9111 28.1546 51.146 28.336 51.354 28.5517C51.5624 28.7662 51.7388 29.0053 51.8841 29.2708C52.0296 29.5352 52.1398 29.8221 52.2159 30.1322C52.2919 30.441 52.3302 30.7679 52.3302 31.1094ZM50.9986 31.1094C50.9986 30.725 50.9469 30.3815 50.8436 30.0754C50.7404 29.7719 50.5932 29.5114 50.4031 29.2988C50.2125 29.086 49.9812 28.9232 49.7084 28.8101C49.4352 28.697 49.128 28.6402 48.7861 28.6402C48.4436 28.6402 48.1362 28.6967 47.8635 28.8101C47.591 28.9232 47.3587 29.086 47.1663 29.2988C46.974 29.5116 46.8268 29.7719 46.7234 30.0754C46.6201 30.3818 46.5684 30.7252 46.5684 31.1094C46.5684 31.4938 46.6201 31.8372 46.7234 32.1436C46.8268 32.4481 46.9743 32.7055 47.1663 32.9173C47.3587 33.1301 47.5907 33.2919 47.8635 33.404C48.1362 33.5171 48.4436 33.5747 48.7861 33.5747C49.128 33.5747 49.4354 33.5171 49.7084 33.404C49.9812 33.2919 50.2122 33.1298 50.4031 32.9173C50.5935 32.7057 50.7407 32.4481 50.8436 32.1436C50.9469 31.837 50.9986 31.4938 50.9986 31.1094Z" fill="#6D5ED4"/>
<path d="M59.2489 31.0996V33.9318C58.8937 34.1933 58.5152 34.3844 58.1132 34.5053C57.7113 34.6272 57.2816 34.6869 56.8231 34.6869C56.2517 34.6869 55.7342 34.5991 55.2714 34.4205C54.808 34.2438 54.4129 33.9971 54.0855 33.68C53.7577 33.3648 53.5049 32.9863 53.3275 32.5463C53.1502 32.1083 53.0615 31.6293 53.0615 31.1091C53.0615 30.5824 53.1468 30.1005 53.3182 29.6622C53.4888 29.2223 53.7318 28.8447 54.0465 28.5295C54.3612 28.2124 54.7432 27.9665 55.1914 27.7929C55.6402 27.6184 56.144 27.5314 56.7022 27.5314C56.9861 27.5314 57.2518 27.5538 57.4987 27.5986C57.7454 27.6445 57.9748 27.7059 58.1861 27.7849C58.3977 27.8638 58.5905 27.9594 58.7645 28.0735C58.9386 28.1866 59.0987 28.3097 59.244 28.4452L58.8713 29.0365C58.8133 29.1311 58.7372 29.1879 58.6436 29.2084C58.55 29.2298 58.4486 29.2064 58.3387 29.1391C58.2319 29.0777 58.1254 29.0163 58.0192 28.9549C57.9121 28.8934 57.7937 28.8396 57.663 28.7959C57.5329 28.7501 57.3854 28.7121 57.2226 28.6838C57.0598 28.6555 56.8713 28.6399 56.6588 28.6399C56.3134 28.6399 56.0007 28.6975 55.7218 28.8145C55.4427 28.9315 55.2048 29.0965 55.0076 29.312C54.8109 29.5296 54.6593 29.788 54.5525 30.0925C54.4463 30.3949 54.3929 30.7355 54.3929 31.1091C54.3929 31.5091 54.4499 31.8672 54.5647 32.1824C54.6793 32.4966 54.8407 32.763 55.0491 32.9804C55.257 33.1988 55.508 33.3648 55.8018 33.4798C56.0955 33.5949 56.4233 33.6514 56.7848 33.6514C57.0429 33.6514 57.2735 33.6232 57.4771 33.5695C57.6803 33.514 57.879 33.4399 58.0728 33.3451V32.0768H57.1914C57.1075 32.0768 57.0422 32.0544 56.9959 32.0076C56.9491 31.9598 56.9252 31.9033 56.9252 31.836V31.0994H59.2489V31.0996Z" fill="#6D5ED4"/>
<path d="M67.1844 31.1094C67.1844 31.6237 67.0991 32.0978 66.9297 32.5358C66.7601 32.9719 66.5205 33.3504 66.2107 33.6705C65.9008 33.9905 65.5282 34.2391 65.0921 34.4188C64.6565 34.5972 64.1722 34.6871 63.6398 34.6871C63.1106 34.6871 62.628 34.5974 62.1924 34.4188C61.7564 34.2391 61.3827 33.9905 61.0714 33.6705C60.7597 33.3504 60.5184 32.9719 60.3475 32.5358C60.1764 32.0978 60.0908 31.6237 60.0908 31.1094C60.0908 30.5953 60.1761 30.1212 60.3475 29.6832C60.5181 29.2471 60.7597 28.8686 61.0714 28.5485C61.3827 28.2285 61.7564 27.9799 62.1924 27.8002C62.628 27.6218 63.1106 27.5321 63.6398 27.5321C63.995 27.5321 64.3291 27.5731 64.6419 27.655C64.9548 27.7369 65.2422 27.8539 65.5038 28.0033C65.7653 28.1546 65.9998 28.336 66.208 28.5517C66.4164 28.7662 66.5929 29.0053 66.7384 29.2708C66.8836 29.5352 66.9941 29.8221 67.0701 30.1322C67.1459 30.441 67.1844 30.7679 67.1844 31.1094ZM65.8523 31.1094C65.8523 30.725 65.8011 30.3815 65.6978 30.0754C65.5944 29.7719 65.4475 29.5114 65.2573 29.2988C65.0667 29.086 64.8354 28.9232 64.5627 28.8101C64.2894 28.697 63.982 28.6402 63.6401 28.6402C63.2976 28.6402 62.9902 28.6967 62.7177 28.8101C62.445 28.9232 62.2129 29.086 62.0206 29.2988C61.8285 29.5116 61.6806 29.7719 61.5777 30.0754C61.4743 30.3818 61.4224 30.7252 61.4224 31.1094C61.4224 31.4938 61.4741 31.8372 61.5777 32.1436C61.6806 32.4481 61.8285 32.7055 62.0206 32.9173C62.2129 33.1301 62.445 33.2919 62.7177 33.404C62.9902 33.5171 63.2978 33.5747 63.6401 33.5747C63.982 33.5747 64.2894 33.5171 64.5627 33.404C64.8352 33.2919 65.0665 33.1298 65.2573 32.9173C65.4475 32.7057 65.5944 32.4481 65.6978 32.1436C65.8011 31.837 65.8523 31.4938 65.8523 31.1094Z" fill="#6D5ED4"/>
<path d="M184.362 35.1663C182.155 35.1663 180.366 33.3771 180.366 31.1702C180.366 28.9633 182.155 27.1742 184.362 27.1742C186.569 27.1742 188.358 28.9633 188.358 31.1702C188.358 33.3771 186.569 35.1663 184.362 35.1663Z" fill="#6D5ED4"/>
<path d="M224.765 35.1663C222.558 35.1663 220.769 33.3771 220.769 31.1702C220.769 28.9633 222.558 27.1742 224.765 27.1742C226.972 27.1742 228.761 28.9633 228.761 31.1702C228.761 33.3771 226.972 35.1663 224.765 35.1663Z" fill="#6D5ED4"/>
<path d="M199.499 35.1663H194.211C192.004 35.1663 190.215 33.3771 190.215 31.1702C190.215 28.9633 192.004 27.1742 194.211 27.1742H199.499C201.705 27.1742 203.495 28.9633 203.495 31.1702C203.495 33.3771 201.705 35.1663 199.499 35.1663Z" fill="#6D5ED4"/>
<path d="M214.694 35.1663H209.364C207.169 35.1663 205.389 33.3869 205.389 31.1917V31.1488C205.389 28.9536 207.168 27.1742 209.364 27.1742H214.694C216.889 27.1742 218.669 28.9536 218.669 31.1488V31.1917C218.669 33.3869 216.889 35.1663 214.694 35.1663Z" fill="#6D5ED4"/>
<path d="M199.388 34.4311C201.138 34.4311 202.556 33.0124 202.556 31.2624C202.556 29.5123 201.138 28.0936 199.388 28.0936C197.637 28.0936 196.219 29.5123 196.219 31.2624C196.219 33.0124 197.637 34.4311 199.388 34.4311Z" fill="white"/>
<path d="M214.744 34.4311C216.494 34.4311 217.912 33.0124 217.912 31.2624C217.912 29.5123 216.494 28.0936 214.744 28.0936C212.994 28.0936 211.575 29.5123 211.575 31.2624C211.575 33.0124 212.994 34.4311 214.744 34.4311Z" fill="white"/>
<path d="M199.489 30.5482H199.484L199.153 30.7264L199.104 30.5304L199.519 30.3081H199.738V32.2084H199.489V30.5482Z" fill="black"/>
<path d="M214.602 30.5482H214.596L214.266 30.7264L214.216 30.5304L214.631 30.3081H214.851V32.2084H214.602V30.5482Z" fill="black"/>
<path d="M9.60132 24.2851V21.8218H14.2036V35.7428H11.4536V24.2851H9.60132Z" fill="white"/>
<path d="M17.679 32.7254C18.9012 31.7071 19.8752 30.8571 20.6009 30.1761C21.3265 29.4953 21.931 28.7852 22.4149 28.0469C22.8985 27.3088 23.1405 26.5832 23.1405 25.87C23.1405 25.2206 22.9877 24.7117 22.6823 24.3424C22.3768 23.9734 21.9054 23.7886 21.2692 23.7886C20.6326 23.7886 20.1426 24.0019 19.7989 24.4284C19.4552 24.855 19.2768 25.4376 19.2641 26.1756H16.667C16.7177 24.6478 17.173 23.4895 18.0325 22.7C18.8917 21.9107 19.9832 21.5161 21.3075 21.5161C22.7588 21.5161 23.8725 21.9012 24.6493 22.6715C25.4257 23.442 25.8142 24.457 25.8142 25.7174C25.8142 26.7104 25.5468 27.6589 25.0123 28.5627C24.4775 29.4668 23.8664 30.2528 23.179 30.921C22.4916 31.5893 21.5942 32.3947 20.4866 33.3368H26.1199V35.552H16.686V33.5659L17.679 32.7254Z" fill="white"/>
</g>
<defs>
<clipPath id="clip0_952_3139">
<rect width="234" height="50.2125" fill="white" transform="translate(0 0.549927)"/>
</clipPath>
</defs>
</svg>
