<svg width="234" height="51" viewBox="0 0 234 51" fill="none" xmlns="http://www.w3.org/2000/svg">
<g clip-path="url(#clip0_952_3052)">
<path d="M233.756 1.0509H-0.0144043V51.0019H233.756V1.0509Z" fill="white"/>
<path d="M233.756 0.887573H-0.0144043V11.8768H233.756V0.887573Z" fill="#9181FF"/>
<path d="M36.9685 1.0509H-0.0761719V51.0019H36.9685V1.0509Z" fill="#6D5ED4"/>
<path d="M10.8135 10.7456V15.467H9.86658V13.4581H7.84419V15.467H6.89722V10.7456H7.84419V12.6868H9.86658V10.7456H10.8135V10.7456Z" fill="white"/>
<path d="M15.2035 13.8773H12.464C12.4865 14.1479 12.5813 14.3599 12.7482 14.513C12.915 14.6663 13.1202 14.7431 13.3637 14.7431C13.7154 14.7431 13.9658 14.592 14.1145 14.29H15.1358C15.0276 14.6507 14.8201 14.9474 14.5135 15.1794C14.2068 15.4117 13.8303 15.5277 13.3839 15.5277C13.0232 15.5277 12.6995 15.4475 12.4133 15.2876C12.1269 15.1275 11.9037 14.9011 11.7435 14.6078C11.5834 14.3148 11.5034 13.9765 11.5034 13.5931C11.5034 13.2053 11.5821 12.865 11.7401 12.5718C11.8978 12.2788 12.1189 12.0533 12.4029 11.8954C12.6871 11.7377 13.0139 11.6587 13.3837 11.6587C13.7398 11.6587 14.0591 11.7355 14.3409 11.8885C14.6227 12.0419 14.8416 12.2595 14.9971 12.5413C15.1526 12.8231 15.2306 13.1465 15.2306 13.5119C15.2306 13.6474 15.2216 13.7691 15.2035 13.8773ZM14.25 13.2416C14.2454 12.9981 14.1576 12.8031 13.986 12.6566C13.8144 12.5101 13.605 12.4367 13.3569 12.4367C13.1224 12.4367 12.925 12.5077 12.7651 12.6498C12.6049 12.7919 12.5067 12.9891 12.4709 13.2416H14.25Z" fill="white"/>
<path d="M15.9034 12.5718C16.0546 12.2788 16.2596 12.0533 16.5189 11.8954C16.7783 11.7377 17.0678 11.6587 17.3881 11.6587C17.6677 11.6587 17.9124 11.715 18.1221 11.8279C18.3317 11.9407 18.4996 12.0826 18.6259 12.2539V11.7196H19.5797V15.467H18.6259V14.9191C18.504 15.0951 18.3361 15.2404 18.1221 15.3554C17.9078 15.4705 17.6609 15.528 17.3813 15.528C17.0656 15.528 16.778 15.4468 16.5187 15.2842C16.2593 15.1216 16.0541 14.8933 15.9032 14.5978C15.7521 14.3026 15.6768 13.9631 15.6768 13.5797C15.677 13.2009 15.7526 12.865 15.9034 12.5718ZM18.4909 13.0013C18.4007 12.8367 18.2788 12.7105 18.1255 12.6225C17.9722 12.5345 17.8076 12.4904 17.6316 12.4904C17.4559 12.4904 17.2936 12.5333 17.1446 12.6188C16.9959 12.7046 16.8753 12.8297 16.7829 12.9942C16.6905 13.159 16.6442 13.354 16.6442 13.5792C16.6442 13.8049 16.6903 14.0021 16.7829 14.171C16.8753 14.3402 16.9969 14.4699 17.1483 14.56C17.2994 14.6505 17.4605 14.6953 17.6319 14.6953C17.8079 14.6953 17.9724 14.6515 18.1257 14.5635C18.279 14.4755 18.4007 14.3494 18.4911 14.1847C18.5813 14.0201 18.6264 13.8227 18.6264 13.5928C18.6264 13.363 18.581 13.166 18.4909 13.0013Z" fill="white"/>
<path d="M20.4896 12.5718C20.6408 12.2788 20.847 12.0534 21.1088 11.8954C21.3703 11.7377 21.6611 11.6587 21.9814 11.6587C22.2249 11.6587 22.4572 11.7119 22.678 11.8177C22.8989 11.9237 23.0748 12.0646 23.2057 12.2403V10.4614H24.1661V15.4671H23.2057V14.9125C23.0885 15.0976 22.924 15.2462 22.7119 15.3591C22.4998 15.4717 22.2541 15.5283 21.9746 15.5283C21.6589 15.5283 21.3703 15.4471 21.1088 15.2845C20.8472 15.1222 20.6408 14.8935 20.4896 14.5981C20.3385 14.3029 20.2632 13.9634 20.2632 13.58C20.2629 13.2009 20.3385 12.865 20.4896 12.5718ZM23.0768 13.0013C22.9866 12.8368 22.8647 12.7105 22.7114 12.6225C22.5581 12.5345 22.3936 12.4904 22.2176 12.4904C22.0418 12.4904 21.8795 12.5333 21.7306 12.6189C21.5819 12.7047 21.4612 12.8297 21.3688 12.9942C21.2765 13.159 21.2301 13.354 21.2301 13.5792C21.2301 13.8049 21.2762 14.0021 21.3688 14.1711C21.4612 14.3402 21.5828 14.4699 21.7342 14.5601C21.8853 14.6505 22.0465 14.6954 22.2178 14.6954C22.3938 14.6954 22.5583 14.6515 22.7117 14.5635C22.865 14.4755 22.9866 14.3495 23.077 14.1847C23.1672 14.0202 23.2123 13.8227 23.2123 13.5929C23.2123 13.363 23.1672 13.1661 23.0768 13.0013Z" fill="white"/>
<path d="M28.5492 13.8773H25.8097C25.8322 14.1479 25.927 14.3599 26.094 14.513C26.2607 14.6663 26.4659 14.7431 26.7094 14.7431C27.0612 14.7431 27.3115 14.592 27.4602 14.29H28.4815C28.3733 14.6507 28.1658 14.9474 27.8592 15.1794C27.5526 15.4117 27.176 15.5277 26.7297 15.5277C26.3689 15.5277 26.0452 15.4475 25.759 15.2876C25.4726 15.1275 25.2494 14.9011 25.0892 14.6078C24.9291 14.3148 24.8491 13.9765 24.8491 13.5931C24.8491 13.2053 24.9279 12.865 25.0858 12.5718C25.2435 12.2788 25.4646 12.0533 25.7486 11.8954C26.0328 11.7377 26.3596 11.6587 26.7294 11.6587C27.0855 11.6587 27.4048 11.7355 27.6866 11.8885C27.9684 12.0419 28.1873 12.2595 28.3428 12.5413C28.4983 12.8231 28.5763 13.1465 28.5763 13.5119C28.5763 13.6474 28.567 13.7691 28.5492 13.8773ZM27.5955 13.2416C27.5908 12.9981 27.5031 12.8031 27.3315 12.6566C27.1599 12.5101 26.9505 12.4367 26.7024 12.4367C26.4679 12.4367 26.2704 12.5077 26.1105 12.6498C25.9504 12.7919 25.8522 12.9891 25.8163 13.2416H27.5955Z" fill="white"/>
<path d="M30.6901 11.8344C30.8863 11.7218 31.1106 11.6655 31.3631 11.6655V12.6598H31.1128C30.8151 12.6598 30.5906 12.7297 30.4398 12.8694C30.2886 13.0093 30.2131 13.2528 30.2131 13.5999V15.4668H29.2661V11.7196H30.2131V12.3015C30.335 12.1028 30.4939 11.9473 30.6901 11.8344Z" fill="white"/>
<path d="M73.6916 42.3817C73.6916 43.607 72.698 44.6003 71.4725 44.6003H60.9252C59.6998 44.6003 58.7061 43.6072 58.7061 42.3817V41.8237C58.7061 40.5984 59.6996 39.6051 60.9252 39.6051H71.4725C72.6978 39.6051 73.6916 40.5981 73.6916 41.8237V42.3817Z" fill="#6D5ED4"/>
<path d="M55.3761 42.3817C55.3761 43.607 54.3826 44.6003 53.157 44.6003H42.6097C41.3844 44.6003 40.3906 43.6072 40.3906 42.3817V41.8237C40.3906 40.5984 41.3842 39.6051 42.6097 39.6051H53.157C54.3824 39.6051 55.3761 40.5981 55.3761 41.8237V42.3817V42.3817Z" fill="#6D5ED4"/>
<path d="M92.007 42.3817C92.007 43.607 91.0135 44.6003 89.7879 44.6003H79.2406C78.0153 44.6003 77.0215 43.6072 77.0215 42.3817V41.8237C77.0215 40.5984 78.015 39.6051 79.2406 39.6051H89.7879C91.0132 39.6051 92.007 40.5981 92.007 41.8237V42.3817Z" fill="#6D5ED4"/>
<path d="M110.322 42.3817C110.322 43.607 109.328 44.6003 108.103 44.6003H97.5563C96.3304 44.6003 95.3367 43.6072 95.3367 42.3817V41.8237C95.3367 40.5984 96.3302 39.6051 97.5563 39.6051H108.103C109.328 39.6051 110.322 40.5981 110.322 41.8237V42.3817Z" fill="#6D5ED4"/>
<path d="M45.1287 25.4702V26.5452H41.0283V19.5444H42.3309V25.4702H45.1287V25.4702Z" fill="#6D5ED4"/>
<path d="M52.4879 23.0447C52.4879 23.559 52.4026 24.0331 52.2334 24.4711C52.064 24.9072 51.8242 25.2857 51.5149 25.6058C51.2046 25.9258 50.8319 26.1744 50.3963 26.3541C49.9602 26.5325 49.4764 26.6224 48.9435 26.6224C48.4144 26.6224 47.9317 26.5327 47.4961 26.3541C47.0601 26.1744 46.6864 25.9258 46.3751 25.6058C46.0634 25.2857 45.8226 24.9072 45.6512 24.4711C45.4801 24.0331 45.3945 23.559 45.3945 23.0447C45.3945 22.5306 45.4798 22.0565 45.6512 21.6185C45.8223 21.1824 46.0634 20.8039 46.3751 20.4838C46.6864 20.1638 47.0601 19.9152 47.4961 19.7355C47.9317 19.5571 48.4141 19.4674 48.9435 19.4674C49.2987 19.4674 49.6329 19.5084 49.9453 19.5903C50.2586 19.6722 50.5459 19.7892 50.8077 19.9386C51.0688 20.0899 51.3038 20.2713 51.5117 20.487C51.7201 20.7015 51.8966 20.9406 52.0418 21.2061C52.1874 21.4705 52.2975 21.7574 52.3736 22.0675C52.4496 22.3766 52.4879 22.7034 52.4879 23.0447ZM51.1563 23.0447C51.1563 22.6603 51.1046 22.3168 51.0013 22.0107C50.8982 21.7072 50.7509 21.4467 50.5608 21.2341C50.3702 21.0213 50.1389 20.8585 49.8661 20.7454C49.5929 20.6323 49.2858 20.5755 48.9438 20.5755C48.6013 20.5755 48.2939 20.632 48.0212 20.7454C47.7487 20.8585 47.5164 21.0213 47.3241 21.2341C47.1317 21.4469 46.9845 21.7072 46.8812 22.0107C46.7778 22.3171 46.7261 22.6605 46.7261 23.0447C46.7261 23.4291 46.7778 23.7725 46.8812 24.0789C46.9845 24.3834 47.132 24.6408 47.3241 24.8526C47.5164 25.0654 47.7484 25.2272 48.0212 25.3393C48.2939 25.4524 48.6013 25.51 48.9438 25.51C49.2858 25.51 49.5931 25.4524 49.8661 25.3393C50.1389 25.2272 50.37 25.0651 50.5608 24.8526C50.7512 24.641 50.8984 24.3834 51.0013 24.0789C51.1046 23.7725 51.1563 23.4293 51.1563 23.0447Z" fill="#6D5ED4"/>
<path d="M59.4066 23.0352V25.8673C59.0514 26.1289 58.6729 26.32 58.271 26.4409C57.869 26.5627 57.4393 26.6224 56.9808 26.6224C56.4094 26.6224 55.892 26.5347 55.4291 26.356C54.9657 26.1793 54.5706 25.9326 54.2432 25.6155C53.9154 25.3003 53.6626 24.9218 53.4852 24.4818C53.308 24.0438 53.2192 23.5648 53.2192 23.0447C53.2192 22.5179 53.3045 22.036 53.4759 21.5978C53.6465 21.1578 53.8896 20.7802 54.2042 20.4651C54.5189 20.148 54.9009 19.902 55.3491 19.7285C55.7979 19.5539 56.3017 19.4669 56.8599 19.4669C57.1439 19.4669 57.4095 19.4893 57.6565 19.5342C57.9031 19.58 58.1325 19.6414 58.3438 19.7204C58.5554 19.7994 58.7482 19.8949 58.9223 20.009C59.0963 20.1221 59.2564 20.2452 59.4017 20.3807L59.029 20.9721C58.971 21.0667 58.895 21.1234 58.8014 21.1439C58.7078 21.1654 58.6064 21.142 58.4964 21.0747C58.3897 21.0133 58.2831 20.9518 58.1769 20.8904C58.0699 20.829 57.9514 20.7751 57.8207 20.7315C57.6906 20.6857 57.5431 20.6476 57.3803 20.6194C57.2175 20.5911 57.029 20.5755 56.8165 20.5755C56.4711 20.5755 56.1584 20.633 55.8795 20.75C55.6004 20.867 55.3625 21.032 55.1653 21.2475C54.9686 21.4652 54.817 21.7236 54.7103 22.028C54.604 22.3305 54.5506 22.671 54.5506 23.0447C54.5506 23.4447 54.6076 23.8027 54.7224 24.1179C54.837 24.4321 54.9984 24.6985 55.2068 24.916C55.4147 25.1344 55.6658 25.3003 55.9595 25.4154C56.2532 25.5304 56.581 25.587 56.9425 25.587C57.2006 25.587 57.4312 25.5587 57.6348 25.5051C57.8381 25.4495 58.0367 25.3754 58.2305 25.2806V24.0124H57.3491C57.2652 24.0124 57.1999 23.9899 57.1536 23.9431C57.1068 23.8954 57.0829 23.8388 57.0829 23.7715V23.0349L59.4066 23.0352Z" fill="#6D5ED4"/>
<path d="M67.3421 23.0447C67.3421 23.559 67.2568 24.0331 67.0874 24.4711C66.9178 24.9072 66.6782 25.2857 66.3684 25.6058C66.0586 25.9258 65.6859 26.1744 65.2498 26.3541C64.8142 26.5325 64.3299 26.6224 63.7975 26.6224C63.2684 26.6224 62.7857 26.5327 62.3501 26.3541C61.9141 26.1744 61.5404 25.9258 61.2291 25.6058C60.9174 25.2857 60.6761 24.9072 60.5052 24.4711C60.3341 24.0331 60.2485 23.559 60.2485 23.0447C60.2485 22.5306 60.3338 22.0565 60.5052 21.6185C60.6758 21.1824 60.9174 20.8039 61.2291 20.4838C61.5404 20.1638 61.9141 19.9152 62.3501 19.7355C62.7857 19.5571 63.2684 19.4674 63.7975 19.4674C64.1527 19.4674 64.4869 19.5084 64.7996 19.5903C65.1126 19.6722 65.3999 19.7892 65.6615 19.9386C65.923 20.0899 66.1575 20.2713 66.3657 20.487C66.5741 20.7015 66.7506 20.9406 66.8961 21.2061C67.0414 21.4705 67.1518 21.7574 67.2278 22.0675C67.3036 22.3766 67.3421 22.7034 67.3421 23.0447ZM66.0101 23.0447C66.0101 22.6603 65.9589 22.3168 65.8555 22.0107C65.7522 21.7072 65.6052 21.4467 65.4151 21.2341C65.2244 21.0213 64.9931 20.8585 64.7204 20.7454C64.4471 20.6323 64.1398 20.5755 63.7978 20.5755C63.4553 20.5755 63.1479 20.632 62.8754 20.7454C62.6027 20.8585 62.3706 21.0213 62.1783 21.2341C61.9862 21.4469 61.8383 21.7072 61.7354 22.0107C61.6321 22.3171 61.5801 22.6605 61.5801 23.0447C61.5801 23.4291 61.6318 23.7725 61.7354 24.0789C61.8383 24.3834 61.9862 24.6408 62.1783 24.8526C62.3706 25.0654 62.6027 25.2272 62.8754 25.3393C63.1479 25.4524 63.4556 25.51 63.7978 25.51C64.1398 25.51 64.4471 25.4524 64.7204 25.3393C64.9929 25.2272 65.2242 25.0651 65.4151 24.8526C65.6052 24.641 65.7522 24.3834 65.8555 24.0789C65.9589 23.7725 66.0101 23.4293 66.0101 23.0447Z" fill="#6D5ED4"/>
<path d="M37.1069 33.8275H233.914" stroke="#9FC1A0" stroke-width="0.2" stroke-miterlimit="10"/>
<path d="M206.233 27.041H199.001C198.791 27.041 198.621 26.8709 198.621 26.661V19.4287C198.621 19.2188 198.791 19.0487 199.001 19.0487H206.233C206.443 19.0487 206.613 19.2188 206.613 19.4287V26.661C206.613 26.8709 206.443 27.041 206.233 27.041Z" fill="#6D5ED4"/>
<path d="M217.35 27.041H210.19C209.96 27.041 209.774 26.8548 209.774 26.6252V19.4645C209.774 19.2349 209.96 19.0487 210.19 19.0487H217.35C217.58 19.0487 217.766 19.2349 217.766 19.4645V26.6252C217.766 26.8548 217.58 27.041 217.35 27.041Z" fill="#6D5ED4"/>
<path d="M228.525 27.041H221.321C221.103 27.041 220.927 26.8645 220.927 26.6466V19.4431C220.927 19.2254 221.103 19.0487 221.321 19.0487H228.525C228.742 19.0487 228.919 19.2252 228.919 19.4431V26.6466C228.919 26.8645 228.742 27.041 228.525 27.041Z" fill="#6D5ED4"/>
<path d="M186.944 19.5483H80.9124V26.5415H186.944V19.5483Z" fill="#9181FF"/>
<path d="M187.043 19.5483H180.05V26.5415H187.043V19.5483Z" fill="#6D5ED4"/>
<path d="M65.7264 4.22778H39.8889V8.85903H65.7264V4.22778Z" fill="white" fill-opacity="0.58"/>
<path d="M165.542 4.1748H103.873V8.80605H165.542V4.1748Z" fill="white" fill-opacity="0.58"/>
<path d="M229.526 4.22778H203.689V8.85903H229.526V4.22778Z" fill="white" fill-opacity="0.58"/>
<path d="M9.45801 24.7266V22.2633H14.0603V36.1844H11.3103V24.7266H9.45801Z" fill="white"/>
<path d="M18.0796 22.9794C18.9132 22.2857 20.0113 21.9386 21.3736 21.9386C22.3028 21.9386 23.0986 22.1009 23.7607 22.4256C24.4224 22.7503 24.9221 23.1893 25.2597 23.7431C25.5968 24.2969 25.7657 24.924 25.7657 25.6241C25.7657 26.4263 25.5586 27.1041 25.1452 27.6579C24.7313 28.2117 24.2382 28.584 23.6651 28.7751V28.8513C24.4034 29.0805 24.9796 29.488 25.3933 30.0735C25.8067 30.6592 26.0139 31.4102 26.0139 32.327C26.0139 33.0909 25.8389 33.7719 25.4888 34.3703C25.1386 34.969 24.623 35.4367 23.942 35.7738C23.261 36.1114 22.4429 36.2799 21.4882 36.2799C20.0493 36.2799 18.8781 35.9172 17.9745 35.1915C17.0704 34.4659 16.5929 33.3966 16.5422 31.9833H19.1394C19.1647 32.6073 19.378 33.107 19.7792 33.4824C20.1802 33.858 20.7306 34.0457 21.4309 34.0457C22.0802 34.0457 22.5797 33.8643 22.9299 33.5014C23.28 33.1387 23.4552 32.6707 23.4552 32.0979C23.4552 31.3339 23.2132 30.7867 22.7296 30.4555C22.2455 30.1247 21.4945 29.9589 20.4761 29.9589H19.9223V27.7628H20.4761C22.2838 27.7628 23.1878 27.1583 23.1878 25.9488C23.1878 25.4016 23.0255 24.9747 22.7008 24.6693C22.3762 24.3639 21.9084 24.2111 21.2973 24.2111C20.6987 24.2111 20.2375 24.3734 19.9128 24.6981C19.5881 25.0228 19.4002 25.4332 19.3495 25.9298H16.7333C16.797 24.6569 17.2457 23.6736 18.0796 22.9794Z" fill="white"/>
</g>
<defs>
<clipPath id="clip0_952_3052">
<rect width="234" height="50.2125" fill="white" transform="translate(0 0.762329)"/>
</clipPath>
</defs>
</svg>
