<svg width="234" height="51" viewBox="0 0 234 51" fill="none" xmlns="http://www.w3.org/2000/svg">
<g clip-path="url(#clip0_952_2653)">
<path d="M233.756 0.288605H-0.0144043V50.2396H233.756V0.288605Z" fill="white"/>
<path d="M233.756 0.125275H-0.0144043V11.1145H233.756V0.125275Z" fill="#9181FF"/>
<path d="M36.9685 0.288605H-0.0761719V50.2396H36.9685V0.288605Z" fill="#6D5ED4"/>
<path d="M10.8135 9.98328V14.7047H9.86658V12.6957H7.84419V14.7047H6.89722V9.98328H7.84419V11.9245H9.86658V9.98328H10.8135V9.98328Z" fill="white"/>
<path d="M15.2035 13.115H12.464C12.4865 13.3855 12.5813 13.5976 12.7482 13.7507C12.915 13.904 13.1202 13.9808 13.3637 13.9808C13.7154 13.9808 13.9658 13.8297 14.1145 13.5276H15.1358C15.0276 13.8884 14.8201 14.185 14.5135 14.4171C14.2068 14.6494 13.8303 14.7654 13.3839 14.7654C13.0232 14.7654 12.6995 14.6852 12.4133 14.5253C12.1269 14.3652 11.9037 14.1387 11.7435 13.8455C11.5834 13.5525 11.5034 13.2142 11.5034 12.8308C11.5034 12.443 11.5821 12.1027 11.7401 11.8095C11.8978 11.5165 12.1189 11.291 12.4029 11.133C12.6871 10.9753 13.0139 10.8964 13.3837 10.8964C13.7398 10.8964 14.0591 10.9731 14.3409 11.1262C14.6227 11.2795 14.8416 11.4972 14.9971 11.779C15.1526 12.0608 15.2306 12.3842 15.2306 12.7496C15.2306 12.8851 15.2216 13.0068 15.2035 13.115ZM14.25 12.4793C14.2454 12.2358 14.1576 12.0408 13.986 11.8943C13.8144 11.7478 13.605 11.6744 13.3569 11.6744C13.1224 11.6744 12.925 11.7453 12.7651 11.8875C12.6049 12.0296 12.5067 12.2267 12.4709 12.4793H14.25Z" fill="white"/>
<path d="M15.9034 11.8095C16.0546 11.5165 16.2596 11.291 16.5189 11.133C16.7783 10.9753 17.0678 10.8964 17.3881 10.8964C17.6677 10.8964 17.9124 10.9527 18.1221 11.0655C18.3317 11.1784 18.4996 11.3202 18.6259 11.4916V10.9573H19.5797V14.7047H18.6259V14.1568C18.504 14.3327 18.3361 14.478 18.1221 14.5931C17.9078 14.7081 17.6609 14.7657 17.3813 14.7657C17.0656 14.7657 16.778 14.6845 16.5187 14.5219C16.2593 14.3593 16.0541 14.1309 15.9032 13.8355C15.7521 13.5403 15.6768 13.2008 15.6768 12.8174C15.677 12.4386 15.7526 12.1027 15.9034 11.8095ZM18.4909 12.2389C18.4007 12.0744 18.2788 11.9481 18.1255 11.8602C17.9722 11.7722 17.8076 11.728 17.6316 11.728C17.4559 11.728 17.2936 11.7709 17.1446 11.8565C16.9959 11.9423 16.8753 12.0673 16.7829 12.2319C16.6905 12.3966 16.6442 12.5916 16.6442 12.8169C16.6442 13.0426 16.6903 13.2398 16.7829 13.4087C16.8753 13.5779 16.9969 13.7075 17.1483 13.7977C17.2994 13.8881 17.4605 13.933 17.6319 13.933C17.8079 13.933 17.9724 13.8891 18.1257 13.8011C18.279 13.7131 18.4007 13.5871 18.4911 13.4223C18.5813 13.2578 18.6264 13.0604 18.6264 12.8305C18.6264 12.6007 18.581 12.4037 18.4909 12.2389Z" fill="white"/>
<path d="M20.4896 11.8095C20.6408 11.5165 20.847 11.291 21.1088 11.133C21.3703 10.9753 21.6611 10.8964 21.9814 10.8964C22.2249 10.8964 22.4572 10.9495 22.678 11.0553C22.8989 11.1613 23.0748 11.3022 23.2057 11.478V9.69907H24.1661V14.7047H23.2057V14.1502C23.0885 14.3352 22.924 14.4839 22.7119 14.5967C22.4998 14.7093 22.2541 14.7659 21.9746 14.7659C21.6589 14.7659 21.3703 14.6847 21.1088 14.5221C20.8472 14.3598 20.6408 14.1312 20.4896 13.8357C20.3385 13.5406 20.2632 13.201 20.2632 12.8176C20.2629 12.4386 20.3385 12.1027 20.4896 11.8095ZM23.0768 12.2389C22.9866 12.0744 22.8647 11.9481 22.7114 11.8602C22.5581 11.7722 22.3936 11.728 22.2176 11.728C22.0418 11.728 21.8795 11.7709 21.7306 11.8565C21.5819 11.9423 21.4612 12.0673 21.3688 12.2319C21.2765 12.3966 21.2301 12.5916 21.2301 12.8169C21.2301 13.0426 21.2762 13.2398 21.3688 13.4087C21.4612 13.5779 21.5828 13.7075 21.7342 13.7977C21.8853 13.8882 22.0465 13.933 22.2178 13.933C22.3938 13.933 22.5583 13.8891 22.7117 13.8011C22.865 13.7131 22.9866 13.5871 23.077 13.4223C23.1672 13.2578 23.2123 13.0604 23.2123 12.8305C23.2123 12.6007 23.1672 12.4037 23.0768 12.2389Z" fill="white"/>
<path d="M28.5492 13.115H25.8097C25.8322 13.3855 25.927 13.5976 26.094 13.7507C26.2607 13.904 26.4659 13.9808 26.7094 13.9808C27.0612 13.9808 27.3115 13.8297 27.4602 13.5276H28.4815C28.3733 13.8884 28.1658 14.185 27.8592 14.4171C27.5526 14.6494 27.176 14.7654 26.7297 14.7654C26.3689 14.7654 26.0452 14.6852 25.759 14.5253C25.4726 14.3652 25.2494 14.1387 25.0892 13.8455C24.9291 13.5525 24.8491 13.2142 24.8491 12.8308C24.8491 12.443 24.9279 12.1027 25.0858 11.8095C25.2435 11.5165 25.4646 11.291 25.7486 11.133C26.0328 10.9753 26.3596 10.8964 26.7294 10.8964C27.0855 10.8964 27.4048 10.9731 27.6866 11.1262C27.9684 11.2795 28.1873 11.4972 28.3428 11.779C28.4983 12.0608 28.5763 12.3842 28.5763 12.7496C28.5763 12.8851 28.567 13.0068 28.5492 13.115ZM27.5955 12.4793C27.5908 12.2358 27.5031 12.0408 27.3315 11.8943C27.1599 11.7478 26.9505 11.6744 26.7024 11.6744C26.4679 11.6744 26.2704 11.7453 26.1105 11.8875C25.9504 12.0296 25.8522 12.2267 25.8163 12.4793H27.5955Z" fill="white"/>
<path d="M30.6901 11.0721C30.8863 10.9595 31.1106 10.9032 31.3631 10.9032V11.8975H31.1128C30.8151 11.8975 30.5906 11.9674 30.4398 12.1071C30.2886 12.247 30.2131 12.4905 30.2131 12.8376V14.7045H29.2661V10.9573H30.2131V11.5391C30.335 11.3405 30.4939 11.185 30.6901 11.0721Z" fill="white"/>
<path d="M105.135 41.6193C105.135 42.8447 104.142 43.8379 102.916 43.8379H92.3688C91.1434 43.8379 90.1497 42.8449 90.1497 41.6193V41.0614C90.1497 39.8361 91.1432 38.8428 92.3688 38.8428H102.916C104.141 38.8428 105.135 39.8358 105.135 41.0614V41.6193Z" fill="#6D5ED4"/>
<path d="M86.8197 41.6193C86.8197 42.8447 85.8262 43.8379 84.6006 43.8379H74.0533C72.828 43.8379 71.8342 42.8449 71.8342 41.6193V41.0614C71.8342 39.8361 72.8278 38.8428 74.0533 38.8428H84.6006C85.826 38.8428 86.8197 39.8358 86.8197 41.0614V41.6193Z" fill="#6D5ED4"/>
<path d="M123.451 41.6193C123.451 42.8447 122.457 43.8379 121.231 43.8379H110.684C109.459 43.8379 108.465 42.8449 108.465 41.6193V41.0614C108.465 39.8361 109.459 38.8428 110.684 38.8428H121.231C122.457 38.8428 123.451 39.8358 123.451 41.0614V41.6193Z" fill="#6D5ED4"/>
<path d="M141.766 41.6193C141.766 42.8447 140.772 43.8379 139.546 43.8379H129C127.774 43.8379 126.78 42.8449 126.78 41.6193V41.0614C126.78 39.8361 127.774 38.8428 129 38.8428H139.546C140.772 38.8428 141.766 39.8358 141.766 41.0614V41.6193Z" fill="#6D5ED4"/>
<path d="M160.223 41.6193C160.223 42.8447 159.229 43.8379 158.003 43.8379H147.456C146.231 43.8379 145.237 42.8449 145.237 41.6193V41.0614C145.237 39.8361 146.231 38.8428 147.456 38.8428H158.003C159.229 38.8428 160.223 39.8358 160.223 41.0614V41.6193Z" fill="#6D5ED4"/>
<path d="M141.907 41.6193C141.907 42.8447 140.914 43.8379 139.688 43.8379H129.141C127.915 43.8379 126.922 42.8449 126.922 41.6193V41.0614C126.922 39.8361 127.915 38.8428 129.141 38.8428H139.688C140.913 38.8428 141.907 39.8358 141.907 41.0614V41.6193Z" fill="#6D5ED4"/>
<path d="M178.538 41.6193C178.538 42.8447 177.544 43.8379 176.319 43.8379H165.772C164.546 43.8379 163.552 42.8449 163.552 41.6193V41.0614C163.552 39.8361 164.546 38.8428 165.772 38.8428H176.319C177.544 38.8428 178.538 39.8358 178.538 41.0614V41.6193Z" fill="#6D5ED4"/>
<path d="M196.853 41.6193C196.853 42.8447 195.859 43.8379 194.634 43.8379H184.087C182.861 43.8379 181.868 42.8449 181.868 41.6193V41.0614C181.868 39.8361 182.861 38.8428 184.087 38.8428H194.634C195.859 38.8428 196.853 39.8358 196.853 41.0614V41.6193Z" fill="#6D5ED4"/>
<path d="M122.885 24.708V25.7829H118.784V18.7822H120.087V24.708H122.885V24.708Z" fill="#6D5ED4"/>
<path d="M130.244 22.2824C130.244 22.7967 130.159 23.2708 129.99 23.7088C129.82 24.1449 129.58 24.5235 129.271 24.8435C128.961 25.1635 128.588 25.4122 128.152 25.5918C127.716 25.7702 127.232 25.8602 126.7 25.8602C126.17 25.8602 125.688 25.7705 125.252 25.5918C124.816 25.4122 124.443 25.1635 124.131 24.8435C123.819 24.5235 123.579 24.1449 123.407 23.7088C123.236 23.2708 123.151 22.7967 123.151 22.2824C123.151 21.7683 123.236 21.2943 123.407 20.8562C123.578 20.4202 123.819 20.0416 124.131 19.7216C124.443 19.4015 124.816 19.1529 125.252 18.9733C125.688 18.7948 126.17 18.7051 126.7 18.7051C127.055 18.7051 127.389 18.7461 127.701 18.828C128.015 18.9099 128.302 19.0269 128.564 19.1763C128.825 19.3277 129.06 19.509 129.268 19.7247C129.476 19.9392 129.653 20.1784 129.798 20.4438C129.943 20.7083 130.054 20.9952 130.13 21.3052C130.206 21.6143 130.244 21.9412 130.244 22.2824ZM128.912 22.2824C128.912 21.898 128.861 21.5546 128.757 21.2484C128.654 20.945 128.507 20.6844 128.317 20.4718C128.126 20.259 127.895 20.0962 127.622 19.9831C127.349 19.87 127.042 19.8132 126.7 19.8132C126.357 19.8132 126.05 19.8698 125.777 19.9831C125.505 20.0962 125.272 20.259 125.08 20.4718C124.888 20.6846 124.741 20.945 124.637 21.2484C124.534 21.5548 124.482 21.8983 124.482 22.2824C124.482 22.6668 124.534 23.0103 124.637 23.3166C124.741 23.6211 124.888 23.8785 125.08 24.0903C125.272 24.3031 125.505 24.465 125.777 24.5771C126.05 24.6902 126.357 24.7477 126.7 24.7477C127.042 24.7477 127.349 24.6902 127.622 24.5771C127.895 24.465 128.126 24.3029 128.317 24.0903C128.507 23.8787 128.655 23.6211 128.757 23.3166C128.861 23.0103 128.912 22.6671 128.912 22.2824Z" fill="#6D5ED4"/>
<path d="M137.163 22.2729V25.105C136.808 25.3666 136.429 25.5577 136.027 25.6786C135.625 25.8005 135.195 25.8602 134.737 25.8602C134.166 25.8602 133.648 25.7724 133.185 25.5938C132.722 25.417 132.327 25.1704 131.999 24.8532C131.671 24.5381 131.419 24.1595 131.241 23.7196C131.064 23.2815 130.975 22.8026 130.975 22.2824C130.975 21.7557 131.061 21.2738 131.232 20.8355C131.403 20.3955 131.646 20.018 131.96 19.7028C132.275 19.3857 132.657 19.1397 133.105 18.9662C133.554 18.7917 134.058 18.7047 134.616 18.7047C134.9 18.7047 135.166 18.7271 135.413 18.7719C135.659 18.8178 135.889 18.8792 136.1 18.9582C136.312 19.0371 136.504 19.1327 136.678 19.2468C136.852 19.3599 137.013 19.4829 137.158 19.6185L136.785 20.2098C136.727 20.3044 136.651 20.3612 136.557 20.3817C136.464 20.4031 136.362 20.3797 136.253 20.3124C136.146 20.251 136.039 20.1896 135.933 20.1282C135.826 20.0667 135.708 20.0129 135.577 19.9692C135.447 19.9234 135.299 19.8854 135.136 19.8571C134.974 19.8288 134.785 19.8132 134.573 19.8132C134.227 19.8132 133.914 19.8708 133.636 19.9878C133.357 20.1048 133.119 20.2698 132.921 20.4852C132.725 20.7029 132.573 20.9613 132.466 21.2657C132.36 21.5682 132.307 21.9087 132.307 22.2824C132.307 22.6824 132.364 23.0405 132.479 23.3556C132.593 23.6698 132.754 23.9363 132.963 24.1537C133.171 24.3721 133.422 24.5381 133.716 24.6531C134.009 24.7682 134.337 24.8247 134.699 24.8247C134.957 24.8247 135.187 24.7965 135.391 24.7428C135.594 24.6873 135.793 24.6132 135.987 24.5183V23.2501H135.105C135.021 23.2501 134.956 23.2277 134.91 23.1809C134.863 23.1331 134.839 23.0766 134.839 23.0093V22.2727L137.163 22.2729Z" fill="#6D5ED4"/>
<path d="M145.098 22.2824C145.098 22.7967 145.013 23.2708 144.844 23.7088C144.674 24.1449 144.434 24.5235 144.124 24.8435C143.815 25.1635 143.442 25.4122 143.006 25.5918C142.57 25.7702 142.086 25.8602 141.554 25.8602C141.024 25.8602 140.542 25.7705 140.106 25.5918C139.67 25.4122 139.297 25.1635 138.985 24.8435C138.673 24.5235 138.432 24.1449 138.261 23.7088C138.09 23.2708 138.005 22.7967 138.005 22.2824C138.005 21.7683 138.09 21.2943 138.261 20.8562C138.432 20.4202 138.673 20.0416 138.985 19.7216C139.297 19.4015 139.67 19.1529 140.106 18.9733C140.542 18.7948 141.024 18.7051 141.554 18.7051C141.909 18.7051 142.243 18.7461 142.556 18.828C142.869 18.9099 143.156 19.0269 143.418 19.1763C143.679 19.3277 143.914 19.509 144.122 19.7247C144.33 19.9392 144.507 20.1784 144.652 20.4438C144.797 20.7083 144.908 20.9952 144.984 21.3052C145.06 21.6143 145.098 21.9412 145.098 22.2824ZM143.766 22.2824C143.766 21.898 143.715 21.5546 143.612 21.2484C143.508 20.945 143.361 20.6844 143.171 20.4718C142.981 20.259 142.749 20.0962 142.476 19.9831C142.203 19.87 141.896 19.8132 141.554 19.8132C141.211 19.8132 140.904 19.8698 140.632 19.9831C140.359 20.0962 140.127 20.259 139.934 20.4718C139.742 20.6846 139.594 20.945 139.492 21.2484C139.388 21.5548 139.336 21.8983 139.336 22.2824C139.336 22.6668 139.388 23.0103 139.492 23.3166C139.594 23.6211 139.742 23.8785 139.934 24.0903C140.127 24.3031 140.359 24.465 140.632 24.5771C140.904 24.6902 141.212 24.7477 141.554 24.7477C141.896 24.7477 142.203 24.6902 142.476 24.5771C142.749 24.465 142.98 24.3029 143.171 24.0903C143.361 23.8787 143.508 23.6211 143.612 23.3166C143.715 23.0103 143.766 22.6671 143.766 22.2824Z" fill="#6D5ED4"/>
<path d="M37.1069 33.0652H233.914" stroke="#9FC1A0" stroke-width="0.2" stroke-miterlimit="10"/>
<path d="M206.233 26.2787H199.001C198.791 26.2787 198.621 26.1086 198.621 25.8987V18.6664C198.621 18.4565 198.791 18.2864 199.001 18.2864H206.233C206.443 18.2864 206.613 18.4565 206.613 18.6664V25.8987C206.613 26.1086 206.443 26.2787 206.233 26.2787Z" fill="#6D5ED4"/>
<path d="M217.35 26.2787H210.19C209.96 26.2787 209.774 26.0925 209.774 25.8629V18.7022C209.774 18.4726 209.96 18.2864 210.19 18.2864H217.35C217.58 18.2864 217.766 18.4726 217.766 18.7022V25.8629C217.766 26.0925 217.58 26.2787 217.35 26.2787Z" fill="#6D5ED4"/>
<path d="M228.525 26.2787H221.321C221.103 26.2787 220.927 26.1022 220.927 25.8843V18.6808C220.927 18.4631 221.103 18.2864 221.321 18.2864H228.525C228.742 18.2864 228.919 18.4629 228.919 18.6808V25.8843C228.919 26.1022 228.742 26.2787 228.525 26.2787Z" fill="#6D5ED4"/>
<path d="M56.5501 20.2313H39.9751V24.8625H56.5501V20.2313Z" fill="white" fill-opacity="0.58"/>
<path d="M76.0501 20.2313H59.4751V24.8625H76.0501V20.2313Z" fill="white" fill-opacity="0.58"/>
<path d="M95.5501 20.2313H78.9751V24.8625H95.5501V20.2313Z" fill="white" fill-opacity="0.58"/>
<path d="M9.45801 24.208V21.7447H14.0603V35.6657H11.3103V24.208H9.45801Z" fill="white"/>
<path d="M16.5806 32.9543V30.8536L22.825 21.9165H25.9376V30.6243H27.6181V32.954H25.9376V35.6657H23.2642V32.954H16.5806V32.9543ZM23.436 24.7811L19.5214 30.6245H23.436V24.7811Z" fill="white"/>
</g>
<defs>
<clipPath id="clip0_952_2653">
<rect width="234" height="50.2125" fill="white"/>
</clipPath>
</defs>
</svg>
