<svg width="234" height="60" viewBox="0 0 234 60" fill="none" xmlns="http://www.w3.org/2000/svg">
<path d="M234 5H0V55H234V5Z" fill="black" fill-opacity="0.14"/>
<path d="M234 5H0V55H234V5Z" fill="#3A86FF"/>
<g opacity="0.804">
<path d="M42 16H21C20.4477 16 20 16.4477 20 17V19C20 19.5523 20.4477 20 21 20H42C42.5523 20 43 19.5523 43 19V17C43 16.4477 42.5523 16 42 16Z" fill="white"/>
<path d="M42 24H21C20.4477 24 20 24.4477 20 25V27C20 27.5523 20.4477 28 21 28H42C42.5523 28 43 27.5523 43 27V25C43 24.4477 42.5523 24 42 24Z" fill="white"/>
<path d="M42 32H21C20.4477 32 20 32.4477 20 33V35C20 35.5523 20.4477 36 21 36H42C42.5523 36 43 35.5523 43 35V33C43 32.4477 42.5523 32 42 32Z" fill="white"/>
<path d="M42 40H21C20.4477 40 20 40.4477 20 41V43C20 43.5523 20.4477 44 21 44H42C42.5523 44 43 43.5523 43 43V41C43 40.4477 42.5523 40 42 40Z" fill="white"/>
<path d="M78 16H57C56.4477 16 56 16.4477 56 17V19C56 19.5523 56.4477 20 57 20H78C78.5523 20 79 19.5523 79 19V17C79 16.4477 78.5523 16 78 16Z" fill="white"/>
<path d="M78 24H57C56.4477 24 56 24.4477 56 25V27C56 27.5523 56.4477 28 57 28H78C78.5523 28 79 27.5523 79 27V25C79 24.4477 78.5523 24 78 24Z" fill="white"/>
<path d="M78 32H57C56.4477 32 56 32.4477 56 33V35C56 35.5523 56.4477 36 57 36H78C78.5523 36 79 35.5523 79 35V33C79 32.4477 78.5523 32 78 32Z" fill="white"/>
<path d="M78 40H57C56.4477 40 56 40.4477 56 41V43C56 43.5523 56.4477 44 57 44H78C78.5523 44 79 43.5523 79 43V41C79 40.4477 78.5523 40 78 40Z" fill="white"/>
<path d="M114 16H93C92.4477 16 92 16.4477 92 17V19C92 19.5523 92.4477 20 93 20H114C114.552 20 115 19.5523 115 19V17C115 16.4477 114.552 16 114 16Z" fill="white"/>
<path d="M114 24H93C92.4477 24 92 24.4477 92 25V27C92 27.5523 92.4477 28 93 28H114C114.552 28 115 27.5523 115 27V25C115 24.4477 114.552 24 114 24Z" fill="white"/>
<path d="M114 32H93C92.4477 32 92 32.4477 92 33V35C92 35.5523 92.4477 36 93 36H114C114.552 36 115 35.5523 115 35V33C115 32.4477 114.552 32 114 32Z" fill="white"/>
<path d="M114 40H93C92.4477 40 92 40.4477 92 41V43C92 43.5523 92.4477 44 93 44H114C114.552 44 115 43.5523 115 43V41C115 40.4477 114.552 40 114 40Z" fill="white"/>
<path d="M150 16H129C128.448 16 128 16.4477 128 17V19C128 19.5523 128.448 20 129 20H150C150.552 20 151 19.5523 151 19V17C151 16.4477 150.552 16 150 16Z" fill="white"/>
<path d="M150 24H129C128.448 24 128 24.4477 128 25V27C128 27.5523 128.448 28 129 28H150C150.552 28 151 27.5523 151 27V25C151 24.4477 150.552 24 150 24Z" fill="white"/>
<path d="M150 32H129C128.448 32 128 32.4477 128 33V35C128 35.5523 128.448 36 129 36H150C150.552 36 151 35.5523 151 35V33C151 32.4477 150.552 32 150 32Z" fill="white"/>
<path d="M150 40H129C128.448 40 128 40.4477 128 41V43C128 43.5523 128.448 44 129 44H150C150.552 44 151 43.5523 151 43V41C151 40.4477 150.552 40 150 40Z" fill="white"/>
</g>
<path d="M190.826 29H166.174C165.526 29 165 29.4477 165 30V32C165 32.5523 165.526 33 166.174 33H190.826C191.474 33 192 32.5523 192 32V30C192 29.4477 191.474 29 190.826 29Z" fill="white"/>
<path d="M183.174 40H165.826C165.37 40 165 40.4477 165 41V43C165 43.5523 165.37 44 165.826 44H183.174C183.63 44 184 43.5523 184 43V41C184 40.4477 183.63 40 183.174 40Z" fill="white"/>
<path d="M204.174 40H186.826C186.37 40 186 40.4477 186 41V43C186 43.5523 186.37 44 186.826 44H204.174C204.63 44 205 43.5523 205 43V41C205 40.4477 204.63 40 204.174 40Z" fill="white"/>
<path d="M171.082 23.708V21.843H167.374V16.129H165V23.709L171.082 23.708ZM175.027 23.838C175.879 23.838 176.592 23.68 177.163 23.365C177.721 23.0628 178.177 22.6021 178.473 22.041C178.776 21.474 178.927 20.748 178.927 19.862C178.927 18.642 178.581 17.693 177.889 17.016C177.197 16.339 176.212 16 174.932 16C173.685 16 172.712 16.345 172.012 17.034C171.313 17.724 170.964 18.687 170.964 19.924C170.964 20.81 171.14 21.548 171.494 22.137C171.846 22.727 172.307 23.157 172.874 23.429C173.443 23.702 174.16 23.838 175.027 23.838ZM174.948 22.085C174.452 22.085 174.059 21.918 173.771 21.584C173.483 21.249 173.339 20.7 173.339 19.934C173.339 19.162 173.484 18.609 173.774 18.274C174.064 17.941 174.448 17.774 174.927 17.774C175.427 17.774 175.823 17.938 176.115 18.267C176.406 18.597 176.552 19.117 176.552 19.831C176.552 20.679 176.412 21.267 176.132 21.594C175.853 21.921 175.458 22.085 174.948 22.085ZM183.239 23.838C183.98 23.838 184.62 23.753 185.16 23.582C185.7 23.412 186.322 23.09 187.024 22.618V19.386H183.354V20.963H184.943V21.677C184.682 21.8366 184.405 21.9667 184.115 22.065C183.869 22.1413 183.613 22.1794 183.355 22.178C182.795 22.178 182.359 22.002 182.046 21.651C181.734 21.299 181.577 20.713 181.577 19.893C181.577 19.121 181.732 18.557 182.041 18.2C182.351 17.843 182.765 17.665 183.286 17.665C183.636 17.665 183.923 17.741 184.149 17.892C184.374 18.044 184.534 18.262 184.629 18.549L186.919 18.146C186.779 17.656 186.571 17.252 186.293 16.933C186.01 16.6112 185.649 16.3683 185.244 16.228C184.824 16.076 184.188 16 183.339 16C182.458 16 181.757 16.122 181.236 16.367C180.595 16.6596 180.063 17.1471 179.716 17.76C179.37 18.372 179.197 19.092 179.197 19.919C179.197 20.705 179.355 21.401 179.671 22.008C179.965 22.5915 180.432 23.07 181.008 23.378C181.583 23.684 182.327 23.838 183.239 23.838ZM191.483 23.838C192.336 23.838 193.048 23.68 193.619 23.365C194.177 23.0628 194.633 22.6021 194.929 22.041C195.232 21.474 195.383 20.748 195.383 19.862C195.383 18.642 195.037 17.693 194.345 17.016C193.653 16.339 192.668 16 191.388 16C190.141 16 189.168 16.345 188.468 17.034C187.769 17.724 187.42 18.687 187.42 19.924C187.42 20.81 187.596 21.548 187.95 22.137C188.302 22.727 188.763 23.157 189.33 23.429C189.899 23.702 190.616 23.838 191.483 23.838ZM191.404 22.085C190.908 22.085 190.516 21.918 190.227 21.584C189.939 21.249 189.795 20.7 189.795 19.934C189.795 19.162 189.94 18.609 190.23 18.274C190.52 17.941 190.904 17.774 191.383 17.774C191.883 17.774 192.279 17.938 192.571 18.267C192.863 18.597 193.008 19.117 193.008 19.831C193.008 20.679 192.868 21.267 192.589 21.594C192.309 21.921 191.914 22.085 191.404 22.085Z" fill="white"/>
</svg>
