<svg width="234" height="60" viewBox="0 0 234 60" fill="none" xmlns="http://www.w3.org/2000/svg">
<path d="M234 5H0V55H234V5Z" fill="black" fill-opacity="0.14"/>
<path d="M234 5H0V55H234V5Z" fill="#3A86FF"/>
<path d="M42 35H21C20.4477 35 20 35.4477 20 36V38C20 38.5523 20.4477 39 21 39H42C42.5523 39 43 38.5523 43 38V36C43 35.4477 42.5523 35 42 35Z" fill="white"/>
<path d="M42 43H21C20.4477 43 20 43.4477 20 44V46C20 46.5523 20.4477 47 21 47H42C42.5523 47 43 46.5523 43 46V44C43 43.4477 42.5523 43 42 43Z" fill="white"/>
<path d="M96 35H75C74.4477 35 74 35.4477 74 36V38C74 38.5523 74.4477 39 75 39H96C96.5523 39 97 38.5523 97 38V36C97 35.4477 96.5523 35 96 35Z" fill="white"/>
<path d="M96 43H75C74.4477 43 74 43.4477 74 44V46C74 46.5523 74.4477 47 75 47H96C96.5523 47 97 46.5523 97 46V44C97 43.4477 96.5523 43 96 43Z" fill="white"/>
<path d="M150 35H129C128.448 35 128 35.4477 128 36V38C128 38.5523 128.448 39 129 39H150C150.552 39 151 38.5523 151 38V36C151 35.4477 150.552 35 150 35Z" fill="white"/>
<path d="M150 43H129C128.448 43 128 43.4477 128 44V46C128 46.5523 128.448 47 129 47H150C150.552 47 151 46.5523 151 46V44C151 43.4477 150.552 43 150 43Z" fill="white"/>
<path d="M213.739 35H187.261C186.565 35 186 35.4477 186 36V38C186 38.5523 186.565 39 187.261 39H213.739C214.435 39 215 38.5523 215 38V36C215 35.4477 214.435 35 213.739 35Z" fill="white"/>
<path d="M213.739 43H187.261C186.565 43 186 43.4477 186 44V46C186 46.5523 186.565 47 187.261 47H213.739C214.435 47 215 46.5523 215 46V44C215 43.4477 214.435 43 213.739 43Z" fill="white"/>
<path opacity="0.324" d="M214 29H20V30H214V29Z" fill="white"/>
<g opacity="0.804">
<path d="M55 12H34C33.4477 12 33 12.4477 33 13V15C33 15.5523 33.4477 16 34 16H55C55.5523 16 56 15.5523 56 15V13C56 12.4477 55.5523 12 55 12Z" fill="white"/>
</g>
<g opacity="0.804">
<path d="M47 19H34C33.4477 19 33 19.4477 33 20V22C33 22.5523 33.4477 23 34 23H47C47.5523 23 48 22.5523 48 22V20C48 19.4477 47.5523 19 47 19Z" fill="white"/>
</g>
<path d="M29 16.5C29 14.0147 26.9853 12 24.5 12C22.0147 12 20 14.0147 20 16.5C20 18.9853 22.0147 21 24.5 21C26.9853 21 29 18.9853 29 16.5Z" fill="white"/>
<g opacity="0.804">
<path d="M108 12H87C86.4477 12 86 12.4477 86 13V15C86 15.5523 86.4477 16 87 16H108C108.552 16 109 15.5523 109 15V13C109 12.4477 108.552 12 108 12Z" fill="white"/>
</g>
<g opacity="0.804">
<path d="M100 19H87C86.4477 19 86 19.4477 86 20V22C86 22.5523 86.4477 23 87 23H100C100.552 23 101 22.5523 101 22V20C101 19.4477 100.552 19 100 19Z" fill="white"/>
</g>
<path d="M82 16.5C82 14.0147 79.9853 12 77.5 12C75.0147 12 73 14.0147 73 16.5C73 18.9853 75.0147 21 77.5 21C79.9853 21 82 18.9853 82 16.5Z" fill="white"/>
<g opacity="0.804">
<path d="M161 12H140C139.448 12 139 12.4477 139 13V15C139 15.5523 139.448 16 140 16H161C161.552 16 162 15.5523 162 15V13C162 12.4477 161.552 12 161 12Z" fill="white"/>
</g>
<g opacity="0.804">
<path d="M153 19H140C139.448 19 139 19.4477 139 20V22C139 22.5523 139.448 23 140 23H153C153.552 23 154 22.5523 154 22V20C154 19.4477 153.552 19 153 19Z" fill="white"/>
</g>
<path d="M135 16.5C135 14.0147 132.985 12 130.5 12C128.015 12 126 14.0147 126 16.5C126 18.9853 128.015 21 130.5 21C132.985 21 135 18.9853 135 16.5Z" fill="white"/>
<g opacity="0.804">
<path d="M214 12H193C192.448 12 192 12.4477 192 13V15C192 15.5523 192.448 16 193 16H214C214.552 16 215 15.5523 215 15V13C215 12.4477 214.552 12 214 12Z" fill="white"/>
</g>
<g opacity="0.804">
<path d="M206 19H193C192.448 19 192 19.4477 192 20V22C192 22.5523 192.448 23 193 23H206C206.552 23 207 22.5523 207 22V20C207 19.4477 206.552 19 206 19Z" fill="white"/>
</g>
<path d="M188 16.5C188 14.0147 185.985 12 183.5 12C181.015 12 179 14.0147 179 16.5C179 18.9853 181.015 21 183.5 21C185.985 21 188 18.9853 188 16.5Z" fill="white"/>
<rect x="18" y="8" width="40" height="18" rx="2" fill="white" fill-opacity="0.1"/>
<rect x="71" y="8" width="40" height="18" rx="2" fill="white" fill-opacity="0.1"/>
<rect x="124" y="8" width="40" height="18" rx="2" fill="white" fill-opacity="0.1"/>
<rect x="177" y="8" width="40" height="18" rx="2" fill="white" fill-opacity="0.1"/>
<rect x="177" y="32" width="40" height="18" rx="2" fill="white" fill-opacity="0.1"/>
<rect x="179" y="35" width="4" height="4" rx="2" fill="white"/>
<rect x="179" y="43" width="4" height="4" rx="2" fill="white"/>
</svg>
