<svg width="234" height="60" viewBox="0 0 234 60" fill="none" xmlns="http://www.w3.org/2000/svg">
<path d="M234 5H0V55H234V5Z" fill="black" fill-opacity="0.14"/>
<path d="M234 5H0V55H234V5Z" fill="#3A86FF"/>
<path d="M26 39C26 37.3431 24.6569 36 23 36C21.3431 36 20 37.3431 20 39C20 40.6569 21.3431 42 23 42C24.6569 42 26 40.6569 26 39Z" fill="white"/>
<path d="M36 39C36 37.3431 34.6569 36 33 36C31.3431 36 30 37.3431 30 39C30 40.6569 31.3431 42 33 42C34.6569 42 36 40.6569 36 39Z" fill="white"/>
<path d="M46 39C46 37.3431 44.6569 36 43 36C41.3431 36 40 37.3431 40 39C40 40.6569 41.3431 42 43 42C44.6569 42 46 40.6569 46 39Z" fill="white"/>
<path d="M56 39C56 37.3431 54.6569 36 53 36C51.3431 36 50 37.3431 50 39C50 40.6569 51.3431 42 53 42C54.6569 42 56 40.6569 56 39Z" fill="white"/>
<g opacity="0.804">
<path d="M105 16H84C83.4477 16 83 16.4477 83 17V19C83 19.5523 83.4477 20 84 20H105C105.552 20 106 19.5523 106 19V17C106 16.4477 105.552 16 105 16Z" fill="white"/>
<path d="M105 24H84C83.4477 24 83 24.4477 83 25V27C83 27.5523 83.4477 28 84 28H105C105.552 28 106 27.5523 106 27V25C106 24.4477 105.552 24 105 24Z" fill="white"/>
<path d="M105 32H84C83.4477 32 83 32.4477 83 33V35C83 35.5523 83.4477 36 84 36H105C105.552 36 106 35.5523 106 35V33C106 32.4477 105.552 32 105 32Z" fill="white"/>
<path d="M105 40H84C83.4477 40 83 40.4477 83 41V43C83 43.5523 83.4477 44 84 44H105C105.552 44 106 43.5523 106 43V41C106 40.4477 105.552 40 105 40Z" fill="white"/>
<path d="M141 16H120C119.448 16 119 16.4477 119 17V19C119 19.5523 119.448 20 120 20H141C141.552 20 142 19.5523 142 19V17C142 16.4477 141.552 16 141 16Z" fill="white"/>
<path d="M141 24H120C119.448 24 119 24.4477 119 25V27C119 27.5523 119.448 28 120 28H141C141.552 28 142 27.5523 142 27V25C142 24.4477 141.552 24 141 24Z" fill="white"/>
<path d="M141 32H120C119.448 32 119 32.4477 119 33V35C119 35.5523 119.448 36 120 36H141C141.552 36 142 35.5523 142 35V33C142 32.4477 141.552 32 141 32Z" fill="white"/>
<path d="M141 40H120C119.448 40 119 40.4477 119 41V43C119 43.5523 119.448 44 120 44H141C141.552 44 142 43.5523 142 43V41C142 40.4477 141.552 40 141 40Z" fill="white"/>
<path d="M177 16H156C155.448 16 155 16.4477 155 17V19C155 19.5523 155.448 20 156 20H177C177.552 20 178 19.5523 178 19V17C178 16.4477 177.552 16 177 16Z" fill="white"/>
<path d="M177 24H156C155.448 24 155 24.4477 155 25V27C155 27.5523 155.448 28 156 28H177C177.552 28 178 27.5523 178 27V25C178 24.4477 177.552 24 177 24Z" fill="white"/>
<path d="M177 32H156C155.448 32 155 32.4477 155 33V35C155 35.5523 155.448 36 156 36H177C177.552 36 178 35.5523 178 35V33C178 32.4477 177.552 32 177 32Z" fill="white"/>
<path d="M177 40H156C155.448 40 155 40.4477 155 41V43C155 43.5523 155.448 44 156 44H177C177.552 44 178 43.5523 178 43V41C178 40.4477 177.552 40 177 40Z" fill="white"/>
<path d="M213 16H192C191.448 16 191 16.4477 191 17V19C191 19.5523 191.448 20 192 20H213C213.552 20 214 19.5523 214 19V17C214 16.4477 213.552 16 213 16Z" fill="white"/>
<path d="M213 24H192C191.448 24 191 24.4477 191 25V27C191 27.5523 191.448 28 192 28H213C213.552 28 214 27.5523 214 27V25C214 24.4477 213.552 24 213 24Z" fill="white"/>
<path d="M213 32H192C191.448 32 191 32.4477 191 33V35C191 35.5523 191.448 36 192 36H213C213.552 36 214 35.5523 214 35V33C214 32.4477 213.552 32 213 32Z" fill="white"/>
<path d="M213 40H192C191.448 40 191 40.4477 191 41V43C191 43.5523 191.448 44 192 44H213C213.552 44 214 43.5523 214 43V41C214 40.4477 213.552 40 213 40Z" fill="white"/>
</g>
<path d="M24.3272 22.615V21.2881H21.6891V17.2227H20V22.6157L24.3272 22.615ZM27.134 22.7075C27.7402 22.7075 28.2475 22.5951 28.6538 22.371C29.0507 22.156 29.3751 21.8282 29.5858 21.429C29.8014 21.0256 29.9088 20.509 29.9088 19.8787C29.9088 19.0106 29.6627 18.3354 29.1703 17.8538C28.678 17.3721 27.9772 17.1309 27.0665 17.1309C26.1792 17.1309 25.487 17.3764 24.9889 17.8666C24.4916 18.3575 24.2433 19.0427 24.2433 19.9228C24.2433 20.5531 24.3685 21.0782 24.6204 21.4973C24.8708 21.9171 25.1988 22.223 25.6022 22.4165C26.0071 22.6108 26.5172 22.7075 27.134 22.7075ZM27.0778 21.4603C26.7249 21.4603 26.4453 21.3415 26.2404 21.1038C26.0355 20.8655 25.9331 20.4749 25.9331 19.9299C25.9331 19.3806 26.0362 18.9872 26.2426 18.7488C26.4489 18.5119 26.7221 18.3931 27.0629 18.3931C27.4186 18.3931 27.7004 18.5098 27.9081 18.7438C28.1152 18.9786 28.2191 19.3486 28.2191 19.8566C28.2191 20.4599 28.1194 20.8783 27.9202 21.1109C27.7217 21.3436 27.4407 21.4603 27.0778 21.4603ZM32.9767 22.7075C33.504 22.7075 33.9593 22.647 34.3435 22.5254C34.7277 22.4044 35.1702 22.1753 35.6697 21.8395V19.54H33.0586V20.662H34.1891V21.17C34.0036 21.2835 33.806 21.3761 33.6 21.4461C33.4249 21.5003 33.2426 21.5274 33.0593 21.5265C32.6608 21.5265 32.3506 21.4012 32.1279 21.1515C31.906 20.9011 31.7943 20.4841 31.7943 19.9007C31.7943 19.3514 31.9045 18.9502 32.1244 18.6962C32.3449 18.4422 32.6395 18.3155 33.0102 18.3155C33.2592 18.3155 33.4634 18.3696 33.6242 18.477C33.7843 18.5852 33.8981 18.7403 33.9657 18.9445L35.595 18.6577C35.4954 18.3091 35.3474 18.0217 35.1496 17.7947C34.9484 17.5657 34.6913 17.3929 34.4033 17.2931C34.1044 17.185 33.6519 17.1309 33.0479 17.1309C32.4211 17.1309 31.9223 17.2177 31.5516 17.392C31.0957 17.6002 30.7173 17.9471 30.4702 18.3831C30.224 18.8185 30.1009 19.3308 30.1009 19.9192C30.1009 20.4784 30.2133 20.9736 30.4382 21.4055C30.6472 21.8207 30.9795 22.1611 31.3894 22.3802C31.7985 22.5979 32.3279 22.7075 32.9767 22.7075ZM38.8422 22.7075C39.4491 22.7075 39.9557 22.5951 40.3619 22.371C40.7589 22.156 41.0832 21.8282 41.294 21.429C41.5096 21.0256 41.617 20.509 41.617 19.8787C41.617 19.0106 41.3708 18.3354 40.8785 17.8538C40.3861 17.3721 39.6853 17.1309 38.7746 17.1309C37.8874 17.1309 37.1951 17.3764 36.6971 17.8666C36.1998 18.3575 35.9515 19.0427 35.9515 19.9228C35.9515 20.5531 36.0767 21.0782 36.3285 21.4973C36.579 21.9171 36.907 22.223 37.3104 22.4165C37.7152 22.6108 38.2254 22.7075 38.8422 22.7075ZM38.786 21.4603C38.4331 21.4603 38.1542 21.3415 37.9486 21.1038C37.7437 20.8655 37.6412 20.4749 37.6412 19.9299C37.6412 19.3806 37.7444 18.9872 37.9507 18.7488C38.1571 18.5119 38.4303 18.3931 38.7711 18.3931C39.1268 18.3931 39.4086 18.5098 39.6163 18.7438C39.8241 18.9786 39.9272 19.3486 39.9272 19.8566C39.9272 20.4599 39.8276 20.8783 39.6291 21.1109C39.4299 21.3436 39.1489 21.4603 38.786 21.4603Z" fill="white"/>
<path d="M42 28H21C20.4477 28 20 28.4477 20 29V31C20 31.5523 20.4477 32 21 32H42C42.5523 32 43 31.5523 43 31V29C43 28.4477 42.5523 28 42 28Z" fill="white"/>
</svg>
