<svg width="234" height="51" viewBox="0 0 234 51" fill="none" xmlns="http://www.w3.org/2000/svg">
<g clip-path="url(#clip0_2097_1685)">
<rect width="234" height="51" fill="white"/>
<rect width="37" height="51" fill="#3A86FF"/>
<path d="M9.91628 12.2461V16.9675H8.96936V14.9585H6.94697V16.9675H6V12.2461H6.94697V14.1873H8.96936V12.2461H9.91628Z" fill="white"/>
<path d="M14.3075 15.3779H11.568C11.5905 15.6484 11.6853 15.8605 11.8522 16.0136C12.019 16.1669 12.2242 16.2437 12.4677 16.2437C12.8194 16.2437 13.0698 16.0925 13.2185 15.7905H14.2398C14.1316 16.1513 13.9241 16.4479 13.6175 16.68C13.3108 16.9123 12.9343 17.0283 12.4879 17.0283C12.1272 17.0283 11.8035 16.9481 11.5173 16.7882C11.2309 16.628 11.0077 16.4016 10.8475 16.1084C10.6874 15.8154 10.6074 15.4771 10.6074 15.0936C10.6074 14.7058 10.6861 14.3656 10.8441 14.0723C11.0018 13.7793 11.2229 13.5539 11.5069 13.3959C11.7911 13.2382 12.1179 13.1592 12.4877 13.1592C12.8438 13.1592 13.1631 13.236 13.4449 13.3891C13.7267 13.5424 13.9456 13.7601 14.1011 14.0419C14.2566 14.3236 14.3346 14.6471 14.3346 15.0125C14.3346 15.148 14.3256 15.2696 14.3075 15.3779ZM13.354 14.7422C13.3494 14.4986 13.2616 14.3036 13.09 14.1572C12.9184 14.0107 12.709 13.9373 12.4609 13.9373C12.2264 13.9373 12.029 14.0082 11.8691 14.1503C11.7089 14.2924 11.6107 14.4896 11.5749 14.7422H13.354Z" fill="white"/>
<path d="M15.0079 14.0723C15.1591 13.7793 15.3641 13.5539 15.6234 13.3959C15.8828 13.2382 16.1722 13.1592 16.4925 13.1592C16.7721 13.1592 17.0169 13.2155 17.2266 13.3284C17.4362 13.4413 17.6041 13.5831 17.7304 13.7545V13.2202H18.6842V16.9676H17.7304V16.4196C17.6085 16.5956 17.4406 16.7409 17.2266 16.856C17.0123 16.971 16.7654 17.0285 16.4858 17.0285C16.1701 17.0285 15.8824 16.9474 15.6231 16.7848C15.3637 16.6222 15.1586 16.3938 15.0077 16.0984C14.8566 15.8032 14.7812 15.4637 14.7812 15.0802C14.7814 14.7014 14.8571 14.3656 15.0079 14.0723ZM17.5954 14.5018C17.5052 14.3373 17.3832 14.211 17.2299 14.123C17.0766 14.035 16.912 13.9909 16.736 13.9909C16.5603 13.9909 16.3981 14.0338 16.2491 14.1194C16.1004 14.2052 15.9798 14.3302 15.8874 14.4947C15.795 14.6595 15.7486 14.8545 15.7486 15.0797C15.7486 15.3055 15.7948 15.5027 15.8874 15.6716C15.9798 15.8407 16.1014 15.9704 16.2528 16.0606C16.4039 16.151 16.565 16.1959 16.7364 16.1959C16.9124 16.1959 17.0769 16.152 17.2302 16.064C17.3835 15.976 17.5052 15.85 17.5956 15.6852C17.6858 15.5207 17.7309 15.3233 17.7309 15.0934C17.7309 14.8635 17.6855 14.6666 17.5954 14.5018Z" fill="white"/>
<path d="M19.5936 14.0723C19.7448 13.7793 19.951 13.5539 20.2128 13.3959C20.4743 13.2382 20.7651 13.1592 21.0854 13.1592C21.3289 13.1592 21.5612 13.2124 21.782 13.3182C22.0029 13.4242 22.1788 13.5651 22.3097 13.7408V11.9619H23.2701V16.9676H22.3097V16.4131C22.1925 16.5981 22.028 16.7468 21.8159 16.8596C21.6038 16.9722 21.3581 17.0288 21.0786 17.0288C20.7629 17.0288 20.4743 16.9476 20.2128 16.785C19.9512 16.6227 19.7448 16.3941 19.5936 16.0986C19.4425 15.8034 19.3672 15.4639 19.3672 15.0805C19.3669 14.7015 19.4425 14.3656 19.5936 14.0723ZM22.1808 14.5018C22.0906 14.3373 21.9687 14.211 21.8154 14.123C21.6621 14.035 21.4976 13.9909 21.3216 13.9909C21.1458 13.9909 20.9835 14.0338 20.8346 14.1194C20.6859 14.2052 20.5652 14.3302 20.4728 14.4948C20.3805 14.6595 20.3341 14.8545 20.3341 15.0798C20.3341 15.3055 20.3802 15.5027 20.4728 15.6716C20.5652 15.8407 20.6868 15.9704 20.8382 16.0606C20.9893 16.151 21.1505 16.1959 21.3218 16.1959C21.4978 16.1959 21.6623 16.152 21.8157 16.064C21.969 15.976 22.0906 15.85 22.181 15.6852C22.2712 15.5207 22.3163 15.3233 22.3163 15.0934C22.3163 14.8635 22.2712 14.6666 22.1808 14.5018Z" fill="white"/>
<path d="M27.6532 15.3779H24.9137C24.9362 15.6484 25.031 15.8605 25.198 16.0136C25.3647 16.1669 25.5699 16.2437 25.8134 16.2437C26.1652 16.2437 26.4155 16.0925 26.5642 15.7905H27.5855C27.4773 16.1513 27.2698 16.4479 26.9632 16.68C26.6566 16.9123 26.28 17.0283 25.8337 17.0283C25.4729 17.0283 25.1492 16.9481 24.863 16.7882C24.5766 16.628 24.3534 16.4016 24.1932 16.1084C24.0331 15.8154 23.9531 15.4771 23.9531 15.0936C23.9531 14.7058 24.0319 14.3656 24.1898 14.0723C24.3475 13.7793 24.5686 13.5539 24.8526 13.3959C25.1368 13.2382 25.4636 13.1592 25.8334 13.1592C26.1895 13.1592 26.5088 13.236 26.7906 13.3891C27.0724 13.5424 27.2913 13.7601 27.4468 14.0419C27.6023 14.3236 27.6803 14.6471 27.6803 15.0125C27.6803 15.148 27.671 15.2696 27.6532 15.3779ZM26.6995 14.7422C26.6948 14.4986 26.6071 14.3036 26.4355 14.1572C26.2639 14.0107 26.0545 13.9373 25.8064 13.9373C25.5719 13.9373 25.3744 14.0082 25.2145 14.1503C25.0544 14.2924 24.9562 14.4896 24.9203 14.7422H26.6995Z" fill="white"/>
<path d="M29.7931 13.3349C29.9893 13.2223 30.2136 13.166 30.4661 13.166V14.1602H30.2158C29.9181 14.1602 29.6936 14.2302 29.5428 14.3699C29.3916 14.5098 29.3161 14.7533 29.3161 15.1004V16.9673H28.3691V13.2201H29.3161V13.8019C29.438 13.6033 29.5969 13.4478 29.7931 13.3349Z" fill="white"/>
<path d="M8.32231 25.9571C9.11767 24.7096 10.4386 24.0859 12.2848 24.0859C14.1304 24.0859 15.4516 24.7099 16.2472 25.9571C17.0425 27.2049 17.4406 28.9299 17.4406 31.1322C17.4406 33.3474 17.0425 35.0851 16.2472 36.3455C15.4513 37.6057 14.1304 38.236 12.2848 38.236C10.4386 38.236 9.11767 37.606 8.32231 36.3455C7.52647 35.0853 7.12891 33.3474 7.12891 31.1322C7.12891 28.9299 7.52647 27.2051 8.32231 25.9571ZM14.624 28.7549C14.5029 28.1121 14.2611 27.5869 13.8984 27.1795C13.5354 26.7722 12.9975 26.5685 12.2848 26.5685C11.5715 26.5685 11.0341 26.7722 10.6711 27.1795C10.3084 27.5871 10.0664 28.1124 9.94546 28.7549C9.82426 29.3979 9.76406 30.1904 9.76406 31.1322C9.76406 32.0999 9.82136 32.9113 9.93596 33.567C10.0505 34.2227 10.2923 34.7509 10.6616 35.1519C11.0307 35.5528 11.5715 35.7535 12.2848 35.7535C12.9975 35.7535 13.5386 35.5528 13.9079 35.1519C14.2769 34.7509 14.519 34.2227 14.6335 33.567C14.7481 32.9116 14.8054 32.0999 14.8054 31.1322C14.8054 30.1904 14.7449 29.3979 14.624 28.7549Z" fill="white"/>
<path d="M23.2546 35.6488C23.6175 35.9481 24.1043 36.0976 24.7154 36.0976C25.5046 36.0976 26.0774 35.77 26.434 35.114C26.7904 34.4586 26.9688 33.3542 26.9688 31.801C26.6758 32.2085 26.2654 32.5266 25.7372 32.7557C25.2087 32.9849 24.6393 33.0994 24.028 33.0994C23.2131 33.0994 22.478 32.931 21.8225 32.5934C21.1666 32.2563 20.6482 31.7532 20.2662 31.0848C19.8842 30.4165 19.6934 29.6048 19.6934 28.65C19.6934 27.237 20.1136 26.1136 20.9536 25.2794C21.7938 24.4458 22.9396 24.0288 24.3909 24.0288C26.1986 24.0288 27.4749 24.6082 28.2198 25.7665C28.9647 26.925 29.3369 28.669 29.3369 30.9988C29.3369 32.6539 29.1938 34.0098 28.9071 35.0663C28.6207 36.1232 28.1305 36.9251 27.4368 37.4723C26.7429 38.02 25.7976 38.2935 24.601 38.2935C23.6587 38.2935 22.8568 38.1122 22.1947 37.7495C21.5327 37.3865 21.0267 36.9092 20.6767 36.3172C20.3264 35.7251 20.1258 35.0731 20.0751 34.3599H22.5577C22.6593 34.92 22.8919 35.3497 23.2546 35.6488ZM26.1476 30.3114C26.5296 29.9041 26.7204 29.3567 26.7204 28.6693C26.7204 27.9183 26.5198 27.3357 26.1189 26.9221C25.7179 26.5084 25.1736 26.3015 24.4862 26.3015C23.7989 26.3015 23.2546 26.5148 22.8536 26.9413C22.4524 27.3679 22.252 27.9314 22.252 28.6315C22.252 29.3064 22.4458 29.8568 22.8343 30.2831C23.2226 30.7097 23.805 30.923 24.5815 30.923C25.2436 30.9225 25.7657 30.719 26.1476 30.3114Z" fill="white"/>
<rect x="37" width="197" height="12" fill="#041F41"/>
<mask id="path-11-inside-1_2097_1685" fill="white">
<path d="M37 36H234V51H37V36Z"/>
</mask>
<path d="M37 36H234V51H37V36Z" fill="white"/>
<path d="M37 36.2H234V35.8H37V36.2Z" fill="#BDC5D1" mask="url(#path-11-inside-1_2097_1685)"/>
<rect x="37" y="12" width="197" height="24" fill="white"/>
<path d="M53.1003 27.5619V28.7346H49V21.0972H50.3026V27.5617L53.1003 27.5619Z" fill="#041F41"/>
<path d="M61.193 24.9997C61.193 25.5607 61.1077 26.0779 60.9385 26.5558C60.7691 27.0315 60.5293 27.4444 60.2199 27.7935C59.9096 28.1427 59.537 28.4139 59.1014 28.6099C58.6653 28.8046 58.1815 28.9026 57.6486 28.9026C57.1194 28.9026 56.6368 28.8048 56.2012 28.6099C55.7652 28.4139 55.3915 28.1427 55.0802 27.7935C54.7685 27.4444 54.5276 27.0315 54.3563 26.5558C54.1852 26.0779 54.0996 25.5607 54.0996 24.9997C54.0996 24.4388 54.1849 23.9216 54.3563 23.4438C54.5274 22.9681 54.7685 22.5552 55.0802 22.206C55.3915 21.8569 55.7652 21.5857 56.2012 21.3896C56.6368 21.195 57.1192 21.0972 57.6486 21.0972C58.0038 21.0972 58.3379 21.1418 58.6504 21.2311C58.9636 21.3205 59.251 21.4481 59.5128 21.6112C59.7739 21.7763 60.0089 21.9741 60.2168 22.2095C60.4252 22.4435 60.6016 22.7043 60.7469 22.9939C60.8924 23.2824 61.0026 23.5954 61.0787 23.9336C61.1545 24.2707 61.193 24.6271 61.193 24.9997ZM59.8614 24.9997C59.8614 24.5803 59.8097 24.2056 59.7064 23.8717C59.6032 23.5406 59.456 23.2563 59.2659 23.0245C59.0753 22.7923 58.844 22.6147 58.5712 22.4914C58.298 22.368 57.9908 22.306 57.6489 22.306C57.3064 22.306 56.999 22.3676 56.7263 22.4914C56.4538 22.6147 56.2215 22.7923 56.0291 23.0245C55.8368 23.2566 55.6896 23.5406 55.5862 23.8717C55.4829 24.2059 55.4312 24.5806 55.4312 24.9997C55.4312 25.419 55.4829 25.7936 55.5862 26.1279C55.6896 26.46 55.8371 26.7408 56.0291 26.9719C56.2215 27.2041 56.4535 27.3806 56.7263 27.5029C56.999 27.6263 57.3064 27.6891 57.6489 27.6891C57.9908 27.6891 58.2982 27.6263 58.5712 27.5029C58.844 27.3806 59.075 27.2038 59.2659 26.9719C59.4563 26.7411 59.6035 26.46 59.7064 26.1279C59.8097 25.7936 59.8614 25.419 59.8614 24.9997Z" fill="#041F41"/>
<path d="M68.3808 24.9898V28.0793C68.0256 28.3647 67.6471 28.5732 67.2451 28.7051C66.8432 28.838 66.4135 28.9032 65.955 28.9032C65.3836 28.9032 64.8661 28.8074 64.4033 28.6126C63.9399 28.4197 63.5448 28.1507 63.2174 27.8047C62.8896 27.4609 62.6368 27.0479 62.4594 26.568C62.2822 26.0901 62.1934 25.5676 62.1934 25.0001C62.1934 24.4255 62.2787 23.8998 62.4501 23.4217C62.6207 22.9418 62.8637 22.5299 63.1784 22.186C63.4931 21.8401 63.8751 21.5718 64.3233 21.3824C64.7721 21.1921 65.2759 21.0972 65.8341 21.0972C66.118 21.0972 66.3837 21.1216 66.6307 21.1705C66.8773 21.2206 67.1067 21.2875 67.318 21.3737C67.5296 21.4598 67.7224 21.5641 67.8964 21.6886C68.0705 21.8119 68.2306 21.9462 68.3759 22.094L68.0032 22.7391C67.9452 22.8423 67.8691 22.9043 67.7755 22.9266C67.6819 22.95 67.5805 22.9244 67.4706 22.851C67.3638 22.784 67.2573 22.7171 67.1511 22.6501C67.0441 22.583 66.9256 22.5243 66.7949 22.4766C66.6648 22.4267 66.5173 22.3852 66.3545 22.3543C66.1917 22.3235 66.0032 22.3064 65.7907 22.3064C65.4453 22.3064 65.1326 22.3693 64.8537 22.4969C64.5746 22.6245 64.3367 22.8046 64.1395 23.0396C63.9428 23.277 63.7912 23.5589 63.6844 23.891C63.5782 24.221 63.5248 24.5926 63.5248 25.0001C63.5248 25.4365 63.5818 25.8271 63.6966 26.171C63.8112 26.5136 63.9726 26.8044 64.181 27.0415C64.3889 27.2798 64.6399 27.4609 64.9337 27.5863C65.2274 27.7119 65.5552 27.7735 65.9167 27.7735C66.1748 27.7735 66.4054 27.7428 66.609 27.6842C66.8122 27.6236 67.0109 27.5428 67.2047 27.4393V26.0558H66.3233C66.2394 26.0558 66.1741 26.0313 66.1278 25.9803C66.081 25.9281 66.0571 25.8665 66.0571 25.7931V24.9895L68.3808 24.9898Z" fill="#041F41"/>
<path d="M76.4742 24.9997C76.4742 25.5607 76.3889 26.0779 76.2195 26.5558C76.0499 27.0315 75.8103 27.4444 75.5005 27.7935C75.1906 28.1427 74.818 28.4139 74.3819 28.6099C73.9463 28.8046 73.462 28.9026 72.9296 28.9026C72.4004 28.9026 71.9178 28.8048 71.4822 28.6099C71.0462 28.4139 70.6725 28.1427 70.3612 27.7935C70.0495 27.4444 69.8082 27.0315 69.6373 26.5558C69.4662 26.0779 69.3809 25.5607 69.3809 24.9997C69.3809 24.4388 69.4662 23.9216 69.6373 23.4438C69.8079 22.9681 70.0495 22.5552 70.3612 22.206C70.6725 21.8569 71.0462 21.5857 71.4822 21.3896C71.9178 21.195 72.4004 21.0972 72.9296 21.0972C73.2848 21.0972 73.6189 21.1418 73.9317 21.2311C74.2446 21.3205 74.532 21.4481 74.7936 21.6112C75.0551 21.7763 75.2896 21.9741 75.4978 22.2095C75.7062 22.4435 75.8827 22.7043 76.0282 22.9939C76.1734 23.2824 76.2839 23.5954 76.3599 23.9336C76.4357 24.2707 76.4742 24.6271 76.4742 24.9997ZM75.1421 24.9997C75.1421 24.5803 75.091 24.2056 74.9876 23.8717C74.8843 23.5406 74.7373 23.2563 74.5471 23.0245C74.3565 22.7923 74.1252 22.6147 73.8525 22.4914C73.5792 22.368 73.2718 22.306 72.9299 22.306C72.5874 22.306 72.28 22.3676 72.0075 22.4914C71.7348 22.6147 71.5027 22.7923 71.3104 23.0245C71.1183 23.2566 70.9704 23.5406 70.8675 23.8717C70.7641 24.2059 70.7122 24.5806 70.7122 24.9997C70.7122 25.419 70.7639 25.7936 70.8675 26.1279C70.9704 26.46 71.1183 26.7408 71.3104 26.9719C71.5027 27.2041 71.7348 27.3806 72.0075 27.5029C72.28 27.6263 72.5876 27.6891 72.9299 27.6891C73.2718 27.6891 73.5792 27.6263 73.8525 27.5029C74.125 27.3806 74.3563 27.2038 74.5471 26.9719C74.7373 26.7411 74.8843 26.46 74.9876 26.1279C75.0907 25.7936 75.1421 25.419 75.1421 24.9997Z" fill="#041F41"/>
<path d="M95.4596 25.2789C95.4596 26.5043 94.4666 27.4976 93.2406 27.4976H82.6936C81.4686 27.4976 80.4746 26.5045 80.4746 25.2789V24.721C80.4746 23.4957 81.4676 22.5024 82.6936 22.5024H93.2406C94.4656 22.5024 95.4596 23.4954 95.4596 24.721V25.2789Z" fill="#858C97"/>
<path d="M113.445 25.2789C113.445 26.5043 112.451 27.4976 111.226 27.4976H100.678C99.453 27.4976 98.459 26.5045 98.459 25.2789V24.721C98.459 23.4957 99.453 22.5024 100.678 22.5024H111.226C112.451 22.5024 113.445 23.4954 113.445 24.721V25.2789Z" fill="#858C97"/>
<path d="M131.43 25.2789C131.43 26.5043 130.437 27.4976 129.211 27.4976H118.664C117.438 27.4976 116.445 26.5045 116.445 25.2789V24.721C116.445 23.4957 117.438 22.5024 118.664 22.5024H129.211C130.436 22.5024 131.43 23.4954 131.43 24.721V25.2789Z" fill="#858C97"/>
<path d="M149.415 25.2789C149.415 26.5043 148.421 27.4976 147.196 27.4976H136.649C135.424 27.4976 134.43 26.5045 134.43 25.2789V24.721C134.43 23.4957 135.423 22.5024 136.649 22.5024H147.196C148.421 22.5024 149.415 23.4954 149.415 24.721V25.2789Z" fill="#858C97"/>
<rect x="194.414" y="21" width="8" height="8" rx="4" fill="#3A86FF"/>
<rect x="204.414" y="21" width="8" height="8" rx="4" fill="#3A86FF"/>
<rect x="214.414" y="21" width="8" height="8" rx="4" fill="#3A86FF"/>
<path d="M62 5.6675C62 6.40345 61.4036 7 60.6673 7H54.3327C53.597 7 53 6.40357 53 5.6675V5.33244C53 4.59655 53.5964 4 54.3327 4H60.6673C61.403 4 62 4.59637 62 5.33244V5.6675Z" fill="white"/>
<rect x="49" y="4" width="3" height="3" rx="1.5" fill="#D9D9D9"/>
<path d="M79 5.6675C79 6.40345 78.4036 7 77.6673 7H71.3327C70.597 7 70 6.40357 70 5.6675V5.33244C70 4.59655 70.5964 4 71.3327 4H77.6673C78.403 4 79 4.59637 79 5.33244V5.6675Z" fill="white"/>
<rect x="66" y="4" width="3" height="3" rx="1.5" fill="#D9D9D9"/>
</g>
<defs>
<clipPath id="clip0_2097_1685">
<rect width="234" height="51" fill="white"/>
</clipPath>
</defs>
</svg>
