<svg width="234" height="51" viewBox="0 0 234 51" fill="none" xmlns="http://www.w3.org/2000/svg">
<g clip-path="url(#clip0_2097_1463)">
<rect width="234" height="51" fill="white"/>
<rect width="37" height="51" fill="#3A86FF"/>
<path d="M9.91628 12.208V16.9294H8.96936V14.9204H6.94697V16.9294H6V12.208H6.94697V14.1492H8.96936V12.208H9.91628Z" fill="white"/>
<path d="M14.3075 15.3398H11.568C11.5905 15.6103 11.6853 15.8224 11.8522 15.9755C12.019 16.1288 12.2242 16.2056 12.4677 16.2056C12.8194 16.2056 13.0698 16.0544 13.2185 15.7524H14.2398C14.1316 16.1132 13.9241 16.4098 13.6175 16.6419C13.3108 16.8742 12.9343 16.9902 12.4879 16.9902C12.1272 16.9902 11.8035 16.91 11.5173 16.7501C11.2309 16.5899 11.0077 16.3635 10.8475 16.0703C10.6874 15.7773 10.6074 15.439 10.6074 15.0555C10.6074 14.6677 10.6861 14.3275 10.8441 14.0342C11.0018 13.7412 11.2229 13.5158 11.5069 13.3578C11.7911 13.2001 12.1179 13.1211 12.4877 13.1211C12.8438 13.1211 13.1631 13.1979 13.4449 13.351C13.7267 13.5043 13.9456 13.722 14.1011 14.0038C14.2566 14.2855 14.3346 14.609 14.3346 14.9744C14.3346 15.1099 14.3256 15.2315 14.3075 15.3398ZM13.354 14.7041C13.3494 14.4605 13.2616 14.2655 13.09 14.1191C12.9184 13.9726 12.709 13.8992 12.4609 13.8992C12.2264 13.8992 12.029 13.9701 11.8691 14.1122C11.7089 14.2543 11.6107 14.4515 11.5749 14.7041H13.354Z" fill="white"/>
<path d="M15.0079 14.0342C15.1591 13.7412 15.3641 13.5158 15.6234 13.3578C15.8828 13.2001 16.1722 13.1211 16.4925 13.1211C16.7721 13.1211 17.0169 13.1774 17.2266 13.2903C17.4362 13.4032 17.6041 13.545 17.7304 13.7164V13.1821H18.6842V16.9295H17.7304V16.3815C17.6085 16.5575 17.4406 16.7028 17.2266 16.8179C17.0123 16.9329 16.7654 16.9904 16.4858 16.9904C16.1701 16.9904 15.8824 16.9093 15.6231 16.7467C15.3637 16.5841 15.1586 16.3557 15.0077 16.0603C14.8566 15.7651 14.7812 15.4256 14.7812 15.0421C14.7814 14.6633 14.8571 14.3275 15.0079 14.0342ZM17.5954 14.4637C17.5052 14.2992 17.3832 14.1729 17.2299 14.0849C17.0766 13.9969 16.912 13.9528 16.736 13.9528C16.5603 13.9528 16.3981 13.9957 16.2491 14.0813C16.1004 14.1671 15.9798 14.2921 15.8874 14.4566C15.795 14.6214 15.7486 14.8164 15.7486 15.0416C15.7486 15.2674 15.7948 15.4646 15.8874 15.6335C15.9798 15.8026 16.1014 15.9323 16.2528 16.0225C16.4039 16.1129 16.565 16.1578 16.7364 16.1578C16.9124 16.1578 17.0769 16.1139 17.2302 16.0259C17.3835 15.9379 17.5052 15.8119 17.5956 15.6471C17.6858 15.4826 17.7309 15.2852 17.7309 15.0553C17.7309 14.8254 17.6855 14.6285 17.5954 14.4637Z" fill="white"/>
<path d="M19.5936 14.0342C19.7448 13.7412 19.951 13.5158 20.2128 13.3578C20.4743 13.2001 20.7651 13.1211 21.0854 13.1211C21.3289 13.1211 21.5612 13.1743 21.782 13.2801C22.0029 13.3861 22.1788 13.527 22.3097 13.7027V11.9238H23.2701V16.9295H22.3097V16.375C22.1925 16.56 22.028 16.7087 21.8159 16.8215C21.6038 16.9341 21.3581 16.9907 21.0786 16.9907C20.7629 16.9907 20.4743 16.9095 20.2128 16.7469C19.9512 16.5846 19.7448 16.356 19.5936 16.0605C19.4425 15.7653 19.3672 15.4258 19.3672 15.0424C19.3669 14.6634 19.4425 14.3275 19.5936 14.0342ZM22.1808 14.4637C22.0906 14.2992 21.9687 14.1729 21.8154 14.0849C21.6621 13.9969 21.4976 13.9528 21.3216 13.9528C21.1458 13.9528 20.9835 13.9957 20.8346 14.0813C20.6859 14.1671 20.5652 14.2921 20.4728 14.4567C20.3805 14.6214 20.3341 14.8164 20.3341 15.0417C20.3341 15.2674 20.3802 15.4646 20.4728 15.6335C20.5652 15.8026 20.6868 15.9323 20.8382 16.0225C20.9893 16.1129 21.1505 16.1578 21.3218 16.1578C21.4978 16.1578 21.6623 16.1139 21.8157 16.0259C21.969 15.9379 22.0906 15.8119 22.181 15.6471C22.2712 15.4826 22.3163 15.2852 22.3163 15.0553C22.3163 14.8254 22.2712 14.6285 22.1808 14.4637Z" fill="white"/>
<path d="M27.6532 15.3398H24.9137C24.9362 15.6103 25.031 15.8224 25.198 15.9755C25.3647 16.1288 25.5699 16.2056 25.8134 16.2056C26.1652 16.2056 26.4155 16.0544 26.5642 15.7524H27.5855C27.4773 16.1132 27.2698 16.4098 26.9632 16.6419C26.6566 16.8742 26.28 16.9902 25.8337 16.9902C25.4729 16.9902 25.1492 16.91 24.863 16.7501C24.5766 16.5899 24.3534 16.3635 24.1932 16.0703C24.0331 15.7773 23.9531 15.439 23.9531 15.0555C23.9531 14.6677 24.0319 14.3275 24.1898 14.0342C24.3475 13.7412 24.5686 13.5158 24.8526 13.3578C25.1368 13.2001 25.4636 13.1211 25.8334 13.1211C26.1895 13.1211 26.5088 13.1979 26.7906 13.351C27.0724 13.5043 27.2913 13.722 27.4468 14.0038C27.6023 14.2855 27.6803 14.609 27.6803 14.9744C27.6803 15.1099 27.671 15.2315 27.6532 15.3398ZM26.6995 14.7041C26.6948 14.4605 26.6071 14.2655 26.4355 14.1191C26.2639 13.9726 26.0545 13.8992 25.8064 13.8992C25.5719 13.8992 25.3744 13.9701 25.2145 14.1122C25.0544 14.2543 24.9562 14.4515 24.9203 14.7041H26.6995Z" fill="white"/>
<path d="M29.7931 13.2968C29.9893 13.1842 30.2136 13.1279 30.4661 13.1279V14.1221H30.2158C29.9181 14.1221 29.6936 14.1921 29.5428 14.3318C29.3916 14.4717 29.3161 14.7152 29.3161 15.0623V16.9292H28.3691V13.182H29.3161V13.7638C29.438 13.5652 29.5969 13.4097 29.7931 13.2968Z" fill="white"/>
<path d="M8.59965 25.9192C9.39501 24.6717 10.7159 24.0479 12.5621 24.0479C14.4077 24.0479 15.7289 24.6719 16.5245 25.9192C17.3198 27.1669 17.7179 28.892 17.7179 31.0942C17.7179 33.3094 17.3198 35.0471 16.5245 36.3076C15.7286 37.5677 14.4077 38.198 12.5621 38.198C10.7159 38.198 9.39501 37.568 8.59965 36.3076C7.80381 35.0474 7.40625 33.3094 7.40625 31.0942C7.40625 28.892 7.80381 27.1669 8.59965 25.9192ZM14.9013 28.7169C14.7802 28.0742 14.5384 27.5489 14.1757 27.1416C13.8128 26.7343 13.2748 26.5305 12.5621 26.5305C11.8489 26.5305 11.3114 26.7343 10.9484 27.1416C10.5857 27.5491 10.3437 28.0744 10.2228 28.7169C10.1017 29.36 10.0415 30.1524 10.0415 31.0942C10.0415 32.0619 10.0987 32.8734 10.2133 33.5291C10.3279 34.1847 10.5697 34.7129 10.9389 35.1139C11.308 35.5149 11.8489 35.7155 12.5621 35.7155C13.2748 35.7155 13.8159 35.5149 14.1852 35.1139C14.5542 34.7129 14.7963 34.1847 14.9108 33.5291C15.0254 32.8736 15.0827 32.0619 15.0827 31.0942C15.0829 30.1524 15.0222 29.3597 14.9013 28.7169Z" fill="white"/>
<path d="M21.1271 25.0315C21.9607 24.3378 23.0588 23.9907 24.4211 23.9907C25.3503 23.9907 26.1462 24.1531 26.8082 24.4777C27.47 24.8024 27.9697 25.2414 28.3073 25.7952C28.6444 26.349 28.8133 26.9762 28.8133 27.6762C28.8133 28.4784 28.6061 29.1563 28.1927 29.7101C27.7788 30.2639 27.2857 30.6361 26.7126 30.8272V30.9035C27.451 31.1326 28.0272 31.5402 28.4408 32.1256C28.8542 32.7114 29.0614 33.4624 29.0614 34.3791C29.0614 35.143 28.8864 35.8241 28.5364 36.4225C28.1861 37.0211 27.6706 37.4889 26.9895 37.826C26.3085 38.1636 25.4905 38.332 24.5357 38.332C23.0969 38.332 21.9256 37.9693 21.0221 37.2437C20.118 36.518 19.6405 35.4487 19.5898 34.0354H22.1869C22.2123 34.6594 22.4256 35.1591 22.8268 35.5345C23.2277 35.9101 23.7781 36.0978 24.4784 36.0978C25.1278 36.0978 25.6272 35.9164 25.9775 35.5535C26.3275 35.1908 26.5028 34.7228 26.5028 34.15C26.5028 33.3861 26.2607 32.8389 25.7771 32.5076C25.293 32.1768 24.542 32.0111 23.5237 32.0111H22.9699V29.8149H23.5237C25.3313 29.8149 26.2354 29.2104 26.2354 28.0009C26.2354 27.4537 26.073 27.0269 25.7484 26.7215C25.4237 26.416 24.9559 26.2632 24.3449 26.2632C23.7462 26.2632 23.285 26.4255 22.9604 26.7502C22.6357 27.0749 22.4477 27.4854 22.397 27.9819H19.7809C19.8445 26.7088 20.2932 25.7255 21.1271 25.0315Z" fill="white"/>
<rect x="37" width="197" height="12" fill="#041F41"/>
<rect x="37" y="15" width="197" height="24" fill="white"/>
<path d="M53.1003 29.5619V30.7346H49V23.0972H50.3026V29.5617L53.1003 29.5619Z" fill="#041F41"/>
<path d="M61.193 26.9997C61.193 27.5607 61.1077 28.0779 60.9385 28.5558C60.7691 29.0315 60.5293 29.4444 60.2199 29.7935C59.9096 30.1427 59.537 30.4139 59.1014 30.6099C58.6653 30.8046 58.1815 30.9026 57.6486 30.9026C57.1194 30.9026 56.6368 30.8048 56.2012 30.6099C55.7652 30.4139 55.3915 30.1427 55.0802 29.7935C54.7685 29.4444 54.5276 29.0315 54.3563 28.5558C54.1852 28.0779 54.0996 27.5607 54.0996 26.9997C54.0996 26.4388 54.1849 25.9216 54.3563 25.4438C54.5274 24.9681 54.7685 24.5552 55.0802 24.206C55.3915 23.8569 55.7652 23.5857 56.2012 23.3896C56.6368 23.195 57.1192 23.0972 57.6486 23.0972C58.0038 23.0972 58.3379 23.1418 58.6504 23.2311C58.9636 23.3205 59.251 23.4481 59.5128 23.6112C59.7739 23.7763 60.0089 23.9741 60.2168 24.2095C60.4252 24.4435 60.6016 24.7043 60.7469 24.9939C60.8924 25.2824 61.0026 25.5954 61.0787 25.9336C61.1545 26.2707 61.193 26.6271 61.193 26.9997ZM59.8614 26.9997C59.8614 26.5803 59.8097 26.2056 59.7064 25.8717C59.6032 25.5406 59.456 25.2563 59.2659 25.0245C59.0753 24.7923 58.844 24.6147 58.5712 24.4914C58.298 24.368 57.9908 24.306 57.6489 24.306C57.3064 24.306 56.999 24.3676 56.7263 24.4914C56.4538 24.6147 56.2215 24.7923 56.0291 25.0245C55.8368 25.2566 55.6896 25.5406 55.5862 25.8717C55.4829 26.2059 55.4312 26.5806 55.4312 26.9997C55.4312 27.419 55.4829 27.7936 55.5862 28.1279C55.6896 28.46 55.8371 28.7408 56.0291 28.9719C56.2215 29.2041 56.4535 29.3806 56.7263 29.5029C56.999 29.6263 57.3064 29.6891 57.6489 29.6891C57.9908 29.6891 58.2982 29.6263 58.5712 29.5029C58.844 29.3806 59.075 29.2038 59.2659 28.9719C59.4563 28.7411 59.6035 28.46 59.7064 28.1279C59.8097 27.7936 59.8614 27.419 59.8614 26.9997Z" fill="#041F41"/>
<path d="M68.3808 26.9898V30.0793C68.0256 30.3647 67.6471 30.5732 67.2451 30.7051C66.8432 30.838 66.4135 30.9032 65.955 30.9032C65.3836 30.9032 64.8661 30.8074 64.4033 30.6126C63.9399 30.4197 63.5448 30.1507 63.2174 29.8047C62.8896 29.4609 62.6368 29.0479 62.4594 28.568C62.2822 28.0901 62.1934 27.5676 62.1934 27.0001C62.1934 26.4255 62.2787 25.8998 62.4501 25.4217C62.6207 24.9418 62.8637 24.5299 63.1784 24.186C63.4931 23.8401 63.8751 23.5718 64.3233 23.3824C64.7721 23.1921 65.2759 23.0972 65.8341 23.0972C66.118 23.0972 66.3837 23.1216 66.6307 23.1705C66.8773 23.2206 67.1067 23.2875 67.318 23.3737C67.5296 23.4598 67.7224 23.5641 67.8964 23.6886C68.0705 23.8119 68.2306 23.9462 68.3759 24.094L68.0032 24.7391C67.9452 24.8423 67.8691 24.9043 67.7755 24.9266C67.6819 24.95 67.5805 24.9244 67.4706 24.851C67.3638 24.784 67.2573 24.7171 67.1511 24.6501C67.0441 24.583 66.9256 24.5243 66.7949 24.4766C66.6648 24.4267 66.5173 24.3852 66.3545 24.3543C66.1917 24.3235 66.0032 24.3064 65.7907 24.3064C65.4453 24.3064 65.1326 24.3693 64.8537 24.4969C64.5746 24.6245 64.3367 24.8046 64.1395 25.0396C63.9428 25.277 63.7912 25.5589 63.6844 25.891C63.5782 26.221 63.5248 26.5926 63.5248 27.0001C63.5248 27.4365 63.5818 27.8271 63.6966 28.171C63.8112 28.5136 63.9726 28.8044 64.181 29.0415C64.3889 29.2798 64.6399 29.4609 64.9337 29.5863C65.2274 29.7119 65.5552 29.7735 65.9167 29.7735C66.1748 29.7735 66.4054 29.7428 66.609 29.6842C66.8122 29.6236 67.0109 29.5428 67.2047 29.4393V28.0558H66.3233C66.2394 28.0558 66.1741 28.0313 66.1278 27.9803C66.081 27.9281 66.0571 27.8665 66.0571 27.7931V26.9895L68.3808 26.9898Z" fill="#041F41"/>
<path d="M76.4742 26.9997C76.4742 27.5607 76.3889 28.0779 76.2195 28.5558C76.0499 29.0315 75.8103 29.4444 75.5005 29.7935C75.1906 30.1427 74.818 30.4139 74.3819 30.6099C73.9463 30.8046 73.462 30.9026 72.9296 30.9026C72.4004 30.9026 71.9178 30.8048 71.4822 30.6099C71.0462 30.4139 70.6725 30.1427 70.3612 29.7935C70.0495 29.4444 69.8082 29.0315 69.6373 28.5558C69.4662 28.0779 69.3809 27.5607 69.3809 26.9997C69.3809 26.4388 69.4662 25.9216 69.6373 25.4438C69.8079 24.9681 70.0495 24.5552 70.3612 24.206C70.6725 23.8569 71.0462 23.5857 71.4822 23.3896C71.9178 23.195 72.4004 23.0972 72.9296 23.0972C73.2848 23.0972 73.6189 23.1418 73.9317 23.2311C74.2446 23.3205 74.532 23.4481 74.7936 23.6112C75.0551 23.7763 75.2896 23.9741 75.4978 24.2095C75.7062 24.4435 75.8827 24.7043 76.0282 24.9939C76.1734 25.2824 76.2839 25.5954 76.3599 25.9336C76.4357 26.2707 76.4742 26.6271 76.4742 26.9997ZM75.1421 26.9997C75.1421 26.5803 75.091 26.2056 74.9876 25.8717C74.8843 25.5406 74.7373 25.2563 74.5471 25.0245C74.3565 24.7923 74.1252 24.6147 73.8525 24.4914C73.5792 24.368 73.2718 24.306 72.9299 24.306C72.5874 24.306 72.28 24.3676 72.0075 24.4914C71.7348 24.6147 71.5027 24.7923 71.3104 25.0245C71.1183 25.2566 70.9704 25.5406 70.8675 25.8717C70.7641 26.2059 70.7122 26.5806 70.7122 26.9997C70.7122 27.419 70.7639 27.7936 70.8675 28.1279C70.9704 28.46 71.1183 28.7408 71.3104 28.9719C71.5027 29.2041 71.7348 29.3806 72.0075 29.5029C72.28 29.6263 72.5876 29.6891 72.9299 29.6891C73.2718 29.6891 73.5792 29.6263 73.8525 29.5029C74.125 29.3806 74.3563 29.2038 74.5471 28.9719C74.7373 28.7411 74.8843 28.46 74.9876 28.1279C75.0907 27.7936 75.1421 27.419 75.1421 26.9997Z" fill="#041F41"/>
<path d="M96.4596 27.2789C96.4596 28.5043 95.4666 29.4976 94.2406 29.4976H83.6936C82.4686 29.4976 81.4746 28.5045 81.4746 27.2789V26.721C81.4746 25.4957 82.4676 24.5024 83.6936 24.5024H94.2406C95.4656 24.5024 96.4596 25.4954 96.4596 26.721V27.2789Z" fill="#858C97"/>
<path d="M114.445 27.2789C114.445 28.5043 113.451 29.4976 112.226 29.4976H101.678C100.453 29.4976 99.459 28.5045 99.459 27.2789V26.721C99.459 25.4957 100.453 24.5024 101.678 24.5024H112.226C113.451 24.5024 114.445 25.4954 114.445 26.721V27.2789Z" fill="#858C97"/>
<path d="M132.43 27.2789C132.43 28.5043 131.437 29.4976 130.211 29.4976H119.664C118.438 29.4976 117.445 28.5045 117.445 27.2789V26.721C117.445 25.4957 118.438 24.5024 119.664 24.5024H130.211C131.436 24.5024 132.43 25.4954 132.43 26.721V27.2789Z" fill="#858C97"/>
<path d="M150.415 27.2789C150.415 28.5043 149.421 29.4976 148.196 29.4976H137.649C136.424 29.4976 135.43 28.5045 135.43 27.2789V26.721C135.43 25.4957 136.423 24.5024 137.649 24.5024H148.196C149.421 24.5024 150.415 25.4954 150.415 26.721V27.2789Z" fill="#858C97"/>
<rect x="194.414" y="23" width="8" height="8" rx="4" fill="#3A86FF"/>
<rect x="204.414" y="23" width="8" height="8" rx="4" fill="#3A86FF"/>
<rect x="214.414" y="23" width="8" height="8" rx="4" fill="#3A86FF"/>
<path d="M62 5.6675C62 6.40345 61.4036 7 60.6673 7H54.3327C53.597 7 53 6.40357 53 5.6675V5.33244C53 4.59655 53.5964 4 54.3327 4H60.6673C61.403 4 62 4.59637 62 5.33244V5.6675Z" fill="white"/>
<rect x="49" y="4" width="3" height="3" rx="1.5" fill="#D9D9D9"/>
<path d="M79 5.6675C79 6.40345 78.4036 7 77.6673 7H71.3327C70.597 7 70 6.40357 70 5.6675V5.33244C70 4.59655 70.5964 4 71.3327 4H77.6673C78.403 4 79 4.59637 79 5.33244V5.6675Z" fill="white"/>
<rect x="66" y="4" width="3" height="3" rx="1.5" fill="#D9D9D9"/>
<path d="M222 5.6675C222 6.40345 221.404 7 220.667 7H214.333C213.597 7 213 6.40357 213 5.6675V5.33244C213 4.59655 213.596 4 214.333 4H220.667C221.403 4 222 4.59637 222 5.33244V5.6675Z" fill="white"/>
<rect x="209" y="4" width="3" height="3" rx="1.5" fill="#D9D9D9"/>
</g>
<defs>
<clipPath id="clip0_2097_1463">
<rect width="234" height="51" fill="white"/>
</clipPath>
</defs>
</svg>
