<svg width="234" height="51" viewBox="0 0 234 51" fill="none" xmlns="http://www.w3.org/2000/svg">
<g clip-path="url(#clip0_2097_1611)">
<rect width="234" height="51" fill="white"/>
<rect width="37" height="51" fill="#3A86FF"/>
<path d="M9.91628 12.2842V17.0056H8.96936V14.9966H6.94697V17.0056H6V12.2842H6.94697V14.2254H8.96936V12.2842H9.91628Z" fill="white"/>
<path d="M14.3075 15.416H11.568C11.5905 15.6865 11.6853 15.8986 11.8522 16.0517C12.019 16.205 12.2242 16.2818 12.4677 16.2818C12.8194 16.2818 13.0698 16.1306 13.2185 15.8286H14.2398C14.1316 16.1894 13.9241 16.486 13.6175 16.7181C13.3108 16.9504 12.9343 17.0664 12.4879 17.0664C12.1272 17.0664 11.8035 16.9862 11.5173 16.8263C11.2309 16.6661 11.0077 16.4397 10.8475 16.1465C10.6874 15.8535 10.6074 15.5152 10.6074 15.1317C10.6074 14.7439 10.6861 14.4037 10.8441 14.1104C11.0018 13.8174 11.2229 13.592 11.5069 13.434C11.7911 13.2763 12.1179 13.1973 12.4877 13.1973C12.8438 13.1973 13.1631 13.2741 13.4449 13.4272C13.7267 13.5805 13.9456 13.7982 14.1011 14.08C14.2566 14.3617 14.3346 14.6852 14.3346 15.0506C14.3346 15.1861 14.3256 15.3077 14.3075 15.416ZM13.354 14.7803C13.3494 14.5367 13.2616 14.3417 13.09 14.1953C12.9184 14.0488 12.709 13.9754 12.4609 13.9754C12.2264 13.9754 12.029 14.0463 11.8691 14.1884C11.7089 14.3305 11.6107 14.5277 11.5749 14.7803H13.354Z" fill="white"/>
<path d="M15.0079 14.1104C15.1591 13.8174 15.3641 13.592 15.6234 13.434C15.8828 13.2763 16.1722 13.1973 16.4925 13.1973C16.7721 13.1973 17.0169 13.2536 17.2266 13.3665C17.4362 13.4794 17.6041 13.6212 17.7304 13.7926V13.2583H18.6842V17.0057H17.7304V16.4577C17.6085 16.6337 17.4406 16.779 17.2266 16.8941C17.0123 17.0091 16.7654 17.0666 16.4858 17.0666C16.1701 17.0666 15.8824 16.9855 15.6231 16.8229C15.3637 16.6603 15.1586 16.4319 15.0077 16.1365C14.8566 15.8413 14.7812 15.5018 14.7812 15.1183C14.7814 14.7395 14.8571 14.4037 15.0079 14.1104ZM17.5954 14.5399C17.5052 14.3754 17.3832 14.2491 17.2299 14.1611C17.0766 14.0731 16.912 14.029 16.736 14.029C16.5603 14.029 16.3981 14.0719 16.2491 14.1575C16.1004 14.2433 15.9798 14.3683 15.8874 14.5328C15.795 14.6976 15.7486 14.8926 15.7486 15.1178C15.7486 15.3436 15.7948 15.5408 15.8874 15.7097C15.9798 15.8788 16.1014 16.0085 16.2528 16.0987C16.4039 16.1891 16.565 16.234 16.7364 16.234C16.9124 16.234 17.0769 16.1901 17.2302 16.1021C17.3835 16.0141 17.5052 15.8881 17.5956 15.7233C17.6858 15.5588 17.7309 15.3614 17.7309 15.1315C17.7309 14.9016 17.6855 14.7047 17.5954 14.5399Z" fill="white"/>
<path d="M19.5936 14.1104C19.7448 13.8174 19.951 13.592 20.2128 13.434C20.4743 13.2763 20.7651 13.1973 21.0854 13.1973C21.3289 13.1973 21.5612 13.2505 21.782 13.3563C22.0029 13.4623 22.1788 13.6032 22.3097 13.7789V12H23.2701V17.0057H22.3097V16.4512C22.1925 16.6362 22.028 16.7849 21.8159 16.8977C21.6038 17.0103 21.3581 17.0669 21.0786 17.0669C20.7629 17.0669 20.4743 16.9857 20.2128 16.8231C19.9512 16.6608 19.7448 16.4322 19.5936 16.1367C19.4425 15.8415 19.3672 15.502 19.3672 15.1186C19.3669 14.7396 19.4425 14.4037 19.5936 14.1104ZM22.1808 14.5399C22.0906 14.3754 21.9687 14.2491 21.8154 14.1611C21.6621 14.0731 21.4976 14.029 21.3216 14.029C21.1458 14.029 20.9835 14.0719 20.8346 14.1575C20.6859 14.2433 20.5652 14.3683 20.4728 14.5329C20.3805 14.6976 20.3341 14.8926 20.3341 15.1179C20.3341 15.3436 20.3802 15.5408 20.4728 15.7097C20.5652 15.8788 20.6868 16.0085 20.8382 16.0987C20.9893 16.1891 21.1505 16.234 21.3218 16.234C21.4978 16.234 21.6623 16.1901 21.8157 16.1021C21.969 16.0141 22.0906 15.8881 22.181 15.7233C22.2712 15.5588 22.3163 15.3614 22.3163 15.1315C22.3163 14.9016 22.2712 14.7047 22.1808 14.5399Z" fill="white"/>
<path d="M27.6532 15.416H24.9137C24.9362 15.6865 25.031 15.8986 25.198 16.0517C25.3647 16.205 25.5699 16.2818 25.8134 16.2818C26.1652 16.2818 26.4155 16.1306 26.5642 15.8286H27.5855C27.4773 16.1894 27.2698 16.486 26.9632 16.7181C26.6566 16.9504 26.28 17.0664 25.8337 17.0664C25.4729 17.0664 25.1492 16.9862 24.863 16.8263C24.5766 16.6661 24.3534 16.4397 24.1932 16.1465C24.0331 15.8535 23.9531 15.5152 23.9531 15.1317C23.9531 14.7439 24.0319 14.4037 24.1898 14.1104C24.3475 13.8174 24.5686 13.592 24.8526 13.434C25.1368 13.2763 25.4636 13.1973 25.8334 13.1973C26.1895 13.1973 26.5088 13.2741 26.7906 13.4272C27.0724 13.5805 27.2913 13.7982 27.4468 14.08C27.6023 14.3617 27.6803 14.6852 27.6803 15.0506C27.6803 15.1861 27.671 15.3077 27.6532 15.416ZM26.6995 14.7803C26.6948 14.5367 26.6071 14.3417 26.4355 14.1953C26.2639 14.0488 26.0545 13.9754 25.8064 13.9754C25.5719 13.9754 25.3744 14.0463 25.2145 14.1884C25.0544 14.3305 24.9562 14.5277 24.9203 14.7803H26.6995Z" fill="white"/>
<path d="M29.7931 13.373C29.9893 13.2604 30.2136 13.2041 30.4661 13.2041V14.1983H30.2158C29.9181 14.1983 29.6936 14.2683 29.5428 14.408C29.3916 14.5479 29.3161 14.7914 29.3161 15.1385V17.0054H28.3691V13.2582H29.3161V13.84C29.438 13.6414 29.5969 13.4859 29.7931 13.373Z" fill="white"/>
<path d="M8.82817 25.9381C9.62353 24.6906 10.9444 24.0669 12.7906 24.0669C14.6362 24.0669 15.9574 24.6909 16.753 25.9381C17.5483 27.1859 17.9464 28.9109 17.9464 31.1132C17.9464 33.3284 17.5483 35.0661 16.753 36.3265C15.9571 37.5867 14.6362 38.217 12.7906 38.217C10.9444 38.217 9.62353 37.587 8.82817 36.3265C8.03233 35.0663 7.63477 33.3284 7.63477 31.1132C7.63453 28.9109 8.03208 27.1859 8.82817 25.9381ZM15.1298 28.7357C15.0087 28.0929 14.7669 27.5676 14.4042 27.1603C14.0413 26.753 13.5033 26.5492 12.7906 26.5492C12.0774 26.5492 11.5399 26.753 11.1769 27.1603C10.8142 27.5679 10.5722 28.0931 10.4513 28.7357C10.3302 29.3787 10.2699 30.1711 10.2699 31.113C10.2699 32.0806 10.3272 32.8921 10.4418 33.5478C10.5564 34.2035 10.7982 34.7317 11.1674 35.1326C11.5365 35.5336 12.0774 35.7342 12.7906 35.7342C13.5033 35.7342 14.0444 35.5336 14.4137 35.1326C14.7827 34.7317 15.0248 34.2035 15.1393 33.5478C15.2539 32.8923 15.3112 32.0806 15.3112 31.113C15.3112 30.1711 15.2505 29.3787 15.1298 28.7357Z" fill="white"/>
<path d="M28.8315 26.3584L23.752 38.2554H21.0403L26.1581 26.6641H19.627V24.3726H28.8313L28.8315 26.3584Z" fill="white"/>
<rect x="37" width="197" height="12" fill="#041F41"/>
<mask id="path-11-inside-1_2097_1611" fill="white">
<path d="M37 36H234V51H37V36Z"/>
</mask>
<path d="M37 36H234V51H37V36Z" fill="white"/>
<path d="M37 36.2H234V35.8H37V36.2Z" fill="#BDC5D1" mask="url(#path-11-inside-1_2097_1611)"/>
<path d="M115.985 43.7765C115.985 45.0019 114.992 45.9952 113.766 45.9952H103.219C101.994 45.9952 101 45.0021 101 43.7765V43.2186C101 41.9933 101.993 41 103.219 41H113.766C114.991 41 115.985 41.993 115.985 43.2186V43.7765Z" fill="#858C97"/>
<path d="M133.97 43.7765C133.97 45.0019 132.976 45.9952 131.751 45.9952H121.203C119.978 45.9952 118.984 45.0021 118.984 43.7765V43.2186C118.984 41.9933 119.978 41 121.203 41H131.751C132.976 41 133.97 41.993 133.97 43.2186V43.7765Z" fill="#858C97"/>
<path d="M151.956 43.7765C151.956 45.0019 150.963 45.9952 149.737 45.9952H139.19C137.964 45.9952 136.971 45.0021 136.971 43.7765V43.2186C136.971 41.9933 137.964 41 139.19 41H149.737C150.962 41 151.956 41.993 151.956 43.2186V43.7765Z" fill="#858C97"/>
<path d="M169.94 43.7765C169.94 45.0019 168.946 45.9952 167.721 45.9952H157.174C155.949 45.9952 154.955 45.0021 154.955 43.7765V43.2186C154.955 41.9933 155.948 41 157.174 41H167.721C168.946 41 169.94 41.993 169.94 43.2186V43.7765Z" fill="#858C97"/>
<rect x="37" y="12" width="197" height="24" fill="white"/>
<path d="M53 20.05H80C82.1815 20.05 83.95 21.8185 83.95 24C83.95 26.1815 82.1815 27.95 80 27.95H53C50.8185 27.95 49.05 26.1815 49.05 24C49.05 21.8185 50.8185 20.05 53 20.05Z" fill="#DCE0E5" stroke="#858C97" stroke-width="0.1"/>
<path d="M83 24C83 22.3431 81.6569 21 80 21V21C78.3431 21 77 22.3431 77 24V24C77 25.6569 78.3431 27 80 27V27C81.6569 27 83 25.6569 83 24V24Z" fill="#041F41"/>
<path d="M129.569 26.5619V27.7346H125.469V20.0972H126.771V26.5617L129.569 26.5619Z" fill="#041F41"/>
<path d="M137.662 23.9997C137.662 24.5607 137.576 25.0779 137.407 25.5558C137.238 26.0315 136.998 26.4444 136.689 26.7935C136.378 27.1427 136.006 27.4139 135.57 27.6099C135.134 27.8046 134.65 27.9026 134.117 27.9026C133.588 27.9026 133.106 27.8048 132.67 27.6099C132.234 27.4139 131.86 27.1427 131.549 26.7935C131.237 26.4444 130.996 26.0315 130.825 25.5558C130.654 25.0779 130.568 24.5607 130.568 23.9997C130.568 23.4388 130.654 22.9216 130.825 22.4438C130.996 21.9681 131.237 21.5552 131.549 21.206C131.86 20.8569 132.234 20.5857 132.67 20.3896C133.106 20.195 133.588 20.0972 134.117 20.0972C134.473 20.0972 134.807 20.1418 135.119 20.2311C135.432 20.3205 135.72 20.4481 135.982 20.6112C136.243 20.7763 136.478 20.9741 136.686 21.2095C136.894 21.4435 137.07 21.7043 137.216 21.9939C137.361 22.2824 137.471 22.5954 137.547 22.9336C137.623 23.2707 137.662 23.6271 137.662 23.9997ZM136.33 23.9997C136.33 23.5803 136.278 23.2056 136.175 22.8717C136.072 22.5406 135.925 22.2563 135.735 22.0245C135.544 21.7923 135.313 21.6147 135.04 21.4914C134.767 21.368 134.46 21.306 134.118 21.306C133.775 21.306 133.468 21.3676 133.195 21.4914C132.923 21.6147 132.69 21.7923 132.498 22.0245C132.306 22.2566 132.158 22.5406 132.055 22.8717C131.952 23.2059 131.9 23.5806 131.9 23.9997C131.9 24.419 131.952 24.7936 132.055 25.1279C132.158 25.46 132.306 25.7408 132.498 25.9719C132.69 26.2041 132.922 26.3806 133.195 26.5029C133.468 26.6263 133.775 26.6891 134.118 26.6891C134.46 26.6891 134.767 26.6263 135.04 26.5029C135.313 26.3806 135.544 26.2038 135.735 25.9719C135.925 25.7411 136.072 25.46 136.175 25.1279C136.278 24.7936 136.33 24.419 136.33 23.9997Z" fill="#041F41"/>
<path d="M144.85 23.9898V27.0793C144.494 27.3647 144.116 27.5732 143.714 27.7051C143.312 27.838 142.882 27.9032 142.424 27.9032C141.852 27.9032 141.335 27.8074 140.872 27.6126C140.409 27.4197 140.014 27.1507 139.686 26.8047C139.358 26.4609 139.106 26.0479 138.928 25.568C138.751 25.0901 138.662 24.5676 138.662 24.0001C138.662 23.4255 138.747 22.8998 138.919 22.4217C139.089 21.9418 139.332 21.5299 139.647 21.186C139.962 20.8401 140.344 20.5718 140.792 20.3824C141.241 20.1921 141.745 20.0972 142.303 20.0972C142.587 20.0972 142.852 20.1216 143.099 20.1705C143.346 20.2206 143.575 20.2875 143.787 20.3737C143.998 20.4598 144.191 20.5641 144.365 20.6886C144.539 20.8119 144.699 20.9462 144.845 21.094L144.472 21.7391C144.414 21.8423 144.338 21.9043 144.244 21.9266C144.151 21.95 144.049 21.9244 143.939 21.851C143.833 21.784 143.726 21.7171 143.62 21.6501C143.513 21.583 143.394 21.5243 143.264 21.4766C143.134 21.4267 142.986 21.3852 142.823 21.3543C142.66 21.3235 142.472 21.3064 142.259 21.3064C141.914 21.3064 141.601 21.3693 141.322 21.4969C141.043 21.6245 140.805 21.8046 140.608 22.0396C140.412 22.277 140.26 22.5589 140.153 22.891C140.047 23.221 139.994 23.5926 139.994 24.0001C139.994 24.4365 140.051 24.8271 140.165 25.171C140.28 25.5136 140.441 25.8044 140.65 26.0415C140.858 26.2798 141.109 26.4609 141.402 26.5863C141.696 26.7119 142.024 26.7735 142.385 26.7735C142.644 26.7735 142.874 26.7428 143.078 26.6842C143.281 26.6236 143.48 26.5428 143.673 26.4393V25.0558H142.792C142.708 25.0558 142.643 25.0313 142.597 24.9803C142.55 24.9281 142.526 24.8665 142.526 24.7931V23.9895L144.85 23.9898Z" fill="#041F41"/>
<path d="M152.943 23.9997C152.943 24.5607 152.858 25.0779 152.688 25.5558C152.519 26.0315 152.279 26.4444 151.969 26.7935C151.659 27.1427 151.287 27.4139 150.851 27.6099C150.415 27.8046 149.931 27.9026 149.398 27.9026C148.869 27.9026 148.387 27.8048 147.951 27.6099C147.515 27.4139 147.141 27.1427 146.83 26.7935C146.518 26.4444 146.277 26.0315 146.106 25.5558C145.935 25.0779 145.85 24.5607 145.85 23.9997C145.85 23.4388 145.935 22.9216 146.106 22.4438C146.277 21.9681 146.518 21.5552 146.83 21.206C147.141 20.8569 147.515 20.5857 147.951 20.3896C148.387 20.195 148.869 20.0972 149.398 20.0972C149.754 20.0972 150.088 20.1418 150.4 20.2311C150.713 20.3205 151.001 20.4481 151.262 20.6112C151.524 20.7763 151.758 20.9741 151.967 21.2095C152.175 21.4435 152.351 21.7043 152.497 21.9939C152.642 22.2824 152.753 22.5954 152.829 22.9336C152.904 23.2707 152.943 23.6271 152.943 23.9997ZM151.611 23.9997C151.611 23.5803 151.56 23.2056 151.456 22.8717C151.353 22.5406 151.206 22.2563 151.016 22.0245C150.825 21.7923 150.594 21.6147 150.321 21.4914C150.048 21.368 149.741 21.306 149.399 21.306C149.056 21.306 148.749 21.3676 148.476 21.4914C148.204 21.6147 147.971 21.7923 147.779 22.0245C147.587 22.2566 147.439 22.5406 147.336 22.8717C147.233 23.2059 147.181 23.5806 147.181 23.9997C147.181 24.419 147.233 24.7936 147.336 25.1279C147.439 25.46 147.587 25.7408 147.779 25.9719C147.971 26.2041 148.204 26.3806 148.476 26.5029C148.749 26.6263 149.056 26.6891 149.399 26.6891C149.741 26.6891 150.048 26.6263 150.321 26.5029C150.594 26.3806 150.825 26.2038 151.016 25.9719C151.206 25.7411 151.353 25.46 151.456 25.1279C151.559 24.7936 151.611 24.419 151.611 23.9997Z" fill="#041F41"/>
<rect x="194.414" y="20" width="8" height="8" rx="4" fill="#3A86FF"/>
<rect x="204.414" y="20" width="8" height="8" rx="4" fill="#3A86FF"/>
<rect x="214.414" y="20" width="8" height="8" rx="4" fill="#3A86FF"/>
<path d="M58 5.6675C58 6.40345 57.4036 7 56.6673 7H50.3327C49.597 7 49 6.40357 49 5.6675V5.33244C49 4.59655 49.5964 4 50.3327 4H56.6673C57.403 4 58 4.59637 58 5.33244V5.6675Z" fill="white"/>
<path d="M140 5.6675C140 6.40345 139.404 7 138.667 7H132.333C131.597 7 131 6.40357 131 5.6675V5.33244C131 4.59655 131.596 4 132.333 4H138.667C139.403 4 140 4.59637 140 5.33244V5.6675Z" fill="white"/>
</g>
<defs>
<clipPath id="clip0_2097_1611">
<rect width="234" height="51" fill="white"/>
</clipPath>
</defs>
</svg>
