<svg width="234" height="51" viewBox="0 0 234 51" fill="none" xmlns="http://www.w3.org/2000/svg">
<g clip-path="url(#clip0_2097_1389)">
<rect width="234" height="51" fill="white"/>
<rect width="37" height="51" fill="#3A86FF"/>
<path d="M9.91628 12.2842V17.0056H8.96936V14.9966H6.94697V17.0056H6V12.2842H6.94697V14.2254H8.96936V12.2842H9.91628Z" fill="white"/>
<path d="M14.3075 15.416H11.568C11.5905 15.6865 11.6853 15.8986 11.8522 16.0517C12.019 16.205 12.2242 16.2818 12.4677 16.2818C12.8194 16.2818 13.0698 16.1306 13.2185 15.8286H14.2398C14.1316 16.1894 13.9241 16.486 13.6175 16.7181C13.3108 16.9504 12.9343 17.0664 12.4879 17.0664C12.1272 17.0664 11.8035 16.9862 11.5173 16.8263C11.2309 16.6661 11.0077 16.4397 10.8475 16.1465C10.6874 15.8535 10.6074 15.5152 10.6074 15.1317C10.6074 14.7439 10.6861 14.4037 10.8441 14.1104C11.0018 13.8174 11.2229 13.592 11.5069 13.434C11.7911 13.2763 12.1179 13.1973 12.4877 13.1973C12.8438 13.1973 13.1631 13.2741 13.4449 13.4272C13.7267 13.5805 13.9456 13.7982 14.1011 14.08C14.2566 14.3617 14.3346 14.6852 14.3346 15.0506C14.3346 15.1861 14.3256 15.3077 14.3075 15.416ZM13.354 14.7803C13.3494 14.5367 13.2616 14.3417 13.09 14.1953C12.9184 14.0488 12.709 13.9754 12.4609 13.9754C12.2264 13.9754 12.029 14.0463 11.8691 14.1884C11.7089 14.3305 11.6107 14.5277 11.5749 14.7803H13.354Z" fill="white"/>
<path d="M15.0079 14.1104C15.1591 13.8174 15.3641 13.592 15.6234 13.434C15.8828 13.2763 16.1722 13.1973 16.4925 13.1973C16.7721 13.1973 17.0169 13.2536 17.2266 13.3665C17.4362 13.4794 17.6041 13.6212 17.7304 13.7926V13.2583H18.6842V17.0057H17.7304V16.4577C17.6085 16.6337 17.4406 16.779 17.2266 16.8941C17.0123 17.0091 16.7654 17.0666 16.4858 17.0666C16.1701 17.0666 15.8824 16.9855 15.6231 16.8229C15.3637 16.6603 15.1586 16.4319 15.0077 16.1365C14.8566 15.8413 14.7812 15.5018 14.7812 15.1183C14.7814 14.7395 14.8571 14.4037 15.0079 14.1104ZM17.5954 14.5399C17.5052 14.3754 17.3832 14.2491 17.2299 14.1611C17.0766 14.0731 16.912 14.029 16.736 14.029C16.5603 14.029 16.3981 14.0719 16.2491 14.1575C16.1004 14.2433 15.9798 14.3683 15.8874 14.5328C15.795 14.6976 15.7486 14.8926 15.7486 15.1178C15.7486 15.3436 15.7948 15.5408 15.8874 15.7097C15.9798 15.8788 16.1014 16.0085 16.2528 16.0987C16.4039 16.1891 16.565 16.234 16.7364 16.234C16.9124 16.234 17.0769 16.1901 17.2302 16.1021C17.3835 16.0141 17.5052 15.8881 17.5956 15.7233C17.6858 15.5588 17.7309 15.3614 17.7309 15.1315C17.7309 14.9016 17.6855 14.7047 17.5954 14.5399Z" fill="white"/>
<path d="M19.5936 14.1104C19.7448 13.8174 19.951 13.592 20.2128 13.434C20.4743 13.2763 20.7651 13.1973 21.0854 13.1973C21.3289 13.1973 21.5612 13.2505 21.782 13.3563C22.0029 13.4623 22.1788 13.6032 22.3097 13.7789V12H23.2701V17.0057H22.3097V16.4512C22.1925 16.6362 22.028 16.7849 21.8159 16.8977C21.6038 17.0103 21.3581 17.0669 21.0786 17.0669C20.7629 17.0669 20.4743 16.9857 20.2128 16.8231C19.9512 16.6608 19.7448 16.4322 19.5936 16.1367C19.4425 15.8415 19.3672 15.502 19.3672 15.1186C19.3669 14.7396 19.4425 14.4037 19.5936 14.1104ZM22.1808 14.5399C22.0906 14.3754 21.9687 14.2491 21.8154 14.1611C21.6621 14.0731 21.4976 14.029 21.3216 14.029C21.1458 14.029 20.9835 14.0719 20.8346 14.1575C20.6859 14.2433 20.5652 14.3683 20.4728 14.5329C20.3805 14.6976 20.3341 14.8926 20.3341 15.1179C20.3341 15.3436 20.3802 15.5408 20.4728 15.7097C20.5652 15.8788 20.6868 16.0085 20.8382 16.0987C20.9893 16.1891 21.1505 16.234 21.3218 16.234C21.4978 16.234 21.6623 16.1901 21.8157 16.1021C21.969 16.0141 22.0906 15.8881 22.181 15.7233C22.2712 15.5588 22.3163 15.3614 22.3163 15.1315C22.3163 14.9016 22.2712 14.7047 22.1808 14.5399Z" fill="white"/>
<path d="M27.6532 15.416H24.9137C24.9362 15.6865 25.031 15.8986 25.198 16.0517C25.3647 16.205 25.5699 16.2818 25.8134 16.2818C26.1652 16.2818 26.4155 16.1306 26.5642 15.8286H27.5855C27.4773 16.1894 27.2698 16.486 26.9632 16.7181C26.6566 16.9504 26.28 17.0664 25.8337 17.0664C25.4729 17.0664 25.1492 16.9862 24.863 16.8263C24.5766 16.6661 24.3534 16.4397 24.1932 16.1465C24.0331 15.8535 23.9531 15.5152 23.9531 15.1317C23.9531 14.7439 24.0319 14.4037 24.1898 14.1104C24.3475 13.8174 24.5686 13.592 24.8526 13.434C25.1368 13.2763 25.4636 13.1973 25.8334 13.1973C26.1895 13.1973 26.5088 13.2741 26.7906 13.4272C27.0724 13.5805 27.2913 13.7982 27.4468 14.08C27.6023 14.3617 27.6803 14.6852 27.6803 15.0506C27.6803 15.1861 27.671 15.3077 27.6532 15.416ZM26.6995 14.7803C26.6948 14.5367 26.6071 14.3417 26.4355 14.1953C26.2639 14.0488 26.0545 13.9754 25.8064 13.9754C25.5719 13.9754 25.3744 14.0463 25.2145 14.1884C25.0544 14.3305 24.9562 14.5277 24.9203 14.7803H26.6995Z" fill="white"/>
<path d="M29.7931 13.373C29.9893 13.2604 30.2136 13.2041 30.4661 13.2041V14.1983H30.2158C29.9181 14.1983 29.6936 14.2683 29.5428 14.408C29.3916 14.5479 29.3161 14.7914 29.3161 15.1385V17.0054H28.3691V13.2582H29.3161V13.84C29.438 13.6414 29.5969 13.4859 29.7931 13.373Z" fill="white"/>
<path d="M11.1192 25.9381C11.9145 24.6906 13.2354 24.0669 15.0816 24.0669C16.9272 24.0669 18.2484 24.6909 19.044 25.9381C19.8393 27.1859 20.2374 28.9109 20.2374 31.1132C20.2374 33.3284 19.8393 35.0661 19.044 36.3265C18.2481 37.5867 16.9272 38.217 15.0816 38.217C13.2354 38.217 11.9145 37.5869 11.1192 36.3265C10.3233 35.0663 9.92578 33.3284 9.92578 31.1132C9.92578 28.9109 10.3233 27.1859 11.1192 25.9381ZM17.4208 28.7359C17.2997 28.0931 17.0579 27.5678 16.6952 27.1605C16.3322 26.7532 15.7943 26.5494 15.0816 26.5494C14.3683 26.5494 13.8309 26.7532 13.4679 27.1605C13.1052 27.5681 12.8632 28.0934 12.7423 28.7359C12.6211 29.3789 12.5609 30.1713 12.5609 31.1132C12.5609 32.0809 12.6182 32.8923 12.7328 33.548C12.8473 34.2037 13.0891 34.7319 13.4584 35.1329C13.8275 35.5338 14.3683 35.7344 15.0816 35.7344C15.7943 35.7344 16.3354 35.5338 16.7047 35.1329C17.0737 34.7319 17.3158 34.2037 17.4303 33.548C17.5449 32.8926 17.6022 32.0809 17.6022 31.1132C17.6022 30.1713 17.5417 29.3787 17.4208 28.7359Z" fill="white"/>
<path d="M21.9375 26.7978V24.3345H26.5397V38.2555H23.7897V26.7978H21.9375Z" fill="white"/>
<rect x="37" width="197" height="12" fill="#041F41"/>
<mask id="path-11-inside-1_2097_1389" fill="white">
<path d="M37 36H234V51H37V36Z"/>
</mask>
<path d="M37 36H234V51H37V36Z" fill="#041F41"/>
<path d="M37 36.2H234V35.8H37V36.2Z" fill="#BDC5D1" mask="url(#path-11-inside-1_2097_1389)"/>
<path d="M58 5.6675C58 6.40345 57.4036 7 56.6673 7H50.3327C49.597 7 49 6.40357 49 5.6675V5.33244C49 4.59655 49.5964 4 50.3327 4H56.6673C57.403 4 58 4.59637 58 5.33244V5.6675Z" fill="white"/>
<path d="M69 5.6675C69 6.40345 68.403 7 67.6674 7H61.3326C60.597 7 60 6.40357 60 5.6675V5.33244C60 4.59655 60.597 4 61.3326 4H67.6674C68.403 4 69 4.59637 69 5.33244V5.6675Z" fill="white"/>
<path d="M80 5.6675C80 6.40345 79.4036 7 78.6673 7H72.3327C71.5964 7 71 6.40357 71 5.6675V5.33244C71 4.59655 71.5964 4 72.3327 4H78.6673C79.403 4 80 4.59637 80 5.33244V5.6675Z" fill="white"/>
<path d="M63.985 43.7765C63.985 45.0019 62.992 45.9952 61.766 45.9952H51.219C49.994 45.9952 49 45.0021 49 43.7765V43.2186C49 41.9933 49.993 41 51.219 41H61.766C62.991 41 63.985 41.993 63.985 43.2186V43.7765Z" fill="white"/>
<path d="M81.9704 43.7765C81.9704 45.0019 80.9764 45.9952 79.7514 45.9952H69.2034C67.9784 45.9952 66.9844 45.0021 66.9844 43.7765V43.2186C66.9844 41.9933 67.9784 41 69.2034 41H79.7514C80.9764 41 81.9704 41.993 81.9704 43.2186V43.7765Z" fill="white"/>
<path d="M99.9557 43.7765C99.9557 45.0019 98.9627 45.9952 97.7367 45.9952H87.1897C85.9637 45.9952 84.9707 45.0021 84.9707 43.7765V43.2186C84.9707 41.9933 85.9637 41 87.1897 41H97.7367C98.9617 41 99.9557 41.993 99.9557 43.2186V43.7765Z" fill="white"/>
<path d="M117.94 43.7765C117.94 45.0019 116.946 45.9952 115.721 45.9952H105.174C103.949 45.9952 102.955 45.0021 102.955 43.7765V43.2186C102.955 41.9933 103.948 41 105.174 41H115.721C116.946 41 117.94 41.993 117.94 43.2186V43.7765Z" fill="white"/>
<path d="M221.985 43.7765C221.985 45.0019 220.991 45.9952 219.766 45.9952H209.219C207.994 45.9952 207 45.0021 207 43.7765V43.2186C207 41.9933 207.993 41 209.219 41H219.766C220.991 41 221.985 41.993 221.985 43.2186V43.7765Z" fill="white"/>
<path d="M202.985 43.7765C202.985 45.0019 201.991 45.9952 200.766 45.9952H190.219C188.994 45.9952 188 45.0021 188 43.7765V43.2186C188 41.9933 188.993 41 190.219 41H200.766C201.991 41 202.985 41.993 202.985 43.2186V43.7765Z" fill="white"/>
<rect x="37" y="12" width="197" height="24" fill="white"/>
<path d="M53.1003 26.5619V27.7346H49V20.0972H50.3026V26.5617L53.1003 26.5619Z" fill="#041F41"/>
<path d="M61.193 23.9997C61.193 24.5607 61.1077 25.0779 60.9385 25.5558C60.7691 26.0315 60.5293 26.4444 60.2199 26.7935C59.9096 27.1427 59.537 27.4139 59.1014 27.6099C58.6653 27.8046 58.1815 27.9026 57.6486 27.9026C57.1194 27.9026 56.6368 27.8048 56.2012 27.6099C55.7652 27.4139 55.3915 27.1427 55.0802 26.7935C54.7685 26.4444 54.5276 26.0315 54.3563 25.5558C54.1852 25.0779 54.0996 24.5607 54.0996 23.9997C54.0996 23.4388 54.1849 22.9216 54.3563 22.4438C54.5274 21.9681 54.7685 21.5552 55.0802 21.206C55.3915 20.8569 55.7652 20.5857 56.2012 20.3896C56.6368 20.195 57.1192 20.0972 57.6486 20.0972C58.0038 20.0972 58.3379 20.1418 58.6504 20.2311C58.9636 20.3205 59.251 20.4481 59.5128 20.6112C59.7739 20.7763 60.0089 20.9741 60.2168 21.2095C60.4252 21.4435 60.6016 21.7043 60.7469 21.9939C60.8924 22.2824 61.0026 22.5954 61.0787 22.9336C61.1545 23.2707 61.193 23.6271 61.193 23.9997ZM59.8614 23.9997C59.8614 23.5803 59.8097 23.2056 59.7064 22.8717C59.6032 22.5406 59.456 22.2563 59.2659 22.0245C59.0753 21.7923 58.844 21.6147 58.5712 21.4914C58.298 21.368 57.9908 21.306 57.6489 21.306C57.3064 21.306 56.999 21.3676 56.7263 21.4914C56.4538 21.6147 56.2215 21.7923 56.0291 22.0245C55.8368 22.2566 55.6896 22.5406 55.5862 22.8717C55.4829 23.2059 55.4312 23.5806 55.4312 23.9997C55.4312 24.419 55.4829 24.7936 55.5862 25.1279C55.6896 25.46 55.8371 25.7408 56.0291 25.9719C56.2215 26.2041 56.4535 26.3806 56.7263 26.5029C56.999 26.6263 57.3064 26.6891 57.6489 26.6891C57.9908 26.6891 58.2982 26.6263 58.5712 26.5029C58.844 26.3806 59.075 26.2038 59.2659 25.9719C59.4563 25.7411 59.6035 25.46 59.7064 25.1279C59.8097 24.7936 59.8614 24.419 59.8614 23.9997Z" fill="#041F41"/>
<path d="M68.3808 23.9898V27.0793C68.0256 27.3647 67.6471 27.5732 67.2451 27.7051C66.8432 27.838 66.4135 27.9032 65.955 27.9032C65.3836 27.9032 64.8661 27.8074 64.4033 27.6126C63.9399 27.4197 63.5448 27.1507 63.2174 26.8047C62.8896 26.4609 62.6368 26.0479 62.4594 25.568C62.2822 25.0901 62.1934 24.5676 62.1934 24.0001C62.1934 23.4255 62.2787 22.8998 62.4501 22.4217C62.6207 21.9418 62.8637 21.5299 63.1784 21.186C63.4931 20.8401 63.8751 20.5718 64.3233 20.3824C64.7721 20.1921 65.2759 20.0972 65.8341 20.0972C66.118 20.0972 66.3837 20.1216 66.6307 20.1705C66.8773 20.2206 67.1067 20.2875 67.318 20.3737C67.5296 20.4598 67.7224 20.5641 67.8964 20.6886C68.0705 20.8119 68.2306 20.9462 68.3759 21.094L68.0032 21.7391C67.9452 21.8423 67.8691 21.9043 67.7755 21.9266C67.6819 21.95 67.5805 21.9244 67.4706 21.851C67.3638 21.784 67.2573 21.7171 67.1511 21.6501C67.0441 21.583 66.9256 21.5243 66.7949 21.4766C66.6648 21.4267 66.5173 21.3852 66.3545 21.3543C66.1917 21.3235 66.0032 21.3064 65.7907 21.3064C65.4453 21.3064 65.1326 21.3693 64.8537 21.4969C64.5746 21.6245 64.3367 21.8046 64.1395 22.0396C63.9428 22.277 63.7912 22.5589 63.6844 22.891C63.5782 23.221 63.5248 23.5926 63.5248 24.0001C63.5248 24.4365 63.5818 24.8271 63.6966 25.171C63.8112 25.5136 63.9726 25.8044 64.181 26.0415C64.3889 26.2798 64.6399 26.4609 64.9337 26.5863C65.2274 26.7119 65.5552 26.7735 65.9167 26.7735C66.1748 26.7735 66.4054 26.7428 66.609 26.6842C66.8122 26.6236 67.0109 26.5428 67.2047 26.4393V25.0558H66.3233C66.2394 25.0558 66.1741 25.0313 66.1278 24.9803C66.081 24.9281 66.0571 24.8665 66.0571 24.7931V23.9895L68.3808 23.9898Z" fill="#041F41"/>
<path d="M76.4742 23.9997C76.4742 24.5607 76.3889 25.0779 76.2195 25.5558C76.0499 26.0315 75.8103 26.4444 75.5005 26.7935C75.1906 27.1427 74.818 27.4139 74.3819 27.6099C73.9463 27.8046 73.462 27.9026 72.9296 27.9026C72.4004 27.9026 71.9178 27.8048 71.4822 27.6099C71.0462 27.4139 70.6725 27.1427 70.3612 26.7935C70.0495 26.4444 69.8082 26.0315 69.6373 25.5558C69.4662 25.0779 69.3809 24.5607 69.3809 23.9997C69.3809 23.4388 69.4662 22.9216 69.6373 22.4438C69.8079 21.9681 70.0495 21.5552 70.3612 21.206C70.6725 20.8569 71.0462 20.5857 71.4822 20.3896C71.9178 20.195 72.4004 20.0972 72.9296 20.0972C73.2848 20.0972 73.6189 20.1418 73.9317 20.2311C74.2446 20.3205 74.532 20.4481 74.7936 20.6112C75.0551 20.7763 75.2896 20.9741 75.4978 21.2095C75.7062 21.4435 75.8827 21.7043 76.0282 21.9939C76.1734 22.2824 76.2839 22.5954 76.3599 22.9336C76.4357 23.2707 76.4742 23.6271 76.4742 23.9997ZM75.1421 23.9997C75.1421 23.5803 75.091 23.2056 74.9876 22.8717C74.8843 22.5406 74.7373 22.2563 74.5471 22.0245C74.3565 21.7923 74.1252 21.6147 73.8525 21.4914C73.5792 21.368 73.2718 21.306 72.9299 21.306C72.5874 21.306 72.28 21.3676 72.0075 21.4914C71.7348 21.6147 71.5027 21.7923 71.3104 22.0245C71.1183 22.2566 70.9704 22.5406 70.8675 22.8717C70.7641 23.2059 70.7122 23.5806 70.7122 23.9997C70.7122 24.419 70.7639 24.7936 70.8675 25.1279C70.9704 25.46 71.1183 25.7408 71.3104 25.9719C71.5027 26.2041 71.7348 26.3806 72.0075 26.5029C72.28 26.6263 72.5876 26.6891 72.9299 26.6891C73.2718 26.6891 73.5792 26.6263 73.8525 26.5029C74.125 26.3806 74.3563 26.2038 74.5471 25.9719C74.7373 25.7411 74.8843 25.46 74.9876 25.1279C75.0907 24.7936 75.1421 24.419 75.1421 23.9997Z" fill="#041F41"/>
<path d="M90.7363 20.05H179.736C181.918 20.05 183.686 21.8185 183.686 24C183.686 26.1815 181.918 27.95 179.736 27.95H90.7363C88.5548 27.95 86.7863 26.1815 86.7863 24C86.7863 21.8185 88.5548 20.05 90.7363 20.05Z" fill="#DCE0E5" stroke="#858C97" stroke-width="0.1"/>
<path d="M182.793 24C182.793 22.3431 181.45 21 179.793 21V21C178.136 21 176.793 22.3431 176.793 24V24C176.793 25.6569 178.136 27 179.793 27V27C181.45 27 182.793 25.6569 182.793 24V24Z" fill="#041F41"/>
<rect x="194" y="20" width="19" height="8" rx="2" fill="#3A86FF"/>
<rect x="214.414" y="20" width="8" height="8" rx="4" fill="#3A86FF"/>
<rect x="215" y="4" width="4" height="4" rx="2" fill="#3A86FF"/>
<rect x="209" y="4" width="4" height="4" rx="2" fill="#3A86FF"/>
<rect x="203" y="4" width="4" height="4" rx="2" fill="#3A86FF"/>
<rect x="197" y="4" width="4" height="4" rx="2" fill="#3A86FF"/>
</g>
<defs>
<clipPath id="clip0_2097_1389">
<rect width="234" height="51" fill="white"/>
</clipPath>
</defs>
</svg>
