<svg width="234" height="51" viewBox="0 0 234 51" fill="none" xmlns="http://www.w3.org/2000/svg">
<g clip-path="url(#clip0_2097_1722)">
<rect width="234" height="51" fill="white"/>
<rect width="37" height="51" fill="#3A86FF"/>
<path d="M9.91628 12.2939V17.0153H8.96936V15.0063H6.94697V17.0153H6V12.2939H6.94697V14.2351H8.96936V12.2939H9.91628Z" fill="white"/>
<path d="M14.3075 15.4257H11.568C11.5905 15.6962 11.6853 15.9083 11.8522 16.0614C12.019 16.2147 12.2242 16.2915 12.4677 16.2915C12.8194 16.2915 13.0698 16.1403 13.2185 15.8383H14.2398C14.1316 16.1991 13.9241 16.4957 13.6175 16.7278C13.3108 16.9601 12.9343 17.0761 12.4879 17.0761C12.1272 17.0761 11.8035 16.9959 11.5173 16.836C11.2309 16.6758 11.0077 16.4494 10.8475 16.1562C10.6874 15.8632 10.6074 15.5249 10.6074 15.1414C10.6074 14.7536 10.6861 14.4134 10.8441 14.1201C11.0018 13.8271 11.2229 13.6017 11.5069 13.4437C11.7911 13.286 12.1179 13.207 12.4877 13.207C12.8438 13.207 13.1631 13.2838 13.4449 13.4369C13.7267 13.5902 13.9456 13.8079 14.1011 14.0897C14.2566 14.3714 14.3346 14.6949 14.3346 15.0603C14.3346 15.1958 14.3256 15.3174 14.3075 15.4257ZM13.354 14.79C13.3494 14.5464 13.2616 14.3514 13.09 14.205C12.9184 14.0585 12.709 13.9851 12.4609 13.9851C12.2264 13.9851 12.029 14.056 11.8691 14.1981C11.7089 14.3402 11.6107 14.5374 11.5749 14.79H13.354Z" fill="white"/>
<path d="M15.0079 14.1201C15.1591 13.8271 15.3641 13.6017 15.6234 13.4437C15.8828 13.286 16.1722 13.207 16.4925 13.207C16.7721 13.207 17.0169 13.2633 17.2266 13.3762C17.4362 13.4891 17.6041 13.6309 17.7304 13.8023V13.268H18.6842V17.0154H17.7304V16.4674C17.6085 16.6434 17.4406 16.7887 17.2266 16.9038C17.0123 17.0188 16.7654 17.0763 16.4858 17.0763C16.1701 17.0763 15.8824 16.9952 15.6231 16.8326C15.3637 16.67 15.1586 16.4416 15.0077 16.1462C14.8566 15.851 14.7812 15.5115 14.7812 15.128C14.7814 14.7492 14.8571 14.4134 15.0079 14.1201ZM17.5954 14.5496C17.5052 14.3851 17.3832 14.2588 17.2299 14.1708C17.0766 14.0828 16.912 14.0387 16.736 14.0387C16.5603 14.0387 16.3981 14.0816 16.2491 14.1672C16.1004 14.253 15.9798 14.378 15.8874 14.5425C15.795 14.7073 15.7486 14.9023 15.7486 15.1275C15.7486 15.3533 15.7948 15.5505 15.8874 15.7194C15.9798 15.8885 16.1014 16.0182 16.2528 16.1084C16.4039 16.1988 16.565 16.2437 16.7364 16.2437C16.9124 16.2437 17.0769 16.1998 17.2302 16.1118C17.3835 16.0238 17.5052 15.8978 17.5956 15.733C17.6858 15.5685 17.7309 15.3711 17.7309 15.1412C17.7309 14.9113 17.6855 14.7144 17.5954 14.5496Z" fill="white"/>
<path d="M19.5936 14.1201C19.7448 13.8271 19.951 13.6017 20.2128 13.4437C20.4743 13.286 20.7651 13.207 21.0854 13.207C21.3289 13.207 21.5612 13.2602 21.782 13.366C22.0029 13.472 22.1788 13.6129 22.3097 13.7886V12.0098H23.2701V17.0154H22.3097V16.4609C22.1925 16.6459 22.028 16.7946 21.8159 16.9074C21.6038 17.02 21.3581 17.0766 21.0786 17.0766C20.7629 17.0766 20.4743 16.9954 20.2128 16.8328C19.9512 16.6705 19.7448 16.4419 19.5936 16.1464C19.4425 15.8512 19.3672 15.5117 19.3672 15.1283C19.3669 14.7493 19.4425 14.4134 19.5936 14.1201ZM22.1808 14.5496C22.0906 14.3851 21.9687 14.2588 21.8154 14.1708C21.6621 14.0828 21.4976 14.0387 21.3216 14.0387C21.1458 14.0387 20.9835 14.0816 20.8346 14.1672C20.6859 14.253 20.5652 14.378 20.4728 14.5426C20.3805 14.7073 20.3341 14.9023 20.3341 15.1276C20.3341 15.3533 20.3802 15.5505 20.4728 15.7194C20.5652 15.8885 20.6868 16.0182 20.8382 16.1084C20.9893 16.1988 21.1505 16.2437 21.3218 16.2437C21.4978 16.2437 21.6623 16.1998 21.8157 16.1118C21.969 16.0238 22.0906 15.8978 22.181 15.733C22.2712 15.5685 22.3163 15.3711 22.3163 15.1412C22.3163 14.9113 22.2712 14.7144 22.1808 14.5496Z" fill="white"/>
<path d="M27.6532 15.4257H24.9137C24.9362 15.6962 25.031 15.9083 25.198 16.0614C25.3647 16.2147 25.5699 16.2915 25.8134 16.2915C26.1652 16.2915 26.4155 16.1403 26.5642 15.8383H27.5855C27.4773 16.1991 27.2698 16.4957 26.9632 16.7278C26.6566 16.9601 26.28 17.0761 25.8337 17.0761C25.4729 17.0761 25.1492 16.9959 24.863 16.836C24.5766 16.6758 24.3534 16.4494 24.1932 16.1562C24.0331 15.8632 23.9531 15.5249 23.9531 15.1414C23.9531 14.7536 24.0319 14.4134 24.1898 14.1201C24.3475 13.8271 24.5686 13.6017 24.8526 13.4437C25.1368 13.286 25.4636 13.207 25.8334 13.207C26.1895 13.207 26.5088 13.2838 26.7906 13.4369C27.0724 13.5902 27.2913 13.8079 27.4468 14.0897C27.6023 14.3714 27.6803 14.6949 27.6803 15.0603C27.6803 15.1958 27.671 15.3174 27.6532 15.4257ZM26.6995 14.79C26.6948 14.5464 26.6071 14.3514 26.4355 14.205C26.2639 14.0585 26.0545 13.9851 25.8064 13.9851C25.5719 13.9851 25.3744 14.056 25.2145 14.1981C25.0544 14.3402 24.9562 14.5374 24.9203 14.79H26.6995Z" fill="white"/>
<path d="M29.7931 13.3828C29.9893 13.2702 30.2136 13.2139 30.4661 13.2139V14.2081H30.2158C29.9181 14.2081 29.6936 14.2781 29.5428 14.4178C29.3916 14.5577 29.3161 14.8012 29.3161 15.1483V17.0152H28.3691V13.268H29.3161V13.8498C29.438 13.6512 29.5969 13.4957 29.7931 13.3828Z" fill="white"/>
<path d="M17.5723 25.9479C18.3676 24.7004 19.6885 24.0767 21.5347 24.0767C23.3803 24.0767 24.7015 24.7007 25.4971 25.9479C26.2924 27.1957 26.6905 28.9207 26.6905 31.123C26.6905 33.3382 26.2924 35.0759 25.4971 36.3363C24.7012 37.5965 23.3803 38.2268 21.5347 38.2268C19.6885 38.2268 18.3676 37.5967 17.5723 36.3363C16.7764 35.0761 16.3789 33.3382 16.3789 31.123C16.3789 28.9207 16.7764 27.1957 17.5723 25.9479ZM23.8739 28.7457C23.7528 28.1029 23.511 27.5776 23.1483 27.1703C22.7853 26.763 22.2474 26.5592 21.5347 26.5592C20.8214 26.5592 20.284 26.763 19.921 27.1703C19.5583 27.5779 19.3163 28.1032 19.1954 28.7457C19.0742 29.3887 19.014 30.1811 19.014 31.123C19.014 32.0907 19.0713 32.9021 19.1859 33.5578C19.3004 34.2135 19.5422 34.7417 19.9115 35.1427C20.2806 35.5436 20.8214 35.7442 21.5347 35.7442C22.2474 35.7442 22.7885 35.5436 23.1578 35.1427C23.5268 34.7417 23.7689 34.2135 23.8834 33.5578C23.998 32.9024 24.0553 32.0907 24.0553 31.123C24.0553 30.1811 23.9948 29.3885 23.8739 28.7457Z" fill="white"/>
<path d="M9.77734 26.7885V24.3252H14.3795V38.2462H11.6295V26.7885H9.77734Z" fill="white"/>
<rect x="37" width="197" height="12" fill="#041F41"/>
<mask id="path-11-inside-1_2097_1722" fill="white">
<path d="M37 36H234V51H37V36Z"/>
</mask>
<path d="M37 36H234V51H37V36Z" fill="white"/>
<path d="M37 36.2H234V35.8H37V36.2Z" fill="#BDC5D1" mask="url(#path-11-inside-1_2097_1722)"/>
<path d="M115.985 43.7765C115.985 45.0019 114.992 45.9952 113.766 45.9952H103.219C101.994 45.9952 101 45.0021 101 43.7765V43.2186C101 41.9933 101.993 41 103.219 41H113.766C114.991 41 115.985 41.993 115.985 43.2186V43.7765Z" fill="#858C97"/>
<path d="M133.97 43.7765C133.97 45.0019 132.976 45.9952 131.751 45.9952H121.203C119.978 45.9952 118.984 45.0021 118.984 43.7765V43.2186C118.984 41.9933 119.978 41 121.203 41H131.751C132.976 41 133.97 41.993 133.97 43.2186V43.7765Z" fill="#858C97"/>
<path d="M151.956 43.7765C151.956 45.0019 150.963 45.9952 149.737 45.9952H139.19C137.964 45.9952 136.971 45.0021 136.971 43.7765V43.2186C136.971 41.9933 137.964 41 139.19 41H149.737C150.962 41 151.956 41.993 151.956 43.2186V43.7765Z" fill="#858C97"/>
<path d="M169.94 43.7765C169.94 45.0019 168.946 45.9952 167.721 45.9952H157.174C155.949 45.9952 154.955 45.0021 154.955 43.7765V43.2186C154.955 41.9933 155.948 41 157.174 41H167.721C168.946 41 169.94 41.993 169.94 43.2186V43.7765Z" fill="#858C97"/>
<rect x="37" y="12" width="197" height="24" fill="white"/>
<path d="M63.985 24.2789C63.985 25.5043 62.992 26.4976 61.766 26.4976H51.219C49.994 26.4976 49 25.5045 49 24.2789V23.721C49 22.4957 49.993 21.5024 51.219 21.5024H61.766C62.991 21.5024 63.985 22.4954 63.985 23.721V24.2789Z" fill="#858C97"/>
<path d="M81.9704 24.2789C81.9704 25.5043 80.9764 26.4976 79.7514 26.4976H69.2034C67.9784 26.4976 66.9844 25.5045 66.9844 24.2789V23.721C66.9844 22.4957 67.9784 21.5024 69.2034 21.5024H79.7514C80.9764 21.5024 81.9704 22.4954 81.9704 23.721V24.2789Z" fill="#858C97"/>
<path d="M128.555 26.5619V27.7346H124.455V20.0972H125.758V26.5617L128.555 26.5619Z" fill="#041F41"/>
<path d="M136.648 23.9997C136.648 24.5607 136.563 25.0779 136.394 25.5558C136.224 26.0315 135.984 26.4444 135.675 26.7935C135.365 27.1427 134.992 27.4139 134.556 27.6099C134.12 27.8046 133.637 27.9026 133.104 27.9026C132.574 27.9026 132.092 27.8048 131.656 27.6099C131.22 27.4139 130.847 27.1427 130.535 26.7935C130.224 26.4444 129.983 26.0315 129.811 25.5558C129.64 25.0779 129.555 24.5607 129.555 23.9997C129.555 23.4388 129.64 22.9216 129.811 22.4438C129.982 21.9681 130.224 21.5552 130.535 21.206C130.847 20.8569 131.22 20.5857 131.656 20.3896C132.092 20.195 132.574 20.0972 133.104 20.0972C133.459 20.0972 133.793 20.1418 134.105 20.2311C134.419 20.3205 134.706 20.4481 134.968 20.6112C135.229 20.7763 135.464 20.9741 135.672 21.2095C135.88 21.4435 136.057 21.7043 136.202 21.9939C136.347 22.2824 136.458 22.5954 136.534 22.9336C136.61 23.2707 136.648 23.6271 136.648 23.9997ZM135.316 23.9997C135.316 23.5803 135.265 23.2056 135.161 22.8717C135.058 22.5406 134.911 22.2563 134.721 22.0245C134.53 21.7923 134.299 21.6147 134.026 21.4914C133.753 21.368 133.446 21.306 133.104 21.306C132.761 21.306 132.454 21.3676 132.181 21.4914C131.909 21.6147 131.677 21.7923 131.484 22.0245C131.292 22.2566 131.145 22.5406 131.041 22.8717C130.938 23.2059 130.886 23.5806 130.886 23.9997C130.886 24.419 130.938 24.7936 131.041 25.1279C131.145 25.46 131.292 25.7408 131.484 25.9719C131.677 26.2041 131.909 26.3806 132.181 26.5029C132.454 26.6263 132.761 26.6891 133.104 26.6891C133.446 26.6891 133.753 26.6263 134.026 26.5029C134.299 26.3806 134.53 26.2038 134.721 25.9719C134.911 25.7411 135.059 25.46 135.161 25.1279C135.265 24.7936 135.316 24.419 135.316 23.9997Z" fill="#041F41"/>
<path d="M143.836 23.9898V27.0793C143.481 27.3647 143.102 27.5732 142.7 27.7051C142.298 27.838 141.869 27.9032 141.41 27.9032C140.839 27.9032 140.321 27.8074 139.858 27.6126C139.395 27.4197 139 27.1507 138.672 26.8047C138.345 26.4609 138.092 26.0479 137.914 25.568C137.737 25.0901 137.648 24.5676 137.648 24.0001C137.648 23.4255 137.734 22.8998 137.905 22.4217C138.076 21.9418 138.319 21.5299 138.633 21.186C138.948 20.8401 139.33 20.5718 139.778 20.3824C140.227 20.1921 140.731 20.0972 141.289 20.0972C141.573 20.0972 141.839 20.1216 142.086 20.1705C142.332 20.2206 142.562 20.2875 142.773 20.3737C142.985 20.4598 143.177 20.5641 143.351 20.6886C143.526 20.8119 143.686 20.9462 143.831 21.094L143.458 21.7391C143.4 21.8423 143.324 21.9043 143.231 21.9266C143.137 21.95 143.036 21.9244 142.926 21.851C142.819 21.784 142.712 21.7171 142.606 21.6501C142.499 21.583 142.381 21.5243 142.25 21.4766C142.12 21.4267 141.972 21.3852 141.81 21.3543C141.647 21.3235 141.458 21.3064 141.246 21.3064C140.9 21.3064 140.588 21.3693 140.309 21.4969C140.03 21.6245 139.792 21.8046 139.595 22.0396C139.398 22.277 139.246 22.5589 139.139 22.891C139.033 23.221 138.98 23.5926 138.98 24.0001C138.98 24.4365 139.037 24.8271 139.152 25.171C139.266 25.5136 139.428 25.8044 139.636 26.0415C139.844 26.2798 140.095 26.4609 140.389 26.5863C140.682 26.7119 141.01 26.7735 141.372 26.7735C141.63 26.7735 141.86 26.7428 142.064 26.6842C142.267 26.6236 142.466 26.5428 142.66 26.4393V25.0558H141.778C141.694 25.0558 141.629 25.0313 141.583 24.9803C141.536 24.9281 141.512 24.8665 141.512 24.7931V23.9895L143.836 23.9898Z" fill="#041F41"/>
<path d="M151.929 23.9997C151.929 24.5607 151.844 25.0779 151.675 25.5558C151.505 26.0315 151.265 26.4444 150.956 26.7935C150.646 27.1427 150.273 27.4139 149.837 27.6099C149.401 27.8046 148.917 27.9026 148.385 27.9026C147.855 27.9026 147.373 27.8048 146.937 27.6099C146.501 27.4139 146.128 27.1427 145.816 26.7935C145.505 26.4444 145.263 26.0315 145.092 25.5558C144.921 25.0779 144.836 24.5607 144.836 23.9997C144.836 23.4388 144.921 22.9216 145.092 22.4438C145.263 21.9681 145.505 21.5552 145.816 21.206C146.128 20.8569 146.501 20.5857 146.937 20.3896C147.373 20.195 147.855 20.0972 148.385 20.0972C148.74 20.0972 149.074 20.1418 149.387 20.2311C149.7 20.3205 149.987 20.4481 150.249 20.6112C150.51 20.7763 150.745 20.9741 150.953 21.2095C151.161 21.4435 151.338 21.7043 151.483 21.9939C151.628 22.2824 151.739 22.5954 151.815 22.9336C151.891 23.2707 151.929 23.6271 151.929 23.9997ZM150.597 23.9997C150.597 23.5803 150.546 23.2056 150.443 22.8717C150.339 22.5406 150.192 22.2563 150.002 22.0245C149.812 21.7923 149.58 21.6147 149.308 21.4914C149.034 21.368 148.727 21.306 148.385 21.306C148.042 21.306 147.735 21.3676 147.463 21.4914C147.19 21.6147 146.958 21.7923 146.765 22.0245C146.573 22.2566 146.425 22.5406 146.323 22.8717C146.219 23.2059 146.167 23.5806 146.167 23.9997C146.167 24.419 146.219 24.7936 146.323 25.1279C146.425 25.46 146.573 25.7408 146.765 25.9719C146.958 26.2041 147.19 26.3806 147.463 26.5029C147.735 26.6263 148.043 26.6891 148.385 26.6891C148.727 26.6891 149.034 26.6263 149.308 26.5029C149.58 26.3806 149.811 26.2038 150.002 25.9719C150.192 25.7411 150.339 25.46 150.443 25.1279C150.546 24.7936 150.597 24.419 150.597 23.9997Z" fill="#041F41"/>
<rect x="194.414" y="20" width="8" height="8" rx="4" fill="#3A86FF"/>
<rect x="204.414" y="20" width="8" height="8" rx="4" fill="#3A86FF"/>
<rect x="214.414" y="20" width="8" height="8" rx="4" fill="#3A86FF"/>
<path d="M62 5.6675C62 6.40345 61.4036 7 60.6673 7H54.3327C53.597 7 53 6.40357 53 5.6675V5.33244C53 4.59655 53.5964 4 54.3327 4H60.6673C61.403 4 62 4.59637 62 5.33244V5.6675Z" fill="white"/>
<rect x="49" y="4" width="3" height="3" rx="1.5" fill="#D9D9D9"/>
<path d="M79 5.6675C79 6.40345 78.4036 7 77.6673 7H71.3327C70.597 7 70 6.40357 70 5.6675V5.33244C70 4.59655 70.5964 4 71.3327 4H77.6673C78.403 4 79 4.59637 79 5.33244V5.6675Z" fill="white"/>
<rect x="66" y="4" width="3" height="3" rx="1.5" fill="#D9D9D9"/>
</g>
<defs>
<clipPath id="clip0_2097_1722">
<rect width="234" height="51" fill="white"/>
</clipPath>
</defs>
</svg>
