<svg width="234" height="51" viewBox="0 0 234 51" fill="none" xmlns="http://www.w3.org/2000/svg">
<g clip-path="url(#clip0_2097_1500)">
<rect width="234" height="51" fill="white"/>
<rect width="37" height="51" fill="#3A86FF"/>
<path d="M9.91628 12.2847V17.0061H8.96936V14.9971H6.94697V17.0061H6V12.2847H6.94697V14.2259H8.96936V12.2847H9.91628Z" fill="white"/>
<path d="M14.3075 15.4165H11.568C11.5905 15.687 11.6853 15.8991 11.8522 16.0522C12.019 16.2055 12.2242 16.2823 12.4677 16.2823C12.8194 16.2823 13.0698 16.1311 13.2185 15.8291H14.2398C14.1316 16.1899 13.9241 16.4865 13.6175 16.7186C13.3108 16.9509 12.9343 17.0669 12.4879 17.0669C12.1272 17.0669 11.8035 16.9867 11.5173 16.8268C11.2309 16.6666 11.0077 16.4402 10.8475 16.147C10.6874 15.854 10.6074 15.5157 10.6074 15.1322C10.6074 14.7444 10.6861 14.4042 10.8441 14.1109C11.0018 13.8179 11.2229 13.5925 11.5069 13.4345C11.7911 13.2768 12.1179 13.1978 12.4877 13.1978C12.8438 13.1978 13.1631 13.2746 13.4449 13.4277C13.7267 13.581 13.9456 13.7987 14.1011 14.0805C14.2566 14.3622 14.3346 14.6857 14.3346 15.0511C14.3346 15.1866 14.3256 15.3082 14.3075 15.4165ZM13.354 14.7808C13.3494 14.5372 13.2616 14.3422 13.09 14.1958C12.9184 14.0493 12.709 13.9759 12.4609 13.9759C12.2264 13.9759 12.029 14.0468 11.8691 14.1889C11.7089 14.331 11.6107 14.5282 11.5749 14.7808H13.354Z" fill="white"/>
<path d="M15.0079 14.1109C15.1591 13.8179 15.3641 13.5925 15.6234 13.4345C15.8828 13.2768 16.1722 13.1978 16.4925 13.1978C16.7721 13.1978 17.0169 13.2541 17.2266 13.367C17.4362 13.4799 17.6041 13.6217 17.7304 13.7931V13.2588H18.6842V17.0062H17.7304V16.4582C17.6085 16.6342 17.4406 16.7795 17.2266 16.8946C17.0123 17.0096 16.7654 17.0671 16.4858 17.0671C16.1701 17.0671 15.8824 16.986 15.6231 16.8234C15.3637 16.6608 15.1586 16.4324 15.0077 16.137C14.8566 15.8418 14.7812 15.5023 14.7812 15.1188C14.7814 14.74 14.8571 14.4042 15.0079 14.1109ZM17.5954 14.5404C17.5052 14.3759 17.3832 14.2496 17.2299 14.1616C17.0766 14.0736 16.912 14.0295 16.736 14.0295C16.5603 14.0295 16.3981 14.0724 16.2491 14.158C16.1004 14.2438 15.9798 14.3688 15.8874 14.5333C15.795 14.6981 15.7486 14.8931 15.7486 15.1183C15.7486 15.3441 15.7948 15.5413 15.8874 15.7102C15.9798 15.8793 16.1014 16.009 16.2528 16.0992C16.4039 16.1896 16.565 16.2345 16.7364 16.2345C16.9124 16.2345 17.0769 16.1906 17.2302 16.1026C17.3835 16.0146 17.5052 15.8886 17.5956 15.7238C17.6858 15.5593 17.7309 15.3619 17.7309 15.132C17.7309 14.9021 17.6855 14.7052 17.5954 14.5404Z" fill="white"/>
<path d="M19.5936 14.1108C19.7448 13.8178 19.951 13.5924 20.2128 13.4344C20.4743 13.2767 20.7651 13.1977 21.0854 13.1977C21.3289 13.1977 21.5612 13.2509 21.782 13.3567C22.0029 13.4627 22.1788 13.6036 22.3097 13.7793V12.0005H23.2701V17.0061H22.3097V16.4516C22.1925 16.6366 22.028 16.7853 21.8159 16.8981C21.6038 17.0107 21.3581 17.0673 21.0786 17.0673C20.7629 17.0673 20.4743 16.9861 20.2128 16.8235C19.9512 16.6612 19.7448 16.4326 19.5936 16.1371C19.4425 15.8419 19.3672 15.5024 19.3672 15.119C19.3669 14.74 19.4425 14.4041 19.5936 14.1108ZM22.1808 14.5403C22.0906 14.3758 21.9687 14.2495 21.8154 14.1615C21.6621 14.0735 21.4976 14.0294 21.3216 14.0294C21.1458 14.0294 20.9835 14.0723 20.8346 14.1579C20.6859 14.2437 20.5652 14.3687 20.4728 14.5333C20.3805 14.698 20.3341 14.893 20.3341 15.1183C20.3341 15.344 20.3802 15.5412 20.4728 15.7101C20.5652 15.8792 20.6868 16.0089 20.8382 16.0991C20.9893 16.1895 21.1505 16.2344 21.3218 16.2344C21.4978 16.2344 21.6623 16.1905 21.8157 16.1025C21.969 16.0145 22.0906 15.8885 22.181 15.7237C22.2712 15.5592 22.3163 15.3618 22.3163 15.1319C22.3163 14.902 22.2712 14.7051 22.1808 14.5403Z" fill="white"/>
<path d="M27.6532 15.4165H24.9137C24.9362 15.687 25.031 15.8991 25.198 16.0522C25.3647 16.2055 25.5699 16.2823 25.8134 16.2823C26.1652 16.2823 26.4155 16.1311 26.5642 15.8291H27.5855C27.4773 16.1899 27.2698 16.4865 26.9632 16.7186C26.6566 16.9509 26.28 17.0669 25.8337 17.0669C25.4729 17.0669 25.1492 16.9867 24.863 16.8268C24.5766 16.6666 24.3534 16.4402 24.1932 16.147C24.0331 15.854 23.9531 15.5157 23.9531 15.1322C23.9531 14.7444 24.0319 14.4042 24.1898 14.1109C24.3475 13.8179 24.5686 13.5925 24.8526 13.4345C25.1368 13.2768 25.4636 13.1978 25.8334 13.1978C26.1895 13.1978 26.5088 13.2746 26.7906 13.4277C27.0724 13.581 27.2913 13.7987 27.4468 14.0805C27.6023 14.3622 27.6803 14.6857 27.6803 15.0511C27.6803 15.1866 27.671 15.3082 27.6532 15.4165ZM26.6995 14.7808C26.6948 14.5372 26.6071 14.3422 26.4355 14.1958C26.2639 14.0493 26.0545 13.9759 25.8064 13.9759C25.5719 13.9759 25.3744 14.0468 25.2145 14.1889C25.0544 14.331 24.9562 14.5282 24.9203 14.7808H26.6995Z" fill="white"/>
<path d="M29.7931 13.3735C29.9893 13.2609 30.2136 13.2046 30.4661 13.2046V14.1988H30.2158C29.9181 14.1988 29.6936 14.2688 29.5428 14.4085C29.3916 14.5484 29.3161 14.7919 29.3161 15.139V17.0059H28.3691V13.2587H29.3161V13.8405C29.438 13.6419 29.5969 13.4864 29.7931 13.3735Z" fill="white"/>
<path d="M7.79692 25.9387C8.59227 24.6912 9.91319 24.0674 11.7593 24.0674C13.605 24.0674 14.9261 24.6914 15.7217 25.9387C16.5171 27.1864 16.9151 28.9115 16.9151 31.1137C16.9151 33.3289 16.5171 35.0666 15.7217 36.3271C14.9259 37.5873 13.605 38.2176 11.7593 38.2176C9.91319 38.2176 8.59227 37.5875 7.79692 36.3271C7.00107 35.0669 6.60352 33.3289 6.60352 31.1137C6.60352 28.9115 7.00107 27.1864 7.79692 25.9387ZM14.0986 28.7362C13.9775 28.0934 13.7357 27.5682 13.373 27.1609C13.01 26.7535 12.4721 26.5498 11.7593 26.5498C11.0461 26.5498 10.5086 26.7535 10.1457 27.1609C9.78299 27.5684 9.54095 28.0937 9.42005 28.7362C9.29891 29.3792 9.2387 30.1717 9.2387 31.1135C9.2387 32.0812 9.29598 32.8926 9.41054 33.5483C9.52511 34.204 9.76691 34.7322 10.1362 35.1332C10.5052 35.5342 11.0461 35.7348 11.7593 35.7348C12.4721 35.7348 13.0132 35.5342 13.3825 35.1332C13.7515 34.7322 13.9935 34.204 14.1081 33.5483C14.2227 32.8929 14.2799 32.0812 14.2799 31.1135C14.2799 30.1717 14.2195 29.3792 14.0986 28.7362Z" fill="white"/>
<path d="M18.8262 35.5436V33.443L25.0706 24.5059H28.1832V33.2136H29.8637V35.5434H28.1832V38.2551H25.5098V35.5434L18.8262 35.5436ZM25.6816 27.3707L21.767 33.2141H25.6816V27.3707Z" fill="white"/>
<rect x="37" width="197" height="12" fill="#041F41"/>
<mask id="path-11-inside-1_2097_1500" fill="white">
<path d="M37 36H234V51H37V36Z"/>
</mask>
<path d="M37 36H234V51H37V36Z" fill="white"/>
<path d="M37 36.2H234V35.8H37V36.2Z" fill="#BDC5D1" mask="url(#path-11-inside-1_2097_1500)"/>
<path d="M63.985 43.7765C63.985 45.0019 62.992 45.9952 61.766 45.9952H51.219C49.994 45.9952 49 45.0021 49 43.7765V43.2186C49 41.9933 49.993 41 51.219 41H61.766C62.991 41 63.985 41.993 63.985 43.2186V43.7765Z" fill="#858C97"/>
<path d="M81.9704 43.7765C81.9704 45.0019 80.9764 45.9952 79.7514 45.9952H69.2034C67.9784 45.9952 66.9844 45.0021 66.9844 43.7765V43.2186C66.9844 41.9933 67.9784 41 69.2034 41H79.7514C80.9764 41 81.9704 41.993 81.9704 43.2186V43.7765Z" fill="#858C97"/>
<path d="M99.9557 43.7765C99.9557 45.0019 98.9627 45.9952 97.7367 45.9952H87.1897C85.9637 45.9952 84.9707 45.0021 84.9707 43.7765V43.2186C84.9707 41.9933 85.9637 41 87.1897 41H97.7367C98.9617 41 99.9557 41.993 99.9557 43.2186V43.7765Z" fill="#858C97"/>
<path d="M117.94 43.7765C117.94 45.0019 116.946 45.9952 115.721 45.9952H105.174C103.949 45.9952 102.955 45.0021 102.955 43.7765V43.2186C102.955 41.9933 103.948 41 105.174 41H115.721C116.946 41 117.94 41.993 117.94 43.2186V43.7765Z" fill="#858C97"/>
<rect x="37" y="12" width="197" height="24" fill="white"/>
<path d="M53.1003 26.5619V27.7346H49V20.0972H50.3026V26.5617L53.1003 26.5619Z" fill="#041F41"/>
<path d="M61.193 23.9997C61.193 24.5607 61.1077 25.0779 60.9385 25.5558C60.7691 26.0315 60.5293 26.4444 60.2199 26.7935C59.9096 27.1427 59.537 27.4139 59.1014 27.6099C58.6653 27.8046 58.1815 27.9026 57.6486 27.9026C57.1194 27.9026 56.6368 27.8048 56.2012 27.6099C55.7652 27.4139 55.3915 27.1427 55.0802 26.7935C54.7685 26.4444 54.5276 26.0315 54.3563 25.5558C54.1852 25.0779 54.0996 24.5607 54.0996 23.9997C54.0996 23.4388 54.1849 22.9216 54.3563 22.4438C54.5274 21.9681 54.7685 21.5552 55.0802 21.206C55.3915 20.8569 55.7652 20.5857 56.2012 20.3896C56.6368 20.195 57.1192 20.0972 57.6486 20.0972C58.0038 20.0972 58.3379 20.1418 58.6504 20.2311C58.9636 20.3205 59.251 20.4481 59.5128 20.6112C59.7739 20.7763 60.0089 20.9741 60.2168 21.2095C60.4252 21.4435 60.6016 21.7043 60.7469 21.9939C60.8924 22.2824 61.0026 22.5954 61.0787 22.9336C61.1545 23.2707 61.193 23.6271 61.193 23.9997ZM59.8614 23.9997C59.8614 23.5803 59.8097 23.2056 59.7064 22.8717C59.6032 22.5406 59.456 22.2563 59.2659 22.0245C59.0753 21.7923 58.844 21.6147 58.5712 21.4914C58.298 21.368 57.9908 21.306 57.6489 21.306C57.3064 21.306 56.999 21.3676 56.7263 21.4914C56.4538 21.6147 56.2215 21.7923 56.0291 22.0245C55.8368 22.2566 55.6896 22.5406 55.5862 22.8717C55.4829 23.2059 55.4312 23.5806 55.4312 23.9997C55.4312 24.419 55.4829 24.7936 55.5862 25.1279C55.6896 25.46 55.8371 25.7408 56.0291 25.9719C56.2215 26.2041 56.4535 26.3806 56.7263 26.5029C56.999 26.6263 57.3064 26.6891 57.6489 26.6891C57.9908 26.6891 58.2982 26.6263 58.5712 26.5029C58.844 26.3806 59.075 26.2038 59.2659 25.9719C59.4563 25.7411 59.6035 25.46 59.7064 25.1279C59.8097 24.7936 59.8614 24.419 59.8614 23.9997Z" fill="#041F41"/>
<path d="M68.3808 23.9898V27.0793C68.0256 27.3647 67.6471 27.5732 67.2451 27.7051C66.8432 27.838 66.4135 27.9032 65.955 27.9032C65.3836 27.9032 64.8661 27.8074 64.4033 27.6126C63.9399 27.4197 63.5448 27.1507 63.2174 26.8047C62.8896 26.4609 62.6368 26.0479 62.4594 25.568C62.2822 25.0901 62.1934 24.5676 62.1934 24.0001C62.1934 23.4255 62.2787 22.8998 62.4501 22.4217C62.6207 21.9418 62.8637 21.5299 63.1784 21.186C63.4931 20.8401 63.8751 20.5718 64.3233 20.3824C64.7721 20.1921 65.2759 20.0972 65.8341 20.0972C66.118 20.0972 66.3837 20.1216 66.6307 20.1705C66.8773 20.2206 67.1067 20.2875 67.318 20.3737C67.5296 20.4598 67.7224 20.5641 67.8964 20.6886C68.0705 20.8119 68.2306 20.9462 68.3759 21.094L68.0032 21.7391C67.9452 21.8423 67.8691 21.9043 67.7755 21.9266C67.6819 21.95 67.5805 21.9244 67.4706 21.851C67.3638 21.784 67.2573 21.7171 67.1511 21.6501C67.0441 21.583 66.9256 21.5243 66.7949 21.4766C66.6648 21.4267 66.5173 21.3852 66.3545 21.3543C66.1917 21.3235 66.0032 21.3064 65.7907 21.3064C65.4453 21.3064 65.1326 21.3693 64.8537 21.4969C64.5746 21.6245 64.3367 21.8046 64.1395 22.0396C63.9428 22.277 63.7912 22.5589 63.6844 22.891C63.5782 23.221 63.5248 23.5926 63.5248 24.0001C63.5248 24.4365 63.5818 24.8271 63.6966 25.171C63.8112 25.5136 63.9726 25.8044 64.181 26.0415C64.3889 26.2798 64.6399 26.4609 64.9337 26.5863C65.2274 26.7119 65.5552 26.7735 65.9167 26.7735C66.1748 26.7735 66.4054 26.7428 66.609 26.6842C66.8122 26.6236 67.0109 26.5428 67.2047 26.4393V25.0558H66.3233C66.2394 25.0558 66.1741 25.0313 66.1278 24.9803C66.081 24.9281 66.0571 24.8665 66.0571 24.7931V23.9895L68.3808 23.9898Z" fill="#041F41"/>
<path d="M76.4742 23.9997C76.4742 24.5607 76.3889 25.0779 76.2195 25.5558C76.0499 26.0315 75.8103 26.4444 75.5005 26.7935C75.1906 27.1427 74.818 27.4139 74.3819 27.6099C73.9463 27.8046 73.462 27.9026 72.9296 27.9026C72.4004 27.9026 71.9178 27.8048 71.4822 27.6099C71.0462 27.4139 70.6725 27.1427 70.3612 26.7935C70.0495 26.4444 69.8082 26.0315 69.6373 25.5558C69.4662 25.0779 69.3809 24.5607 69.3809 23.9997C69.3809 23.4388 69.4662 22.9216 69.6373 22.4438C69.8079 21.9681 70.0495 21.5552 70.3612 21.206C70.6725 20.8569 71.0462 20.5857 71.4822 20.3896C71.9178 20.195 72.4004 20.0972 72.9296 20.0972C73.2848 20.0972 73.6189 20.1418 73.9317 20.2311C74.2446 20.3205 74.532 20.4481 74.7936 20.6112C75.0551 20.7763 75.2896 20.9741 75.4978 21.2095C75.7062 21.4435 75.8827 21.7043 76.0282 21.9939C76.1734 22.2824 76.2839 22.5954 76.3599 22.9336C76.4357 23.2707 76.4742 23.6271 76.4742 23.9997ZM75.1421 23.9997C75.1421 23.5803 75.091 23.2056 74.9876 22.8717C74.8843 22.5406 74.7373 22.2563 74.5471 22.0245C74.3565 21.7923 74.1252 21.6147 73.8525 21.4914C73.5792 21.368 73.2718 21.306 72.9299 21.306C72.5874 21.306 72.28 21.3676 72.0075 21.4914C71.7348 21.6147 71.5027 21.7923 71.3104 22.0245C71.1183 22.2566 70.9704 22.5406 70.8675 22.8717C70.7641 23.2059 70.7122 23.5806 70.7122 23.9997C70.7122 24.419 70.7639 24.7936 70.8675 25.1279C70.9704 25.46 71.1183 25.7408 71.3104 25.9719C71.5027 26.2041 71.7348 26.3806 72.0075 26.5029C72.28 26.6263 72.5876 26.6891 72.9299 26.6891C73.2718 26.6891 73.5792 26.6263 73.8525 26.5029C74.125 26.3806 74.3563 26.2038 74.5471 25.9719C74.7373 25.7411 74.8843 25.46 74.9876 25.1279C75.0907 24.7936 75.1421 24.419 75.1421 23.9997Z" fill="#041F41"/>
<rect x="194.414" y="20" width="8" height="8" rx="4" fill="#3A86FF"/>
<rect x="204.414" y="20" width="8" height="8" rx="4" fill="#3A86FF"/>
<rect x="214.414" y="20" width="8" height="8" rx="4" fill="#3A86FF"/>
<path d="M62 5.6675C62 6.40345 61.4036 7 60.6673 7H54.3327C53.597 7 53 6.40357 53 5.6675V5.33244C53 4.59655 53.5964 4 54.3327 4H60.6673C61.403 4 62 4.59637 62 5.33244V5.6675Z" fill="white"/>
<rect x="49" y="4" width="3" height="3" rx="1.5" fill="#D9D9D9"/>
<path d="M79 5.6675C79 6.40345 78.4036 7 77.6673 7H71.3327C70.597 7 70 6.40357 70 5.6675V5.33244C70 4.59655 70.5964 4 71.3327 4H77.6673C78.403 4 79 4.59637 79 5.33244V5.6675Z" fill="white"/>
<rect x="66" y="4" width="3" height="3" rx="1.5" fill="#D9D9D9"/>
<path d="M222 5.6675C222 6.40345 221.404 7 220.667 7H214.333C213.597 7 213 6.40357 213 5.6675V5.33244C213 4.59655 213.596 4 214.333 4H220.667C221.403 4 222 4.59637 222 5.33244V5.6675Z" fill="white"/>
<rect x="209" y="4" width="3" height="3" rx="1.5" fill="#D9D9D9"/>
</g>
<defs>
<clipPath id="clip0_2097_1500">
<rect width="234" height="51" fill="white"/>
</clipPath>
</defs>
</svg>
