<svg width="234" height="51" viewBox="0 0 234 51" fill="none" xmlns="http://www.w3.org/2000/svg">
<g clip-path="url(#clip0_2097_1648)">
<rect width="234" height="51" fill="white"/>
<rect width="37" height="51" fill="#3A86FF"/>
<path d="M9.91628 12.1313V16.8527H8.96936V14.8437H6.94697V16.8527H6V12.1313H6.94697V14.0725H8.96936V12.1313H9.91628Z" fill="white"/>
<path d="M14.3075 15.2631H11.568C11.5905 15.5336 11.6853 15.7457 11.8522 15.8988C12.019 16.0521 12.2242 16.1289 12.4677 16.1289C12.8194 16.1289 13.0698 15.9777 13.2185 15.6757H14.2398C14.1316 16.0365 13.9241 16.3331 13.6175 16.5652C13.3108 16.7975 12.9343 16.9135 12.4879 16.9135C12.1272 16.9135 11.8035 16.8333 11.5173 16.6734C11.2309 16.5132 11.0077 16.2868 10.8475 15.9936C10.6874 15.7006 10.6074 15.3623 10.6074 14.9788C10.6074 14.591 10.6861 14.2508 10.8441 13.9575C11.0018 13.6645 11.2229 13.4391 11.5069 13.2811C11.7911 13.1234 12.1179 13.0444 12.4877 13.0444C12.8438 13.0444 13.1631 13.1212 13.4449 13.2743C13.7267 13.4276 13.9456 13.6453 14.1011 13.9271C14.2566 14.2088 14.3346 14.5323 14.3346 14.8977C14.3346 15.0332 14.3256 15.1548 14.3075 15.2631ZM13.354 14.6274C13.3494 14.3838 13.2616 14.1888 13.09 14.0424C12.9184 13.8959 12.709 13.8225 12.4609 13.8225C12.2264 13.8225 12.029 13.8934 11.8691 14.0355C11.7089 14.1776 11.6107 14.3748 11.5749 14.6274H13.354Z" fill="white"/>
<path d="M15.0079 13.9575C15.1591 13.6645 15.3641 13.4391 15.6234 13.2811C15.8828 13.1234 16.1722 13.0444 16.4925 13.0444C16.7721 13.0444 17.0169 13.1007 17.2266 13.2136C17.4362 13.3265 17.6041 13.4683 17.7304 13.6397V13.1054H18.6842V16.8528H17.7304V16.3048C17.6085 16.4808 17.4406 16.6261 17.2266 16.7412C17.0123 16.8562 16.7654 16.9137 16.4858 16.9137C16.1701 16.9137 15.8824 16.8326 15.6231 16.67C15.3637 16.5074 15.1586 16.279 15.0077 15.9836C14.8566 15.6884 14.7812 15.3489 14.7812 14.9654C14.7814 14.5866 14.8571 14.2508 15.0079 13.9575ZM17.5954 14.387C17.5052 14.2225 17.3832 14.0962 17.2299 14.0082C17.0766 13.9202 16.912 13.8761 16.736 13.8761C16.5603 13.8761 16.3981 13.919 16.2491 14.0046C16.1004 14.0904 15.9798 14.2154 15.8874 14.3799C15.795 14.5447 15.7486 14.7397 15.7486 14.9649C15.7486 15.1907 15.7948 15.3879 15.8874 15.5568C15.9798 15.7259 16.1014 15.8556 16.2528 15.9458C16.4039 16.0362 16.565 16.0811 16.7364 16.0811C16.9124 16.0811 17.0769 16.0372 17.2302 15.9492C17.3835 15.8612 17.5052 15.7352 17.5956 15.5704C17.6858 15.4059 17.7309 15.2085 17.7309 14.9786C17.7309 14.7487 17.6855 14.5518 17.5954 14.387Z" fill="white"/>
<path d="M19.5936 13.9575C19.7448 13.6645 19.951 13.4391 20.2128 13.2811C20.4743 13.1234 20.7651 13.0444 21.0854 13.0444C21.3289 13.0444 21.5612 13.0976 21.782 13.2034C22.0029 13.3094 22.1788 13.4503 22.3097 13.626V11.8472H23.2701V16.8528H22.3097V16.2983C22.1925 16.4833 22.028 16.632 21.8159 16.7448C21.6038 16.8574 21.3581 16.914 21.0786 16.914C20.7629 16.914 20.4743 16.8328 20.2128 16.6702C19.9512 16.5079 19.7448 16.2793 19.5936 15.9838C19.4425 15.6886 19.3672 15.3491 19.3672 14.9657C19.3669 14.5867 19.4425 14.2508 19.5936 13.9575ZM22.1808 14.387C22.0906 14.2225 21.9687 14.0962 21.8154 14.0082C21.6621 13.9202 21.4976 13.8761 21.3216 13.8761C21.1458 13.8761 20.9835 13.919 20.8346 14.0046C20.6859 14.0904 20.5652 14.2154 20.4728 14.38C20.3805 14.5447 20.3341 14.7397 20.3341 14.965C20.3341 15.1907 20.3802 15.3879 20.4728 15.5568C20.5652 15.7259 20.6868 15.8556 20.8382 15.9458C20.9893 16.0362 21.1505 16.0811 21.3218 16.0811C21.4978 16.0811 21.6623 16.0372 21.8157 15.9492C21.969 15.8612 22.0906 15.7352 22.181 15.5704C22.2712 15.4059 22.3163 15.2085 22.3163 14.9786C22.3163 14.7487 22.2712 14.5518 22.1808 14.387Z" fill="white"/>
<path d="M27.6532 15.2631H24.9137C24.9362 15.5336 25.031 15.7457 25.198 15.8988C25.3647 16.0521 25.5699 16.1289 25.8134 16.1289C26.1652 16.1289 26.4155 15.9777 26.5642 15.6757H27.5855C27.4773 16.0365 27.2698 16.3331 26.9632 16.5652C26.6566 16.7975 26.28 16.9135 25.8337 16.9135C25.4729 16.9135 25.1492 16.8333 24.863 16.6734C24.5766 16.5132 24.3534 16.2868 24.1932 15.9936C24.0331 15.7006 23.9531 15.3623 23.9531 14.9788C23.9531 14.591 24.0319 14.2508 24.1898 13.9575C24.3475 13.6645 24.5686 13.4391 24.8526 13.2811C25.1368 13.1234 25.4636 13.0444 25.8334 13.0444C26.1895 13.0444 26.5088 13.1212 26.7906 13.2743C27.0724 13.4276 27.2913 13.6453 27.4468 13.9271C27.6023 14.2088 27.6803 14.5323 27.6803 14.8977C27.6803 15.0332 27.671 15.1548 27.6532 15.2631ZM26.6995 14.6274C26.6948 14.3838 26.6071 14.1888 26.4355 14.0424C26.2639 13.8959 26.0545 13.8225 25.8064 13.8225C25.5719 13.8225 25.3744 13.8934 25.2145 14.0355C25.0544 14.1776 24.9562 14.3748 24.9203 14.6274H26.6995Z" fill="white"/>
<path d="M29.7931 13.2202C29.9893 13.1076 30.2136 13.0513 30.4661 13.0513V14.0455H30.2158C29.9181 14.0455 29.6936 14.1155 29.5428 14.2552C29.3916 14.3951 29.3161 14.6386 29.3161 14.9857V16.8526H28.3691V13.1054H29.3161V13.6872C29.438 13.4886 29.5969 13.3331 29.7931 13.2202Z" fill="white"/>
<path d="M8.17973 25.7854C8.97509 24.5378 10.2959 23.9141 12.1421 23.9141C13.9878 23.9141 15.3089 24.5381 16.1045 25.7854C16.8999 27.0331 17.2979 28.7581 17.2979 30.9604C17.2979 33.1756 16.8999 34.9133 16.1045 36.1737C15.3087 37.4339 13.9878 38.0643 12.1421 38.0643C10.2959 38.0643 8.97509 37.4342 8.17973 36.1737C7.38389 34.9136 6.98633 33.1756 6.98633 30.9604C6.98633 28.7581 7.38389 27.0334 8.17973 25.7854ZM14.4814 28.5831C14.3602 27.9404 14.1184 27.4151 13.7557 27.0078C13.3928 26.6005 12.8548 26.3967 12.1421 26.3967C11.4289 26.3967 10.8914 26.6005 10.5285 27.0078C10.1658 27.4153 9.92373 27.9406 9.80283 28.5831C9.68172 29.2261 9.62151 30.0186 9.62151 30.9604C9.62151 31.9281 9.67879 32.7395 9.79335 33.3952C9.90793 34.0509 10.1497 34.5791 10.519 34.9801C10.888 35.3811 11.4289 35.5817 12.1421 35.5817C12.8548 35.5817 13.3959 35.3811 13.7652 34.9801C14.1343 34.5791 14.3763 34.0509 14.4909 33.3952C14.6054 32.7398 14.6627 31.9281 14.6627 30.9604C14.6627 30.0186 14.6023 29.2261 14.4814 28.5831Z" fill="white"/>
<path d="M19.7429 27.6569C19.7429 26.9695 19.9179 26.3426 20.2682 25.7759C20.6182 25.2096 21.1467 24.7575 21.8531 24.4201C22.5595 24.083 23.4218 23.9141 24.4405 23.9141C25.4589 23.9141 26.3215 24.083 27.0281 24.4201C27.7345 24.7577 28.2627 25.2096 28.613 25.7759C28.963 26.3426 29.138 26.9693 29.138 27.6569C29.138 28.3572 28.9662 28.9717 28.6225 29.4996C28.2788 30.0281 27.8203 30.4385 27.2475 30.7313C27.9476 31.0367 28.495 31.4825 28.8896 32.068C29.284 32.6537 29.4817 33.3475 29.4817 34.1496C29.4817 35.0154 29.2621 35.7698 28.8229 36.4126C28.3836 37.0556 27.782 37.5487 27.0181 37.8924C26.2545 38.2361 25.395 38.408 24.4402 38.408C23.4855 38.408 22.6292 38.2361 21.8718 37.8924C21.1143 37.5487 20.5161 37.0554 20.0769 36.4126C19.6376 35.7698 19.418 35.0157 19.418 34.1496C19.418 33.3475 19.6152 32.6506 20.0101 32.0585C20.4045 31.4664 20.9519 31.0243 21.6522 30.7313C20.3796 30.0695 19.7429 29.0445 19.7429 27.6569ZM22.6743 32.45C22.2224 32.8195 21.9964 33.3475 21.9964 34.0348C21.9964 34.6715 22.216 35.1902 22.6553 35.5912C23.0945 35.9924 23.6895 36.1928 24.4407 36.1928C25.1917 36.1928 25.7838 35.9895 26.2167 35.5817C26.6493 35.1744 26.866 34.6588 26.866 34.0348C26.866 33.3601 26.643 32.8351 26.1977 32.4595C25.7519 32.0841 25.1666 31.8962 24.4407 31.8962C23.7148 31.8962 23.1259 32.0809 22.6743 32.45ZM25.9778 26.5875C25.6022 26.2439 25.0898 26.072 24.4405 26.072C23.8038 26.072 23.2978 26.2439 22.9224 26.5875C22.5465 26.9312 22.3591 27.4214 22.3591 28.0578C22.3591 28.6309 22.5529 29.0889 22.9414 29.4328C23.3297 29.7768 23.8294 29.9486 24.4405 29.9486C25.0516 29.9486 25.5544 29.7736 25.949 29.4233C26.3437 29.0733 26.5411 28.6116 26.5411 28.0388C26.5411 27.4151 26.3532 26.9312 25.9778 26.5875Z" fill="white"/>
<rect x="37" width="197" height="12" fill="#041F41"/>
<mask id="path-11-inside-1_2097_1648" fill="white">
<path d="M37 12H234V36H37V12Z"/>
</mask>
<path d="M37 12H234V36H37V12Z" fill="white"/>
<path d="M234 35.9H37V36.1H234V35.9Z" fill="black" mask="url(#path-11-inside-1_2097_1648)"/>
<path d="M53.1003 27.5619V28.7346H49V21.0972H50.3026V27.5617L53.1003 27.5619Z" fill="#041F41"/>
<path d="M61.193 24.9997C61.193 25.5607 61.1077 26.0779 60.9385 26.5558C60.7691 27.0315 60.5293 27.4444 60.2199 27.7935C59.9096 28.1427 59.537 28.4139 59.1014 28.6099C58.6653 28.8046 58.1815 28.9026 57.6486 28.9026C57.1194 28.9026 56.6368 28.8048 56.2012 28.6099C55.7652 28.4139 55.3915 28.1427 55.0802 27.7935C54.7685 27.4444 54.5276 27.0315 54.3563 26.5558C54.1852 26.0779 54.0996 25.5607 54.0996 24.9997C54.0996 24.4388 54.1849 23.9216 54.3563 23.4438C54.5274 22.9681 54.7685 22.5552 55.0802 22.206C55.3915 21.8569 55.7652 21.5857 56.2012 21.3896C56.6368 21.195 57.1192 21.0972 57.6486 21.0972C58.0038 21.0972 58.3379 21.1418 58.6504 21.2311C58.9636 21.3205 59.251 21.4481 59.5128 21.6112C59.7739 21.7763 60.0089 21.9741 60.2168 22.2095C60.4252 22.4435 60.6016 22.7043 60.7469 22.9939C60.8924 23.2824 61.0026 23.5954 61.0787 23.9336C61.1545 24.2707 61.193 24.6271 61.193 24.9997ZM59.8614 24.9997C59.8614 24.5803 59.8097 24.2056 59.7064 23.8717C59.6032 23.5406 59.456 23.2563 59.2659 23.0245C59.0753 22.7923 58.844 22.6147 58.5712 22.4914C58.298 22.368 57.9908 22.306 57.6489 22.306C57.3064 22.306 56.999 22.3676 56.7263 22.4914C56.4538 22.6147 56.2215 22.7923 56.0291 23.0245C55.8368 23.2566 55.6896 23.5406 55.5862 23.8717C55.4829 24.2059 55.4312 24.5806 55.4312 24.9997C55.4312 25.419 55.4829 25.7936 55.5862 26.1279C55.6896 26.46 55.8371 26.7408 56.0291 26.9719C56.2215 27.2041 56.4535 27.3806 56.7263 27.5029C56.999 27.6263 57.3064 27.6891 57.6489 27.6891C57.9908 27.6891 58.2982 27.6263 58.5712 27.5029C58.844 27.3806 59.075 27.2038 59.2659 26.9719C59.4563 26.7411 59.6035 26.46 59.7064 26.1279C59.8097 25.7936 59.8614 25.419 59.8614 24.9997Z" fill="#041F41"/>
<path d="M68.3808 24.9898V28.0793C68.0256 28.3647 67.6471 28.5732 67.2451 28.7051C66.8432 28.838 66.4135 28.9032 65.955 28.9032C65.3836 28.9032 64.8661 28.8074 64.4033 28.6126C63.9399 28.4197 63.5448 28.1507 63.2174 27.8047C62.8896 27.4609 62.6368 27.0479 62.4594 26.568C62.2822 26.0901 62.1934 25.5676 62.1934 25.0001C62.1934 24.4255 62.2787 23.8998 62.4501 23.4217C62.6207 22.9418 62.8637 22.5299 63.1784 22.186C63.4931 21.8401 63.8751 21.5718 64.3233 21.3824C64.7721 21.1921 65.2759 21.0972 65.8341 21.0972C66.118 21.0972 66.3837 21.1216 66.6307 21.1705C66.8773 21.2206 67.1067 21.2875 67.318 21.3737C67.5296 21.4598 67.7224 21.5641 67.8964 21.6886C68.0705 21.8119 68.2306 21.9462 68.3759 22.094L68.0032 22.7391C67.9452 22.8423 67.8691 22.9043 67.7755 22.9266C67.6819 22.95 67.5805 22.9244 67.4706 22.851C67.3638 22.784 67.2573 22.7171 67.1511 22.6501C67.0441 22.583 66.9256 22.5243 66.7949 22.4766C66.6648 22.4267 66.5173 22.3852 66.3545 22.3543C66.1917 22.3235 66.0032 22.3064 65.7907 22.3064C65.4453 22.3064 65.1326 22.3693 64.8537 22.4969C64.5746 22.6245 64.3367 22.8046 64.1395 23.0396C63.9428 23.277 63.7912 23.5589 63.6844 23.891C63.5782 24.221 63.5248 24.5926 63.5248 25.0001C63.5248 25.4365 63.5818 25.8271 63.6966 26.171C63.8112 26.5136 63.9726 26.8044 64.181 27.0415C64.3889 27.2798 64.6399 27.4609 64.9337 27.5863C65.2274 27.7119 65.5552 27.7735 65.9167 27.7735C66.1748 27.7735 66.4054 27.7428 66.609 27.6842C66.8122 27.6236 67.0109 27.5428 67.2047 27.4393V26.0558H66.3233C66.2394 26.0558 66.1741 26.0313 66.1278 25.9803C66.081 25.9281 66.0571 25.8665 66.0571 25.7931V24.9895L68.3808 24.9898Z" fill="#041F41"/>
<path d="M76.4742 24.9997C76.4742 25.5607 76.3889 26.0779 76.2195 26.5558C76.0499 27.0315 75.8103 27.4444 75.5005 27.7935C75.1906 28.1427 74.818 28.4139 74.3819 28.6099C73.9463 28.8046 73.462 28.9026 72.9296 28.9026C72.4004 28.9026 71.9178 28.8048 71.4822 28.6099C71.0462 28.4139 70.6725 28.1427 70.3612 27.7935C70.0495 27.4444 69.8082 27.0315 69.6373 26.5558C69.4662 26.0779 69.3809 25.5607 69.3809 24.9997C69.3809 24.4388 69.4662 23.9216 69.6373 23.4438C69.8079 22.9681 70.0495 22.5552 70.3612 22.206C70.6725 21.8569 71.0462 21.5857 71.4822 21.3896C71.9178 21.195 72.4004 21.0972 72.9296 21.0972C73.2848 21.0972 73.6189 21.1418 73.9317 21.2311C74.2446 21.3205 74.532 21.4481 74.7936 21.6112C75.0551 21.7763 75.2896 21.9741 75.4978 22.2095C75.7062 22.4435 75.8827 22.7043 76.0282 22.9939C76.1734 23.2824 76.2839 23.5954 76.3599 23.9336C76.4357 24.2707 76.4742 24.6271 76.4742 24.9997ZM75.1421 24.9997C75.1421 24.5803 75.091 24.2056 74.9876 23.8717C74.8843 23.5406 74.7373 23.2563 74.5471 23.0245C74.3565 22.7923 74.1252 22.6147 73.8525 22.4914C73.5792 22.368 73.2718 22.306 72.9299 22.306C72.5874 22.306 72.28 22.3676 72.0075 22.4914C71.7348 22.6147 71.5027 22.7923 71.3104 23.0245C71.1183 23.2566 70.9704 23.5406 70.8675 23.8717C70.7641 24.2059 70.7122 24.5806 70.7122 24.9997C70.7122 25.419 70.7639 25.7936 70.8675 26.1279C70.9704 26.46 71.1183 26.7408 71.3104 26.9719C71.5027 27.2041 71.7348 27.3806 72.0075 27.5029C72.28 27.6263 72.5876 27.6891 72.9299 27.6891C73.2718 27.6891 73.5792 27.6263 73.8525 27.5029C74.125 27.3806 74.3563 27.2038 74.5471 26.9719C74.7373 26.7411 74.8843 26.46 74.9876 26.1279C75.0907 25.7936 75.1421 25.419 75.1421 24.9997Z" fill="#041F41"/>
<path d="M95.4596 25.2789C95.4596 26.5043 94.4666 27.4976 93.2406 27.4976H82.6936C81.4686 27.4976 80.4746 26.5045 80.4746 25.2789V24.721C80.4746 23.4957 81.4676 22.5024 82.6936 22.5024H93.2406C94.4656 22.5024 95.4596 23.4954 95.4596 24.721V25.2789Z" fill="#858C97"/>
<path d="M113.445 25.2789C113.445 26.5043 112.451 27.4976 111.226 27.4976H100.678C99.453 27.4976 98.459 26.5045 98.459 25.2789V24.721C98.459 23.4957 99.453 22.5024 100.678 22.5024H111.226C112.451 22.5024 113.445 23.4954 113.445 24.721V25.2789Z" fill="#858C97"/>
<path d="M131.43 25.2789C131.43 26.5043 130.437 27.4976 129.211 27.4976H118.664C117.438 27.4976 116.445 26.5045 116.445 25.2789V24.721C116.445 23.4957 117.438 22.5024 118.664 22.5024H129.211C130.436 22.5024 131.43 23.4954 131.43 24.721V25.2789Z" fill="#858C97"/>
<path d="M149.415 25.2789C149.415 26.5043 148.421 27.4976 147.196 27.4976H136.649C135.424 27.4976 134.43 26.5045 134.43 25.2789V24.721C134.43 23.4957 135.423 22.5024 136.649 22.5024H147.196C148.421 22.5024 149.415 23.4954 149.415 24.721V25.2789Z" fill="#858C97"/>
<path d="M177.414 21.05H198.414C200.596 21.05 202.364 22.8185 202.364 25C202.364 27.1815 200.596 28.95 198.414 28.95H177.414C175.233 28.95 173.464 27.1815 173.464 25C173.464 22.8185 175.233 21.05 177.414 21.05Z" fill="#DCE0E5" stroke="#858C97" stroke-width="0.1"/>
<path d="M201 25C201 23.3431 199.657 22 198 22V22C196.343 22 195 23.3431 195 25V25C195 26.6569 196.343 28 198 28V28C199.657 28 201 26.6569 201 25V25Z" fill="#041F41"/>
<rect x="204.414" y="21" width="8" height="8" rx="4" fill="#3A86FF"/>
<rect x="214.414" y="21" width="8" height="8" rx="4" fill="#3A86FF"/>
<path d="M62 5.6675C62 6.40345 61.4036 7 60.6673 7H54.3327C53.597 7 53 6.40357 53 5.6675V5.33244C53 4.59655 53.5964 4 54.3327 4H60.6673C61.403 4 62 4.59637 62 5.33244V5.6675Z" fill="white"/>
<rect x="49" y="4" width="3" height="3" rx="1.5" fill="#D9D9D9"/>
<path d="M79 5.6675C79 6.40345 78.4036 7 77.6673 7H71.3327C70.597 7 70 6.40357 70 5.6675V5.33244C70 4.59655 70.5964 4 71.3327 4H77.6673C78.403 4 79 4.59637 79 5.33244V5.6675Z" fill="white"/>
<rect x="66" y="4" width="3" height="3" rx="1.5" fill="#D9D9D9"/>
</g>
<defs>
<clipPath id="clip0_2097_1648">
<rect width="234" height="51" fill="white"/>
</clipPath>
</defs>
</svg>
