<svg width="234" height="51" viewBox="0 0 234 51" fill="none" xmlns="http://www.w3.org/2000/svg">
<g clip-path="url(#clip0_2097_1574)">
<rect width="234" height="51" fill="white"/>
<rect width="37" height="51" fill="#3A86FF"/>
<path d="M9.91628 12.2363V16.9577H8.96936V14.9487H6.94697V16.9577H6V12.2363H6.94697V14.1775H8.96936V12.2363H9.91628Z" fill="white"/>
<path d="M14.3075 15.3681H11.568C11.5905 15.6386 11.6853 15.8507 11.8522 16.0038C12.019 16.1571 12.2242 16.2339 12.4677 16.2339C12.8194 16.2339 13.0698 16.0827 13.2185 15.7807H14.2398C14.1316 16.1415 13.9241 16.4381 13.6175 16.6702C13.3108 16.9025 12.9343 17.0185 12.4879 17.0185C12.1272 17.0185 11.8035 16.9383 11.5173 16.7784C11.2309 16.6182 11.0077 16.3918 10.8475 16.0986C10.6874 15.8056 10.6074 15.4673 10.6074 15.0838C10.6074 14.696 10.6861 14.3558 10.8441 14.0625C11.0018 13.7695 11.2229 13.5441 11.5069 13.3861C11.7911 13.2284 12.1179 13.1494 12.4877 13.1494C12.8438 13.1494 13.1631 13.2262 13.4449 13.3793C13.7267 13.5326 13.9456 13.7503 14.1011 14.0321C14.2566 14.3138 14.3346 14.6373 14.3346 15.0027C14.3346 15.1382 14.3256 15.2598 14.3075 15.3681ZM13.354 14.7324C13.3494 14.4888 13.2616 14.2938 13.09 14.1474C12.9184 14.0009 12.709 13.9275 12.4609 13.9275C12.2264 13.9275 12.029 13.9984 11.8691 14.1405C11.7089 14.2826 11.6107 14.4798 11.5749 14.7324H13.354Z" fill="white"/>
<path d="M15.0079 14.0625C15.1591 13.7695 15.3641 13.5441 15.6234 13.3861C15.8828 13.2284 16.1722 13.1494 16.4925 13.1494C16.7721 13.1494 17.0169 13.2057 17.2266 13.3186C17.4362 13.4315 17.6041 13.5733 17.7304 13.7447V13.2104H18.6842V16.9578H17.7304V16.4098C17.6085 16.5858 17.4406 16.7311 17.2266 16.8462C17.0123 16.9612 16.7654 17.0187 16.4858 17.0187C16.1701 17.0187 15.8824 16.9376 15.6231 16.775C15.3637 16.6124 15.1586 16.384 15.0077 16.0886C14.8566 15.7934 14.7812 15.4539 14.7812 15.0704C14.7814 14.6916 14.8571 14.3558 15.0079 14.0625ZM17.5954 14.492C17.5052 14.3275 17.3832 14.2012 17.2299 14.1132C17.0766 14.0252 16.912 13.9811 16.736 13.9811C16.5603 13.9811 16.3981 14.024 16.2491 14.1096C16.1004 14.1954 15.9798 14.3204 15.8874 14.4849C15.795 14.6497 15.7486 14.8447 15.7486 15.0699C15.7486 15.2957 15.7948 15.4929 15.8874 15.6618C15.9798 15.8309 16.1014 15.9606 16.2528 16.0508C16.4039 16.1412 16.565 16.1861 16.7364 16.1861C16.9124 16.1861 17.0769 16.1422 17.2302 16.0542C17.3835 15.9662 17.5052 15.8402 17.5956 15.6754C17.6858 15.5109 17.7309 15.3135 17.7309 15.0836C17.7309 14.8537 17.6855 14.6568 17.5954 14.492Z" fill="white"/>
<path d="M19.5936 14.0625C19.7448 13.7695 19.951 13.5441 20.2128 13.3861C20.4743 13.2284 20.7651 13.1494 21.0854 13.1494C21.3289 13.1494 21.5612 13.2026 21.782 13.3084C22.0029 13.4144 22.1788 13.5553 22.3097 13.731V11.9521H23.2701V16.9578H22.3097V16.4033C22.1925 16.5883 22.028 16.737 21.8159 16.8498C21.6038 16.9624 21.3581 17.019 21.0786 17.019C20.7629 17.019 20.4743 16.9378 20.2128 16.7752C19.9512 16.6129 19.7448 16.3843 19.5936 16.0888C19.4425 15.7936 19.3672 15.4541 19.3672 15.0707C19.3669 14.6917 19.4425 14.3558 19.5936 14.0625ZM22.1808 14.492C22.0906 14.3275 21.9687 14.2012 21.8154 14.1132C21.6621 14.0252 21.4976 13.9811 21.3216 13.9811C21.1458 13.9811 20.9835 14.024 20.8346 14.1096C20.6859 14.1954 20.5652 14.3204 20.4728 14.485C20.3805 14.6497 20.3341 14.8447 20.3341 15.07C20.3341 15.2957 20.3802 15.4929 20.4728 15.6618C20.5652 15.8309 20.6868 15.9606 20.8382 16.0508C20.9893 16.1412 21.1505 16.1861 21.3218 16.1861C21.4978 16.1861 21.6623 16.1422 21.8157 16.0542C21.969 15.9662 22.0906 15.8402 22.181 15.6754C22.2712 15.5109 22.3163 15.3135 22.3163 15.0836C22.3163 14.8537 22.2712 14.6568 22.1808 14.492Z" fill="white"/>
<path d="M27.6532 15.3681H24.9137C24.9362 15.6386 25.031 15.8507 25.198 16.0038C25.3647 16.1571 25.5699 16.2339 25.8134 16.2339C26.1652 16.2339 26.4155 16.0827 26.5642 15.7807H27.5855C27.4773 16.1415 27.2698 16.4381 26.9632 16.6702C26.6566 16.9025 26.28 17.0185 25.8337 17.0185C25.4729 17.0185 25.1492 16.9383 24.863 16.7784C24.5766 16.6182 24.3534 16.3918 24.1932 16.0986C24.0331 15.8056 23.9531 15.4673 23.9531 15.0838C23.9531 14.696 24.0319 14.3558 24.1898 14.0625C24.3475 13.7695 24.5686 13.5441 24.8526 13.3861C25.1368 13.2284 25.4636 13.1494 25.8334 13.1494C26.1895 13.1494 26.5088 13.2262 26.7906 13.3793C27.0724 13.5326 27.2913 13.7503 27.4468 14.0321C27.6023 14.3138 27.6803 14.6373 27.6803 15.0027C27.6803 15.1382 27.671 15.2598 27.6532 15.3681ZM26.6995 14.7324C26.6948 14.4888 26.6071 14.2938 26.4355 14.1474C26.2639 14.0009 26.0545 13.9275 25.8064 13.9275C25.5719 13.9275 25.3744 13.9984 25.2145 14.1405C25.0544 14.2826 24.9562 14.4798 24.9203 14.7324H26.6995Z" fill="white"/>
<path d="M29.7931 13.3252C29.9893 13.2126 30.2136 13.1562 30.4661 13.1562V14.1505H30.2158C29.9181 14.1505 29.6936 14.2205 29.5428 14.3602C29.3916 14.5001 29.3161 14.7436 29.3161 15.0907V16.9576H28.3691V13.2104H29.3161V13.7922C29.438 13.5936 29.5969 13.4381 29.7931 13.3252Z" fill="white"/>
<path d="M8.20707 25.948C9.00243 24.7005 10.3233 24.0767 12.1695 24.0767C14.0151 24.0767 15.3363 24.7007 16.1319 25.948C16.9272 27.1957 17.3253 28.9208 17.3253 31.123C17.3253 33.3382 16.9272 35.0759 16.1319 36.3364C15.336 37.5966 14.0151 38.2269 12.1695 38.2269C10.3233 38.2269 9.00243 37.5968 8.20707 36.3364C7.41123 35.0762 7.01367 33.3382 7.01367 31.123C7.01367 28.9208 7.41123 27.196 8.20707 25.948ZM14.5087 28.7457C14.3876 28.103 14.1458 27.5777 13.7831 27.1704C13.4201 26.7631 12.8822 26.5593 12.1695 26.5593C11.4562 26.5593 10.9188 26.7631 10.5558 27.1704C10.1932 27.5779 9.9511 28.1032 9.8302 28.7457C9.70906 29.3888 9.64885 30.1812 9.64885 31.123C9.64885 32.0907 9.70613 32.9022 9.8207 33.5579C9.93526 34.2135 10.1771 34.7418 10.5463 35.1427C10.9154 35.5437 11.4562 35.7443 12.1695 35.7443C12.8822 35.7443 13.4233 35.5437 13.7926 35.1427C14.1616 34.7418 14.4037 34.2135 14.5182 33.5579C14.6328 32.9024 14.6901 32.0907 14.6901 31.123C14.6901 30.1812 14.6296 29.3888 14.5087 28.7457Z" fill="white"/>
<path d="M25.9104 26.6162C25.5984 26.3488 25.1495 26.2152 24.5642 26.2152C23.6857 26.2152 23.0396 26.5684 22.6259 27.275C22.212 27.9816 21.9987 29.1307 21.9861 30.7219C22.2915 30.2129 22.7371 29.8149 23.3228 29.5285C23.9083 29.2421 24.545 29.0988 25.2323 29.0988C26.0599 29.0988 26.7916 29.2772 27.4283 29.6333C28.0647 29.9899 28.5612 30.5088 28.9178 31.1896C29.274 31.8707 29.4526 32.6887 29.4526 33.6435C29.4526 34.5475 29.271 35.3526 28.9083 36.059C28.5454 36.7657 28.0138 37.3165 27.3137 37.7109C26.6134 38.1058 25.7796 38.303 24.8121 38.303C23.4878 38.303 22.4472 38.0103 21.6899 37.4245C20.9323 36.8393 20.4039 36.021 20.1051 34.9707C19.8057 33.9204 19.6562 32.6251 19.6562 31.0846C19.6562 28.7548 20.0573 26.9952 20.8595 25.8045C21.6616 24.6142 22.9282 24.019 24.6595 24.019C25.9962 24.019 27.0336 24.3819 27.7722 25.1076C28.5105 25.8332 28.9371 26.7373 29.0517 27.8193H26.5691C26.4418 27.2845 26.2222 26.8833 25.9104 26.6162ZM22.9218 31.8865C22.4636 32.2814 22.2345 32.8542 22.2345 33.6052C22.2345 34.3567 22.4475 34.9485 22.8743 35.3812C23.3006 35.8141 23.9022 36.0305 24.6788 36.0305C25.3662 36.0305 25.9104 35.8204 26.3114 35.4004C26.7126 34.9802 26.913 34.414 26.913 33.7008C26.913 32.9627 26.7187 32.3769 26.3307 31.9438C25.9421 31.5111 25.3725 31.2945 24.6215 31.2945C23.9466 31.2945 23.3801 31.4921 22.9218 31.8865Z" fill="white"/>
<rect x="37" width="197" height="12" fill="#041F41"/>
<mask id="path-11-inside-1_2097_1574" fill="white">
<path d="M37 36H234V51H37V36Z"/>
</mask>
<path d="M37 36H234V51H37V36Z" fill="white"/>
<path d="M37 36.2H234V35.8H37V36.2Z" fill="#BDC5D1" mask="url(#path-11-inside-1_2097_1574)"/>
<path d="M63.985 43.7765C63.985 45.0019 62.992 45.9952 61.766 45.9952H51.219C49.994 45.9952 49 45.0021 49 43.7765V43.2186C49 41.9933 49.993 41 51.219 41H61.766C62.991 41 63.985 41.993 63.985 43.2186V43.7765Z" fill="#858C97"/>
<path d="M81.9704 43.7765C81.9704 45.0019 80.9764 45.9952 79.7514 45.9952H69.2034C67.9784 45.9952 66.9844 45.0021 66.9844 43.7765V43.2186C66.9844 41.9933 67.9784 41 69.2034 41H79.7514C80.9764 41 81.9704 41.993 81.9704 43.2186V43.7765Z" fill="#858C97"/>
<path d="M99.9557 43.7765C99.9557 45.0019 98.9627 45.9952 97.7367 45.9952H87.1897C85.9637 45.9952 84.9707 45.0021 84.9707 43.7765V43.2186C84.9707 41.9933 85.9637 41 87.1897 41H97.7367C98.9617 41 99.9557 41.993 99.9557 43.2186V43.7765Z" fill="#858C97"/>
<path d="M117.94 43.7765C117.94 45.0019 116.946 45.9952 115.721 45.9952H105.174C103.949 45.9952 102.955 45.0021 102.955 43.7765V43.2186C102.955 41.9933 103.948 41 105.174 41H115.721C116.946 41 117.94 41.993 117.94 43.2186V43.7765Z" fill="#858C97"/>
<rect x="37" y="12" width="197" height="24" fill="white"/>
<path d="M53.1003 26.5619V27.7346H49V20.0972H50.3026V26.5617L53.1003 26.5619Z" fill="#041F41"/>
<path d="M61.193 23.9997C61.193 24.5607 61.1077 25.0779 60.9385 25.5558C60.7691 26.0315 60.5293 26.4444 60.2199 26.7935C59.9096 27.1427 59.537 27.4139 59.1014 27.6099C58.6653 27.8046 58.1815 27.9026 57.6486 27.9026C57.1194 27.9026 56.6368 27.8048 56.2012 27.6099C55.7652 27.4139 55.3915 27.1427 55.0802 26.7935C54.7685 26.4444 54.5276 26.0315 54.3563 25.5558C54.1852 25.0779 54.0996 24.5607 54.0996 23.9997C54.0996 23.4388 54.1849 22.9216 54.3563 22.4438C54.5274 21.9681 54.7685 21.5552 55.0802 21.206C55.3915 20.8569 55.7652 20.5857 56.2012 20.3896C56.6368 20.195 57.1192 20.0972 57.6486 20.0972C58.0038 20.0972 58.3379 20.1418 58.6504 20.2311C58.9636 20.3205 59.251 20.4481 59.5128 20.6112C59.7739 20.7763 60.0089 20.9741 60.2168 21.2095C60.4252 21.4435 60.6016 21.7043 60.7469 21.9939C60.8924 22.2824 61.0026 22.5954 61.0787 22.9336C61.1545 23.2707 61.193 23.6271 61.193 23.9997ZM59.8614 23.9997C59.8614 23.5803 59.8097 23.2056 59.7064 22.8717C59.6032 22.5406 59.456 22.2563 59.2659 22.0245C59.0753 21.7923 58.844 21.6147 58.5712 21.4914C58.298 21.368 57.9908 21.306 57.6489 21.306C57.3064 21.306 56.999 21.3676 56.7263 21.4914C56.4538 21.6147 56.2215 21.7923 56.0291 22.0245C55.8368 22.2566 55.6896 22.5406 55.5862 22.8717C55.4829 23.2059 55.4312 23.5806 55.4312 23.9997C55.4312 24.419 55.4829 24.7936 55.5862 25.1279C55.6896 25.46 55.8371 25.7408 56.0291 25.9719C56.2215 26.2041 56.4535 26.3806 56.7263 26.5029C56.999 26.6263 57.3064 26.6891 57.6489 26.6891C57.9908 26.6891 58.2982 26.6263 58.5712 26.5029C58.844 26.3806 59.075 26.2038 59.2659 25.9719C59.4563 25.7411 59.6035 25.46 59.7064 25.1279C59.8097 24.7936 59.8614 24.419 59.8614 23.9997Z" fill="#041F41"/>
<path d="M68.3808 23.9898V27.0793C68.0256 27.3647 67.6471 27.5732 67.2451 27.7051C66.8432 27.838 66.4135 27.9032 65.955 27.9032C65.3836 27.9032 64.8661 27.8074 64.4033 27.6126C63.9399 27.4197 63.5448 27.1507 63.2174 26.8047C62.8896 26.4609 62.6368 26.0479 62.4594 25.568C62.2822 25.0901 62.1934 24.5676 62.1934 24.0001C62.1934 23.4255 62.2787 22.8998 62.4501 22.4217C62.6207 21.9418 62.8637 21.5299 63.1784 21.186C63.4931 20.8401 63.8751 20.5718 64.3233 20.3824C64.7721 20.1921 65.2759 20.0972 65.8341 20.0972C66.118 20.0972 66.3837 20.1216 66.6307 20.1705C66.8773 20.2206 67.1067 20.2875 67.318 20.3737C67.5296 20.4598 67.7224 20.5641 67.8964 20.6886C68.0705 20.8119 68.2306 20.9462 68.3759 21.094L68.0032 21.7391C67.9452 21.8423 67.8691 21.9043 67.7755 21.9266C67.6819 21.95 67.5805 21.9244 67.4706 21.851C67.3638 21.784 67.2573 21.7171 67.1511 21.6501C67.0441 21.583 66.9256 21.5243 66.7949 21.4766C66.6648 21.4267 66.5173 21.3852 66.3545 21.3543C66.1917 21.3235 66.0032 21.3064 65.7907 21.3064C65.4453 21.3064 65.1326 21.3693 64.8537 21.4969C64.5746 21.6245 64.3367 21.8046 64.1395 22.0396C63.9428 22.277 63.7912 22.5589 63.6844 22.891C63.5782 23.221 63.5248 23.5926 63.5248 24.0001C63.5248 24.4365 63.5818 24.8271 63.6966 25.171C63.8112 25.5136 63.9726 25.8044 64.181 26.0415C64.3889 26.2798 64.6399 26.4609 64.9337 26.5863C65.2274 26.7119 65.5552 26.7735 65.9167 26.7735C66.1748 26.7735 66.4054 26.7428 66.609 26.6842C66.8122 26.6236 67.0109 26.5428 67.2047 26.4393V25.0558H66.3233C66.2394 25.0558 66.1741 25.0313 66.1278 24.9803C66.081 24.9281 66.0571 24.8665 66.0571 24.7931V23.9895L68.3808 23.9898Z" fill="#041F41"/>
<path d="M76.4742 23.9997C76.4742 24.5607 76.3889 25.0779 76.2195 25.5558C76.0499 26.0315 75.8103 26.4444 75.5005 26.7935C75.1906 27.1427 74.818 27.4139 74.3819 27.6099C73.9463 27.8046 73.462 27.9026 72.9296 27.9026C72.4004 27.9026 71.9178 27.8048 71.4822 27.6099C71.0462 27.4139 70.6725 27.1427 70.3612 26.7935C70.0495 26.4444 69.8082 26.0315 69.6373 25.5558C69.4662 25.0779 69.3809 24.5607 69.3809 23.9997C69.3809 23.4388 69.4662 22.9216 69.6373 22.4438C69.8079 21.9681 70.0495 21.5552 70.3612 21.206C70.6725 20.8569 71.0462 20.5857 71.4822 20.3896C71.9178 20.195 72.4004 20.0972 72.9296 20.0972C73.2848 20.0972 73.6189 20.1418 73.9317 20.2311C74.2446 20.3205 74.532 20.4481 74.7936 20.6112C75.0551 20.7763 75.2896 20.9741 75.4978 21.2095C75.7062 21.4435 75.8827 21.7043 76.0282 21.9939C76.1734 22.2824 76.2839 22.5954 76.3599 22.9336C76.4357 23.2707 76.4742 23.6271 76.4742 23.9997ZM75.1421 23.9997C75.1421 23.5803 75.091 23.2056 74.9876 22.8717C74.8843 22.5406 74.7373 22.2563 74.5471 22.0245C74.3565 21.7923 74.1252 21.6147 73.8525 21.4914C73.5792 21.368 73.2718 21.306 72.9299 21.306C72.5874 21.306 72.28 21.3676 72.0075 21.4914C71.7348 21.6147 71.5027 21.7923 71.3104 22.0245C71.1183 22.2566 70.9704 22.5406 70.8675 22.8717C70.7641 23.2059 70.7122 23.5806 70.7122 23.9997C70.7122 24.419 70.7639 24.7936 70.8675 25.1279C70.9704 25.46 71.1183 25.7408 71.3104 25.9719C71.5027 26.2041 71.7348 26.3806 72.0075 26.5029C72.28 26.6263 72.5876 26.6891 72.9299 26.6891C73.2718 26.6891 73.5792 26.6263 73.8525 26.5029C74.125 26.3806 74.3563 26.2038 74.5471 25.9719C74.7373 25.7411 74.8843 25.46 74.9876 25.1279C75.0907 24.7936 75.1421 24.419 75.1421 23.9997Z" fill="#041F41"/>
<rect x="194.414" y="20" width="8" height="8" rx="4" fill="#3A86FF"/>
<rect x="204.414" y="20" width="8" height="8" rx="4" fill="#3A86FF"/>
<rect x="214.414" y="20" width="8" height="8" rx="4" fill="#3A86FF"/>
<rect x="198" y="40" width="24" height="8" rx="2" fill="#3A86FF"/>
<path d="M62 5.6675C62 6.40345 61.4036 7 60.6673 7H54.3327C53.597 7 53 6.40357 53 5.6675V5.33244C53 4.59655 53.5964 4 54.3327 4H60.6673C61.403 4 62 4.59637 62 5.33244V5.6675Z" fill="white"/>
<rect x="49" y="4" width="3" height="3" rx="1.5" fill="#D9D9D9"/>
<path d="M79 5.6675C79 6.40345 78.4036 7 77.6673 7H71.3327C70.597 7 70 6.40357 70 5.6675V5.33244C70 4.59655 70.5964 4 71.3327 4H77.6673C78.403 4 79 4.59637 79 5.33244V5.6675Z" fill="white"/>
<rect x="66" y="4" width="3" height="3" rx="1.5" fill="#D9D9D9"/>
</g>
<defs>
<clipPath id="clip0_2097_1574">
<rect width="234" height="51" fill="white"/>
</clipPath>
</defs>
</svg>
