<svg width="234" height="51" viewBox="0 0 234 51" fill="none" xmlns="http://www.w3.org/2000/svg">
<g clip-path="url(#clip0_2097_1759)">
<rect width="234" height="51" fill="white"/>
<rect width="37" height="51" fill="#3A86FF"/>
<path d="M9.91628 12.418V17.1394H8.96936V15.1304H6.94697V17.1394H6V12.418H6.94697V14.3592H8.96936V12.418H9.91628Z" fill="white"/>
<path d="M14.3075 15.5498H11.568C11.5905 15.8203 11.6853 16.0324 11.8522 16.1855C12.019 16.3388 12.2242 16.4156 12.4677 16.4156C12.8194 16.4156 13.0698 16.2644 13.2185 15.9624H14.2398C14.1316 16.3232 13.9241 16.6198 13.6175 16.8519C13.3108 17.0842 12.9343 17.2002 12.4879 17.2002C12.1272 17.2002 11.8035 17.12 11.5173 16.9601C11.2309 16.7999 11.0077 16.5735 10.8475 16.2803C10.6874 15.9873 10.6074 15.649 10.6074 15.2655C10.6074 14.8777 10.6861 14.5375 10.8441 14.2442C11.0018 13.9512 11.2229 13.7258 11.5069 13.5678C11.7911 13.4101 12.1179 13.3311 12.4877 13.3311C12.8438 13.3311 13.1631 13.4079 13.4449 13.561C13.7267 13.7143 13.9456 13.932 14.1011 14.2138C14.2566 14.4955 14.3346 14.819 14.3346 15.1844C14.3346 15.3199 14.3256 15.4415 14.3075 15.5498ZM13.354 14.9141C13.3494 14.6705 13.2616 14.4755 13.09 14.3291C12.9184 14.1826 12.709 14.1092 12.4609 14.1092C12.2264 14.1092 12.029 14.1801 11.8691 14.3222C11.7089 14.4643 11.6107 14.6615 11.5749 14.9141H13.354Z" fill="white"/>
<path d="M15.0079 14.2442C15.1591 13.9512 15.3641 13.7258 15.6234 13.5678C15.8828 13.4101 16.1722 13.3311 16.4925 13.3311C16.7721 13.3311 17.0169 13.3874 17.2266 13.5003C17.4362 13.6132 17.6041 13.755 17.7304 13.9264V13.3921H18.6842V17.1395H17.7304V16.5915C17.6085 16.7675 17.4406 16.9128 17.2266 17.0279C17.0123 17.1429 16.7654 17.2004 16.4858 17.2004C16.1701 17.2004 15.8824 17.1193 15.6231 16.9567C15.3637 16.7941 15.1586 16.5657 15.0077 16.2703C14.8566 15.9751 14.7812 15.6356 14.7812 15.2521C14.7814 14.8733 14.8571 14.5375 15.0079 14.2442ZM17.5954 14.6737C17.5052 14.5092 17.3832 14.3829 17.2299 14.2949C17.0766 14.2069 16.912 14.1628 16.736 14.1628C16.5603 14.1628 16.3981 14.2057 16.2491 14.2913C16.1004 14.3771 15.9798 14.5021 15.8874 14.6666C15.795 14.8314 15.7486 15.0264 15.7486 15.2516C15.7486 15.4774 15.7948 15.6746 15.8874 15.8435C15.9798 16.0126 16.1014 16.1423 16.2528 16.2325C16.4039 16.3229 16.565 16.3678 16.7364 16.3678C16.9124 16.3678 17.0769 16.3239 17.2302 16.2359C17.3835 16.1479 17.5052 16.0219 17.5956 15.8571C17.6858 15.6926 17.7309 15.4952 17.7309 15.2653C17.7309 15.0354 17.6855 14.8385 17.5954 14.6737Z" fill="white"/>
<path d="M19.5936 14.2441C19.7448 13.9511 19.951 13.7257 20.2128 13.5677C20.4743 13.41 20.7651 13.331 21.0854 13.331C21.3289 13.331 21.5612 13.3842 21.782 13.49C22.0029 13.596 22.1788 13.7369 22.3097 13.9126V12.1338H23.2701V17.1394H22.3097V16.5849C22.1925 16.7699 22.028 16.9186 21.8159 17.0314C21.6038 17.144 21.3581 17.2006 21.0786 17.2006C20.7629 17.2006 20.4743 17.1194 20.2128 16.9568C19.9512 16.7945 19.7448 16.5659 19.5936 16.2704C19.4425 15.9752 19.3672 15.6357 19.3672 15.2523C19.3669 14.8733 19.4425 14.5374 19.5936 14.2441ZM22.1808 14.6736C22.0906 14.5091 21.9687 14.3828 21.8154 14.2948C21.6621 14.2068 21.4976 14.1627 21.3216 14.1627C21.1458 14.1627 20.9835 14.2056 20.8346 14.2912C20.6859 14.377 20.5652 14.502 20.4728 14.6666C20.3805 14.8313 20.3341 15.0263 20.3341 15.2516C20.3341 15.4773 20.3802 15.6745 20.4728 15.8434C20.5652 16.0125 20.6868 16.1422 20.8382 16.2324C20.9893 16.3228 21.1505 16.3677 21.3218 16.3677C21.4978 16.3677 21.6623 16.3238 21.8157 16.2358C21.969 16.1478 22.0906 16.0218 22.181 15.857C22.2712 15.6925 22.3163 15.4951 22.3163 15.2652C22.3163 15.0353 22.2712 14.8384 22.1808 14.6736Z" fill="white"/>
<path d="M27.6532 15.5498H24.9137C24.9362 15.8203 25.031 16.0324 25.198 16.1855C25.3647 16.3388 25.5699 16.4156 25.8134 16.4156C26.1652 16.4156 26.4155 16.2644 26.5642 15.9624H27.5855C27.4773 16.3232 27.2698 16.6198 26.9632 16.8519C26.6566 17.0842 26.28 17.2002 25.8337 17.2002C25.4729 17.2002 25.1492 17.12 24.863 16.9601C24.5766 16.7999 24.3534 16.5735 24.1932 16.2803C24.0331 15.9873 23.9531 15.649 23.9531 15.2655C23.9531 14.8777 24.0319 14.5375 24.1898 14.2442C24.3475 13.9512 24.5686 13.7258 24.8526 13.5678C25.1368 13.4101 25.4636 13.3311 25.8334 13.3311C26.1895 13.3311 26.5088 13.4079 26.7906 13.561C27.0724 13.7143 27.2913 13.932 27.4468 14.2138C27.6023 14.4955 27.6803 14.819 27.6803 15.1844C27.6803 15.3199 27.671 15.4415 27.6532 15.5498ZM26.6995 14.9141C26.6948 14.6705 26.6071 14.4755 26.4355 14.3291C26.2639 14.1826 26.0545 14.1092 25.8064 14.1092C25.5719 14.1092 25.3744 14.1801 25.2145 14.3222C25.0544 14.4643 24.9562 14.6615 24.9203 14.9141H26.6995Z" fill="white"/>
<path d="M29.7931 13.5068C29.9893 13.3942 30.2136 13.3379 30.4661 13.3379V14.3321H30.2158C29.9181 14.3321 29.6936 14.4021 29.5428 14.5418C29.3916 14.6817 29.3161 14.9252 29.3161 15.2723V17.1392H28.3691V13.392H29.3161V13.9738C29.438 13.7752 29.5969 13.6197 29.7931 13.5068Z" fill="white"/>
<path d="M12.4746 26.664V24.2007H17.0768V38.1217H14.3269V26.664H12.4746Z" fill="white"/>
<path d="M19.3887 26.664V24.2007H23.991V38.1217H21.241V26.664H19.3887Z" fill="white"/>
<rect x="37" width="197" height="12" fill="#041F41"/>
<mask id="path-11-inside-1_2097_1759" fill="white">
<path d="M37 36H234V51H37V36Z"/>
</mask>
<path d="M37 36H234V51H37V36Z" fill="white"/>
<path d="M37 36.2H234V35.8H37V36.2Z" fill="#BDC5D1" mask="url(#path-11-inside-1_2097_1759)"/>
<path d="M111.485 43.7765C111.485 45.0019 110.492 45.9952 109.266 45.9952H98.719C97.494 45.9952 96.5 45.0021 96.5 43.7765V43.2186C96.5 41.9933 97.493 41 98.719 41H109.266C110.491 41 111.485 41.993 111.485 43.2186V43.7765Z" fill="#858C97"/>
<line x1="114.584" y1="35.9976" x2="114.584" y2="50.9976" stroke="#BDC5D1" stroke-width="0.2"/>
<path d="M132.47 43.7765C132.47 45.0019 131.476 45.9952 130.251 45.9952H119.703C118.478 45.9952 117.484 45.0021 117.484 43.7765V43.2186C117.484 41.9933 118.478 41 119.703 41H130.251C131.476 41 132.47 41.993 132.47 43.2186V43.7765Z" fill="#858C97"/>
<line x1="135.571" y1="35.9976" x2="135.571" y2="50.9976" stroke="#BDC5D1" stroke-width="0.2"/>
<path d="M153.456 43.7765C153.456 45.0019 152.463 45.9952 151.237 45.9952H140.69C139.464 45.9952 138.471 45.0021 138.471 43.7765V43.2186C138.471 41.9933 139.464 41 140.69 41H151.237C152.462 41 153.456 41.993 153.456 43.2186V43.7765Z" fill="#858C97"/>
<line x1="156.555" y1="35.9976" x2="156.555" y2="50.9976" stroke="#BDC5D1" stroke-width="0.2"/>
<path d="M174.44 43.7765C174.44 45.0019 173.446 45.9952 172.221 45.9952H161.674C160.449 45.9952 159.455 45.0021 159.455 43.7765V43.2186C159.455 41.9933 160.448 41 161.674 41H172.221C173.446 41 174.44 41.993 174.44 43.2186V43.7765Z" fill="#858C97"/>
<rect x="37" y="12" width="197" height="24" fill="white"/>
<path d="M53.1003 26.5619V27.7346H49V20.0972H50.3026V26.5617L53.1003 26.5619Z" fill="#041F41"/>
<path d="M61.193 23.9997C61.193 24.5607 61.1077 25.0779 60.9385 25.5558C60.7691 26.0315 60.5293 26.4444 60.2199 26.7935C59.9096 27.1427 59.537 27.4139 59.1014 27.6099C58.6653 27.8046 58.1815 27.9026 57.6486 27.9026C57.1194 27.9026 56.6368 27.8048 56.2012 27.6099C55.7652 27.4139 55.3915 27.1427 55.0802 26.7935C54.7685 26.4444 54.5276 26.0315 54.3563 25.5558C54.1852 25.0779 54.0996 24.5607 54.0996 23.9997C54.0996 23.4388 54.1849 22.9216 54.3563 22.4438C54.5274 21.9681 54.7685 21.5552 55.0802 21.206C55.3915 20.8569 55.7652 20.5857 56.2012 20.3896C56.6368 20.195 57.1192 20.0972 57.6486 20.0972C58.0038 20.0972 58.3379 20.1418 58.6504 20.2311C58.9636 20.3205 59.251 20.4481 59.5128 20.6112C59.7739 20.7763 60.0089 20.9741 60.2168 21.2095C60.4252 21.4435 60.6016 21.7043 60.7469 21.9939C60.8924 22.2824 61.0026 22.5954 61.0787 22.9336C61.1545 23.2707 61.193 23.6271 61.193 23.9997ZM59.8614 23.9997C59.8614 23.5803 59.8097 23.2056 59.7064 22.8717C59.6032 22.5406 59.456 22.2563 59.2659 22.0245C59.0753 21.7923 58.844 21.6147 58.5712 21.4914C58.298 21.368 57.9908 21.306 57.6489 21.306C57.3064 21.306 56.999 21.3676 56.7263 21.4914C56.4538 21.6147 56.2215 21.7923 56.0291 22.0245C55.8368 22.2566 55.6896 22.5406 55.5862 22.8717C55.4829 23.2059 55.4312 23.5806 55.4312 23.9997C55.4312 24.419 55.4829 24.7936 55.5862 25.1279C55.6896 25.46 55.8371 25.7408 56.0291 25.9719C56.2215 26.2041 56.4535 26.3806 56.7263 26.5029C56.999 26.6263 57.3064 26.6891 57.6489 26.6891C57.9908 26.6891 58.2982 26.6263 58.5712 26.5029C58.844 26.3806 59.075 26.2038 59.2659 25.9719C59.4563 25.7411 59.6035 25.46 59.7064 25.1279C59.8097 24.7936 59.8614 24.419 59.8614 23.9997Z" fill="#041F41"/>
<path d="M68.3808 23.9898V27.0793C68.0256 27.3647 67.6471 27.5732 67.2451 27.7051C66.8432 27.838 66.4135 27.9032 65.955 27.9032C65.3836 27.9032 64.8661 27.8074 64.4033 27.6126C63.9399 27.4197 63.5448 27.1507 63.2174 26.8047C62.8896 26.4609 62.6368 26.0479 62.4594 25.568C62.2822 25.0901 62.1934 24.5676 62.1934 24.0001C62.1934 23.4255 62.2787 22.8998 62.4501 22.4217C62.6207 21.9418 62.8637 21.5299 63.1784 21.186C63.4931 20.8401 63.8751 20.5718 64.3233 20.3824C64.7721 20.1921 65.2759 20.0972 65.8341 20.0972C66.118 20.0972 66.3837 20.1216 66.6307 20.1705C66.8773 20.2206 67.1067 20.2875 67.318 20.3737C67.5296 20.4598 67.7224 20.5641 67.8964 20.6886C68.0705 20.8119 68.2306 20.9462 68.3759 21.094L68.0032 21.7391C67.9452 21.8423 67.8691 21.9043 67.7755 21.9266C67.6819 21.95 67.5805 21.9244 67.4706 21.851C67.3638 21.784 67.2573 21.7171 67.1511 21.6501C67.0441 21.583 66.9256 21.5243 66.7949 21.4766C66.6648 21.4267 66.5173 21.3852 66.3545 21.3543C66.1917 21.3235 66.0032 21.3064 65.7907 21.3064C65.4453 21.3064 65.1326 21.3693 64.8537 21.4969C64.5746 21.6245 64.3367 21.8046 64.1395 22.0396C63.9428 22.277 63.7912 22.5589 63.6844 22.891C63.5782 23.221 63.5248 23.5926 63.5248 24.0001C63.5248 24.4365 63.5818 24.8271 63.6966 25.171C63.8112 25.5136 63.9726 25.8044 64.181 26.0415C64.3889 26.2798 64.6399 26.4609 64.9337 26.5863C65.2274 26.7119 65.5552 26.7735 65.9167 26.7735C66.1748 26.7735 66.4054 26.7428 66.609 26.6842C66.8122 26.6236 67.0109 26.5428 67.2047 26.4393V25.0558H66.3233C66.2394 25.0558 66.1741 25.0313 66.1278 24.9803C66.081 24.9281 66.0571 24.8665 66.0571 24.7931V23.9895L68.3808 23.9898Z" fill="#041F41"/>
<path d="M76.4742 23.9997C76.4742 24.5607 76.3889 25.0779 76.2195 25.5558C76.0499 26.0315 75.8103 26.4444 75.5005 26.7935C75.1906 27.1427 74.818 27.4139 74.3819 27.6099C73.9463 27.8046 73.462 27.9026 72.9296 27.9026C72.4004 27.9026 71.9178 27.8048 71.4822 27.6099C71.0462 27.4139 70.6725 27.1427 70.3612 26.7935C70.0495 26.4444 69.8082 26.0315 69.6373 25.5558C69.4662 25.0779 69.3809 24.5607 69.3809 23.9997C69.3809 23.4388 69.4662 22.9216 69.6373 22.4438C69.8079 21.9681 70.0495 21.5552 70.3612 21.206C70.6725 20.8569 71.0462 20.5857 71.4822 20.3896C71.9178 20.195 72.4004 20.0972 72.9296 20.0972C73.2848 20.0972 73.6189 20.1418 73.9317 20.2311C74.2446 20.3205 74.532 20.4481 74.7936 20.6112C75.0551 20.7763 75.2896 20.9741 75.4978 21.2095C75.7062 21.4435 75.8827 21.7043 76.0282 21.9939C76.1734 22.2824 76.2839 22.5954 76.3599 22.9336C76.4357 23.2707 76.4742 23.6271 76.4742 23.9997ZM75.1421 23.9997C75.1421 23.5803 75.091 23.2056 74.9876 22.8717C74.8843 22.5406 74.7373 22.2563 74.5471 22.0245C74.3565 21.7923 74.1252 21.6147 73.8525 21.4914C73.5792 21.368 73.2718 21.306 72.9299 21.306C72.5874 21.306 72.28 21.3676 72.0075 21.4914C71.7348 21.6147 71.5027 21.7923 71.3104 22.0245C71.1183 22.2566 70.9704 22.5406 70.8675 22.8717C70.7641 23.2059 70.7122 23.5806 70.7122 23.9997C70.7122 24.419 70.7639 24.7936 70.8675 25.1279C70.9704 25.46 71.1183 25.7408 71.3104 25.9719C71.5027 26.2041 71.7348 26.3806 72.0075 26.5029C72.28 26.6263 72.5876 26.6891 72.9299 26.6891C73.2718 26.6891 73.5792 26.6263 73.8525 26.5029C74.125 26.3806 74.3563 26.2038 74.5471 25.9719C74.7373 25.7411 74.8843 25.46 74.9876 25.1279C75.0907 24.7936 75.1421 24.419 75.1421 23.9997Z" fill="#041F41"/>
<path d="M108.475 20.05H162.414C164.595 20.05 166.364 21.8185 166.364 24C166.364 26.1815 164.595 27.95 162.414 27.95H108.475C106.293 27.95 104.525 26.1815 104.525 24C104.525 21.8185 106.293 20.05 108.475 20.05Z" fill="#DCE0E5" stroke="#858C97" stroke-width="0.1"/>
<path d="M165.516 24C165.516 22.3431 164.172 21 162.516 21V21C160.859 21 159.516 22.3431 159.516 24V24C159.516 25.6569 160.859 27 162.516 27V27C164.172 27 165.516 25.6569 165.516 24V24Z" fill="#041F41"/>
<rect x="194.414" y="20" width="8" height="8" rx="4" fill="#3A86FF"/>
<rect x="204.414" y="20" width="8" height="8" rx="4" fill="#3A86FF"/>
<rect x="214.414" y="20" width="8" height="8" rx="4" fill="#3A86FF"/>
</g>
<defs>
<clipPath id="clip0_2097_1759">
<rect width="234" height="51" fill="white"/>
</clipPath>
</defs>
</svg>
