<svg width="200" height="200" viewBox="0 0 200 200" fill="none" xmlns="http://www.w3.org/2000/svg">
<rect width="200" height="200" rx="5" fill="#FFA2C0"/>
<path d="M114.983 64.9495C114.735 64.1837 114.192 63.5482 113.475 63.1827C112.757 62.8168 111.924 62.7517 111.158 63.0006L98.4585 67.1275C96.8642 67.6455 95.9911 69.358 96.5096 70.9524L97.1443 72.9065L64.8406 96.6351L52.0978 100.775C51.332 101.024 50.6966 101.567 50.3311 102.284C49.9656 103.001 49.9 103.835 50.1489 104.601L57.8914 128.425C58.3083 129.708 59.4983 130.523 60.7777 130.523C61.089 130.523 61.4051 130.475 61.7167 130.374L74.4575 126.234L81.0036 126.268C82.3182 132.475 87.839 137.148 94.4316 137.148C100.974 137.148 106.458 132.545 107.827 126.409L114.54 126.445L115.175 128.399C115.424 129.165 115.966 129.8 116.684 130.166C117.115 130.385 117.587 130.497 118.062 130.497C118.378 130.497 118.695 130.447 119 130.348L131.7 126.222C133.294 125.704 134.167 123.991 133.649 122.397L114.983 64.9495ZM62.727 123.662L56.8613 105.611L64.2942 103.196L70.159 121.246L62.727 123.662ZM94.4312 131.077C91.2288 131.077 88.4838 129.099 87.3428 126.302L101.492 126.376C100.333 129.135 97.6057 131.077 94.4312 131.077ZM76.1931 120.171L73.0004 110.345L69.8077 100.519L99.1194 78.9887L108.109 106.653L112.563 120.363L76.1931 120.171ZM120.011 123.636L119.638 122.489C119.638 122.487 119.637 122.485 119.636 122.483L111.616 97.7995L103.222 71.963L110.147 69.7122L126.936 121.385L120.011 123.636Z" fill="black"/>
<path d="M125.206 79.706C125.648 79.931 126.118 80.0375 126.582 80.0375C127.687 80.0375 128.752 79.432 129.289 78.3796L134.737 67.6901C135.499 66.1966 134.905 64.3683 133.412 63.607C131.918 62.846 130.09 63.439 129.328 64.9329L123.88 75.6224C123.118 77.1164 123.712 78.9446 125.206 79.706Z" fill="black"/>
<path d="M148.021 108.572L137.33 103.126C135.836 102.366 134.008 102.96 133.247 104.454C132.486 105.948 133.081 107.775 134.574 108.536L145.265 113.982C145.707 114.207 146.177 114.313 146.641 114.313C147.745 114.313 148.812 113.707 149.348 112.655C150.109 111.162 149.515 109.334 148.021 108.572Z" fill="black"/>
<path d="M132.667 90.9624C133.084 92.2451 134.274 93.0607 135.554 93.0607C135.865 93.0607 136.181 93.0125 136.493 92.9113L147.902 89.2038C149.496 88.6857 150.369 86.9732 149.85 85.3785C149.332 83.7838 147.62 82.9127 146.025 83.4296L134.616 87.1371C133.022 87.6556 132.149 89.3681 132.667 90.9624Z" fill="black"/>
</svg>
