<svg width="200" height="200" viewBox="0 0 200 200" fill="none" xmlns="http://www.w3.org/2000/svg">
<rect width="200" height="200" rx="5" fill="#FFCE72"/>
<path d="M117.065 139.348C116.956 142.609 114.239 145.109 111.087 145.109C110.978 145.109 110.869 145.109 110.869 145.109C107.609 145 105 142.174 105.109 138.913C105.761 123.478 102.065 111.957 94.1303 104.457C81.5216 92.6087 61.739 94.5652 61.5216 94.5652C58.2607 94.8913 55.326 92.5 54.8912 89.2391C54.5651 85.9783 56.8477 83.0435 60.2173 82.6087C61.1955 82.5 85.5434 80 102.282 95.5435C112.935 105.543 117.826 120.326 117.065 139.348ZM70.1086 116.196C66.4129 116.196 62.7173 117.717 60.1086 120.326C57.4999 122.935 55.9781 126.63 55.9781 130.326C55.9781 134.022 57.4999 137.717 60.1086 140.326C62.7173 142.935 66.4129 144.457 70.1086 144.457C73.8042 144.457 77.4999 142.935 80.1086 140.326C82.7173 137.717 84.239 134.022 84.239 130.326C84.239 126.63 82.7173 122.935 80.1086 120.326C77.4999 117.717 73.8042 116.196 70.1086 116.196ZM122.935 74.1304C98.0434 50.9783 61.739 55.1087 60.1086 55.2174C56.8477 55.6522 54.4564 58.587 54.8912 61.8478C55.326 65.1087 58.2607 67.5 61.5216 67.0652C61.8477 67.0652 93.9129 63.4783 114.782 82.8261C127.935 95 134.022 113.804 132.935 138.804C132.826 142.065 135.326 144.891 138.696 145C138.804 145 138.913 145 138.913 145C142.065 145 144.782 142.5 144.891 139.239C146.196 110.761 138.804 88.8044 122.935 74.1304Z" fill="black"/>
</svg>
