<svg width="200" height="200" viewBox="0 0 200 200" fill="none" xmlns="http://www.w3.org/2000/svg">
<rect width="200" height="200" rx="5" fill="#FCF185"/>
<g clip-path="url(#clip0_884_2318)">
<path d="M62.8938 108.088L78.2044 92.7775L81.177 95.7501L65.8664 111.061L62.8938 108.088V108.088ZM69.4164 114.595L84.727 99.2847L87.6996 102.257L72.389 117.568L69.4164 114.595V114.595ZM75.9246 121.118L91.2352 105.807L94.2078 108.78L78.8972 124.09L75.9246 121.118ZM82.4617 127.64L97.7723 112.329L100.745 115.302L85.4343 130.612L82.4617 127.64V127.64ZM91.9515 137.143L88.9789 134.17L104.29 118.859L107.262 121.832L91.9515 137.143V137.143Z" fill="black"/>
<path d="M145.693 54.2272C142.529 51.064 133.285 44.9825 119.815 58.4312C117.081 61.1659 114.509 65.0026 112.489 69.7576L88.9178 69.1454L50 107.859L92.0606 149.92L130.754 111.226L130.142 87.39C134.366 85.5329 138.448 83.1452 141.488 80.1044C155.162 66.6352 149.06 57.5945 145.693 54.2272V54.2272ZM92.0606 144.022L55.8979 107.859L90.3872 73.3698L125.509 74.431L125.815 84.8594C123.387 85.7982 120.938 86.5737 118.693 87.1859C118.264 85.8186 117.509 84.5329 116.468 83.4717C114.571 81.7983 112.264 80.7371 109.734 80.7371C107.203 80.7371 104.693 81.7983 102.999 83.4717C101.326 85.3696 100.265 87.6757 100.265 90.2063C100.265 92.7369 101.326 95.2471 102.999 96.9409C104.897 98.6143 107.203 99.6756 109.734 99.6756C112.04 99.6756 114.571 98.8388 116.468 96.7368C117.999 95.2062 118.856 93.2267 119.081 91.1859C121.223 90.6349 123.57 89.941 125.938 89.0839L126.55 109.533L92.0606 144.022V144.022ZM106.367 91.6553C106.693 93.1654 108.101 93.3491 108.897 93.1246C109.224 93.1246 111.428 92.8593 114.632 92.1859C114.366 92.7369 113.999 93.2675 113.53 93.7573C111.632 95.6552 108.06 95.6552 106.162 93.7573C105.326 92.9206 104.693 91.6553 104.693 90.1859C104.693 88.9206 105.326 87.4512 106.162 86.6145C106.999 85.7778 108.264 85.1452 109.734 85.1452C110.999 85.1452 112.264 85.5737 113.53 86.4104C114.06 86.941 114.448 87.5329 114.713 88.1655C110.958 89.0022 108.346 89.3492 108.264 89.3492C106.999 89.5533 106.142 90.6145 106.367 91.6553ZM130.04 83.0023L129.713 70.2066L116.999 69.8801C118.652 66.4515 120.53 63.6148 122.55 61.5945C130.325 53.8191 137.489 52.3497 142.529 57.3904C147.57 62.4312 146.101 69.5944 138.325 77.3698C136.08 79.6146 133.162 81.4717 130.04 83.0023V83.0023Z" fill="black"/>
</g>
<defs>
<clipPath id="clip0_884_2318">
<rect width="100" height="100" fill="white" transform="translate(50 50)"/>
</clipPath>
</defs>
</svg>
