<svg width="200" height="200" viewBox="0 0 200 200" fill="none" xmlns="http://www.w3.org/2000/svg">
<rect width="200" height="200" rx="5" fill="#F0D1B3"/>
<g clip-path="url(#clip0_884_2315)">
<path d="M98.8761 116.202L65.0268 98.3657L55.9702 109.354C68.104 115.823 79.6297 122.042 91.7727 128.474L98.8761 116.202V116.202ZM105.123 96.2864C104.599 97.2036 103.842 97.9656 102.93 98.4951C102.16 98.9478 101.296 99.2136 100.405 99.2714C99.5103 99.3289 98.6154 99.1539 97.8073 98.7631C97.2299 98.4771 96.7087 98.0889 96.2687 97.6172L105.123 96.2864V96.2864ZM90.3815 80.7699C88.8712 79.1747 87.6073 77.3618 86.6317 75.3914C85.5693 73.1933 85.0151 70.783 85.0102 68.3402C85.0587 65.7036 85.7381 63.1173 86.9911 60.7991V60.7529C88.5664 57.9983 91.0149 55.8512 93.947 54.6535C96.2427 53.7289 98.7262 53.3708 101.189 53.6092C103.627 53.8349 105.986 54.5953 108.098 55.8364C110.804 57.4027 112.923 59.8143 114.133 62.7028C114.833 64.3961 115.22 66.2029 115.276 68.0352C115.324 70.1797 114.926 72.3107 114.105 74.2917C112.733 77.6925 109.499 81.3429 107.435 84.6883C107.32 84.6659 107.201 84.6659 107.085 84.6883L104.257 85.1042C110.706 62.4533 108.541 64.3478 102.515 85.3722L98.2404 86.0099L94.4261 73.8296L93.3021 70.2254L93.0165 69.3475C92.9566 69.1404 92.8172 68.9656 92.6289 68.8616C92.4405 68.7576 92.2187 68.7329 92.0122 68.793C91.8058 68.853 91.6315 68.9929 91.5279 69.1818C91.4242 69.3707 91.3996 69.5932 91.4595 69.8003L96.6004 86.2224L93.5048 86.6845C92.8182 84.5256 91.7372 82.5137 90.317 80.7515L90.3815 80.7699ZM99.696 44.7282C99.6998 44.4922 99.7506 44.2595 99.8456 44.0436C99.9405 43.8277 100.078 43.6331 100.249 43.4713C100.588 43.1666 101.028 42.9987 101.483 43H101.594C102.035 43.039 102.447 43.2359 102.755 43.5545C102.918 43.7267 103.045 43.9298 103.129 44.152C103.213 44.3742 103.252 44.6109 103.243 44.8483V44.8483C103.248 44.8789 103.248 44.9101 103.243 44.9407L103.151 48.7667V48.8961C103.101 49.3502 102.885 49.7697 102.545 50.0735C102.204 50.3772 101.764 50.5438 101.308 50.5411H101.179C100.727 50.4908 100.308 50.2741 100.006 49.9328C99.7027 49.5914 99.5367 49.1497 99.5394 48.6928V48.6003L99.6316 44.7466L99.696 44.7282ZM80.2562 51.4744C79.911 51.1453 79.7063 50.6949 79.685 50.2176C79.6745 49.7436 79.8461 49.2837 80.1641 48.933C80.49 48.589 80.9353 48.3838 81.4079 48.3601C81.6439 48.3502 81.8795 48.3876 82.101 48.4701C82.3225 48.5526 82.5253 48.6786 82.6977 48.8406L85.563 51.5207C85.7413 51.6807 85.8856 51.8753 85.9872 52.0926C86.0887 52.31 86.1455 52.5457 86.1541 52.7856C86.1627 53.0254 86.123 53.2646 86.0372 53.4887C85.9515 53.7128 85.8215 53.9173 85.6551 54.0898C85.3293 54.4339 84.8839 54.639 84.4114 54.6628C84.1802 54.6636 83.9511 54.6183 83.7376 54.5295C83.524 54.4406 83.3303 54.31 83.1676 54.1452L80.2562 51.4744ZM75.5667 71.242C75.3342 71.2425 75.1038 71.1971 74.8888 71.1083C74.6738 71.0195 74.4784 70.8891 74.3137 70.7245C74.0537 70.4819 73.8716 70.1673 73.7906 69.8206C73.7096 69.4738 73.7334 69.1108 73.8589 68.7777C73.9845 68.4445 74.206 68.1565 74.4954 67.9502C74.7848 67.7439 75.1289 67.6287 75.4838 67.6193L79.3994 67.4899C79.6348 67.4804 79.8696 67.5189 80.0898 67.6031C80.3099 67.6873 80.5107 67.8154 80.68 67.9797C81.0245 68.3047 81.2266 68.7533 81.242 69.2273V69.292C81.2293 69.7385 81.0559 70.1653 80.7537 70.4934C80.5942 70.6649 80.4018 70.8023 80.1881 70.8976C79.9744 70.9929 79.7438 71.044 79.5099 71.0479H79.4823L75.6128 71.1773L75.5667 71.242ZM124.295 65.6971H124.351C124.804 65.6784 125.248 65.8346 125.591 66.1336C125.933 66.4326 126.149 66.8517 126.193 67.3051V67.3051C126.193 67.3051 126.193 67.3606 126.193 67.3698C126.22 67.8249 126.073 68.2731 125.782 68.6233C125.491 68.9736 125.078 69.1995 124.627 69.2551L120.73 69.6617C120.497 69.6876 120.261 69.6666 120.037 69.6C119.812 69.5333 119.603 69.4223 119.421 69.2735C119.056 68.9696 118.822 68.5359 118.767 68.0629C118.727 67.5907 118.869 67.1209 119.164 66.7506C119.314 66.5653 119.499 66.4124 119.71 66.3012C119.921 66.19 120.152 66.1228 120.389 66.1037C121.688 65.9651 122.996 65.808 124.295 65.6878V65.6971ZM116.575 50.042C116.849 49.6465 117.266 49.374 117.738 49.2825C118.209 49.191 118.698 49.2878 119.099 49.5522V49.5522C119.296 49.6794 119.465 49.846 119.595 50.0416C119.725 50.2372 119.813 50.4575 119.855 50.6889C119.901 50.9204 119.902 51.1588 119.856 51.3904C119.81 51.622 119.719 51.8422 119.587 52.0382L117.413 55.3004C117.283 55.4979 117.115 55.6675 116.919 55.7993C116.723 55.9311 116.503 56.0225 116.272 56.068C116.04 56.1136 115.802 56.1125 115.571 56.0648C115.34 56.0171 115.12 55.9238 114.925 55.7902C114.73 55.6607 114.561 55.4936 114.43 55.2985C114.299 55.1034 114.207 54.8842 114.161 54.6535C114.076 54.1848 114.175 53.7015 114.437 53.3043L116.611 50.0328L116.575 50.042ZM106.357 86.897L106.072 88.2833L105.998 89.2074L94.4261 90.9356C94.3806 90.1885 94.2727 89.4466 94.1036 88.7176L106.357 86.8693V86.897ZM105.97 91.3145V91.8967V92.1C105.998 92.4815 105.998 92.8645 105.97 93.2459L105.795 94.0777L95.0895 95.6765L94.9052 95.2421L94.4814 93.5232V93.0241L105.979 91.3052L105.97 91.3145ZM86.079 87.1928L67.1919 96.6006L100.673 114.233L134.181 96.6006L114.953 86.435H114.843L115.672 85.2705L116.363 84.3464L135.406 94.1239L145.946 84.0691L129.234 74.9848C130.054 74.4728 130.78 73.8225 131.38 73.0625L131.436 72.9979L149.318 82.4796C149.433 82.542 149.538 82.6198 149.632 82.7107C149.755 82.8305 149.854 82.974 149.921 83.1328C149.988 83.2916 150.023 83.4623 150.023 83.6348C150.023 83.8073 149.988 83.978 149.921 84.1368C149.854 84.2956 149.755 84.4391 149.632 84.559L138.087 95.889L149.254 109.289C149.367 109.42 149.454 109.572 149.507 109.737C149.56 109.902 149.58 110.076 149.564 110.249C149.549 110.422 149.499 110.589 149.417 110.742C149.335 110.895 149.223 111.029 149.088 111.137C149.008 111.204 148.922 111.263 148.83 111.313L138.806 116.581V136.496C138.807 136.751 138.732 137.001 138.591 137.213C138.45 137.426 138.249 137.591 138.014 137.688L101.797 156.171C101.656 156.327 101.48 156.447 101.283 156.519C101.086 156.591 100.874 156.614 100.666 156.586C100.459 156.558 100.261 156.479 100.09 156.357C99.9194 156.235 99.781 156.073 99.6868 155.885L63.4053 137.651C63.192 137.543 63.0128 137.378 62.8875 137.174C62.7623 136.97 62.6959 136.736 62.6959 136.496V116.682L52.4784 111.276C52.3869 111.226 52.3005 111.167 52.2205 111.1C52.0854 110.992 51.9735 110.858 51.8917 110.705C51.8098 110.552 51.7596 110.385 51.7441 110.212C51.7286 110.039 51.7481 109.865 51.8015 109.7C51.8549 109.535 51.941 109.383 52.0546 109.252L62.8986 96.2402L50.3133 84.2447C50.1976 84.1164 50.1088 83.966 50.0525 83.8025C49.9961 83.6389 49.9733 83.4656 49.9853 83.293C49.9974 83.1204 50.044 82.952 50.1226 82.7979C50.2011 82.6439 50.3099 82.5073 50.4423 82.3964C50.5136 82.3269 50.5942 82.2678 50.6819 82.2209L67.2656 72.7945L67.3854 73.081C67.7691 73.9053 68.272 74.6683 68.8779 75.3452L53.8696 83.9213L65.3585 94.5582L84.5956 84.9748L85.0102 85.4554C85.3321 85.8607 85.613 86.2972 85.8486 86.7584L86.079 87.1928ZM136.604 98.1717L102.442 116.202L109.609 128.595L145.541 109.012L136.604 98.1717Z" fill="black"/>
</g>
<defs>
<clipPath id="clip0_884_2315">
<rect width="100" height="113.559" fill="white" transform="translate(50 43)"/>
</clipPath>
</defs>
</svg>
