<svg width="200" height="200" viewBox="0 0 200 200" fill="none" xmlns="http://www.w3.org/2000/svg">
<rect width="200" height="200" rx="5" fill="#EFF1C8"/>
<g clip-path="url(#clip0_884_2312)">
<path fill-rule="evenodd" clip-rule="evenodd" d="M57.4269 44H142.564C144.535 44.0024 146.425 44.7806 147.819 46.164C149.213 47.5473 149.998 49.4228 150 51.3792V122.497C149.993 124.451 149.207 126.323 147.813 127.704C146.42 129.085 144.533 129.862 142.564 129.867H107.727V129.721C107.727 128.485 107.727 127.276 107.671 125.253H143.523C143.793 125.253 144.06 125.2 144.309 125.097C144.558 124.995 144.785 124.844 144.975 124.655C145.165 124.465 145.316 124.24 145.418 123.992C145.521 123.744 145.573 123.479 145.572 123.211V61.8162H54.7237V123.211C54.7219 123.384 54.7436 123.557 54.7883 123.724C54.6765 124.202 54.6177 124.69 54.613 125.18C54.5877 126.495 54.8588 127.799 55.4064 128.998C55.5005 129.219 55.6115 129.434 55.7385 129.638V129.638C54.1153 129.256 52.6681 128.345 51.628 127.05C50.5878 125.756 50.0146 124.153 50 122.497V51.3792C50.0024 49.4244 50.7854 47.5503 52.1774 46.1672C53.5694 44.7841 55.4571 44.0048 57.4269 44V44ZM74.7993 107.235C75.2224 107.207 75.6469 107.264 76.0465 107.405C76.4462 107.545 76.8126 107.766 77.1231 108.052C77.4335 108.339 77.6814 108.686 77.8514 109.071C78.0214 109.457 78.1099 109.873 78.1114 110.293V129.904H80.1135V120.282C80.1135 116.391 86.2949 116.51 86.2949 120.501V130.114H86.3871H88.5552V122.442C88.5552 118.551 94.7366 118.67 94.7366 122.653V129.757H96.9139V124.347C96.9139 120.456 103.095 120.575 103.095 124.557C103.095 129.043 103.354 134.335 103.188 138.812C103.012 143.728 101.988 149.267 98.3993 152.362C96.5293 153.991 94.3173 155.188 91.9237 155.864C89.5301 156.54 87.0149 156.679 84.5604 156.271C76.0541 154.934 73.9044 149.762 69.8542 143.39L59.5673 127.221C58.9307 125.747 59.0137 124.75 59.6503 124.109C62.4181 122.351 66.8281 126.086 71.7548 131.369H71.9301V110.083C71.9325 109.328 72.2356 108.606 72.7731 108.072C73.3107 107.539 74.0391 107.238 74.7993 107.235V107.235ZM65.9424 80.8958C65.5157 80.1845 65.3803 79.3379 65.564 78.5305C65.7478 77.7231 66.2367 77.0165 66.93 76.5563C67.6233 76.096 68.4681 75.9173 69.2903 76.057C70.1124 76.1966 70.8493 76.644 71.3488 77.3069L73.111 79.2295L78.2867 72.8208C78.8348 72.1603 79.6249 71.743 80.4831 71.6606C81.3412 71.5782 82.1973 71.8374 82.8628 72.3813C83.5284 72.9252 83.9489 73.7092 84.032 74.5608C84.115 75.4124 83.8538 76.2619 83.3057 76.9224L75.4821 86.2516C75.2634 86.5339 75.0019 86.781 74.7071 86.984C74.3499 87.2192 73.9495 87.3821 73.5287 87.4634C73.1079 87.5447 72.6752 87.5427 72.2552 87.4577C71.8352 87.3726 71.4362 87.2061 71.0812 86.9677C70.7262 86.7293 70.4221 86.4237 70.1864 86.0685L65.9424 80.8683V80.8958ZM131.308 106.778C132.182 106.733 133.004 106.357 133.607 105.727C134.209 105.098 134.544 104.263 134.544 103.395C134.544 102.527 134.209 101.692 133.607 101.063C133.004 100.433 132.182 100.057 131.308 100.012H95.6776C95.2151 99.9881 94.7524 100.058 94.3179 100.217C93.8833 100.376 93.486 100.622 93.15 100.938C92.8141 101.255 92.5465 101.636 92.3637 102.058C92.1809 102.48 92.0866 102.935 92.0866 103.395C92.0866 103.855 92.1809 104.309 92.3637 104.732C92.5465 105.154 92.8141 105.535 93.15 105.852C93.486 106.168 93.8833 106.413 94.3179 106.573C94.7524 106.732 95.2151 106.802 95.6776 106.778H131.308ZM131.308 82.974C132.182 82.9289 133.004 82.5528 133.607 81.9233C134.209 81.2939 134.544 80.4591 134.544 79.5911C134.544 78.7232 134.209 77.8884 133.607 77.2589C133.004 76.6294 132.182 76.2534 131.308 76.2083H95.6776C95.2151 76.1844 94.7524 76.2542 94.3179 76.4134C93.8833 76.5726 93.486 76.8179 93.15 77.1344C92.8141 77.4509 92.5465 77.8319 92.3637 78.2542C92.1809 78.6766 92.0866 79.1315 92.0866 79.5911C92.0866 80.0508 92.1809 80.5057 92.3637 80.928C92.5465 81.3504 92.8141 81.7314 93.15 82.0479C93.486 82.3643 93.8833 82.6097 94.3179 82.7689C94.7524 82.9281 95.2151 82.9979 95.6776 82.974H131.308ZM66.2746 94.0153H83.2134C83.8276 94.0153 84.4166 94.2574 84.8509 94.6883C85.2851 95.1193 85.5291 95.7038 85.5291 96.3132V110.476C85.5267 111.085 85.2819 111.668 84.8482 112.099C84.4144 112.529 83.8268 112.772 83.2134 112.774H82.7244V110.293C82.7422 108.485 82.0849 106.733 80.8792 105.377V98.6112H68.5903V106.027C67.7845 107.229 67.3544 108.639 67.354 110.083V112.774H66.2746C65.6611 112.772 65.0735 112.529 64.6398 112.099C64.206 111.668 63.9613 111.085 63.9589 110.476V96.3132C63.9589 95.7038 64.2028 95.1193 64.6371 94.6883C65.0714 94.2574 65.6604 94.0153 66.2746 94.0153V94.0153ZM135.488 50.4087C136.217 50.4087 136.931 50.6235 137.538 51.0259C138.145 51.4283 138.618 52.0002 138.897 52.6694C139.176 53.3385 139.249 54.0749 139.107 54.7852C138.965 55.4956 138.613 56.1481 138.097 56.6603C137.581 57.1725 136.923 57.5212 136.208 57.6625C135.492 57.8038 134.75 57.7313 134.075 57.4541C133.401 57.177 132.825 56.7076 132.419 56.1054C132.014 55.5031 131.797 54.7951 131.797 54.0708C131.797 53.0995 132.186 52.1681 132.878 51.4813C133.57 50.7945 134.509 50.4087 135.488 50.4087ZM110.624 50.4087C111.354 50.4087 112.067 50.6235 112.674 51.0259C113.281 51.4283 113.754 52.0002 114.033 52.6694C114.312 53.3385 114.386 54.0749 114.243 54.7852C114.101 55.4956 113.749 56.1481 113.233 56.6603C112.717 57.1725 112.059 57.5212 111.344 57.6625C110.628 57.8038 109.886 57.7313 109.211 57.4541C108.537 57.177 107.961 56.7076 107.555 56.1054C107.15 55.5031 106.933 54.7951 106.933 54.0708C106.933 53.0995 107.322 52.1681 108.014 51.4813C108.706 50.7945 109.645 50.4087 110.624 50.4087ZM123.06 50.4087C123.79 50.4087 124.504 50.6235 125.111 51.0259C125.717 51.4283 126.19 52.0002 126.47 52.6694C126.749 53.3385 126.822 54.0749 126.68 54.7852C126.537 55.4956 126.186 56.1481 125.67 56.6603C125.154 57.1725 124.496 57.5212 123.78 57.6625C123.064 57.8038 122.322 57.7313 121.648 57.4541C120.974 57.177 120.397 56.7076 119.992 56.1054C119.586 55.5031 119.37 54.7951 119.37 54.0708C119.37 53.0995 119.759 52.1681 120.451 51.4813C121.143 50.7945 122.082 50.4087 123.06 50.4087Z" fill="black"/>
</g>
<defs>
<clipPath id="clip0_884_2312">
<rect width="100" height="112.5" fill="white" transform="translate(50 44)"/>
</clipPath>
</defs>
</svg>
