<svg width="200" height="200" viewBox="0 0 200 200" fill="none" xmlns="http://www.w3.org/2000/svg">
<rect width="200" height="200" rx="5" fill="#41D1E1"/>
<path d="M116.52 71.16L128.98 83.6199C131.78 86.2799 131.78 90.76 128.98 93.42L96.5 125.76V96.22V81.2399L106.58 71.02C109.24 68.36 113.86 68.36 116.52 71.16Z" fill="black"/>
<path d="M82.5 58H65C61.08 58 58 61.08 58 65V126.32C58 135 65 142 73.68 142C82.36 142 89.36 135 89.36 126.32V65C89.5 61.08 86.28 58 82.5 58ZM73.68 133.32C69.76 133.32 66.68 130.24 66.68 126.32C66.68 122.4 69.76 119.32 73.68 119.32C77.6 119.32 80.68 122.4 80.68 126.32C80.68 130.24 77.6 133.32 73.68 133.32Z" fill="black"/>
<path d="M135 110.5H122.68L114.28 118.9H133.6L133.46 133.6H99.7201L91.3201 142H135C138.92 142 142 138.92 142 135V117.5C142 113.72 138.92 110.5 135 110.5Z" fill="black"/>
</svg>
