<svg width="234" height="60" viewBox="0 0 234 60" fill="none" xmlns="http://www.w3.org/2000/svg">
<path d="M234 5H0V55H234V5Z" fill="black" fill-opacity="0.14"/>
<path d="M234 5H0V55H234V5Z" fill="url(#paint0_linear_948_2029)"/>
<g opacity="0.804">
<path d="M102 17H81C80.4477 17 80 17.4477 80 18V20C80 20.5523 80.4477 21 81 21H102C102.552 21 103 20.5523 103 20V18C103 17.4477 102.552 17 102 17Z" fill="white"/>
<path d="M102 25H81C80.4477 25 80 25.4477 80 26V28C80 28.5523 80.4477 29 81 29H102C102.552 29 103 28.5523 103 28V26C103 25.4477 102.552 25 102 25Z" fill="white"/>
<path d="M102 33H81C80.4477 33 80 33.4477 80 34V36C80 36.5523 80.4477 37 81 37H102C102.552 37 103 36.5523 103 36V34C103 33.4477 102.552 33 102 33Z" fill="white"/>
<path d="M102 41H81C80.4477 41 80 41.4477 80 42V44C80 44.5523 80.4477 45 81 45H102C102.552 45 103 44.5523 103 44V42C103 41.4477 102.552 41 102 41Z" fill="white"/>
<path d="M139 17H118C117.448 17 117 17.4477 117 18V20C117 20.5523 117.448 21 118 21H139C139.552 21 140 20.5523 140 20V18C140 17.4477 139.552 17 139 17Z" fill="white"/>
<path d="M139 25H118C117.448 25 117 25.4477 117 26V28C117 28.5523 117.448 29 118 29H139C139.552 29 140 28.5523 140 28V26C140 25.4477 139.552 25 139 25Z" fill="white"/>
<path d="M139 33H118C117.448 33 117 33.4477 117 34V36C117 36.5523 117.448 37 118 37H139C139.552 37 140 36.5523 140 36V34C140 33.4477 139.552 33 139 33Z" fill="white"/>
<path d="M139 41H118C117.448 41 117 41.4477 117 42V44C117 44.5523 117.448 45 118 45H139C139.552 45 140 44.5523 140 44V42C140 41.4477 139.552 41 139 41Z" fill="white"/>
<path d="M176 17H155C154.448 17 154 17.4477 154 18V20C154 20.5523 154.448 21 155 21H176C176.552 21 177 20.5523 177 20V18C177 17.4477 176.552 17 176 17Z" fill="white"/>
<path d="M176 25H155C154.448 25 154 25.4477 154 26V28C154 28.5523 154.448 29 155 29H176C176.552 29 177 28.5523 177 28V26C177 25.4477 176.552 25 176 25Z" fill="white"/>
<path d="M176 33H155C154.448 33 154 33.4477 154 34V36C154 36.5523 154.448 37 155 37H176C176.552 37 177 36.5523 177 36V34C177 33.4477 176.552 33 176 33Z" fill="white"/>
<path d="M176 41H155C154.448 41 154 41.4477 154 42V44C154 44.5523 154.448 45 155 45H176C176.552 45 177 44.5523 177 44V42C177 41.4477 176.552 41 176 41Z" fill="white"/>
<path d="M213 17H192C191.448 17 191 17.4477 191 18V20C191 20.5523 191.448 21 192 21H213C213.552 21 214 20.5523 214 20V18C214 17.4477 213.552 17 213 17Z" fill="white"/>
<path d="M213 25H192C191.448 25 191 25.4477 191 26V28C191 28.5523 191.448 29 192 29H213C213.552 29 214 28.5523 214 28V26C214 25.4477 213.552 25 213 25Z" fill="white"/>
<path d="M213 33H192C191.448 33 191 33.4477 191 34V36C191 36.5523 191.448 37 192 37H213C213.552 37 214 36.5523 214 36V34C214 33.4477 213.552 33 213 33Z" fill="white"/>
<path d="M213 41H192C191.448 41 191 41.4477 191 42V44C191 44.5523 191.448 45 192 45H213C213.552 45 214 44.5523 214 44V42C214 41.4477 213.552 41 213 41Z" fill="white"/>
</g>
<rect x="20" y="5" width="49" height="50" fill="#E5E2FA" fill-opacity="0.25"/>
<g opacity="0.804">
<path d="M60 17H39C38.4477 17 38 17.4477 38 18V20C38 20.5523 38.4477 21 39 21H60C60.5523 21 61 20.5523 61 20V18C61 17.4477 60.5523 17 60 17Z" fill="white"/>
</g>
<g opacity="0.804">
<path d="M52 24H39C38.4477 24 38 24.4477 38 25V27C38 27.5523 38.4477 28 39 28H52C52.5523 28 53 27.5523 53 27V25C53 24.4477 52.5523 24 52 24Z" fill="white"/>
</g>
<path d="M34 21.5C34 19.0147 31.9853 17 29.5 17C27.0147 17 25 19.0147 25 21.5C25 23.9853 27.0147 26 29.5 26C31.9853 26 34 23.9853 34 21.5Z" fill="white"/>
<g opacity="0.804">
<path d="M60 33H39C38.4477 33 38 33.4477 38 34V36C38 36.5523 38.4477 37 39 37H60C60.5523 37 61 36.5523 61 36V34C61 33.4477 60.5523 33 60 33Z" fill="white"/>
</g>
<g opacity="0.804">
<path d="M52 40H39C38.4477 40 38 40.4477 38 41V43C38 43.5523 38.4477 44 39 44H52C52.5523 44 53 43.5523 53 43V41C53 40.4477 52.5523 40 52 40Z" fill="white"/>
</g>
<path d="M34 37.5C34 35.0147 31.9853 33 29.5 33C27.0147 33 25 35.0147 25 37.5C25 39.9853 27.0147 42 29.5 42C31.9853 42 34 39.9853 34 37.5Z" fill="white"/>
<defs>
<linearGradient id="paint0_linear_948_2029" x1="-2.46036e-07" y1="28.8585" x2="224.248" y2="76.7778" gradientUnits="userSpaceOnUse">
<stop stop-color="#6C5DD3"/>
<stop offset="0.911458" stop-color="#9282FF"/>
</linearGradient>
</defs>
</svg>
