<svg width="234" height="60" viewBox="0 0 234 60" fill="none" xmlns="http://www.w3.org/2000/svg">
<path d="M234 5H0V55H234V5Z" fill="black" fill-opacity="0.14"/>
<path d="M234 5H0V55H234V5Z" fill="url(#paint0_linear_948_2442)"/>
<g opacity="0.804">
<path d="M42 35H21C20.4477 35 20 35.4477 20 36V38C20 38.5523 20.4477 39 21 39H42C42.5523 39 43 38.5523 43 38V36C43 35.4477 42.5523 35 42 35Z" fill="white"/>
<path d="M42 43H21C20.4477 43 20 43.4477 20 44V46C20 46.5523 20.4477 47 21 47H42C42.5523 47 43 46.5523 43 46V44C43 43.4477 42.5523 43 42 43Z" fill="white"/>
<path d="M92 35H71C70.4477 35 70 35.4477 70 36V38C70 38.5523 70.4477 39 71 39H92C92.5523 39 93 38.5523 93 38V36C93 35.4477 92.5523 35 92 35Z" fill="white"/>
<path d="M92 43H71C70.4477 43 70 43.4477 70 44V46C70 46.5523 70.4477 47 71 47H92C92.5523 47 93 46.5523 93 46V44C93 43.4477 92.5523 43 92 43Z" fill="white"/>
<path d="M142 35H121C120.448 35 120 35.4477 120 36V38C120 38.5523 120.448 39 121 39H142C142.552 39 143 38.5523 143 38V36C143 35.4477 142.552 35 142 35Z" fill="white"/>
<path d="M142 43H121C120.448 43 120 43.4477 120 44V46C120 46.5523 120.448 47 121 47H142C142.552 47 143 46.5523 143 46V44C143 43.4477 142.552 43 142 43Z" fill="white"/>
<path d="M192 35H171C170.448 35 170 35.4477 170 36V38C170 38.5523 170.448 39 171 39H192C192.552 39 193 38.5523 193 38V36C193 35.4477 192.552 35 192 35Z" fill="white"/>
<path d="M192 43H171C170.448 43 170 43.4477 170 44V46C170 46.5523 170.448 47 171 47H192C192.552 47 193 46.5523 193 46V44C193 43.4477 192.552 43 192 43Z" fill="white"/>
</g>
<path opacity="0.324" d="M214 26H20V27H214V26Z" fill="white"/>
<path d="M182 17C182 15.3431 180.657 14 179 14C177.343 14 176 15.3431 176 17C176 18.6569 177.343 20 179 20C180.657 20 182 18.6569 182 17Z" fill="white"/>
<path d="M192 17C192 15.3431 190.657 14 189 14C187.343 14 186 15.3431 186 17C186 18.6569 187.343 20 189 20C190.657 20 192 18.6569 192 17Z" fill="white"/>
<path d="M202 17C202 15.3431 200.657 14 199 14C197.343 14 196 15.3431 196 17C196 18.6569 197.343 20 199 20C200.657 20 202 18.6569 202 17Z" fill="white"/>
<path d="M212 17C212 15.3431 210.657 14 209 14C207.343 14 206 15.3431 206 17C206 18.6569 207.343 20 209 20C210.657 20 212 18.6569 212 17Z" fill="white"/>
<path d="M68.4235 13H20.5765C20.2581 13 20 13.4477 20 14V20C20 20.5523 20.2581 21 20.5765 21H68.4235C68.7419 21 69 20.5523 69 20V14C69 13.4477 68.7419 13 68.4235 13Z" fill="white"/>
<path d="M163.953 13H77.0471C76.4688 13 76 13.4477 76 14V20C76 20.5523 76.4688 21 77.0471 21H163.953C164.531 21 165 20.5523 165 20V14C165 13.4477 164.531 13 163.953 13Z" fill="white"/>
<rect x="151" y="14" width="13" height="6" rx="1" fill="#8576F1"/>
<defs>
<linearGradient id="paint0_linear_948_2442" x1="-2.46036e-07" y1="28.8585" x2="224.248" y2="76.7778" gradientUnits="userSpaceOnUse">
<stop stop-color="#6C5DD3"/>
<stop offset="0.911458" stop-color="#9282FF"/>
</linearGradient>
</defs>
</svg>
