<svg width="234" height="60" viewBox="0 0 234 60" fill="none" xmlns="http://www.w3.org/2000/svg">
<path d="M234 5H0V55H234V5Z" fill="black" fill-opacity="0.14"/>
<path d="M234 5H0V55H234V5Z" fill="url(#paint0_linear_948_2144)"/>
<path d="M26 34C26 32.3431 24.6569 31 23 31C21.3431 31 20 32.3431 20 34C20 35.6569 21.3431 37 23 37C24.6569 37 26 35.6569 26 34Z" fill="white"/>
<path d="M36 34C36 32.3431 34.6569 31 33 31C31.3431 31 30 32.3431 30 34C30 35.6569 31.3431 37 33 37C34.6569 37 36 35.6569 36 34Z" fill="white"/>
<path d="M46 34C46 32.3431 44.6569 31 43 31C41.3431 31 40 32.3431 40 34C40 35.6569 41.3431 37 43 37C44.6569 37 46 35.6569 46 34Z" fill="white"/>
<path d="M56 34C56 32.3431 54.6569 31 53 31C51.3431 31 50 32.3431 50 34C50 35.6569 51.3431 37 53 37C54.6569 37 56 35.6569 56 34Z" fill="white"/>
<path d="M66 34C66 32.3431 64.6569 31 63 31C61.3431 31 60 32.3431 60 34C60 35.6569 61.3431 37 63 37C64.6569 37 66 35.6569 66 34Z" fill="white"/>
<g opacity="0.804">
<path d="M105 16H84C83.4477 16 83 16.4477 83 17V19C83 19.5523 83.4477 20 84 20H105C105.552 20 106 19.5523 106 19V17C106 16.4477 105.552 16 105 16Z" fill="white"/>
<path d="M105 24H84C83.4477 24 83 24.4477 83 25V27C83 27.5523 83.4477 28 84 28H105C105.552 28 106 27.5523 106 27V25C106 24.4477 105.552 24 105 24Z" fill="white"/>
<path d="M105 32H84C83.4477 32 83 32.4477 83 33V35C83 35.5523 83.4477 36 84 36H105C105.552 36 106 35.5523 106 35V33C106 32.4477 105.552 32 105 32Z" fill="white"/>
<path d="M105 40H84C83.4477 40 83 40.4477 83 41V43C83 43.5523 83.4477 44 84 44H105C105.552 44 106 43.5523 106 43V41C106 40.4477 105.552 40 105 40Z" fill="white"/>
<path d="M141 16H120C119.448 16 119 16.4477 119 17V19C119 19.5523 119.448 20 120 20H141C141.552 20 142 19.5523 142 19V17C142 16.4477 141.552 16 141 16Z" fill="white"/>
<path d="M141 24H120C119.448 24 119 24.4477 119 25V27C119 27.5523 119.448 28 120 28H141C141.552 28 142 27.5523 142 27V25C142 24.4477 141.552 24 141 24Z" fill="white"/>
<path d="M141 32H120C119.448 32 119 32.4477 119 33V35C119 35.5523 119.448 36 120 36H141C141.552 36 142 35.5523 142 35V33C142 32.4477 141.552 32 141 32Z" fill="white"/>
<path d="M141 40H120C119.448 40 119 40.4477 119 41V43C119 43.5523 119.448 44 120 44H141C141.552 44 142 43.5523 142 43V41C142 40.4477 141.552 40 141 40Z" fill="white"/>
<path d="M177 16H156C155.448 16 155 16.4477 155 17V19C155 19.5523 155.448 20 156 20H177C177.552 20 178 19.5523 178 19V17C178 16.4477 177.552 16 177 16Z" fill="white"/>
<path d="M177 24H156C155.448 24 155 24.4477 155 25V27C155 27.5523 155.448 28 156 28H177C177.552 28 178 27.5523 178 27V25C178 24.4477 177.552 24 177 24Z" fill="white"/>
<path d="M177 32H156C155.448 32 155 32.4477 155 33V35C155 35.5523 155.448 36 156 36H177C177.552 36 178 35.5523 178 35V33C178 32.4477 177.552 32 177 32Z" fill="white"/>
<path d="M177 40H156C155.448 40 155 40.4477 155 41V43C155 43.5523 155.448 44 156 44H177C177.552 44 178 43.5523 178 43V41C178 40.4477 177.552 40 177 40Z" fill="white"/>
<path d="M213 16H192C191.448 16 191 16.4477 191 17V19C191 19.5523 191.448 20 192 20H213C213.552 20 214 19.5523 214 19V17C214 16.4477 213.552 16 213 16Z" fill="white"/>
<path d="M213 24H192C191.448 24 191 24.4477 191 25V27C191 27.5523 191.448 28 192 28H213C213.552 28 214 27.5523 214 27V25C214 24.4477 213.552 24 213 24Z" fill="white"/>
<path d="M213 32H192C191.448 32 191 32.4477 191 33V35C191 35.5523 191.448 36 192 36H213C213.552 36 214 35.5523 214 35V33C214 32.4477 213.552 32 213 32Z" fill="white"/>
<path d="M213 40H192C191.448 40 191 40.4477 191 41V43C191 43.5523 191.448 44 192 44H213C213.552 44 214 43.5523 214 43V41C214 40.4477 213.552 40 213 40Z" fill="white"/>
</g>
<path d="M26.082 23.708V21.843H22.374V16.129H20V23.709H26.082V23.708ZM30.027 23.838C30.879 23.838 31.592 23.68 32.163 23.365C32.7209 23.0628 33.1768 22.6021 33.473 22.041C33.776 21.474 33.927 20.748 33.927 19.862C33.927 18.642 33.581 17.693 32.889 17.016C32.197 16.339 31.212 16 29.932 16C28.685 16 27.712 16.345 27.012 17.034C26.313 17.724 25.964 18.687 25.964 19.924C25.964 20.81 26.14 21.548 26.494 22.137C26.846 22.727 27.307 23.157 27.874 23.429C28.443 23.702 29.16 23.838 30.027 23.838V23.838ZM29.948 22.085C29.452 22.085 29.059 21.918 28.771 21.584C28.483 21.249 28.339 20.7 28.339 19.934C28.339 19.162 28.484 18.609 28.774 18.274C29.064 17.941 29.448 17.774 29.927 17.774C30.427 17.774 30.823 17.938 31.115 18.267C31.406 18.597 31.552 19.117 31.552 19.831C31.552 20.679 31.412 21.267 31.132 21.594C30.853 21.921 30.458 22.085 29.948 22.085V22.085ZM38.239 23.838C38.98 23.838 39.62 23.753 40.16 23.582C40.7 23.412 41.322 23.09 42.024 22.618V19.386H38.354V20.963H39.943V21.677C39.6822 21.8366 39.4045 21.9667 39.115 22.065C38.8689 22.1413 38.6126 22.1794 38.355 22.178C37.795 22.178 37.359 22.002 37.046 21.651C36.734 21.299 36.577 20.713 36.577 19.893C36.577 19.121 36.732 18.557 37.041 18.2C37.351 17.843 37.765 17.665 38.286 17.665C38.636 17.665 38.923 17.741 39.149 17.892C39.374 18.044 39.534 18.262 39.629 18.549L41.919 18.146C41.779 17.656 41.571 17.252 41.293 16.933C41.0102 16.6112 40.6488 16.3683 40.244 16.228C39.824 16.076 39.188 16 38.339 16C37.458 16 36.757 16.122 36.236 16.367C35.5952 16.6596 35.0632 17.1471 34.716 17.76C34.37 18.372 34.197 19.092 34.197 19.919C34.197 20.705 34.355 21.401 34.671 22.008C34.9648 22.5915 35.4318 23.07 36.008 23.378C36.583 23.684 37.327 23.838 38.239 23.838V23.838ZM46.483 23.838C47.336 23.838 48.048 23.68 48.619 23.365C49.1769 23.0628 49.6328 22.6021 49.929 22.041C50.232 21.474 50.383 20.748 50.383 19.862C50.383 18.642 50.037 17.693 49.345 17.016C48.653 16.339 47.668 16 46.388 16C45.141 16 44.168 16.345 43.468 17.034C42.769 17.724 42.42 18.687 42.42 19.924C42.42 20.81 42.596 21.548 42.95 22.137C43.302 22.727 43.763 23.157 44.33 23.429C44.899 23.702 45.616 23.838 46.483 23.838V23.838ZM46.404 22.085C45.908 22.085 45.516 21.918 45.227 21.584C44.939 21.249 44.795 20.7 44.795 19.934C44.795 19.162 44.94 18.609 45.23 18.274C45.52 17.941 45.904 17.774 46.383 17.774C46.883 17.774 47.279 17.938 47.571 18.267C47.863 18.597 48.008 19.117 48.008 19.831C48.008 20.679 47.868 21.267 47.589 21.594C47.309 21.921 46.914 22.085 46.404 22.085Z" fill="white"/>
<defs>
<linearGradient id="paint0_linear_948_2144" x1="-2.46036e-07" y1="28.8585" x2="224.248" y2="76.7778" gradientUnits="userSpaceOnUse">
<stop stop-color="#6C5DD3"/>
<stop offset="0.911458" stop-color="#9282FF"/>
</linearGradient>
</defs>
</svg>
