<svg width="234" height="60" viewBox="0 0 234 60" fill="none" xmlns="http://www.w3.org/2000/svg">
<path d="M234 5H0V55H234V5Z" fill="black" fill-opacity="0.14"/>
<path d="M234 5H0V55H234V5Z" fill="url(#paint0_linear_948_2215)"/>
<path d="M91 12H70C69.4477 12 69 12.4477 69 13V15C69 15.5523 69.4477 16 70 16H91C91.5523 16 92 15.5523 92 15V13C92 12.4477 91.5523 12 91 12Z" fill="white"/>
<path d="M91 20H70C69.4477 20 69 20.4477 69 21V23C69 23.5523 69.4477 24 70 24H91C91.5523 24 92 23.5523 92 23V21C92 20.4477 91.5523 20 91 20Z" fill="white"/>
<path d="M131 12H110C109.448 12 109 12.4477 109 13V15C109 15.5523 109.448 16 110 16H131C131.552 16 132 15.5523 132 15V13C132 12.4477 131.552 12 131 12Z" fill="white"/>
<path d="M131 20H110C109.448 20 109 20.4477 109 21V23C109 23.5523 109.448 24 110 24H131C131.552 24 132 23.5523 132 23V21C132 20.4477 131.552 20 131 20Z" fill="white"/>
<path d="M171 12H150C149.448 12 149 12.4477 149 13V15C149 15.5523 149.448 16 150 16H171C171.552 16 172 15.5523 172 15V13C172 12.4477 171.552 12 171 12Z" fill="white"/>
<path d="M171 20H150C149.448 20 149 20.4477 149 21V23C149 23.5523 149.448 24 150 24H171C171.552 24 172 23.5523 172 23V21C172 20.4477 171.552 20 171 20Z" fill="white"/>
<path d="M211 12H190C189.448 12 189 12.4477 189 13V15C189 15.5523 189.448 16 190 16H211C211.552 16 212 15.5523 212 15V13C212 12.4477 211.552 12 211 12Z" fill="white"/>
<path d="M211 20H190C189.448 20 189 20.4477 189 21V23C189 23.5523 189.448 24 190 24H211C211.552 24 212 23.5523 212 23V21C212 20.4477 211.552 20 211 20Z" fill="white"/>
<path d="M26.082 19.708V17.843H22.374V12.129H20V19.709H26.082V19.708ZM30.027 19.838C30.879 19.838 31.592 19.68 32.163 19.365C32.7209 19.0628 33.1768 18.6021 33.473 18.041C33.776 17.474 33.927 16.748 33.927 15.862C33.927 14.642 33.581 13.693 32.889 13.016C32.197 12.339 31.212 12 29.932 12C28.685 12 27.712 12.345 27.012 13.034C26.313 13.724 25.964 14.687 25.964 15.924C25.964 16.81 26.14 17.548 26.494 18.137C26.846 18.727 27.307 19.157 27.874 19.429C28.443 19.702 29.16 19.838 30.027 19.838V19.838ZM29.948 18.085C29.452 18.085 29.059 17.918 28.771 17.584C28.483 17.249 28.339 16.7 28.339 15.934C28.339 15.162 28.484 14.609 28.774 14.274C29.064 13.941 29.448 13.774 29.927 13.774C30.427 13.774 30.823 13.938 31.115 14.267C31.406 14.597 31.552 15.117 31.552 15.831C31.552 16.679 31.412 17.267 31.132 17.594C30.853 17.921 30.458 18.085 29.948 18.085V18.085ZM38.239 19.838C38.98 19.838 39.62 19.753 40.16 19.582C40.7 19.412 41.322 19.09 42.024 18.618V15.386H38.354V16.963H39.943V17.677C39.6822 17.8366 39.4045 17.9667 39.115 18.065C38.8689 18.1413 38.6126 18.1794 38.355 18.178C37.795 18.178 37.359 18.002 37.046 17.651C36.734 17.299 36.577 16.713 36.577 15.893C36.577 15.121 36.732 14.557 37.041 14.2C37.351 13.843 37.765 13.665 38.286 13.665C38.636 13.665 38.923 13.741 39.149 13.892C39.374 14.044 39.534 14.262 39.629 14.549L41.919 14.146C41.779 13.656 41.571 13.252 41.293 12.933C41.0102 12.6112 40.6488 12.3683 40.244 12.228C39.824 12.076 39.188 12 38.339 12C37.458 12 36.757 12.122 36.236 12.367C35.5952 12.6596 35.0632 13.1471 34.716 13.76C34.37 14.372 34.197 15.092 34.197 15.919C34.197 16.705 34.355 17.401 34.671 18.008C34.9648 18.5915 35.4318 19.07 36.008 19.378C36.583 19.684 37.327 19.838 38.239 19.838V19.838ZM46.483 19.838C47.336 19.838 48.048 19.68 48.619 19.365C49.1769 19.0628 49.6328 18.6021 49.929 18.041C50.232 17.474 50.383 16.748 50.383 15.862C50.383 14.642 50.037 13.693 49.345 13.016C48.653 12.339 47.668 12 46.388 12C45.141 12 44.168 12.345 43.468 13.034C42.769 13.724 42.42 14.687 42.42 15.924C42.42 16.81 42.596 17.548 42.95 18.137C43.302 18.727 43.763 19.157 44.33 19.429C44.899 19.702 45.616 19.838 46.483 19.838V19.838ZM46.404 18.085C45.908 18.085 45.516 17.918 45.227 17.584C44.939 17.249 44.795 16.7 44.795 15.934C44.795 15.162 44.94 14.609 45.23 14.274C45.52 13.941 45.904 13.774 46.383 13.774C46.883 13.774 47.279 13.938 47.571 14.267C47.863 14.597 48.008 15.117 48.008 15.831C48.008 16.679 47.868 17.267 47.589 17.594C47.309 17.921 46.914 18.085 46.404 18.085Z" fill="white"/>
<path d="M42 22.838H21C20.4477 22.838 20 23.2857 20 23.838V25.838C20 26.3903 20.4477 26.838 21 26.838H42C42.5523 26.838 43 26.3903 43 25.838V23.838C43 23.2857 42.5523 22.838 42 22.838Z" fill="white"/>
<path opacity="0.324" d="M214 31H20V32H214V31Z" fill="white"/>
<g opacity="0.804">
<path d="M55 36H34C33.4477 36 33 36.4477 33 37V39C33 39.5523 33.4477 40 34 40H55C55.5523 40 56 39.5523 56 39V37C56 36.4477 55.5523 36 55 36Z" fill="white"/>
</g>
<g opacity="0.804">
<path d="M47 43H34C33.4477 43 33 43.4477 33 44V46C33 46.5523 33.4477 47 34 47H47C47.5523 47 48 46.5523 48 46V44C48 43.4477 47.5523 43 47 43Z" fill="white"/>
</g>
<path d="M29 40.5C29 38.0147 26.9853 36 24.5 36C22.0147 36 20 38.0147 20 40.5C20 42.9853 22.0147 45 24.5 45C26.9853 45 29 42.9853 29 40.5Z" fill="white"/>
<g opacity="0.804">
<path d="M108 36H87C86.4477 36 86 36.4477 86 37V39C86 39.5523 86.4477 40 87 40H108C108.552 40 109 39.5523 109 39V37C109 36.4477 108.552 36 108 36Z" fill="white"/>
</g>
<g opacity="0.804">
<path d="M100 43H87C86.4477 43 86 43.4477 86 44V46C86 46.5523 86.4477 47 87 47H100C100.552 47 101 46.5523 101 46V44C101 43.4477 100.552 43 100 43Z" fill="white"/>
</g>
<path d="M82 40.5C82 38.0147 79.9853 36 77.5 36C75.0147 36 73 38.0147 73 40.5C73 42.9853 75.0147 45 77.5 45C79.9853 45 82 42.9853 82 40.5Z" fill="white"/>
<g opacity="0.804">
<path d="M161 36H140C139.448 36 139 36.4477 139 37V39C139 39.5523 139.448 40 140 40H161C161.552 40 162 39.5523 162 39V37C162 36.4477 161.552 36 161 36Z" fill="white"/>
</g>
<g opacity="0.804">
<path d="M153 43H140C139.448 43 139 43.4477 139 44V46C139 46.5523 139.448 47 140 47H153C153.552 47 154 46.5523 154 46V44C154 43.4477 153.552 43 153 43Z" fill="white"/>
</g>
<path d="M135 40.5C135 38.0147 132.985 36 130.5 36C128.015 36 126 38.0147 126 40.5C126 42.9853 128.015 45 130.5 45C132.985 45 135 42.9853 135 40.5Z" fill="white"/>
<defs>
<linearGradient id="paint0_linear_948_2215" x1="-2.46036e-07" y1="28.8585" x2="224.248" y2="76.7778" gradientUnits="userSpaceOnUse">
<stop stop-color="#6C5DD3"/>
<stop offset="0.911458" stop-color="#9282FF"/>
</linearGradient>
</defs>
</svg>
