<svg width="234" height="60" viewBox="0 0 234 60" fill="none" xmlns="http://www.w3.org/2000/svg">
<path d="M234 5H0V55H234V5Z" fill="black" fill-opacity="0.14"/>
<path d="M234 5H0V55H234V5Z" fill="url(#paint0_linear_948_2523)"/>
<path d="M47 28H26C25.4477 28 25 28.4477 25 29V31C25 31.5523 25.4477 32 26 32H47C47.5523 32 48 31.5523 48 31V29C48 28.4477 47.5523 28 47 28Z" fill="white"/>
<path d="M47 12H26C25.4477 12 25 12.4477 25 13V15C25 15.5523 25.4477 16 26 16H47C47.5523 16 48 15.5523 48 15V13C48 12.4477 47.5523 12 47 12Z" fill="white"/>
<path d="M47 20H26C25.4477 20 25 20.4477 25 21V23C25 23.5523 25.4477 24 26 24H47C47.5523 24 48 23.5523 48 23V21C48 20.4477 47.5523 20 47 20Z" fill="white"/>
<path d="M96 28H75C74.4477 28 74 28.4477 74 29V31C74 31.5523 74.4477 32 75 32H96C96.5523 32 97 31.5523 97 31V29C97 28.4477 96.5523 28 96 28Z" fill="white"/>
<path d="M96 12H75C74.4477 12 74 12.4477 74 13V15C74 15.5523 74.4477 16 75 16H96C96.5523 16 97 15.5523 97 15V13C97 12.4477 96.5523 12 96 12Z" fill="white"/>
<path d="M96 20H75C74.4477 20 74 20.4477 74 21V23C74 23.5523 74.4477 24 75 24H96C96.5523 24 97 23.5523 97 23V21C97 20.4477 96.5523 20 96 20Z" fill="white"/>
<path d="M144 28H123C122.448 28 122 28.4477 122 29V31C122 31.5523 122.448 32 123 32H144C144.552 32 145 31.5523 145 31V29C145 28.4477 144.552 28 144 28Z" fill="white"/>
<path d="M144 12H123C122.448 12 122 12.4477 122 13V15C122 15.5523 122.448 16 123 16H144C144.552 16 145 15.5523 145 15V13C145 12.4477 144.552 12 144 12Z" fill="white"/>
<path d="M144 20H123C122.448 20 122 20.4477 122 21V23C122 23.5523 122.448 24 123 24H144C144.552 24 145 23.5523 145 23V21C145 20.4477 144.552 20 144 20Z" fill="white"/>
<path d="M192 28H171C170.448 28 170 28.4477 170 29V31C170 31.5523 170.448 32 171 32H192C192.552 32 193 31.5523 193 31V29C193 28.4477 192.552 28 192 28Z" fill="white"/>
<path d="M192 12H171C170.448 12 170 12.4477 170 13V15C170 15.5523 170.448 16 171 16H192C192.552 16 193 15.5523 193 15V13C193 12.4477 192.552 12 192 12Z" fill="white"/>
<path d="M192 20H171C170.448 20 170 20.4477 170 21V23C170 23.5523 170.448 24 171 24H192C192.552 24 193 23.5523 193 23V21C193 20.4477 192.552 20 192 20Z" fill="white"/>
<path opacity="0.324" d="M234 37H0V38H234V37Z" fill="white"/>
<path d="M105 46C105 44.3431 103.657 43 102 43C100.343 43 99 44.3431 99 46C99 47.6569 100.343 49 102 49C103.657 49 105 47.6569 105 46Z" fill="white"/>
<path d="M115 46C115 44.3431 113.657 43 112 43C110.343 43 109 44.3431 109 46C109 47.6569 110.343 49 112 49C113.657 49 115 47.6569 115 46Z" fill="white"/>
<path d="M125 46C125 44.3431 123.657 43 122 43C120.343 43 119 44.3431 119 46C119 47.6569 120.343 49 122 49C123.657 49 125 47.6569 125 46Z" fill="white"/>
<path d="M135 46C135 44.3431 133.657 43 132 43C130.343 43 129 44.3431 129 46C129 47.6569 130.343 49 132 49C133.657 49 135 47.6569 135 46Z" fill="white"/>
<rect x="69" y="11" width="0.5" height="23" fill="white" fill-opacity="0.3"/>
<rect x="117" y="11" width="0.5" height="23" fill="white" fill-opacity="0.5"/>
<rect x="165" y="11" width="0.5" height="23" fill="white" fill-opacity="0.3"/>
<defs>
<linearGradient id="paint0_linear_948_2523" x1="-2.46036e-07" y1="28.8585" x2="224.248" y2="76.7778" gradientUnits="userSpaceOnUse">
<stop stop-color="#6C5DD3"/>
<stop offset="0.911458" stop-color="#9282FF"/>
</linearGradient>
</defs>
</svg>
