<svg width="234" height="60" viewBox="0 0 234 60" fill="none" xmlns="http://www.w3.org/2000/svg">
<path d="M234 5H0V55H234V5Z" fill="black" fill-opacity="0.14"/>
<path d="M234 5H0V55H234V5Z" fill="url(#paint0_linear_948_2180)"/>
<g opacity="0.804">
<path d="M92 16H71C70.4477 16 70 16.4477 70 17V19C70 19.5523 70.4477 20 71 20H92C92.5523 20 93 19.5523 93 19V17C93 16.4477 92.5523 16 92 16Z" fill="white"/>
<path d="M92 24H71C70.4477 24 70 24.4477 70 25V27C70 27.5523 70.4477 28 71 28H92C92.5523 28 93 27.5523 93 27V25C93 24.4477 92.5523 24 92 24Z" fill="white"/>
<path d="M92 32H71C70.4477 32 70 32.4477 70 33V35C70 35.5523 70.4477 36 71 36H92C92.5523 36 93 35.5523 93 35V33C93 32.4477 92.5523 32 92 32Z" fill="white"/>
<path d="M92 40H71C70.4477 40 70 40.4477 70 41V43C70 43.5523 70.4477 44 71 44H92C92.5523 44 93 43.5523 93 43V41C93 40.4477 92.5523 40 92 40Z" fill="white"/>
<path d="M140 16H119C118.448 16 118 16.4477 118 17V19C118 19.5523 118.448 20 119 20H140C140.552 20 141 19.5523 141 19V17C141 16.4477 140.552 16 140 16Z" fill="white"/>
<path d="M140 24H119C118.448 24 118 24.4477 118 25V27C118 27.5523 118.448 28 119 28H140C140.552 28 141 27.5523 141 27V25C141 24.4477 140.552 24 140 24Z" fill="white"/>
<path d="M140 32H119C118.448 32 118 32.4477 118 33V35C118 35.5523 118.448 36 119 36H140C140.552 36 141 35.5523 141 35V33C141 32.4477 140.552 32 140 32Z" fill="white"/>
<path d="M140 40H119C118.448 40 118 40.4477 118 41V43C118 43.5523 118.448 44 119 44H140C140.552 44 141 43.5523 141 43V41C141 40.4477 140.552 40 140 40Z" fill="white"/>
<path d="M188 16H167C166.448 16 166 16.4477 166 17V19C166 19.5523 166.448 20 167 20H188C188.552 20 189 19.5523 189 19V17C189 16.4477 188.552 16 188 16Z" fill="white"/>
<path d="M206.174 24H167.826C166.818 24 166 24.4477 166 25V27C166 27.5523 166.818 28 167.826 28H206.174C207.182 28 208 27.5523 208 27V25C208 24.4477 207.182 24 206.174 24Z" fill="white"/>
<path d="M193.739 32H167.261C166.565 32 166 32.4477 166 33V35C166 35.5523 166.565 36 167.261 36H193.739C194.435 36 195 35.5523 195 35V33C195 32.4477 194.435 32 193.739 32Z" fill="white"/>
<path d="M188 40H167C166.448 40 166 40.4477 166 41V43C166 43.5523 166.448 44 167 44H188C188.552 44 189 43.5523 189 43V41C189 40.4477 188.552 40 188 40Z" fill="white"/>
</g>
<path d="M26.082 23.708V21.843H22.374V16.129H20V23.709H26.082V23.708ZM30.027 23.838C30.879 23.838 31.592 23.68 32.163 23.365C32.7209 23.0628 33.1768 22.6021 33.473 22.041C33.776 21.474 33.927 20.748 33.927 19.862C33.927 18.642 33.581 17.693 32.889 17.016C32.197 16.339 31.212 16 29.932 16C28.685 16 27.712 16.345 27.012 17.034C26.313 17.724 25.964 18.687 25.964 19.924C25.964 20.81 26.14 21.548 26.494 22.137C26.846 22.727 27.307 23.157 27.874 23.429C28.443 23.702 29.16 23.838 30.027 23.838V23.838ZM29.948 22.085C29.452 22.085 29.059 21.918 28.771 21.584C28.483 21.249 28.339 20.7 28.339 19.934C28.339 19.162 28.484 18.609 28.774 18.274C29.064 17.941 29.448 17.774 29.927 17.774C30.427 17.774 30.823 17.938 31.115 18.267C31.406 18.597 31.552 19.117 31.552 19.831C31.552 20.679 31.412 21.267 31.132 21.594C30.853 21.921 30.458 22.085 29.948 22.085V22.085ZM38.239 23.838C38.98 23.838 39.62 23.753 40.16 23.582C40.7 23.412 41.322 23.09 42.024 22.618V19.386H38.354V20.963H39.943V21.677C39.6822 21.8366 39.4045 21.9667 39.115 22.065C38.8689 22.1413 38.6126 22.1794 38.355 22.178C37.795 22.178 37.359 22.002 37.046 21.651C36.734 21.299 36.577 20.713 36.577 19.893C36.577 19.121 36.732 18.557 37.041 18.2C37.351 17.843 37.765 17.665 38.286 17.665C38.636 17.665 38.923 17.741 39.149 17.892C39.374 18.044 39.534 18.262 39.629 18.549L41.919 18.146C41.779 17.656 41.571 17.252 41.293 16.933C41.0102 16.6112 40.6488 16.3683 40.244 16.228C39.824 16.076 39.188 16 38.339 16C37.458 16 36.757 16.122 36.236 16.367C35.5952 16.6596 35.0632 17.1471 34.716 17.76C34.37 18.372 34.197 19.092 34.197 19.919C34.197 20.705 34.355 21.401 34.671 22.008C34.9648 22.5915 35.4318 23.07 36.008 23.378C36.583 23.684 37.327 23.838 38.239 23.838V23.838ZM46.483 23.838C47.336 23.838 48.048 23.68 48.619 23.365C49.1769 23.0628 49.6328 22.6021 49.929 22.041C50.232 21.474 50.383 20.748 50.383 19.862C50.383 18.642 50.037 17.693 49.345 17.016C48.653 16.339 47.668 16 46.388 16C45.141 16 44.168 16.345 43.468 17.034C42.769 17.724 42.42 18.687 42.42 19.924C42.42 20.81 42.596 21.548 42.95 22.137C43.302 22.727 43.763 23.157 44.33 23.429C44.899 23.702 45.616 23.838 46.483 23.838V23.838ZM46.404 22.085C45.908 22.085 45.516 21.918 45.227 21.584C44.939 21.249 44.795 20.7 44.795 19.934C44.795 19.162 44.94 18.609 45.23 18.274C45.52 17.941 45.904 17.774 46.383 17.774C46.883 17.774 47.279 17.938 47.571 18.267C47.863 18.597 48.008 19.117 48.008 19.831C48.008 20.679 47.868 21.267 47.589 21.594C47.309 21.921 46.914 22.085 46.404 22.085Z" fill="white"/>
<path d="M42 32H21C20.4477 32 20 32.4477 20 33V35C20 35.5523 20.4477 36 21 36H42C42.5523 36 43 35.5523 43 35V33C43 32.4477 42.5523 32 42 32Z" fill="white"/>
<path d="M42 40H21C20.4477 40 20 40.4477 20 41V43C20 43.5523 20.4477 44 21 44H42C42.5523 44 43 43.5523 43 43V41C43 40.4477 42.5523 40 42 40Z" fill="white"/>
<defs>
<linearGradient id="paint0_linear_948_2180" x1="-2.46036e-07" y1="28.8585" x2="224.248" y2="76.7778" gradientUnits="userSpaceOnUse">
<stop stop-color="#6C5DD3"/>
<stop offset="0.911458" stop-color="#9282FF"/>
</linearGradient>
</defs>
</svg>
