<svg width="234" height="60" viewBox="0 0 234 60" fill="none" xmlns="http://www.w3.org/2000/svg">
<path d="M234 5H0V55H234V5Z" fill="black" fill-opacity="0.14"/>
<path d="M234 5H0V55H234V5Z" fill="url(#paint0_linear_948_2269)"/>
<path d="M41 31H20C19.4477 31 19 31.4477 19 32V34C19 34.5523 19.4477 35 20 35H41C41.5523 35 42 34.5523 42 34V32C42 31.4477 41.5523 31 41 31Z" fill="white"/>
<path d="M41 39H20C19.4477 39 19 39.4477 19 40V42C19 42.5523 19.4477 43 20 43H41C41.5523 43 42 42.5523 42 42V40C42 39.4477 41.5523 39 41 39Z" fill="white"/>
<path d="M41 47H20C19.4477 47 19 47.4477 19 48V50C19 50.5523 19.4477 51 20 51H41C41.5523 51 42 50.5523 42 50V48C42 47.4477 41.5523 47 41 47Z" fill="white"/>
<path d="M84 31H63C62.4477 31 62 31.4477 62 32V34C62 34.5523 62.4477 35 63 35H84C84.5523 35 85 34.5523 85 34V32C85 31.4477 84.5523 31 84 31Z" fill="white"/>
<path d="M84 39H63C62.4477 39 62 39.4477 62 40V42C62 42.5523 62.4477 43 63 43H84C84.5523 43 85 42.5523 85 42V40C85 39.4477 84.5523 39 84 39Z" fill="white"/>
<path d="M84 47H63C62.4477 47 62 47.4477 62 48V50C62 50.5523 62.4477 51 63 51H84C84.5523 51 85 50.5523 85 50V48C85 47.4477 84.5523 47 84 47Z" fill="white"/>
<path d="M127 31H106C105.448 31 105 31.4477 105 32V34C105 34.5523 105.448 35 106 35H127C127.552 35 128 34.5523 128 34V32C128 31.4477 127.552 31 127 31Z" fill="white"/>
<path d="M127 39H106C105.448 39 105 39.4477 105 40V42C105 42.5523 105.448 43 106 43H127C127.552 43 128 42.5523 128 42V40C128 39.4477 127.552 39 127 39Z" fill="white"/>
<path d="M127 47H106C105.448 47 105 47.4477 105 48V50C105 50.5523 105.448 51 106 51H127C127.552 51 128 50.5523 128 50V48C128 47.4477 127.552 47 127 47Z" fill="white"/>
<path d="M170 31H149C148.448 31 148 31.4477 148 32V34C148 34.5523 148.448 35 149 35H170C170.552 35 171 34.5523 171 34V32C171 31.4477 170.552 31 170 31Z" fill="white"/>
<path d="M170 39H149C148.448 39 148 39.4477 148 40V42C148 42.5523 148.448 43 149 43H170C170.552 43 171 42.5523 171 42V40C171 39.4477 170.552 39 170 39Z" fill="white"/>
<path d="M170 47H149C148.448 47 148 47.4477 148 48V50C148 50.5523 148.448 51 149 51H170C170.552 51 171 50.5523 171 50V48C171 47.4477 170.552 47 170 47Z" fill="white"/>
<path d="M213 31H192C191.448 31 191 31.4477 191 32V34C191 34.5523 191.448 35 192 35H213C213.552 35 214 34.5523 214 34V32C214 31.4477 213.552 31 213 31Z" fill="white"/>
<path d="M213 39H192C191.448 39 191 39.4477 191 40V42C191 42.5523 191.448 43 192 43H213C213.552 43 214 42.5523 214 42V40C214 39.4477 213.552 39 213 39Z" fill="white"/>
<path d="M213 47H192C191.448 47 191 47.4477 191 48V50C191 50.5523 191.448 51 192 51H213C213.552 51 214 50.5523 214 50V48C214 47.4477 213.552 47 213 47Z" fill="white"/>
<path d="M78.3059 11H20.6941C20.3108 11 20 11.4477 20 12V18C20 18.5523 20.3108 19 20.6941 19H78.3059C78.6892 19 79 18.5523 79 18V12C79 11.4477 78.6892 11 78.3059 11Z" fill="white"/>
<path d="M146.294 11H87.7059C87.316 11 87 11.4477 87 12V18C87 18.5523 87.316 19 87.7059 19H146.294C146.684 19 147 18.5523 147 18V12C147 11.4477 146.684 11 146.294 11Z" fill="white"/>
<path d="M213.306 11H155.694C155.311 11 155 11.4477 155 12V18C155 18.5523 155.311 19 155.694 19H213.306C213.689 19 214 18.5523 214 18V12C214 11.4477 213.689 11 213.306 11Z" fill="white"/>
<defs>
<linearGradient id="paint0_linear_948_2269" x1="-2.46036e-07" y1="28.8585" x2="224.248" y2="76.7778" gradientUnits="userSpaceOnUse">
<stop stop-color="#6C5DD3"/>
<stop offset="0.911458" stop-color="#9282FF"/>
</linearGradient>
</defs>
</svg>
