<svg width="234" height="60" viewBox="0 0 234 60" fill="none" xmlns="http://www.w3.org/2000/svg">
<path d="M234 5H0V55H234V5Z" fill="black" fill-opacity="0.14"/>
<path d="M234 5H0V55H234V5Z" fill="url(#paint0_linear_948_2372)"/>
<path d="M26 39C26 37.3431 24.6569 36 23 36C21.3431 36 20 37.3431 20 39C20 40.6569 21.3431 42 23 42C24.6569 42 26 40.6569 26 39Z" fill="white"/>
<path d="M36 39C36 37.3431 34.6569 36 33 36C31.3431 36 30 37.3431 30 39C30 40.6569 31.3431 42 33 42C34.6569 42 36 40.6569 36 39Z" fill="white"/>
<path d="M46 39C46 37.3431 44.6569 36 43 36C41.3431 36 40 37.3431 40 39C40 40.6569 41.3431 42 43 42C44.6569 42 46 40.6569 46 39Z" fill="white"/>
<path d="M56 39C56 37.3431 54.6569 36 53 36C51.3431 36 50 37.3431 50 39C50 40.6569 51.3431 42 53 42C54.6569 42 56 40.6569 56 39Z" fill="white"/>
<g opacity="0.804">
<path d="M105 16H84C83.4477 16 83 16.4477 83 17V19C83 19.5523 83.4477 20 84 20H105C105.552 20 106 19.5523 106 19V17C106 16.4477 105.552 16 105 16Z" fill="white"/>
<path d="M105 24H84C83.4477 24 83 24.4477 83 25V27C83 27.5523 83.4477 28 84 28H105C105.552 28 106 27.5523 106 27V25C106 24.4477 105.552 24 105 24Z" fill="white"/>
<path d="M105 32H84C83.4477 32 83 32.4477 83 33V35C83 35.5523 83.4477 36 84 36H105C105.552 36 106 35.5523 106 35V33C106 32.4477 105.552 32 105 32Z" fill="white"/>
<path d="M105 40H84C83.4477 40 83 40.4477 83 41V43C83 43.5523 83.4477 44 84 44H105C105.552 44 106 43.5523 106 43V41C106 40.4477 105.552 40 105 40Z" fill="white"/>
<path d="M141 16H120C119.448 16 119 16.4477 119 17V19C119 19.5523 119.448 20 120 20H141C141.552 20 142 19.5523 142 19V17C142 16.4477 141.552 16 141 16Z" fill="white"/>
<path d="M141 24H120C119.448 24 119 24.4477 119 25V27C119 27.5523 119.448 28 120 28H141C141.552 28 142 27.5523 142 27V25C142 24.4477 141.552 24 141 24Z" fill="white"/>
<path d="M141 32H120C119.448 32 119 32.4477 119 33V35C119 35.5523 119.448 36 120 36H141C141.552 36 142 35.5523 142 35V33C142 32.4477 141.552 32 141 32Z" fill="white"/>
<path d="M141 40H120C119.448 40 119 40.4477 119 41V43C119 43.5523 119.448 44 120 44H141C141.552 44 142 43.5523 142 43V41C142 40.4477 141.552 40 141 40Z" fill="white"/>
<path d="M177 16H156C155.448 16 155 16.4477 155 17V19C155 19.5523 155.448 20 156 20H177C177.552 20 178 19.5523 178 19V17C178 16.4477 177.552 16 177 16Z" fill="white"/>
<path d="M177 24H156C155.448 24 155 24.4477 155 25V27C155 27.5523 155.448 28 156 28H177C177.552 28 178 27.5523 178 27V25C178 24.4477 177.552 24 177 24Z" fill="white"/>
<path d="M177 32H156C155.448 32 155 32.4477 155 33V35C155 35.5523 155.448 36 156 36H177C177.552 36 178 35.5523 178 35V33C178 32.4477 177.552 32 177 32Z" fill="white"/>
<path d="M177 40H156C155.448 40 155 40.4477 155 41V43C155 43.5523 155.448 44 156 44H177C177.552 44 178 43.5523 178 43V41C178 40.4477 177.552 40 177 40Z" fill="white"/>
<path d="M213 16H192C191.448 16 191 16.4477 191 17V19C191 19.5523 191.448 20 192 20H213C213.552 20 214 19.5523 214 19V17C214 16.4477 213.552 16 213 16Z" fill="white"/>
<path d="M213 24H192C191.448 24 191 24.4477 191 25V27C191 27.5523 191.448 28 192 28H213C213.552 28 214 27.5523 214 27V25C214 24.4477 213.552 24 213 24Z" fill="white"/>
<path d="M213 32H192C191.448 32 191 32.4477 191 33V35C191 35.5523 191.448 36 192 36H213C213.552 36 214 35.5523 214 35V33C214 32.4477 213.552 32 213 32Z" fill="white"/>
<path d="M213 40H192C191.448 40 191 40.4477 191 41V43C191 43.5523 191.448 44 192 44H213C213.552 44 214 43.5523 214 43V41C214 40.4477 213.552 40 213 40Z" fill="white"/>
</g>
<path d="M24.3272 22.6148V21.2879H21.6891V17.2225H20V22.6155H24.3272V22.6148ZM27.134 22.7073C27.7402 22.7073 28.2475 22.5949 28.6538 22.3708C29.0507 22.1558 29.3751 21.828 29.5858 21.4288C29.8014 21.0254 29.9088 20.5088 29.9088 19.8785C29.9088 19.0104 29.6627 18.3352 29.1703 17.8536C28.678 17.3719 27.9772 17.1307 27.0665 17.1307C26.1792 17.1307 25.487 17.3762 24.9889 17.8664C24.4916 18.3573 24.2433 19.0425 24.2433 19.9226C24.2433 20.5529 24.3685 21.078 24.6204 21.4971C24.8708 21.9169 25.1988 22.2228 25.6022 22.4163C26.0071 22.6106 26.5172 22.7073 27.134 22.7073V22.7073ZM27.0778 21.4601C26.7249 21.4601 26.4453 21.3413 26.2404 21.1036C26.0355 20.8653 25.9331 20.4747 25.9331 19.9297C25.9331 19.3804 26.0362 18.987 26.2426 18.7486C26.4489 18.5117 26.7221 18.3929 27.0629 18.3929C27.4186 18.3929 27.7004 18.5096 27.9081 18.7436C28.1152 18.9784 28.2191 19.3484 28.2191 19.8564C28.2191 20.4597 28.1194 20.8781 27.9202 21.1107C27.7217 21.3434 27.4407 21.4601 27.0778 21.4601V21.4601ZM32.9767 22.7073C33.504 22.7073 33.9593 22.6468 34.3435 22.5252C34.7277 22.4042 35.1702 22.1751 35.6697 21.8393V19.5398H33.0586V20.6618H34.1891V21.1698C34.0036 21.2833 33.806 21.3759 33.6 21.4459C33.4249 21.5001 33.2426 21.5272 33.0593 21.5263C32.6608 21.5263 32.3506 21.401 32.1279 21.1513C31.906 20.9009 31.7943 20.4839 31.7943 19.9005C31.7943 19.3512 31.9045 18.95 32.1244 18.696C32.3449 18.442 32.6395 18.3153 33.0102 18.3153C33.2592 18.3153 33.4634 18.3694 33.6242 18.4768C33.7843 18.585 33.8981 18.7401 33.9657 18.9443L35.595 18.6575C35.4954 18.3089 35.3474 18.0215 35.1496 17.7945C34.9484 17.5655 34.6913 17.3927 34.4033 17.2929C34.1044 17.1848 33.6519 17.1307 33.0479 17.1307C32.4211 17.1307 31.9223 17.2175 31.5516 17.3918C31.0957 17.6 30.7173 17.9469 30.4702 18.3829C30.224 18.8183 30.1009 19.3306 30.1009 19.919C30.1009 20.4782 30.2133 20.9734 30.4382 21.4053C30.6472 21.8205 30.9795 22.1609 31.3894 22.38C31.7985 22.5977 32.3279 22.7073 32.9767 22.7073V22.7073ZM38.8422 22.7073C39.4491 22.7073 39.9557 22.5949 40.3619 22.3708C40.7589 22.1558 41.0832 21.828 41.294 21.4288C41.5096 21.0254 41.617 20.5088 41.617 19.8785C41.617 19.0104 41.3708 18.3352 40.8785 17.8536C40.3861 17.3719 39.6853 17.1307 38.7746 17.1307C37.8874 17.1307 37.1951 17.3762 36.6971 17.8664C36.1998 18.3573 35.9515 19.0425 35.9515 19.9226C35.9515 20.5529 36.0767 21.078 36.3285 21.4971C36.579 21.9169 36.907 22.2228 37.3104 22.4163C37.7152 22.6106 38.2254 22.7073 38.8422 22.7073V22.7073ZM38.786 21.4601C38.4331 21.4601 38.1542 21.3413 37.9486 21.1036C37.7437 20.8653 37.6412 20.4747 37.6412 19.9297C37.6412 19.3804 37.7444 18.987 37.9507 18.7486C38.1571 18.5117 38.4303 18.3929 38.7711 18.3929C39.1268 18.3929 39.4086 18.5096 39.6163 18.7436C39.8241 18.9784 39.9272 19.3484 39.9272 19.8564C39.9272 20.4597 39.8276 20.8781 39.6291 21.1107C39.4299 21.3434 39.1489 21.4601 38.786 21.4601Z" fill="white"/>
<path d="M42 28H21C20.4477 28 20 28.4477 20 29V31C20 31.5523 20.4477 32 21 32H42C42.5523 32 43 31.5523 43 31V29C43 28.4477 42.5523 28 42 28Z" fill="white"/>
<defs>
<linearGradient id="paint0_linear_948_2372" x1="-2.46036e-07" y1="28.8585" x2="224.248" y2="76.7778" gradientUnits="userSpaceOnUse">
<stop stop-color="#6C5DD3"/>
<stop offset="0.911458" stop-color="#9282FF"/>
</linearGradient>
</defs>
</svg>
