<svg width="234" height="60" viewBox="0 0 234 60" fill="none" xmlns="http://www.w3.org/2000/svg">
<path d="M234 5H0V55H234V5Z" fill="black" fill-opacity="0.14"/>
<path d="M234 5H0V55H234V5Z" fill="url(#paint0_linear_948_1722)"/>
<g opacity="0.804">
<path d="M170 17H149C148.448 17 148 17.4477 148 18V20C148 20.5523 148.448 21 149 21H170C170.552 21 171 20.5523 171 20V18C171 17.4477 170.552 17 170 17Z" fill="white"/>
<path d="M170 25H149C148.448 25 148 25.4477 148 26V28C148 28.5523 148.448 29 149 29H170C170.552 29 171 28.5523 171 28V26C171 25.4477 170.552 25 170 25Z" fill="white"/>
<path d="M170 33H149C148.448 33 148 33.4477 148 34V36C148 36.5523 148.448 37 149 37H170C170.552 37 171 36.5523 171 36V34C171 33.4477 170.552 33 170 33Z" fill="white"/>
<path d="M170 41H149C148.448 41 148 41.4477 148 42V44C148 44.5523 148.448 45 149 45H170C170.552 45 171 44.5523 171 44V42C171 41.4477 170.552 41 170 41Z" fill="white"/>
<path d="M213 17H192C191.448 17 191 17.4477 191 18V20C191 20.5523 191.448 21 192 21H213C213.552 21 214 20.5523 214 20V18C214 17.4477 213.552 17 213 17Z" fill="white"/>
<path d="M213.261 25H197.739C197.331 25 197 25.4477 197 26V28C197 28.5523 197.331 29 197.739 29H213.261C213.669 29 214 28.5523 214 28V26C214 25.4477 213.669 25 213.261 25Z" fill="white"/>
<path d="M213.261 33H197.739C197.331 33 197 33.4477 197 34V36C197 36.5523 197.331 37 197.739 37H213.261C213.669 37 214 36.5523 214 36V34C214 33.4477 213.669 33 213.261 33Z" fill="white"/>
<path d="M213.261 41H197.739C197.331 41 197 41.4477 197 42V44C197 44.5523 197.331 45 197.739 45H213.261C213.669 45 214 44.5523 214 44V42C214 41.4477 213.669 41 213.261 41Z" fill="white"/>
<path d="M127 17H106C105.448 17 105 17.4477 105 18V20C105 20.5523 105.448 21 106 21H127C127.552 21 128 20.5523 128 20V18C128 17.4477 127.552 17 127 17Z" fill="white"/>
<path d="M127 25H106C105.448 25 105 25.4477 105 26V28C105 28.5523 105.448 29 106 29H127C127.552 29 128 28.5523 128 28V26C128 25.4477 127.552 25 127 25Z" fill="white"/>
<path d="M127 33H106C105.448 33 105 33.4477 105 34V36C105 36.5523 105.448 37 106 37H127C127.552 37 128 36.5523 128 36V34C128 33.4477 127.552 33 127 33Z" fill="white"/>
<path d="M127 41H106C105.448 41 105 41.4477 105 42V44C105 44.5523 105.448 45 106 45H127C127.552 45 128 44.5523 128 44V42C128 41.4477 127.552 41 127 41Z" fill="white"/>
<path d="M85 17H64C63.4477 17 63 17.4477 63 18V20C63 20.5523 63.4477 21 64 21H85C85.5523 21 86 20.5523 86 20V18C86 17.4477 85.5523 17 85 17Z" fill="white"/>
<path d="M85 25H64C63.4477 25 63 25.4477 63 26V28C63 28.5523 63.4477 29 64 29H85C85.5523 29 86 28.5523 86 28V26C86 25.4477 85.5523 25 85 25Z" fill="white"/>
<path d="M85 33H64C63.4477 33 63 33.4477 63 34V36C63 36.5523 63.4477 37 64 37H85C85.5523 37 86 36.5523 86 36V34C86 33.4477 85.5523 33 85 33Z" fill="white"/>
<path d="M85 41H64C63.4477 41 63 41.4477 63 42V44C63 44.5523 63.4477 45 64 45H85C85.5523 45 86 44.5523 86 44V42C86 41.4477 85.5523 41 85 41Z" fill="white"/>
<path d="M42 29H21C20.4477 29 20 29.4477 20 30V32C20 32.5523 20.4477 33 21 33H42C42.5523 33 43 32.5523 43 32V30C43 29.4477 42.5523 29 42 29Z" fill="white"/>
<path d="M28 40.5C28 38.0147 25.9853 36 23.5 36C21.0147 36 19 38.0147 19 40.5C19 42.9853 21.0147 45 23.5 45C25.9853 45 28 42.9853 28 40.5Z" fill="white"/>
<path d="M43 40.5C43 38.0147 40.9853 36 38.5 36C36.0147 36 34 38.0147 34 40.5C34 42.9853 36.0147 45 38.5 45C40.9853 45 43 42.9853 43 40.5Z" fill="white"/>
</g>
<path d="M26.082 24.708V22.843H22.374V17.129H20V24.709H26.082V24.708ZM30.027 24.838C30.879 24.838 31.592 24.68 32.163 24.365C32.7209 24.0628 33.1768 23.6021 33.473 23.041C33.776 22.474 33.927 21.748 33.927 20.862C33.927 19.642 33.581 18.693 32.889 18.016C32.197 17.339 31.212 17 29.932 17C28.685 17 27.712 17.345 27.012 18.034C26.313 18.724 25.964 19.687 25.964 20.924C25.964 21.81 26.14 22.548 26.494 23.137C26.846 23.727 27.307 24.157 27.874 24.429C28.443 24.702 29.16 24.838 30.027 24.838V24.838ZM29.948 23.085C29.452 23.085 29.059 22.918 28.771 22.584C28.483 22.249 28.339 21.7 28.339 20.934C28.339 20.162 28.484 19.609 28.774 19.274C29.064 18.941 29.448 18.774 29.927 18.774C30.427 18.774 30.823 18.938 31.115 19.267C31.406 19.597 31.552 20.117 31.552 20.831C31.552 21.679 31.412 22.267 31.132 22.594C30.853 22.921 30.458 23.085 29.948 23.085V23.085ZM38.239 24.838C38.98 24.838 39.62 24.753 40.16 24.582C40.7 24.412 41.322 24.09 42.024 23.618V20.386H38.354V21.963H39.943V22.677C39.6822 22.8366 39.4045 22.9667 39.115 23.065C38.8689 23.1413 38.6126 23.1794 38.355 23.178C37.795 23.178 37.359 23.002 37.046 22.651C36.734 22.299 36.577 21.713 36.577 20.893C36.577 20.121 36.732 19.557 37.041 19.2C37.351 18.843 37.765 18.665 38.286 18.665C38.636 18.665 38.923 18.741 39.149 18.892C39.374 19.044 39.534 19.262 39.629 19.549L41.919 19.146C41.779 18.656 41.571 18.252 41.293 17.933C41.0102 17.6112 40.6488 17.3683 40.244 17.228C39.824 17.076 39.188 17 38.339 17C37.458 17 36.757 17.122 36.236 17.367C35.5952 17.6596 35.0632 18.1471 34.716 18.76C34.37 19.372 34.197 20.092 34.197 20.919C34.197 21.705 34.355 22.401 34.671 23.008C34.9648 23.5915 35.4318 24.07 36.008 24.378C36.583 24.684 37.327 24.838 38.239 24.838V24.838ZM46.483 24.838C47.336 24.838 48.048 24.68 48.619 24.365C49.1769 24.0628 49.6328 23.6021 49.929 23.041C50.232 22.474 50.383 21.748 50.383 20.862C50.383 19.642 50.037 18.693 49.345 18.016C48.653 17.339 47.668 17 46.388 17C45.141 17 44.168 17.345 43.468 18.034C42.769 18.724 42.42 19.687 42.42 20.924C42.42 21.81 42.596 22.548 42.95 23.137C43.302 23.727 43.763 24.157 44.33 24.429C44.899 24.702 45.616 24.838 46.483 24.838V24.838ZM46.404 23.085C45.908 23.085 45.516 22.918 45.227 22.584C44.939 22.249 44.795 21.7 44.795 20.934C44.795 20.162 44.94 19.609 45.23 19.274C45.52 18.941 45.904 18.774 46.383 18.774C46.883 18.774 47.279 18.938 47.571 19.267C47.863 19.597 48.008 20.117 48.008 20.831C48.008 21.679 47.868 22.267 47.589 22.594C47.309 22.921 46.914 23.085 46.404 23.085Z" fill="white"/>
<circle cx="193" cy="27" r="2" fill="#E9E6FF"/>
<circle cx="193" cy="35" r="2" fill="#E9E6FF"/>
<circle cx="193" cy="43" r="2" fill="#E9E6FF"/>
<defs>
<linearGradient id="paint0_linear_948_1722" x1="-2.46036e-07" y1="28.8585" x2="224.248" y2="76.7778" gradientUnits="userSpaceOnUse">
<stop stop-color="#6C5DD3"/>
<stop offset="0.911458" stop-color="#9282FF"/>
</linearGradient>
</defs>
</svg>
