<svg width="200" height="200" viewBox="0 0 200 200" fill="none" xmlns="http://www.w3.org/2000/svg">
<rect width="200" height="200" rx="5" fill="#FBD9AF"/>
<path d="M99.999 94.1467C102.275 94.1467 104.216 92.4013 104.937 90.6559H95.063C95.7821 92.4013 97.723 94.1467 99.999 94.1467Z" fill="white"/>
<path d="M114.629 97.6376H84.2904H65.0908H62.6787L55.697 111.601H107.648L114.629 97.6376Z" fill="#66CEDB"/>
<path d="M108.726 115.092H63.3455V140.763C63.3455 143.65 65.6948 146.509 68.5817 146.509H80.7996V126.8C80.7996 126.194 81.1138 125.634 81.6269 125.315C82.1418 124.993 82.7841 124.969 83.3252 125.238L86.0358 126.592L88.7447 125.238C89.2352 124.992 89.8129 124.992 90.3069 125.238L93.0175 126.592L95.7281 125.238C96.2692 124.969 96.9115 124.993 97.4264 125.315C97.9396 125.634 98.2537 126.194 98.2537 126.8V146.509H115.708V102.776L110.287 113.872C109.992 114.463 109.389 115.092 108.726 115.092Z" fill="#66CEDB"/>
<path d="M92.2372 130.106L89.5265 128.751L86.8176 130.106C86.3272 130.352 85.7477 130.352 85.2555 130.106L84.2903 129.624V146.509H94.7628V129.624L93.7976 130.106C93.3088 130.352 92.7311 130.352 92.2372 130.106Z" fill="#EE8B26"/>
<path d="M124.618 113.872L119.198 102.776V146.509H131.416C134.303 146.509 136.653 143.65 136.653 140.763V115.092H126.18C125.519 115.092 124.916 114.463 124.618 113.872Z" fill="#66CEDB"/>
<path d="M91.2719 88.9106C91.2719 87.9454 92.0538 87.1652 93.0173 87.1652H106.981C107.944 87.1652 108.726 87.9454 108.726 88.9106C108.726 90.8829 108.044 92.4014 106.935 94.1468H113.962V79.6738C113.962 76.7852 111.613 74.9473 108.726 74.9473H91.2719C88.385 74.9473 86.0356 76.7852 86.0356 79.6738V94.1468H93.0627C91.9561 92.4014 91.2719 90.8829 91.2719 88.9106ZM105.235 79.6738C106.199 79.6738 106.981 80.4558 106.981 81.4193C106.981 82.3827 106.199 83.1647 105.235 83.1647C104.272 83.1647 103.49 82.3827 103.49 81.4193C103.49 80.454 104.272 79.6738 105.235 79.6738ZM94.7627 79.6738C95.7262 79.6738 96.5081 80.4558 96.5081 81.4193C96.5081 82.3827 95.7262 83.1647 94.7627 83.1647C93.7992 83.1647 93.0173 82.3827 93.0173 81.4193C93.0173 80.454 93.7992 79.6738 94.7627 79.6738Z" fill="#F8CF26"/>
<path d="M134.907 97.6376H120.277L127.259 111.601H144.301L137.32 97.6376H134.907Z" fill="#66CEDB"/>
<path d="M139.96 94.8554C139.665 94.2655 139.061 94.1468 138.4 94.1468H134.909H117.455V79.6738C117.455 74.8617 113.54 71.4564 108.728 71.4564H91.2737C86.4615 71.4564 82.5466 74.8617 82.5466 79.6738V94.1468H65.0924H61.6016C60.9401 94.1468 60.3362 94.2655 60.0395 94.8554L51.3124 112.182C51.0419 112.723 51.0715 113.556 51.3892 114.071C51.7069 114.587 52.2689 115.092 52.8745 115.092H59.8562V140.763C59.8562 145.574 63.7712 150 68.5833 150H82.5466H96.5099H117.455H131.418C136.23 150 140.145 145.574 140.145 140.763V115.092H147.127C147.733 115.092 148.293 114.523 148.612 114.008C148.93 113.493 148.96 112.851 148.689 112.31L139.96 94.8554ZM86.0357 79.6738C86.0357 76.7852 88.385 74.9472 91.2719 74.9472H108.726C111.613 74.9472 113.962 76.7852 113.962 79.6738V94.1468H106.935C108.044 92.4014 108.726 90.8829 108.726 88.9106C108.726 87.9453 107.944 87.1651 106.981 87.1651H93.0173C92.0539 87.1651 91.2719 87.9453 91.2719 88.9106C91.2719 90.8829 91.9544 92.4014 93.0627 94.1468H86.0357V79.6738ZM95.0612 90.656H104.935C104.214 92.4014 102.273 94.1468 99.9972 94.1468C97.723 94.1468 95.7821 92.4014 95.0612 90.656ZM62.6785 97.6376H65.0907H84.2903H114.629L107.647 111.601H55.6969L62.6785 97.6376ZM63.3453 140.763V115.092H108.726C109.388 115.092 109.991 114.463 110.286 113.872L115.708 102.776V146.509H98.2536V126.8C98.2536 126.194 97.9394 125.634 97.4262 125.315C96.9113 124.994 96.2673 124.969 95.7279 125.238L93.0173 126.592L90.3067 125.238C89.8145 124.992 89.2368 124.992 88.7445 125.238L86.0357 126.592L83.325 125.238C82.784 124.969 82.1416 124.994 81.6268 125.315C81.1136 125.634 80.7994 126.194 80.7994 126.8V146.509H68.5815C65.6946 146.509 63.3453 143.65 63.3453 140.763ZM84.2903 146.509V129.624L85.2555 130.106C85.7459 130.352 86.3254 130.352 86.8176 130.106L89.5265 128.751L92.2371 130.106C92.7293 130.352 93.3071 130.352 93.7993 130.106L94.7627 129.624V146.509H84.2903ZM136.653 140.763C136.653 143.65 134.303 146.509 131.416 146.509H119.199V102.776L124.618 113.872C124.915 114.463 125.519 115.092 126.18 115.092H136.653V140.763ZM127.259 111.601L120.277 97.6376H134.907H137.319L144.301 111.601H127.259Z" fill="black"/>
<path d="M94.7627 83.1647C95.7267 83.1647 96.5082 82.3832 96.5082 81.4192C96.5082 80.4553 95.7267 79.6738 94.7627 79.6738C93.7988 79.6738 93.0173 80.4553 93.0173 81.4192C93.0173 82.3832 93.7988 83.1647 94.7627 83.1647Z" fill="black"/>
<path d="M105.235 83.1647C106.199 83.1647 106.981 82.3832 106.981 81.4192C106.981 80.4553 106.199 79.6738 105.235 79.6738C104.271 79.6738 103.49 80.4553 103.49 81.4192C103.49 82.3832 104.271 83.1647 105.235 83.1647Z" fill="black"/>
<path d="M65.0908 90.6559H68.5816C68.5816 80.1835 60.7517 72.6921 51.1274 72.6921V76.183C58.8265 76.183 65.0908 81.9289 65.0908 90.6559Z" fill="black"/>
<path d="M72.0724 74.9472H75.5632C75.5632 60.9838 65.3839 51.7454 52.8728 51.7454V55.2362C63.4587 55.2362 72.0724 62.7293 72.0724 74.9472Z" fill="black"/>
<path d="M91.2719 67.9656H94.7627C94.7627 59.2385 87.7147 51.7472 79.054 51.7472V55.238C85.793 55.2363 91.2719 60.9839 91.2719 67.9656Z" fill="black"/>
<path d="M131.417 90.6559H134.907C134.907 81.9289 141.172 76.183 148.871 76.183V72.6921C139.246 72.6921 131.417 80.1835 131.417 90.6559Z" fill="black"/>
<path d="M147.125 55.2362V51.7454C134.612 51.7454 124.435 60.9838 124.435 74.9472H127.926C127.926 62.7293 136.541 55.2362 147.125 55.2362Z" fill="black"/>
<path d="M120.944 55.2362V51.7454C112.283 51.7454 105.235 59.2384 105.235 67.9655H108.726C108.726 60.9838 114.207 55.2362 120.944 55.2362Z" fill="black"/>
<path d="M75.5633 77.9283H72.0725V81.4192H75.5633V77.9283Z" fill="black"/>
<path d="M75.5633 84.91H72.0725V88.4009H75.5633V84.91Z" fill="black"/>
<path d="M127.926 77.9283H124.435V81.4192H127.926V77.9283Z" fill="black"/>
<path d="M127.926 84.91H124.435V88.4009H127.926V84.91Z" fill="black"/>
<path d="M75.5633 51.7454H72.0725V55.2362H75.5633V51.7454Z" fill="black"/>
<path d="M127.926 51.7454H124.435V55.2362H127.926V51.7454Z" fill="black"/>
<path d="M101.744 63.9651H98.2537V67.4559H101.744V63.9651Z" fill="black"/>
<path d="M101.744 56.9817H98.2537V60.4725H101.744V56.9817Z" fill="black"/>
<path d="M101.744 50H98.2537V53.4908H101.744V50Z" fill="black"/>
<path d="M84.2904 63.9651H80.7996V67.4559H84.2904V63.9651Z" fill="black"/>
<path d="M119.199 63.9651H115.708V67.4559H119.199V63.9651Z" fill="black"/>
</svg>
