<svg width="200" height="200" viewBox="0 0 200 200" fill="none" xmlns="http://www.w3.org/2000/svg">
<rect width="200" height="200" rx="5" fill="#BBE4BD"/>
<g clip-path="url(#clip0_884_2257)">
<path fill-rule="evenodd" clip-rule="evenodd" d="M116.447 57.7872L93.9804 71.262L120.342 74.8585L142.018 61.2859L116.447 57.7872V57.7872ZM121.65 97.7719C136.018 97.7719 147.665 109.464 147.665 123.887C147.665 138.308 136.018 150 121.65 150C107.282 150 95.6355 138.308 95.6355 123.887C95.6355 109.464 107.282 97.7719 121.65 97.7719V97.7719ZM114.952 120.203L118.829 123.85L127.733 114.769C128.602 113.884 129.151 113.17 130.224 114.278L133.705 117.861C134.85 118.997 134.792 119.663 133.713 120.719L120.817 133.425C118.546 135.665 118.94 135.8 116.634 133.506L109.089 125.976C108.608 125.453 108.662 124.927 109.188 124.401L113.228 120.195C113.842 119.55 114.327 119.605 114.952 120.203V120.203ZM90.8844 74.6532L90.8669 102.352L80.8485 95.5027L70.8283 101.185L72.0161 72.079L54.7756 69.7277V130.902L89.6207 135.425C90.1114 136.811 90.6858 138.157 91.3439 139.455L52.8109 134.453C51.8042 134.412 51 133.578 51 132.559V67.564C51.0526 66.7724 51.368 66.2173 52.1138 65.842L86.5324 50.1663C86.8401 50.0256 87.2178 49.9689 87.5547 50.0158L147.563 58.2328C148.554 58.3482 149.234 59.1652 149.234 60.1855V60.1894L149.333 104.904C148.22 103.251 146.302 100.938 145.453 99.4763V63.5962L122.902 78.2418V89.9321C121.643 89.8855 120.383 89.909 119.126 90.0025V78.5057L90.8844 74.6532V74.6532ZM75.0109 68.6761L96.8525 55.1036L87.5878 53.835L59.6144 66.575L75.0109 68.6761V68.6761Z" fill="black"/>
</g>
<defs>
<clipPath id="clip0_884_2257">
<rect width="98.3333" height="100" fill="white" transform="translate(51 50)"/>
</clipPath>
</defs>
</svg>
