<svg width="200" height="200" viewBox="0 0 200 200" fill="none" xmlns="http://www.w3.org/2000/svg">
<rect width="200" height="200" rx="5" fill="#EBD2FF"/>
<g clip-path="url(#clip0_884_2334)">
<path fill-rule="evenodd" clip-rule="evenodd" d="M47.7939 60H151.128C151.78 60.003 152.405 60.2633 152.867 60.7244C153.328 61.1855 153.589 61.81 153.592 62.4621V131.865C153.59 132.41 153.407 132.94 153.072 133.371C152.737 133.802 152.269 134.11 151.741 134.248H166.685C167.448 134.257 168.176 134.567 168.71 135.112C169.244 135.656 169.541 136.39 169.535 137.152C169.532 137.915 169.227 138.645 168.686 139.183C168.146 139.721 167.414 140.023 166.651 140.023H32.8843C32.1213 140.023 31.3894 139.721 30.8488 139.183C30.3082 138.645 30.003 137.915 30 137.152V137.152C30 136.774 30.0746 136.399 30.2196 136.049C30.3645 135.7 30.577 135.382 30.8448 135.114C31.1126 134.847 31.4306 134.635 31.7805 134.49C32.1304 134.345 32.5055 134.27 32.8843 134.27H47.1807C46.6524 134.133 46.1844 133.824 45.8497 133.394C45.5149 132.963 45.3321 132.433 45.3298 131.888V62.4621C45.3327 61.81 45.5933 61.1855 46.0548 60.7244C46.5162 60.2633 47.1413 60.003 47.7939 60V60ZM95.7136 135.325H103.81C104.175 135.325 104.526 135.47 104.786 135.727C105.045 135.984 105.192 136.333 105.195 136.698C105.195 137.065 105.049 137.418 104.79 137.677C104.53 137.937 104.177 138.083 103.81 138.083H95.7136C95.3462 138.083 94.9938 137.937 94.734 137.677C94.4742 137.418 94.3282 137.065 94.3282 136.698C94.3312 136.333 94.4785 135.984 94.738 135.727C94.9975 135.47 95.3481 135.325 95.7136 135.325V135.325ZM124.454 115.731C124.295 115.852 124.119 115.947 123.932 116.015C123.741 116.078 123.542 116.109 123.341 116.106C123.114 116.097 122.891 116.047 122.683 115.958C122.465 115.875 122.265 115.751 122.092 115.595L117.664 110.932L115.551 114.857C115.387 115.173 115.189 115.469 114.961 115.742C114.754 115.997 114.514 116.223 114.246 116.412C114.01 116.61 113.732 116.751 113.433 116.825C113.135 116.898 112.823 116.902 112.522 116.836C112.222 116.771 111.94 116.637 111.699 116.445C111.459 116.254 111.265 116.009 111.134 115.731C110.997 115.504 110.89 115.26 110.816 115.005C108.704 107.358 105.57 99.6199 103.424 91.9614C103.359 91.7342 103.356 91.4936 103.416 91.2649C103.476 91.0362 103.597 90.828 103.765 90.662C103.934 90.496 104.144 90.3784 104.373 90.3215C104.603 90.2647 104.844 90.2707 105.07 90.339C111.974 92.4039 120.775 96.3636 127.781 99.0299C129.939 99.8582 130.052 101.866 128.281 103.205C127.994 103.418 127.686 103.6 127.361 103.75C126.021 104.328 124.658 105.021 123.319 105.633L127.656 110.296C127.813 110.458 127.933 110.652 128.008 110.864V110.864C128.087 111.066 128.122 111.282 128.11 111.499V111.499C128.084 111.925 127.907 112.327 127.611 112.634C126.604 113.691 125.539 114.691 124.42 115.629L124.454 115.731ZM123.319 113.984L125.964 111.488C125.022 110.489 120.991 106.575 120.605 105.701C120.497 105.459 120.488 105.184 120.582 104.935C120.675 104.687 120.863 104.485 121.104 104.374C122.728 103.693 124.829 102.717 126.396 101.9C126.59 101.811 126.777 101.705 126.952 101.583C127.08 101.485 127.198 101.374 127.304 101.254L127.384 101.129L127.259 101.038L126.952 100.902L105.809 92.7556L112.747 114.37C112.775 114.48 112.817 114.587 112.872 114.687L112.951 114.812L113.076 114.744C113.21 114.649 113.328 114.534 113.428 114.404C113.556 114.239 113.67 114.065 113.769 113.882C114.632 112.271 115.665 110.058 116.63 108.595L116.744 108.47C116.838 108.376 116.949 108.301 117.072 108.25C117.195 108.199 117.326 108.173 117.459 108.173C117.592 108.173 117.724 108.199 117.846 108.25C117.969 108.301 118.081 108.376 118.175 108.47L123.375 113.938L123.319 113.984ZM60.3529 74.9199H79.9637C80.3851 74.9213 80.802 75.0064 81.1902 75.1703C81.5784 75.3341 81.9301 75.5735 82.2249 75.8744C82.5196 76.1752 82.7516 76.5317 82.9073 76.9229C83.063 77.3142 83.1393 77.7325 83.1318 78.1535V90.634C83.1141 91.4638 82.7732 92.2539 82.1816 92.8366C81.59 93.4192 80.7943 93.7484 79.9637 93.7541H60.3529C59.5106 93.7511 58.7036 93.4154 58.108 92.8203C57.5124 92.2252 57.1764 91.4189 57.1734 90.5772V78.1535C57.1764 77.3118 57.5124 76.5055 58.108 75.9104C58.7036 75.3153 59.5106 74.9796 60.3529 74.9766V74.9199ZM89.6839 74.9199H109.295C110.137 74.9229 110.944 75.2585 111.54 75.8537C112.135 76.4488 112.471 77.2551 112.474 78.0967V86.7423C110.453 85.9935 108.511 85.3241 106.717 84.7908H106.603C105.374 84.451 104.075 84.451 102.845 84.7908C101.653 85.1127 100.565 85.7382 99.688 86.6062C98.9794 87.3211 98.4266 88.1748 98.0641 89.1136C97.9842 89.3098 97.9159 89.5106 97.8597 89.7149C97.5243 90.9482 97.5243 92.2485 97.8597 93.4818V93.4818L97.9392 93.7654H89.6839C88.8513 93.7596 88.0539 93.4289 87.462 92.8439C86.8701 92.2588 86.5305 91.4657 86.5157 90.634V78.1535C86.5157 77.3129 86.8491 76.5065 87.443 75.9111C88.0368 75.3156 88.8426 74.9796 89.6839 74.9766V74.9199ZM119.015 74.9199H138.626C139.468 74.9229 140.275 75.2585 140.87 75.8537C141.466 76.4488 141.802 77.2551 141.805 78.0967V90.634C141.802 91.4756 141.466 92.2819 140.87 92.877C140.275 93.4722 139.468 93.8078 138.626 93.8108H130.132L129.791 93.6747C127.611 92.8237 125.249 91.848 122.728 90.8382C120.457 89.9078 118.186 88.9548 115.858 88.0698V78.1535C115.861 77.3138 116.195 76.5092 116.789 75.9144C117.382 75.3195 118.186 74.9826 119.026 74.9766L119.015 74.9199ZM71.9241 111.817C70.8567 111.817 70.8567 107.891 71.9241 107.891H102.584C103.038 109.219 103.481 110.535 103.889 111.817H71.9241ZM132.993 107.891H141.521C142.577 107.891 142.577 111.817 141.521 111.817H133.902V111.692C133.92 111.237 133.893 110.781 133.822 110.33C133.822 110.138 133.754 109.945 133.697 109.74C133.639 109.448 133.559 109.159 133.459 108.878C133.334 108.536 133.178 108.205 132.993 107.891V107.891ZM58.2295 111.817C57.1848 111.817 57.1848 107.891 58.2295 107.891H68.1654C69.2215 107.891 69.2215 111.817 68.1654 111.817H58.2295ZM57.8888 103.602C56.8328 103.602 56.8328 99.6653 57.8888 99.6653H67.8248C68.8808 99.6653 68.8808 103.602 67.8248 103.602H57.8888ZM71.9241 103.602C70.8567 103.602 70.8567 99.6653 71.9241 99.6653H99.7561C100.188 100.993 100.63 102.298 101.085 103.602H71.9241ZM135.117 99.7107H141.521C142.577 99.7107 142.577 103.648 141.521 103.648H134.844C135.22 102.555 135.337 101.39 135.185 100.244C135.185 100.085 135.185 99.9263 135.117 99.7674V99.7107ZM149.686 70.2113H49.5426V130.572H149.686V70.2113ZM61.7042 63.9711C61.9984 63.9711 62.286 64.0582 62.5307 64.2216C62.7753 64.3849 62.9659 64.617 63.0785 64.8886C63.1911 65.1602 63.2206 65.459 63.1632 65.7473C63.1058 66.0357 62.9641 66.3005 62.7561 66.5084C62.548 66.7162 62.283 66.8578 61.9944 66.9151C61.7059 66.9725 61.4068 66.9431 61.135 66.8306C60.8631 66.7181 60.6308 66.5276 60.4674 66.2831C60.3039 66.0387 60.2167 65.7513 60.2167 65.4574C60.2167 65.0632 60.3734 64.6851 60.6524 64.4064C60.9313 64.1277 61.3097 63.9711 61.7042 63.9711V63.9711ZM56.5148 63.9711C56.8069 63.98 57.0899 64.0747 57.3285 64.2433C57.5671 64.412 57.7507 64.6471 57.8563 64.9193C57.962 65.1916 57.985 65.4889 57.9226 65.7742C57.8602 66.0594 57.715 66.32 57.5053 66.5234C57.2956 66.7267 57.0305 66.8638 56.7433 66.9176C56.456 66.9714 56.1593 66.9394 55.8901 66.8257C55.6209 66.712 55.3913 66.5216 55.2297 66.2782C55.0682 66.0349 54.982 65.7494 54.9818 65.4574C54.9817 65.2583 55.0217 65.0613 55.0992 64.8779C55.1768 64.6946 55.2905 64.5286 55.4335 64.39C55.5764 64.2514 55.7458 64.1429 55.9316 64.0709C56.1173 63.9989 56.3157 63.965 56.5148 63.9711V63.9711ZM51.314 63.9711C51.6083 63.9711 51.8959 64.0582 52.1405 64.2216C52.3851 64.3849 52.5758 64.617 52.6884 64.8886C52.801 65.1602 52.8304 65.459 52.773 65.7473C52.7156 66.0357 52.5739 66.3005 52.3659 66.5084C52.1579 66.7162 51.8928 66.8578 51.6043 66.9151C51.3157 66.9725 51.0166 66.9431 50.7448 66.8306C50.473 66.7181 50.2406 66.5276 50.0772 66.2831C49.9137 66.0387 49.8265 65.7513 49.8265 65.4574C49.8265 65.0632 49.9832 64.6851 50.2622 64.4064C50.5412 64.1277 50.9195 63.9711 51.314 63.9711V63.9711Z" fill="black"/>
</g>
<defs>
<clipPath id="clip0_884_2334">
<rect width="139.535" height="80" fill="white" transform="translate(30 60)"/>
</clipPath>
</defs>
</svg>
