<svg width="100" height="74" viewBox="0 0 100 74" fill="none" xmlns="http://www.w3.org/2000/svg">
<g clip-path="url(#clip0_887_2654)">
<rect width="100" height="73.1707" fill="#FCF185"/>
<g clip-path="url(#clip1_887_2654)">
<path fill-rule="evenodd" clip-rule="evenodd" d="M0.717266 0H99.2827C103.527 0 107 3.44624 107 7.65685V76.3432C107 80.5538 103.527 84 99.2827 84H0.717266C-3.52656 84 -7 80.5538 -7 76.3432V7.65685C-7 3.44624 -3.52656 0 0.717266 0ZM-2.09488 21.4396V77.0898C-2.09576 77.3683 -2.04114 77.6442 -1.93414 77.9016C-1.82715 78.159 -1.6699 78.3929 -1.47144 78.5898C-1.27299 78.7867 -1.03725 78.9428 -0.777786 79.0489C-0.518324 79.1551 -0.240265 79.2093 0.0403908 79.2084H100.276C100.556 79.2093 100.834 79.1551 101.094 79.0489C101.353 78.9428 101.589 78.7867 101.788 78.5898C101.986 78.3929 102.143 78.159 102.25 77.9016C102.357 77.6442 102.412 77.3683 102.411 77.0898V21.4396H-2.09488ZM91.9373 8.60677C94.0436 8.60677 95.7492 10.3012 95.7492 12.3888C95.7492 14.4786 94.0436 16.1708 91.9373 16.1708C89.8332 16.1708 88.1254 14.4786 88.1254 12.3888C88.1254 10.3012 89.8332 8.60677 91.9373 8.60677ZM66.1025 8.60677C68.2088 8.60677 69.9144 10.3012 69.9144 12.3888C69.9144 14.4786 68.2088 16.1708 66.1025 16.1708C63.9984 16.1708 62.2928 14.4786 62.2928 12.3888C62.2928 10.3012 63.9984 8.60677 66.1025 8.60677ZM79.021 8.60677C81.1251 8.60677 82.8329 10.3012 82.8329 12.3888C82.8329 14.4786 81.1251 16.1708 79.021 16.1708C76.9169 16.1708 75.2091 14.4786 75.2091 12.3888C75.2091 10.3012 76.9169 8.60677 79.021 8.60677Z" fill="black"/>
<path d="M10.8947 11.6756H8.18251L7.70722 12.7829C7.59012 13.0554 7.53157 13.2589 7.53157 13.3934C7.53157 13.5003 7.58151 13.5952 7.68139 13.678C7.78471 13.7573 8.00514 13.8091 8.34266 13.8332V14.0246H6.13672V13.8332C6.42947 13.7815 6.61889 13.7142 6.70499 13.6314C6.88064 13.4658 7.07523 13.1295 7.28877 12.6225L9.75301 6.84833H9.93382L12.3722 12.6846C12.5686 13.1537 12.7459 13.4589 12.9043 13.6004C13.0662 13.7383 13.2901 13.8159 13.5759 13.8332V14.0246H10.8121V13.8332C11.091 13.8194 11.2787 13.7728 11.3752 13.6935C11.4751 13.6142 11.525 13.5176 11.525 13.4038C11.525 13.252 11.4561 13.0123 11.3183 12.6846L10.8947 11.6756ZM10.7501 11.2928L9.56186 8.45743L8.34266 11.2928H10.7501Z" fill="white"/>
<path d="M19.765 12.0844L19.9355 12.1206L19.3362 14.0246H13.9117V13.8332H14.1752C14.4714 13.8332 14.6832 13.7366 14.8107 13.5435C14.883 13.4331 14.9191 13.1778 14.9191 12.7777V8.25048C14.9191 7.81241 14.8709 7.53819 14.7745 7.42781C14.6402 7.27604 14.4404 7.20016 14.1752 7.20016H13.9117V7.00872H17.0837V7.20016C16.7118 7.19671 16.45 7.2312 16.2985 7.30364C16.1504 7.37607 16.0488 7.46748 15.9937 7.57786C15.9386 7.68824 15.911 7.95211 15.911 8.36948V12.7777C15.911 13.064 15.9386 13.2606 15.9937 13.3675C16.035 13.44 16.0987 13.4934 16.1848 13.5279C16.2709 13.5624 16.5396 13.5797 16.9908 13.5797H17.5022C18.0395 13.5797 18.4166 13.54 18.6336 13.4607C18.8506 13.3813 19.0486 13.2416 19.2277 13.0416C19.4068 12.8381 19.5859 12.519 19.765 12.0844Z" fill="white"/>
<path d="M25.0086 11.6756H22.2964L21.8211 12.7829C21.704 13.0554 21.6454 13.2589 21.6454 13.3934C21.6454 13.5003 21.6954 13.5952 21.7953 13.678C21.8986 13.7573 22.119 13.8091 22.4565 13.8332V14.0246H20.2506V13.8332C20.5433 13.7815 20.7328 13.7142 20.8189 13.6314C20.9945 13.4658 21.1891 13.1295 21.4026 12.6225L23.8669 6.84833H24.0477L26.4861 12.6846C26.6824 13.1537 26.8598 13.4589 27.0182 13.6004C27.1801 13.7383 27.404 13.8159 27.6898 13.8332V14.0246H24.9259V13.8332C25.2049 13.8194 25.3926 13.7728 25.489 13.6935C25.5889 13.6142 25.6389 13.5176 25.6389 13.4038C25.6389 13.252 25.57 13.0123 25.4322 12.6846L25.0086 11.6756ZM24.8639 11.2928L23.6757 8.45743L22.4565 11.2928H24.8639Z" fill="white"/>
<path d="M27.6743 7.00872H29.5754L33.8582 12.2707V8.22461C33.8582 7.79344 33.81 7.52439 33.7135 7.41747C33.5861 7.27259 33.3846 7.20016 33.1091 7.20016H32.8663V7.00872H35.3047V7.20016H35.0567C34.7605 7.20016 34.5504 7.28984 34.4264 7.4692C34.3507 7.57958 34.3128 7.83138 34.3128 8.22461V14.1385H34.1268L29.5083 8.48848V12.8087C29.5083 13.2399 29.5548 13.509 29.6478 13.6159C29.7787 13.7608 29.9801 13.8332 30.2522 13.8332H30.5002V14.0246H28.0618V13.8332H28.3046C28.6042 13.8332 28.816 13.7435 28.94 13.5641C29.0158 13.4538 29.0537 13.202 29.0537 12.8087V7.92969C28.8505 7.69169 28.6955 7.53474 28.5887 7.45886C28.4854 7.38297 28.3321 7.31226 28.1289 7.24672C28.0291 7.21568 27.8775 7.20016 27.6743 7.20016V7.00872Z" fill="white"/>
<path d="M10.8125 30.7952H12.3273C12.8296 30.7952 13.266 30.8964 13.6362 31.0986C14.0091 31.2983 14.2991 31.5813 14.5063 31.9474C14.7134 32.3135 14.817 32.7449 14.817 33.2416C14.817 33.7358 14.7134 34.1659 14.5063 34.5321C14.2991 34.8982 14.0091 35.1824 13.6362 35.3847C13.266 35.5869 12.8296 35.6881 12.3273 35.6881H10.8125V30.7952ZM11.5505 31.452V35.0429H12.3273C12.6795 35.0429 12.9811 34.9648 13.2323 34.8086C13.486 34.6524 13.6815 34.4386 13.8188 34.1672C13.956 33.8958 14.0246 33.5873 14.0246 33.2416C14.0246 32.896 13.956 32.5888 13.8188 32.3199C13.6815 32.0485 13.486 31.836 13.2323 31.6824C12.9811 31.5288 12.6795 31.452 12.3273 31.452H11.5505Z" fill="black"/>
<path d="M15.1089 30.7952H15.9906L17.3073 33.0535H17.1442L18.492 30.7952H19.3659L17.5908 33.6718V35.6881H16.849V33.6718L15.1089 30.7952Z" fill="black"/>
<path d="M20.1773 30.7952H21.0201L23.4166 34.5897H23.3584V30.7952H24.0963V35.6881H23.3117L20.7987 31.7246H20.9153V35.6881H20.1773V30.7952Z" fill="black"/>
<path d="M25.0459 35.6881L26.7394 30.7952H27.6522L29.2951 35.6881H28.5183L28.1338 34.5205H26.2228L25.8227 35.6881H25.0459ZM26.4092 33.9598H27.9512L27.1822 31.6747L26.4092 33.9598Z" fill="black"/>
<path d="M30.2405 30.7952H31.3009L32.8701 34.0098H32.8002L34.3693 30.7952H35.3947V35.6881H34.649V31.5979H34.7694L33.0759 35.1081H32.5904L30.9047 31.6171H30.9785V35.6881H30.2405V30.7952Z" fill="black"/>
<path d="M36.9087 35.6881V30.7952H37.6467V35.6881H36.9087Z" fill="black"/>
<path d="M40.9174 35.7879C40.4798 35.7879 40.1018 35.6829 39.7833 35.473C39.4674 35.2605 39.2227 34.9622 39.0492 34.5781C38.8757 34.1915 38.7889 33.7384 38.7889 33.2186C38.7889 32.6707 38.8809 32.2111 39.0647 31.8399C39.2486 31.4661 39.501 31.1844 39.8221 30.9949C40.1458 30.8029 40.5109 30.7069 40.9174 30.7069C41.4638 30.7069 41.8988 30.8413 42.2225 31.1102C42.5461 31.3764 42.7611 31.7234 42.8672 32.1509L42.0788 32.3007C41.9855 32.0165 41.8379 31.7899 41.636 31.621C41.434 31.4494 41.1945 31.3636 40.9174 31.3636C40.674 31.3636 40.4513 31.4328 40.2494 31.571C40.0474 31.7093 39.8855 31.9167 39.7638 32.1932C39.6421 32.4671 39.5813 32.809 39.5813 33.2186C39.5813 33.5975 39.6318 33.9304 39.7328 34.2171C39.8338 34.5013 39.9826 34.7228 40.1794 34.8815C40.3762 35.0403 40.6222 35.1197 40.9174 35.1197C41.2773 35.1197 41.5609 35.0249 41.768 34.8355C41.9752 34.6434 42.0788 34.3938 42.0788 34.0866H42.875C42.875 34.445 42.7934 34.751 42.6303 35.0044C42.4698 35.2554 42.2432 35.4487 41.9506 35.5844C41.658 35.7201 41.3136 35.7879 40.9174 35.7879Z" fill="black"/>
<path d="M12.7017 45.2872C12.3634 45.2872 12.0525 45.2283 11.7688 45.1105C11.4852 44.9902 11.2562 44.8122 11.0818 44.5767C10.9101 44.3411 10.8203 44.0467 10.8125 43.6934H11.5385C11.5385 43.9059 11.5906 44.08 11.6946 44.2157C11.8013 44.3514 11.9419 44.4525 12.1162 44.5191C12.2906 44.5831 12.4831 44.6151 12.6939 44.6151C12.9073 44.6151 13.0959 44.5831 13.2599 44.5191C13.4238 44.4551 13.55 44.3693 13.6385 44.2618C13.7296 44.1542 13.7751 44.0313 13.7751 43.8931C13.7751 43.7062 13.7166 43.5564 13.5995 43.4437C13.4824 43.3285 13.3041 43.2312 13.0647 43.1519L12.1396 42.8139C11.7415 42.6679 11.4383 42.5002 11.2302 42.3108C11.022 42.1188 10.9179 41.8525 10.9179 41.512C10.9179 41.1253 11.0714 40.8117 11.3785 40.571C11.6855 40.3278 12.1175 40.2062 12.6744 40.2062C13.2026 40.2062 13.6125 40.3265 13.9039 40.5672C14.198 40.8079 14.3658 41.1356 14.4074 41.5504H13.6775C13.6411 41.3404 13.5409 41.174 13.377 41.0511C13.2156 40.9282 12.9814 40.8667 12.6744 40.8667C12.3777 40.8667 12.1461 40.9308 11.9796 41.0588C11.813 41.1842 11.7298 41.343 11.7298 41.535C11.7298 41.6937 11.7818 41.8205 11.8859 41.9152C11.9926 42.0099 12.1578 42.0957 12.3816 42.1725L13.4355 42.5527C13.7972 42.6782 14.0796 42.8472 14.2825 43.0597C14.4855 43.2722 14.587 43.5423 14.587 43.87C14.587 44.1465 14.5141 44.3911 14.3684 44.6036C14.2227 44.8161 14.0093 44.9838 13.7283 45.1067C13.4472 45.227 13.105 45.2872 12.7017 45.2872Z" fill="black"/>
<path d="M15.8608 40.2945H16.7078L19.1161 44.0889H19.0576V40.2945H19.7992V45.1873H19.0107L16.4853 41.2239H16.6024V45.1873H15.8608V40.2945Z" fill="black"/>
<path d="M21.3234 45.1873V40.2945H22.065V45.1873H21.3234Z" fill="black"/>
<path d="M23.5681 45.1873V40.2945H25.2348C25.7891 40.2945 26.2158 40.4302 26.5151 40.7016C26.8143 40.973 26.964 41.3481 26.964 41.8269C26.964 42.3005 26.8143 42.6731 26.5151 42.9445C26.2158 43.2133 25.7891 43.3477 25.2348 43.3477H24.3175V45.1873H23.5681ZM24.3175 42.7102H25.2348C25.5523 42.7102 25.793 42.6295 25.9569 42.4682C26.1209 42.3069 26.2028 42.0931 26.2028 41.8269C26.2028 41.558 26.1209 41.3404 25.9569 41.174C25.793 41.0076 25.5523 40.9244 25.2348 40.9244H24.3175V42.7102Z" fill="black"/>
<path d="M27.9822 45.1873V40.2945H29.6489C30.2032 40.2945 30.6299 40.4302 30.9292 40.7016C31.2284 40.973 31.3781 41.3481 31.3781 41.8269C31.3781 42.3005 31.2284 42.6731 30.9292 42.9445C30.6299 43.2133 30.2032 43.3477 29.6489 43.3477H28.7316V45.1873H27.9822ZM28.7316 42.7102H29.6489C29.9664 42.7102 30.2071 42.6295 30.371 42.4682C30.5349 42.3069 30.6169 42.0931 30.6169 41.8269C30.6169 41.558 30.5349 41.3404 30.371 41.174C30.2071 41.0076 29.9664 40.9244 29.6489 40.9244H28.7316V42.7102Z" fill="black"/>
<path d="M32.408 45.1873V40.2945H35.5306V40.9244H33.1496V42.4145H35.3901V43.0443H33.1496V44.5498H35.5306V45.1873H32.408Z" fill="black"/>
<path d="M36.1689 40.9244V40.2945H40.0879V40.9244H38.3314L38.4992 40.7554V45.1873H37.7576V40.7554L37.9215 40.9244H36.1689Z" fill="black"/>
<path d="M42.5483 45.2872C42.21 45.2872 41.899 45.2283 41.6154 45.1105C41.3318 44.9902 41.1028 44.8122 40.9284 44.5767C40.7567 44.3411 40.6669 44.0467 40.6591 43.6934H41.3851C41.3851 43.9059 41.4372 44.08 41.5412 44.2157C41.6479 44.3514 41.7885 44.4525 41.9628 44.5191C42.1371 44.5831 42.3297 44.6151 42.5405 44.6151C42.7539 44.6151 42.9425 44.5831 43.1065 44.5191C43.2704 44.4551 43.3966 44.3693 43.4851 44.2618C43.5762 44.1542 43.6217 44.0313 43.6217 43.8931C43.6217 43.7062 43.5632 43.5564 43.4461 43.4437C43.329 43.3285 43.1507 43.2312 42.9113 43.1519L41.9862 42.8139C41.5881 42.6679 41.2849 42.5002 41.0767 42.3108C40.8686 42.1188 40.7645 41.8525 40.7645 41.512C40.7645 41.1253 40.918 40.8117 41.2251 40.571C41.5321 40.3278 41.9641 40.2062 42.521 40.2062C43.0492 40.2062 43.4591 40.3265 43.7505 40.5672C44.0446 40.8079 44.2124 41.1356 44.254 41.5504H43.5241C43.4877 41.3404 43.3875 41.174 43.2236 41.0511C43.0622 40.9282 42.828 40.8667 42.521 40.8667C42.2243 40.8667 41.9927 40.9308 41.8262 41.0588C41.6596 41.1842 41.5764 41.343 41.5764 41.535C41.5764 41.6937 41.6284 41.8205 41.7325 41.9152C41.8392 42.0099 42.0044 42.0957 42.2282 42.1725L43.2821 42.5527C43.6438 42.6782 43.9262 42.8472 44.1291 43.0597C44.3321 43.2722 44.4336 43.5423 44.4336 43.87C44.4336 44.1465 44.3607 44.3911 44.215 44.6036C44.0693 44.8161 43.8559 44.9838 43.5749 45.1067C43.2938 45.227 42.9516 45.2872 42.5483 45.2872Z" fill="black"/>
<g clip-path="url(#clip2_887_2654)">
<path d="M69.3208 32.8185C69.1634 33.1699 68.7453 33.3273 68.3904 33.1715C68.0355 33.0149 67.8765 32.6019 68.0347 32.2505L68.2535 31.7693C65.5157 32.7844 63.173 34.6053 61.5279 36.9399C59.9155 39.2282 58.9704 42.0131 58.9778 45.0154C58.9852 47.7216 59.7942 50.2461 61.1541 52.3931C62.5935 54.6644 64.6526 56.5161 67.0363 57.7155C67.3838 57.8907 67.5223 58.3119 67.3461 58.6551C67.1699 58.9992 66.7436 59.1363 66.3969 58.9618C63.7894 57.6489 61.5369 55.6235 59.9614 53.1364C58.4663 50.7784 57.5786 48 57.5704 45.0154C57.5622 41.7185 58.6007 38.6585 60.3746 36.1422C62.1738 33.5886 64.7304 31.5932 67.7133 30.4767L67.1732 30.2982C66.8043 30.1773 66.6035 29.7829 66.7256 29.4177C66.8477 29.0526 67.2461 28.8546 67.615 28.9755L69.9421 29.7456C70.297 29.9022 70.4561 30.3152 70.2979 30.6666L69.3208 32.8185ZM82.4024 58.1618C82.7827 58.2405 83.0278 58.6105 82.9483 58.987C82.8696 59.3635 82.4958 59.6061 82.1155 59.5274L79.7826 59.0414C79.4023 58.9635 79.1572 58.5934 79.2359 58.2161L79.9777 55.9002C80.0949 55.5335 80.4908 55.3306 80.8613 55.4458C81.2318 55.5619 81.4368 55.9538 81.3195 56.3206L81.1638 56.805C81.445 56.6208 81.7171 56.4261 81.981 56.2248C83.7177 54.8999 85.1246 53.1985 86.0935 51.2514C87.0263 49.3746 87.5517 47.2567 87.5517 45.0154C87.5517 41.992 86.5935 39.1908 84.9639 36.8953C83.286 34.5307 80.8966 32.6968 78.1055 31.7036C77.7399 31.5746 77.5497 31.1745 77.6809 30.8126C77.8112 30.4507 78.2153 30.2625 78.5809 30.3915C81.6507 31.4845 84.277 33.4977 86.1181 36.0919C87.9116 38.618 88.9649 41.6966 88.9649 45.0154C88.9649 47.4725 88.3862 49.7998 87.3575 51.8698C86.2918 54.0144 84.7377 55.8816 82.8425 57.3284C82.513 57.5808 82.1745 57.8193 81.8278 58.0417L82.4024 58.1618ZM77.6579 65.1849C77.6579 65.0104 77.8006 64.8692 77.9768 64.8692C78.1522 64.8692 78.2957 65.0104 78.2957 65.1849V66.6276C78.2955 66.7113 78.2618 66.7914 78.202 66.8506C78.1423 66.9097 78.0613 66.9431 77.9768 66.9433C77.8006 66.9433 77.6579 66.8013 77.6579 66.6276V65.1849ZM75.7743 64.5471C75.7745 64.4634 75.8082 64.3832 75.8679 64.3241C75.9277 64.2649 76.0086 64.2316 76.0931 64.2314C76.2694 64.2314 76.412 64.3734 76.412 64.5471V66.6276C76.412 66.8013 76.2694 66.9433 76.0931 66.9433C76.0086 66.9431 75.9277 66.9097 75.8679 66.8506C75.8082 66.7914 75.7745 66.7113 75.7743 66.6276V64.5471ZM71.0405 63.2698C71.0185 63.2579 70.9977 63.2441 70.9782 63.2285L69.2191 61.8052C69.0314 61.6518 68.8158 61.5447 68.6158 61.5057C68.4863 61.4806 68.3675 61.4838 68.2765 61.5195C68.2019 61.5496 68.1363 61.6104 68.0929 61.7062C68.0363 61.8303 68.0101 62.008 68.0256 62.2482C68.0396 62.4608 68.115 62.6937 68.2142 62.9169C68.3601 63.2455 68.5601 63.549 68.7076 63.7437L71.6946 68.2181C71.729 68.27 71.7495 68.3276 71.7561 68.3852C71.8151 68.868 71.9192 69.2299 72.0725 69.4563C72.1823 69.6202 72.3274 69.7046 72.5061 69.6998C74.0062 69.6998 75.6841 69.6276 77.1612 69.6998C77.4489 69.6957 77.7137 69.6105 77.9522 69.4474C78.217 69.2665 78.4596 68.9849 78.6768 68.6076L78.7326 68.5118C79.3088 67.5291 79.8679 66.5749 79.9261 65.4429C79.9129 64.8838 79.8924 64.3255 79.8957 63.7664C79.9072 62.8057 79.9236 61.3345 79.1195 61.1885H78.594C78.6096 61.5982 78.5858 62.0234 78.5637 62.4081C78.5514 62.6345 78.5391 62.8463 78.5391 63.0426C78.5391 63.1452 78.498 63.2435 78.4247 63.316C78.3515 63.3885 78.2521 63.4293 78.1485 63.4293C78.0449 63.4293 77.9456 63.3885 77.8723 63.316C77.7991 63.2435 77.7579 63.1452 77.7579 63.0426C77.7579 62.8617 77.7719 62.6231 77.7866 62.3667C77.8407 61.41 77.9129 60.1311 77.2407 60.0021H76.7268C76.6923 60.0021 76.6595 59.9981 76.6284 59.99C76.6604 60.4509 76.6325 60.9385 76.6071 61.3759C76.5948 61.6023 76.5825 61.8141 76.5825 62.0105C76.5825 62.113 76.5413 62.2114 76.4681 62.2839C76.3948 62.3564 76.2955 62.3971 76.1919 62.3971C76.0883 62.3971 75.989 62.3564 75.9157 62.2839C75.8425 62.2114 75.8013 62.113 75.8013 62.0105C75.8013 61.8303 75.8153 61.5909 75.83 61.3345C75.8841 60.3778 75.9562 59.099 75.2841 58.9691H74.7701C74.7357 58.9691 74.7005 58.9651 74.6685 58.9562V60.9491C74.6685 61.1625 74.4931 61.3361 74.2783 61.3361C74.0627 61.3361 73.8873 61.1625 73.8873 60.9491V56.5656C73.8873 55.9579 73.6144 55.5708 73.2668 55.4085C73.1373 55.3485 72.9938 55.3176 72.8504 55.3176C72.7094 55.316 72.566 55.3468 72.4348 55.4077C72.0897 55.5692 71.82 55.9579 71.82 56.5819L71.8217 63.9831C71.8217 64.1957 71.6463 64.3693 71.4315 64.3693C71.2159 64.3693 71.0405 64.1957 71.0405 63.9831V63.2698ZM78.5014 60.4289C78.5342 60.42 78.5694 60.4152 78.6055 60.4152H79.1432L79.2375 60.4265C80.7097 60.6626 80.6876 62.5444 80.6736 63.7705C80.6695 64.3385 80.6974 64.9041 80.7048 65.4721C80.6384 66.798 80.031 67.8326 79.4072 68.8981L79.3523 68.9914C79.0768 69.4685 78.7563 69.8337 78.394 70.0803C78.0235 70.3343 77.6137 70.4642 77.1653 70.4698L72.5151 70.4715C72.0512 70.4788 71.6905 70.2775 71.4258 69.8848C71.2126 69.5691 71.0708 69.1261 70.9938 68.5678L68.0814 64.2038C67.9101 63.9774 67.6756 63.6212 67.501 63.2268C67.3691 62.9323 67.2682 62.6101 67.2477 62.2961C67.224 61.9244 67.2756 61.6242 67.383 61.3889C67.5166 61.0976 67.7281 60.9077 67.9838 60.8046C68.2232 60.7089 68.4945 60.6943 68.7667 60.7478C69.0904 60.8119 69.4265 60.9759 69.7134 61.2104L71.0405 62.2839V56.5819C71.043 55.6138 71.5077 54.989 72.102 54.7107C72.3361 54.6017 72.5917 54.5454 72.8504 54.5459C73.1045 54.5443 73.3619 54.6011 73.5996 54.7115C74.1988 54.9906 74.6685 55.6154 74.6685 56.5656V58.2096C74.7005 58.2007 74.7357 58.1958 74.7701 58.1958H75.3079L75.4021 58.208C76.0448 58.3119 76.3653 58.7371 76.5177 59.2897C76.5801 59.2499 76.6526 59.2288 76.7268 59.2288H77.2645L77.3579 59.2394C78.0424 59.3497 78.3621 59.8244 78.5014 60.4289ZM77.603 53.7288L77.1686 52.9847L78.2867 52.3437L78.7211 53.0878C79.2531 52.7348 79.7498 52.3315 80.2015 51.8844C80.6539 51.4356 81.063 50.9431 81.4212 50.4148L80.6703 49.9848L81.3179 48.8779L82.0679 49.3072C82.6229 48.1939 82.968 46.9597 83.0532 45.6557H82.1892V44.3736H83.0532C82.9711 43.1042 82.6359 41.8634 82.0671 40.7229L81.3171 41.1513L80.6695 40.0445L81.4204 39.6152C81.063 39.087 80.6548 38.5961 80.2023 38.1481C79.7488 37.6996 79.2522 37.2961 78.7195 36.9431L78.2867 37.6856L77.1686 37.0437L77.6014 36.3021C76.4776 35.7535 75.2308 35.4119 73.9127 35.3267V36.182H72.6176V35.3267C71.3012 35.4119 70.0544 35.7535 68.9314 36.3021L69.3642 37.0437L68.2453 37.6856L67.8125 36.9431C67.2928 37.2871 66.8076 37.6795 66.3633 38.1149L66.3305 38.1498C65.8769 38.5984 65.4689 39.0901 65.1124 39.6177L65.8592 40.0445L65.2173 41.1513L64.4665 40.7229C63.9107 41.8362 63.5648 43.0696 63.4796 44.3736H64.3427V45.6565H63.4796C63.5648 46.9597 63.9107 48.1931 64.4657 49.3056L65.2149 48.8779L65.8625 49.9848L65.1124 50.4132C65.4698 50.9415 65.878 51.4332 66.3305 51.8811C66.7836 52.3304 67.28 52.7348 67.8125 53.0886L68.2453 52.3469L69.3634 52.9831L68.929 53.728C69.3552 53.9357 69.7987 54.1142 70.256 54.2603C69.9081 54.6044 69.6299 55.0112 69.4363 55.4588C67.8789 54.8981 66.4821 54.0063 65.3329 52.8687C63.3017 50.8603 62.0451 48.0819 62.0451 45.0154C62.0451 41.949 63.3017 39.1706 65.3313 37.1606L65.3731 37.1225C67.4018 35.1344 70.1905 33.9067 73.266 33.9067C76.3612 33.9067 79.1662 35.1506 81.1974 37.1606L81.2023 37.1655C83.2319 39.1762 84.4877 41.9522 84.4877 45.0154C84.4877 48.0795 83.2311 50.8563 81.2007 52.8678L81.1958 52.8719C79.9154 54.1386 78.3285 55.1001 76.5546 55.6381C76.3841 55.1772 76.1235 54.7577 75.7964 54.3999C76.4251 54.2343 77.0301 54.0079 77.603 53.7288Z" fill="black"/>
<path d="M74.7139 46.3927H70.8289L70.1481 47.9577C69.9803 48.3428 69.8965 48.6304 69.8965 48.8206C69.8965 48.9717 69.968 49.1058 70.1111 49.2228C70.2591 49.3349 70.5748 49.4081 71.0583 49.4422V49.7128H67.8984V49.4422C68.3178 49.3691 68.5891 49.274 68.7124 49.157C68.964 48.923 69.2428 48.4476 69.5487 47.731L73.0785 39.5696H73.3375L76.8303 47.8187C77.1115 48.4818 77.3656 48.9132 77.5925 49.1131C77.8244 49.3081 78.1451 49.4178 78.5545 49.4422V49.7128H74.5955V49.4422C74.9951 49.4227 75.264 49.3569 75.4021 49.2447C75.5452 49.1326 75.6167 48.9961 75.6167 48.8352C75.6167 48.6207 75.518 48.2819 75.3207 47.8187L74.7139 46.3927ZM74.5067 45.8515L72.8047 41.844L71.0583 45.8515H74.5067Z" fill="black"/>
</g>
<rect x="10.8125" y="51.0309" width="37.6289" height="1.98822" fill="black"/>
<rect x="10.8125" y="56.1119" width="37.6289" height="1.98822" fill="black"/>
<rect x="10.8125" y="61.1929" width="19.5938" height="1.98822" fill="black"/>
</g>
</g>
<defs>
<clipPath id="clip0_887_2654">
<rect width="100" height="73.1707" fill="white"/>
</clipPath>
<clipPath id="clip1_887_2654">
<rect width="114" height="84" fill="white" transform="translate(-7)"/>
</clipPath>
<clipPath id="clip2_887_2654">
<rect width="31.3945" height="41.5317" fill="white" transform="translate(57.5703 28.9396)"/>
</clipPath>
</defs>
</svg>
