<svg width="100" height="74" viewBox="0 0 100 74" fill="none" xmlns="http://www.w3.org/2000/svg">
<rect width="100" height="73.1707" fill="#FBD9AF"/>
<g clip-path="url(#clip0_887_2626)">
<path fill-rule="evenodd" clip-rule="evenodd" d="M15.9842 7H85.0158C85.5416 7.00155 86.0453 7.20925 86.4171 7.57773C86.7889 7.94621 86.9984 8.44553 87 8.96663V54.3052C86.9984 54.8263 86.7889 55.3256 86.4171 55.6941C86.0453 56.0626 85.5416 56.2703 85.0158 56.2718H15.9842C15.7229 56.2711 15.4642 56.2193 15.2231 56.1194C14.9819 56.0196 14.763 55.8736 14.5787 55.6899C14.3945 55.5062 14.2485 55.2883 14.1492 55.0487C14.0499 54.8091 13.9992 54.5525 14 54.2934V8.95486C14.0047 8.4358 14.2156 7.93949 14.5871 7.57355C14.9585 7.20761 15.4605 7.00153 15.9842 7V7ZM43.3117 43.8008H43.383L45.2662 42.7233C45.2794 42.7099 45.2896 42.6938 45.2959 42.6762C45.2991 42.6697 45.3007 42.6627 45.3007 42.6555C45.3007 42.6484 45.2991 42.6414 45.2959 42.6349L43.2345 39.1021C43.2165 39.0733 43.2044 39.0413 43.1988 39.0078C43.1893 38.9657 43.1883 38.922 43.1961 38.8795C43.2038 38.8369 43.2201 38.7964 43.2439 38.7602C43.2677 38.7239 43.2986 38.6928 43.3347 38.6686C43.3708 38.6444 43.4115 38.6276 43.4543 38.6192L46.4841 37.9951C46.7101 37.9539 46.9248 37.8656 47.1138 37.736C47.1751 37.6934 47.2225 37.6341 47.2504 37.5653C47.2586 37.5467 47.2628 37.5266 47.2628 37.5064C47.2628 37.4861 47.2586 37.4661 47.2504 37.4475C47.1817 37.3427 47.0904 37.2542 46.9831 37.1884L36.7115 30.1639L37.668 42.476C37.6707 42.6007 37.7011 42.7234 37.7571 42.8351C37.7675 42.8543 37.7819 42.871 37.7993 42.8842C37.8167 42.8974 37.8367 42.9068 37.8581 42.9117C37.9313 42.9207 38.0056 42.9084 38.0719 42.8763C38.2805 42.7826 38.4652 42.6438 38.6126 42.4701L40.674 40.1737C40.6973 40.1455 40.7255 40.1216 40.7572 40.103C40.8346 40.0602 40.9258 40.0492 41.0114 40.0723C41.0969 40.0954 41.1699 40.1508 41.2146 40.2267L43.2939 43.7596C43.3054 43.7636 43.318 43.7636 43.3295 43.7596L43.3117 43.8008ZM25.032 20.8371C24.9245 20.8366 24.8181 20.8584 24.7197 20.9013C24.6213 20.9442 24.5331 21.0071 24.4608 21.0859C24.3886 21.1648 24.3338 21.2578 24.3002 21.359C24.2666 21.4602 24.2548 21.5672 24.2656 21.6732V23.2571C24.265 23.4075 24.3093 23.5546 24.3931 23.68C24.4769 23.8053 24.5964 23.9032 24.7363 23.9612C24.8763 24.0192 25.0305 24.0348 25.1793 24.0059C25.3282 23.9769 25.4651 23.9049 25.5726 23.7988C25.6464 23.729 25.7051 23.6449 25.7449 23.5517C25.7848 23.4585 25.805 23.3583 25.8043 23.2571V22.3091H26.5706C26.6713 22.3091 26.7709 22.2895 26.8639 22.2513C26.9569 22.2131 27.0414 22.1572 27.1125 22.0867C27.1837 22.0161 27.2402 21.9324 27.2787 21.8402C27.3172 21.7481 27.337 21.6493 27.337 21.5496C27.337 21.4498 27.3172 21.351 27.2787 21.2589C27.2402 21.1667 27.1837 21.083 27.1125 21.0125C27.0414 20.9419 26.9569 20.886 26.8639 20.8478C26.7709 20.8096 26.6713 20.79 26.5706 20.79L25.032 20.8371ZM25.7983 26.3013C25.799 26.1509 25.7546 26.0037 25.6709 25.8784C25.5871 25.7531 25.4676 25.6552 25.3277 25.5972C25.1877 25.5392 25.0335 25.5236 24.8846 25.5525C24.7358 25.5814 24.5989 25.6535 24.4914 25.7596C24.4175 25.8294 24.3589 25.9135 24.319 26.0067C24.2792 26.0998 24.259 26.2001 24.2597 26.3013V27.8263C24.259 27.9767 24.3034 28.1238 24.3872 28.2492C24.471 28.3745 24.5904 28.4724 24.7304 28.5304C24.8703 28.5884 25.0245 28.604 25.1734 28.575C25.3223 28.5461 25.4591 28.4741 25.5667 28.368C25.6405 28.2981 25.6992 28.214 25.739 28.1209C25.7788 28.0277 25.799 27.9275 25.7983 27.8263V26.2777V26.3013ZM25.7983 30.8705C25.7974 30.7208 25.7522 30.5747 25.6684 30.4503C25.5846 30.3258 25.4658 30.2284 25.3268 30.1702C25.1877 30.1119 25.0345 30.0953 24.886 30.1224C24.7375 30.1496 24.6003 30.2193 24.4914 30.3229C24.4176 30.394 24.3591 30.4792 24.3193 30.5733C24.2795 30.6674 24.2592 30.7684 24.2597 30.8705V32.3896C24.2606 32.5392 24.3058 32.6853 24.3896 32.8098C24.4734 32.9342 24.5922 33.0316 24.7313 33.0899C24.8703 33.1482 25.0236 33.1648 25.1721 33.1376C25.3205 33.1105 25.4577 33.0408 25.5667 32.9372C25.6404 32.866 25.6989 32.7808 25.7387 32.6868C25.7785 32.5927 25.7988 32.4916 25.7983 32.3896V30.8469V30.8705ZM25.7983 35.4338C25.7963 35.2846 25.7503 35.1393 25.666 35.0158C25.5818 34.8922 25.4629 34.7957 25.3241 34.7381C25.1852 34.6806 25.0325 34.6645 24.8845 34.6919C24.7366 34.7192 24.6 34.7888 24.4914 34.892C24.4181 34.9623 24.3598 35.0465 24.32 35.1396C24.2802 35.2326 24.2597 35.3327 24.2597 35.4338V36.9588C24.2503 37.0645 24.2632 37.1711 24.2976 37.2716C24.332 37.3722 24.3871 37.4646 24.4595 37.5429C24.5319 37.6212 24.6199 37.6837 24.7179 37.7264C24.8159 37.7692 24.9219 37.7913 25.029 37.7913C25.1361 37.7913 25.2421 37.7692 25.3401 37.7264C25.4382 37.6837 25.5262 37.6212 25.5985 37.5429C25.6709 37.4646 25.726 37.3722 25.7604 37.2716C25.7948 37.1711 25.8077 37.0645 25.7983 36.9588V35.4102V35.4338ZM25.7983 40.0029C25.799 39.8526 25.7546 39.7054 25.6709 39.5801C25.5871 39.4547 25.4676 39.3568 25.3277 39.2988C25.1877 39.2408 25.0335 39.2253 24.8846 39.2542C24.7358 39.2831 24.5989 39.3552 24.4914 39.4612C24.4175 39.5311 24.3589 39.6152 24.319 39.7084C24.2792 39.8015 24.259 39.9018 24.2597 40.0029V41.3925C24.2557 41.4955 24.2727 41.5982 24.3097 41.6945C24.3467 41.7908 24.403 41.8787 24.4751 41.9529C24.5472 42.0272 24.6337 42.0862 24.7294 42.1265C24.8251 42.1668 24.928 42.1875 25.032 42.1874H25.133C25.2683 42.1868 25.401 42.151 25.5179 42.0836C25.6348 42.0162 25.7318 41.9195 25.7992 41.8032C25.8666 41.687 25.902 41.5552 25.9018 41.4211C25.9017 41.287 25.866 41.1554 25.7983 41.0393V39.9735V40.0029ZM28.2044 40.6624C28.0527 40.6617 27.9042 40.7057 27.7777 40.7888C27.6512 40.8718 27.5525 40.9902 27.494 41.1289C27.4354 41.2676 27.4198 41.4205 27.4489 41.568C27.4781 41.7156 27.5508 41.8512 27.6578 41.9578C27.7283 42.031 27.8131 42.0891 27.9071 42.1286C28.0011 42.1681 28.1023 42.1881 28.2044 42.1874H29.743C29.8935 42.1854 30.0401 42.1398 30.1647 42.0563C30.2894 41.9728 30.3868 41.855 30.4448 41.7174C30.5029 41.5798 30.5191 41.4283 30.4915 41.2817C30.464 41.1351 30.3938 40.9997 30.2896 40.8921C30.2191 40.8189 30.1342 40.7607 30.0402 40.7212C29.9462 40.6817 29.8451 40.6617 29.743 40.6624H28.2044ZM32.8144 40.6624C32.6634 40.6633 32.516 40.7081 32.3904 40.7912C32.2649 40.8742 32.1666 40.992 32.1078 41.1298C32.049 41.2676 32.0323 41.4195 32.0597 41.5667C32.0871 41.7138 32.1574 41.8498 32.2619 41.9578C32.3337 42.0309 32.4196 42.0889 32.5146 42.1283C32.6095 42.1678 32.7114 42.1879 32.8144 42.1874H34.3471C34.4123 42.1939 34.478 42.1939 34.5431 42.1874L34.4303 40.6919H32.8322L32.8144 40.6624ZM44.2979 30.6762C44.2999 30.8253 44.3459 30.9706 44.4302 31.0942C44.5144 31.2177 44.6333 31.3142 44.7721 31.3718C44.911 31.4293 45.0637 31.4454 45.2117 31.4181C45.3596 31.3907 45.4963 31.3211 45.6048 31.2179C45.6787 31.148 45.7373 31.0639 45.7772 30.9707C45.817 30.8776 45.8372 30.7773 45.8365 30.6762V29.1511C45.8372 29.0008 45.7928 28.8536 45.709 28.7283C45.6252 28.6029 45.5058 28.505 45.3658 28.447C45.2259 28.389 45.0717 28.3735 44.9228 28.4024C44.7739 28.4313 44.6371 28.5034 44.5295 28.6094C44.4557 28.6793 44.3971 28.7634 44.3572 28.8565C44.3174 28.9497 44.2972 29.0499 44.2979 29.1511V30.6762V30.6762ZM44.2979 26.107C44.2885 26.2127 44.3014 26.3193 44.3358 26.4198C44.3702 26.5204 44.4253 26.6127 44.4977 26.691C44.57 26.7693 44.658 26.8319 44.7561 26.8746C44.8541 26.9174 44.9601 26.9395 45.0672 26.9395C45.1743 26.9395 45.2803 26.9174 45.3783 26.8746C45.4764 26.8319 45.5644 26.7693 45.6367 26.691C45.7091 26.6127 45.7642 26.5204 45.7986 26.4198C45.833 26.3193 45.8459 26.2127 45.8365 26.107V24.5819C45.8344 24.4328 45.7884 24.2875 45.7042 24.1639C45.6199 24.0404 45.5011 23.9439 45.3622 23.8863C45.2234 23.8288 45.0706 23.8127 44.9227 23.84C44.7748 23.8674 44.6381 23.937 44.5295 24.0402C44.4563 24.1105 44.398 24.1947 44.3582 24.2878C44.3184 24.3808 44.2979 24.4809 44.2979 24.5819V26.107ZM45.0167 22.3091C45.1672 22.3086 45.3142 22.2643 45.4394 22.1815C45.5646 22.0987 45.6625 21.9813 45.7208 21.8437C45.779 21.7062 45.7952 21.5547 45.7672 21.4082C45.7392 21.2616 45.6682 21.1265 45.5632 21.0196C45.4928 20.9464 45.4079 20.8883 45.3139 20.8488C45.2199 20.8093 45.1188 20.7893 45.0167 20.79H43.478C43.3275 20.7905 43.1805 20.8349 43.0553 20.9176C42.9301 21.0004 42.8323 21.1178 42.774 21.2554C42.7157 21.3929 42.6995 21.5444 42.7275 21.6909C42.7556 21.8375 42.8265 21.9726 42.9315 22.0795C43.002 22.1527 43.0868 22.2108 43.1808 22.2503C43.2748 22.2898 43.3759 22.3098 43.478 22.3091H45.0167ZM40.4067 22.3091C40.5073 22.3091 40.607 22.2895 40.6999 22.2513C40.7929 22.2131 40.8774 22.1572 40.9486 22.0867C41.0197 22.0161 41.0762 21.9324 41.1147 21.8402C41.1532 21.7481 41.173 21.6493 41.173 21.5496C41.173 21.4498 41.1532 21.351 41.1147 21.2589C41.0762 21.1667 41.0197 21.083 40.9486 21.0125C40.8774 20.9419 40.7929 20.886 40.6999 20.8478C40.607 20.8096 40.5073 20.79 40.4067 20.79H38.8739C38.7733 20.79 38.6737 20.8096 38.5807 20.8478C38.4877 20.886 38.4032 20.9419 38.3321 21.0125C38.2609 21.083 38.2044 21.1667 38.1659 21.2589C38.1274 21.351 38.1076 21.4498 38.1076 21.5496C38.1076 21.6493 38.1274 21.7481 38.1659 21.8402C38.2044 21.9324 38.2609 22.0161 38.3321 22.0867C38.4032 22.1572 38.4877 22.2131 38.5807 22.2513C38.6737 22.2895 38.7733 22.3091 38.8739 22.3091H40.4067ZM35.8026 22.3091C36.0058 22.3091 36.2008 22.2291 36.3445 22.0867C36.4882 21.9442 36.5689 21.751 36.5689 21.5496C36.5689 21.3481 36.4882 21.1549 36.3445 21.0125C36.2008 20.87 36.0058 20.79 35.8026 20.79H34.2639C34.1633 20.79 34.0636 20.8096 33.9707 20.8478C33.8777 20.886 33.7932 20.9419 33.722 21.0125C33.6509 21.083 33.5944 21.1667 33.5559 21.2589C33.5174 21.351 33.4976 21.4498 33.4976 21.5496C33.4976 21.6493 33.5174 21.7481 33.5559 21.8402C33.5944 21.9324 33.6509 22.0161 33.722 22.0867C33.7932 22.1572 33.8777 22.2131 33.9707 22.2513C34.0636 22.2895 34.1633 22.3091 34.2639 22.3091H35.8026ZM31.1926 22.3091C31.343 22.3086 31.4901 22.2643 31.6153 22.1815C31.7405 22.0987 31.8383 21.9813 31.8966 21.8437C31.9549 21.7062 31.9711 21.5547 31.943 21.4082C31.915 21.2616 31.8441 21.1265 31.7391 21.0196C31.6686 20.9464 31.5838 20.8883 31.4898 20.8488C31.3958 20.8093 31.2946 20.7893 31.1926 20.79H29.6539C29.5034 20.7905 29.3564 20.8349 29.2312 20.9176C29.106 21.0004 29.0081 21.1178 28.9498 21.2554C28.8915 21.3929 28.8754 21.5444 28.9034 21.6909C28.9314 21.8375 29.0024 21.9726 29.1073 22.0795C29.1778 22.1527 29.2627 22.2108 29.3567 22.2503C29.4507 22.2898 29.5518 22.3098 29.6539 22.3091H31.1926ZM63.3083 50.4485C63.2489 38.9431 62.4409 25.0177 63.3083 13.8597H16.6021V48.7115C16.6021 49.18 16.7898 49.6293 17.1241 49.9605C17.4583 50.2918 17.9116 50.4779 18.3843 50.4779L63.3083 50.4485ZM68.2153 19.7537C68.0897 19.7681 67.9624 19.756 67.8417 19.7182C67.7211 19.6804 67.61 19.6177 67.5155 19.5343C67.4211 19.4509 67.3455 19.3486 67.2937 19.2342C67.242 19.1198 67.2152 18.9958 67.2152 18.8705C67.2152 18.7451 67.242 18.6211 67.2937 18.5067C67.3455 18.3923 67.4211 18.29 67.5155 18.2066C67.61 18.1232 67.7211 18.0606 67.8417 18.0227C67.9624 17.9849 68.0897 17.9728 68.2153 17.9872H80.3107C80.4364 17.9728 80.5637 17.9849 80.6843 18.0227C80.8049 18.0606 80.9161 18.1232 81.0105 18.2066C81.105 18.29 81.1806 18.3923 81.2323 18.5067C81.2841 18.6211 81.3108 18.7451 81.3108 18.8705C81.3108 18.9958 81.2841 19.1198 81.2323 19.2342C81.1806 19.3486 81.105 19.4509 81.0105 19.5343C80.9161 19.6177 80.8049 19.6804 80.6843 19.7182C80.5637 19.756 80.4364 19.7681 80.3107 19.7537H68.2153ZM69.3738 42.2345H79.1523C79.4755 42.2353 79.7953 42.2994 80.0935 42.423C80.3917 42.5467 80.6622 42.7275 80.8897 42.9551C81.1171 43.1827 81.2969 43.4526 81.4188 43.7493C81.5407 44.046 81.6022 44.3637 81.5999 44.684V44.684C81.5983 45.3275 81.3401 45.9442 80.8816 46.3998C80.4231 46.8553 79.8015 47.1127 79.1523 47.1158H69.3738C68.7246 47.1127 68.1029 46.8553 67.6444 46.3998C67.1859 45.9442 66.9278 45.3275 66.9262 44.684C66.9278 44.0411 67.1861 43.425 67.6448 42.9703C68.1035 42.5157 68.7251 42.2596 69.3738 42.2581V42.2345ZM68.1856 38.1658C67.967 38.1408 67.7653 38.037 67.6189 37.8741C67.4725 37.7113 67.3917 37.5007 67.3917 37.2826C67.3917 37.0645 67.4725 36.854 67.6189 36.6912C67.7653 36.5283 67.967 36.4245 68.1856 36.3994H80.3523C80.5709 36.4245 80.7726 36.5283 80.919 36.6912C81.0654 36.854 81.1463 37.0645 81.1463 37.2826C81.1463 37.5007 81.0654 37.7113 80.919 37.8741C80.7726 38.037 80.5709 38.1408 80.3523 38.1658H68.1856ZM68.4054 32.0304C68.2798 32.0448 68.1525 32.0327 68.0319 31.9949C67.9112 31.9571 67.8001 31.8944 67.7056 31.811C67.6112 31.7276 67.5356 31.6254 67.4838 31.511C67.4321 31.3965 67.4053 31.2726 67.4053 31.1472C67.4053 31.0218 67.4321 30.8979 67.4838 30.7835C67.5356 30.669 67.6112 30.5668 67.7056 30.4834C67.8001 30.4 67.9112 30.3373 68.0319 30.2995C68.1525 30.2617 68.2798 30.2496 68.4054 30.264H80.1325C80.3511 30.289 80.5528 30.3929 80.6992 30.5557C80.8456 30.7186 80.9265 30.9291 80.9265 31.1472C80.9265 31.3653 80.8456 31.5758 80.6992 31.7387C80.5528 31.9015 80.3511 32.0054 80.1325 32.0304H68.4054ZM68.1738 25.895C68.0481 25.9094 67.9208 25.8973 67.8002 25.8595C67.6796 25.8217 67.5684 25.759 67.4739 25.6756C67.3795 25.5922 67.3039 25.4899 67.2521 25.3755C67.2004 25.2611 67.1736 25.1372 67.1736 25.0118C67.1736 24.8864 67.2004 24.7624 67.2521 24.648C67.3039 24.5336 67.3795 24.4314 67.4739 24.3479C67.5684 24.2645 67.6796 24.2019 67.8002 24.1641C67.9208 24.1263 68.0481 24.1142 68.1738 24.1286H80.3582C80.5768 24.1536 80.7785 24.2575 80.9249 24.4203C81.0713 24.5832 81.1522 24.7937 81.1522 25.0118C81.1522 25.2299 81.0713 25.4404 80.9249 25.6032C80.7785 25.7661 80.5768 25.8699 80.3582 25.895H68.1738ZM83.6851 50.1129V14.2836H64.8469V50.4485H82.6692C83.0395 50.4502 83.4002 50.3324 83.6969 50.1129H83.6851ZM41.5057 58.945H59.5062C59.5537 62.0304 60.8369 64.7978 64.3123 66.9706H36.6937C39.4918 64.9627 41.5116 62.5309 41.4998 58.945H41.5057ZM81.6058 9.89696C81.8408 9.89696 82.0705 9.96602 82.2659 10.0954C82.4613 10.2248 82.6136 10.4087 82.7035 10.6239C82.7934 10.8391 82.817 11.0759 82.7711 11.3043C82.7253 11.5328 82.6121 11.7426 82.4459 11.9073C82.2798 12.072 82.0681 12.1841 81.8376 12.2296C81.6071 12.275 81.3682 12.2517 81.1511 12.1626C80.934 12.0734 80.7484 11.9225 80.6179 11.7288C80.4873 11.5352 80.4177 11.3075 80.4177 11.0746C80.4177 10.7623 80.5428 10.4627 80.7657 10.2419C80.9885 10.021 81.2907 9.89696 81.6058 9.89696ZM73.6214 9.89696C73.8564 9.89696 74.0861 9.96602 74.2815 10.0954C74.4769 10.2248 74.6292 10.4087 74.7191 10.6239C74.8091 10.8391 74.8326 11.0759 74.7867 11.3043C74.7409 11.5328 74.6277 11.7426 74.4616 11.9073C74.2954 12.072 74.0837 12.1841 73.8532 12.2296C73.6227 12.275 73.3838 12.2517 73.1667 12.1626C72.9496 12.0734 72.7641 11.9225 72.6335 11.7288C72.503 11.5352 72.4333 11.3075 72.4333 11.0746C72.4333 10.7623 72.5585 10.4627 72.7813 10.2419C73.0041 10.021 73.3063 9.89696 73.6214 9.89696ZM77.6136 9.89696C77.8486 9.89696 78.0783 9.96602 78.2737 10.0954C78.4691 10.2248 78.6214 10.4087 78.7113 10.6239C78.8012 10.8391 78.8248 11.0759 78.7789 11.3043C78.7331 11.5328 78.6199 11.7426 78.4538 11.9073C78.2876 12.072 78.0759 12.1841 77.8454 12.2296C77.6149 12.275 77.376 12.2517 77.1589 12.1626C76.9418 12.0734 76.7563 11.9225 76.6257 11.7288C76.4951 11.5352 76.4255 11.3075 76.4255 11.0746C76.4255 10.7623 76.5506 10.4627 76.7735 10.2419C76.9963 10.021 77.2985 9.89696 77.6136 9.89696Z" fill="#333232"/>
<path d="M38.7349 35.3998H33.6079L32.7095 37.4896C32.4881 38.0039 32.3774 38.3881 32.3774 38.642C32.3774 38.8438 32.4718 39.0228 32.6606 39.1791C32.856 39.3288 33.2726 39.4265 33.9106 39.472V39.8334H29.7407V39.472C30.2941 39.3744 30.6522 39.2474 30.8149 39.0912C31.147 38.7787 31.5148 38.1439 31.9185 37.1869L36.5767 26.2885H36.9185L41.5278 37.3041C41.8989 38.1895 42.2342 38.7657 42.5337 39.0326C42.8397 39.293 43.2629 39.4395 43.8032 39.472V39.8334H38.5786V39.472C39.106 39.446 39.4608 39.3581 39.6431 39.2084C39.8319 39.0586 39.9263 38.8763 39.9263 38.6615C39.9263 38.375 39.7961 37.9226 39.5356 37.3041L38.7349 35.3998ZM38.4614 34.6771L36.2153 29.3256L33.9106 34.6771H38.4614Z" fill="#333232"/>
</g>
<defs>
<clipPath id="clip0_887_2626">
<rect width="73" height="60" fill="white" transform="translate(14 7)"/>
</clipPath>
</defs>
</svg>
